<svg xmlns="http://www.w3.org/2000/svg" width="280" height="130" fill="none"><path fill="#CF4545" d="M103 245a177 177 0 1 0 0-354 177 177 0 0 0 0 354z"/><path fill="#FAD24D" d="M69 32.4h127V144H69V32.4z"/><path fill="#FFD95E" d="M132.5 128a24.2 24.2 0 0 0 24.2-24 24.2 24.2 0 0 0-24.2-24.2 24.2 24.2 0 0 0-24.2 24.1 24.2 24.2 0 0 0 24.2 24.1z"/><path fill="#EDB937" d="M132.5 125.4c12 0 21.6-9.6 21.6-21.5a21.6 21.6 0 1 0-43.2 0c0 11.9 9.7 21.5 21.6 21.5z"/><path fill="#fff" d="M118-29h29a30.6 30.6 0 0 1 30.6 30.4v31h-17.4v-31c0-7.2-6-13-13.1-13h-29.2c-7.2 0-13.1 5.8-13.1 13v31H87.4v-31A30.6 30.6 0 0 1 117.9-29z"/><path fill="#ECF0F1" d="M132.5-15.2l-16 .1c-4 .3-15.1 3-15.5 16.2v31.3h3.8v-31c0-7.2 6-13 13.1-13h29.2c7.2 0 13.1 5.8 13.1 13v31h3.8V1.1c-.4-13.1-11.5-16-15.5-16.2h-16z"/><path fill="#EDB937" d="M121.3 43a2.8 2.8 0 1 1 0 5.6 2.8 2.8 0 0 1-2.8-2.9c0-1.5 1.2-2.8 2.8-2.8zm22.4 0a2.8 2.8 0 1 1 0 5.6 2.8 2.8 0 0 1 0-5.6zm-11.2 0a2.8 2.8 0 1 1 0 5.6 2.8 2.8 0 0 1 0-5.6z"/><path fill="#666" d="M132.5 95.1a3.7 3.7 0 0 1 2 6.8v8.9c0 1-1 2-2 2s-2-1-2-2v-9a3.7 3.7 0 0 1 2-6.7z"/></svg>