<?xml version="1.0" encoding="UTF-8" standalone="no"?>
<svg width="22px" height="25px" viewBox="0 0 22 25" version="1.1" xmlns="http://www.w3.org/2000/svg" xmlns:xlink="http://www.w3.org/1999/xlink">
    <!-- Generator: Sketch 39 (31667) - http://www.bohemiancoding.com/sketch -->
    <title>account_widget_status_error</title>
    <desc>Created with Sketch.</desc>
    <defs></defs>
    <g id="Page-1" stroke="none" stroke-width="1" fill="none" fill-rule="evenodd" opacity="0.300000012">
        <g id="account_widget_status_error" fill="#000000">
            <path d="M11,0 C8.75,0 7.232731,0.8867014 5.875,1.625 C4.5172689,2.3632986 3.2816307,3 1,3 L0,3 L0,4 C0,11.717856 2.6089135,16.742812 5.25,19.78125 C7.891087,22.819688 10.625,23.9375 10.625,23.9375 L11,24.0625 L11.375,23.9375 C11.375,23.9375 14.107796,22.844825 16.75,19.8125 C19.392204,16.780175 22,11.745028 22,4 L22,3 L21,3 C18.730806,3 17.486176,2.3636322 16.125,1.625 C14.763824,0.8863678 13.25,0 11,0 L11,0 Z M11,2 C12.75,2 13.753176,2.6136322 15.15625,3.375 C16.340793,4.0177834 17.910458,4.6372814 19.9375,4.84375 C19.747003,11.608267 17.507764,15.908878 15.25,18.5 C13.204885,20.847076 11.486125,21.627185 11,21.84375 C10.513342,21.624273 8.796084,20.822668 6.75,18.46875 C4.4917953,15.870798 2.2540904,11.579755 2.0625,4.84375 C4.0961026,4.6372561 5.661153,4.018065 6.84375,3.375 C8.244519,2.6132986 9.25,2 11,2 L11,2 Z M11,6 C8.250421,6 6,8.250421 6,11 C6,13.749579 8.250421,16 11,16 C13.749579,16 16,13.749579 16,11 C16,8.250421 13.749579,6 11,6 L11,6 Z M11,8 C11.458026,8 11.894616,8.101204 12.28125,8.28125 L8.28125,12.28125 C8.101204,11.894616 8,11.458026 8,11 C8,9.331301 9.331301,8 11,8 L11,8 Z M13.71875,9.71875 C13.898796,10.105384 14,10.541974 14,11 C14,12.668699 12.668699,14 11,14 C10.541974,14 10.105384,13.898796 9.71875,13.71875 L13.71875,9.71875 L13.71875,9.71875 Z" id="Shape"></path>
        </g>
    </g>
</svg>