<?xml version="1.0" encoding="UTF-8" standalone="no"?>
<svg width="26px" height="28px" viewBox="0 0 26 28" version="1.1" xmlns="http://www.w3.org/2000/svg" xmlns:xlink="http://www.w3.org/1999/xlink">
    <!-- Generator: Sketch 39 (31667) - http://www.bohemiancoding.com/sketch -->
    <title>account_widget_status_success</title>
    <desc>Created with Sketch.</desc>
    <defs></defs>
    <g id="Page-1" stroke="none" stroke-width="1" fill="none" fill-rule="evenodd" opacity="0.300000012">
        <g id="account_widget_status_success" fill="#000000">
            <path d="M13,0.71875 L12.375,1.21875 L9.5625,3.46875 L5.9375,3.3125 L5.125,3.25 L4.9375,4.03125 L4.03125,7.5 L1.03125,9.46875 L0.375,9.90625 L0.65625,10.65625 L1.9375,14 L0.65625,17.34375 L0.375,18.09375 L1.03125,18.53125 L4.03125,20.5 L4.9375,23.96875 L5.125,24.75 L5.9375,24.6875 L9.5625,24.53125 L12.375,26.78125 L13,27.28125 L13.625,26.78125 L16.4375,24.53125 L20.0625,24.6875 L20.875,24.75 L21.0625,23.96875 L21.96875,20.5 L24.96875,18.53125 L25.625,18.09375 L25.34375,17.34375 L24.0625,14 L25.34375,10.65625 L25.625,9.90625 L24.96875,9.46875 L21.96875,7.5 L21.0625,4.03125 L20.875,3.25 L20.0625,3.3125 L16.4375,3.46875 L13.625,1.21875 L13,0.71875 L13,0.71875 Z M13,3.28125 L15.46875,5.28125 L15.78125,5.53125 L16.15625,5.5 L19.34375,5.34375 L20.125,8.34375 L20.21875,8.71875 L20.53125,8.9375 L23.1875,10.6875 L22.0625,13.65625 L21.9375,14 L22.0625,14.34375 L23.1875,17.3125 L20.53125,19.0625 L20.21875,19.28125 L20.125,19.65625 L19.34375,22.65625 L16.15625,22.5 L15.78125,22.46875 L15.46875,22.71875 L13,24.71875 L10.53125,22.71875 L10.21875,22.46875 L9.84375,22.5 L6.65625,22.65625 L5.875,19.65625 L5.78125,19.28125 L5.46875,19.0625 L2.8125,17.3125 L3.9375,14.34375 L4.0625,14 L3.9375,13.65625 L2.8125,10.6875 L5.46875,8.9375 L5.78125,8.71875 L5.875,8.34375 L6.65625,5.34375 L9.84375,5.5 L10.21875,5.53125 L10.53125,5.28125 L13,3.28125 L13,3.28125 Z M18.28125,10.28125 L12,16.5625 L8.71875,13.28125 L7.28125,14.71875 L11.28125,18.71875 L12,19.40625 L12.71875,18.71875 L19.71875,11.71875 L18.28125,10.28125 L18.28125,10.28125 Z" id="Shape"></path>
        </g>
    </g>
</svg>