<svg width="550" height="96" viewBox="0 0 550 96" fill="none" xmlns="http://www.w3.org/2000/svg">
<path d="M545.313 39.9386C544.144 38.8752 542.723 38.0569 541.093 37.507C539.469 36.9604 537.687 36.6821 535.796 36.6821C530.757 36.6821 526.384 39.1998 524.549 41.9262C523.876 42.9233 523.492 43.9139 523.406 44.8779C523.3 46.0274 524.343 46.9185 525.414 46.9185H527.279C528.282 46.9185 528.932 46.7164 529.535 45.9114C530.171 45.0336 530.952 44.265 531.853 43.6256C533.589 42.3933 538.088 42.1548 540.785 44.2087C542.096 45.2091 542.736 46.68 542.736 48.7008V49.2275L534.249 50.6122C527.269 51.7783 521.226 54.7697 521.226 61.8192C521.226 67.6397 526.48 70.916 532.374 70.916C534.282 70.916 536.644 70.5053 538.747 69.6473C540.175 69.0642 541.782 68.1234 542.736 66.8977V68.2857C542.736 69.3856 543.644 70.2966 544.747 70.2966H547.046C548.136 70.2966 549.057 69.3988 549.057 68.2857V49.3236C549.057 45.7557 547.973 42.3569 545.313 39.9386ZM542.739 54.8691C542.693 55.5946 542.951 57.516 542.05 59.6361C541.089 61.8954 539.264 63.406 536.988 64.2409C534.636 65.1055 531.83 65.0392 530.402 64.5489C528.415 63.8698 527.55 62.4255 527.55 61.1931C527.55 57.8274 532.473 56.5155 535.789 55.9888L542.739 54.8691Z" fill="#243036"/>
<path d="M502.413 42.6913C504.338 42.6913 506.001 43.0557 507.356 43.7713C508.691 44.4802 509.751 45.6827 510.503 47.3424C511.006 48.4952 511.583 49.2207 512.858 49.2207H514.723C515.793 49.2207 516.834 48.3296 516.734 47.1966C516.605 44.1357 514.197 40.0875 508.542 37.7653C506.789 37.0464 504.729 36.6853 502.417 36.6853C498.305 36.6853 494.519 37.9773 491.73 40.9554C489.142 43.7216 487.854 47.4882 487.539 51.2779C487.291 53.3782 487.347 58.5362 488.708 62.0079C490.12 65.6023 492.647 68.2624 496.225 69.7763C499.968 71.3631 505.133 71.2339 508.538 69.8393C512.348 68.279 514.614 66.0031 515.734 63.8068C516.353 62.5877 516.688 61.4448 516.731 60.4211C516.834 59.2683 515.79 58.3805 514.723 58.3805H512.858C511.593 58.3805 511.013 59.0927 510.506 60.2522C509.754 61.9152 508.694 63.1177 507.359 63.8266C506.004 64.5422 504.341 64.9066 502.417 64.9066C499.197 64.9066 496.483 63.3132 494.913 60.06C493.737 57.6185 493.638 54.3721 493.856 51.649C494.29 45.8351 497.901 42.6913 502.413 42.6913Z" fill="#243036"/>
<path d="M467.911 42.6913C469.836 42.6913 471.499 43.0557 472.853 43.7713C474.188 44.4802 475.249 45.6827 476.001 47.3424C476.504 48.4952 477.08 49.2207 478.356 49.2207H480.221C481.291 49.2207 482.331 48.3296 482.232 47.1966C482.103 44.1357 479.694 40.0875 474.039 37.7653C472.287 37.0464 470.226 36.6853 467.914 36.6853C463.803 36.6853 460.017 37.9773 457.227 40.9554C454.64 43.7216 453.351 47.4882 453.037 51.2779C452.788 53.3782 452.844 58.5362 454.206 62.0079C455.617 65.6023 458.145 68.2624 461.723 69.7763C465.466 71.3631 470.631 71.2339 474.036 69.8393C477.846 68.279 480.112 66.0031 481.231 63.8068C481.851 62.5877 482.185 61.4448 482.229 60.4211C482.331 59.2683 481.288 58.3805 480.221 58.3805H478.356C477.09 58.3805 476.511 59.0927 476.004 60.2522C475.252 61.9152 474.192 63.1177 472.857 63.8266C471.502 64.5422 469.839 64.9066 467.914 64.9066C464.694 64.9066 461.981 63.3132 460.411 60.06C459.235 57.6185 459.135 54.3721 459.354 51.649C459.788 45.8351 463.399 42.6913 467.911 42.6913Z" fill="#243036"/>
<path d="M442.366 39.9386C441.197 38.8752 439.776 38.0569 438.146 37.507C436.523 36.9604 434.74 36.6821 432.849 36.6821C427.81 36.6821 423.437 39.1998 421.602 41.9262C420.93 42.9233 420.545 43.9139 420.459 44.8779C420.353 46.0274 421.397 46.9185 422.467 46.9185H424.332C425.336 46.9185 425.985 46.7164 426.588 45.9114C427.224 45.0336 428.006 44.265 428.907 43.6256C430.643 42.3933 435.141 42.1548 437.838 44.2087C439.15 45.2091 439.789 46.68 439.789 48.7008V49.2275L431.302 50.6122C424.322 51.7783 418.279 54.7697 418.279 61.8192C418.279 67.6397 423.533 70.916 429.427 70.916C431.335 70.916 433.697 70.5053 435.801 69.6473C437.228 69.0642 438.835 68.1234 439.789 66.8977V68.2857C439.789 69.3856 440.697 70.2966 441.8 70.2966H444.099C445.189 70.2966 446.11 69.3988 446.11 68.2857V49.3236C446.11 45.7557 445.027 42.3569 442.366 39.9386ZM439.792 54.8691C439.746 55.5946 440.004 57.516 439.103 59.6361C438.143 61.8954 436.317 63.406 434.041 64.2409C431.689 65.1055 428.884 65.0392 427.456 64.5489C425.468 63.8698 424.603 62.4255 424.603 61.1931C424.603 57.8274 429.526 56.5155 432.842 55.9888L439.792 54.8691Z" fill="#243036"/>
<path d="M390.323 38.1993C390.734 37.8216 390.966 37.2916 390.966 36.7351V28.1219C390.966 27.0287 390.065 26.1111 388.955 26.1111H386.407C385.318 26.1111 384.397 27.0088 384.397 28.1219V41.3729C384.397 42.2375 385.424 42.6914 386.063 42.105L390.323 38.1993Z" fill="#243036"/>
<path d="M415.298 67.2354L394.355 47.2761L414.059 29.1653C415.57 27.6547 414.36 26.1143 413.078 26.1143H409.474C408.686 26.1143 407.811 26.3329 407.013 27.1346L385.046 47.2926C384.635 47.6703 384.403 48.2003 384.403 48.7569V68.2855C384.403 69.392 385.308 70.2963 386.414 70.2963H388.962C390.068 70.2963 390.972 69.392 390.972 68.2855V53.0204L408 69.2661C408.785 70.0545 409.653 70.2963 410.471 70.2963H414.327C415.616 70.293 416.805 68.746 415.298 67.2354Z" fill="#243036"/>
<path d="M362.599 42.6913C364.523 42.6913 366.186 43.0557 367.541 43.7713C368.876 44.4802 369.936 45.6827 370.688 47.3424C371.192 48.4952 371.768 49.2207 373.044 49.2207H374.909C375.979 49.2207 377.019 48.3296 376.92 47.1966C376.79 44.1357 374.382 40.0875 368.727 37.7653C366.975 37.0464 364.914 36.6853 362.602 36.6853C358.491 36.6853 354.704 37.9773 351.915 40.9554C349.328 43.7216 348.039 47.4882 347.724 51.2779C347.476 53.3782 347.532 58.5362 348.894 62.0079C350.305 65.6023 352.833 68.2624 356.41 69.7763C360.154 71.3631 365.318 71.2339 368.724 69.8393C372.533 68.279 374.799 66.0031 375.919 63.8068C376.539 62.5877 376.873 61.4448 376.916 60.4211C377.019 59.2683 375.975 58.3805 374.909 58.3805H373.044C371.778 58.3805 371.198 59.0927 370.692 60.2522C369.94 61.9152 368.879 63.1177 367.544 63.8266C366.19 64.5422 364.527 64.9066 362.602 64.9066C359.382 64.9066 356.669 63.3132 355.098 60.06C353.922 57.6185 353.823 54.3721 354.042 51.649C354.479 45.8351 358.09 42.6913 362.599 42.6913Z" fill="#243036"/>
<path d="M340.618 45.1196C338.23 39.4614 333.072 36.6787 326.917 36.6787C320.093 36.6787 315.362 40.0246 313.215 45.1196C312.48 46.8654 312.023 48.7934 311.854 50.8374C311.678 52.4209 311.695 55.4984 311.854 56.744C312.02 58.841 312.48 60.7789 313.215 62.5049C315.581 68.0537 320.692 70.9126 326.917 70.9126C333.115 70.9126 338.28 68.067 340.589 62.5016C341.301 60.7822 341.771 58.8476 341.98 56.7573C342.063 56.0881 342.099 51.9372 341.98 50.8473C341.811 48.7934 341.354 46.8654 340.618 45.1196ZM326.917 64.9066C322.803 64.9066 320.129 62.8262 318.956 59.7719C318.214 57.8438 318.045 55.8794 318.045 53.8288C318.045 51.6855 318.221 49.7309 318.956 47.8228C320.132 44.7585 322.806 42.688 326.917 42.688C330.962 42.688 333.672 44.6956 334.874 47.8228C335.61 49.7342 335.785 51.6755 335.785 53.8288C335.785 55.896 335.613 57.8538 334.874 59.7719C333.701 62.8229 331.038 64.9066 326.917 64.9066Z" fill="#243036"/>
<path d="M275.172 68.2823C275.172 69.3822 276.08 70.2932 277.183 70.2932H279.482C280.572 70.2932 281.493 69.3954 281.493 68.2823V48.4622C281.493 47.3458 280.588 46.4414 279.472 46.4414H277.193C276.076 46.4414 275.172 47.3458 275.172 48.4622V68.2823Z" fill="#243036"/>
<path d="M302.671 37.3015H277.183C276.076 37.3015 275.172 38.2059 275.172 39.3124V41.3232C275.172 42.4197 276.063 43.3108 277.16 43.3108H298.361V68.2823C298.361 69.3888 299.266 70.2931 300.372 70.2931H302.671C303.778 70.2931 304.682 69.3888 304.682 68.2823V39.3124C304.682 38.2258 303.784 37.3015 302.671 37.3015Z" fill="#243036"/>
<path d="M264.502 37.3015H262.202C261.103 37.3015 260.192 38.2092 260.192 39.3124V50.4829H243.32V39.3124C243.32 38.2225 242.422 37.3015 241.309 37.3015H239.01C237.91 37.3015 236.999 38.2092 236.999 39.3124V68.2823C236.999 69.5213 237.973 70.2931 239.01 70.2931H241.309C242.399 70.2931 243.32 69.3954 243.32 68.2823V56.4923H260.188V68.2823C260.188 69.3821 261.096 70.2931 262.199 70.2931H264.498C265.598 70.2931 266.509 69.3855 266.509 68.2823V39.3124C266.509 38.2258 265.611 37.3015 264.502 37.3015Z" fill="#243036"/>
<path d="M224.845 39.9386C223.675 38.8752 222.254 38.0569 220.624 37.507C219.001 36.9604 217.219 36.6821 215.327 36.6821C210.289 36.6821 205.916 39.1998 204.081 41.9262C203.408 42.9233 203.024 43.9139 202.938 44.8779C202.832 46.0274 203.875 46.9185 204.945 46.9185H206.81C207.814 46.9185 208.463 46.7164 209.066 45.9114C209.702 45.0336 210.484 44.265 211.385 43.6256C213.121 42.3933 217.62 42.1548 220.316 44.2087C221.628 45.2091 222.268 46.68 222.268 48.7008V49.2275L213.78 50.6122C206.8 51.7783 200.758 54.7697 200.758 61.8192C200.758 67.6397 206.012 70.916 211.905 70.916C213.813 70.916 216.175 70.5053 218.279 69.6473C219.707 69.0642 221.313 68.1234 222.268 66.8977V68.2857C222.268 69.3856 223.175 70.2966 224.278 70.2966H226.577C227.667 70.2966 228.588 69.3988 228.588 68.2857V49.3236C228.588 45.7557 227.502 42.3569 224.845 39.9386ZM222.268 54.8691C222.221 55.5946 222.48 57.516 221.578 59.6361C220.618 61.8954 218.792 63.406 216.517 64.2409C214.165 65.1055 211.359 65.0392 209.931 64.5489C207.943 63.8698 207.079 62.4255 207.079 61.1931C207.079 57.8274 212.001 56.5155 215.317 55.9888L222.268 54.8691Z" fill="#243036"/>
<path d="M191.678 53.1398C193.993 51.3111 195.143 49.2075 195.143 46.2757C195.143 43.5725 194.096 41.3729 192.032 39.7364C189.991 38.1198 187.119 37.3015 183.495 37.3015H168.078C167.226 37.3015 166.504 38.0237 166.504 38.8751V68.7163C166.504 69.561 167.22 70.2898 168.078 70.2898H184.177C187.676 70.2898 190.518 69.4716 192.615 67.8583C196.312 65.0226 196.478 59.5665 194.854 56.32C194.265 55.1373 193.198 54.0673 191.678 53.1398ZM189.508 60.388C189.508 61.839 188.958 62.8097 187.828 63.3529C186.639 63.9294 185.012 64.2209 182.998 64.2209H172.825V56.6778H183.187C185.201 56.6778 186.795 56.9494 187.924 57.4861C188.988 57.9896 189.508 58.9404 189.508 60.388ZM172.825 50.6055V43.3738H182.379C184.399 43.3738 186.019 43.6156 187.195 44.096C188.292 44.5432 188.822 45.4575 188.822 46.8985C188.822 48.3495 188.332 49.3003 187.328 49.8038C186.261 50.3372 184.701 50.6088 182.69 50.6088H172.825V50.6055Z" fill="#243036"/>
<path d="M161.177 67.6037L146.001 28.3576C145.196 26.5919 144.159 26.1116 142.904 26.1116H139.174C137.918 26.1116 136.878 26.5853 136.066 28.3742L128.301 48.3732C127.794 49.6751 128.755 51.0797 130.153 51.0797H132.74C133.559 51.0797 134.294 50.5762 134.592 49.8143L141.036 33.2638L149.132 54.2103H127.394C126.572 54.2103 125.837 54.7138 125.542 55.4791L120.841 67.5871C120.099 69.2535 121.186 70.2903 122.262 70.2903H124.561C125.744 70.2903 126.754 69.9657 127.294 68.5247L130.445 60.4681H151.563L154.711 68.5213C155.231 69.9061 156.201 70.2903 157.447 70.2903H159.746C160.842 70.2937 161.906 69.2468 161.177 67.6037Z" fill="#243036"/>
<path d="M29.0779 75.7261L22.6147 92.4024C21.7733 94.569 19.6896 96.0001 17.364 96.0001H5.63692C1.67819 96.0001 -1.04489 92.0248 0.38622 88.3344L5.27252 75.7261H29.0779Z" fill="url(#paint0_linear)"/>
<path d="M88.4622 88.7849C89.8072 92.26 87.2465 96.0001 83.5196 96.0001H71.3055C68.98 96.0001 66.8963 94.5723 66.0548 92.4057L59.5883 75.7261H83.4004L83.8343 76.8458L88.4622 88.7849Z" fill="url(#paint1_linear)"/>
<path d="M44.7473 35.231L41.0668 44.7253C40.2254 46.8919 38.1416 48.3197 35.8161 48.3197H24.089C20.1302 48.3197 17.4072 44.3444 18.8383 40.654L33.199 3.61084L44.7473 35.231Z" fill="url(#paint2_linear)"/>
<path d="M64.5509 48.3197H52.8204C50.4949 48.3197 48.4112 46.8919 47.5697 44.7254L43.8893 35.231L33.2057 7.66569C31.7746 3.97529 34.4976 0 38.4564 0H50.1901C52.5157 0 54.5994 1.42779 55.4408 3.59764L69.8016 40.654C71.2327 44.3444 68.5096 48.3197 64.5509 48.3197Z" fill="#FF6E32"/>
<path d="M71.6798 55.4521H16.9863C14.6608 55.4521 12.5771 56.8799 11.7356 59.0498L4.83517 76.8459H83.8309L76.9305 59.0465C76.0923 56.8799 74.0053 55.4521 71.6798 55.4521Z" fill="#FF6E32"/>
<defs>
<linearGradient id="paint0_linear" x1="14.5391" y1="76.3588" x2="14.5391" y2="95.6877" gradientUnits="userSpaceOnUse">
<stop stop-color="#D2461E"/>
<stop offset="0.3563" stop-color="#DE5124"/>
<stop offset="1" stop-color="#FF6E32"/>
</linearGradient>
<linearGradient id="paint1_linear" x1="74.2074" y1="76.3588" x2="74.2074" y2="95.6877" gradientUnits="userSpaceOnUse">
<stop stop-color="#D2461E"/>
<stop offset="0.3563" stop-color="#DE5124"/>
<stop offset="1" stop-color="#FF6E32"/>
</linearGradient>
<linearGradient id="paint2_linear" x1="39.7015" y1="18.4288" x2="26.6714" y2="47.5809" gradientUnits="userSpaceOnUse">
<stop stop-color="#D2461E"/>
<stop offset="0.3563" stop-color="#DE5124"/>
<stop offset="1" stop-color="#FF6E32"/>
</linearGradient>
</defs>
</svg>
