<svg width="550" height="96" viewBox="0 0 550 96" fill="none" xmlns="http://www.w3.org/2000/svg">
<path d="M545.346 39.9386C544.177 38.8752 542.756 38.0569 541.126 37.507C539.503 36.9604 537.72 36.6821 535.829 36.6821C530.79 36.6821 526.417 39.1998 524.582 41.9262C523.91 42.9233 523.525 43.9139 523.439 44.8779C523.333 46.0274 524.377 46.9185 525.447 46.9185H527.312C528.316 46.9185 528.965 46.7164 529.568 45.9114C530.204 45.0336 530.986 44.265 531.887 43.6256C533.623 42.3933 538.121 42.1548 540.818 44.2087C542.13 45.2091 542.769 46.68 542.769 48.7008V49.2275L534.282 50.6122C527.302 51.7783 521.259 54.7697 521.259 61.8192C521.259 67.6397 526.513 70.916 532.407 70.916C534.315 70.916 536.677 70.5053 538.78 69.6473C540.208 69.0642 541.815 68.1234 542.769 66.8977V68.2857C542.769 69.3856 543.677 70.2966 544.78 70.2966H547.079C548.169 70.2966 549.09 69.3988 549.09 68.2857V49.3236C549.09 45.7557 548.006 42.3569 545.346 39.9386ZM542.772 54.8691C542.726 55.5946 542.984 57.516 542.083 59.6361C541.123 61.8954 539.297 63.406 537.021 64.2409C534.669 65.1055 531.863 65.0392 530.436 64.5489C528.448 63.8698 527.583 62.4255 527.583 61.1931C527.583 57.8274 532.506 56.5155 535.822 55.9888L542.772 54.8691Z" fill="white"/>
<path d="M502.446 42.6913C504.371 42.6913 506.034 43.0557 507.389 43.7713C508.724 44.4802 509.784 45.6827 510.536 47.3424C511.039 48.4952 511.616 49.2207 512.891 49.2207H514.756C515.826 49.2207 516.866 48.3296 516.767 47.1966C516.638 44.1357 514.229 40.0875 508.575 37.7653C506.822 37.0464 504.762 36.6853 502.449 36.6853C498.338 36.6853 494.552 37.9773 491.762 40.9554C489.175 43.7216 487.887 47.4882 487.572 51.2779C487.323 53.3782 487.38 58.5362 488.741 62.0079C490.152 65.6023 492.68 68.2624 496.258 69.7763C500.001 71.3631 505.166 71.2339 508.571 69.8393C512.381 68.279 514.647 66.0031 515.767 63.8067C516.386 62.5877 516.721 61.4448 516.764 60.4211C516.866 59.2683 515.823 58.3805 514.756 58.3805H512.891C511.626 58.3805 511.043 59.0927 510.539 60.2522C509.787 61.9152 508.727 63.1177 507.392 63.8266C506.037 64.5422 504.374 64.9066 502.449 64.9066C499.229 64.9066 496.516 63.3132 494.946 60.06C493.77 57.6185 493.671 54.3721 493.889 51.649C494.323 45.8351 497.934 42.6913 502.446 42.6913Z" fill="white"/>
<path d="M467.944 42.6913C469.869 42.6913 471.532 43.0557 472.887 43.7713C474.222 44.4802 475.282 45.6827 476.034 47.3424C476.537 48.4952 477.114 49.2207 478.389 49.2207H480.254C481.324 49.2207 482.364 48.3296 482.265 47.1966C482.136 44.1357 479.727 40.0875 474.073 37.7653C472.32 37.0464 470.26 36.6853 467.947 36.6853C463.836 36.6853 460.05 37.9773 457.26 40.9554C454.673 43.7216 453.384 47.4882 453.07 51.2779C452.821 53.3782 452.878 58.5362 454.239 62.0079C455.65 65.6023 458.178 68.2624 461.756 69.7763C465.499 71.3631 470.664 71.2339 474.069 69.8393C477.879 68.279 480.145 66.0031 481.264 63.8067C481.884 62.5877 482.219 61.4448 482.262 60.4211C482.364 59.2683 481.321 58.3805 480.254 58.3805H478.389C477.123 58.3805 476.54 59.0927 476.037 60.2522C475.285 61.9152 474.225 63.1177 472.89 63.8266C471.535 64.5422 469.872 64.9066 467.947 64.9066C464.727 64.9066 462.014 63.3132 460.444 60.06C459.268 57.6185 459.168 54.3721 459.387 51.649C459.821 45.8351 463.432 42.6913 467.944 42.6913Z" fill="white"/>
<path d="M442.399 39.9386C441.23 38.8752 439.809 38.0569 438.179 37.507C436.556 36.9604 434.773 36.6821 432.882 36.6821C427.843 36.6821 423.47 39.1998 421.635 41.9262C420.962 42.9233 420.578 43.9139 420.492 44.8779C420.386 46.0274 421.43 46.9185 422.5 46.9185H424.365C425.368 46.9185 426.018 46.7164 426.621 45.9114C427.257 45.0336 428.039 44.265 428.94 43.6256C430.675 42.3933 435.174 42.1548 437.871 44.2087C439.183 45.2091 439.822 46.68 439.822 48.7008V49.2275L431.335 50.6122C424.355 51.7783 418.312 54.7697 418.312 61.8192C418.312 67.6397 423.566 70.916 429.46 70.916C431.368 70.916 433.73 70.5053 435.833 69.6473C437.261 69.0642 438.868 68.1234 439.822 66.8977V68.2857C439.822 69.3856 440.73 70.2966 441.833 70.2966H444.132C445.222 70.2966 446.143 69.3988 446.143 68.2857V49.3236C446.143 45.7557 445.059 42.3569 442.399 39.9386ZM439.825 54.8691C439.779 55.5946 440.037 57.516 439.136 59.6361C438.175 61.8954 436.35 63.406 434.074 64.2409C431.722 65.1055 428.916 65.0392 427.489 64.5489C425.501 63.8698 424.636 62.4255 424.636 61.1931C424.636 57.8274 429.559 56.5155 432.875 55.9888L439.825 54.8691Z" fill="white"/>
<path d="M390.356 38.1993C390.767 37.8216 390.999 37.2916 390.999 36.7351V28.1219C390.999 27.0287 390.098 26.1111 388.988 26.1111H386.441C385.351 26.1111 384.43 27.0088 384.43 28.1219V41.3729C384.43 42.2375 385.457 42.6914 386.096 42.105L390.356 38.1993Z" fill="white"/>
<path d="M415.331 67.2354L394.388 47.2761L414.092 29.1653C415.603 27.6547 414.394 26.1143 413.112 26.1143H409.507C408.715 26.1143 407.844 26.3329 407.046 27.1346L385.079 47.2926C384.668 47.6703 384.436 48.2003 384.436 48.7569V68.2855C384.436 69.392 385.341 70.2963 386.447 70.2963H388.995C390.101 70.2963 391.006 69.392 391.006 68.2855V53.0204L408.033 69.2661C408.818 70.0545 409.686 70.2963 410.504 70.2963H414.36C415.649 70.293 416.838 68.746 415.331 67.2354Z" fill="white"/>
<path d="M362.632 42.6913C364.556 42.6913 366.219 43.0557 367.574 43.7713C368.909 44.4802 369.969 45.6827 370.721 47.3424C371.225 48.4952 371.801 49.2207 373.077 49.2207H374.942C376.012 49.2207 377.052 48.3296 376.953 47.1966C376.823 44.1357 374.415 40.0875 368.76 37.7653C367.008 37.0464 364.947 36.6853 362.635 36.6853C358.524 36.6853 354.737 37.9773 351.948 40.9554C349.361 43.7216 348.072 47.4882 347.757 51.2779C347.509 53.3782 347.565 58.5362 348.927 62.0079C350.338 65.6023 352.866 68.2624 356.443 69.7763C360.187 71.3631 365.351 71.2339 368.757 69.8393C372.567 68.279 374.832 66.0031 375.952 63.8067C376.572 62.5877 376.906 61.4448 376.949 60.4211C377.052 59.2683 376.009 58.3805 374.942 58.3805H373.077C371.811 58.3805 371.228 59.0927 370.725 60.2522C369.973 61.9152 368.913 63.1177 367.577 63.8266C366.223 64.5422 364.56 64.9066 362.635 64.9066C359.415 64.9066 356.702 63.3132 355.132 60.06C353.956 57.6185 353.856 54.3721 354.075 51.649C354.509 45.8351 358.12 42.6913 362.632 42.6913Z" fill="white"/>
<path d="M340.652 45.1196C338.263 39.4614 333.105 36.6787 326.95 36.6787C320.126 36.6787 315.395 40.0246 313.249 45.1196C312.513 46.8654 312.056 48.7934 311.887 50.8374C311.711 52.4209 311.728 55.4984 311.887 56.744C312.053 58.841 312.513 60.7789 313.249 62.5049C315.614 68.0537 320.725 70.9126 326.95 70.9126C333.148 70.9126 338.313 68.067 340.622 62.5016C341.334 60.7822 341.804 58.8476 342.013 56.7573C342.096 56.0881 342.132 51.9372 342.013 50.8473C341.844 48.7934 341.387 46.8654 340.652 45.1196ZM326.95 64.9066C322.836 64.9066 320.162 62.8262 318.99 59.7719C318.247 57.8438 318.079 55.8794 318.079 53.8288C318.079 51.6854 318.254 49.7309 318.99 47.8228C320.166 44.7585 322.839 42.688 326.95 42.688C330.995 42.688 333.705 44.6956 334.907 47.8228C335.643 49.7342 335.818 51.6755 335.818 53.8288C335.818 55.8959 335.646 57.8538 334.907 59.7719C333.735 62.8229 331.071 64.9066 326.95 64.9066Z" fill="white"/>
<path d="M275.205 68.2823C275.205 69.3822 276.113 70.2932 277.216 70.2932H279.515C280.605 70.2932 281.526 69.3954 281.526 68.2823V48.4622C281.526 47.3458 280.622 46.4414 279.505 46.4414H277.226C276.11 46.4414 275.205 47.3458 275.205 48.4622V68.2823Z" fill="white"/>
<path d="M302.704 37.3015H277.216C276.11 37.3015 275.205 38.2059 275.205 39.3123V41.3232C275.205 42.4197 276.096 43.3108 277.193 43.3108H298.395V68.2823C298.395 69.3888 299.299 70.2931 300.405 70.2931H302.704C303.811 70.2931 304.715 69.3888 304.715 68.2823V39.3123C304.715 38.2258 303.818 37.3015 302.704 37.3015Z" fill="white"/>
<path d="M264.531 37.3015H262.232C261.132 37.3015 260.221 38.2092 260.221 39.3123V50.4829H243.353V39.3123C243.353 38.2225 242.455 37.3015 241.342 37.3015H239.043C237.943 37.3015 237.032 38.2092 237.032 39.3123V68.2823C237.032 69.5213 238.006 70.2931 239.043 70.2931H241.342C242.432 70.2931 243.353 69.3954 243.353 68.2823V56.4922H260.221V68.2823C260.221 69.3821 261.129 70.2931 262.232 70.2931H264.531C265.631 70.2931 266.542 69.3854 266.542 68.2823V39.3123C266.542 38.2258 265.644 37.3015 264.531 37.3015Z" fill="white"/>
<path d="M224.875 39.9386C223.705 38.8752 222.284 38.0569 220.654 37.507C219.031 36.9604 217.249 36.6821 215.357 36.6821C210.318 36.6821 205.945 39.1998 204.11 41.9262C203.438 42.9233 203.053 43.9139 202.967 44.8779C202.861 46.0274 203.905 46.9185 204.975 46.9185H206.84C207.844 46.9185 208.493 46.7164 209.096 45.9114C209.732 45.0336 210.514 44.265 211.415 43.6256C213.151 42.3933 217.649 42.1548 220.346 44.2087C221.658 45.2091 222.297 46.68 222.297 48.7008V49.2275L213.81 50.6122C206.83 51.7783 200.787 54.7697 200.787 61.8192C200.787 67.6397 206.042 70.916 211.935 70.916C213.843 70.916 216.205 70.5053 218.309 69.6473C219.736 69.0642 221.343 68.1234 222.297 66.8977V68.2857C222.297 69.3856 223.205 70.2966 224.308 70.2966H226.607C227.697 70.2966 228.618 69.3988 228.618 68.2857V49.3236C228.621 45.7557 227.535 42.3569 224.875 39.9386ZM222.301 54.8691C222.254 55.5946 222.512 57.516 221.611 59.6361C220.651 61.8954 218.825 63.406 216.55 64.2409C214.197 65.1055 211.392 65.0392 209.964 64.5489C207.976 63.8698 207.112 62.4255 207.112 61.1931C207.112 57.8274 212.034 56.5155 215.35 55.9888L222.301 54.8691Z" fill="white"/>
<path d="M191.711 53.1398C194.026 51.3111 195.176 49.2075 195.176 46.2757C195.176 43.5725 194.129 41.3729 192.065 39.7364C190.024 38.1198 187.152 37.3015 183.528 37.3015H168.111C167.259 37.3015 166.537 38.0237 166.537 38.8751V68.7163C166.537 69.561 167.253 70.2898 168.111 70.2898H184.211C187.709 70.2898 190.551 69.4716 192.648 67.8583C196.345 65.0226 196.511 59.5665 194.888 56.32C194.298 55.1373 193.228 54.0673 191.711 53.1398ZM189.541 60.388C189.541 61.839 188.991 62.8097 187.861 63.3529C186.672 63.9294 185.045 64.2209 183.031 64.2209H172.858V56.6778H183.22C185.234 56.6778 186.828 56.9494 187.957 57.4861C189.021 57.9896 189.541 58.9404 189.541 60.388ZM172.858 50.6055V43.3738H182.412C184.433 43.3738 186.052 43.6156 187.229 44.096C188.325 44.5432 188.855 45.4575 188.855 46.8985C188.855 48.3495 188.365 49.3003 187.361 49.8038C186.294 50.3372 184.734 50.6088 182.723 50.6088H172.858V50.6055Z" fill="white"/>
<path d="M161.21 67.6037L146.034 28.3576C145.229 26.5919 144.193 26.1116 142.937 26.1116H139.207C137.951 26.1116 136.911 26.5853 136.099 28.3742L128.334 48.3732C127.828 49.6751 128.788 51.0797 130.186 51.0797H132.774C133.592 51.0797 134.327 50.5762 134.625 49.8143L141.069 33.2638L149.165 54.2103H127.427C126.605 54.2103 125.87 54.7138 125.575 55.4791L120.874 67.5871C120.132 69.2535 121.219 70.2903 122.295 70.2903H124.594C125.777 70.2903 126.787 69.9657 127.327 68.5246L130.478 60.4681H151.596L154.744 68.5213C155.264 69.9061 156.234 70.2903 157.48 70.2903H159.779C160.876 70.2936 161.939 69.2468 161.21 67.6037Z" fill="white"/>
<path d="M29.0812 75.7261L22.618 92.4024C21.7766 94.569 19.6929 96.0001 17.3674 96.0001H5.63695C1.67822 96.0001 -1.04489 92.0248 0.386217 88.3344L5.27252 75.7261H29.0812Z" fill="url(#paint0_linear)"/>
<path d="M88.4952 88.7849C89.8402 92.26 87.2794 96.0001 83.5526 96.0001H71.3385C69.013 96.0001 66.9293 94.5723 66.0878 92.4057L59.6213 75.7261H83.4334L83.8673 76.8458L88.4952 88.7849Z" fill="url(#paint1_linear)"/>
<path d="M44.7803 35.231L41.0998 44.7253C40.2584 46.8919 38.1747 48.3197 35.8491 48.3197H24.122C20.1633 48.3197 17.4402 44.3444 18.8713 40.654L33.2288 3.61084L44.7803 35.231Z" fill="url(#paint2_linear)"/>
<path d="M64.5838 48.3197H52.8534C50.5278 48.3197 48.4441 46.8919 47.6027 44.7254L43.9222 35.231L33.2386 7.66569C31.8075 3.97529 34.5306 0 38.4893 0H50.2231C52.5486 0 54.6323 1.42779 55.4738 3.59764L69.8345 40.654C71.2656 44.3444 68.5426 48.3197 64.5838 48.3197Z" fill="white"/>
<path d="M71.713 55.4521H17.0196C14.694 55.4521 12.6103 56.8799 11.7688 59.0498L4.8717 76.8459H83.8674L76.967 59.0465C76.1255 56.8799 74.0385 55.4521 71.713 55.4521Z" fill="white"/>
<defs>
<linearGradient id="paint0_linear" x1="14.5421" y1="76.3588" x2="14.5421" y2="91.416" gradientUnits="userSpaceOnUse">
<stop stop-color="white" stop-opacity="0.7"/>
<stop offset="1" stop-color="white"/>
</linearGradient>
<linearGradient id="paint1_linear" x1="74.2402" y1="76.3588" x2="74.2402" y2="91.416" gradientUnits="userSpaceOnUse">
<stop stop-color="white" stop-opacity="0.7"/>
<stop offset="1" stop-color="white"/>
</linearGradient>
<linearGradient id="paint2_linear" x1="39.7343" y1="18.4288" x2="29.5209" y2="41.279" gradientUnits="userSpaceOnUse">
<stop stop-color="white" stop-opacity="0.7"/>
<stop offset="1" stop-color="white"/>
</linearGradient>
</defs>
</svg>
