<svg xmlns="http://www.w3.org/2000/svg" xmlns:xlink="http://www.w3.org/1999/xlink" width="518" height="181" version="1.1"><g><g><g opacity=".2"><g transform="translate(-5676 -3136)"><use fill="#FFF" transform="matrix(6.12323e-17 1 -1 6.12323e-17 5993 3136)" xlink:href="#path0_fill"/></g></g><g opacity=".2"><g transform="translate(-5676 -3136)"><use fill="#FFF" transform="matrix(-1 0 0 -1 5846 3314)" xlink:href="#path0_fill"/></g></g><g opacity=".2"><g transform="translate(-5676 -3136)"><use fill="#FFF" transform="matrix(0.773661 0.633599 -0.633599 0.773661 5721.79 3227.67)" xlink:href="#path1_fill"/></g><g transform="translate(-5676 -3136)"><use fill="#FFF" transform="matrix(-0.773661 -0.633599 -0.633599 0.773661 5738.71 3225.94)" xlink:href="#path1_fill"/></g><g transform="translate(-5676 -3136)"><use fill="#FFF" transform="matrix(0.773661 0.633599 -0.633599 0.773661 5737.08 3209)" xlink:href="#path1_fill"/></g></g><g opacity=".2"><g transform="translate(-5676 -3136)"><use fill="#FFF" transform="matrix(0.506512 -0.862233 0.862233 0.506512 6122.81 3162.57)" xlink:href="#path1_fill"/></g><g transform="translate(-5676 -3136)"><use fill="#FFF" transform="matrix(-0.506512 0.862233 0.862233 0.506512 6118.48 3146.11)" xlink:href="#path1_fill"/></g><g transform="translate(-5676 -3136)"><use fill="#FFF" transform="matrix(0.506512 -0.862233 0.862233 0.506512 6102 3150.35)" xlink:href="#path1_fill"/></g></g><g opacity=".2"><g transform="translate(-5676 -3136)"><use fill="#FFF" transform="matrix(0.506512 -0.862233 0.862233 0.506512 5796.81 3180.98)" xlink:href="#path2_fill"/></g><g transform="translate(-5676 -3136)"><use fill="#FFF" transform="matrix(-0.506512 0.862233 0.862233 0.506512 5793.94 3170.06)" xlink:href="#path2_fill"/></g><g transform="translate(-5676 -3136)"><use fill="#FFF" transform="matrix(0.506512 -0.862233 0.862233 0.506512 5783 3172.87)" xlink:href="#path2_fill"/></g></g><g opacity=".5"><g opacity=".4" transform="translate(-5676 -3136)"><use fill="#FFF" transform="matrix(0.836342 -0.548208 0.548208 0.836342 5676 3159.8)" xlink:href="#path3_fill"/></g></g><g opacity=".5"><g opacity=".5" transform="translate(-5676 -3136)"><use fill="#FFF" transform="translate(6165 3220)" xlink:href="#path4_fill"/></g></g><g><g opacity=".2" transform="translate(-5676 -3136)"><use fill="#FFF" transform="translate(6136 3281)" xlink:href="#path5_fill"/></g></g><g opacity=".2"><g transform="translate(-5676 -3136)"><use fill="#FFF" transform="translate(5855 3141)" xlink:href="#path6_fill"/></g></g><g opacity=".3"><g><g transform="translate(-5676 -3136)"><use fill="#FFF" transform="translate(6077 3250)" xlink:href="#path7_fill"/></g></g></g><g opacity=".3"><g><g transform="translate(-5676 -3136)"><use fill="#FFF" transform="translate(5689 3275)" xlink:href="#path8_fill"/></g></g></g><g opacity=".2"><g><g transform="translate(-5676 -3136)"><use fill="#FFF" transform="translate(5784 3249)" xlink:href="#path9_fill"/></g></g></g><g opacity=".2"><g><g transform="translate(-5676 -3136)"><use fill="#FFF" transform="translate(5982 3296)" xlink:href="#path10_fill"/></g></g></g><g opacity=".3"><g><g transform="translate(-5676 -3136)"><use fill="#FFF" transform="translate(6054 3182)" xlink:href="#path9_fill"/></g></g></g></g></g><defs><path id="path0_fill" fill-rule="evenodd" d="M3.3 12.3A9 9 0 0 1 5.8 6a8.6 8.6 0 0 1 12.4 0 9 9 0 0 1 2.5 6.3c0 1 .8 1.7 1.7 1.7.9 0 1.6-.7 1.6-1.7C24 5.5 18.6 0 12 0 8.7 0 5.7 1.4 3.5 3.6A12.5 12.5 0 0 0 0 12.3c0 1 .7 1.7 1.6 1.7 1 0 1.7-.7 1.7-1.7z"/><path id="path1_fill" fill-rule="evenodd" d="M8.5 1.8l-.1.8-.5.5A9 9 0 0 1 6 4.3C5 5 3.5 5.7 2.3 6.8A7 7 0 0 0 .6 9c-.4 1-.6 2-.6 3S.8 14 1.7 14c1 0 1.8-.8 1.8-1.8 0-.6 0-1 .2-1.4l.5-.8c.4-.5 1-1 1.7-1.4C7 7.8 8.4 7.2 9.6 6.3c.6-.5 1.2-1 1.7-1.8.4-.8.7-1.7.7-2.7 0-1-.8-1.8-1.7-1.8-1 0-1.8.8-1.8 1.8z"/><path id="path2_fill" fill-rule="evenodd" d="M5.7 1.2c0 .2 0 .4-.2.5l-.3.4a6 6 0 0 1-1.2.8c-.7.4-1.7.9-2.5 1.6-.4.4-.8.9-1 1.5-.3.6-.5 1.3-.5 2s.5 1.2 1.2 1.2c.6 0 1.1-.5 1.1-1.2 0-.4 0-.6.2-.9l.3-.6L4 5.6l2.5-1.4c.4-.3.8-.7 1-1.2.4-.5.6-1.2.6-1.8C8 .5 7.4 0 6.8 0S5.7.5 5.7 1.2z"/><path id="path3_fill" fill-rule="evenodd" d="M2.2 3.7h-.4 21.5v19.6H3.7V3.7H2.1L0 1.8v23.4A1.9 1.9 0 0 0 1.8 27h23.4a1.9 1.9 0 0 0 1.8-1.8V1.8A1.9 1.9 0 0 0 25.2 0H1.8A1.9 1.9 0 0 0 0 1.8l2.2 1.9z"/><path id="path4_fill" fill-rule="evenodd" d="M27 14.5h-2a10.5 10.5 0 0 1-10.5 10.6A10.5 10.5 0 0 1 3.9 14.5 10.5 10.5 0 0 1 14.5 3.9a10.5 10.5 0 0 1 10.6 10.6H29a14.5 14.5 0 1 0-29 0 14.5 14.5 0 0 0 29 0h-2z"/><path id="path5_fill" fill-rule="evenodd" d="M24 14.5l1.5.4L28.9 2a1.6 1.6 0 0 0-2-2L14.2 3.6 1 7a1.6 1.6 0 0 0-.6 2.7L9.9 19l9.5 9.4a1.6 1.6 0 0 0 2.6-.7L25.5 15l-3-.8-2.8 10.2-7.5-7.5-7.5-7.4 10.2-2.8 10.3-2.8-2.8 10.3 1.6.4z"/><path id="path6_fill" d="M0 0v22h10l-2-2H2V2h15v7.1l2 2V0H0zm4 4v2h4V4H4zm7 0v2h4V4h-4zM4 8v2h4V8H4zm7 0v2h4V8h-4zm6 4l-2 2h-3v3l-2 2 2 2v3h3l2 2 2-2h3v-3l2-2-2-2v-3h-3l-2-2zM4 12v2h4v-2H4zm13 2.8l1.2 1.2H20v1.8l1.2 1.2-1.2 1.3V22h-1.8L17 23.3 15.7 22H14v-1.7L12.7 19l1.3-1.2V16h1.7l1.3-1.2zM4 16v2h4v-2H4z"/><path id="path7_fill" d="M13.3 1.7a.9.9 0 0 0-1.6 0L9.1 7.4a1 1 0 0 1-.8.5L2 8.6c-.8 0-1 1-.5 1.5l4.7 4c.2.3.4.7.3 1l-1.3 6a.9.9 0 0 0 1.2 1L12 19a1 1 0 0 1 1 0l5.5 3a.9.9 0 0 0 1.3-.8l-1.3-6c0-.4 0-.8.3-1l4.7-4.1a.8.8 0 0 0-.4-1.5l-6.4-.7a1 1 0 0 1-.8-.5l-2.6-5.7zm-1.7 4.4a1 1 0 0 1 1.8 0L14.7 9a.9.9 0 0 0 .7.5l3.2.3a1 1 0 0 1 .6 1.8l-2.4 2c-.2.2-.3.5-.2.8l.6 3a1 1 0 0 1-1.4 1.2L12.9 17a.8.8 0 0 0-.8 0l-2.9 1.6a1 1 0 0 1-1.4-1.1l.6-3c.1-.4 0-.7-.2-.9l-2.4-2a1 1 0 0 1 .6-1.8l3.2-.3a.9.9 0 0 0 .7-.5l1.3-2.9z"/><path id="path8_fill" d="M15.4 2a1 1 0 0 0-1.8 0l-3 6.4a1 1 0 0 1-.9.6l-7.4.7a1 1 0 0 0-.6 1.7L7.2 16c.3.2.4.6.3 1L6 23.9a1 1 0 0 0 1.4 1h.1l6.5-3.5a1 1 0 0 1 1 0l6.5 3.5a1 1 0 0 0 1.5-1l-1.5-6.8c-.1-.4 0-.8.3-1l5.5-4.7a1 1 0 0 0-.5-1.7L19.2 9a1 1 0 0 1-.8-.6l-3-6.4zm-1.8 4.6a1 1 0 0 1 1.8 0l1.7 3.6c.1.3.4.5.8.5l4 .4a1 1 0 0 1 .6 1.8l-3 2.5a1 1 0 0 0-.3 1L20 20a1 1 0 0 1-1.4 1.1L15 19.2a1 1 0 0 0-1 0l-3.6 2A1 1 0 0 1 9 20l.8-3.7c0-.3 0-.7-.3-.9l-3-2.5a1 1 0 0 1 .6-1.8l4-.3a1 1 0 0 0 .8-.6l1.7-3.6z"/><path id="path9_fill" d="M12 0a12 12 0 1 0 0 24 12 12 0 0 0 0-24zm0 2a10 10 0 1 1 0 20 10 10 0 0 1 0-20zm0 1a1 1 0 0 0 0 2 1 1 0 0 0 0-2zM6.3 5.3a1 1 0 0 0 0 2 1 1 0 0 0 0-2zm10.6.4L12.5 10a2 2 0 1 0 1.4 1.4l4.5-4.4-1.5-1.4zM4 11a1 1 0 0 0 0 2 1 1 0 0 0 0-2zm16 0a1 1 0 0 0 0 2 1 1 0 0 0 0-2zM6.3 16.7a1 1 0 0 0 0 2 1 1 0 0 0 0-2zm11.4 0a1 1 0 0 0 0 2 1 1 0 0 0 0-2z"/><path id="path10_fill" d="M10.5 0a10.5 10.5 0 1 0 0 21 10.5 10.5 0 0 0 0-21zm0 1.8a8.7 8.7 0 1 1 0 17.4 8.7 8.7 0 0 1 0-17.4zm0 .8a.9.9 0 0 0 0 1.8.9.9 0 0 0 0-1.8zm-5 2a.9.9 0 0 0 0 1.8.9.9 0 0 0 0-1.7zm9.3.3L11 8.8h-.4a1.7 1.7 0 1 0 1.7 1.3l3.9-4L14.8 5zM3.5 9.6a.9.9 0 0 0 0 1.8.9.9 0 0 0 0-1.8zm14 0a.9.9 0 0 0 0 1.8.9.9 0 0 0 0-1.8zm-12 5a.9.9 0 0 0 0 1.7.9.9 0 0 0 0-1.7zm10 0a.9.9 0 0 0 0 1.7.9.9 0 0 0 0-1.7z"/></defs></svg>