<svg width="318" height="318" viewBox="0 0 318 318" fill="none" xmlns="http://www.w3.org/2000/svg">
<path d="M318 159C318 222.67 280.58 277.59 226.53 302.99C225.31 303.56 224.09 304.12 222.86 304.65C203.31 313.24 181.72 318 159 318C124.03 318 91.69 306.71 65.44 287.58C65.17 287.38 64.9 287.19 64.64 286.99C25.43 258.03 0 211.48 0 159C0 71.19 71.18 0 159 0C246.81 0 318 71.19 318 159Z" fill="url(#paint0_linear)"/>
<path d="M212.279 137.895C208.154 151.794 208.48 168.92 211.609 178.395C213.98 185.575 221.56 191.982 229.038 190.86C244.466 188.545 253.48 156.03 248.526 135.17C246.223 125.472 242.026 121.645 234.019 121.426C221.577 121.086 214.704 129.726 212.279 137.895Z" fill="#4D3673"/>
<path d="M214.983 79.0102L209.101 66.5952L203.941 75.5932L206.898 80.9732L214.983 79.0102Z" fill="#4D3673"/>
<path d="M175.48 250.033C178.034 250.095 179.583 250.635 179.583 252.427L177.482 266.51H173.024L175.48 250.033Z" fill="#765397"/>
<path d="M118.961 225.677C116.211 225.757 112.664 225.135 112.664 227.517L115.399 241.6H119.223L118.961 225.677Z" fill="#765397"/>
<path d="M207.087 80.5112L207.109 80.5702C208.453 81.4652 209.384 82.1612 209.828 82.5362C223.348 91.6362 234.995 118.203 235.995 130.485C236.56 137.43 235.151 144.348 233.387 151.084L233.388 151.087C268.161 114.369 229.556 64.8862 207.087 80.5112Z" fill="#EE7C2D"/>
<path d="M237.946 221.231C237.946 221.231 230.566 225.469 224.994 220.267C222.723 218.146 221.175 214.716 219.436 211.916C208.176 225.373 204.161 228.617 196.327 238.869C194.8 240.868 193.183 242.531 191.493 243.903C195.968 246.006 201.71 247.577 208.966 247.581C238.946 247.591 237.946 221.231 237.946 221.231Z" fill="url(#paint1_linear)"/>
<path d="M129.768 57.0982C129.768 57.0982 133.908 40.8462 120.262 35.9402C106.616 31.0342 74.732 44.4692 69.973 63.2312C65.043 82.6652 71.353 95.0762 79.632 100.235C87.911 105.394 129.768 57.0982 129.768 57.0982Z" fill="#EE7C2D"/>
<path d="M112.652 191.481C112.652 191.481 107.666 196.36 100.416 192.861C102.306 197.184 107.261 206.187 116.715 209.192C115.826 202.958 114.507 196.944 112.67 191.519C112.664 191.507 112.652 191.481 112.652 191.481Z" fill="#DA6622"/>
<path d="M79.328 81.7021C79.328 81.7021 71.069 88.3221 75.569 96.9901C76.07 97.3771 89.274 94.8411 99.567 84.9861L79.328 81.7021Z" fill="#DA6622"/>
<path d="M112.652 191.481C112.652 191.481 106.781 197.237 98.515 191.782C75.661 176.702 87.159 136.869 106.99 152.869C106.99 152.869 91.587 117.969 124.42 87.6361C157.253 57.3031 205.521 79.6371 209.828 82.5361C223.348 91.6361 234.995 118.203 235.995 130.485C237.122 144.323 230.458 157.422 230.382 165.255C230.328 170.869 238.161 189.212 221.828 209.036C208.702 224.966 204.692 227.922 196.328 238.869C184.995 253.702 168.859 250.612 152.495 239.702C126.995 222.702 112.652 191.481 112.652 191.481Z" fill="#FFD9BA"/>
<path d="M98.303 164.799C100.228 165.039 101.959 165.49 103.746 166.376C104.624 166.823 105.496 167.398 106.27 168.195C107.049 168.972 107.685 170.034 108.008 171.189C108.326 172.35 108.304 173.546 108.107 174.613C107.889 175.659 107.654 176.815 106.515 178.04C105.955 178.626 104.999 179.193 103.898 179.231C102.802 179.286 101.757 178.844 101.033 178.153C100.294 177.47 99.811 176.484 99.744 175.426C99.667 174.362 100.05 173.355 100.544 172.645C101.37 171.519 102.952 171.275 104.079 172.101C105.205 172.927 105.449 174.509 104.623 175.636C104.625 175.61 104.686 175.435 104.651 175.223C104.618 175.011 104.503 174.853 104.375 174.758C104.247 174.666 104.041 174.589 103.795 174.616C103.546 174.644 103.4 174.798 103.441 174.797C103.524 174.825 103.878 174.304 104.022 173.716C104.19 173.135 104.245 172.598 104.17 172.107C104.035 171.15 103.267 170.162 102.045 169.405C100.867 168.652 99.314 168.082 97.904 167.773L97.798 167.75C96.99 167.573 96.478 166.775 96.655 165.966C96.821 165.204 97.545 164.707 98.303 164.799Z" fill="#EA9868"/>
<path d="M211.164 75.032C210.814 77.512 210.104 79.822 209.104 81.972C196.944 108.162 141.104 111.522 141.104 111.522C138.864 106.162 139.244 98.502 142.084 91.552C141.664 91.842 128.294 101.332 126.164 120.202C124.264 137.002 106.994 152.872 106.994 152.872C99.034 146.452 92.414 149.022 88.824 155.372C71.086 146.636 60.564 111.652 84.994 83.702C133.664 28.032 214.495 51.702 211.164 75.032Z" fill="#EE7C2D"/>
<path d="M170.657 131.617C170.551 131.546 170.358 131.437 170.177 131.334C170.002 131.23 169.813 131.128 169.616 131.029C169.23 130.827 168.845 130.623 168.435 130.443C167.638 130.052 166.799 129.727 165.966 129.387C165.12 129.08 164.266 128.777 163.402 128.509C162.526 128.282 161.662 127.988 160.772 127.808C157.234 126.992 153.565 126.605 149.907 126.826C146.263 127.054 142.576 127.617 139.082 128.885C137.283 129.375 135.625 130.245 133.899 130.967L133.256 131.249L132.644 131.594L131.419 132.286L128.96 133.672L128.841 133.739C128.181 134.111 127.344 133.878 126.972 133.217C126.617 132.587 126.818 131.793 127.41 131.398L129.896 129.754L131.143 128.931L131.768 128.52L132.43 128.171C134.209 127.268 135.932 126.219 137.834 125.546C141.521 123.917 145.513 122.996 149.54 122.465C153.583 121.939 157.712 122.074 161.76 122.714C162.778 122.85 163.773 123.104 164.784 123.297C165.785 123.532 166.778 123.806 167.771 124.091C168.755 124.411 169.743 124.719 170.715 125.112C171.204 125.289 171.691 125.502 172.178 125.715C172.42 125.818 172.666 125.927 172.917 126.052C173.165 126.172 173.403 126.282 173.715 126.454L173.776 126.488C175.23 127.287 175.761 129.114 174.962 130.568C174.163 132.022 172.336 132.553 170.882 131.754C170.806 131.712 170.728 131.664 170.657 131.617Z" fill="black"/>
<path d="M198.183 126.559C199.018 126.086 199.665 125.788 200.403 125.462C201.119 125.147 201.842 124.864 202.571 124.61C203.292 124.329 204.043 124.141 204.775 123.906C205.517 123.698 206.273 123.538 207.018 123.355C210.032 122.724 213.154 122.533 216.226 122.847C217.767 122.939 219.277 123.333 220.772 123.667C222.233 124.16 223.711 124.581 225.063 125.306L226.094 125.799L226.608 126.046L227.089 126.35L229.001 127.57C229.659 127.945 230.203 128.47 230.789 128.935L232.514 130.363C233.172 130.908 233.264 131.883 232.719 132.541C232.205 133.162 231.307 133.279 230.654 132.831L230.493 132.72L228.833 131.575C228.275 131.206 227.757 130.773 227.147 130.5L225.387 129.577L224.95 129.346L224.487 129.174L223.564 128.829C222.361 128.298 221.067 128.067 219.814 127.746C218.525 127.584 217.252 127.348 215.952 127.391C213.371 127.349 210.784 127.726 208.299 128.473C207.684 128.685 207.063 128.87 206.457 129.097C205.86 129.351 205.244 129.555 204.666 129.844C204.076 130.108 203.5 130.392 202.941 130.698C202.402 130.987 201.795 131.351 201.417 131.612L201.373 131.643C200.009 132.587 198.137 132.247 197.193 130.883C196.249 129.519 196.589 127.647 197.953 126.703C198.027 126.652 198.107 126.602 198.183 126.559Z" fill="black"/>
<path d="M189.179 141.809C188.305 145.948 187.627 150.123 187.333 154.307C187.028 158.485 187.084 162.679 187.717 166.74C188.353 170.788 189.558 174.733 191.618 178.102C193.638 181.491 196.533 184.223 199.948 185.984L200.286 186.222C200.714 186.524 200.984 186.97 201.078 187.446C201.434 189.281 201.325 191.214 200.745 192.961C200.168 194.711 199.14 196.265 197.836 197.46C196.533 198.66 194.953 199.504 193.3 199.932C191.646 200.365 189.931 200.378 188.33 200.063C187.787 199.956 187.433 199.43 187.54 198.887C187.637 198.394 188.08 198.057 188.567 198.079L188.586 198.08C189.946 198.14 191.281 197.914 192.464 197.404C193.647 196.898 194.674 196.114 195.438 195.158C196.204 194.203 196.704 193.081 196.891 191.942C197.078 190.8 196.955 189.652 196.573 188.593L197.703 190.056C193.636 187.694 190.29 184.138 188.152 180.071C185.96 176.014 184.882 171.557 184.42 167.163C183.967 162.752 184.146 158.355 184.685 154.045C185.214 149.73 186.131 145.498 187.237 141.337C187.379 140.803 187.927 140.485 188.461 140.627C188.977 140.764 189.291 141.281 189.183 141.798L189.179 141.809Z" fill="#EA9868"/>
<path d="M165.764 209.727C170.319 210.895 170.914 212.341 182.861 209.743C184.746 209.333 186.699 211.56 188.921 211.547C190.684 211.536 193.223 209.498 195.105 209.818C203.095 211.176 202.935 209.962 206.261 209.423C208.37 209.082 209.101 210.515 207.398 211.696C204.331 213.823 201.821 218.819 198.387 222.977C196.369 225.42 194.766 227.728 187.519 227.502C180.569 227.285 178.829 227.533 172.744 220.452C169.535 216.718 166.909 215.44 163.871 213.136C162.131 211.817 163.139 209.054 165.764 209.727Z" fill="#C30F5A"/>
<path d="M173.777 214.647C182.466 216.362 190.196 216.648 199.432 214.647C199.432 214.647 195.874 221.794 187.026 221.484C178.821 221.197 173.777 214.647 173.777 214.647Z" fill="white"/>
<path d="M79.328 81.7023C92.149 64.5523 103.649 54.7193 130.094 48.1133C131.962 50.9933 133.197 51.5813 137.411 52.9693C115.066 62.8023 101.066 71.1363 82.316 89.7193C81.718 85.0993 82.18 84.9573 79.328 81.7023Z" fill="#003A69"/>
<path d="M174.3 260.539C173.89 267.689 174.12 273.969 174.12 273.969C174.12 273.969 170.62 277.969 162.25 277.839C146.37 277.609 117 257.969 117 257.969C118.41 245.299 119.16 226.429 116.72 209.209C115.83 202.969 114.51 196.949 112.67 191.519C113.11 192.469 127.4 222.989 152.5 239.719C160.47 245.029 168.37 248.489 175.71 248.929C174.95 252.469 174.53 256.639 174.3 260.539Z" fill="#FFD9BA"/>
<path d="M175.707 248.929C168.368 248.489 160.469 245.029 152.499 239.719C127.399 222.989 113.109 192.469 112.669 191.519C114.179 195.964 115.691 202.03 116.719 209.209C124.599 222.789 147.949 258.879 174.299 260.539C174.516 256.882 174.945 252.486 175.707 248.929Z" fill="#FFAD85"/>
<path d="M222.86 304.65C203.31 313.24 181.72 318 159 318C124.03 318 91.69 306.71 65.44 287.58C65.17 287.38 64.9 287.19 64.64 286.99C68.03 284.42 70.64 280.82 74.47 278.51C79.11 275.72 84.23 273.73 89.5 272.45C100.48 269.8 111.94 270.06 123.22 270.63C141.46 271.55 159.66 273.25 177.76 275.71C185.79 276.81 193.89 278.08 201.4 281.11C208.92 284.15 215.9 289.14 219.91 296.18C221.39 298.78 222.39 301.68 222.86 304.65Z" fill="#765397"/>
<path d="M112.664 227.517C113.399 238.385 169.472 264.093 179.583 252.427C178.64 265.272 180.737 272.16 182.066 285.177C167.524 299.26 130.399 293.339 109.649 279.427C112.761 266.484 115.513 248.447 112.664 227.517Z" fill="#8769AE"/>
<path d="M116.631 236.185C119.351 254.975 118.245 261.992 114.185 280.75" stroke="#765397" stroke-width="2" stroke-miterlimit="10" stroke-linecap="round" stroke-linejoin="round"/>
<path d="M176.733 257.011C176.733 257.011 175.768 276.677 179.584 285.594" stroke="#765397" stroke-width="2" stroke-miterlimit="10" stroke-linecap="round" stroke-linejoin="round"/>
<path d="M169.745 257.011C169.745 257.511 168.295 280.75 171.649 289.427" stroke="#765397" stroke-width="2" stroke-miterlimit="10" stroke-linecap="round" stroke-linejoin="round"/>
<path d="M161.476 255.853C161.476 255.853 158.15 279.26 161.733 291.677" stroke="#765397" stroke-width="2" stroke-miterlimit="10" stroke-linecap="round" stroke-linejoin="round"/>
<path d="M151.849 253.51C151.849 253.51 151.171 272.651 148.733 290.76" stroke="#765397" stroke-width="2" stroke-miterlimit="10" stroke-linecap="round" stroke-linejoin="round"/>
<path d="M140.853 249.509C140.853 249.509 141.816 270.093 137.149 288.676" stroke="#765397" stroke-width="2" stroke-miterlimit="10" stroke-linecap="round" stroke-linejoin="round"/>
<path d="M128.955 244.076C128.955 244.076 130.816 265.677 125.65 285.094" stroke="#765397" stroke-width="2" stroke-miterlimit="10" stroke-linecap="round" stroke-linejoin="round"/>
<path d="M210.777 70.3712C204.185 60.2172 201.384 59.6392 198.537 58.0552C190.275 53.4592 180.261 51.6402 170.819 52.1162C158.866 52.7182 146.875 56.3782 137.448 63.7522C127.004 71.9212 120.311 84.1272 116.514 96.8312C112.717 109.535 111.573 122.857 110.448 136.069C102.556 136.115 94.32 136.511 86.427 136.558C84.512 118.123 88.403 99.0272 97.953 83.1422C107.503 67.2572 122.754 54.7532 140.412 49.1212C158.07 43.4892 177.998 44.9312 194.37 53.6192C205.148 59.3372 208.352 64.0082 210.777 70.3712Z" fill="#765397"/>
<path d="M66.387 136.507C62.845 151.236 64.341 173.665 74.095 185.443C79.179 191.582 92.089 193.618 100.685 190.247C117.076 183.82 118.335 146.588 113.271 130.154C110.296 120.501 100.517 115.323 90.088 115.04C75.682 114.651 68.42 128.056 66.387 136.507Z" fill="#8769AE"/>
<path opacity="0.4" d="M149.51 209.26C158.761 209.26 166.26 201.761 166.26 192.51C166.26 183.259 158.761 175.76 149.51 175.76C140.259 175.76 132.76 183.259 132.76 192.51C132.76 201.761 140.259 209.26 149.51 209.26Z" fill="url(#paint2_radial)"/>
<path opacity="0.4" d="M217.184 206.076C224.118 206.076 229.739 199.066 229.739 190.418C229.739 181.771 224.118 174.76 217.184 174.76C210.25 174.76 204.629 181.771 204.629 190.418C204.629 199.066 210.25 206.076 217.184 206.076Z" fill="url(#paint3_radial)"/>
<path d="M231.161 153.312C225.878 142.028 201.946 135.766 194.123 158.553C199.601 174.975 228.046 175.219 231.161 153.312Z" fill="white"/>
<path d="M201.405 147.362C199.658 149.938 198.597 153.276 198.597 156.931C198.597 161.502 200.247 165.587 202.837 168.29C206.717 170.193 211.289 170.806 215.633 170.024C219.392 167.574 221.967 162.636 221.967 156.931C221.967 150.675 218.871 145.342 214.511 143.203C210.012 142.927 205.345 144.103 201.405 147.362Z" fill="black"/>
<path d="M193.254 158.231C194.534 154.564 196.316 150.973 198.99 147.953C201.622 144.927 205.298 142.612 209.382 141.813C213.455 140.983 217.735 141.568 221.515 143.173C225.301 144.788 228.683 147.357 231.228 150.697C231.917 151.602 231.743 152.893 230.838 153.583C229.934 154.272 228.642 154.098 227.952 153.193C227.932 153.167 227.913 153.141 227.895 153.114L227.885 153.1C225.955 150.28 223.201 147.938 220.059 146.412C216.917 144.89 213.346 144.229 209.912 144.75C206.471 145.248 203.25 147.017 200.757 149.603C198.236 152.176 196.384 155.434 194.991 158.873L194.987 158.884C194.795 159.358 194.255 159.587 193.781 159.395C193.321 159.209 193.093 158.694 193.254 158.231Z" fill="black"/>
<path d="M128.245 152.416C142.13 138.408 167.125 139.694 175.481 159.846C164.227 173.707 134.931 176.351 128.245 152.416Z" fill="white"/>
<path d="M163.005 155.701C163.005 150.226 160.519 145.429 156.779 142.686C151.585 141.752 146.1 142.173 140.932 143.857C137.986 146.69 136.109 150.943 136.109 155.702C136.109 160.81 138.288 165.537 141.615 168.348C145.421 169.986 149.614 170.456 153.836 170.335C159.162 168.281 163.005 162.512 163.005 155.701Z" fill="black"/>
<path d="M175.103 159.472C173.062 155.37 170.086 151.787 166.367 149.285C162.663 146.767 158.295 145.337 153.863 145C144.996 144.302 135.845 147.884 130.23 154.399C129.258 155.527 127.554 155.654 126.426 154.682C125.298 153.71 125.171 152.006 126.143 150.878C126.175 150.841 126.207 150.805 126.24 150.771L126.257 150.754C129.891 146.993 134.427 144.27 139.258 142.662C144.093 141.053 149.255 140.533 154.269 141.2C159.276 141.858 164.141 143.762 168.143 146.821C172.165 149.861 175.21 154.017 177.15 158.532C177.396 159.104 177.131 159.767 176.56 160.012C176.009 160.249 175.373 160.012 175.108 159.482L175.103 159.472Z" fill="black"/>
<path opacity="0.35" d="M150.186 188.225C166.422 188.225 179.584 175.063 179.584 158.827C179.584 142.591 166.422 129.429 150.186 129.429C133.95 129.429 120.788 142.591 120.788 158.827C120.788 175.063 133.95 188.225 150.186 188.225Z" fill="white"/>
<path opacity="0.35" d="M214.074 188.224C226.561 188.224 236.684 175.341 236.684 159.449C236.684 143.557 226.561 130.674 214.074 130.674C201.587 130.674 191.464 143.557 191.464 159.449C191.464 175.341 201.587 188.224 214.074 188.224Z" fill="white"/>
<path d="M150.186 189.475C133.287 189.475 119.539 175.726 119.539 158.827C119.539 141.928 133.288 128.18 150.186 128.18C167.084 128.18 180.834 141.929 180.834 158.827C180.834 175.725 167.085 189.475 150.186 189.475ZM150.186 130.68C134.665 130.68 122.039 143.307 122.039 158.827C122.039 174.348 134.666 186.975 150.186 186.975C165.707 186.975 178.334 174.348 178.334 158.827C178.334 143.307 165.707 130.68 150.186 130.68Z" fill="black"/>
<path d="M214.074 189.475C200.918 189.475 190.214 176.005 190.214 159.45C190.214 142.894 200.918 129.424 214.074 129.424C227.231 129.424 237.935 142.894 237.935 159.45C237.935 176.005 227.231 189.475 214.074 189.475ZM214.074 131.924C202.296 131.924 192.714 144.272 192.714 159.45C192.714 174.628 202.296 186.975 214.074 186.975C225.852 186.975 235.435 174.627 235.435 159.45C235.435 144.273 225.852 131.924 214.074 131.924Z" fill="black"/>
<path d="M120.79 155.488C120.735 155.488 120.679 155.485 120.622 155.477L116.986 155.114C116.302 155.022 115.822 154.393 115.914 153.709C116.006 153.025 116.631 152.542 117.319 152.637L120.955 153C121.639 153.092 122.119 153.721 122.027 154.405C121.943 155.032 121.406 155.488 120.79 155.488Z" fill="black"/>
<path d="M191.464 157.452C191.148 157.452 190.831 157.333 190.588 157.094C185.54 152.135 180.618 156.374 180.412 156.556C179.894 157.012 179.105 156.966 178.647 156.447C178.19 155.93 178.239 155.14 178.755 154.683C181.112 152.6 186.984 150.05 192.339 155.31C192.831 155.793 192.839 156.585 192.355 157.078C192.111 157.327 191.787 157.452 191.464 157.452Z" fill="black"/>
<path d="M230.744 157.889L230.317 160.353L236.477 161.422L236.904 158.959L230.744 157.889Z" fill="black"/>
<path d="M33.07 160.103C33.07 157.392 35.268 155.193 37.979 155.193C40.692 155.193 42.892 157.392 42.892 160.103C42.892 162.815 40.692 165.014 37.979 165.014C35.268 165.014 33.07 162.815 33.07 160.103Z" fill="white"/>
<path d="M276.173 209.192C276.173 206.48 278.369 204.281 281.082 204.281C283.793 204.281 285.991 206.48 285.991 209.192C285.991 211.904 283.793 214.103 281.082 214.103C278.369 214.103 276.173 211.905 276.173 209.192Z" fill="white"/>
<path d="M70.637 247.58C70.637 244.429 73.194 241.883 76.34 241.883C79.489 241.883 82.043 244.43 82.043 247.58C82.043 250.728 79.489 253.278 76.34 253.278C73.194 253.279 70.637 250.728 70.637 247.58Z" fill="white"/>
<path d="M275.048 247.58C275.048 246.547 275.887 245.71 276.918 245.71C277.951 245.71 278.788 246.547 278.788 247.58C278.788 248.614 277.951 249.451 276.918 249.451C275.886 249.451 275.048 248.614 275.048 247.58Z" fill="white"/>
<path d="M237.95 58.0849C237.95 57.0509 238.788 56.2119 239.819 56.2119C240.853 56.2119 241.69 57.0509 241.69 58.0849C241.69 59.1159 240.853 59.9549 239.819 59.9549C238.788 59.9539 237.95 59.1159 237.95 58.0849Z" fill="white"/>
<path d="M33.234 208.277C33.234 203.862 36.813 200.281 41.229 200.281C45.643 200.281 49.222 203.862 49.222 208.277C49.222 212.692 45.643 216.271 41.229 216.271C36.813 216.271 33.234 212.692 33.234 208.277Z" fill="white"/>
<path d="M78.962 225.66C78.962 223.959 80.341 222.578 82.042 222.578C83.744 222.578 85.123 223.958 85.123 225.66C85.123 227.36 83.744 228.74 82.042 228.74C80.341 228.74 78.962 227.36 78.962 225.66Z" fill="white"/>
<path d="M265.098 100.622C265.098 96.206 268.677 92.626 273.091 92.626C277.508 92.626 281.087 96.206 281.087 100.622C281.087 105.037 277.508 108.616 273.091 108.616C268.677 108.615 265.098 105.036 265.098 100.622Z" fill="white"/>
<path d="M144.646 17.43C144.646 14.719 146.843 12.521 149.555 12.521C152.268 12.521 154.466 14.719 154.466 17.43C154.466 20.144 152.268 22.341 149.555 22.341C146.844 22.341 144.646 20.144 144.646 17.43Z" fill="white"/>
<path d="M265.098 177.163C265.098 174.317 267.404 172.011 270.247 172.011C273.093 172.011 275.401 174.317 275.401 177.163C275.401 180.008 273.094 182.315 270.247 182.315C267.404 182.315 265.098 180.008 265.098 177.163Z" fill="white"/>
<path d="M214.104 39.8088C214.104 36.1928 217.037 33.2598 220.651 33.2598C224.267 33.2598 227.2 36.1928 227.2 39.8088C227.2 43.4228 224.267 46.3558 220.651 46.3558C217.037 46.3558 214.104 43.4228 214.104 39.8088Z" fill="white"/>
<path d="M291.178 151.086C291.178 149.384 292.559 148.007 294.259 148.007C295.96 148.007 297.34 149.384 297.34 151.086C297.34 152.787 295.96 154.166 294.259 154.166C292.559 154.166 291.178 152.787 291.178 151.086Z" fill="white"/>
<path d="M233.604 263.43C233.604 261.728 234.983 260.35 236.684 260.35C238.386 260.35 239.765 261.728 239.765 263.43C239.765 265.132 238.386 266.51 236.684 266.51C234.983 266.51 233.604 265.132 233.604 263.43Z" fill="white"/>
<path d="M41.228 91.1611C41.228 89.4601 42.607 88.0811 44.309 88.0811C46.009 88.0811 47.389 89.4601 47.389 91.1611C47.389 92.8631 46.009 94.2411 44.309 94.2411C42.607 94.2411 41.228 92.8631 41.228 91.1611Z" fill="white"/>
<path d="M20.926 136.678C20.926 134.705 22.524 133.102 24.501 133.102C26.474 133.102 28.074 134.705 28.074 136.678C28.074 138.653 26.474 140.254 24.501 140.254C22.524 140.254 20.926 138.653 20.926 136.678Z" fill="white"/>
<defs>
<linearGradient id="paint0_linear" x1="159" y1="318" x2="159" y2="0" gradientUnits="userSpaceOnUse">
<stop stop-color="#B2E2F7"/>
<stop offset="1" stop-color="#0082CD"/>
</linearGradient>
<linearGradient id="paint1_linear" x1="205.27" y1="226.648" x2="216.645" y2="233.773" gradientUnits="userSpaceOnUse">
<stop stop-color="#DA6622"/>
<stop offset="1" stop-color="#EE7C2D"/>
</linearGradient>
<radialGradient id="paint2_radial" cx="0" cy="0" r="1" gradientUnits="userSpaceOnUse" gradientTransform="translate(149.51 192.51) scale(16.75)">
<stop stop-color="#FF9078"/>
<stop offset="1" stop-color="#FFD9BA"/>
</radialGradient>
<radialGradient id="paint3_radial" cx="0" cy="0" r="1" gradientUnits="userSpaceOnUse" gradientTransform="translate(217.181 190.418) scale(14.6126 13.9393)">
<stop stop-color="#FF9078"/>
<stop offset="1" stop-color="#FFD9BA"/>
</radialGradient>
</defs>
</svg>
