<svg fill="none" height="319" viewBox="0 0 319 319" width="319" xmlns="http://www.w3.org/2000/svg"><path d="m159 0c-87.82 0-159 71.19-159 159 0 52.84 25.78 99.66 65.44 128.58 26.25 19.13 58.59 30.42 93.56 30.42 24.15 0 47.03-5.38 67.53-15.01 54.05-25.4 91.47-80.32 91.47-143.99 0-87.81-71.19-159-159-159z" fill="#e4eef5" transform="translate(.167969 .634766)"/><path d="m0 2.96524.0200043.06c1.3399957.9 2.2700057 1.59 2.7200057 1.97 13.51999 9.09996 25.16999 35.66996 26.16999 47.94996.57 6.94-.84 13.86-2.61 20.6 34.78-36.72-3.83-86.21-26.3-70.57996z" fill="#ee7c2d" transform="translate(207.248 78.1797)"/><path d="m46.45 9.31s-7.38 4.24-12.95-.95999c-2.27-2.12-3.82-5.55001-5.56-8.35001-11.26 13.46-15.28 16.7-23.11 26.95-1.53 2-3.14 3.66-4.83 5.03 4.47 2.1 10.22 3.67 17.47 3.68 29.98.01 28.98-26.35 28.98-26.35z" fill="#ee7c2d" transform="translate(191.658 212.555)"/><path d="m4.83 26.87c-1.53 2-3.14 3.66-4.83 5.03 1.55.72 3.25 1.39 5.11 1.94 16.03-9.38 21.58-19.53 26.74-27.47-.87-1.32001-2.92-4.48-3.98-6.37-11.2 13.38-15.22 16.64-23.04 26.87z" fill="#da6622" transform="translate(191.658 212.635)"/><path d="m61.5359 22.179s4.14-16.24999-9.51-21.15999-45.53003 8.53-50.29003 27.28999c-4.93 19.43 1.38 31.85 9.66003 37 8.28 5.15 50.14-43.13 50.14-43.13z" fill="#ee7c2d" transform="translate(68.3926 35.5566)"/><path d="m12.24 0s-4.99 4.88-12.24 1.38c1.89 4.32001 6.85 13.33 16.3 16.33-.89-6.23-2.21-12.24999-4.04-17.6699915-.01-.01-.02-.0400085-.02-.0400085z" fill="#da6622" transform="translate(100.578 192.115)"/><path d="m5.10193 0s-8.26 6.62-3.76 15.29c.5.39 13.70997-2.15 23.99997-12z" fill="#da6622" transform="translate(74.3848 82.3359)"/><path d="m26.7475 119.575s-5.87 5.76-14.14.3c-22.85-15.08-11.36003-54.9099 8.47-38.9099 0 0-15.40004-34.9 17.43-65.23 32.83-30.33 81.0995-7.99996 85.4095-5.1 13.52 9.1 25.17 35.67 26.17 47.95 1.13 13.84-5.54 26.94-5.61 34.77-.05 5.61 7.78 23.9599-8.55 43.7799-13.13 15.93-17.14 18.89-25.5 29.83-11.3295 14.83-27.4695 11.74-43.8295.83-25.51-17-39.85-48.22-39.85-48.22z" fill="#ffd9ba" transform="translate(86.0703 72.541)"/><path d="m11.3857 6.40045c-.62-2.2-2.21004-3.77-4.26004-4.81-1.79-.89-3.52-1.340002-5.44-1.580002-.759995-.09-1.479997.409998-1.649997 1.170002-.18.81.339999 1.60999 1.139997 1.77999l.11.02001c2.34.51 5.93 1.97 6.27 4.33v.07999c-.03-.03-.06-.05999-.09-.07999-1.13-.83-2.71-.58001-3.53.53999-.49.71-.88 1.72-.8 2.77996.07 1.06.55 2.04 1.29 2.73.72.69 1.77001 1.13 2.87001 1.08 1.1-.04 2.05999-.6 2.61999-1.19 1.58004-1.73 2.06004-4.70995 1.47004-6.84995z" fill="#ea9868" transform="translate(96.7812 165.426)"/><path d="m140.511 25.549c-.35 2.48-1.06 4.79-2.06 6.94-12.16 26.19-68.0002 29.55-68.0002 29.55-2.24-5.36-1.86-13.0199.98-19.97-.42.2901-13.79 9.78-15.92 28.65-1.9 16.8-19.17 32.67-19.17 32.67-7.96-6.42-14.58-3.85-18.17 2.5-17.740035-8.74-28.26-43.72-3.83-71.67 48.67-55.67 129.5002-31.99995 126.1702-8.67z" fill="#ee7c2d" transform="translate(70.8164 50.1172)"/><path d="m61.63 69.02c-.41 7.15-.18 13.43-.18 13.43s-3.5 4-11.87 3.87c-15.88-.23-45.25001-19.87-45.25001-19.87 2.22-19.97 2.17001-47.27-4.32999-66.45.44.95 14.73 31.47 39.83 48.2 7.97 5.31 15.87 8.77 23.21 9.21-.76 3.54-1.18 7.71-1.41 11.61z" fill="#ffd9ba" transform="translate(112.828 192.135)"/><path d="m63.04 57.41c-7.34-.44-15.24-3.9-23.21-9.21-25.1-16.73-39.39-47.25-39.83-48.2.04.12.069993.240001.109993.360001 1.829997 5.469999 3.120007 11.599999 3.940007 17.329999 7.88 13.58 31.23 49.67 57.58 51.33.22-3.67.64-8.03 1.41-11.61z" fill="#ffad85" transform="translate(112.828 192.135)"/><path d="m12.287 7.05104c-4.38996 1.2-8.48996 3.93996-10.11996 4.78996l-.12001.07c-.66.37-1.499992.14-1.869992-.52-.36-.63-.1499973-1.41997.440003-1.81997.1-.05 23.089959-17.7 46.299959-4.94l.06.03c1.45.8 1.99 2.63001 1.19 4.08001-.8 1.44996-2.63 1.98996-4.08 1.18999-10.58-5.82-22.45-6.26999-31.8-2.87999z" fill="#000" transform="translate(126.961 122.465)"/><path d="m35.8514 8.23588c.66.54.75 1.51999.2 2.18002-.51.62-1.41.74-2.06.29l-.16-.11-1.66-1.15002c-9.51-6.28-20.01-5.09-27.42001.04l-.04001.03c-1.36.94002-3.23999.60002-4.179993-.76-.94-1.36-.6000057-3.24001.759993-4.18001 17.47002-12.1 34.46002 3.62001 34.56002 3.66001z" fill="#000" transform="translate(196.826 122.76)"/><path d="m7.45161 37.5029c-6.15-10.05-4.88-24.72-2.44-36.29001v-.00999c.11-.520004-.21001-1.030002-.72001-1.1700023-.53-.1399997-1.08.1799913-1.22.7099913-3.299997 12.420011-5.16999 27.460011.91001 38.730011 1.98 3.77 5.00999 7.08 8.66999 9.43.94 4.44-2.76999 8.82-8.23999 8.58h-.02c-.49-.02-.93.32-1.03.81-.11.54.24999 1.07.78999 1.18 3.51.69 6.98-.28 9.51-2.6 1.3-1.2 2.33-2.75 2.91-4.5 3.08-9.24-3.5-5.45-9.11999-14.87z" fill="#ea9868" transform="translate(184.326 141.232)"/><path d="m2.7582.350941c4.55 1.169999 5.15001 2.610009 17.1.020005 1.88-.4100004 3.84 1.820004 6.06 1.800004 1.76-.01 4.3-2.049997 6.18-1.729997 7.99 1.359997 7.83.139985 11.16-.3900147 2.11-.3400003 2.84 1.0900017 1.14 2.2700017-3.07 2.13-5.58 7.12-9.01 11.27996-2.02 2.44-3.62 4.75-10.87 4.52-6.95-.22-8.69.03-14.77999-7.05-3.21-3.72996-5.83001-5.00995-8.870006-7.31995-1.74-1.32-.740001-4.080009 1.889996-3.400009z" fill="#c30f5a" transform="translate(163.17 210.016)"/><path d="m0 0c8.69 1.72 16.42 2 25.66 0 0 0-3.56 7.15-12.41 6.84-8.2-.29-13.25-6.84-13.25-6.84z" fill="#fff" transform="translate(173.938 215.275)"/><path d="m0 9.30462c13.89-14.01 38.88-12.72001 47.24 7.42998-11.26 13.87-40.55 16.51-47.24-7.42998z" fill="#fff" transform="translate(128.408 143.74)"/><path d="m26.9 13.5042c0-5.46996-2.49-10.26996-6.23-13.019961-5.19-.93-10.68001-.5099865-15.85001 1.170011-2.95 2.83-4.81999 7.09-4.81999 11.83995 0 5.11 2.17999 9.83 5.50999 12.65 3.81 1.64 8.00001 2.11 12.22001 1.99 5.33-2.05 9.17-7.82 9.17-14.63z" fill="#000" transform="translate(136.268 142.83)"/><path d="m37.04 10.1592c-5.28-11.28004-29.21-17.55004-37.04 5.24 5.48 16.42 33.92 16.67 37.04-5.24z" fill="#fff" transform="translate(194.287 143.785)"/><g fill="#000"><path d="m2.81 4.19975c-1.75 2.58-2.81 5.90995-2.81 9.56995 0 4.57 1.65001 8.66 4.24001 11.36 3.88 1.9 8.44999 2.5201 12.79999 1.7301 3.76-2.4501 6.33-7.3901 6.33-13.0901 0-6.25996-3.1-11.58996-7.46-13.7299567-4.49-.2800003-9.16.9000037-13.1 4.1600067z" transform="translate(198.758 143.795)"/><path d="m.0507072 16.7977c2.7700028-7.93997 7.8700028-14.79996 16.1299928-16.419964 8.12-1.649996 16.79 2.250004 21.85 8.880004.69.89996.51 2.19996-.39 2.88996s-2.2.51-2.89-.39c-.02-.03-.04-.05-.06-.08l-.01-.01c-7.32-10.699955-24.89999-13.96997-32.88999 5.77v.01c-.19.47-.73.7-1.210004.51-.46-.18-.689999-.7-.5299988-1.16z" transform="translate(193.367 142.066)"/><path d="m49.6013 18.5817c-9.35-18.790049-33.56-18.200056-44.87003-5.0701-.97 1.13-2.67999 1.26-3.799993.28-1.12-.98-1.249999-2.6799-.279999-3.79994.03-.04.059998-.07001.099998-.11001l.019997-.02c14.300027-14.8 41.740027-13.52 50.890027 7.77995.25.57-.02 1.23-.59 1.48-.57.24-1.2.0001-1.47-.5399z" transform="translate(125.666 141.523)"/></g><path d="m67.7207 40.81c-8.21-3.71-7.92-17.45-9.76-17.43-2.17.02-1.05 18.16-10.18 20.18-14.54 3.22-48.470031-19.56-47.7700314-28.39l12.1500314-15.17s29.37 19.64 45.25 19.87c8.37.13 11.87-3.87 11.87-3.87l13.82 13.86s-6.94 14.77-15.38 10.95z" fill="#fff" transform="translate(104.996 258.586)"/><path d="m122.5 14.69s-6.94 14.77-15.38 10.95c-8.21-3.71-7.92-17.45001-9.76-17.43001-2.17.02-1.05 18.16001-10.18 20.18001-7.74 1.71-20.97-3.94-31.55-10.93-9.28-6.05-16.56-13.26-16.23-17.46-12.8 4.29-30.14 10.88-39.4 14.46 26.26 19.13 58.6 30.42 93.57 30.42 24.15 0 47.03-5.38 67.53-15.01-8.46-3.71-26.22-10.51-38.6-15.18z" fill="#003a69" transform="translate(65.5977 273.756)"/><path d="m0 33.59c12.82-17.15 24.32-26.98 50.77-33.59 1.87 2.88 3.1 3.47 7.32 4.86-22.35 9.83-36.35 18.17-55.1 36.75-.6-4.62-.13-4.76-2.99-8.02z" fill="#003a69" transform="translate(79.4883 48.7461)"/><path d="m29.4 58.8c16.2372 0 29.4-13.1628 29.4-29.4s-13.1628-29.4-29.4-29.4-29.4 13.1628-29.4 29.4 13.1628 29.4 29.4 29.4z" fill="#fff" opacity=".35" transform="translate(120.947 130.066)"/><path d="m22.61 57.56c12.4872 0 22.61-12.8852 22.61-28.78s-10.1228-28.78-22.61-28.78-22.61 12.8852-22.61 28.78 10.1228 28.78 22.61 28.78z" fill="#fff" opacity=".35" transform="translate(191.627 131.307)"/><path d="m108.341 1.24001c-11.6501 0-21.3702 10.56999-23.4502 24.48999-3.86-2.64-7.7599-1.77-10.2599-.36-2.5101-14.39-15.0801-25.37-30.1801-25.37-14.87 0-27.2899 10.64-30.07 24.71l-12.95995-1.74c-.689999-.09-1.310003.39-1.4100027 1.07-.09.68.3899997 1.31 1.0700027 1.41l12.92005 1.73c-.13 1.14-.2001 2.3-.2001 3.47 0 16.9 13.75 30.65 30.65 30.65s30.6501-13.75 30.6501-30.65c0-.85-.04-1.69-.11-2.52 1.15-.86 5.2899-3.4 9.5899.54-.0599.86-.0999 1.72-.0999 2.6 0 16.56 10.7 30.03 23.8601 30.03 13.16 0 23.86-13.47 23.86-30.03s-10.7-30.02999-23.86-30.02999zm-63.8902 57.54999c-15.52 0-28.15-12.63-28.15-28.15s12.63-28.14999 28.15-28.14999 28.1501 12.62999 28.1501 28.14999c0 15.53-12.6301 28.15-28.1501 28.15zm63.8902 0c-11.7801 0-21.3601-12.35-21.3601-27.53s9.58-27.52999 21.3601-27.52999c11.59 0 21.04 11.94999 21.35 26.78999l-4.68-.81-.43 2.46 5.07.88c-.72 14.36-10 25.74-21.31 25.74z" fill="#000" transform="translate(105.896 128.816)"/></svg>