<svg xmlns="http://www.w3.org/2000/svg" width="250" height="130" fill="none"><path fill="#24C4BC" fill-opacity=".5" d="M73 245c97.754 0 177-79.246 177-177S170.754-109 73-109-104-29.754-104 68s79.246 177 177 177z"/><g filter="url(#filter0_d)"><path fill="#9DA6AA" d="M73.656 27.126h94.688c3.11 0 5.656 2.568 5.656 5.708v58.867H68.001V32.834c0-3.139 2.546-5.708 5.656-5.708h-.001z"/><path fill="#E5F7FE" d="M71.84 87.826h98.318V32.834c0-1-.824-1.832-1.815-1.832H73.655c-.991 0-1.815.832-1.815 1.832v54.992z"/><path fill="#fff" d="M173.999 91.7v6.243c0 3.14-2.805 5.708-6.235 5.708h-93.53c-3.429 0-6.234-2.568-6.234-5.708v-6.242h105.999zM91.63 14h47.871l10.867 10.967v62.857H91.63V14z"/><path fill="#F5DE88" d="M139.501 14l10.867 10.967H139.5V14z"/><path fill="#ECF0F1" d="M150.368 35.934L139.5 24.967h10.867v10.967z"/><path fill="#9DA6AA" d="M141.16 82.223l-2.593-4.994 3.518-1.86-10.655-8.471.832 13.664 3.519-1.86 2.592 4.995 2.786-1.474z"/><path fill="#F5DE88" d="M121.472 66.304a.653.653 0 0 1-.316-.862.641.641 0 0 1 .854-.319l4.652 2.165c.322.15.464.535.316.86a.643.643 0 0 1-.854.32l-4.652-2.164zm5.488 5.677a.639.639 0 0 1 .861.29.65.65 0 0 1-.287.87l-6.49 3.269a.638.638 0 0 1-.861-.29.65.65 0 0 1 .287-.87l6.49-3.27zm17.942-8.377a.64.64 0 0 1 .861.29.65.65 0 0 1-.287.87l-6.49 3.27a.64.64 0 0 1-.861-.29.65.65 0 0 1 .287-.87l6.49-3.27zm-8.626-4.935a.643.643 0 1 1 1.26.253l-1.002 5.071a.643.643 0 1 1-1.26-.252l1-5.071.002-.001zm-9.412-.842a.65.65 0 0 1 .355-.844.64.64 0 0 1 .838.358l2.757 6.914a.65.65 0 0 1-.355.845.64.64 0 0 1-.837-.359l-2.758-6.914z"/><path fill="#CBCFD1" d="M96.181 30.204h44.895v1.244H96.181v-1.244zm0 13.404h44.895v1.246H96.181v-1.246zm0 2.308h44.895v1.245H96.181v-1.245zm0 2.31h44.895v1.244H96.181v-1.245zm0 2.308h44.897v1.244H96.181v-1.244zm0-18.022h44.895v1.245H96.181v-1.245zm0 2.309h44.895v1.244H96.181v-1.244zm0 2.308h44.897v1.245H96.181v-1.245zm0 2.31h34.39v1.244H96.18v-1.245zm0 13.403h34.39v1.244H96.18v-1.244z"/><path fill="#9DA6AA" d="M121 99.325a1.987 1.987 0 0 0 1.977-1.996A1.987 1.987 0 0 0 121 95.333a1.987 1.987 0 0 0-1.978 1.996c0 1.102.885 1.996 1.978 1.996z"/><path fill="#C2C2C4" d="M133.416 112.774l9.135 2.954H99.448l7.37-2.954v-9.121h26.598v9.12z"/><path fill="#B0B0B0" d="M133.416 112.774l-26.599-9.121h26.599v9.12z"/><path fill="#ECF0F1" d="M106.818 112.773h26.598l9.135 2.954v1.272H99.447v-1.272l7.37-2.954z"/></g><defs><filter id="filter0_d" width="115.124" height="112.125" x="66.479" y="12.479" color-interpolation-filters="sRGB" filterUnits="userSpaceOnUse"><feFlood flood-opacity="0" result="BackgroundImageFix"/><feColorMatrix in="SourceAlpha" values="0 0 0 0 0 0 0 0 0 0 0 0 0 0 0 0 0 0 255 0"/><feOffset dx="3.042" dy="3.042"/><feGaussianBlur stdDeviation="2.281"/><feColorMatrix values="0 0 0 0 0 0 0 0 0 0 0 0 0 0 0 0 0 0 0.12 0"/><feBlend in2="BackgroundImageFix" result="effect1_dropShadow"/><feBlend in="SourceGraphic" in2="effect1_dropShadow" result="shape"/></filter></defs></svg>