<svg width="70" height="60" viewBox="0 0 70 60" fill="none" xmlns="http://www.w3.org/2000/svg">
<path d="M30.6693 0C28.8081 0 27.3833 1.44531 27.3833 3.33333C27.3833 3.88889 27.4946 4.44444 27.824 4.88715L19.2753 15.5556H3.286C1.42479 15.5556 0 17.0009 0 18.8889V25.5556C0 27.1094 0.984089 28.3333 2.30191 28.7804V28.8889L7.33788 57.2222C7.66733 58.8889 8.98088 60 10.6239 60H59.5887C61.2317 60 62.5452 58.8889 62.8747 57.2222L67.6924 28.8889V28.7804C69.006 28.3333 69.9944 27.1094 69.9944 25.5556V18.8889C70.1013 17.0009 68.6765 15.5556 66.8153 15.5556H50.826L42.2773 4.88715C42.6067 4.44444 42.718 3.88889 42.718 3.33333C42.718 1.44531 41.2932 0 39.432 0C37.5708 0 36.146 1.44531 36.146 3.33333C36.146 5.22135 37.5708 6.66667 39.432 6.66667C39.8684 6.66667 40.3091 6.55816 40.6343 6.44531L47.9764 15.5556H22.1249L29.467 6.44531C29.7922 6.55816 30.2329 6.66667 30.6693 6.66667C32.5305 6.66667 33.9553 5.22135 33.9553 3.33333C33.9553 1.44531 32.5305 0 30.6693 0ZM30.6693 1.77951C31.5464 1.77951 32.2054 2.44358 32.2054 3.33333C32.2054 4.22309 31.5464 4.88715 30.6693 4.88715C29.7922 4.88715 29.1333 4.22309 29.1333 3.33333C29.1333 2.44358 29.7922 1.77951 30.6693 1.77951ZM39.432 1.77951C40.3091 1.77951 40.968 2.44358 40.968 3.33333C40.968 4.22309 40.3091 4.88715 39.432 4.88715C38.5549 4.88715 37.896 4.22309 37.896 3.33333C37.896 2.44358 38.5549 1.77951 39.432 1.77951ZM3.286 17.7778H17.5253L14.5688 21.5582C14.2393 22.0009 14.2393 22.7778 14.68 23.112C14.8982 23.3333 15.1165 23.3333 15.3347 23.3333C15.6641 23.3333 15.9936 23.2205 16.2118 22.8863L20.3706 17.7778H49.8377L54.0008 22.8863C54.219 23.112 54.5484 23.3333 54.8736 23.3333C55.0961 23.3333 55.3143 23.2248 55.5325 23.112C55.969 22.7778 56.0802 22.0009 55.6438 21.5582L52.576 17.7778H66.8153C67.4742 17.7778 67.9107 18.2205 67.9107 18.8889V25.5556C67.9107 26.224 67.4742 26.6667 66.8153 26.6667C66.2677 26.6667 65.8312 27.0009 65.72 27.5564L65.5018 28.8889L60.5728 56.888C60.4615 57.4436 60.0251 57.7778 59.4774 57.7778H10.6239C10.0762 57.7778 9.63979 57.4436 9.52854 56.888L4.59954 28.8889H53.6713C54.3302 28.8889 54.7667 28.4462 54.7667 27.7778C54.7667 27.1094 54.3302 26.6667 53.6713 26.6667H3.286C2.62709 26.6667 2.19067 26.224 2.19067 25.5556V18.8889C2.19067 18.2205 2.62709 17.7778 3.286 17.7778ZM58.0527 26.6667C57.3937 26.6667 56.9573 27.1094 56.9573 27.7778C56.9573 28.4462 57.3937 28.8889 58.0527 28.8889H62.434C63.0929 28.8889 63.5293 28.4462 63.5293 27.7778C63.5293 27.1094 63.0929 26.6667 62.434 26.6667H58.0527ZM9.858 31.1111C9.19909 31.1111 8.76266 31.5538 8.76266 32.2222V34.4444C8.76266 35.1129 9.19909 35.5556 9.858 35.5556C10.5169 35.5556 10.9533 35.1129 10.9533 34.4444V32.2222C10.9533 31.5538 10.5169 31.1111 9.858 31.1111ZM15.3347 31.1111C14.6758 31.1111 14.2393 31.5538 14.2393 32.2222V34.4444C14.2393 35.1129 14.6758 35.5556 15.3347 35.5556C15.9936 35.5556 16.43 35.1129 16.43 34.4444V32.2222C16.43 31.5538 15.9936 31.1111 15.3347 31.1111ZM20.8113 31.1111C20.1524 31.1111 19.716 31.5538 19.716 32.2222V34.4444C19.716 35.1129 20.1524 35.5556 20.8113 35.5556C21.4702 35.5556 21.9067 35.1129 21.9067 34.4444V32.2222C21.9067 31.5538 21.4702 31.1111 20.8113 31.1111ZM26.288 31.1111C25.6291 31.1111 25.1927 31.5538 25.1927 32.2222V34.4444C25.1927 35.1129 25.6291 35.5556 26.288 35.5556C26.9469 35.5556 27.3833 35.1129 27.3833 34.4444V32.2222C27.3833 31.5538 26.9469 31.1111 26.288 31.1111ZM31.7647 31.1111C31.1057 31.1111 30.6693 31.5538 30.6693 32.2222V34.4444C30.6693 35.1129 31.1057 35.5556 31.7647 35.5556C32.4236 35.5556 32.86 35.1129 32.86 34.4444V32.2222C32.86 31.5538 32.4236 31.1111 31.7647 31.1111ZM38.3367 31.1111C37.6777 31.1111 37.2413 31.5538 37.2413 32.2222V34.4444C37.2413 35.1129 37.6777 35.5556 38.3367 35.5556C38.9956 35.5556 39.432 35.1129 39.432 34.4444V32.2222C39.432 31.5538 38.9956 31.1111 38.3367 31.1111ZM43.8133 31.1111C43.1544 31.1111 42.718 31.5538 42.718 32.2222V34.4444C42.718 35.1129 43.1544 35.5556 43.8133 35.5556C44.4722 35.5556 44.9087 35.1129 44.9087 34.4444V32.2222C44.9087 31.5538 44.4722 31.1111 43.8133 31.1111ZM49.29 31.1111C48.6311 31.1111 48.1947 31.5538 48.1947 32.2222V34.4444C48.1947 35.1129 48.6311 35.5556 49.29 35.5556C49.9489 35.5556 50.3853 35.1129 50.3853 34.4444V32.2222C50.3853 31.5538 49.9489 31.1111 49.29 31.1111ZM54.7667 31.1111C54.1077 31.1111 53.6713 31.5538 53.6713 32.2222V34.4444C53.6713 35.1129 54.1077 35.5556 54.7667 35.5556C55.4256 35.5556 55.862 35.1129 55.862 34.4444V32.2222C55.862 31.5538 55.4256 31.1111 54.7667 31.1111ZM60.2433 31.1111C59.5844 31.1111 59.148 31.5538 59.148 32.2222V34.4444C59.148 35.1129 59.5844 35.5556 60.2433 35.5556C60.9022 35.5556 61.3387 35.1129 61.3387 34.4444V32.2222C61.3387 31.5538 60.9022 31.1111 60.2433 31.1111ZM13.144 53.3333C12.4851 53.3333 12.0487 53.776 12.0487 54.4444C12.0487 55.1129 12.4851 55.5556 13.144 55.5556H47.0993C47.7582 55.5556 48.1947 55.1129 48.1947 54.4444C48.1947 53.776 47.7582 53.3333 47.0993 53.3333H13.144ZM51.4807 53.3333C50.8217 53.3333 50.3853 53.776 50.3853 54.4444C50.3853 55.1129 50.8217 55.5556 51.4807 55.5556H55.862C56.5209 55.5556 56.9573 55.1129 56.9573 54.4444C56.9573 53.776 56.5209 53.3333 55.862 53.3333H51.4807Z" fill="#717D83"/>
</svg>
