<svg xmlns="http://www.w3.org/2000/svg" width="32" height="32"><path fill-rule="evenodd" d="M16 0c-.72 0-1.43.07-2 .2-.29.08-.52.15-.75.28a1.3 1.3 0 0 0-.35.27.96.96 0 0 0-.17.27c-.42.1-.84.2-1.25.33a9.16 9.16 0 0 0-3.5-.64 7.2 7.2 0 0 0-5.13 2.14c-3.5 3.51-1.75 8.05-1.5 8.65-.12.4-.24.81-.33 1.23-.1.04-.2.1-.27.17-.13.1-.2.23-.27.35-.13.23-.2.46-.27.75a9.34 9.34 0 0 0-.01 4c.08.29.15.52.28.75a1.07 1.07 0 0 0 .54.52c.1.42.21.82.33 1.23-.25.6-2 5.14 1.5 8.65 3.51 3.5 8.05 1.75 8.65 1.5.4.12.8.22 1.2.3a1.3 1.3 0 0 0 .54.56c.24.14.47.21.76.28a9.34 9.34 0 0 0 4 .01c.29-.08.52-.15.75-.28.12-.06.24-.14.35-.27a.96.96 0 0 0 .17-.27c.42-.1.83-.21 1.23-.33.6.25 5.14 2 8.65-1.5 3.46-3.47 1.78-7.95 1.5-8.63.12-.4.24-.83.33-1.25.1-.04.2-.1.27-.17.13-.1.2-.23.27-.35.13-.23.2-.46.27-.75a9.34 9.34 0 0 0 .01-4 2.92 2.92 0 0 0-.28-.75 1.3 1.3 0 0 0-.27-.35.96.96 0 0 0-.27-.17c-.1-.42-.2-.82-.33-1.23.25-.6 2-5.14-1.5-8.65a7.19 7.19 0 0 0-5.8-2.12 9.21 9.21 0 0 0-2.85.62c-.4-.12-.81-.24-1.23-.33a.96.96 0 0 0-.17-.27 1.3 1.3 0 0 0-.35-.27c-.23-.13-.46-.2-.75-.27A8.87 8.87 0 0 0 16 0zm0 1.33c.62 0 1.24.07 1.67.17.15.04.25.1.33.13v6.45a.67.67 0 0 0-.06.57A5.7 5.7 0 0 0 16 8.4c-1.24 0-1.8.2-1.98.27a.67.67 0 0 0-.02-.54V1.92c.07-.1.11-.22.13-.34.06-.02.1-.06.2-.08.43-.1 1.05-.17 1.67-.17zm-7.94.7c.52-.02 1 .02 1.42.1a15.39 15.39 0 0 0-7.36 7.33 6.16 6.16 0 0 1 5.94-7.44zm15.34 0a6.17 6.17 0 0 1 6.48 7.46 15.4 15.4 0 0 0-7.34-7.37c.26-.04.55-.08.86-.1zm-10.73.37V8a8.66 8.66 0 0 0-4.65 4.67H2.4A14.03 14.03 0 0 1 12.67 2.4zm6.66.02a14 14 0 0 1 10.25 10.25H24a8.67 8.67 0 0 0-4.67-4.65v-5.6zm-6.45 6.96c.23.37.65.62 1.12.62.09 0 .17-.01.25-.04 0 0 .5-.23 1.75-.23 1.24 0 1.75.23 1.75.23.08.03.16.04.25.04.47 0 .89-.25 1.13-.63a7.34 7.34 0 0 1 3.5 3.5c-.38.24-.63.66-.63 1.13 0 .09.01.17.04.25 0 0 .23.5.23 1.75 0 1.24-.23 1.75-.23 1.75A.67.67 0 0 0 22 18c0 .47.25.89.63 1.13a7.33 7.33 0 0 1-3.5 3.5A1.33 1.33 0 0 0 18 22a.67.67 0 0 0-.25.04s-.5.23-1.75.23c-1.24 0-1.75-.23-1.75-.23A.67.67 0 0 0 14 22c-.48 0-.89.26-1.13.65a7.4 7.4 0 0 1-3.5-3.52c.38-.24.63-.66.63-1.13a.67.67 0 0 0-.04-.25s-.23-.5-.23-1.75c0-1.24.23-1.75.23-1.75A.67.67 0 0 0 10 14c0-.46-.24-.89-.6-1.13a7.3 7.3 0 0 1 3.47-3.5zM1.72 14h6.94a5.5 5.5 0 0 0-.27 2c0 1.17.17 1.73.25 1.94a.67.67 0 0 0-.6.06H1.61c-.03-.08-.08-.18-.12-.33a7.88 7.88 0 0 1 .01-3.34c.04-.14.1-.23.13-.3l.1-.03zm21.6 0h7.05c.03.08.08.18.12.33a7.88 7.88 0 0 1 0 3.34l-.08.25h-.07a.67.67 0 0 0-.25.08h-6.77c.06-.16.27-.73.27-2s-.2-1.84-.27-2zm-20.9 5.33h5.6a8.65 8.65 0 0 0 4.65 4.65v5.6A14 14 0 0 1 2.42 19.33zm21.56 0h5.62A14.02 14.02 0 0 1 19.33 29.6V24a8.7 8.7 0 0 0 4.65-4.67zm5.9 3.2a6.17 6.17 0 0 1-1.7 5.66 6.17 6.17 0 0 1-5.66 1.68 15.42 15.42 0 0 0 7.36-7.35zm-27.75.01a15.4 15.4 0 0 0 7.35 7.34 6.17 6.17 0 0 1-5.67-1.7 6.16 6.16 0 0 1-1.69-5.64zm15.87.8a.67.67 0 0 0 0 .45v6.36a.67.67 0 0 0-.06.25c-.07.03-.15.07-.27.1a7.88 7.88 0 0 1-3.34 0 1.28 1.28 0 0 1-.25-.08.72.72 0 0 0-.08-.32v-6.12a.67.67 0 0 0 .08-.63c.22.08.78.25 1.92.25 1.27 0 1.84-.2 2-.27z" opacity=".5"/></svg>