<svg width="147" height="140" viewBox="0 0 147 140" fill="none" xmlns="http://www.w3.org/2000/svg"><path d="M74.5768 139.988C93.1358 139.689 129.607 130.097 142.447 96.3614C156.911 58.361 134.606 38.6937 107.916 38.6201C81.2263 38.5464 68.6473 52.9415 60.0993 48.663C51.5513 44.3845 46.6031 23.3785 22.7567 29.81C-1.08972 36.2416 -5.62054 83.9584 6.47694 106.943C20.2345 133.088 53.4636 140.333 74.5768 139.988Z" fill="#FFE3B4"/><path d="M24.7734 100.361L68.5309 93.4766L119.326 103.289L88.9528 110.003L56.1759 107.421L24.7734 100.361Z" fill="url(#paint0_radial)"/><path d="M56.1763 107.421C65.6382 106.868 73.6278 106.315 79.5994 104.668C82.1785 106.899 84.979 108.774 88.9532 110.003C76.8813 110.803 68.4181 109.879 56.1763 107.421Z" fill="#B2E2F7"/><path d="M48.8561 103.191C48.8406 103.191 48.8201 103.191 48.8046 103.186L42.8021 101.936C42.6837 101.91 42.5962 101.802 42.5962 101.683C42.5962 101.559 42.6837 101.456 42.8073 101.43L50.3284 100.01C50.3644 100.005 50.4005 100.005 50.4314 100.01L56.2073 101.342C56.3257 101.368 56.4081 101.476 56.4081 101.6C56.403 101.724 56.3155 101.828 56.197 101.848L48.8973 103.181C48.887 103.186 48.8715 103.191 48.8561 103.191ZM44.1869 101.693L48.8664 102.664L54.8843 101.564L50.3799 100.521L44.1869 101.693Z" fill="#6895BD"/><path d="M54.6521 99.5295C54.5285 99.5295 54.4204 99.4417 54.3998 99.3178C54.3741 99.1784 54.4667 99.0441 54.6057 99.0183L68.2889 96.5238C68.4279 96.498 68.5618 96.591 68.5875 96.7304C68.6133 96.8699 68.5206 97.0041 68.3816 97.03L54.6984 99.5244C54.6829 99.5295 54.6675 99.5295 54.6521 99.5295Z" fill="#6895BD"/><path d="M57.6843 100.567C57.5607 100.567 57.4526 100.48 57.432 100.356C57.4063 100.216 57.499 100.082 57.638 100.056L64.948 98.6772C65.087 98.6513 65.2209 98.7443 65.2466 98.8837C65.2723 99.0232 65.1797 99.1574 65.0407 99.1833L57.7306 100.562C57.7152 100.562 57.6997 100.567 57.6843 100.567Z" fill="#6895BD"/><path d="M58.5905 105.603C58.575 105.603 58.5544 105.603 58.539 105.598L52.5365 104.348C52.4181 104.322 52.3306 104.214 52.3306 104.095C52.3306 103.971 52.4181 103.868 52.5416 103.842L60.0628 102.422C60.0988 102.417 60.1348 102.417 60.1657 102.422L65.9417 103.754C66.0601 103.78 66.1425 103.889 66.1425 104.012C66.1373 104.136 66.0498 104.24 65.9314 104.26L58.6316 105.593C58.6214 105.603 58.6059 105.603 58.5905 105.603ZM53.9161 104.111L58.5956 105.082L64.6136 103.981L60.104 102.938L53.9161 104.111Z" fill="#6895BD"/><path d="M64.3869 101.947C64.2634 101.947 64.1553 101.859 64.1347 101.735C64.1089 101.595 64.2016 101.461 64.3406 101.435L78.0238 98.9408C78.1628 98.915 78.2966 99.008 78.3224 99.1474C78.3481 99.2868 78.2555 99.4211 78.1165 99.4469L64.4332 101.941C64.4178 101.941 64.4024 101.947 64.3869 101.947Z" fill="#6895BD"/><path d="M67.4191 102.978C67.2956 102.978 67.1875 102.891 67.1669 102.767C67.1412 102.627 67.2338 102.493 67.3728 102.467L74.6829 101.088C74.8219 101.062 74.9557 101.155 74.9815 101.295C75.0072 101.434 74.9145 101.569 74.7755 101.594L67.4655 102.973C67.45 102.978 67.4346 102.978 67.4191 102.978Z" fill="#6895BD"/><path d="M36.6142 75.5033L35.2397 82.8006L58.2356 95.7117C73.2367 104.016 82.4 106.066 98.3895 102.079L82.9457 70.0703L36.6142 75.5033Z" fill="url(#paint1_radial)"/><path d="M41.2161 82.7235C41.0822 82.7235 40.969 82.615 40.9587 82.4808C40.9484 82.3362 41.0616 82.2174 41.2006 82.207C44.0783 82.0418 46.6677 81.8868 49.113 81.7267C49.2571 81.7216 49.3755 81.8249 49.3858 81.9695C49.3961 82.1141 49.288 82.2329 49.1439 82.2432C46.6935 82.4033 44.1041 82.5634 41.2264 82.7235C41.2264 82.7235 41.2212 82.7235 41.2161 82.7235Z" fill="#6895BD"/><path d="M54.3538 81.8706C54.2199 81.8706 54.1067 81.7673 54.0964 81.633C54.0861 81.4884 54.1942 81.3645 54.3332 81.3541C59.4348 80.9668 63.687 80.5692 67.7075 80.0992C67.8517 80.0837 67.9752 80.187 67.9907 80.3264C68.0061 80.4659 67.9083 80.595 67.7642 80.6105C63.7333 81.0804 59.476 81.4781 54.3692 81.8654C54.3692 81.8706 54.3641 81.8706 54.3538 81.8706Z" fill="#6895BD"/><path d="M72.3046 80.0373C72.1759 80.0373 72.0678 79.9443 72.0472 79.8152C72.0266 79.6758 72.1244 79.5415 72.2685 79.526C75.0381 79.1438 77.7408 78.7152 80.2942 78.2504C80.4332 78.2246 80.567 78.3175 80.5928 78.457C80.6185 78.5964 80.5258 78.7307 80.3868 78.7565C77.8283 79.2213 75.1205 79.6551 72.3406 80.0321C72.3252 80.0373 72.3149 80.0373 72.3046 80.0373Z" fill="#6895BD"/><path d="M42.8586 87.5469C42.7248 87.5469 42.6115 87.4385 42.6013 87.3042C42.5961 87.1596 42.7042 87.0408 42.8432 87.0305C48.4956 86.7258 54.5496 86.3798 60.5161 85.884C60.6602 85.8788 60.7838 85.9769 60.7941 86.1215C60.8044 86.2661 60.7014 86.3901 60.5573 86.4004C54.5805 86.891 48.5265 87.2422 42.8689 87.5469C42.8689 87.5469 42.8638 87.5469 42.8586 87.5469Z" fill="#6895BD"/><path d="M65.5817 85.9457C65.453 85.9457 65.3397 85.8476 65.3243 85.7133C65.3088 85.5739 65.4118 85.4447 65.5559 85.4292C71.8931 84.7992 77.4528 84.009 82.5493 83.0123C82.6883 82.9865 82.8221 83.0743 82.853 83.2189C82.8788 83.3583 82.7912 83.4926 82.6471 83.5236C77.53 84.5255 71.9548 85.3156 65.6023 85.9457C65.5971 85.9457 65.592 85.9457 65.5817 85.9457Z" fill="#6895BD"/><path d="M50.6934 91.3015C50.5544 91.3015 50.436 91.1879 50.436 91.0485C50.436 90.9038 50.5493 90.7902 50.6883 90.7851C58.6676 90.6456 65.9416 90.1498 72.9325 89.277C73.0767 89.2564 73.2002 89.3597 73.2208 89.4991C73.2363 89.6386 73.1384 89.7677 72.9995 89.7883C65.988 90.6663 58.6933 91.1621 50.6934 91.3015C50.6986 91.3015 50.6986 91.3015 50.6934 91.3015Z" fill="#6895BD"/><path d="M78.0705 89.076C77.947 89.076 77.8337 88.983 77.8183 88.8591C77.7977 88.7196 77.8904 88.5854 78.0345 88.5647C80.1915 88.229 82.3433 87.8469 84.4282 87.4337C84.5672 87.4027 84.7011 87.4957 84.732 87.6351C84.7577 87.7746 84.6702 87.9088 84.5312 87.9398C82.436 88.3581 80.279 88.7351 78.1169 89.076C78.0963 89.076 78.086 89.076 78.0705 89.076Z" fill="#6895BD"/><path d="M58.2353 95.7116C53.6897 93.1603 44.6551 86.0489 40.8198 78.6689C38.2407 79.8929 36.7787 81.2667 35.2446 82.8005C38.1841 85.3827 47.7799 90.6711 58.2353 95.7116Z" fill="#B2E2F7"/><path d="M104.222 74.1973C98.1115 76.1443 92.4951 77.8589 87.0949 79.2843C73.9729 82.7496 62.1274 84.5004 47.5948 83.6637C42.9462 59.4632 38.9875 39.544 32.8408 21.6906C49.3142 16.4074 61.695 9.87955 78.8274 0C87.8208 19.6971 93.2828 34.927 98.8477 54.3917C100.001 58.4252 101.159 62.6393 102.353 67.1117C102.966 69.3996 103.589 71.7597 104.222 74.1973Z" fill="#EDFAFF"/><path d="M53.7929 24.9079C53.6899 24.9079 53.5921 24.8459 53.5509 24.7375C53.4995 24.6032 53.5715 24.4534 53.7002 24.4069C61.8803 21.3651 69.8133 17.6364 77.2829 13.3344C77.4065 13.2621 77.5661 13.3034 77.633 13.4274C77.7051 13.5513 77.6639 13.7062 77.5403 13.7785C70.0449 18.096 62.0862 21.8351 53.8804 24.8872C53.8547 24.9027 53.8238 24.9079 53.7929 24.9079Z" fill="#6895BD"/><path d="M41.9984 28.9408C41.8903 28.9408 41.7873 28.8685 41.7513 28.7601C41.7101 28.6258 41.7822 28.4812 41.916 28.4347C44.4282 27.6291 46.6213 26.906 48.6187 26.2192C48.7525 26.1727 48.9018 26.245 48.9481 26.3793C48.9945 26.5136 48.9224 26.6633 48.7885 26.7098C46.7911 27.3967 44.593 28.1249 42.0756 28.9305C42.0499 28.9357 42.0242 28.9408 41.9984 28.9408Z" fill="#6895BD"/><path d="M68.7216 26.9477C68.6238 26.9477 68.5311 26.8909 68.4848 26.7927C68.4282 26.6636 68.4848 26.5087 68.6135 26.4519C72.2325 24.8302 75.8824 22.9607 79.4705 20.895C79.5941 20.8227 79.7537 20.864 79.8206 20.9879C79.8927 21.1119 79.8463 21.2668 79.7279 21.3391C76.1295 23.4152 72.459 25.2899 68.8246 26.9167C68.7937 26.9373 68.7577 26.9477 68.7216 26.9477Z" fill="#6895BD"/><path d="M44.6551 35.5411C44.547 35.5411 44.4441 35.4688 44.408 35.3603C44.3669 35.2261 44.4389 35.0815 44.5728 35.035L47.2703 34.1725C52.7683 32.4218 58.4568 30.6091 63.9033 28.44C64.0371 28.3884 64.1864 28.4503 64.2379 28.5846C64.2894 28.7189 64.2276 28.8686 64.0938 28.9203C58.6267 31.0997 52.933 32.9124 47.4247 34.6683L44.7324 35.5308C44.7066 35.5359 44.6809 35.5411 44.6551 35.5411Z" fill="#6895BD"/><path d="M46.7401 42.6222C46.6268 42.6222 46.5187 42.5448 46.493 42.426C46.4569 42.2865 46.5445 42.1471 46.6835 42.1161C52.7323 40.6184 68.2739 36.2958 81.8593 28.4614C81.9829 28.3891 82.1373 28.4304 82.2094 28.5543C82.2815 28.6783 82.2403 28.8332 82.1167 28.9055C68.4695 36.7709 52.8713 41.1142 46.8019 42.6119C46.7813 42.6171 46.7607 42.6222 46.7401 42.6222Z" fill="#6895BD"/><path d="M50.3744 53.9841C50.2611 53.9841 50.153 53.9066 50.1273 53.7879C50.0912 53.6484 50.1787 53.509 50.3177 53.478L51.5069 53.1836C59.4347 51.2366 74.1887 47.606 86.2812 40.6341C86.4048 40.5618 86.5592 40.6082 86.6313 40.727C86.7034 40.851 86.6622 41.0059 86.5386 41.0782C74.3844 48.0863 59.5789 51.7272 51.6305 53.6794L50.4413 53.9738C50.4155 53.9841 50.395 53.9841 50.3744 53.9841Z" fill="#6895BD"/><path d="M51.8672 61.0492C51.8157 61.0492 51.7694 61.0337 51.7231 61.0079C51.6665 60.9718 51.6253 60.9098 51.6098 60.8426C50.5854 55.4871 49.7772 52.75 48.5571 49.295C48.5314 49.2279 48.5365 49.1504 48.5725 49.0884C48.6086 49.0264 48.6652 48.98 48.7373 48.9593C55.8826 47.1931 70.0189 43.1855 84.4382 36.1825C84.5618 36.1205 84.7162 36.1722 84.778 36.2961C86.4768 39.6375 88.0469 44.0686 88.9839 48.1433C89.0096 48.2569 88.9581 48.3706 88.8603 48.4274C76.6803 55.2547 58.9714 59.5257 51.9187 61.0492C51.9033 61.0441 51.8878 61.0492 51.8672 61.0492ZM49.144 49.3879C50.3023 52.688 51.095 55.4045 52.0731 60.4811C59.2288 58.9266 76.4744 54.7228 88.4433 48.0659C87.5476 44.2287 86.029 39.937 84.4382 36.7558C70.2402 43.6193 56.3511 47.5907 49.144 49.3879Z" fill="#6895BD"/><path d="M61.6022 58.6887C61.4838 58.6887 61.3757 58.6061 61.35 58.4821C59.3526 49.0984 57.8442 46.8312 57.8288 46.8105C57.7464 46.6918 57.7773 46.5317 57.8905 46.449C58.0089 46.3664 58.1685 46.3974 58.2457 46.511C58.3075 46.5988 59.8159 48.835 61.8493 58.3737C61.8802 58.5131 61.7927 58.6526 61.6537 58.6784C61.6382 58.6887 61.6176 58.6887 61.6022 58.6887Z" fill="#6895BD"/><path d="M56.2998 81.8568C56.0939 81.8568 55.9137 81.7638 55.785 81.5883C55.2959 80.9272 55.5482 78.6394 56.1093 75.8712C55.2805 76.1036 54.6576 76.0262 54.2406 75.6388C53.1389 74.606 54.0501 71.781 54.6627 70.5725C55.2702 69.3744 56.8403 67.4326 58.6627 65.9246C59.1414 64.2926 59.5172 63.0738 59.6511 62.6503C59.6923 62.516 59.8364 62.4386 59.9754 62.4799C60.1093 62.5212 60.1865 62.6658 60.1453 62.8052C59.893 63.6161 59.6254 64.4837 59.3628 65.3823C60.7991 64.3287 62.328 63.616 63.6356 63.7761C65.0255 63.9466 65.9573 65.0363 66.4103 67.0142C66.7707 68.5946 66.6832 70.1026 66.3537 71.4711C66.467 71.435 66.5854 71.373 66.6883 71.3059C67.8415 70.5674 68.5776 69.6171 69.0667 68.9871C69.4219 68.5274 69.6381 68.2485 69.8903 68.1762C69.9933 68.1453 70.1014 68.1607 70.1889 68.2176C70.3897 68.3467 70.436 68.6307 70.4978 69.0232C70.5441 69.3227 70.6265 69.8185 70.7912 69.9012C70.8633 69.9373 70.9971 69.8805 71.0641 69.8444C71.5222 69.6016 71.898 69.1575 72.2275 68.765C72.7011 68.2072 73.1902 67.6288 73.8079 67.9387C74.1322 68.0988 74.2558 68.3828 74.3485 68.5894C74.3948 68.6875 74.4463 68.8011 74.4823 68.8115C74.5595 68.8321 74.8324 68.8011 75.7899 68.0936C76.4231 67.6288 76.8452 67.2157 77.185 66.8851C78.055 66.0382 78.4617 65.7386 79.7641 66.7405C80.0987 66.9987 80.3612 67.2415 80.5981 67.4584C81.5298 68.3157 81.952 68.703 84.3972 67.6753L85.154 67.3551C87.7331 66.2602 88.6031 65.8884 90.7807 66.503C90.9197 66.5391 90.9969 66.6837 90.9609 66.8232C90.9248 66.9626 90.7807 67.0401 90.6417 67.0039C88.6391 66.4358 87.9442 66.7302 85.3599 67.8354L84.6032 68.1556C81.9726 69.2659 81.3342 68.8373 80.2583 67.8457C80.0318 67.634 79.7744 67.3964 79.4604 67.1588C78.4565 66.3842 78.3536 66.4823 77.5505 67.2621C77.2159 67.5875 76.7577 68.0316 76.0988 68.5171C75.1927 69.1885 74.7037 69.4105 74.3588 69.3176C74.0808 69.2453 73.9727 69.0026 73.8851 68.8115C73.8079 68.641 73.741 68.4913 73.5814 68.4086C73.3498 68.2899 73.1027 68.5429 72.6239 69.1058C72.2635 69.5345 71.8517 70.0199 71.306 70.3091C71.0229 70.4589 70.7758 70.4796 70.5596 70.3711C70.158 70.1697 70.0705 69.612 69.9882 69.1162C69.9727 69.0129 69.947 68.8734 69.9264 68.7702C69.808 68.8889 69.6329 69.111 69.4734 69.3176C68.9637 69.9735 68.1915 70.965 66.9663 71.7552C66.6883 71.9359 66.4361 72.0237 66.2096 72.0237C65.597 74.105 64.4696 75.8196 63.6202 76.899C61.4117 79.7084 58.2714 81.8465 56.3152 81.8671C56.3049 81.8568 56.3049 81.8568 56.2998 81.8568ZM56.6653 75.6802C56.063 78.5412 55.7953 80.7361 56.1968 81.2784C56.238 81.3352 56.274 81.3352 56.2998 81.3404C57.8442 81.3249 60.7888 79.6464 63.2032 76.5684C64.0268 75.5201 65.1234 73.8519 65.7102 71.8378C65.2315 71.435 65.1954 70.4434 65.1697 69.6326C65.1645 69.457 65.1542 69.2401 65.1388 69.08C65.041 69.1833 64.9174 69.3331 64.7887 69.4725C63.929 70.4589 62.1427 72.5195 58.1633 74.9107C57.6228 75.2463 57.1183 75.4994 56.6653 75.6802ZM58.4001 66.818C56.9433 68.1246 55.6923 69.6791 55.1209 70.8049C54.4259 72.1735 53.8339 74.5491 54.5907 75.2567C54.9047 75.551 55.4607 75.5614 56.2277 75.2928C56.8197 72.5092 57.6846 69.3176 58.4001 66.818ZM59.1106 66.2189C58.2509 69.1626 57.3963 72.3646 56.8043 75.0656C57.144 74.9107 57.5147 74.7092 57.9111 74.4717C61.8184 72.1219 63.5687 70.1077 64.4129 69.1368C64.8145 68.6772 64.9998 68.4654 65.2212 68.4345C65.3138 68.419 65.4013 68.4448 65.4786 68.5068C65.6587 68.6565 65.6742 68.9561 65.6999 69.6171C65.7154 70.0819 65.7411 70.7843 65.8955 71.1871C66.1787 69.9321 66.2405 68.5584 65.9161 67.133C65.5146 65.3926 64.7321 64.4372 63.579 64.2926C62.2662 64.1273 60.6241 65.0001 59.1106 66.2189Z" fill="#6895BD"/><defs><radialGradient id="paint0_radial" cx="0" cy="0" r="1" gradientUnits="userSpaceOnUse" gradientTransform="translate(72.2215 84.3527) scale(33.9322 34.0409)"><stop stop-color="#B2E2F7"/><stop offset="1" stop-color="#EDFAFF"/></radialGradient><radialGradient id="paint1_radial" cx="0" cy="0" r="1" gradientUnits="userSpaceOnUse" gradientTransform="translate(64.972 72.8145) scale(25.3344 25.4155)"><stop stop-color="#B2E2F7"/><stop offset="1" stop-color="#EDFAFF"/></radialGradient></defs></svg>