<svg width="69" height="69" viewBox="0 0 69 69" version="1.1" xmlns="http://www.w3.org/2000/svg" xmlns:xlink="http://www.w3.org/1999/xlink">
<g id="Canvas" fill="none">
<g id="pros-and-cons">
<g id="Rectangle">
<path d="M 0 5C 0 2.23858 2.23858 0 5 0L 10 0C 12.7614 0 15 2.23858 15 5L 15 21.5808L 0 21.5808L 0 5Z" transform="translate(52 0.952148)" fill="#B2E2F7"/>
</g>
<g id="Vector">
<path d="M 60.0968 0.0166935L 9.45968 0C 4.2435 0 0 4.2435 0 9.45968L 0 69L 52.3064 69L 52.3064 23.9664L 54.6124 22.4295L 58.9839 24.6152L 63.4355 22.3894L 69 25.1716L 69 9.45968C 69 4.43047 65.0548 0.304935 60.0968 0.0166935ZM 50.0806 9.45968L 50.0806 66.7742L 2.22581 66.7742L 2.22581 9.45968C 2.22581 5.47103 5.47103 2.22581 9.45968 2.22581L 53.4505 2.22581C 51.3916 3.96305 50.0806 6.56168 50.0806 9.45968ZM 66.7742 21.5703L 63.4355 19.9009L 58.9839 22.1267L 54.4521 19.8609L 52.3064 21.2921L 52.3064 9.45968C 52.3064 5.47103 55.5517 2.22581 59.5403 2.22581C 63.529 2.22581 66.7742 5.47103 66.7742 9.45968L 66.7742 21.5703Z" fill="#015486"/>
</g>
<g id="Vector_2">
<path d="M 15.1349 0L 0 0L 0 2.33333L 15.1349 2.33333L 15.1349 0Z" transform="translate(9 47)" fill="#B2E2F7"/>
</g>
<g id="Vector_3">
<path d="M 15.1349 0L 0 0L 0 2.33333L 15.1349 2.33333L 15.1349 0Z" transform="translate(9 52.8334)" fill="#B2E2F7"/>
</g>
<g id="Vector_4">
<path d="M 15.1349 0L 0 0L 0 2.33333L 15.1349 2.33333L 15.1349 0Z" transform="translate(9 58.6666)" fill="#B2E2F7"/>
</g>
<g id="Vector_5">
<path d="M 15.1349 0L 0 0L 0 2.33333L 15.1349 2.33333L 15.1349 0Z" transform="translate(28.8652 47)" fill="#B2E2F7"/>
</g>
<g id="Vector_6">
<path d="M 11.3512 0L 0 0L 0 2.33333L 11.3512 2.33333L 11.3512 0Z" transform="translate(28.8652 52.8334)" fill="#B2E2F7"/>
</g>
<g id="Group">
<g id="Vector_7">
<path d="M 14.4677 28.9355C 22.4581 28.9355 28.9355 22.4581 28.9355 14.4677C 28.9355 6.47743 22.4581 0 14.4677 0C 6.47743 0 0 6.47743 0 14.4677C 0 22.4581 6.47743 28.9355 14.4677 28.9355Z" transform="translate(11.4072 8.91113)" fill="#41CFC8"/>
</g>
<g id="Vector_8">
<path d="M 15 1.7633L 13.0646 5.87552e-07L 3.8151 10.6635L 2.15563 8.11145L 2.86621e-07 9.58529L 3.52232 15L 15 1.7633Z" transform="translate(18 16)" fill="white"/>
</g>
</g>
</g>
</g>
</svg>

