<svg xmlns="http://www.w3.org/2000/svg" xmlns:xlink="http://www.w3.org/1999/xlink" width="70" height="59"><use fill="#717D83" xlink:href="#path0_fill"/><defs><path id="path0_fill" d="M12.89 0a1.17 1.17 0 0 0-1.22 1.17V14H9.99a3.5 3.5 0 0 0-3.4 2.65L.17 42.33c-.11.46-.17.93-.17 1.41v11.1a3.5 3.5 0 0 0 3.5 3.5h63a3.5 3.5 0 0 0 3.5-3.5v-11.1c0-.48-.06-.95-.17-1.41L63 15.03V3.5A3.5 3.5 0 0 0 59.5 0h-21A3.5 3.5 0 0 0 35 3.5V14h-4.67V3.5c0-.3-.12-.6-.34-.82L27.66.34c-.4-.39-1-.45-1.47-.14l-2.86 1.9L20.48.2c-.4-.27-.9-.27-1.3 0l-2.85 1.9L13.48.2a1.16 1.16 0 0 0-.6-.2zM38.5 2.34h21c.64 0 1.17.52 1.17 1.16v11.67c0 .1 0 .19.03.28L67.34 42H2.66l6.2-24.78c.13-.52.6-.88 1.13-.88h1.68v7H10.5a1.17 1.17 0 1 0 0 2.33h21a1.17 1.17 0 1 0 0-2.33h-1.17v-7h5.84c.64 0 1.16-.52 1.16-1.17V3.5c0-.64.53-1.16 1.17-1.16zm-18.67.23l2.86 1.9c.39.27.9.27 1.29 0l2.7-1.8L28 3.99v19.35H14v-20l1.69 1.13c.39.27.9.27 1.29 0l2.85-1.9zM17.5 7a1.17 1.17 0 1 0 0 2.34h5.83a1.17 1.17 0 1 0 0-2.34H17.5zm0 4.67a1.17 1.17 0 1 0 0 2.33h7a1.17 1.17 0 1 0 0-2.33h-7zM40.83 14a1.17 1.17 0 1 0 0 2.34h16.34a1.17 1.17 0 1 0 0-2.34H40.83zM17.5 16.34a1.17 1.17 0 1 0 0 2.33h2.33a1.17 1.17 0 1 0 0-2.33H17.5zm19.83 4.6A2.34 2.34 0 0 0 35 23.28v2.33a2.34 2.34 0 0 0 2.33 2.33h2.34A2.34 2.34 0 0 0 42 25.61v-2.33a2.34 2.34 0 0 0-2.33-2.34h-2.34zm9.34 0a2.34 2.34 0 0 0-2.34 2.34v2.33a2.34 2.34 0 0 0 2.34 2.33H49a2.34 2.34 0 0 0 2.33-2.33v-2.33A2.34 2.34 0 0 0 49 20.94h-2.33zm9.33 0a2.34 2.34 0 0 0-2.33 2.34v2.33A2.34 2.34 0 0 0 56 27.94h2.33a2.34 2.34 0 0 0 2.34-2.33v-2.33a2.34 2.34 0 0 0-2.34-2.34H56zm-.27 2.07h2.87v2.87h-2.87V23zm-18.66.01h2.85v2.85h-2.84v-2.85zm9.4.06h2.73v2.73h-2.73v-2.73zm-9.14 7.2A2.34 2.34 0 0 0 35 32.6v2.33a2.34 2.34 0 0 0 2.33 2.34h2.34A2.34 2.34 0 0 0 42 34.94v-2.33a2.34 2.34 0 0 0-2.33-2.33h-2.34zm9.34 0a2.34 2.34 0 0 0-2.34 2.33v2.33a2.34 2.34 0 0 0 2.34 2.34H49a2.34 2.34 0 0 0 2.33-2.34v-2.33A2.34 2.34 0 0 0 49 30.28h-2.33zm9.33 0a2.34 2.34 0 0 0-2.33 2.33v2.33A2.34 2.34 0 0 0 56 37.28h2.33a2.34 2.34 0 0 0 2.34-2.34v-2.33a2.34 2.34 0 0 0-2.34-2.33H56zm-43.17.06a3.5 3.5 0 0 0 0 7 3.5 3.5 0 0 0 0-7zm0 1.96a1.53 1.53 0 0 1 0 3.07 1.53 1.53 0 0 1 0-3.07zm24.27.08h2.8v2.8h-2.8v-2.8zm18.66 0h2.8v2.8h-2.8v-2.8zm-9.3.02h2.75v2.75h-2.75V32.4zm-26.63.27a1.17 1.17 0 1 0 0 2.33h9.34a1.17 1.17 0 1 0 0-2.33h-9.34zM2.33 44.34h65.34v10.5c0 .64-.53 1.16-1.17 1.16h-63c-.64 0-1.17-.52-1.17-1.16v-10.5zm3.5 2.33c-.64 0-1.16.52-1.16 1.17v2.33a1.17 1.17 0 1 0 2.33 0v-2.33c0-.65-.52-1.17-1.17-1.17zm5.84 0c-.65 0-1.17.52-1.17 1.17v2.33a1.17 1.17 0 1 0 2.33 0v-2.33c0-.65-.52-1.17-1.16-1.17zm5.83 0c-.64 0-1.17.52-1.17 1.17v2.33a1.17 1.17 0 1 0 2.34 0v-2.33c0-.65-.53-1.17-1.17-1.17zm5.83 0c-.64 0-1.16.52-1.16 1.17v2.33a1.17 1.17 0 1 0 2.33 0v-2.33c0-.65-.52-1.17-1.17-1.17zm5.84 0c-.65 0-1.17.52-1.17 1.17v2.33a1.17 1.17 0 1 0 2.33 0v-2.33c0-.65-.52-1.17-1.16-1.17zm5.83 0c-.64 0-1.17.52-1.17 1.17v2.33a1.17 1.17 0 1 0 2.34 0v-2.33c0-.65-.53-1.17-1.17-1.17zm5.83 0c-.64 0-1.16.52-1.16 1.17v2.33a1.17 1.17 0 1 0 2.33 0v-2.33c0-.65-.52-1.17-1.17-1.17zm5.84 0c-.65 0-1.17.52-1.17 1.17v2.33a1.17 1.17 0 1 0 2.33 0v-2.33c0-.65-.52-1.17-1.16-1.17zm5.83 0c-.64 0-1.17.52-1.17 1.17v2.33a1.17 1.17 0 1 0 2.34 0v-2.33c0-.65-.53-1.17-1.17-1.17zm5.83 0c-.64 0-1.16.52-1.16 1.17v2.33a1.17 1.17 0 1 0 2.33 0v-2.33c0-.65-.52-1.17-1.17-1.17zm5.84 0c-.65 0-1.17.52-1.17 1.17v2.33a1.17 1.17 0 1 0 2.33 0v-2.33c0-.65-.52-1.17-1.16-1.17z"/></defs></svg>