<svg width="56" height="56" viewBox="0 0 56 56" version="1.1" xmlns="http://www.w3.org/2000/svg" xmlns:xlink="http://www.w3.org/1999/xlink">
<g id="Canvas" fill="none">
<g id="loan">
<g id="Group">
<g id="Group_2">
<g id="Vector">
<path d="M 13.5483 9.02915L 3.61287 6.323L 1.17146 8.35354C 0.404665 7.20365 5.12422e-08 5.86588 5.12422e-08 4.48481L 5.12422e-08 2.25817C 5.12422e-08 1.01257 1.0125 0 2.25802 0C 3.50355 0 4.51604 1.01257 4.51604 2.25817L 4.51604 3.1614C 4.51604 3.40974 4.71922 3.61311 4.96772 3.61311C 5.21623 3.61311 5.4194 3.40993 5.4194 3.1614L 5.4194 2.25817C 5.4194 1.01257 6.4319 0 7.67743 0C 8.92295 0 9.93545 1.01257 9.93545 2.25817L 9.93545 3.1614C 9.93545 3.40974 10.1386 3.61311 10.3871 3.61311C 10.6356 3.61311 10.8388 3.40993 10.8388 3.1614L 10.8388 2.25817C 10.8388 1.01257 11.8513 0 13.0968 0C 14.3424 0 15.3549 1.01257 15.3549 2.25817L 15.3549 4.48481C 15.3549 5.86588 14.9502 7.20458 14.1834 8.35354L 13.5483 9.02915Z" transform="translate(11.742 0)" fill="#009EE3"/>
</g>
<g id="Vector_2">
<path d="M 11.0519 14.4525L 9.24534 13.5492L 6.32257 13.5492L 6.32257 5.12456e-08L 0 5.12456e-08L 0 17.1623L 6.32257 17.1623L 6.32257 15.3557L 8.81903 15.3557L 10.6256 16.2589L 11.742 16.2589L 11.742 14.4523L 11.0519 14.4525ZM 4.51604 15.3559L 1.80653 15.3559L 1.80653 1.80646L 4.51623 1.80646L 4.51623 15.3559L 4.51604 15.3559Z" transform="translate(0 8.12598)" fill="white"/>
</g>
<g id="Vector_3">
<path d="M 11.7484 29.8083C 11.585 29.8083 11.4223 29.8055 11.2579 29.7984C 5.16111 29.5527 0.111297 24.385 0.00196827 18.2798C -0.0549347 15.1309 1.1238 12.1529 3.31951 9.89544C 5.25607 7.9037 6.32268 5.41883 6.32268 2.90038L 10.8387 3.75801e-07L 12.6453 1.80665L 12.6453 10.8358L 18.9678 10.8358L 20.0255 9.74823C 22.2564 11.9667 23.4839 14.9195 23.4839 18.0658C 23.4839 21.2923 22.2022 24.3003 19.8745 26.5359C 17.6673 28.6566 14.7969 29.8083 11.7484 29.8083Z" transform="translate(8.12881 12.6459)" fill="#009EE3"/>
</g>
<g id="&#226;&#130;&#189;">
<path d="M 4.92783 7.85256L 2.89091 7.85256L 2.89091 9.33333L 1.2968 9.33333L 1.2968 7.85256L 0 7.85256L 0 6.55128L 1.2968 6.55128L 1.2968 5.86538L 0 5.86538L 0 4.5641L 1.2968 4.5641L 1.2968 0L 4.82029 0C 5.83665 0 6.64846 0.269231 7.25575 0.807692C 7.86303 1.34188 8.16667 2.05342 8.16667 2.94231C 8.16667 3.84829 7.87779 4.55983 7.30003 5.07692C 6.72227 5.58974 5.91888 5.85256 4.88988 5.86538L 2.89091 5.86538L 2.89091 6.55128L 4.92783 6.55128L 4.92783 7.85256ZM 2.89091 4.5641L 4.79499 4.5641C 5.36853 4.5641 5.80713 4.42949 6.11077 4.16026C 6.41441 3.89103 6.56623 3.48932 6.56623 2.95513C 6.56623 2.4765 6.41652 2.08547 6.11709 1.78205C 5.82189 1.47863 5.41282 1.32051 4.88988 1.30769L 2.89091 1.30769L 2.89091 4.5641Z" transform="translate(16.3333 25.6666)" fill="white"/>
</g>
<g id="Vector_4">
<path d="M 22.7793 7.32474C 23.2129 6.84411 23.4838 6.21273 23.4838 5.51641C 23.4838 4.02247 22.2681 2.80466 20.7741 2.80466L 17.4123 2.80466L 16.7836 2.01879L 9.725 1.28114e-07L 4.18918 4.61113L 6.26294e-08 4.61113L 6.26294e-08 6.41778L 4.8431 6.41778L 10.1468 1.99976L 15.7332 3.59669L 17.6336 5.97148C 17.8847 6.28587 17.9957 6.67974 17.9452 7.07883C 17.8946 7.47811 17.6886 7.83224 17.3662 8.0733C 16.7836 8.51046 15.9554 8.45168 15.4388 7.93598L 13.616 6.11309L 8.46866 10.2315L 9.59683 11.6424L 13.4815 8.53415L 14.1608 9.21423C 14.2603 9.31368 14.3713 9.39484 14.4806 9.4788C 14.5465 10.1382 14.7868 10.5257 15.1562 10.9349C 14.7226 11.4155 14.4517 12.046 14.4517 12.7423C 14.4517 13.4386 14.7235 14.0692 15.1562 14.5489C 14.7226 15.0295 14.4517 15.6572 14.4517 16.3537C 14.4517 17.8495 15.6674 19.0636 17.1614 19.0636L 20.7743 19.0636C 22.2681 19.0636 23.484 17.8495 23.484 16.3556C 23.484 15.6591 23.2121 15.0305 22.7795 14.5499C 23.2131 14.0692 23.484 13.4406 23.484 12.7432C 23.484 12.046 23.2121 11.4172 22.7795 10.9366C 23.2131 10.4559 23.484 9.8264 23.484 9.1299C 23.4838 8.43396 23.2119 7.80519 22.7793 7.32474ZM 20.7741 17.2571L 17.1612 17.2571C 16.6634 17.2571 16.258 16.8515 16.258 16.3539C 16.258 15.8561 16.6636 15.4507 17.1612 15.4507L 20.7741 15.4507C 21.2718 15.4507 21.6772 15.8563 21.6772 16.3539C 21.6774 16.8517 21.2718 17.2571 20.7741 17.2571ZM 20.7741 13.644L 17.1612 13.644C 16.6634 13.644 16.258 13.2384 16.258 12.7408C 16.258 12.243 16.6636 11.8375 17.1612 11.8375L 20.7741 11.8375C 21.2718 11.8375 21.6772 12.2432 21.6772 12.7408C 21.6774 13.2386 21.2718 13.644 20.7741 13.644ZM 20.7741 10.0309L 17.4276 10.0309C 17.7881 9.92342 18.1358 9.75531 18.45 9.51966C 18.9052 9.17822 19.2412 8.72931 19.4653 8.22443L 20.7741 8.22443C 21.2718 8.22443 21.6772 8.63005 21.6772 9.12766C 21.6772 9.62527 21.2718 10.0309 20.7741 10.0309ZM 20.7741 6.41778L 19.7146 6.41778C 19.6315 5.84871 19.4138 5.3067 19.0435 4.84342L 18.8575 4.61131L 20.7741 4.61131C 21.2718 4.61131 21.6772 5.01694 21.6772 5.51455C 21.6774 6.01215 21.2718 6.41778 20.7741 6.41778Z" transform="translate(5.4194 5.32117)" fill="white"/>
</g>
<g id="Vector_5">
<path d="M 30.6935 1.80449L 30.6935 4.51437L 24.6446 4.51437L 22.1625 2.8596L 14.5502 0.159603C 13.8257 -0.0950784 13.0481 -0.0435807 12.3634 0.304204C 11.6778 0.651988 11.1784 1.24811 10.9552 1.98342C 10.5696 3.25608 11.1422 4.6336 12.3164 5.25696L 14.2718 6.29565L 11.4285 6.3046L 10.2597 3.38164C 9.875 2.42412 8.95989 1.80449 7.92668 1.80449C 7.12015 1.80449 6.35784 2.19649 5.88713 2.85045C 5.41661 3.50628 5.28918 4.35354 5.54664 5.11777L 5.82034 5.92883L 3.83862 4.84574C 3.20821 4.49982 2.45485 4.43302 1.77295 4.66326C 1.09105 4.89089 0.530038 5.39764 0.233769 6.05253C -0.346081 7.3334 0.187686 8.82473 1.44869 9.44716L 5.90709 11.6475L 15.1616 13.5299L 27.17 13.5471L 30.6935 12.8425L 30.6935 15.3537L 37.016 15.3537L 37.016 1.80449L 30.6935 1.80449ZM 7.3541 3.90463C 7.65765 3.48184 8.38918 3.5714 8.58153 4.05371L 9.4847 6.31095L 7.85709 6.31636L 7.25914 4.54049C 7.18601 4.32275 7.22033 4.09158 7.3541 3.90463ZM 26.991 11.7406L 15.428 11.7406L 6.59981 9.97462L 2.24813 7.82747C 1.86604 7.63865 1.70355 7.18619 1.87966 6.7968C 1.9709 6.59529 2.13619 6.44547 2.34664 6.37587C 2.55522 6.30367 2.77929 6.32438 2.97351 6.43185L 6.07612 8.1273L 14.6487 8.1273L 18.2129 6.34509L 13.1647 3.66151C 12.7511 3.44116 12.5487 2.95606 12.6841 2.50715C 12.7627 2.24799 12.9388 2.03659 13.181 1.91457C 13.4222 1.79087 13.6966 1.77464 13.9522 1.86308L 21.2558 4.42575L 24.0974 6.32083L 30.6937 6.32083L 30.6937 10.9999L 26.991 11.7406ZM 35.2095 13.5471L 32.4998 13.5471L 32.4998 3.61095L 35.2095 3.61095L 35.2095 13.5471Z" transform="translate(18.984 40.6464)" fill="white"/>
</g>
</g>
</g>
</g>
</g>
</svg>

