<svg xmlns="http://www.w3.org/2000/svg" width="107" height="111" fill="none"><path fill="#596366" d="M3.42 23.08c4.26-.75 8.47-.75 12.72 0 1.84.33 3.42 1.53 3.42 3.4 0 1.07-.5 2.03-1.25 2.65-.33.25-.7.37-1.12.29a1.32 1.32 0 0 1-1-.62c-.3-.42-.71-.7-1.3-.42-3 1.5-4.04-.83-5.42.13-1.17.78-1.67.74-3.3.04-1.08-.46-2.42.16-3.2.66-.55.33-1.22.3-1.72-.12A3.42 3.42 0 0 1 0 26.48c0-1.87 1.54-3.07 3.42-3.4z"/><path fill="#CBCFD1" d="M106.96 83.2c0 1.08-.5 2.03-1.55 2.24L46.93 95.88a2.01 2.01 0 0 1-2.25-2.78c-.13-.16-.21-.37-.25-.58l-16.27-64.1h-9.64c-1 0-1.8-.78-1.8-1.78s.8-1.78 1.8-1.78H29.7c.33 0 .63.08.88.25.5.25.92.7 1.04 1.24l16.56 65.22.04.16 56.53-10.1c1.04-.21 2.25.5 2.25 1.53l-.04.04z"/><path fill="#6C7678" d="M3.42 23.08c4.26-.75 8.47-.75 12.72 0 .55.08 1.05.25 1.46.5-.25.24-.54.58-.96.9-3.42 2.95-15.89 0-15.89 0 .63-.7 1.59-1.2 2.67-1.36v-.04z"/><path fill="#6C7678" d="M18.06 22.17c.8 0 1.46.66 1.46 1.45v5.76c0 .78-.66 1.45-1.46 1.45-.79 0-1.46-.67-1.46-1.45v-5.76c0-.79.67-1.45 1.46-1.45z"/><path fill="#FFE356" d="M26.82 8.62l27.74-6.55 7.51 28.1-27.78 6.87-7.47-28.42z"/><path fill="#FCD34E" d="M35 36.88l41.05-10.16 14.76 58.8-40.88 7.75L35 36.87z"/><path fill="#EEB731" d="M52.06 32.65l7.43-1.82 5.42 20.42-1.75-1.16-.42 1.5-1.17-1.2-.75 1.57-1-1.33-.75 1.66-1.04-1.2-.92 1.53-5.05-19.97z"/><path fill="#fff" d="M60.2 73.21l21.85-4.02 3.43 13.92-21.86 4.07L60.2 73.2z"/><path fill="#C6CBD6" d="M61.49 73.92l.37-.09 2.6 11.52-.38.09-2.6-11.52zm13.26.45l-.2.04 1.96 8.75.2-.04-1.96-8.75zm1.09-.2l-.88.16 1.96 8.74.88-.16-1.96-8.74zm.67-.13l-.42.08 1.96 8.75.42-.09-1.96-8.74zm.87-.16l-.25.04 1.96 8.74.25-.04-1.96-8.74zm2.8-.5l.2-.04 1.97 8.74-.21.04-1.96-8.74zm-1.09.2l.88-.16 1.96 8.74-.88.17-1.96-8.74zm-.66.13l.41-.08 1.96 8.74-.41.08-1.96-8.74zm-.88.17l.25-.05 1.96 8.75-.25.04-1.96-8.74zm-7.3-1.58l.12-.04 2.59 11.52-.12.04-2.6-11.52zm1.2-.2l1.13-.21 2.6 11.52-1.13.2-2.6-11.52zm-.5.08l.3-.04 2.59 11.51-.3.05-2.58-11.52zm-2.2.41l1.12-.2 2.59 11.51-1.13.2-2.58-11.5zm-.42.08l.25-.04 2.59 11.52-.25.04-2.59-11.52zm-.58.13l.29-.04 2.58 11.52-.29.04-2.58-11.52zm-.84.16l.59-.12 2.58 11.52-.58.12-2.59-11.52zm-1.42.25l1.13-.2 2.59 11.51-1.13.21-2.59-11.52zm-.66.13l.25-.04 2.58 11.51-.25.05-2.58-11.52zm-1.26.25l.96-.17 2.59 11.52-.96.16-2.59-11.51zm-1.33.24l.38-.08 2.58 11.52-.37.08-2.59-11.52z"/><path fill="#6C7678" d="M56.77 21.63l-.5.5-.66-.75c-.17-.17-.34-.25-.46-.2-.25.03-.46.28-.59.53l-.12.3c.04.03.08.12.17.2.2.25.45.58.75.9l-.5.5.7-.24h.05l.08-.04.63-.21.16-.62v-.09l.21-.82.08.04zm-4 4.89c-.25 0-.5 0-.67-.13l1.05 1.2c.08.05.12.05.16.05h.04l1.76-.34-.17-1.16c-.13.05-.3.05-.46.09l-1.13.2c-.04 0-.12.05-.25.05h-.04c-.08 0-.2.04-.33.04h.04zm-1.17-2l.71.17-.33.96c-.09.25-.04.41.04.54.17.2.5.24.8.24.12 0 .2 0 .28-.04.05-.08.05-.16.09-.25.12-.29.25-.7.41-1.11l.67.16-.58-.5-.04-.04-.09-.08-.5-.46-.62.17h-.09l-.83.2.08.05zm6.1 1.17c.12.2.24.41.24.62l.5-1.53c0-.09-.04-.13-.04-.13l-1.17-1.37-.91.75c.08.08.2.2.29.33l.75.87.17.17.04.04.16.25h-.04zm-1.13 1.99l-.21-.7 1-.21c.25-.05.37-.17.42-.3.08-.24-.05-.53-.17-.78-.04-.08-.13-.17-.17-.25-.08 0-.16 0-.25.04-.33.04-.75.13-1.17.2l-.2-.65-.17.74v.13l-.13.66.46.45.04.05.59.62h-.04zm-2.09-6.05c.13-.2.25-.42.42-.54l-1.59.29c-.04.04-.08.08-.08.12v.04l-.58 1.7 1.08.42c.04-.13.08-.25.17-.42l.37-1.07a.7.7 0 0 1 .09-.21v-.04c.04-.09.08-.17.12-.3z"/><path fill="#596366" d="M46.76 111c9.5 0 17.19-7.64 17.19-17.07s-7.7-17.07-17.19-17.07c-9.49 0-17.18 7.64-17.18 17.07S37.28 111 46.76 111z"/><path fill="#ECF0F1" d="M46.76 104.41c5.83 0 10.56-4.7 10.56-10.48 0-5.79-4.73-10.48-10.56-10.48s-10.55 4.7-10.55 10.48c0 5.79 4.72 10.48 10.55 10.48z"/><path fill="#C6CBD6" d="M46.76 102.8a8.9 8.9 0 0 0 8.93-8.87c0-4.9-4-8.87-8.93-8.87a8.9 8.9 0 0 0-8.92 8.87c0 4.9 4 8.87 8.92 8.87z"/><path fill="#ECF0F1" d="M46.76 97.9a4 4 0 0 0 4-3.97 4 4 0 0 0-4-3.98 4 4 0 0 0-4 3.98 4 4 0 0 0 4 3.98z"/><path fill="#37414C" d="M46.55 94.97a1 1 0 0 0 1-1 1 1 0 0 0-1-1 1 1 0 0 0-1 1 1 1 0 0 0 1 1z"/><path fill="#FCD34E" d="M25.7 6.84L54.69 0l1.33 5.63-28.99 6.84-1.33-5.63z"/></svg>