<svg xmlns="http://www.w3.org/2000/svg" width="70" height="70" fill="none"><path fill="#41CFC8" d="M54.2 13.55H31.6v38.39H54.2v-38.4zM29.36 13.55H4.52v15.8h24.84v-15.8z"/><path fill="#2E6493" d="M67.74 58.71V25.97a5.65 5.65 0 0 0-5.64-5.65H58.7V0H0v56.45h9.03v2.26H6.77v5.64A5.65 5.65 0 0 0 12.42 70h51.93A5.65 5.65 0 0 0 70 64.35v-5.64h-2.26zM62.1 22.58a3.4 3.4 0 0 1 3.38 3.39V58.7h-2.25V24.84H58.7v-2.26h3.39zM32.74 60.97h11.3v1.13c0 .62-.51 1.13-1.14 1.13h-9.03c-.62 0-1.13-.51-1.13-1.13v-1.13zm-2.26-2.26H15.81v-2.26h42.9V27.1h2.26V58.7H30.49zM56.45 2.26v6.77H2.25V2.26h54.2zm-54.2 9.03h54.2v42.9H2.25V11.3zm9.04 45.16h2.26v2.26h-2.26v-2.26zm56.45 7.9a3.4 3.4 0 0 1-3.39 3.4H12.42a3.4 3.4 0 0 1-3.39-3.4v-3.38h21.45v1.13a3.4 3.4 0 0 0 3.4 3.38h9.02a3.4 3.4 0 0 0 3.39-3.38v-1.13h21.45v3.38z"/><path fill="#2E6493" d="M6.77 4.52H4.52v2.25h2.25V4.52zM11.29 4.52H9.03v2.25h2.26V4.52zM15.8 4.52h-2.25v2.25h2.26V4.52zM29.36 31.61H4.52v2.26h24.84v-2.26zM29.35 36.13H9.03v2.26h20.32v-2.26zM6.77 36.13H4.52v2.26h2.25v-2.26zM29.36 40.65H4.52v2.25h24.84v-2.25zM29.36 45.16H4.52v2.26h24.84v-2.26zM29.35 49.68H27.1v2.26h2.25v-2.26zM24.84 49.68H4.52v2.26h20.32v-2.26zM54.2 20.32H31.6v2.26H54.2v-2.26z"/></svg>