<svg width="40" height="40" viewBox="0 0 40 40" fill="none" xmlns="http://www.w3.org/2000/svg">
<path fill-rule="evenodd" clip-rule="evenodd" d="M40 20C40 31.0459 31.0457 40 20 40C8.95435 40 0 31.0459 0 20C0 8.9541 8.95435 0 20 0C31.0457 0 40 8.9541 40 20ZM37 20C37 29.3887 29.3889 37 20 37C10.6111 37 3 29.3887 3 20C3 10.6113 10.6111 3 20 3C29.3889 3 37 10.6113 37 20Z" fill="#88BD1F"/>
<path d="M27.2018 12.5654L17.2728 22.4944L12.7984 18.02L10.8381 19.9802L16.2927 25.4347L17.2728 26.3722L18.2529 25.4347L29.162 14.5257L27.2018 12.5654Z" fill="#88BD1F"/>
</svg>
