<svg width="132" height="107" viewBox="0 0 132 107" fill="none" xmlns="http://www.w3.org/2000/svg"><path d="M11.8777 75.449C-8.65025 48.3144 -2.47445 9.01012 29.6649 1.79806C61.8043 -5.41399 54.8681 11.1659 97.6973 14.6654C140.526 18.1649 136.657 56.6056 121.449 74.6953C103.501 96.0691 43.3681 117.012 11.8777 75.449Z" transform="translate(0 7.08594)" fill="#EDFAFF"/><path d="M37.3479 74.8354C57.9746 74.8354 74.6958 58.0829 74.6958 37.4177C74.6958 16.7525 57.9746 0 37.3479 0C16.7212 0 0 16.7525 0 37.4177C0 58.0829 16.7212 74.8354 37.3479 74.8354Z" transform="translate(39.6001)" fill="url(#paint0_linear)"/><path d="M29.1108 5.44261C29.8918 4.66156 29.8918 3.39523 29.1108 2.61418L27.9108 1.41421C27.1298 0.633164 25.8634 0.633164 25.0824 1.41421L15.2625 11.2341L5.44261 1.41421C4.66156 0.633165 3.39523 0.633165 2.61418 1.41421L1.41422 2.61418C0.633166 3.39523 0.633166 4.66156 1.41422 5.44261L11.2341 15.2625L1.41422 25.0824C0.633166 25.8634 0.633166 27.1298 1.41422 27.9108L2.61418 29.1108C3.39523 29.8918 4.66156 29.8918 5.44261 29.1108L15.2625 19.2909L25.0824 29.1108C25.8634 29.8918 27.1298 29.8918 27.9108 29.1108L29.1108 27.9108C29.8918 27.1298 29.8918 25.8634 29.1108 25.0824L19.2909 15.2625L29.1108 5.44261Z" transform="translate(61.875 22.2754)" fill="#fff"/><path opacity=".6" d="M0.825 22.6875C2.475 20.3775 8.25 8.25 6.1875 0C6.6 8.6625 4.5375 10.3125 0 20.2125C0.25876 21.1979 0.825 22.6875 0.825 22.6875Z" transform="translate(42.9 31.3496)" fill="#243036" fill-opacity=".12"/><path d="M18.1718 25.7445C23.3844 14.6538 24.4591 12.5541 24.4054 9.00075C24.3517 4.85519 24.0292 3.61691 22.4171 1.57105C20.1064 -1.39006 17.2045 0.225091 16.5059 3.1862C14.7863 10.1852 12.0457 11.8003 8.44522 16.2151C6.02701 19.1762 -0.260338 26.1214 0.00835171 36.6737C0.223304 44.6956 4.84477 58.8013 4.84477 58.8013C4.84477 58.8013 5.05972 60.8471 16.3984 64.4005C28.5432 68.223 32.0362 67.0924 32.0362 67.0924C32.0362 67.0924 35.9053 65.6388 38.7534 61.547C44.6109 53.1482 46.7604 48.4643 46.7604 48.4643C30.0479 46.0954 19.569 32.7435 18.1718 25.7445Z" transform="translate(24.8204 25.9941)" fill="#FDC886"/><path d="M18.1718 25.7445C23.3844 14.6538 24.4591 12.5541 24.4054 9.00075C24.3517 4.85519 24.0292 3.61691 22.4171 1.57105C20.1064 -1.39006 17.2045 0.225091 16.5059 3.1862C14.7863 10.1852 12.0457 11.8003 8.44522 16.2151C6.02701 19.1762 -0.260338 26.1214 0.00835171 36.6737C0.223304 44.6956 4.84477 58.8013 4.84477 58.8013C4.84477 58.8013 5.05972 60.8471 16.3984 64.4005C28.5432 68.223 32.0362 67.0924 32.0362 67.0924C32.0362 67.0924 35.9053 65.6388 38.7534 61.547C44.6109 53.1482 46.7604 48.4643 46.7604 48.4643C30.0479 46.0954 19.569 32.7435 18.1718 25.7445Z" transform="translate(24.8204 25.9941)" fill="url(#paint1_linear)"/><path d="M28.1587 21.32C12.5747 19.1126 2.36447 7.26818 8.19977e-07 -1.64302e-06C5.74997 19.974 26.1704 24.9272 26.1704 24.981C27.5676 22.5583 28.1587 21.32 28.1587 21.32Z" transform="translate(43.3684 53.1377)" fill="#243036" fill-opacity=".12"/><path d="M8.19977e-07 9.15253L6.12613 0C14.1331 3.9302 23.1073 6.78364 33.3176 8.29111L31.0068 21.2662C18.8083 20.0279 8.54434 15.8285 8.19977e-07 9.15253Z" transform="translate(23.4854 84.7959)" fill="#003A69"/><path d="M0.875152 0C0.875152 0 1.34345 1.4341 0 3.91066C0 3.91066 10.5326 12.4171 2.90185 25.5537" transform="translate(42.0249 54.4502)" stroke="#243036" stroke-opacity=".08" stroke-width="2" stroke-miterlimit="10" stroke-linecap="round" stroke-linejoin="round"/><path d="M1.97602 5.81455C3.96433 2.74576 2.78209 0 2.78209 0C2.78209 0 2.0625 0.0193359 1.2375 1.66934C0.4125 4.55644 0 5.79434 0 5.79434C0 5.79434 1.3849 6.7298 1.97602 5.81455Z" transform="translate(40.425 26.3809)" fill="#243036" fill-opacity=".12"/><defs><linearGradient id="paint0_linear" x2="1" gradientUnits="userSpaceOnUse" gradientTransform="matrix(73.0125 51.5625 -81.0847 114.816 48.3732 -40.083)"><stop stop-color="#CF4545"/><stop offset="1" stop-color="#EE7C2D"/></linearGradient><linearGradient id="paint1_linear" x2="1" gradientUnits="userSpaceOnUse" gradientTransform="matrix(23.925 10.3125 -7.17066 16.6359 1.03943 22.6131)"><stop stop-color="#FFE2BE"/><stop offset="1" stop-color="#FEC886"/></linearGradient></defs></svg>