<svg version="1.1" id="Layer_1" xmlns="http://www.w3.org/2000/svg" xmlns:xlink="http://www.w3.org/1999/xlink" x="0" y="0" viewBox="0 0 60.5 24" xml:space="preserve" enable-background="new 0 0 60.5 24"><style type="text/css">.st0{fill:#5f6368}.st1{fill:#4285f4}.st2{fill:#34a853}.st3{fill:#fabb05}.st4{fill:#e94235}</style><g><path class="st0" d="M28.6,3.5v6.1h3.8c0.9,0,1.6-0.3,2.2-0.9c0.6-0.6,0.9-1.3,0.9-2.1c0-0.8-0.3-1.5-0.9-2.1 c-0.6-0.6-1.3-0.9-2.2-0.9L28.6,3.5z M28.6,11.7v7h-2.2V1.4h5.9c1.5,0,2.8,0.5,3.8,1.5c1.1,1,1.6,2.2,1.6,3.7 c0,1.5-0.5,2.7-1.6,3.7c-1,1-2.3,1.5-3.8,1.5H28.6z M40,15.1c0,0.6,0.2,1.1,0.8,1.5c0.5,0.4,1.1,0.6,1.7,0.6c0.9,0,1.8-0.4,2.5-1 c0.7-0.7,1.1-1.5,1.1-2.4c-0.7-0.6-1.7-0.8-2.9-0.8c-0.9,0-1.7,0.2-2.3,0.7C40.3,13.9,40,14.5,40,15.1 M42.9,6.5 c1.7,0,3,0.4,3.9,1.3s1.4,2.1,1.4,3.6v7.3h-2.1v-1.7H46c-0.9,1.4-2.2,2-3.7,2c-1.3,0-2.4-0.4-3.3-1.2s-1.3-1.8-1.3-2.9 c0-1.2,0.5-2.2,1.4-2.9c0.9-0.7,2.2-1.1,3.7-1.1c1.3,0,2.4,0.2,3.3,0.7v-0.5c0-0.8-0.3-1.4-0.9-2c-0.6-0.5-1.4-0.8-2.2-0.8 c-1.2,0-2.2,0.5-3,1.6l-2-1.2C39.2,7.3,40.8,6.5,42.9,6.5 M60.5,6.9L53.1,24h-2.3l2.8-6L48.6,6.9H51l3.6,8.5h0l3.5-8.5H60.5z"/><path class="st1" d="M19.6,10.2c0-0.7-0.1-1.4-0.2-2H10V12h5.4c-0.2,1.2-0.9,2.3-2,3v2.5h3.2C18.5,15.8,19.6,13.2,19.6,10.2"/><path class="st2" d="M10,20c2.7,0,5-0.9,6.6-2.4l-3.2-2.5C12.5,15.7,11.3,16,10,16c-2.6,0-4.8-1.8-5.6-4.1H1.1v2.6 C2.8,17.8,6.2,20,10,20"/><path class="st3" d="M4.4,11.9C4,10.7,4,9.3,4.4,8.1V5.5H1.1C0.4,6.9,0,8.4,0,10c0,1.6,0.4,3.1,1.1,4.5L4.4,11.9z"/><path class="st4" d="M10,3.9c1.5,0,2.8,0.5,3.8,1.5l2.9-2.8C15,1,12.7,0,10,0C6.2,0,2.8,2.1,1.1,5.5l3.3,2.6 C5.2,5.7,7.4,3.9,10,3.9"/></g></svg>