<svg xmlns="http://www.w3.org/2000/svg" xmlns:xlink="http://www.w3.org/1999/xlink" width="70" height="70"><use fill="#717D83" xlink:href="#path0_fill"/><defs><path id="path0_fill" d="M35 0C15.7 0 0 15.7 0 35s15.7 35 35 35 35-15.7 35-35S54.3 0 35 0zm0 2.41A32.62 32.62 0 0 1 67.59 35 32.62 32.62 0 0 1 35 67.59 32.62 32.62 0 0 1 2.41 35 32.62 32.62 0 0 1 35 2.41zm0 8.45A24.17 24.17 0 0 0 10.86 35 24.17 24.17 0 0 0 35 59.14 24.1 24.1 0 0 0 57.23 44.4a1.2 1.2 0 1 0-2.22-.94A21.68 21.68 0 0 1 35 56.72a21.74 21.74 0 0 1-21.4-18.16c.5-.15.88-.59.88-1.15V35c0-.65-.5-1.16-1.14-1.2A21.73 21.73 0 0 1 35 13.29c7.23 0 14.05 3.67 18.06 9.65h-6a1.2 1.2 0 1 0 0 2.41h8.46c.67 0 1.2-.54 1.2-1.2V15.6a1.2 1.2 0 1 0-2.41 0v4.95A24.28 24.28 0 0 0 35 10.86zm.05 10.86c-.1 0-.19.04-.28.06-.55.05-1.09.27-1.48.69a2.33 2.33 0 0 0-.6 1.74l1.1 16.9h.05v1.13a1.2 1.2 0 1 0 2.41 0v-1.9l1.07-16.11a2.23 2.23 0 0 0-1.9-2.43c-.13-.04-.25-.08-.37-.08zM19.3 33.8c-.67 0-1.2.55-1.2 1.21v2.41a1.2 1.2 0 1 0 2.4 0V35c0-.66-.53-1.2-1.2-1.2zm6.03 0c-.66 0-1.2.55-1.2 1.21v2.41a1.2 1.2 0 1 0 2.41 0V35c0-.66-.54-1.2-1.2-1.2zm19.32 0c-.67 0-1.21.55-1.21 1.21v2.41a1.2 1.2 0 1 0 2.41 0V35c0-.66-.54-1.2-1.2-1.2zm6.03 0c-.67 0-1.2.55-1.2 1.21v2.41a1.2 1.2 0 1 0 2.4 0V35c0-.66-.53-1.2-1.2-1.2zm6.03 0c-.67 0-1.2.55-1.2 1.21v2.41a1.2 1.2 0 1 0 2.41 0V35c0-.66-.54-1.2-1.2-1.2zM35.05 45.86a2.41 2.41 0 1 0 0 4.83 2.41 2.41 0 0 0 0-4.83z"/></defs></svg>