<svg width="170" height="146" viewBox="0 0 170 146" fill="none" xmlns="http://www.w3.org/2000/svg"><path d="M60.9004 145.406C1.97224 140.046 -14.0389 88.914 12.2049 71.9903C36.5828 56.2712 48.9824 70.4244 78.4164 44.7077C107.309 19.4126 150.346 44.4066 147.216 77.7118C144.086 110.355 123.019 151.068 60.9004 145.406Z" fill="url(#paint0_linear)"/><path d="M75.5874 20.858C80.8843 35.7941 26.1696 63.6188 7.99151 53.0791C-6.21386 44.8883 18.0436 23.6886 32.4296 18.0875C49.2232 11.5228 72.0962 10.9808 75.5874 20.858Z" fill="url(#paint1_linear)"/><path d="M78.4164 62.8359H59.4558V79.8198H78.4164V62.8359Z" fill="#FDC886"/><path d="M66.7993 68.8586C70.5914 69.5211 76.43 67.0518 78.3562 65.0643V62.8359H64.4518C61.5024 63.5587 59.3956 64.1007 59.3956 64.1007V70.7858C59.4558 70.7858 62.7664 68.1961 66.7993 68.8586Z" fill="#FAAB62"/><path d="M47.9591 38.2635L51.5706 15.0161L85.82 25.1342C85.82 25.1342 85.5793 30.4943 87.686 37.3601C89.7927 44.226 92.381 49.285 89.4316 55.5486C85.7598 63.4382 69.2672 71.3279 58.6733 63.6189C51.7512 58.5599 49.4037 50.7304 49.4037 50.7304C49.4037 50.7304 46.2737 52.7781 43.3845 48.6827C40.7962 44.8885 41.3982 36.3363 47.9591 38.2635Z" fill="#FDC886"/><path d="M48.0193 46.093C47.8989 38.6851 44.0466 40.1305 43.6252 43.3225" stroke="#F7913D" stroke-width=".602" stroke-miterlimit="10"/><path d="M46.9961 41.4553C46.9961 41.4553 45.9729 41.4553 45.5515 42.9008" stroke="#F7913D" stroke-width=".602" stroke-miterlimit="10"/><path d="M73.1797 55.0065C76.8514 51.0918 84.7366 50.0679 85.4589 50.3691" stroke="#F7913D" stroke-width=".602" stroke-miterlimit="10"/><path d="M53.3765 11.5831C53.7376 5.92183 67.943 -3.59396 81.8474 1.40484C87.987 3.63322 84.4357 7.6684 84.4357 7.6684C110.379 15.799 84.1949 35.734 54.7609 21.4C54.3395 29.109 52.9551 33.9874 47.9592 38.2635C32.8509 35.2521 36.1615 11.282 53.3765 11.5831Z" fill="#003A69"/><path d="M76.6708 34.8909C76.6708 34.8909 83.5929 45.1294 78.7173 46.6953" stroke="#F7913D" stroke-width=".602" stroke-miterlimit="10"/><path d="M138.789 81.2049L119.106 96.5024C119.106 96.5024 110.98 85.3605 101.952 76.447C94.7284 69.3402 78.4164 70.7255 78.4164 70.7255C76.9116 78.9765 61.5625 78.0731 59.4558 70.8459C59.4558 70.8459 51.5706 70.3039 46.2737 68.6175C41.8797 67.2323 25.8685 54.8859 25.8685 54.8859C25.8685 54.8859 33.2722 35.4327 38.3885 25.4351L28.517 18.1477L8.23221 51.5132C5.52356 55.97 6.24587 61.7517 10.038 65.4255L39.472 93.732L43.6854 142.275C56.8073 145.948 78.7173 148.538 99.8448 141.913L98.5808 100.598L108.994 112.402C113.027 117.04 120.25 117.04 124.283 112.462L145.23 88.9139L138.789 81.2049Z" fill="url(#paint2_linear)"/><path d="M38.3885 25.4353C42.4214 22.3035 44.3475 19.232 45.9125 13.4502C46.8154 12.8479 48.0794 12.3059 49.1027 12.0048C49.825 11.7639 50.6677 12.065 51.0289 12.7275L51.9919 14.2934C52.6541 14.6547 53.1356 14.6547 53.9181 14.4741L53.9783 13.5707C54.219 13.6911 54.5802 13.6911 54.8812 13.39L54.9414 11.8241C55.4229 12.1252 55.9044 12.1252 56.3258 11.9445C56.3258 11.9445 56.0248 8.51164 53.7977 5.86167C51.6308 3.2117 50.7881 3.39238 48.9221 4.05488C47.0562 4.71737 42.5418 5.80145 40.5554 6.94575C37.907 8.45141 31.2256 15.257 28.517 18.2683C31.2858 21.4603 34.5964 23.8092 38.3885 25.4353Z" fill="#FDC886"/><path d="M44.2272 10.439L48.561 8.75263C49.7649 8.27081 51.1493 8.57195 52.0522 9.53557L52.8949 10.3787C53.4968 10.981 53.8579 11.764 53.9181 12.6071L54.0385 13.631" stroke="#F7913D" stroke-width=".602" stroke-miterlimit="10"/><path d="M42.903 7.18659L48.6814 5.19911C50.0658 4.7173 51.5706 5.19911 52.4735 6.34342L54.0385 8.45134C54.6404 9.23429 54.9414 10.1377 54.9414 11.1013V11.7638" stroke="#F7913D" stroke-width=".602" stroke-miterlimit="10"/><path d="M138.789 81.2051C138.789 81.2051 142.822 72.3518 147.457 70.1234C152.092 67.895 152.754 67.2325 153.536 65.6666C154.379 63.9201 157.75 63.9803 157.088 67.2325C156.365 70.7859 150.948 73.737 150.948 73.737C150.948 73.737 155.583 73.1949 159.315 71.2677C162.866 69.4609 165.334 66.9916 166.417 66.7507C167.982 66.3893 168.404 67.895 168.404 67.895C168.404 67.895 169.307 67.4132 169.728 67.9552C170.571 68.9189 169.186 70.6052 169.186 70.6052C169.186 70.6052 169.668 70.8461 169.668 71.6893C169.668 73.0143 167.441 77.0494 167.441 77.0494C167.441 77.0494 167.441 79.5187 165.876 81.6267C164.19 83.9153 159.315 87.3482 151.068 88.7936C147.637 89.3959 145.23 88.9141 145.23 88.9141C142.521 86.8061 140.294 84.2766 138.789 81.2051Z" fill="#FDC886"/><path d="M151.55 76.5073C151.55 76.5073 149.985 81.3254 144.387 80.3016" stroke="#F7913D" stroke-width=".602" stroke-miterlimit="10"/><path d="M168.404 67.895C165.876 68.7984 165.394 72.1109 159.315 73.9779" stroke="#F7913D" stroke-width=".602" stroke-miterlimit="10"/><path d="M159.556 77.8323C159.556 77.8323 164.07 75.9051 165.394 74.1585C166.357 72.8937 167.922 70.2438 169.186 70.5449" stroke="#F7913D" stroke-width=".602" stroke-miterlimit="10"/><path d="M159.556 81.7472C159.556 81.7472 162.926 80.5426 164.07 78.9767C165.575 76.929 166.417 76.1461 167.441 76.9893" stroke="#F7913D" stroke-width=".602" stroke-miterlimit="10"/><path d="M154.259 64.8835C154.259 64.8835 154.319 65.4858 153.657 66.3892C153.115 67.1722 152.633 67.1119 152.633 67.1119" stroke="#F7913D" stroke-width=".602" stroke-miterlimit="10"/><path d="M98.5808 100.598C98.5808 100.598 95.3304 107.584 96.2333 119.87C96.9556 129.748 91.7188 141.552 92.4412 143.901C96.3537 143.118 99.8448 141.974 99.8448 141.974L98.5808 100.598Z" fill="#9D2B52"/><defs><linearGradient id="paint0_linear" x1="73.654" y1="34.352" x2="73.654" y2="145.951" gradientUnits="userSpaceOnUse"><stop stop-color="#EDFAFF"/><stop offset="1" stop-color="#E7F6FD"/></linearGradient><linearGradient id="paint1_linear" x1="39.793" y1="13.29" x2="39.793" y2="55.413" gradientUnits="userSpaceOnUse"><stop stop-color="#EDFAFF"/><stop offset="1" stop-color="#E7F6FD"/></linearGradient><linearGradient id="paint2_linear" x1="37.282" y1="138.583" x2="87.529" y2="51.603" gradientUnits="userSpaceOnUse"><stop stop-color="#B02358"/><stop offset="1" stop-color="#CF4545"/></linearGradient></defs></svg>