<svg width="70" height="70" viewBox="0 0 70 70" version="1.1" xmlns="http://www.w3.org/2000/svg" xmlns:xlink="http://www.w3.org/1999/xlink">
<title>icon_large_info</title>
<desc>Created using Figma</desc>
<g id="Canvas" transform="translate(-4586 -306)">
<g id="icon_large_info">
<g id="surface1">
<g id="Vector">
<use xlink:href="#path0_fill" transform="translate(4586 306)" fill="#9DA6AA"/>
</g>
</g>
</g>
</g>
<defs>
<path id="path0_fill" d="M 35 0C 15.6991 0 0 15.6991 0 35C 0 54.3009 15.6991 70 35 70C 54.3009 70 70 54.3009 70 35C 70 15.6991 54.3009 0 35 0ZM 35 2.41379C 52.9667 2.41379 67.5862 17.0333 67.5862 35C 67.5862 52.9667 52.9667 67.5862 35 67.5862C 17.0333 67.5862 2.41379 52.9667 2.41379 35C 2.41379 17.0333 17.0333 2.41379 35 2.41379ZM 35 7.24138C 19.6922 7.24138 7.24138 19.6922 7.24138 35C 7.24138 50.3078 19.6922 62.7586 35 62.7586C 50.3078 62.7586 62.7586 50.3078 62.7586 35C 62.7586 26.4244 58.8881 18.4665 52.137 13.1627C 51.6137 12.7526 50.8547 12.8374 50.4445 13.3654C 50.0343 13.8887 50.1239 14.6478 50.6472 15.0626C 56.809 19.9044 60.3448 27.174 60.3448 35C 60.3448 48.9736 48.9736 60.3448 35 60.3448C 21.0264 60.3448 9.65517 48.9736 9.65517 35C 9.65517 21.0264 21.0264 9.65517 35 9.65517C 36.2399 9.65517 37.4845 9.74475 38.6961 9.9239C 39.3609 10.0229 39.9737 9.5656 40.068 8.90558C 40.1623 8.24555 39.7097 7.63268 39.0497 7.53368C 37.7202 7.34038 36.3578 7.24138 35 7.24138ZM 44.0894 8.86315C 43.6227 8.88672 43.189 9.18373 43.0145 9.65517C 42.7883 10.2775 43.1088 10.9705 43.7359 11.2015C 44.6787 11.5457 45.6169 11.9605 46.5221 12.4225C 46.7012 12.5121 46.8898 12.5546 47.0737 12.5546C 47.5121 12.5546 47.9364 12.3141 48.1486 11.8945C 48.4503 11.3005 48.2146 10.5745 47.6206 10.2728C 46.6305 9.7636 45.6028 9.31573 44.5656 8.93386C 44.41 8.87729 44.2497 8.85372 44.0894 8.86315ZM 35 19.3103C 33.6658 19.3103 32.5862 20.39 32.5862 21.7241C 32.5862 23.0583 33.6658 24.1379 35 24.1379C 36.3342 24.1379 37.4138 23.0583 37.4138 21.7241C 37.4138 20.39 36.3342 19.3103 35 19.3103ZM 32.6334 26.5517C 32.0535 26.5517 31.4736 27.0326 31.4736 27.7586C 31.4736 28.4846 31.9073 28.9655 32.6334 28.9655L 33.7931 28.9655L 33.7931 45.8621L 31.4265 45.8621C 30.8466 45.8621 30.2667 46.3429 30.2667 47.069C 30.2667 47.795 30.7004 48.2759 31.4265 48.2759L 38.6207 48.2759C 39.3467 48.2759 39.7804 47.795 39.7804 47.069C 39.7804 46.3429 39.3467 45.8621 38.6207 45.8621L 36.2069 45.8621L 36.2069 28.9655L 37.4138 28.9655C 38.1398 28.9655 38.5735 28.4846 38.5735 27.7586C 38.5735 27.0326 38.1398 26.5517 37.4138 26.5517L 32.6334 26.5517ZM 13.2759 33.7931C 12.6111 33.7931 12.069 34.3353 12.069 35L 12.069 37.4138C 12.069 38.0785 12.6111 38.6207 13.2759 38.6207C 13.9406 38.6207 14.4828 38.0785 14.4828 37.4138L 14.4828 35C 14.4828 34.3353 13.9406 33.7931 13.2759 33.7931ZM 19.3103 33.7931C 18.6456 33.7931 18.1034 34.3353 18.1034 35L 18.1034 37.4138C 18.1034 38.0785 18.6456 38.6207 19.3103 38.6207C 19.9751 38.6207 20.5172 38.0785 20.5172 37.4138L 20.5172 35C 20.5172 34.3353 19.9751 33.7931 19.3103 33.7931ZM 25.3448 33.7931C 24.6801 33.7931 24.1379 34.3353 24.1379 35L 24.1379 37.4138C 24.1379 38.0785 24.6801 38.6207 25.3448 38.6207C 26.0096 38.6207 26.5517 38.0785 26.5517 37.4138L 26.5517 35C 26.5517 34.3353 26.0096 33.7931 25.3448 33.7931ZM 44.6552 33.7931C 43.9904 33.7931 43.4483 34.3353 43.4483 35L 43.4483 37.4138C 43.4483 38.0785 43.9904 38.6207 44.6552 38.6207C 45.3199 38.6207 45.8621 38.0785 45.8621 37.4138L 45.8621 35C 45.8621 34.3353 45.3199 33.7931 44.6552 33.7931ZM 50.6897 33.7931C 50.0249 33.7931 49.4828 34.3353 49.4828 35L 49.4828 37.4138C 49.4828 38.0785 50.0249 38.6207 50.6897 38.6207C 51.3544 38.6207 51.8966 38.0785 51.8966 37.4138L 51.8966 35C 51.8966 34.3353 51.3544 33.7931 50.6897 33.7931ZM 56.7241 33.7931C 56.0594 33.7931 55.5172 34.3353 55.5172 35L 55.5172 37.4138C 55.5172 38.0785 56.0594 38.6207 56.7241 38.6207C 57.3889 38.6207 57.931 38.0785 57.931 37.4138L 57.931 35C 57.931 34.3353 57.3889 33.7931 56.7241 33.7931Z"/>
</defs>
</svg>
