<svg xmlns="http://www.w3.org/2000/svg" xmlns:xlink="http://www.w3.org/1999/xlink" width="91" height="91"><use fill-opacity=".05" xlink:href="#path0_fill"/><use fill="#D9F3B8" transform="translate(41 42)" xlink:href="#path1_fill"/><use fill="#2B2B2B" transform="translate(23 22)" xlink:href="#path2_fill"/><defs><path id="path0_fill" d="M45.5 0A45.55 45.55 0 0 0 0 45.5 45.55 45.55 0 0 0 45.5 91 45.55 45.55 0 0 0 91 45.5 45.55 45.55 0 0 0 45.5 0z"/><path id="path1_fill" fill-rule="evenodd" d="M13 26a13 13 0 1 1 0-26 13 13 0 0 1 0 26z"/><path id="path2_fill" fill-rule="evenodd" d="M34 0H24a2 2 0 0 0-2 2v5c0 1.1.9 2 2 2h10a2 2 0 0 0 2-2V2a2 2 0 0 0-2-2zM4.65 13.74A2 2 0 0 1 6.63 12H7v7a3 3 0 0 0 3 3h8a3 3 0 0 0 3-3v-7h14.37a2 2 0 0 1 1.98 1.74l.89 6.83a1 1 0 0 0 1.98-.26l-.89-6.83A4 4 0 0 0 35.37 10H21V7a3 3 0 0 0-3-3h-8a3 3 0 0 0-3 3v3h-.37a4 4 0 0 0-3.96 3.48L0 33.91l-.01.13V39a4 4 0 0 0 4 4h15.2a1 1 0 0 0 0-2H4a2 2 0 0 1-2-2v-4h12.97a1 1 0 0 0 0-2H2.14l2.51-19.26zM18 33a13 13 0 0 0 20.5 10.62l8.52 8.52 2.12-2.12-8.4-8.4A13 13 0 1 0 18 33zm15.15-17H24v4a1 1 0 0 1-2 0v-4c0-1.1.9-2 2-2h9.15a2 2 0 0 1 1.97 1.68l.45 2.73a1 1 0 1 1-1.97.33L33.15 16zM31 44a11 11 0 1 0 0-22 11 11 0 0 0 0 22zM9 7a1 1 0 0 1 1-1h8a1 1 0 0 1 1 1v12a1 1 0 0 1-1 1h-8a1 1 0 0 1-1-1V7zm15-5v5h10V2H24zm-6.5 12h-7v-2h7v2zm-7-4h7V8h-7v2zm7 8h-7v-2h7v2z"/></defs></svg>