<svg xmlns="http://www.w3.org/2000/svg" xmlns:xlink="http://www.w3.org/1999/xlink" width="18" height="18"><use opacity=".54" transform="translate(.24)" xlink:href="#path0_fill"/><defs><path id="path0_fill" fill-rule="evenodd" d="M6.7.56L6.82 0h3.9l.1.56.42 2.06c.66.26 1.25.62 1.8 1.06l2-.7.55-.17.28.5 1.38 2.38.28.5-.4.37-1.56 1.36.01.09.02.1c.05.29.1.58.1.89 0 .3-.05.6-.1.89l-.03.2 1.55 1.35.41.37-.28.5-1.38 2.38-.28.5-.54-.18-2.02-.69c-.54.44-1.13.8-1.8 1.06l-.4 2.06-.11.56H6.8l-.1-.56-.41-2.06a6.88 6.88 0 0 1-1.8-1.06l-2.01.7-.54.17-.28-.5-1.39-2.38-.28-.5.41-.37 1.56-1.36-.03-.18c-.05-.3-.1-.6-.1-.9 0-.3.05-.6.1-.89V8.1l.03-.18L.4 6.56 0 6.19l.28-.5 1.39-2.38.28-.5.54.18 2.01.69c.54-.44 1.14-.8 1.8-1.06L6.7.56zm2.88.82H7.94l-.35 1.8-.08.41-.4.13c-.78.25-1.5.66-2.1 1.21l-.3.28-.38-.13-1.76-.6-.82 1.4 1.39 1.24.32.26-.1.4a5.46 5.46 0 0 0 0 2.43l.1.41-.32.26-1.39 1.24.82 1.4 1.76-.6.39-.13.3.28c.6.55 1.31.96 2.1 1.2l.39.14.08.41.35 1.8h1.64l.35-1.8.09-.41.39-.13c.78-.25 1.5-.66 2.1-1.21l.3-.28.39.13 1.75.6.82-1.4-1.38-1.24-.3-.26.08-.4a5.47 5.47 0 0 0 0-2.43l-.1-.41.32-.26 1.38-1.24-.82-1.4-1.75.6-.4.13-.3-.28a5.55 5.55 0 0 0-2.1-1.2l-.38-.14-.09-.41-.35-1.8zm-.82 4.16A3.47 3.47 0 0 0 5.3 9c0 1.9 1.56 3.46 3.46 3.46S12.22 10.9 12.22 9s-1.55-3.46-3.46-3.46zM10.84 9a2.07 2.07 0 1 0-4.15 0 2.07 2.07 0 1 0 4.15 0z"/></defs></svg>