<svg width="70" height="70" viewBox="0 0 70 70" fill="none" xmlns="http://www.w3.org/2000/svg"><path fill-rule="evenodd" clip-rule="evenodd" d="M3 35C3 17.3542 17.3542 3 35 3C52.6458 3 67 17.3542 67 35C67 52.6458 52.6458 67 35 67C17.3542 67 3 52.6458 3 35ZM64.8667 35C64.8667 18.5333 51.4667 5.13333 35 5.13333C18.5333 5.13333 5.13333 18.5333 5.13333 35C5.13333 51.4667 18.5333 64.8667 35 64.8667C51.4667 64.8667 64.8667 51.4667 64.8667 35ZM22.675 17.5208C22.1292 17.5208 21.5792 17.7333 21.1667 18.15L18.15 21.1667C17.3167 21.9958 17.3167 23.35 18.15 24.1833L28.9667 35L18.15 45.8167C17.3167 46.65 17.3167 48.0042 18.15 48.8333L21.1667 51.85C21.9958 52.6833 23.35 52.6833 24.1833 51.85L35 41.0333L45.8167 51.85C46.2333 52.2667 46.7792 52.4792 47.3292 52.4792C47.875 52.4792 48.4208 52.2667 48.8333 51.85L51.85 48.8333C52.6833 48.0042 52.6833 46.65 51.85 45.8167L41.0333 35L51.85 24.1833C52.6833 23.35 52.6833 21.9958 51.85 21.1667L48.8333 18.15C48.0042 17.3167 46.65 17.3167 45.8167 18.15L35 28.9667L24.1833 18.15C23.7667 17.7333 23.2208 17.5208 22.675 17.5208ZM35 31.9833L22.6708 19.6542L19.6542 22.6708L31.9833 35L19.6542 47.3292L22.6708 50.3458L35 38.0167L47.3292 50.3458L50.3458 47.3292L38.0167 35L50.3458 22.6708L47.3292 19.6542L35 31.9833ZM53.8542 25.6333C53.5833 25.6333 53.3125 25.7375 53.1 25.95C52.6833 26.3625 52.6833 27.0375 53.1 27.4542L54.6125 28.9667C54.8167 29.175 55.0917 29.2792 55.3667 29.2792C55.6375 29.2792 55.9125 29.175 56.1167 28.9667C56.5333 28.55 56.5333 27.875 56.1167 27.4583L54.6125 25.95C54.4 25.7375 54.1292 25.6333 53.8542 25.6333ZM49.3333 29.7208C49.5417 29.5125 49.8125 29.4042 50.0833 29.4042C50.3583 29.4042 50.6292 29.5125 50.8375 29.7208L52.35 31.2292C52.7667 31.6458 52.7667 32.3208 52.35 32.7375C52.1417 32.9458 51.8667 33.05 51.5958 33.05C51.3208 33.05 51.0458 32.9458 50.8375 32.7375L49.3333 31.2292C48.9125 30.8125 48.9125 30.1375 49.3333 29.7208ZM22.1792 33.1792C21.9042 33.1792 21.6292 33.2833 21.4208 33.4917C21.0042 33.9083 21.0042 34.5833 21.4208 35L22.9333 36.5083C23.1417 36.7167 23.4125 36.8208 23.6875 36.8208C23.9625 36.8208 24.2333 36.7167 24.4417 36.5083C24.8583 36.0917 24.8583 35.4167 24.4417 35L22.9333 33.4917C22.7208 33.2833 22.45 33.1792 22.1792 33.1792ZM45.5583 33.4917C45.7667 33.2833 46.0375 33.1792 46.3125 33.1792C46.5875 33.1792 46.8583 33.2833 47.0667 33.4917L48.5792 35C48.9958 35.4167 48.9958 36.0917 48.5792 36.5083C48.3708 36.7167 48.0958 36.8208 47.8208 36.8208C47.55 36.8208 47.275 36.7167 47.0667 36.5083L45.5583 35C45.1417 34.5833 45.1417 33.9083 45.5583 33.4917ZM18.4042 36.95C18.1333 36.95 17.8625 37.0542 17.65 37.2625C17.2333 37.6792 17.2333 38.3542 17.65 38.7708L19.1625 40.2792C19.3667 40.4875 19.6417 40.5917 19.9167 40.5917C20.1875 40.5917 20.4625 40.4875 20.6667 40.2792C21.0875 39.8625 21.0875 39.1875 20.6667 38.7708L19.1625 37.2625C18.95 37.0542 18.6792 36.95 18.4042 36.95ZM13.8833 41.0333C14.0917 40.825 14.3625 40.7208 14.6333 40.7208C14.9083 40.7208 15.1792 40.825 15.3875 41.0333L16.9 42.5458C17.3167 42.9625 17.3167 43.6375 16.9 44.05C16.6917 44.2583 16.4167 44.3667 16.1458 44.3667C15.8708 44.3667 15.5958 44.2583 15.3875 44.05L13.8833 42.5417C13.4625 42.125 13.4625 41.45 13.8833 41.0333Z" fill="#B93535"/></svg>
