<svg xmlns="http://www.w3.org/2000/svg" width="81" height="79"><g fill="none" fill-rule="evenodd"><path d="M.6 79V-1H81v80z"/><path fill="#000" fill-rule="nonzero" d="M46.7 69.4H8.6c-.8 0-1.6-.7-1.6-1.6V35.2l-4 2c-.7.4-1.5.2-2-.2-.4-.5-.6-1.3-.2-1.9L7 22.5v-.2h.1V22a1.6 1.6 0 0 1 .4-.3 1.6 1.6 0 0 1 .1-.2H8l.1-.1h.1L24.5 8.8l.7-.3H31l4-4a2 2 0 0 1 1-.6c.5 0 1 .2 1.3.6L39.6 7l6.8-5.8.8-.4h.3c.4 0 .8.3 1 .6l6.8 7.1h14.4a1.6 1.6 0 0 1 .2 0 1.6 1.6 0 0 1 .1 0h.2l.1.1h.1l.2.1h.1V9h.1l.1.1.1.1.4.6v.2l9.3 15.5c.4.6.4 1.4-.2 2l-9.1 9.1V45c-1-.4-2.2-.6-3.3-.8v-4.4l-.4.4a1.6 1.6 0 0 1-2.5-.3l-6.7-11.1V45c-1.1.4-2.2.9-3.2 1.5V24.6h-45v41.6h35.6l.8 3.2zM59 23.3l8 13.1 10.5-10.5-8-13.1L59 23.3zm-36-1.9h25L36 8 23 21.4zM41.7 9.5l10.5 11.7.1.2h3.9l3.5-3.6-12.4-13-5.6 4.7zM13.4 21.4h5l9.4-9.6H26l-12.6 9.6zm11 9.6h16.4c.6 0 1.1.3 1.4.8a1.6 1.6 0 0 1-1.4 2.4h-16c-1 .1-1.8-.5-2-1.4 0-.9.6-1.7 1.5-1.8h.1zM62 15.6l3.8-3.8h-7.5l3.7 3.8zM5.8 32.3l1.2-.6v-1.8l-1.2 2.4z" opacity=".3"/><path fill="#C30707" fill-rule="nonzero" d="M72.8 52.9a12.8 12.8 0 0 0-18 18l18-18zm2.7 2.9L57.7 73.6a12.8 12.8 0 0 0 17.8-17.8zM65 79a16 16 0 0 1-16-16 16 16 0 0 1 32 0 16 16 0 0 1-16 16z"/></g></svg>