<svg width="70" height="70" viewBox="0 0 70 70" version="1.1" xmlns="http://www.w3.org/2000/svg" xmlns:xlink="http://www.w3.org/1999/xlink">
<title>Group</title>
<desc>Created using Figma</desc>
<g id="Canvas" transform="translate(388 -2303)">
<g id="Group">
<g id="icon_large_deposit">
<g id="icon_large_deposit">
<use xlink:href="#path0_fill" transform="translate(-388 2303)" fill="#9DA6AA"/>
</g>
</g>
<g id="icons/close">
<mask id="mask0_outline" mask-type="alpha">
<g id="Mask">
<use xlink:href="#path1_fill" transform="translate(-364.4 2332.6)" fill="#FFFFFF"/>
</g>
</mask>
<g id="Mask" mask="url(#mask0_outline)">
<use xlink:href="#path1_fill" transform="translate(-364.4 2332.6)"/>
</g>
<g id="color" mask="url(#mask0_outline)">
<g id="Rectangle">
<use xlink:href="#path2_fill" transform="translate(-380 2318.2)" fill="#9DA6AA"/>
</g>
</g>
</g>
</g>
</g>
<defs>
<path id="path0_fill" d="M 38.8281 0C 35.4913 0 32.5647 1.7688 30.9283 4.41773C 25.2631 4.82361 20.7812 9.54895 20.7812 15.3125C 20.7812 15.9106 20.8453 16.496 20.9393 17.077C 15.3809 18.9398 10.5273 22.2125 7.13074 26.626C 6.04126 25.2588 5.46875 23.6182 5.46875 21.875C 5.46875 21.4819 5.5072 21.0675 5.58411 20.6018C 5.65674 20.1575 5.45166 19.7131 5.06714 19.4824C 4.67834 19.2517 4.19128 19.2816 3.83667 19.5551C 1.40137 21.4392 0 24.2761 0 27.3438C 0 30.0482 1.07239 32.569 3.04199 34.4574C 2.47376 36.427 2.1875 38.4479 2.1875 40.4688C 2.1875 46.5143 4.74243 52.3633 9.3866 56.9177L 8.6261 64.5142C 8.46375 66.1249 9.48059 67.5946 11.04 68.0133L 16.167 69.3848C 17.5427 69.7522 18.9868 69.201 19.7644 68.0133L 22.1997 64.2877C 28.3051 66.0565 35.0598 66.0693 41.1694 64.2963L 43.5962 68.0133C 44.2157 68.9575 45.2539 69.5001 46.3434 69.5001C 46.6254 69.5001 46.9116 69.4617 47.1979 69.3848L 52.312 68.0176C 53.88 67.5946 54.8969 66.1206 54.726 64.5056L 54.1663 58.9813C 58.0798 57.1698 61.2115 54.4226 63.2281 51.0303L 67.1289 50.5432C 68.7653 50.3381 70 48.941 70 47.2876L 70 38.0249C 70 36.3757 68.7653 34.9744 67.1289 34.7693L 63.3435 34.2908C 62.2583 32.4194 60.8228 30.7275 59.0625 29.2621L 59.0625 18.6664C 59.0625 18.1152 58.6523 17.6495 58.1055 17.5854C 57.644 17.5256 57.2552 17.5 56.875 17.5C 54.5636 17.5 52.3846 18.3032 50.6458 19.7388C 50.6287 19.7516 50.6073 19.7516 50.5902 19.7687C 50.5603 19.79 50.5347 19.8199 50.5048 19.8456C 50.4663 19.884 50.4236 19.9225 50.3851 19.9609C 50.1672 20.1489 49.9536 20.3412 49.7571 20.5463C 47.796 19.2603 45.6512 18.205 43.3911 17.3804C 46.2109 15.7825 48.125 12.7661 48.125 9.29688C 48.125 4.16992 43.9551 0 38.8281 0ZM 38.8281 2.1875C 42.7502 2.1875 45.9375 5.37476 45.9375 9.29688C 45.9375 11.8048 44.6216 14.0051 42.6562 15.2655C 42.6306 9.89075 38.7085 5.42603 33.573 4.5459C 34.8718 3.10608 36.7389 2.1875 38.8281 2.1875ZM 31.7188 6.5625C 36.5424 6.5625 40.4688 10.4889 40.4688 15.3125C 40.4688 17.6709 39.5032 19.9268 37.8198 21.5674C 35.8502 21.106 33.8123 20.8667 31.7188 20.8667C 29.6252 20.8667 27.5873 21.106 25.6177 21.5674C 23.9343 19.9268 22.9688 17.6666 22.9688 15.3125C 22.9688 10.4889 26.8951 6.5625 31.7188 6.5625ZM 31.7188 8.75C 28.1 8.75 25.1562 11.6937 25.1562 15.3125C 25.1562 15.9149 25.6476 16.4062 26.25 16.4062C 26.8524 16.4062 27.3438 15.9149 27.3438 15.3125C 27.3438 12.8986 29.3048 10.9375 31.7188 10.9375C 32.3212 10.9375 32.8125 10.4462 32.8125 9.84375C 32.8125 9.24133 32.3212 8.75 31.7188 8.75ZM 21.5076 19.1876C 21.9263 20.2899 22.5201 21.3196 23.2721 22.2382C 22.7252 22.4219 22.1826 22.6227 21.6486 22.8448C 21.0889 23.0756 20.8282 23.7122 21.059 24.2719C 21.2897 24.8315 21.9305 25.0964 22.4902 24.8615C 25.3741 23.6609 28.476 23.0542 31.7188 23.0542C 35.0684 23.0542 38.2642 23.6993 41.2207 24.9811C 41.3617 25.0409 41.507 25.0708 41.6522 25.0708C 42.0752 25.0708 42.4811 24.823 42.6562 24.4086C 42.8998 23.8531 42.6434 23.2123 42.088 22.9688C 41.4557 22.6996 40.8148 22.4603 40.1654 22.2382C 40.9174 21.3239 41.507 20.2985 41.9257 19.1962C 44.2371 19.978 46.4246 21.0248 48.4155 22.3193C 47.5226 23.819 47.0312 25.5493 47.0312 27.3438C 47.0312 27.9462 47.5226 28.4375 48.125 28.4375C 48.7274 28.4375 49.2188 27.9462 49.2188 27.3438C 49.2188 25.6433 49.7784 24.024 50.791 22.6996C 50.7996 22.691 50.8124 22.6868 50.8209 22.674C 52.2864 20.777 54.491 19.6875 56.875 19.6875L 56.875 29.2621C 56.875 29.9072 57.1613 30.5139 57.6611 30.9326C 59.2163 32.24 60.4938 33.7396 61.4508 35.3888C 61.7969 35.9912 62.3865 36.3843 63.0658 36.4697L 66.8555 36.9397C 67.4023 37.0081 67.8125 37.478 67.8125 38.0249L 67.8125 47.2876C 67.8125 47.8387 67.4023 48.3044 66.8555 48.3728L 62.9547 48.8599C 62.2882 48.9453 61.7029 49.3298 61.3525 49.9152C 59.5581 52.9187 56.7554 55.3668 53.2477 56.9946C 52.3889 57.392 51.8805 58.2806 51.9745 59.2035L 52.5513 64.7321C 52.6068 65.2704 52.2693 65.7617 51.748 65.8984L 46.6254 67.2699C 46.1682 67.3938 45.6897 67.2101 45.4291 66.817L 42.998 63.1C 42.5879 62.4719 41.9043 62.1173 41.1823 62.1173C 40.9772 62.1173 40.7678 62.1429 40.567 62.2028C 34.8505 63.8434 28.5187 63.8391 22.8107 62.1857C 21.875 61.9122 20.8923 62.2754 20.3668 63.0786L 17.9272 66.8127C 17.6709 67.2101 17.1881 67.3938 16.731 67.2699L 11.604 65.8984C 11.087 65.7574 10.7452 65.2661 10.8008 64.7321L 11.5613 57.1313C 11.6254 56.4777 11.3904 55.8368 10.9161 55.3668C 6.69922 51.2183 4.375 45.9247 4.375 40.4688C 4.375 38.653 4.63135 36.8372 5.14404 35.0684C 5.37048 34.2822 5.13977 33.4406 4.53735 32.8638C 3.0249 31.4069 2.1875 29.4458 2.1875 27.3438C 2.1875 25.8655 2.6062 24.4598 3.37524 23.2507C 3.6145 24.9768 4.31091 26.5961 5.41748 27.9889C 5.81909 28.493 6.42151 28.7793 7.07092 28.7793L 7.08374 28.7793C 7.75879 28.775 8.4082 28.4546 8.82691 27.9163C 11.9501 23.9044 16.402 20.9137 21.5076 19.1876ZM 54.7302 35C 53.5211 35 52.5427 35.9784 52.5427 37.1875C 52.5427 38.3966 53.5211 39.375 54.7302 39.375C 55.9393 39.375 56.9177 38.3966 56.9177 37.1875C 56.9177 35.9784 55.9393 35 54.7302 35ZM 17.2095 50.7825C 16.936 50.8252 16.6754 50.9747 16.496 51.2183L 15.21 52.9913C 14.8553 53.4784 14.9664 54.162 15.4535 54.5166C 15.65 54.6576 15.8722 54.726 16.0986 54.726C 16.4362 54.726 16.7694 54.5679 16.983 54.2773L 18.269 52.5043C 18.6237 52.0172 18.5126 51.3336 18.0255 50.979C 17.782 50.7996 17.4872 50.7397 17.2095 50.7825ZM 48.4155 50.7825C 48.1378 50.7397 47.843 50.7996 47.5995 50.979C 47.1124 51.3336 47.0013 52.0172 47.356 52.5043L 48.642 54.2773C 48.8556 54.5679 49.1888 54.726 49.5264 54.726C 49.7528 54.726 49.975 54.6576 50.1715 54.5166C 50.6586 54.162 50.7697 53.4784 50.415 52.9913L 49.129 51.2183C 48.9496 50.9747 48.689 50.8252 48.4155 50.7825ZM 22.157 53.5126C 21.7297 53.504 21.3196 53.7476 21.1359 54.162L 20.2472 56.1572C 19.9994 56.7126 20.2515 57.3578 20.8026 57.6056C 20.9479 57.6697 21.0974 57.6996 21.2469 57.6996C 21.6656 57.6996 22.0673 57.4561 22.2467 57.0459L 23.1354 55.0507C 23.3789 54.4995 23.1311 53.8501 22.58 53.6066C 22.4432 53.5468 22.298 53.5168 22.157 53.5126ZM 43.468 53.5126C 43.327 53.5168 43.1818 53.5468 43.045 53.6066C 42.4939 53.8544 42.2461 54.4995 42.4896 55.0507L 43.3783 57.0459C 43.5577 57.4561 43.9594 57.6996 44.3781 57.6996C 44.5276 57.6996 44.6771 57.6697 44.8224 57.6056C 45.3735 57.3578 45.6213 56.7126 45.3778 56.1572L 44.4891 54.162C 44.3054 53.7476 43.8953 53.504 43.468 53.5126ZM 27.1472 55.2258C 26.7285 55.307 26.3782 55.6317 26.2842 56.0718L 25.827 58.2123C 25.7031 58.8062 26.0834 59.3872 26.673 59.5111C 26.7499 59.5282 26.8268 59.5367 26.8994 59.5367C 27.4078 59.5367 27.8607 59.1821 27.9718 58.6694L 28.4247 56.5289C 28.5486 55.9393 28.1726 55.3583 27.583 55.2344C 27.4335 55.2002 27.2882 55.2002 27.1472 55.2258ZM 38.4735 55.2258C 38.3368 55.2002 38.1873 55.2002 38.042 55.2344C 37.4524 55.3583 37.0764 55.9393 37.2003 56.5289L 37.6532 58.6694C 37.7643 59.1821 38.2172 59.5367 38.7256 59.5367C 38.7982 59.5367 38.8751 59.5282 38.952 59.5111C 39.5416 59.3872 39.9219 58.8062 39.798 58.2123L 39.3408 56.0718C 39.2468 55.6317 38.8922 55.307 38.4735 55.2258ZM 32.8125 55.7812C 32.2101 55.7812 31.7188 56.2726 31.7188 56.875L 31.7188 59.0625C 31.7188 59.6649 32.2101 60.1562 32.8125 60.1562C 33.4149 60.1562 33.9062 59.6649 33.9062 59.0625L 33.9062 56.875C 33.9062 56.2726 33.4149 55.7812 32.8125 55.7812Z"/>
<path id="path1_fill" d="M 1.18165 0L 0 1.18165L 7.21835 8.4L 0 15.6183L 1.18165 16.8L 8.4 9.58165L 15.6183 16.8L 16.8 15.6183L 9.58165 8.4L 16.8 1.18165L 15.6183 0L 8.4 7.21835L 1.18165 0Z"/>
<path id="path2_fill" fill-rule="evenodd" d="M 0 0L 48 0L 48 45.6L 0 45.6L 0 0Z"/>
</defs>
</svg>
