<svg xmlns="http://www.w3.org/2000/svg" viewBox="0 0 32 32">
    <path style="text-indent:0;text-align:start;line-height:normal;text-transform:none;block-progression:tb;-inkscape-font-specification:Sans" d="M 9 4 L 9 5 L 6 5 L 5 5 L 5 6 L 5 26 L 5 27 L 6 27 L 26 27 L 27 27 L 27 26 L 27 24 L 27 23 L 27 21.375 L 25 22.96875 L 25 23 L 25 25 L 7 25 L 7 11 L 25 11 L 25 13 L 25 13.03125 L 27 14.625 L 27 13 L 27 12 L 27 6 L 27 5 L 26 5 L 23 5 L 23 4 L 21 4 L 21 5 L 11 5 L 11 4 L 9 4 z M 7 7 L 9 7 L 9 8 L 11 8 L 11 7 L 21 7 L 21 8 L 23 8 L 23 7 L 25 7 L 25 9 L 7 9 L 7 7 z M 23 14 L 23 17 L 16 17 L 16 19 L 23 19 L 23 22 L 28 18 L 23 14 z"></path>
</svg>