<svg width="197" height="187" viewBox="0 0 197 187" fill="none" xmlns="http://www.w3.org/2000/svg">
<path d="M58.6578 141.48C69.2282 122.338 48.0957 120.408 40.5509 121.231C26.9703 122.713 10.5116 116.542 24.087 83.2686C40.2162 43.6387 87.7333 27.7023 102.034 25.3555C116.802 22.9309 136.419 23.6807 132.886 43.8985C129.561 63.0325 134.341 76.2021 149.852 66.2836C168.455 54.3868 180.877 69.5679 175.004 93.5129C168.868 118.445 149.99 131.978 130.276 146.507C78.0519 185.073 44.3561 167.273 58.6578 141.48Z" fill="#FFE3B4"/>
<path d="M120.572 121.554C123.085 121.522 125.153 120.626 126.725 118.837C128.319 117.127 129.052 114.922 129.02 112.409C128.938 109.867 128.121 107.778 126.47 106.084C124.819 104.388 122.723 103.583 120.13 103.637C117.668 103.698 115.6 104.594 114.057 106.333C112.463 108.042 111.759 110.197 111.762 112.76C111.815 115.352 112.683 117.471 114.282 119.137C115.933 120.832 118.029 121.638 120.543 121.605L120.572 121.554ZM108.557 125.201C105.168 121.964 103.477 117.886 103.354 112.962C103.282 108.066 104.814 103.894 108.052 100.505C111.289 97.1164 115.366 95.4252 120.291 95.3023C125.186 95.2298 129.358 96.7623 132.718 100.05C136.107 103.287 137.798 107.365 137.921 112.289C137.994 117.185 136.461 121.357 133.224 124.746C129.987 128.135 125.909 129.826 120.985 129.949C116.089 130.021 111.917 128.489 108.528 125.251L108.557 125.201ZM74.1577 130.486L112.12 60.1797L123.432 59.9698L85.5202 130.306L74.1282 130.538L74.1577 130.486ZM77.0303 86.9761C79.6226 86.9227 81.7204 85.9759 83.3431 84.2162C84.9447 82.3772 85.7288 80.2003 85.6754 77.608C85.6515 74.9647 84.7333 72.8174 83.0824 71.1223C81.4315 69.4271 79.2339 68.5628 76.6412 68.6171C74.0489 68.6705 71.9802 69.567 70.4085 71.3562C68.7857 73.1159 68.0519 75.3218 68.0763 77.9644C68.1297 80.5566 69.0184 82.755 70.6402 84.5004C72.3414 86.2246 74.4597 87.1102 77.0815 87.0056L77.0303 86.9761ZM64.8125 90.5064C61.3724 87.2395 59.6607 83.083 59.5375 78.1573C59.4441 73.1818 61.0265 69.0396 64.2639 65.6506C67.5307 62.2105 71.6369 60.4698 76.6129 60.3757C81.5373 60.2528 85.7306 61.8647 89.1196 65.102C92.5597 68.3689 94.3004 72.4751 94.3946 77.4511C94.5174 82.3755 92.9055 86.5688 89.6682 89.9578C86.4013 93.3979 82.2951 95.1386 77.3191 95.2327C72.3947 95.3556 68.2023 93.7442 64.8125 90.5064Z" fill="#F7913D"/>
</svg>
