<svg fill="none" height="146" width="173" xmlns="http://www.w3.org/2000/svg"><path d="m54.13 134.59c-23.1-4.21-50.24-12.6-53.68-44.89-3.45-32.27 14.22-27 13.3-50.8-.92-23.82 20.88-42.21 46.8-38.4 21.34 3.13 17.1 23.63 43.13 16.18 34.41-9.84 55.29 24.96 47.8 40.75-6.12 12.93-14.54 17.4-6.97 34.8 7.58 17.4-6.19 57.7-90.38 42.36z" fill="#edfaff"/><path d="m133.4 108.11-8.8-2.35-6.26 23.37 8.79 2.36 6.26-23.38z" fill="#da6622"/><path d="m122.31 115.74c-.1 0-.2.1-.4.2l-1.2 4.3s3.1 1.7 7.8 2.8c.3.1.6.1.9.1l1.7-6.3s-8.3-1.1-8.8-1.1z" fill="#b84421"/><path d="m145.21 50.44s-25 24.7-33.9 31.3-27.8 16.2-27.8 16.2.1 9.9 9.1 13.1c9.1 3.1 9.4-1.3 16.2 5.3 6.8 6.5 11.7 3.2 17.6 3.8s7.2 4.8 12.5 6.4c4.3 1.3 10.7-2.9 16 .6 7.5 5 16.4-2.6 16.4-2.6-13.7-26.5-21.5-46.8-26.1-74.1z" fill="#6ca300"/><path d="m159.91 100.44c-2.1-5-4.1-9.9-5.8-14.9-9.5-4.3-22.7-10.2-22.9-10.2s-22.9 8.4-22.9 8.4 5.8 1.9 8.4 4.9 3.9 7 11.3 7.2 9 .4 11.8 2.4 4 3.4 9.5 2.8c3.3-.2 7.2-.7 10.6-.6z" fill="#5e8c00"/><path d="m149.91 31.74s-21.2 20.9-28.7 26.5-23.4 13.7-23.4 13.7 0 8.4 7.7 11.1 8-1.1 13.7 4.5 9.9 2.7 14.9 3.2c5.1.5 6.1 4.1 10.5 5.4 3.6 1.1 9.1-2.5 13.6.5 6.4 4.2 13.9-2.2 13.9-2.2-11.6-22.4-18.2-39.6-22.2-62.7z" fill="#88bd1f"/><path d="m159.71 67.44c-1.8-4.7-3.4-9.3-4.8-14.1-7.1-3.2-14.7-6.6-14.8-6.6s-4.8 1.7-9.5 3.4c-2 1.8-3.9 3.6-5.6 5 1.2.6 2.4 1.5 3.3 2.5 2.1 2.5 3.2 5.7 9.2 5.9 6.1.2 7.4.3 9.7 2s3.3 2.8 7.8 2.3c1.4-.1 3-.3 4.7-.4z" fill="#6ca300"/><path d="m153.81 16.14s-16 15.8-21.6 20-17.7 10.3-17.7 10.3 0 6.3 5.8 8.3 6-.8 10.3 3.4 7.4 2 11.3 2.4c3.8.4 4.6 3.1 7.9 4.1 2.7.8 6.8-1.9 10.2.4 4.8 3.2 10.5-1.6 10.5-1.6-8.7-17-13.7-29.9-16.7-47.3z" fill="#9ac741"/><path d="m162.01 80.94a4.1 4.1 0 1 0 0-8.2 4.1 4.1 0 0 0 0 8.2zm-23.8-33.5a4.1 4.1 0 1 0 0-8.2 4.1 4.1 0 0 0 0 8.2z" fill="#e06b6b"/><path d="m130.91 113.64a4.1 4.1 0 1 0 0-8.2 4.1 4.1 0 0 0 0 8.2zm25.7-73.9a4.1 4.1 0 1 0 0-8.2 4.1 4.1 0 0 0 0 8.2z" fill="#f5de88"/><path d="m117.31 88.34a4.1 4.1 0 1 0 0-8.2 4.1 4.1 0 0 0 0 8.2zm31.1 41.4a4.1 4.1 0 1 0 0-8.2 4.1 4.1 0 0 0 0 8.2z" fill="#b02358"/><path d="m140.31 76.84a4.1 4.1 0 1 0 0-8.2 4.1 4.1 0 0 0 0 8.2zm-42.5 30a4.1 4.1 0 1 0 0-8.2 4.1 4.1 0 0 0 0 8.2z" fill="#8769ae"/><path d="m167.01 57.44c-.3 0-.7-.2-.9-.5-4.2-7-6.3-14-6.4-14.3-.2-.5.1-1.1.7-1.2.5-.2 1.1.1 1.2.7 0 .1 2.1 7 6.2 13.8.3.5.1 1.1-.3 1.4-.1.1-.3.1-.5.1zm-43.7-1.1c-1.3 0-3.6-.3-6.1-2.1-4.1-2.9-3.7-7-3.7-7.2.1-.5.5-.9 1.1-.9.5.1 1 .5.9 1.1 0 .1-.2 3.2 2.9 5.4 3.2 2.3 5.6 1.7 5.7 1.7.5-.1 1.1.2 1.2.7s-.2 1.1-.7 1.2c0 0-.5.1-1.3.1z" fill="#6ca300"/><path d="m168.01 118.74c-.4 0-.7-.2-.9-.6l-5.3-10.9c-.2-.5 0-1.1.5-1.3s1.1 0 1.3.5l5.3 10.9c.2.5 0 1.1-.5 1.3-.1.1-.3.1-.4.1z" fill="#5e8c00"/><path d="m23.4 145.4h107.58a4.99 4.99 0 0 0 4.99-4.99v-67.31h-117.57v67.31a4.99 4.99 0 0 0 4.99 4.99z" fill="#8cb2d4"/><path d="m29.21 136.31h95.96c1.03 0 1.87-.84 1.87-1.87v-48.82c0-1.03-.84-1.87-1.87-1.87h-95.97c-1.03 0-1.87.84-1.87 1.87v48.82c0 1.03.84 1.87 1.87 1.87z" fill="#fff"/><path d="m50 104.37h-13.24c-.69 0-1.25-.55-1.25-1.24v-8.88c0-.7.56-1.25 1.25-1.25h13.24c.69 0 1.25.56 1.25 1.25v8.88c0 .69-.56 1.24-1.25 1.24zm22.73 0h-13.23c-.69 0-1.24-.55-1.24-1.24v-8.88c0-.7.55-1.25 1.24-1.25h13.24c.7 0 1.25.56 1.25 1.25v8.88c0 .69-.56 1.24-1.25 1.24zm22.74 0h-13.25c-.68 0-1.24-.55-1.24-1.24v-8.88c0-.7.56-1.25 1.24-1.25h13.25c.68 0 1.24.56 1.24 1.25v8.88c0 .69-.56 1.24-1.24 1.24zm22.73 0h-13.24c-.7 0-1.25-.55-1.25-1.24v-8.88c0-.7.56-1.25 1.25-1.25h13.24c.69 0 1.24.56 1.24 1.25v8.88c0 .69-.55 1.24-1.24 1.24zm-68.2 19.99h-13.24c-.69 0-1.25-.55-1.25-1.24v-8.88c0-.7.56-1.25 1.25-1.25h13.24c.69 0 1.25.56 1.25 1.25v8.88c0 .69-.56 1.24-1.25 1.24zm22.52 0h-13.24c-.69 0-1.25-.55-1.25-1.24v-8.88c0-.7.56-1.25 1.25-1.25h13.24c.69 0 1.25.56 1.25 1.25v8.88c0 .69-.56 1.24-1.25 1.24z" fill="#f09292"/><path d="m118.49 124.36h-13.24c-.7 0-1.25-.55-1.25-1.24v-8.88c0-.7.56-1.25 1.25-1.25h13.24c.69 0 1.24.56 1.24 1.25v8.88c0 .69-.56 1.24-1.24 1.24z" fill="#8cb2d4"/><path d="m86.46 123.97-6.24-6.28a.77.77 0 0 1 0-1.1l3.29-3.26c.3-.3.79-.3 1.09 0l1.99 2c.3.3.77.3 1.07.02l7.5-7.14c.32-.3.8-.28 1.1.03l3.19 3.36c.3.3.28.8-.03 1.08l-11.88 11.3a.77.77 0 0 1 -1.08-.02zm44.52-82.6h-107.58a4.99 4.99 0 0 0 -4.99 4.99v30.04h117.56v-30.04a4.99 4.99 0 0 0 -4.99-4.99zm-87.13 21.37a6.3 6.3 0 1 1 0-12.62 6.3 6.3 0 0 1 0 12.62zm66.68 0a6.3 6.3 0 1 1 0-12.61 6.3 6.3 0 0 1 0 12.61z" fill="#009ee3"/><path d="m47.12 57.06h-6.55c-.81 0-1.47-.66-1.47-1.48v-25.1c0-.8.66-1.47 1.47-1.47h6.55c.82 0 1.48.66 1.48 1.48v25.1c0 .8-.66 1.47-1.48 1.47zm66.71 0h-6.55c-.81 0-1.47-.66-1.47-1.48v-25.1c0-.8.66-1.47 1.47-1.47h6.55c.82 0 1.48.66 1.48 1.48v25.1c0 .8-.66 1.47-1.48 1.47z" fill="#003a69"/><path d="m135.97 76.4h-117.57v3.87h117.56v-3.86z" fill="#6895bd"/><path d="m135.97 72.54h-117.57v3.87h117.56v-3.87z" fill="#0082cd"/></svg>