<svg width="70" height="70" viewBox="0 0 70 70" version="1.1" xmlns="http://www.w3.org/2000/svg" xmlns:xlink="http://www.w3.org/1999/xlink"><title>Vector</title><desc>Created using Figma</desc><g id="Canvas" transform="translate(-1657 197)"><g id="Vector"><use xlink:href="#path0_fill" transform="translate(1657 -197)" fill="#9DA6AA"/></g></g><defs><path id="path0_fill" d="M 11.25 0C 9.18457 0 7.5 1.68457 7.5 3.75L 7.5 60L 2.5 60C 1.12305 60 0 61.123 0 62.5L 0 65C 0 67.7588 2.24121 70 5 70L 65 70C 67.7588 70 70 67.7588 70 65L 70 3.75C 70 1.68457 68.3154 0 66.25 0L 11.25 0ZM 11.25 2.5L 66.25 2.5C 66.9385 2.5 67.5 3.06152 67.5 3.75L 67.5 65C 67.5 66.377 66.377 67.5 65 67.5C 63.623 67.5 62.5 66.377 62.5 65L 62.5 62.5C 62.5 61.123 61.377 60 60 60L 10 60L 10 3.75C 10 3.06152 10.5615 2.5 11.25 2.5ZM 20 13.75C 18.6182 13.75 17.5 14.8682 17.5 16.25C 17.5 17.6318 18.6182 18.75 20 18.75C 21.3818 18.75 22.5 17.6318 22.5 16.25C 22.5 14.8682 21.3818 13.75 20 13.75ZM 27.5 15C 26.8115 15 26.25 15.5615 26.25 16.25C 26.25 16.9385 26.8115 17.5 27.5 17.5L 42.5 17.5C 43.1885 17.5 43.75 16.9385 43.75 16.25C 43.75 15.5615 43.1885 15 42.5 15L 27.5 15ZM 47.5 15C 46.8115 15 46.25 15.5615 46.25 16.25C 46.25 16.9385 46.8115 17.5 47.5 17.5L 52.5 17.5C 53.1885 17.5 53.75 16.9385 53.75 16.25C 53.75 15.5615 53.1885 15 52.5 15L 47.5 15ZM 27.5 20C 26.8115 20 26.25 20.5615 26.25 21.25C 26.25 21.9385 26.8115 22.5 27.5 22.5L 48.75 22.5C 49.4385 22.5 50 21.9385 50 21.25C 50 20.5615 49.4385 20 48.75 20L 27.5 20ZM 20 26.25C 18.6182 26.25 17.5 27.3682 17.5 28.75C 17.5 30.1318 18.6182 31.25 20 31.25C 21.3818 31.25 22.5 30.1318 22.5 28.75C 22.5 27.3682 21.3818 26.25 20 26.25ZM 27.5 27.5C 26.8115 27.5 26.25 28.0615 26.25 28.75C 26.25 29.4385 26.8115 30 27.5 30L 57.5 30C 58.1885 30 58.75 29.4385 58.75 28.75C 58.75 28.0615 58.1885 27.5 57.5 27.5L 27.5 27.5ZM 27.5 32.5C 26.8115 32.5 26.25 33.0615 26.25 33.75C 26.25 34.4385 26.8115 35 27.5 35L 52.5 35C 53.1885 35 53.75 34.4385 53.75 33.75C 53.75 33.0615 53.1885 32.5 52.5 32.5L 27.5 32.5ZM 20 38.75C 18.6182 38.75 17.5 39.8682 17.5 41.25C 17.5 42.6318 18.6182 43.75 20 43.75C 21.3818 43.75 22.5 42.6318 22.5 41.25C 22.5 39.8682 21.3818 38.75 20 38.75ZM 27.5 40C 26.8115 40 26.25 40.5615 26.25 41.25C 26.25 41.9385 26.8115 42.5 27.5 42.5L 37.5 42.5C 38.1885 42.5 38.75 41.9385 38.75 41.25C 38.75 40.5615 38.1885 40 37.5 40L 27.5 40ZM 42.5 40C 41.8115 40 41.25 40.5615 41.25 41.25C 41.25 41.9385 41.8115 42.5 42.5 42.5L 53.75 42.5C 54.4385 42.5 55 41.9385 55 41.25C 55 40.5615 54.4385 40 53.75 40L 42.5 40ZM 13.75 52.5C 13.0615 52.5 12.5 53.0615 12.5 53.75L 12.5 56.25C 12.5 56.9385 13.0615 57.5 13.75 57.5C 14.4385 57.5 15 56.9385 15 56.25L 15 53.75C 15 53.0615 14.4385 52.5 13.75 52.5ZM 20 52.5C 19.3115 52.5 18.75 53.0615 18.75 53.75L 18.75 56.25C 18.75 56.9385 19.3115 57.5 20 57.5C 20.6885 57.5 21.25 56.9385 21.25 56.25L 21.25 53.75C 21.25 53.0615 20.6885 52.5 20 52.5ZM 26.25 52.5C 25.5615 52.5 25 53.0615 25 53.75L 25 56.25C 25 56.9385 25.5615 57.5 26.25 57.5C 26.9385 57.5 27.5 56.9385 27.5 56.25L 27.5 53.75C 27.5 53.0615 26.9385 52.5 26.25 52.5ZM 32.5 52.5C 31.8115 52.5 31.25 53.0615 31.25 53.75L 31.25 56.25C 31.25 56.9385 31.8115 57.5 32.5 57.5C 33.1885 57.5 33.75 56.9385 33.75 56.25L 33.75 53.75C 33.75 53.0615 33.1885 52.5 32.5 52.5ZM 38.75 52.5C 38.0615 52.5 37.5 53.0615 37.5 53.75L 37.5 56.25C 37.5 56.9385 38.0615 57.5 38.75 57.5C 39.4385 57.5 40 56.9385 40 56.25L 40 53.75C 40 53.0615 39.4385 52.5 38.75 52.5ZM 45 52.5C 44.3115 52.5 43.75 53.0615 43.75 53.75L 43.75 56.25C 43.75 56.9385 44.3115 57.5 45 57.5C 45.6885 57.5 46.25 56.9385 46.25 56.25L 46.25 53.75C 46.25 53.0615 45.6885 52.5 45 52.5ZM 51.25 52.5C 50.5615 52.5 50 53.0615 50 53.75L 50 56.25C 50 56.9385 50.5615 57.5 51.25 57.5C 51.9385 57.5 52.5 56.9385 52.5 56.25L 52.5 53.75C 52.5 53.0615 51.9385 52.5 51.25 52.5ZM 57.5 52.5C 56.8115 52.5 56.25 53.0615 56.25 53.75L 56.25 56.25C 56.25 56.9385 56.8115 57.5 57.5 57.5C 58.1885 57.5 58.75 56.9385 58.75 56.25L 58.75 53.75C 58.75 53.0615 58.1885 52.5 57.5 52.5ZM 63.75 52.5C 63.0615 52.5 62.5 53.0615 62.5 53.75L 62.5 56.25C 62.5 56.9385 63.0615 57.5 63.75 57.5C 64.4385 57.5 65 56.9385 65 56.25L 65 53.75C 65 53.0615 64.4385 52.5 63.75 52.5ZM 2.5 62.5L 60 62.5L 60 65C 60 65.9131 60.2637 66.7627 60.6982 67.5L 5 67.5C 3.62305 67.5 2.5 66.377 2.5 65L 2.5 62.5Z"/></defs></svg>