<svg xmlns="http://www.w3.org/2000/svg" width="66" height="57"><path d="M26.4.4C20.3.5 16.4 3 14.7 7a21.3 21.3 0 0 0-.1 13c-.7.8-1.2 1.8-1 3.3v.1c.2 1.6.7 2.7 1.3 3.5.3.4.7.4 1.1.7a13.6 13.6 0 0 0 2.3 5.7l.5.5v4.8c-.5 1-1.5 1.8-3 2.6l-6 2.5a19 19 0 0 0-6.2 3.9 11 11 0 0 0-3.3 7.5v1.4h52.5V55c-.2-3.3-1.5-5.8-3.2-7.6-1.8-1.8-4-3-6.2-3.9-2.2-1-4.4-1.7-6-2.5-1.7-.9-2.7-1.7-3.2-2.7a76 76 0 0 1 0-4.7c0-.2.3-.3.5-.5l1-1.8a16 16 0 0 0 1.3-3.9c.4-.2.9-.2 1.2-.7.6-.8 1-2 1.1-3.6.2-1.4-.2-2.4-.9-3.1.7-2.1 1.5-5.5 1.3-9-.2-1.8-.7-3.7-1.8-5.3A7.6 7.6 0 0 0 33.3 3c-1.4-1.9-4-2.6-6.8-2.6zm0 2.6h.1c2.6 0 4.3.8 4.9 1.7l.3.6h.6c1.8.3 2.8 1 3.6 2a8 8 0 0 1 1.2 4c.3 3.2-.6 7-1.2 8.6l-.4 1.1 1 .6s.4.4.4 1.4c-.2 1.3-.5 2-.7 2.2l-.3.3h-1.1l-.2 1.1a13 13 0 0 1-2 5c-.2.4-.5.6-.3.5l-.7.4v.8l.1 5.5v.2l.1.2c.8 2 2.5 3.3 4.4 4.2 2 1 4.1 1.7 6.2 2.6 2 1 4 2 5.4 3.3a8.5 8.5 0 0 1 2.1 4.6H3.3c.3-2 1-3.4 2.1-4.6a17 17 0 0 1 5.4-3.3c2-.9 4.2-1.6 6.1-2.6 2-1 3.7-2.2 4.4-4.2V39c.3-2.3.2-3.8.2-5.7v-.8l-.7-.4-.4-.5-.8-1.3c-.6-1.1-1-2.5-1.2-3.6v-1.2h-1.2l-.3-.3a5 5 0 0 1-.7-2.2c0-1 .6-1.6.5-1.5l.7-.6-.2-.9c-1.2-4.8-1.4-9-.1-12 1.3-3 3.9-4.8 9.4-5zm17.3 14v2.7H66v-2.6H43.7zM41 27.7v2.6h25v-2.6H41zM43.7 38v2.6H66V38H43.7z" opacity=".3"/></svg>