<svg width="48" height="45" viewBox="0 0 48 45" version="1.1" xmlns="http://www.w3.org/2000/svg" xmlns:xlink="http://www.w3.org/1999/xlink"><title>Vector</title><desc>Created using Figma</desc><g id="Canvas" transform="translate(-14954 -2912)"><g id="Vector"><use xlink:href="#path0_fill" transform="translate(14954 2912)" fill="#9DA6AA"/></g></g><defs><path id="path0_fill" d="M 27.541 0C 27.3412 0 27.1383 0.0768442 26.9846 0.230533L 23.8371 3.37807C 23.5297 3.68545 23.5297 4.1834 23.8371 4.49078L 36.6578 17.3115L 22.8197 17.3115C 10.2357 17.3115 0 27.5471 0 40.1311L 0 43.2787C 0 43.7121 0.353484 44.0656 0.786885 44.0656L 5.5082 44.0656C 5.9416 44.0656 6.29508 43.7121 6.29508 43.2787L 6.29508 40.1311C 6.29508 31.0205 13.709 23.6066 22.8197 23.6066L 36.6578 23.6066L 23.8371 36.4272C 23.5297 36.7346 23.5297 37.2326 23.8371 37.54L 26.9846 40.6875C 27.292 40.9949 27.79 40.9949 28.0973 40.6875L 47.7695 21.0154C 48.0768 20.708 48.0768 20.21 47.7695 19.9027L 28.0973 0.230533C 27.9436 0.0768442 27.7408 0 27.541 0ZM 27.541 1.89959L 46.1004 20.459L 27.541 39.0184L 25.5061 36.9836L 39.1137 23.376C 39.3381 23.1516 39.4057 22.8135 39.2828 22.5184C 39.1629 22.2264 38.874 22.0328 38.5574 22.0328L 22.8197 22.0328C 12.8391 22.0328 4.72131 30.1506 4.72131 40.1311L 4.72131 42.4918L 1.57377 42.4918L 1.57377 40.1311C 1.57377 28.417 11.1055 18.8852 22.8197 18.8852L 38.5574 18.8852C 38.874 18.8852 39.1629 18.6916 39.2828 18.3996C 39.4057 18.1045 39.3381 17.7664 39.1137 17.542L 25.5061 3.93443L 27.541 1.89959ZM 22.0328 12.5902C 21.5994 12.5902 21.2459 12.9436 21.2459 13.377L 21.2459 14.9508C 21.2459 15.3842 21.5994 15.7377 22.0328 15.7377C 22.4662 15.7377 22.8197 15.3842 22.8197 14.9508L 22.8197 13.377C 22.8197 12.9436 22.4662 12.5902 22.0328 12.5902ZM 25.9672 12.5902C 25.5338 12.5902 25.1803 12.9436 25.1803 13.377L 25.1803 14.9508C 25.1803 15.3842 25.5338 15.7377 25.9672 15.7377C 26.4006 15.7377 26.7541 15.3842 26.7541 14.9508L 26.7541 13.377C 26.7541 12.9436 26.4006 12.5902 25.9672 12.5902ZM 17.8494 12.9191C 17.4191 12.9867 17.127 13.3893 17.1947 13.8197L 17.4375 15.3719C 17.499 15.7623 17.834 16.0389 18.2152 16.0389C 18.2551 16.0389 18.2982 16.0359 18.3412 16.0297C 18.7684 15.959 19.0635 15.5594 18.9959 15.1291L 18.75 13.5738C 18.6793 13.1434 18.2766 12.8545 17.8494 12.9191ZM 14.0779 13.8658C 13.9734 13.8566 13.8689 13.8658 13.7643 13.8996C 13.3525 14.0348 13.125 14.4775 13.2602 14.8893L 13.7459 16.3893C 13.8535 16.7213 14.1609 16.9303 14.4959 16.9303C 14.5758 16.9303 14.6557 16.918 14.7387 16.8934C 15.1506 16.7582 15.3781 16.3125 15.2428 15.9006L 14.7572 14.4068C 14.6557 14.0963 14.3822 13.8904 14.0779 13.8658ZM 10.1895 15.4211C 10.085 15.4273 9.98361 15.4549 9.88525 15.5041C 9.50103 15.7008 9.34426 16.1773 9.54098 16.5645L 10.2572 17.9662C 10.3955 18.2398 10.6721 18.3965 10.958 18.3965C 11.0779 18.3965 11.2008 18.3689 11.3145 18.3104C 11.7018 18.1137 11.8555 17.6404 11.6588 17.2531L 10.9457 15.8484C 10.7982 15.5594 10.4939 15.3996 10.1895 15.4211ZM 6.89447 17.5574C 6.69467 17.5266 6.48258 17.5697 6.30738 17.6988C 5.95697 17.9539 5.87705 18.4488 6.13525 18.7992L 7.05738 20.0717C 7.21414 20.2838 7.45082 20.3975 7.69672 20.3975C 7.85656 20.3975 8.01639 20.3484 8.15779 20.2469C 8.5082 19.9887 8.58811 19.4969 8.33299 19.1465L 7.40471 17.874C 7.27869 17.6988 7.09119 17.5912 6.89447 17.5574ZM 3.67008 20.1977C 3.47029 20.1977 3.27049 20.2715 3.1168 20.4252C 2.80635 20.7357 2.80635 21.2305 3.1168 21.541L 4.22951 22.6506C 4.38012 22.8043 4.58299 22.8811 4.78279 22.8811C 4.98566 22.8811 5.18852 22.8043 5.34221 22.6506C 5.64959 22.3432 5.64959 21.8484 5.34221 21.541L 4.22951 20.4252C 4.07275 20.2715 3.87295 20.1977 3.67008 20.1977ZM 0.903689 23.3023C 0.703893 23.3361 0.516393 23.4436 0.387295 23.6189C 0.132172 23.9693 0.21209 24.4611 0.5625 24.7162L 1.83504 25.6445C 1.97643 25.7459 2.13627 25.7951 2.29918 25.7951C 2.54201 25.7951 2.78176 25.6814 2.93545 25.4693C 3.19057 25.1189 3.11373 24.627 2.76025 24.3689L 1.4877 23.4467C 1.3125 23.3176 1.10041 23.2715 0.903689 23.3023Z"/></defs></svg>