<svg xmlns="http://www.w3.org/2000/svg" width="20" height="10" fill="none"><path fill="#000" d="M10 0C4.57 0 .39 4.59.39 4.59L0 5l.39.41s3.8 4.17 8.88 4.55a6.07 6.07 0 0 0 1.46 0c5.07-.38 8.88-4.55 8.88-4.55L20 5l-.39-.41S15.43 0 10 0zm0 1.25a9.8 9.8 0 0 1 3.91.88c.42.66.65 1.42.65 2.25a4.44 4.44 0 0 1-4.05 4.35h-.04l-.47.02-.5-.02a4.44 4.44 0 0 1-4.06-4.36c0-.81.23-1.57.63-2.22h-.02a9.8 9.8 0 0 1 3.95-.9zm0 1.25c-1.08 0-1.96.84-1.96 1.88 0 1.03.88 1.87 1.96 1.87s1.96-.84 1.96-1.88c0-1.03-.88-1.87-1.96-1.87zm-5.7.59a5.41 5.41 0 0 0 .73 4.27c-1.64-.9-2.78-2-3.16-2.36.32-.3 1.19-1.12 2.43-1.91zm11.4 0c1.24.79 2.11 1.6 2.43 1.91-.38.37-1.52 1.45-3.16 2.36a5.41 5.41 0 0 0 .73-4.27z"/></svg>