<svg width="70" height="61" viewBox="0 0 70 61" version="1.1" xmlns="http://www.w3.org/2000/svg" xmlns:xlink="http://www.w3.org/1999/xlink">
<title>Vector</title>
<desc>Created using Figma</desc>
<g id="Canvas" transform="translate(1774 -4710)">
<g id="Vector">
<use xlink:href="#path0_fill" transform="translate(-1774 4710)" fill="#9DA6AA"/>
</g>
</g>
<defs>
<path id="path0_fill" d="M 35 0C 33.8106 0 32.7384 0.612072 32.135 1.63653L 0.47217 55.0605C -0.148585 56.1066 -0.157267 57.3568 0.446124 58.4117C 1.04083 59.4665 2.12607 60.096 3.33719 60.096L 66.6585 60.096C 67.8739 60.096 68.9548 59.4665 69.5539 58.4117C 70.1573 57.3568 70.1486 56.1066 69.5278 55.0605L 37.865 1.63653C 37.2616 0.612072 36.1894 0 35 0ZM 35 2.22256C 35.191 2.22256 35.6642 2.27465 35.955 2.76952L 67.6135 56.1935C 67.913 56.697 67.722 57.1441 67.6265 57.3134C 67.531 57.4784 67.2445 57.8734 66.6585 57.8734L 3.33719 57.8734C 2.7555 57.8734 2.469 57.4784 2.3735 57.3134C 2.278 57.1441 2.087 56.697 2.38218 56.1935L 34.045 2.76952C 34.3358 2.27465 34.809 2.22256 35 2.22256ZM 35 11.1475C 34.2099 11.1475 33.4937 11.5556 33.09 12.2371L 10.5952 50.0727C 10.1829 50.7673 10.1742 51.6007 10.5735 52.304C 10.9729 53.0072 11.6935 53.4283 12.5053 53.4283L 13.8857 53.4283C 14.5021 53.4283 14.997 52.9291 14.997 52.317C 14.997 51.7049 14.5021 51.2057 13.8857 51.2057L 12.5053 51.2057L 35 13.3744L 57.4947 51.2057L 56.1143 51.2057C 55.4979 51.2057 55.003 51.7049 55.003 52.317C 55.003 52.9291 55.4979 53.4283 56.1143 53.4283L 57.4947 53.4283C 58.3065 53.4283 59.0271 53.0072 59.4265 52.304C 59.8258 51.6007 59.8171 50.7673 59.4048 50.0727L 36.91 12.2414C 36.5063 11.5599 35.7901 11.1475 35 11.1475ZM 34.7916 22.3645C 34.2794 22.4123 33.7845 22.612 33.4286 22.9983C 33.0249 23.4367 32.8209 24.0271 32.8643 24.6175L 33.9321 38.9816C 33.9321 39.5937 34.427 40.0929 35.0434 40.0929C 35.6598 40.0929 36.1547 39.5937 36.1547 38.9816L 37.1357 24.6175C 37.1792 24.0271 36.9751 23.4367 36.5714 22.9983C 36.2545 22.6554 35.8291 22.4557 35.3777 22.3819C 35.2691 22.3472 34.8741 22.3428 34.7916 22.3645ZM 35.0434 42.3155C 33.8149 42.3155 32.8209 43.3096 32.8209 44.538C 32.8209 45.7665 33.8149 46.7606 35.0434 46.7606C 36.2719 46.7606 37.266 45.7665 37.266 44.538C 37.266 43.3096 36.2719 42.3155 35.0434 42.3155ZM 18.3308 48.9832C 17.7144 48.9832 17.2195 49.4824 17.2195 50.0944L 17.2195 52.317C 17.2195 52.9291 17.7144 53.4283 18.3308 53.4283C 18.9472 53.4283 19.4421 52.9291 19.4421 52.317L 19.4421 50.0944C 19.4421 49.4824 18.9472 48.9832 18.3308 48.9832ZM 23.8872 48.9832C 23.2708 48.9832 22.7759 49.4824 22.7759 50.0944L 22.7759 52.317C 22.7759 52.9291 23.2708 53.4283 23.8872 53.4283C 24.5036 53.4283 24.9985 52.9291 24.9985 52.317L 24.9985 50.0944C 24.9985 49.4824 24.5036 48.9832 23.8872 48.9832ZM 29.4436 48.9832C 28.8272 48.9832 28.3323 49.4824 28.3323 50.0944L 28.3323 52.317C 28.3323 52.9291 28.8272 53.4283 29.4436 53.4283C 30.06 53.4283 30.5549 52.9291 30.5549 52.317L 30.5549 50.0944C 30.5549 49.4824 30.06 48.9832 29.4436 48.9832ZM 35 48.9832C 34.3836 48.9832 33.8887 49.4824 33.8887 50.0944L 33.8887 52.317C 33.8887 52.9291 34.3836 53.4283 35 53.4283C 35.6164 53.4283 36.1113 52.9291 36.1113 52.317L 36.1113 50.0944C 36.1113 49.4824 35.6164 48.9832 35 48.9832ZM 40.5564 48.9832C 39.94 48.9832 39.4451 49.4824 39.4451 50.0944L 39.4451 52.317C 39.4451 52.9291 39.94 53.4283 40.5564 53.4283C 41.1728 53.4283 41.6677 52.9291 41.6677 52.317L 41.6677 50.0944C 41.6677 49.4824 41.1728 48.9832 40.5564 48.9832ZM 46.1128 48.9832C 45.4964 48.9832 45.0015 49.4824 45.0015 50.0944L 45.0015 52.317C 45.0015 52.9291 45.4964 53.4283 46.1128 53.4283C 46.7292 53.4283 47.2241 52.9291 47.2241 52.317L 47.2241 50.0944C 47.2241 49.4824 46.7292 48.9832 46.1128 48.9832ZM 51.6692 48.9832C 51.0528 48.9832 50.5579 49.4824 50.5579 50.0944L 50.5579 52.317C 50.5579 52.9291 51.0528 53.4283 51.6692 53.4283C 52.2856 53.4283 52.7805 52.9291 52.7805 52.317L 52.7805 50.0944C 52.7805 49.4824 52.2856 48.9832 51.6692 48.9832Z"/>
</defs>
</svg>
