<?xml version="1.0" encoding="utf-8"?>
<!-- Generator: Adobe Illustrator 21.1.0, SVG Export Plug-In . SVG Version: 6.00 Build 0)  -->
<svg version="1.1" id="Layer_1" xmlns="http://www.w3.org/2000/svg" xmlns:xlink="http://www.w3.org/1999/xlink" x="0px" y="0px"
	 viewBox="0 0 112 112" style="enable-background:new 0 0 112 112;" xml:space="preserve">
<style type="text/css">
	.st0{fill:#F5F5F6;}
	.st1{fill:url(#path1_fill_1_);}
	.st2{fill:#FFFFFF;}
	.st3{fill:#A4D73E;}
	.st4{fill:url(#path4_fill_2_);}
	.st5{fill:url(#path4_fill_3_);}
	.st6{opacity:0.6;fill:#A8C6DF;}
	.st7{fill:url(#path10_fill_2_);}
</style>
<g id="Component_10">
	<path id="path0_fill" class="st0" d="M17.7,41.3c35.2,0,32.4-39.8,52.8-26.2s26.3,30.3,25.9,55.3c-0.4,25-48.3,30.8-68.6,17.1
		S-17.5,41.3,17.7,41.3z"/>
	<g id="Group_2.2">

			<linearGradient id="path1_fill_1_" gradientUnits="userSpaceOnUse" x1="-310.5368" y1="744.7914" x2="-309.5368" y2="744.7914" gradientTransform="matrix(3.714640e-15 35.8493 60.6647 -2.195140e-15 -45135.9922 11152.6357)">
			<stop  offset="0" style="stop-color:#D4F296"/>
			<stop  offset="1" style="stop-color:#41CFC8"/>
		</linearGradient>
		<path id="path1_fill" class="st1" d="M16.2,22.1c0-1.1,0.9-2,2-2h56.7c1.1,0,2,0.9,2,2V54c0,1.1-0.9,2-2,2H18.2c-1.1,0-2-0.9-2-2
			V22.1z"/>
		<path id="path2_fill" class="st2" d="M72.6,30.5c-0.9,0.6-1.9,0.9-3.1,0.9c-3.1,0-5.7-2.5-5.7-5.6c0-0.5,0.1-1,0.2-1.4H24.7
			c1.8,1,2.9,2.8,2.9,4.9c0,3.1-2.6,5.6-5.7,5.6c-0.5,0-1-0.1-1.4-0.2v10.8c0.9-0.6,1.9-0.9,3.1-0.9c3.1,0,5.7,2.5,5.7,5.6
			c0,0.5-0.1,1-0.2,1.4h39.3c-1.8-1-2.9-2.8-2.9-4.9c0-3.1,2.6-5.6,5.7-5.6c0.5,0,1,0.1,1.4,0.2V30.5z"/>
		<path id="path3_fill" class="st3" d="M47.5,43.7h-3.8l0,2.8h-2.9l0-2.8h-2.5l0-2.2h2.5v-1.2h-2.5v-2.3h2.5v-8.2h6.5
			c2,0,3.5,0.5,4.7,1.5c1.2,1,1.8,2.2,1.8,3.8c0,1.6-0.6,2.9-1.7,3.8c-1.1,0.9-2.7,1.4-4.7,1.4h-3.7v1.2h3.8L47.5,43.7z M43.7,37.9
			h3.5c1.1,0,2-0.2,2.5-0.7c0.6-0.5,0.9-1.2,0.9-2.2c0-0.9-0.3-1.6-0.9-2.1c-0.6-0.5-1.4-0.8-2.4-0.9h-3.7V37.9z"/>
	</g>
	<g id="Group_2.1">

			<linearGradient id="path4_fill_2_" gradientUnits="userSpaceOnUse" x1="-310.5368" y1="744.7914" x2="-309.5368" y2="744.7914" gradientTransform="matrix(3.714640e-15 35.8493 60.6647 -2.195140e-15 -45129.1641 11169.6152)">
			<stop  offset="0" style="stop-color:#D4F296"/>
			<stop  offset="1" style="stop-color:#41CFC8"/>
		</linearGradient>
		<path id="path4_fill" class="st4" d="M23,39.1c0-1.1,0.9-2,2-2h56.7c1.1,0,2,0.9,2,2v31.8c0,1.1-0.9,2-2,2H25c-1.1,0-2-0.9-2-2
			V39.1z"/>
		<path id="path5_fill" class="st2" d="M79.4,47.5c-0.9,0.6-1.9,0.9-3.1,0.9c-3.1,0-5.7-2.5-5.7-5.6c0-0.5,0.1-1,0.2-1.4H31.5
			c1.8,1,2.9,2.8,2.9,4.9c0,3.1-2.6,5.6-5.7,5.6c-0.5,0-1-0.1-1.4-0.2v10.8c0.9-0.6,1.9-0.9,3.1-0.9c3.1,0,5.7,2.5,5.7,5.6
			c0,0.5-0.1,1-0.2,1.4h39.3c-1.8-1-2.9-2.8-2.9-4.9c0-3.1,2.6-5.6,5.7-5.6c0.5,0,1,0.1,1.4,0.2V47.5z"/>
		<path id="path6_fill" class="st3" d="M54.3,60.7h-3.8l0,2.8h-2.9l0-2.8h-2.5l0-2.2h2.5v-1.2h-2.5v-2.3h2.5v-8.2h6.5
			c2,0,3.5,0.5,4.7,1.5c1.2,1,1.8,2.2,1.8,3.8c0,1.6-0.6,2.9-1.7,3.8c-1.1,0.9-2.7,1.4-4.7,1.4h-3.7v1.2h3.8L54.3,60.7z M50.5,54.9
			h3.5c1.1,0,2-0.2,2.5-0.7c0.6-0.5,0.9-1.2,0.9-2.2c0-0.9-0.3-1.6-0.9-2.1c-0.6-0.5-1.4-0.8-2.4-0.9h-3.7V54.9z"/>
	</g>
	<g id="Group_2">

			<linearGradient id="path4_fill_3_" gradientUnits="userSpaceOnUse" x1="-310.5368" y1="744.7914" x2="-309.5368" y2="744.7914" gradientTransform="matrix(3.714640e-15 35.8493 60.6647 -2.195140e-15 -45122.3359 11186.5938)">
			<stop  offset="0" style="stop-color:#D4F296"/>
			<stop  offset="1" style="stop-color:#41CFC8"/>
		</linearGradient>
		<path id="path4_fill_1_" class="st5" d="M29.9,56.1c0-1.1,0.9-2,2-2h56.7c1.1,0,2,0.9,2,2v31.8c0,1.1-0.9,2-2,2H31.9
			c-1.1,0-2-0.9-2-2V56.1z"/>
		<path id="path7_fill" class="st2" d="M86.3,64.5c-0.9,0.6-1.9,0.9-3.1,0.9c-3.1,0-5.7-2.5-5.7-5.6c0-0.5,0.1-1,0.2-1.4H38.3
			c1.8,1,2.9,2.8,2.9,4.9c0,3.1-2.6,5.6-5.7,5.6c-0.5,0-1-0.1-1.4-0.2v10.8c0.9-0.6,1.9-0.9,3.1-0.9c3.1,0,5.7,2.5,5.7,5.6
			c0,0.5-0.1,1-0.2,1.4h39.3c-1.8-1-2.9-2.8-2.9-4.9c0-3.1,2.6-5.6,5.7-5.6c0.5,0,1,0.1,1.4,0.2V64.5z"/>
		<path id="path8_fill" class="st3" d="M61.2,77.6h-3.8l0,2.8h-2.9l0-2.8H52l0-2.2h2.5v-1.2H52v-2.3h2.5v-8.2H61
			c2,0,3.5,0.5,4.7,1.5c1.2,1,1.8,2.2,1.8,3.8c0,1.6-0.6,2.9-1.7,3.8c-1.1,0.9-2.7,1.4-4.7,1.4h-3.7v1.2h3.8L61.2,77.6z M57.4,71.8
			h3.5c1.1,0,2-0.2,2.5-0.7c0.6-0.5,0.9-1.2,0.9-2.2c0-0.9-0.3-1.6-0.9-2.1c-0.6-0.5-1.4-0.8-2.4-0.9h-3.7V71.8z"/>
	</g>
	<path id="path10_fill" class="st6" d="M96.4,80.8c0,9.7-8,17.7-17.8,17.7c-9.8,0-17.8-7.9-17.8-17.7c0-9.7,8-17.7,17.8-17.7
		C88.4,63.1,96.4,71,96.4,80.8z"/>
	<g id="Group">

			<linearGradient id="path10_fill_2_" gradientUnits="userSpaceOnUse" x1="-346.5944" y1="730.5179" x2="-345.5944" y2="730.5179" gradientTransform="matrix(-0.5399 -34.321 -34.646 1.7978 25203.6387 -13114.1543)">
			<stop  offset="0" style="stop-color:#30B5EE"/>
			<stop  offset="1" style="stop-color:#B4F3F0"/>
		</linearGradient>
		<path id="path10_fill_1_" class="st7" d="M98.8,78c0,9.7-8,17.7-17.8,17.7c-9.8,0-17.8-7.9-17.8-17.7c0-9.7,8-17.7,17.8-17.7
			C90.8,60.3,98.8,68.2,98.8,78z"/>
		<path id="path11_fill" class="st2" d="M77.7,78.1h10.9v4.7H77.7V78.1z"/>
		<path id="path12_fill" class="st2" d="M76.9,68.1h5v14.8h-5V68.1z"/>
	</g>
</g>
</svg>
