<?xml version="1.0" encoding="UTF-8" standalone="no"?>
<svg width="32px" height="34px" viewBox="0 0 32 34" version="1.1" xmlns="http://www.w3.org/2000/svg" xmlns:xlink="http://www.w3.org/1999/xlink" xmlns:sketch="http://www.bohemiancoding.com/sketch/ns">
    <!-- Generator: Sketch 3.3.2 (12043) - http://www.bohemiancoding.com/sketch -->
    <title>Shape</title>
    <desc>Created with Sketch.</desc>
    <defs></defs>
    <g id="Мессенджер" stroke="none" stroke-width="1" fill="none" fill-rule="evenodd" sketch:type="MSPage">
        <g id="месенджер---первый-вход" sketch:type="MSArtboardGroup" transform="translate(-529.000000, -486.000000)" fill="#CEE3F2">
            <g id="noun_38670_cc" sketch:type="MSLayerGroup" transform="translate(545.054581, 503.282604) rotate(-1.000000) translate(-545.054581, -503.282604) translate(529.054581, 485.782604)">
                <path d="M6.48848004,1.1503003 C6.47900806,1.16041934 6.64326703,0.991630939 6.63411858,1.00207351 L1.54585618,6.68822029 L1.2161765,7.06642955 C0.799867275,7.48273877 0.683271751,8.10080658 1.05528503,8.55379608 C1.42729831,9.00678559 2.0936488,9.06320225 2.54975228,8.68668728 L2.67636324,8.57689991 L5.67632403,6.23047074 C5.67597959,6.23469754 5.67661769,6.23729474 5.67627326,6.24152155 C5.67071732,7.38008131 5.70821779,8.76805624 5.8537426,10.3424196 C6.06272311,12.5366237 6.48064954,15.0932367 7.33569661,17.7264956 C8.18655569,20.3516482 9.50244862,23.0617689 11.3991905,25.3379235 C11.637735,25.6247926 11.8971138,25.9044155 12.1447859,26.1853923 C12.3950701,26.463757 12.6462462,26.6894648 12.8963174,26.9434541 L13.1011212,27.1462988 L13.3060444,27.3231416 L13.7149233,27.6752065 C13.9868651,27.9086193 14.2578333,28.1417116 14.527831,28.3738332 C14.7903188,28.6134648 15.0809139,28.8191655 15.3653201,29.0278198 C15.6494028,29.2361505 15.9321884,29.4438372 16.2130298,29.6502327 C16.4876614,29.8641322 16.7819318,30.0480398 17.0758996,30.2270736 C17.3672553,30.4087196 17.6566668,30.5890744 17.9438106,30.7678145 C20.2707636,32.1485211 22.6424315,33.0639231 24.733947,33.5522399 C26.8257292,34.0532311 28.6169655,34.1798836 29.8611297,34.1800178 C31.108547,34.179487 31.8121125,34.0589235 31.8121125,34.0589235 C31.8121125,34.0589235 31.1009913,34.126219 29.8673345,34.0321066 C28.6372485,33.9389529 26.8820534,33.6785529 24.8829055,33.0351036 C22.8823977,32.4046614 20.6589595,31.3429708 18.5359732,29.8521214 C18.274891,29.6602609 18.008929,29.4693978 17.7439615,29.2743049 C17.4770289,29.0824712 17.2058665,28.8916321 16.9589142,28.6662298 C16.7063991,28.4489786 16.4421414,28.2408818 16.1870351,28.0216924 C15.9316023,27.8028295 14.0845169,25.8251373 14.0845169,25.8251373 C13.8608219,25.5603012 13.6039745,25.2956174 13.4040018,25.0316473 C13.2066383,24.7657152 12.9818204,24.5330609 12.7893576,24.261581 C11.22347,22.0589852 10.205496,19.5168296 9.60872083,17.0504179 C9.0096989,14.5778412 8.79672556,12.1915705 8.75802066,10.1460919 C8.73631644,8.78632084 8.78571824,7.58385632 8.8611906,6.57855729 L11.1624919,9.43950876 L11.2662257,9.56936396 C11.6339972,10.0259481 12.2907981,10.1093851 12.750781,9.73740252 C13.2107638,9.36541996 13.3357821,8.68263509 12.9236042,8.27045723 L12.9384866,8.28533963 L12.9668936,8.25693265 L9.20209893,1.77551622 C8.99616237,1.11180278 8.3685062,0.627161073 7.63616045,0.645151471 C7.23179504,0.654809664 6.8618214,0.819017899 6.58178925,1.07316762 C6.55111755,1.09930988 6.51721354,1.1215668 6.48848004,1.1503003 L6.48848004,1.1503003 L6.48848004,1.1503003 Z" id="Shape" sketch:type="MSShapeGroup"></path>
            </g>
        </g>
    </g>
</svg>