<svg xmlns="http://www.w3.org/2000/svg" width="65" height="71"><path d="M0 0v67.95h41.41a14.66 14.66 0 0 0 8.82 2.96A14.8 14.8 0 0 0 65 56.14c0-6.04-3.66-11.24-8.86-13.53V0H0zm2.95 2.95h50.23V41.7a14.66 14.66 0 0 0-11.77 2.63H20.68v2.95h17.78a14.65 14.65 0 0 0 0 17.73H2.96V2.95zm7.4 14.78v2.95h5.9v-2.95h-5.9zm10.33 0v2.95H45.8v-2.95H20.68zm-10.34 8.86v2.96h5.91v-2.96h-5.9zm10.34 0v2.96H45.8v-2.96H20.68zm-10.34 8.86v2.96h5.91v-2.96h-5.9zm10.34 0v2.96H45.8v-2.96H20.68zm-10.34 8.87v2.95h5.91v-2.95h-5.9zm39.89 0a11.8 11.8 0 0 1 11.82 11.82 11.8 11.8 0 0 1-11.82 11.81A11.8 11.8 0 0 1 38.4 56.14a11.8 11.8 0 0 1 11.82-11.82zm-1.48 4.43v5.9h-5.9v2.96h5.9v5.91h2.95v-5.9h5.91v-2.96h-5.9v-5.91h-2.96z" opacity=".32"/></svg>