<svg xmlns="http://www.w3.org/2000/svg" xmlns:xlink="http://www.w3.org/1999/xlink" width="70" height="70"><use fill="#717D83" xlink:href="#path0_fill"/><defs><path id="path0_fill" d="M11.3 0a3.8 3.8 0 0 0-3.8 3.8V60h-5A2.5 2.5 0 0 0 0 62.5V65a5 5 0 0 0 5 5h60a5 5 0 0 0 5-5V3.7c0-2-1.7-3.7-3.8-3.7h-55zm0 2.5h55c.6 0 1.2.6 1.2 1.3V65a2.5 2.5 0 0 1-5 0v-2.5c0-1.4-1.1-2.5-2.5-2.5H10V3.7c0-.6.6-1.2 1.3-1.2zM22.4 10c-.7 0-1.3.6-1.3 1.3v1.2c-2 0-3.7 1.7-3.7 3.8V20c0 2 1.7 3.8 3.8 3.8h2.4c.7 0 1.3.5 1.3 1.2v3.8c0 .6-.6 1.2-1.3 1.2h-2.4c-.7 0-1.3-.6-1.3-1.3v-1.2c0-.7-.6-1.3-1.3-1.3-.6 0-1.2.6-1.2 1.3v1.3c0 2 1.7 3.7 3.8 3.7v1.3c0 .6.5 1.2 1.2 1.2s1.3-.6 1.3-1.3v-1.2c2 0 3.7-1.7 3.7-3.8V25c0-2-1.7-3.8-3.8-3.8h-2.4c-.7 0-1.3-.5-1.3-1.2v-3.8c0-.6.6-1.2 1.3-1.2h2.4c.7 0 1.3.6 1.3 1.3v1.2c0 .7.6 1.3 1.3 1.3.6 0 1.2-.6 1.2-1.3v-1.3c0-2-1.7-3.7-3.8-3.7v-1.3c0-.6-.5-1.2-1.2-1.2zm11.3 2.5c-.7 0-1.3.6-1.3 1.3 0 .6.6 1.2 1.3 1.2h10c.6 0 1.2-.6 1.2-1.3 0-.6-.6-1.2-1.3-1.2h-10zm15 0c-.7 0-1.3.6-1.3 1.3 0 .6.6 1.2 1.3 1.2h7.5c.6 0 1.2-.6 1.2-1.3 0-.6-.6-1.2-1.3-1.2h-7.5zm-15 5c-.7 0-1.3.6-1.3 1.3 0 .6.6 1.2 1.3 1.2h17.5c.6 0 1.2-.6 1.2-1.3 0-.6-.6-1.2-1.3-1.2H33.8zm0 12.5c-.7 0-1.3.6-1.3 1.3 0 .6.6 1.2 1.3 1.2h22.5c.6 0 1.2-.6 1.2-1.3 0-.6-.6-1.2-1.3-1.2H33.8zm0 5c-.7 0-1.3.6-1.3 1.3 0 .6.6 1.2 1.3 1.2h10c.6 0 1.2-.6 1.2-1.3 0-.6-.6-1.2-1.3-1.2h-10zm15 0c-.7 0-1.3.6-1.3 1.3 0 .6.6 1.2 1.3 1.2h2.5c.6 0 1.2-.6 1.2-1.3 0-.6-.6-1.2-1.3-1.2h-2.5zM15 50c-.7 0-1.3.6-1.3 1.3v2.5c0 .6.6 1.2 1.3 1.2.7 0 1.3-.6 1.3-1.3v-2.5c0-.6-.6-1.2-1.3-1.2zm6.3 0c-.7 0-1.3.6-1.3 1.3v2.5c0 .6.6 1.2 1.3 1.2.6 0 1.2-.6 1.2-1.3v-2.5c0-.6-.6-1.2-1.3-1.2zm6.2 0c-.7 0-1.3.6-1.3 1.3v2.5c0 .6.6 1.2 1.3 1.2.7 0 1.3-.6 1.3-1.3v-2.5c0-.6-.6-1.2-1.3-1.2zm6.3 0c-.7 0-1.3.6-1.3 1.3v2.5c0 .6.6 1.2 1.3 1.2.6 0 1.2-.6 1.2-1.3v-2.5c0-.6-.6-1.2-1.3-1.2zm6.2 0c-.7 0-1.3.6-1.3 1.3v2.5c0 .6.6 1.2 1.3 1.2.7 0 1.3-.6 1.3-1.3v-2.5c0-.6-.6-1.2-1.3-1.2zm6.3 0c-.7 0-1.3.6-1.3 1.3v2.5c0 .6.6 1.2 1.3 1.2.6 0 1.2-.6 1.2-1.3v-2.5c0-.6-.6-1.2-1.3-1.2zm6.2 0c-.7 0-1.3.6-1.3 1.3v2.5c0 .6.6 1.2 1.3 1.2.7 0 1.3-.6 1.3-1.3v-2.5c0-.6-.6-1.2-1.3-1.2zm6.3 0c-.7 0-1.3.6-1.3 1.3v2.5c0 .6.6 1.2 1.3 1.2.6 0 1.2-.6 1.2-1.3v-2.5c0-.6-.6-1.2-1.3-1.2zm6.2 0c-.7 0-1.3.6-1.3 1.3v2.5c0 .6.6 1.2 1.3 1.2.7 0 1.3-.6 1.3-1.3v-2.5c0-.6-.6-1.2-1.3-1.2zM2.5 62.5H60V65c0 1 .3 1.8.7 2.5H5A2.5 2.5 0 0 1 2.5 65v-2.5z"/></defs></svg>