<svg xmlns="http://www.w3.org/2000/svg" xmlns:xlink="http://www.w3.org/1999/xlink" width="42" height="40"><use fill="#9DA6AA" xlink:href="#path0_fill"/><defs><path id="path0_fill" d="M11.829 0a.69.69 0 0 0-.69.688v6.175H4.925c-1.14 0-2.07.93-2.07 2.071 0 .782.442 1.459 1.083 1.81L.365 17.89a3.449 3.449 0 0 0 .648 3.985l.194.195a4.76 4.76 0 0 0 1.647 1.06v15.49H.784a.69.69 0 1 0 0 1.38h40.04a.69.69 0 1 0 0-1.38h-2.071V23.13a4.753 4.753 0 0 0 1.647-1.06l.194-.195a3.449 3.449 0 0 0 .648-3.985l-3.573-7.146a2.068 2.068 0 0 0 1.084-1.81c0-1.14-.93-2.07-2.071-2.07H15.28V4.138a.691.691 0 0 0-1.381 0v2.724h-1.38V.688A.69.69 0 0 0 11.828 0zM4.925 8.244h31.757c.38 0 .69.31.69.69 0 .38-.31.69-.69.69H4.925c-.38 0-.69-.31-.69-.69 0-.38.31-.69.69-.69zm.427 2.761h5.088l-1.356 6.103a.69.69 0 0 0 .674.841.691.691 0 0 0 .674-.542l1.38-6.213a.634.634 0 0 0 .004-.189h17.973c-.003.062-.008.124.005.189l1.381 6.213a.693.693 0 0 0 .674.542.687.687 0 0 0 .671-.841l-1.353-6.103h5.089l3.75 7.502a2.07 2.07 0 0 1-.388 2.392l-.194.194a3.466 3.466 0 0 1-4.511.321l-1.82-1.367a2.088 2.088 0 0 0-2.487 0l-2.209 1.659a3.471 3.471 0 0 1-4.142 0l-2.208-1.656a2.061 2.061 0 0 0-.553-.294v-5.949a.69.69 0 1 0-1.38 0v5.949c-.195.07-.384.164-.554.294l-2.208 1.656a3.471 3.471 0 0 1-4.142 0L11 20.05a2.08 2.08 0 0 0-2.486 0l-1.82 1.364a3.476 3.476 0 0 1-4.515-.32l-.194-.195A2.066 2.066 0 0 1 1.6 18.51l3.752-7.505zm4.406 10.01c.146 0 .291.046.413.138l2.21 1.656a4.854 4.854 0 0 0 5.799 0l2.21-1.656a.688.688 0 0 1 .826 0l2.211 1.656a4.82 4.82 0 0 0 2.9.96 4.815 4.815 0 0 0 2.898-.96l2.212-1.656a.688.688 0 0 1 .825 0l1.82 1.364a4.827 4.827 0 0 0 3.29.942v8.238h-2.071a.69.69 0 1 0 0 1.38h2.071v5.542h-19.33v-5.523h2.187a.69.69 0 1 0 0-1.38h-2.187v-5.523c0-.76-.62-1.38-1.38-1.38H9.757c-.76 0-1.38.62-1.38 1.38v5.523H4.234v-8.26a4.81 4.81 0 0 0 3.29-.939l1.82-1.364a.684.684 0 0 1 .413-.138zm13.807 3.797c-.76 0-1.38.62-1.38 1.38v5.489c0 .76.62 1.38 1.38 1.38h8.284c.76 0 1.38-.62 1.38-1.38v-5.488c0-.76-.62-1.38-1.38-1.38h-8.284zm-13.807 1.38h6.903v12.392H9.758V26.193zm13.807 0h8.284v5.489h-8.284v-5.488zm-8.975 4.833a.69.69 0 0 0-.69.69v1.381a.69.69 0 1 0 1.38 0v-1.38a.69.69 0 0 0-.69-.69zM4.235 33.097h4.142v5.522H4.235v-5.523zm2.071 1.38a.69.69 0 0 0-.69.69v1.381a.69.69 0 1 0 1.38 0v-1.38a.69.69 0 0 0-.69-.69zm14.498 0a.69.69 0 0 0-.69.69v1.381a.69.69 0 1 0 1.38 0v-1.38a.69.69 0 0 0-.69-.69zm3.451 0a.69.69 0 0 0-.69.69v1.381a.69.69 0 1 0 1.38 0v-1.38a.69.69 0 0 0-.69-.69zm3.452 0a.69.69 0 0 0-.69.69v1.381a.69.69 0 1 0 1.38 0v-1.38a.69.69 0 0 0-.69-.69zm3.452 0a.69.69 0 0 0-.69.69v1.381a.69.69 0 1 0 1.38 0v-1.38a.69.69 0 0 0-.69-.69zm3.452 0a.69.69 0 0 0-.69.69v1.381a.69.69 0 1 0 1.38 0v-1.38a.69.69 0 0 0-.69-.69z"/></defs></svg>