<svg width="48" height="43" viewBox="0 0 48 43" version="1.1" xmlns="http://www.w3.org/2000/svg" xmlns:xlink="http://www.w3.org/1999/xlink"><title>Vector</title><desc>Created using Figma</desc><g id="Canvas" transform="translate(-17176 -1466)"><g id="Vector"><use xlink:href="#path0_fill" transform="translate(17176 1466)" fill="#717D83"/></g></g><defs><path id="path0_fill" d="M 2.4 0C 1.07812 0 0 1.07812 0 2.4L 0 28C 0 29.3219 1.07812 30.4 2.4 30.4L 8.11563 30.4C 8.16562 31.2563 8.025 33.0688 6.5125 35.5875C 6.35 35.8625 6.36562 36.2094 6.55 36.4656C 6.70312 36.6781 6.94688 36.8 7.2 36.8C 7.25625 36.8 7.31562 36.7938 7.375 36.7812C 13.5531 35.4094 15.8531 31.7906 16.525 30.4L 22.4 30.4L 22.4 34.4C 22.4 35.7219 23.4781 36.8 24.8 36.8L 34.5875 36.8C 35.0687 38.2719 36.6906 41.7063 41.4875 42.3906C 41.525 42.3969 41.5625 42.4 41.6 42.4C 41.8438 42.4 42.075 42.2875 42.2281 42.0938C 42.4062 41.8688 42.45 41.5688 42.3438 41.3031C 41.3812 38.9 41.3531 37.4625 41.425 36.8L 45.6 36.8C 46.9219 36.8 48 35.7219 48 34.4L 48 16.8C 48 15.4781 46.9219 14.4 45.6 14.4L 41.6 14.4L 41.6 2.4C 41.6 1.07812 40.5219 0 39.2 0L 2.4 0ZM 2.4 1.6L 39.2 1.6C 39.6406 1.6 40 1.95938 40 2.4L 40 28C 40 28.4406 39.6406 28.8 39.2 28.8L 16 28.8C 15.6562 28.8 15.35 29.0188 15.2406 29.3469C 15.2281 29.3875 13.9781 32.9625 8.7625 34.7375C 10.225 31.4531 9.59062 29.4438 9.55937 29.3469C 9.45 29.0188 9.14375 28.8 8.8 28.8L 2.4 28.8C 1.95938 28.8 1.6 28.4406 1.6 28L 1.6 2.4C 1.6 1.95938 1.95938 1.6 2.4 1.6ZM 8.8 11.2C 8.35625 11.2 8 11.5594 8 12C 8 12.4406 8.35625 12.8 8.8 12.8L 23.2 12.8C 23.6438 12.8 24 12.4406 24 12C 24 11.5594 23.6438 11.2 23.2 11.2L 8.8 11.2ZM 26.4 11.2C 25.9563 11.2 25.6 11.5594 25.6 12C 25.6 12.4406 25.9563 12.8 26.4 12.8L 29.6 12.8C 30.0438 12.8 30.4 12.4406 30.4 12C 30.4 11.5594 30.0438 11.2 29.6 11.2L 26.4 11.2ZM 8.8 16C 8.35625 16 8 16.3594 8 16.8C 8 17.2406 8.35625 17.6 8.8 17.6L 26.4 17.6C 26.8438 17.6 27.2 17.2406 27.2 16.8C 27.2 16.3594 26.8438 16 26.4 16L 8.8 16ZM 41.6 16L 45.6 16C 46.0406 16 46.4 16.3594 46.4 16.8L 46.4 34.4C 46.4 34.8406 46.0406 35.2 45.6 35.2L 40.8 35.2C 40.4969 35.2 40.2219 35.3719 40.0844 35.6406C 39.9969 35.8156 39.3531 37.2719 40.3594 40.5031C 36.6406 39.3313 36.0156 36.0219 35.9875 35.8688C 35.925 35.4844 35.5906 35.2 35.2 35.2L 24.8 35.2C 24.3594 35.2 24 34.8406 24 34.4L 24 30.4L 39.2 30.4C 40.5219 30.4 41.6 29.3219 41.6 28L 41.6 16ZM 4.8 24C 4.35625 24 4 24.3594 4 24.8L 4 26.4C 4 26.8406 4.35625 27.2 4.8 27.2C 5.24375 27.2 5.6 26.8406 5.6 26.4L 5.6 24.8C 5.6 24.3594 5.24375 24 4.8 24ZM 8.8 24C 8.35625 24 8 24.3594 8 24.8L 8 26.4C 8 26.8406 8.35625 27.2 8.8 27.2C 9.24375 27.2 9.6 26.8406 9.6 26.4L 9.6 24.8C 9.6 24.3594 9.24375 24 8.8 24ZM 12.8 24C 12.3563 24 12 24.3594 12 24.8L 12 26.4C 12 26.8406 12.3563 27.2 12.8 27.2C 13.2438 27.2 13.6 26.8406 13.6 26.4L 13.6 24.8C 13.6 24.3594 13.2438 24 12.8 24ZM 16.8 24C 16.3563 24 16 24.3594 16 24.8L 16 26.4C 16 26.8406 16.3563 27.2 16.8 27.2C 17.2437 27.2 17.6 26.8406 17.6 26.4L 17.6 24.8C 17.6 24.3594 17.2437 24 16.8 24ZM 20.8 24C 20.3563 24 20 24.3594 20 24.8L 20 26.4C 20 26.8406 20.3563 27.2 20.8 27.2C 21.2437 27.2 21.6 26.8406 21.6 26.4L 21.6 24.8C 21.6 24.3594 21.2437 24 20.8 24ZM 24.8 24C 24.3563 24 24 24.3594 24 24.8L 24 26.4C 24 26.8406 24.3563 27.2 24.8 27.2C 25.2437 27.2 25.6 26.8406 25.6 26.4L 25.6 24.8C 25.6 24.3594 25.2437 24 24.8 24ZM 28.8 24C 28.3563 24 28 24.3594 28 24.8L 28 26.4C 28 26.8406 28.3563 27.2 28.8 27.2C 29.2437 27.2 29.6 26.8406 29.6 26.4L 29.6 24.8C 29.6 24.3594 29.2437 24 28.8 24ZM 32.8 24C 32.3563 24 32 24.3594 32 24.8L 32 26.4C 32 26.8406 32.3563 27.2 32.8 27.2C 33.2438 27.2 33.6 26.8406 33.6 26.4L 33.6 24.8C 33.6 24.3594 33.2438 24 32.8 24ZM 36.8 24C 36.3563 24 36 24.3594 36 24.8L 36 26.4C 36 26.8406 36.3563 27.2 36.8 27.2C 37.2438 27.2 37.6 26.8406 37.6 26.4L 37.6 24.8C 37.6 24.3594 37.2438 24 36.8 24Z"/></defs></svg>