<svg xmlns="http://www.w3.org/2000/svg" width="63" height="63" fill="none"><path fill="#005992" d="M48 63l1.7-5.3H24.2a4 4 0 0 1-3.9-3.9V40.5h2v13.3c0 1 .9 1.9 2 1.9h28.3l-1 2.7 4.7-2.7H59a2 2 0 0 0 1.9-1.9V37.3c0-1-.9-1.9-2-1.9H37.7v-2h21.5c2.1 0 3.9 1.7 3.9 3.9v16.5a4 4 0 0 1-4 3.9h-2.2L48 63z"/><path fill="#009EE3" d="M23.4 23.3h15.2v14.3c0 2.1-1.7 3.9-3.9 3.9h-1.2l2 5-9-5H3.8a4 4 0 0 1-3.9-3.9V21.1a4 4 0 0 1 4-3.9h17.3v4l2 2z"/><path fill="#005992" d="M48 29.6l1.7-5.3H24.2a4 4 0 0 1-3.9-3.9V3.9a4 4 0 0 1 4-3.9H59a4 4 0 0 1 4 3.9v16.5a4 4 0 0 1-4 3.9h-2.2L48 29.6zM24.2 2c-1 0-1.8.9-1.8 1.9v16.5c0 1 .8 1.9 1.8 1.9h28.4l-1 2.8 4.7-2.8H59a2 2 0 0 0 1.9-1.9V3.9c0-1-.9-1.9-2-1.9H24.3z"/><path fill="#005992" d="M58 6H25.3v2.1h32.5v-2zm0 5.1H25.3v2h32.5v-2zm-5.2 5.1H25.4v2h27.4v-2zm5.2 0h-2.1v2h2v-2z"/><path fill="#fff" d="M18.3 23.3H5v2h13.2v-2zm15.2 5H5.1v2h28.4v-2zm-5 5.1H5v2h23.4v-2zm5 0h-2v2h2v-2z"/><path fill="#005992" d="M58 39.5H41.6v2h16.2v-2zm0 5H38.5v2H58v-2zm-5.2 5.1H25.4v2h27.4v-2zm5.2 0h-2.1v2h2v-2z"/></svg>