<svg width="132" height="146" viewBox="0 0 132 146" fill="none" xmlns="http://www.w3.org/2000/svg"><path d="M131.009 92.5204C132.485 108.331 116.461 147.118 76.8297 145.431C53.3647 144.433 29.7406 147.453 8.10827 101.163C-13.5241 54.8725 19.28 36.2326 32.5601 46.3527C45.8401 56.4727 70.058 74.39 97.2778 74.39C117.094 74.39 129.533 76.7098 131.009 92.5204Z" fill="url(#paint0_linear)"/><path d="M85.6262 109.07C85.6262 109.07 82.633 115.44 78.993 113.793C75.4521 112.192 75.5772 106.267 74.7836 106.275C73.8477 106.284 74.3308 114.107 70.3931 114.979C67.055 115.716 61.3491 113.279 56.7861 110.265C52.7837 107.655 49.644 104.546 49.7863 102.734C44.2658 104.585 36.2235 107.24 32.1335 109.463C26.5151 112.517 24.5503 118.204 22.332 124.645C38.3491 142.642 52.0895 144.167 65.4859 144.903C82.6349 145.845 100.349 144.338 108.724 135.633C109.481 124.699 104.027 116.997 102.274 115.617C97.7905 112.088 90.9655 111.084 85.6262 109.07Z" fill="#003A69"/><path d="M93.8887 19.6618L93.8973 19.6876C94.4753 20.0758 94.8764 20.3734 95.0705 20.5373C100.902 24.4622 105.927 35.9221 106.358 41.2186C106.604 44.2119 105.996 47.1966 105.232 50.1036C120.233 34.2659 103.58 12.9204 93.8887 19.6618Z" fill="#EE7C2D"/><path d="M107.198 80.3553C107.198 80.3553 104.015 82.1841 101.613 79.9413C100.634 79.0269 99.9653 77.5475 99.2149 76.3398C94.3583 82.1453 92.6244 83.5427 89.2473 87.9636C88.5874 88.8263 87.893 89.5422 87.1641 90.1331C89.092 91.0389 91.5721 91.716 94.699 91.7204C107.63 91.7247 107.198 80.3553 107.198 80.3553Z" fill="#EE7C2D"/><path d="M89.2473 87.9628C88.5874 88.8254 87.893 89.5414 87.1641 90.1323C87.8326 90.4429 88.5658 90.7318 89.3681 90.9691C96.282 86.9234 98.6757 82.5456 100.901 79.121C100.526 78.5516 99.6419 77.1887 99.1847 76.3735C94.354 82.1445 92.6201 83.5505 89.2473 87.9628Z" fill="#DA6622"/><path d="M60.5391 9.56603C60.5391 9.56603 62.3247 2.55724 56.4373 0.439508C50.5499 -1.67822 36.7998 4.11858 34.7467 12.21C32.6204 20.5903 35.342 25.9472 38.9132 28.1684C42.4844 30.3897 60.5391 9.56603 60.5391 9.56603Z" fill="#EE7C2D"/><path d="M53.1601 67.5234C53.1601 67.5234 51.0079 69.6282 47.8809 68.1186C48.696 69.9819 50.8353 73.868 54.9112 75.1619C54.5273 72.4749 53.958 69.8784 53.1687 67.5407C53.1644 67.5364 53.1601 67.5234 53.1601 67.5234Z" fill="#DA6622"/><path d="M38.7825 20.1758C38.7825 20.1758 35.2199 23.0311 37.1608 26.7705C37.3765 26.9387 43.0741 25.8432 47.5123 21.5948L38.7825 20.1758Z" fill="#DA6622"/><path d="M53.1595 67.5271C53.1595 67.5271 50.6277 70.0114 47.0608 67.6565C37.2053 61.1523 42.1611 43.9732 50.714 50.8742C50.714 50.8742 44.0718 35.8215 58.2317 22.7398C72.3916 9.65822 93.2109 19.2894 95.0699 20.5402C100.901 24.4651 105.926 35.925 106.357 41.2215C106.845 47.1908 103.968 52.841 103.938 56.2181C103.916 58.6378 107.293 66.5523 100.25 75.1009C94.5868 81.9716 92.8573 83.2483 89.2515 87.9668C84.3648 94.3632 77.4034 93.0304 70.3472 88.3248C59.3445 80.9926 53.1595 67.5271 53.1595 67.5271Z" fill="#FFD9BA"/><path d="M51.1529 58.7723C50.8855 57.8234 50.1997 57.1463 49.3156 56.6977C48.5435 56.3138 47.7973 56.1197 46.9692 56.0162C46.6414 55.9774 46.3309 56.1931 46.2576 56.5209C46.1799 56.8702 46.4042 57.2153 46.7493 57.2886L46.7967 57.2972C47.806 57.5172 49.3544 58.1469 49.501 59.1648C49.501 59.1734 49.501 59.1863 49.501 59.1993C49.4881 59.1863 49.4751 59.1734 49.4622 59.1648C48.9748 58.8068 48.2934 58.9146 47.9397 59.3977C46.6414 61.261 49.0956 63.2105 50.5146 61.7225C51.2004 60.9806 51.4074 59.6953 51.1529 58.7723Z" fill="#EA9868"/><path d="M95.6467 17.2969C95.4957 18.3665 95.1895 19.3629 94.7582 20.2902C89.5134 31.5862 65.4291 33.0354 65.4291 33.0354C64.4629 30.7236 64.6268 27.4197 65.8518 24.4221C65.6706 24.5472 59.904 28.6404 58.9853 36.7792C58.1658 44.0252 50.7171 50.8701 50.7171 50.8701C47.2839 48.1011 44.4286 49.2095 42.8802 51.9483C35.2288 48.1787 30.6914 33.0915 41.2283 21.0364C62.2201 -2.97467 97.0829 7.23444 95.6467 17.2969Z" fill="#EE7C2D"/><path d="M79.7457 97.3042C79.5688 100.388 79.6681 103.097 79.6681 103.097C79.6681 103.097 78.1585 104.822 74.5484 104.766C67.6992 104.667 55.0316 96.1957 55.0316 96.1957C55.9891 87.5824 55.9676 75.8077 53.1641 67.5352C53.3538 67.9449 59.5173 81.1085 70.3431 88.3243C73.7807 90.6145 77.188 92.1069 80.3538 92.2967C80.026 93.8235 79.8449 95.6221 79.7457 97.3042Z" fill="#FFD9BA"/><path d="M80.3538 92.2967C77.188 92.1069 73.7807 90.6145 70.3431 88.3243C59.5173 81.1085 53.3538 67.9449 53.1641 67.5352C53.1813 67.5869 53.1943 67.6387 53.2115 67.6904C54.0008 70.0497 54.5572 72.6936 54.9109 75.165C58.3096 81.0222 68.3807 96.5882 79.7457 97.3042C79.8406 95.7213 80.0217 93.8407 80.3538 92.2967Z" fill="#FFAD85"/><path d="M87.2159 61.7535C84.5633 57.4188 85.1111 51.0915 86.1635 46.1013V46.0969C86.211 45.8727 86.0729 45.6527 85.853 45.5923C85.6244 45.5319 85.3871 45.6699 85.3268 45.8985C83.9034 51.2554 83.0969 57.7423 85.7193 62.6032C86.5733 64.2292 87.8801 65.6568 89.4587 66.6704C89.8641 68.5854 88.264 70.4746 85.9047 70.3711H85.8961C85.6848 70.3624 85.495 70.5091 85.4518 70.7204C85.4044 70.9533 85.5597 71.1819 85.7926 71.2294C87.3065 71.527 88.8031 71.1086 89.8943 70.108C90.455 69.5904 90.8993 68.9219 91.1494 68.1671C92.4779 64.1818 89.6399 65.8164 87.2159 61.7535Z" fill="#EA9868"/><path d="M78.9938 113.797C75.4527 112.197 75.5778 106.271 74.7842 106.279C73.8482 106.288 74.3313 114.112 70.3934 114.983C64.1222 116.372 49.4878 106.547 49.7898 102.738L55.0302 96.1953C55.0302 96.1953 67.6978 104.666 74.547 104.765C78.157 104.822 79.6666 103.096 79.6666 103.096L85.6273 109.074C85.6273 109.074 82.634 115.445 78.9938 113.797Z" fill="#fff"/><path d="M38.7832 20.1752C44.3126 12.7782 49.2727 8.53846 60.6808 5.6875C61.4874 6.92967 62.0179 7.18415 63.838 7.78367C54.1982 12.0234 48.1599 15.6206 40.0728 23.6343C39.814 21.6417 40.0167 21.5813 38.7832 20.1752Z" fill="#003A69"/><path d="M64.1624 47.4721C66.03 44.9532 72.1675 43.2927 75.5662 47.5799C77.2958 49.7623 77.0025 53.0748 77.0025 53.0748C77.0025 53.0748 74.2766 50.2325 70.6795 51.0218C64.3824 52.4063 60.3453 52.609 64.1624 47.4721Z" fill="#EEAB84"/><path d="M77.2222 52.824L77.1877 52.7895C73.0212 48.8301 69.6225 50.4561 66.4696 50.9823C63.7567 51.4783 62.9847 50.1844 62.4153 51.198C62.1997 51.5819 62.3334 52.0692 62.7216 52.2849C66.7543 54.5536 70.0409 49.6323 75.4064 52.4703C69.6225 51.901 70.5239 54.0231 71.296 53.6608L71.3046 53.6565C73.7588 52.4962 76.8642 53.691 77.2394 53.2942C77.3602 53.1648 77.3559 52.9534 77.2222 52.824Z" fill="#000"/><path d="M103.2 51.8973C102.89 54.6836 100.155 56.2449 97.0713 56.6417C95.2124 56.8833 93.224 56.7021 91.5721 56.1026C89.8986 55.4988 88.5745 54.4766 88.0656 53.0403C88.0656 53.036 88.0655 53.036 88.0699 53.0317C91.24 43.8707 101.221 45.2681 103.079 51.4445C103.127 51.5911 103.166 51.7421 103.2 51.8973Z" fill="#fff"/><path d="M87.8369 52.4959C91.3952 44.4779 99.7023 45.1594 103.476 50.0677C103.774 50.4558 103.701 51.0122 103.312 51.3141C102.924 51.6118 102.368 51.5384 102.066 51.1503C102.057 51.1373 102.049 51.1244 102.04 51.1114L102.036 51.1071C99.7109 47.7127 94.6732 46.4878 91.1623 49.4207C90.0711 50.3221 89.2301 51.5255 88.5659 52.8237L88.5572 52.841C88.458 53.0394 88.2165 53.117 88.0181 53.0135C87.8326 52.9186 87.755 52.69 87.8369 52.4959Z" fill="#000"/><path d="M99.1411 52.1731C99.1411 54.0493 98.3173 55.6969 97.0708 56.6414C95.2119 56.883 93.2235 56.7018 91.5716 56.1023C90.6702 55.1275 90.1008 53.7301 90.1008 52.1731C90.1008 51.414 90.2043 50.7368 90.3941 50.1459C91.4724 46.7256 95.2679 46.0053 97.4892 47.9894C98.4682 48.8606 99.1411 50.2537 99.1411 52.1731Z" fill="#000"/><path d="M76.6224 41.5395C73.2021 39.7193 67.9272 38.5677 64.067 40.2197C61.9406 41.134 60.638 42.8765 60.6812 42.8334C60.1593 43.4674 59.1845 42.7342 59.646 42.057C63.709 36.1524 71.8435 36.4371 77.8473 38.9991C78.5633 39.3053 78.8997 40.1334 78.5935 40.8537C78.2872 41.5697 77.4591 41.9061 76.7388 41.5999C76.7 41.5826 76.6655 41.5654 76.631 41.5481L76.6224 41.5395Z" fill="#000"/><path d="M104.579 40.6942C104.717 41.0263 104.558 41.4016 104.23 41.5396C103.915 41.669 103.553 41.5267 103.402 41.2291C100.339 35.0613 95.4915 35.4452 91.4545 40.0257L91.4458 40.0386C90.9887 40.5562 90.1994 40.608 89.6818 40.1508C87.0077 37.7958 99.645 28.7513 104.579 40.6942Z" fill="#000"/><path d="M76.4155 74.831C78.7446 75.4779 78.3995 75.741 83.351 74.8784C84.1618 74.7361 85.0115 75.8144 85.9475 75.8575C86.6807 75.892 87.7201 75.0164 88.4879 75.2062C91.6494 75.9869 92.085 75.4736 93.3617 75.3097C94.1596 75.2062 94.4313 75.8489 93.793 76.3276C92.6284 77.2032 91.6709 79.3554 90.3382 81.1583C89.5446 82.2279 88.9149 83.2458 85.9475 83.1423C82.9844 83.0388 82.2252 83.1509 79.426 79.7867C77.8992 77.9493 76.9633 77.449 75.4537 76.2457C74.5781 75.5469 75.1173 74.4169 76.4155 74.831Z" fill="#C30F5A"/><path d="M79.3058 76.8204C83.0927 77.8383 87.1082 78.3041 90.343 77.5795C90.4854 77.5493 90.5975 77.7046 90.5112 77.8254C89.9721 78.5845 88.4064 80.3529 85.5512 80.1846C82.8296 80.0251 80.2159 78.0108 79.1592 77.0922C79.0298 76.98 79.1419 76.773 79.3058 76.8204Z" fill="#fff"/><path opacity=".35" d="M69.3459 66.1232C76.3492 66.1232 82.0264 60.446 82.0264 53.4427C82.0264 46.4395 76.3492 40.7622 69.3459 40.7622C62.3427 40.7622 56.6654 46.4395 56.6654 53.4427C56.6654 60.446 62.3427 66.1232 69.3459 66.1232Z" fill="#fff"/><path opacity=".35" d="M96.9022 66.1226C102.288 66.1226 106.654 60.5651 106.654 53.7095C106.654 46.8539 102.288 41.2964 96.9022 41.2964C91.5164 41.2964 87.1503 46.8539 87.1503 53.7095C87.1503 60.5651 91.5164 66.1226 96.9022 66.1226Z" fill="#fff"/><path d="M96.9023 40.7575C91.8776 40.7575 87.6852 45.3164 86.7881 51.3203C85.1232 50.1816 83.4411 50.5568 82.3629 51.165C81.2803 44.9584 75.8587 40.2227 69.3459 40.2227C62.9323 40.2227 57.5755 44.8118 56.3764 50.8803L50.7867 50.1298C50.4891 50.091 50.2216 50.2981 50.1785 50.5914C50.1397 50.8846 50.3467 51.1564 50.64 51.1995L56.2125 51.9457C56.1565 52.4374 56.1263 52.9377 56.1263 53.4423C56.1263 60.7314 62.0568 66.662 69.3459 66.662C76.6351 66.662 82.5656 60.7314 82.5656 53.4423C82.5656 53.0757 82.5483 52.7134 82.5181 52.3554C83.0141 51.9845 84.7998 50.889 86.6544 52.5883C86.6285 52.9592 86.6113 53.3302 86.6113 53.7097C86.6113 60.8522 91.2263 66.662 96.9023 66.662C102.578 66.662 107.193 60.8522 107.193 53.7097C107.193 46.5672 102.578 40.7575 96.9023 40.7575ZM69.3459 65.5794C62.652 65.5794 57.2045 60.1319 57.2045 53.438C57.2045 46.7441 62.652 41.2966 69.3459 41.2966C76.0398 41.2966 81.4873 46.7441 81.4873 53.438C81.4873 60.1362 76.0398 65.5794 69.3459 65.5794ZM96.9023 65.5794C91.8215 65.5794 87.6895 60.2527 87.6895 53.7054C87.6895 47.1581 91.8215 41.8314 96.9023 41.8314C101.901 41.8314 105.977 46.9856 106.111 53.3862L104.092 53.0369L103.907 54.0979L106.094 54.4775C105.783 60.6711 101.78 65.5794 96.9023 65.5794Z" fill="#000"/><defs><linearGradient id="paint0_linear" x1="-3.27" y1="34.035" x2="130.73" y2="139.035" gradientUnits="userSpaceOnUse"><stop stop-color="#FFE3B4"/><stop offset="1" stop-color="#EDFAFF"/></linearGradient></defs></svg>