<svg version="1.1" id="Layer_1" xmlns="http://www.w3.org/2000/svg" xmlns:xlink="http://www.w3.org/1999/xlink" x="0" y="0" viewBox="0 0 48 48" xml:space="preserve" enable-background="new 0 0 48 48"><style type="text/css">.st0{fill:#717d83}</style><g id="surface1"><path class="st0" d="M24,0C10.8,0,0,10.8,0,24s10.8,24,24,24s24-10.8,24-24S37.2,0,24,0z M24,1.7c12.3,0,22.3,10,22.3,22.3 S36.3,46.3,24,46.3S1.7,36.3,1.7,24S11.7,1.7,24,1.7z M23.7,5C18.8,5,14.1,7,10.6,10.5C3.1,18,3.1,30,10.6,37.4 c0.2,0.2,0.3,0.2,0.6,0.2s0.4-0.1,0.6-0.2c0.3-0.3,0.3-0.8,0-1.2C5,29.5,5,18.5,11.8,11.8c3.9-4,9.5-5.7,15.1-4.9 c0.4,0.1,0.9-0.2,0.9-0.7s-0.2-0.9-0.7-0.9C25.9,5,24.7,5,23.7,5z M30.4,6.1c-0.3,0-0.7,0.2-0.7,0.5c-0.2,0.4,0.1,0.9,0.5,1.1 c0.6,0.2,1.2,0.5,1.7,0.7c0.1,0.1,0.2,0.1,0.4,0.1c0.3,0,0.6-0.2,0.7-0.5c0.2-0.4,0-0.9-0.3-1.1c-0.7-0.3-1.2-0.6-1.9-0.8 C30.5,6.1,30.5,6.1,30.4,6.1z M35.1,8.9c-0.2,0-0.4,0.2-0.6,0.3c-0.2,0.3-0.2,0.9,0.2,1.2c0.6,0.4,1.1,0.9,1.6,1.4 c6.8,6.8,6.8,17.8,0,24.6c-0.3,0.3-0.3,0.8,0,1.2c0.2,0.2,0.4,0.2,0.6,0.2c0.2,0,0.4-0.1,0.6-0.2c7.4-7.4,7.4-19.5,0-26.9 C36.8,10,36.2,9.5,35.7,9C35.6,8.9,35.3,8.8,35.1,8.9z M18.2,14.9c-0.9,0-1.7,0.7-1.7,1.7v14.9c0,0.9,0.7,1.7,1.7,1.7h3.3 c0.9,0,1.7-0.7,1.7-1.7V16.6c0-0.9-0.7-1.7-1.7-1.7H18.2z M26.5,14.9c-0.9,0-1.7,0.7-1.7,1.7v14.9c0,0.9,0.7,1.7,1.7,1.7h3.3 c0.9,0,1.7-0.7,1.7-1.7V16.6c0-0.9-0.7-1.7-1.7-1.7H26.5z M18.2,16.6h3.3v14.9h-3.3V16.6z M26.5,16.6h3.3v14.9h-3.3V16.6z M16.1,37.6c-0.3,0-0.7,0.1-0.8,0.4l-0.8,1.4c-0.2,0.4-0.1,0.9,0.3,1.2c0.2,0.1,0.2,0.1,0.4,0.1c0.2,0,0.6-0.2,0.7-0.4l0.8-1.4 c0.2-0.4,0.1-0.9-0.3-1.2C16.2,37.7,16.1,37.6,16.1,37.6z M31.9,37.6c-0.1,0-0.2,0.1-0.3,0.1c-0.4,0.2-0.5,0.7-0.3,1.2l0.8,1.4 c0.2,0.2,0.4,0.4,0.7,0.4c0.2,0,0.2,0,0.4-0.1c0.4-0.2,0.5-0.7,0.3-1.2L32.8,38C32.6,37.7,32.3,37.5,31.9,37.6z M28.3,39.1 c-0.1,0-0.2,0-0.3,0c-0.4,0.1-0.7,0.6-0.6,1l0.4,1.6c0.1,0.3,0.4,0.6,0.8,0.6c0.1,0,0.2,0,0.2,0c0.4-0.1,0.7-0.6,0.6-1L29,39.8 C28.9,39.5,28.6,39.2,28.3,39.1z M19.7,39.1c-0.3,0.1-0.6,0.2-0.7,0.6l-0.4,1.7c-0.1,0.4,0.2,0.9,0.6,1c0.1,0,0.2,0,0.2,0 c0.3,0,0.7-0.2,0.8-0.6l0.4-1.6c0.1-0.4-0.2-0.9-0.6-1C19.9,39.1,19.8,39.1,19.7,39.1z M24,39.7c-0.5,0-0.8,0.3-0.8,0.8v1.7 c0,0.5,0.3,0.8,0.8,0.8s0.8-0.3,0.8-0.8v-1.7C24.8,40.1,24.5,39.7,24,39.7z"/></g></svg>