<svg width="70" height="70" viewBox="0 0 70 70" version="1.1" xmlns="http://www.w3.org/2000/svg" xmlns:xlink="http://www.w3.org/1999/xlink">
<g id="Canvas" fill="none">
<g id="calculator">
<g id="Vector">
<path d="M 42.035 18.0645C 41.6816 16.9129 41.221 15.8008 40.661 14.7418L 44.4658 10.9369L 36.4824 2.95355L 32.6776 6.75839C 31.6185 6.19726 30.5064 5.73774 29.3548 5.38435L 29.3548 0L 18.0645 0L 18.0645 5.38435C 16.9129 5.73774 15.8008 6.19839 14.7418 6.75839L 10.9369 2.95355L 2.95355 10.9369L 6.75839 14.7418C 6.19839 15.8008 5.73887 16.914 5.38435 18.0645L 0 18.0645L 0 29.3548L 5.64516 29.3548L 5.64516 25.9677C 5.64516 24.7202 6.65564 23.7097 7.90322 23.7097L 12.4194 23.7097C 12.4194 17.474 17.474 12.4194 23.7097 12.4194C 29.9453 12.4194 35 17.474 35 23.7097L 39.5161 23.7097C 40.7637 23.7097 41.7742 24.7202 41.7742 25.9677L 41.7742 29.3548L 47.4193 29.3548L 47.4193 18.0645L 42.035 18.0645Z" transform="translate(11.29 0)" fill="url(#paint0_linear)"/>
</g>
<g id="Group">
<g id="Vector_2">
<path d="M 35 11.2903L 31.5553 11.2903C 30.9829 4.97 25.6606 0 19.1935 0C 12.7265 0 7.40419 4.97 6.83177 11.2903L 3.3871 11.2903C 1.51968 11.2903 0 12.81 0 14.6774L 0 55.3226C 0 57.19 1.51968 58.7097 3.3871 58.7097L 35 58.7097C 36.8674 58.7097 38.3871 57.19 38.3871 55.3226L 38.3871 14.6774C 38.3871 12.81 36.8674 11.2903 35 11.2903ZM 36.129 55.3226C 36.129 55.9458 35.6221 56.4516 35 56.4516L 3.3871 56.4516C 2.765 56.4516 2.25806 55.9458 2.25806 55.3226L 2.25806 14.6774C 2.25806 14.0542 2.765 13.5484 3.3871 13.5484L 24.8387 13.5484L 24.8387 11.2903L 9.09887 11.2903C 9.66339 6.21758 13.9729 2.25806 19.1935 2.25806C 24.4142 2.25806 28.7248 6.21758 29.2882 11.2903L 27.0968 11.2903L 27.0968 13.5484L 35 13.5484C 35.6221 13.5484 36.129 14.0542 36.129 14.6774L 36.129 55.3226Z" transform="translate(15.8064 11.2903)" fill="#015486"/>
</g>
<g id="Rectangle">
<rect width="26.25" height="7.77778" transform="translate(21.3887 28.1945)" fill="#B2E2F7"/>
</g>
<g id="Vector_3">
<path d="M 0 11.2903L 29.3548 11.2903L 29.3548 0L 0 0L 0 11.2903ZM 2.25806 2.25806L 27.0968 2.25806L 27.0968 9.03226L 2.25806 9.03226L 2.25806 2.25806Z" transform="translate(20.3228 27.0968)" fill="#015486"/>
</g>
<g id="Vector_4">
<path d="M 2.25806 0L 0 0L 0 2.25806L 2.25806 2.25806L 2.25806 0Z" transform="translate(22.5808 40.6452)" fill="#015486"/>
</g>
<g id="Vector_5">
<path d="M 2.25806 0L 0 0L 0 2.25806L 2.25806 2.25806L 2.25806 0Z" transform="translate(27.0964 40.6452)" fill="#015486"/>
</g>
<g id="Vector_6">
<path d="M 6.77419 0L 0 0L 0 2.25806L 6.77419 2.25806L 6.77419 0Z" transform="translate(40.6453 40.6452)" fill="#015486"/>
</g>
<g id="Vector_7">
<path d="M 0 20.3226L 29.3548 20.3226L 29.3548 0L 0 0L 0 20.3226ZM 2.25806 11.2903L 9.03226 11.2903L 9.03226 18.0645L 2.25806 18.0645L 2.25806 11.2903ZM 18.0645 11.2903L 18.0645 18.0645L 11.2903 18.0645L 11.2903 11.2903L 18.0645 11.2903ZM 11.2903 9.03226L 11.2903 2.25806L 18.0645 2.25806L 18.0645 9.03226L 11.2903 9.03226ZM 20.3226 18.0645L 20.3226 11.2903L 27.0968 11.2903L 27.0968 18.0645L 20.3226 18.0645ZM 27.0968 9.03226L 20.3226 9.03226L 20.3226 2.25806L 27.0968 2.25806L 27.0968 9.03226ZM 9.03226 2.25806L 9.03226 9.03226L 2.25806 9.03226L 2.25806 2.25806L 9.03226 2.25806Z" transform="translate(20.3228 45.1613)" fill="#015486"/>
</g>
<g id="Vector_8">
<path d="M 6.35871 6.73242C 6.49645 6.74935 6.63193 6.77419 6.77419 6.77419C 8.64161 6.77419 10.1613 5.25452 10.1613 3.3871C 10.1613 1.51968 8.64161 0 6.77419 0C 4.90677 0 3.3871 1.51968 3.3871 3.3871C 3.3871 4.29597 3.75177 5.11903 4.33661 5.72758C 1.50726 10.8681 0 16.6747 0 22.5806C 0 25.366 0.328548 28.1389 0.976613 30.8226L 3.17145 30.2931C 2.56516 27.781 2.25806 25.1876 2.25806 22.5806C 2.25806 17.0213 3.6829 11.5602 6.35871 6.73242ZM 6.77419 2.25806C 7.39629 2.25806 7.90322 2.76387 7.90322 3.3871C 7.90322 4.01032 7.39629 4.51613 6.77419 4.51613C 6.1521 4.51613 5.64516 4.01032 5.64516 3.3871C 5.64516 2.76387 6.1521 2.25806 6.77419 2.25806Z" transform="translate(0 12.4193)" fill="#015486"/>
</g>
<g id="Vector_9">
<path d="M 11.2903 5.79984C 11.2903 3.85564 11.1289 1.90468 10.8116 9.81977e-07L 8.58403 0.370323C 8.8821 2.15419 9.03226 3.98097 9.03226 5.79984C 9.03226 11.8548 7.36016 17.7235 4.22371 22.8527C 3.95387 22.7827 3.67726 22.7353 3.3871 22.7353C 1.51968 22.7353 0 24.255 0 26.1224C 0 27.9898 1.51968 29.5095 3.3871 29.5095C 5.25452 29.5095 6.77419 27.9898 6.77419 26.1224C 6.77419 25.3671 6.51678 24.6761 6.0979 24.1127C 9.48613 18.6098 11.2903 12.3042 11.2903 5.79984ZM 3.3871 27.2514C 2.765 27.2514 2.25806 26.7456 2.25806 26.1224C 2.25806 25.4992 2.765 24.9934 3.3871 24.9934C 4.00919 24.9934 4.51613 25.4992 4.51613 26.1224C 4.51613 26.7456 4.00919 27.2514 3.3871 27.2514Z" transform="translate(58.71 29.2001)" fill="#015486"/>
</g>
<g id="Vector_10">
<path d="M 2.25806 0L 0 0L 0 2.25806L 2.25806 2.25806L 2.25806 0Z" transform="translate(6.77441 49.6775)" fill="#015486"/>
</g>
<g id="Vector_11">
<path d="M 2.25806 0L 0 0L 0 2.25806L 2.25806 2.25806L 2.25806 0Z" transform="translate(6.77441 54.1936)" fill="#015486"/>
</g>
<g id="Vector_12">
<path d="M 2.25806 0L 0 0L 0 2.25806L 2.25806 2.25806L 2.25806 0Z" transform="translate(6.77441 58.7097)" fill="#015486"/>
</g>
<g id="Vector_13">
<path d="M 2.25806 0L 0 0L 0 2.25806L 2.25806 2.25806L 2.25806 0Z" transform="translate(62.0964 9.03229)" fill="#015486"/>
</g>
<g id="Vector_14">
<path d="M 2.25806 0L 0 0L 0 2.25806L 2.25806 2.25806L 2.25806 0Z" transform="translate(62.0964 13.5484)" fill="#015486"/>
</g>
<g id="Vector_15">
<path d="M 2.25806 0L 0 0L 0 2.25806L 2.25806 2.25806L 2.25806 0Z" transform="translate(62.0964 18.0645)" fill="#015486"/>
</g>
<g id="Vector_16">
<path d="M 3.3871 6.77419C 5.25452 6.77419 6.77419 5.25452 6.77419 3.3871C 6.77419 1.51968 5.25452 0 3.3871 0C 1.51968 0 0 1.51968 0 3.3871C 0 5.25452 1.51968 6.77419 3.3871 6.77419ZM 3.3871 2.25806C 4.00919 2.25806 4.51613 2.76387 4.51613 3.3871C 4.51613 4.01032 4.00919 4.51613 3.3871 4.51613C 2.765 4.51613 2.25806 4.01032 2.25806 3.3871C 2.25806 2.76387 2.765 2.25806 3.3871 2.25806Z" transform="translate(59.8389 0)" fill="#015486"/>
</g>
<g id="Vector_17">
<path d="M 3.3871 0C 1.51968 0 0 1.51968 0 3.3871C 0 5.25452 1.51968 6.77419 3.3871 6.77419C 5.25452 6.77419 6.77419 5.25452 6.77419 3.3871C 6.77419 1.51968 5.25452 0 3.3871 0ZM 3.3871 4.51613C 2.765 4.51613 2.25806 4.01032 2.25806 3.3871C 2.25806 2.76387 2.765 2.25806 3.3871 2.25806C 4.00919 2.25806 4.51613 2.76387 4.51613 3.3871C 4.51613 4.01032 4.00919 4.51613 3.3871 4.51613Z" transform="translate(4.51636 63.2258)" fill="#015486"/>
</g>
</g>
</g>
</g>
<defs>

<linearGradient id="paint0_linear" x2="1" gradientUnits="userSpaceOnUse" gradientTransform="matrix(0 28.5974 -30.0272 0 38.7752 -0.264758)">
<stop stop-color="#41CFC8" stop-opacity="0.7"/>
<stop offset="1" stop-color="#24C4BC"/>
</linearGradient>

</defs>
</svg>

