<svg width="61" height="70" viewBox="0 0 61 70" fill="none" xmlns="http://www.w3.org/2000/svg"><path d="M23.9878 3.63139V11.2738L22.8455 11.2749H1.65582e-07L0.00228455 7.21381L11.3965 1.14865C14.2761 -0.383449 17.7133 -0.38232 20.5906 1.14865L23.3892 2.63784L23.9878 3.63139Z" transform="translate(9.13599 48.5627)" fill="url(#paint0_linear)"/><path d="M1.14227 2.25806C1.77314 2.25806 2.28455 1.75258 2.28455 1.12903C2.28455 0.505485 1.77314 0 1.14227 0C0.511414 0 0 0.505485 0 1.12903C0 1.75258 0.511414 2.25806 1.14227 2.25806Z" transform="translate(23.9873 35)" fill="#333"/><path d="M1.14227 2.25806C1.77314 2.25806 2.28455 1.75258 2.28455 1.12903C2.28455 0.505485 1.77314 0 1.14227 0C0.511414 0 0 0.505485 0 1.12903C0 1.75258 0.511414 2.25806 1.14227 2.25806Z" transform="translate(23.9873 39.5161)" fill="#333"/><path d="M1.14227 2.25806C1.77314 2.25806 2.28455 1.75258 2.28455 1.12903C2.28455 0.505485 1.77314 0 1.14227 0C0.511414 0 0 0.505485 0 1.12903C0 1.75258 0.511414 2.25806 1.14227 2.25806Z" transform="translate(23.9873 44.0322)" fill="#333"/><path d="M60.5405 50.8064H56.7219L59.4211 48.1374L52.9604 41.7516L50.2601 44.4195V40.6452H46.8332V39.3558C48.7991 38.8511 50.2601 37.0989 50.2601 35C50.2601 32.9011 48.7991 31.1489 46.8332 30.6442V5.89355C47.5289 5.27258 47.9755 4.38403 47.9755 3.3871C47.9755 1.51968 46.438 0 44.5487 0H5.71137C3.82205 0 2.28455 1.51968 2.28455 3.3871C2.28455 4.38403 2.73118 5.27258 3.42682 5.89355V30.6442C1.46097 31.1489 0 32.9011 0 35C0 37.0989 1.46097 38.8511 3.42682 39.3558V64.1065C2.73118 64.7274 2.28455 65.616 2.28455 66.6129C2.28455 68.4803 3.82205 70 5.71137 70H41.1219H43.4064H50.2601V66.2256L52.9604 68.8935L59.4211 62.5077L56.7219 59.8387H60.5405V50.8064ZM47.9755 35C47.9755 36.2453 46.9509 37.2581 45.691 37.2581C44.431 37.2581 43.4064 36.2453 43.4064 35C43.4064 33.7547 44.431 32.7419 45.691 32.7419C46.9509 32.7419 47.9755 33.7547 47.9755 35ZM44.5487 30.6442C42.5828 31.1489 41.1219 32.9011 41.1219 35C41.1219 37.0989 42.5828 38.8511 44.5487 39.3558V40.6452H41.1219V44.4195L40.2103 43.5185C39.0075 40.2568 36.6978 37.5482 33.664 35.8784L32.0671 35L33.6628 34.1227C38.2628 31.5915 41.123 26.7863 41.1264 21.5837L41.1402 6.77419H44.5487V30.6442ZM31.9597 48.1374L34.66 50.8064H31.9837H30.8414V51.9355V58.7097H11.409L11.417 48.4197C11.4205 44.0334 13.8295 39.9836 17.7075 37.8519L21.0978 35.9879C21.4599 35.7881 21.6849 35.411 21.6849 35.0011C21.6849 34.5913 21.4611 34.2142 21.0978 34.0144L17.7075 32.1503C13.8786 30.0447 11.4913 26.0671 11.4285 21.7452L25.13 24.8681L38.8316 21.7429C38.7688 26.066 36.3814 30.0424 32.5525 32.1481L29.1623 34.0121C28.8002 34.2119 28.5751 34.589 28.5751 34.9989C28.5751 35.4087 28.799 35.7858 29.1623 35.9856L32.5525 37.8497C34.6201 38.9866 36.2912 40.696 37.3924 42.7655L32.7673 47.3369L31.9597 48.1374ZM11.4068 60.9677H33.5178L31.9597 62.5077L32.6862 63.2258H11.4045L11.4068 60.9677ZM11.4159 19.4227L11.409 11.2903H38.8522L38.8453 19.4227L25.13 22.5513L11.4159 19.4227ZM38.8533 9.03226H11.4068L11.4045 6.77419H38.8545L38.8533 9.03226ZM5.71137 2.25806H44.5487C45.1792 2.25806 45.691 2.76387 45.691 3.3871C45.691 4.01032 45.1792 4.51613 44.5487 4.51613H39.999H10.2611H5.71137C5.08084 4.51613 4.5691 4.01032 4.5691 3.3871C4.5691 2.76387 5.08084 2.25806 5.71137 2.25806ZM2.28455 35C2.28455 33.7547 3.30917 32.7419 4.5691 32.7419C5.82903 32.7419 6.85365 33.7547 6.85365 35C6.85365 36.2453 5.82903 37.2581 4.5691 37.2581C3.30917 37.2581 2.28455 36.2453 2.28455 35ZM5.71137 39.3558C7.67723 38.8511 9.1382 37.0989 9.1382 35C9.1382 32.9011 7.67723 31.1489 5.71137 30.6442V6.77419H9.11992L9.13248 21.5826C9.13591 26.7852 11.9962 31.5903 16.5961 34.1216L18.193 35L16.5972 35.8773C11.9973 38.4086 9.13705 43.2137 9.13363 48.4163L9.11992 63.2258H5.71137V39.3558ZM5.71137 67.7419C5.08084 67.7419 4.5691 67.2361 4.5691 66.6129C4.5691 65.9897 5.08084 65.4839 5.71137 65.4839H10.2611H34.9707L37.2553 67.7419H5.71137ZM41.1219 67.7419H39.5878L41.1219 66.2256V67.7419ZM58.256 57.5806H54.5664L54.2969 58.3337C54.1895 58.634 54.0673 58.9242 53.9302 59.2087L53.5841 59.929L56.1919 62.5077L52.9616 65.7006L50.3526 63.1231L49.6238 63.4652C49.336 63.6006 49.0413 63.7226 48.7386 63.8276L47.9755 64.0952V67.7419H43.4064V64.0952L42.6445 63.8287C42.3407 63.7226 42.0471 63.6018 41.7593 63.4663L41.0305 63.1242L38.4215 65.7018L36.2524 63.5577L35.9165 63.2258L35.19 62.5077L37.7979 59.929L37.4517 59.2087C37.3147 58.9242 37.1913 58.6329 37.0851 58.3337L36.8155 57.5806H36.0079H33.126V53.0645H36.0079H36.8155L37.0851 52.3115C37.1925 52.0111 37.3147 51.721 37.4517 51.4365L37.7979 50.7161L35.19 48.1374L38.4204 44.9445L38.4284 44.9524L41.0294 47.5221L41.7581 47.18C42.046 47.0445 42.3407 46.9226 42.6434 46.8176L43.4064 46.55V42.9032H47.9755V46.55L48.7374 46.8165C49.0413 46.9226 49.3348 47.0434 49.6227 47.1789L50.3515 47.521L52.9604 44.9434L56.1908 48.1363L53.583 50.715L53.9291 51.4353C54.0661 51.7198 54.1895 52.0111 54.2957 52.3103L54.5664 53.0645H58.256V57.5806Z" fill="#015486"/><path d="M5.71137 0C2.56212 0 0 2.53242 0 5.64516C0 8.7579 2.56212 11.2903 5.71137 11.2903C8.86062 11.2903 11.4227 8.7579 11.4227 5.64516C11.4227 2.53242 8.86062 0 5.71137 0ZM5.71137 9.03226C3.82205 9.03226 2.28455 7.51258 2.28455 5.64516C2.28455 3.77774 3.82205 2.25806 5.71137 2.25806C7.60069 2.25806 9.13819 3.77774 9.13819 5.64516C9.13819 7.51258 7.60069 9.03226 5.71137 9.03226Z" transform="translate(39.9792 49.6775)" fill="#015486"/><defs><linearGradient id="paint0_linear" x2="1" gradientUnits="userSpaceOnUse" gradientTransform="translate(19.615 -0.101691) scale(15.1897 10.984) rotate(90)"><stop stop-color="#41CFC8" stop-opacity=".7"/><stop offset="1" stop-color="#24C4BC"/></linearGradient></defs></svg>