<svg xmlns="http://www.w3.org/2000/svg" xmlns:xlink="http://www.w3.org/1999/xlink" width="32" height="16"><use opacity=".54" transform="translate(.66)" xlink:href="#path0_fill"/><defs><path id="path0_fill" fill-rule="evenodd" d="M15.34 0C7.01 0 .6 7.34.6 7.34L0 8l.6.66s5.84 6.66 13.62 7.28a8.92 8.92 0 0 0 2.25 0c7.78-.62 13.62-7.28 13.62-7.28l.6-.66-.6-.66S23.68 0 15.34 0zm0 2c2.2 0 4.24.6 6 1.4a7 7 0 0 1-5.22 10.56h-.06l-.2.02-.52.02-.78-.03A7 7 0 0 1 9.31 3.44h-.03A14.52 14.52 0 0 1 15.34 2zm-3 5a3 3 0 1 1 6 0 3 3 0 0 1-6 0zM6.6 4.94a9 9 0 0 0 1.13 6.84A23.2 23.2 0 0 1 2.88 8c.48-.5 1.82-1.8 3.71-3.06zM27.81 8c-.48-.5-1.82-1.8-3.72-3.06a8.96 8.96 0 0 1-1.12 6.84A23.2 23.2 0 0 0 27.8 8z"/></defs></svg>