<svg width="220" height="202" fill="none" xmlns="http://www.w3.org/2000/svg"><path d="M55.7544 163.49c14.7327-26.68-14.721-29.37-25.2367-28.223-18.9281 2.066-41.8675-6.534-22.94671-52.91C30.0513 27.1224 96.2787 4.91093 116.21 1.63998c20.584-3.37928 47.925-2.33416 43 25.84452-4.634 26.6682 2.029 45.0235 23.647 31.1994 25.928-16.5811 43.242 4.5777 35.057 37.9512-8.553 34.7499-34.864 53.6109-62.341 73.8609-72.7879 53.752-119.7517 28.942-99.8186-7.006z" fill="#243036" fill-opacity=".12"/><path d="M37.3778 48H177.622c4.614 0 8.378 3.7757 8.378 8.4027v86.6553H29V56.4027C29 51.7757 32.8014 48 37.3778 48z" fill="#666"/><path d="M34.6836 137.358H180.316V56.4034c0-1.4807-1.218-2.7022-2.694-2.7022H37.3778c-1.4763 0-2.6942 1.2215-2.6942 2.7022v80.9546z" fill="#6B7F9E"/><path d="M107.5 128c19.054 0 34.5-1.055 34.5-2.357 0-1.302-15.446-2.358-34.5-2.358-19.0538 0-34.5 1.056-34.5 2.358S88.4462 128 107.5 128z" fill="#5D718F"/><path d="M76.7658 69h42.6062l1.883 51.8H74.8828l1.883-51.8z" fill="#FFE356"/><path d="M86.5964 73.874h.9255c.0958.3186.0958.6371 0 .9557h-.7341c.1277 7.9006 3.0958 12.966 6.8617 15.196 1.468.8602 3.0638 1.306 4.6595 1.306 1.5957 0 3.192-.446 4.691-1.306 3.766-2.23 6.735-7.2954 6.862-15.196h-.734c-.096-.3186-.096-.6371 0-.9557h.926c.223 0 .382.0637.542.2229.16.1593.224.3186.224.5417-.064 8.3785-3.256 13.7942-7.341 16.1836-1.628.9557-3.383 1.4336-5.1381 1.4336-1.7552 0-3.5107-.4779-5.1382-1.4336-4.0851-2.3892-7.2448-7.8051-7.3404-16.1836 0-.2229.0638-.3822.2233-.5417.1596-.1592.3192-.2229.5427-.2229h-.0319zM121 113.951l.032.829H75.1387v-.829H121z" fill="#FCD34E"/><path d="M86.0529 75.0544c.705 0 1.2766-.5705 1.2766-1.2743 0-.7037-.5716-1.2742-1.2766-1.2742s-1.2765.5705-1.2765 1.2742c0 .7038.5715 1.2743 1.2765 1.2743zM110.084 75.0544c.705 0 1.277-.5705 1.277-1.2743 0-.7037-.572-1.2742-1.277-1.2742s-1.276.5705-1.276 1.2742c0 .7038.571 1.2743 1.276 1.2743z" fill="#6B7F9E"/><path d="M86.3405 73.3008h.9256c.0958.3185.0958.6371 0 .9557h-.7341c.1277 7.9006 3.0957 12.966 6.8616 15.1959 1.4682.8602 3.0639 1.3061 4.6596 1.3061 1.5957 0 3.1918-.446 4.6918-1.3061 3.766-2.2299 6.734-7.2953 6.861-15.1959h-.734c-.096-.3186-.096-.6372 0-.9557h.926c.223 0 .383.0636.542.2229.16.1593.224.3186.224.5417-.064 8.3784-3.256 13.7942-7.341 16.1836-1.627.9557-3.3827 1.4335-5.1379 1.4335-1.7553 0-3.5107-.4778-5.1383-1.4335-4.085-2.3892-7.2447-7.8052-7.3404-16.1836 0-.223.0638-.3822.2234-.5417.1595-.1593.3191-.2229.5426-.2229h-.0319z" fill="#fff"/><path d="M120.042 87.7012l1.213 33.0998h-11.776l1.212-33.0998h9.351z" fill="#FCD34E"/><path d="M121 113.951l.032.829h-11.33l.032-.829H121z" fill="#FCD34E"/><path d="M111.681 87.7012h27.223l1.213 33.0998h-29.649l1.213-33.0998z" fill="#83CF8F"/><path d="M117.969 90.7891h.574c.064.1911.064.4142 0 .6053h-.446c.063 5.0653 1.978 8.283 4.372 9.7166.957.542 1.979.828 3 .828s2.042-.287 3-.828c2.425-1.4336 4.308-4.6513 4.372-9.7166h-.479c-.063-.1911-.063-.4142 0-.6053h.607c.127 0 .255.0318.351.1274.096.0957.127.2229.127.3504-.031 5.3521-2.074 8.8241-4.691 10.3541-1.021.605-2.17.923-3.287.923s-2.266-.318-3.287-.923c-2.617-1.53-4.628-4.9702-4.692-10.3541 0-.1275.032-.2549.128-.3504.096-.0954.223-.1274.351-.1274zM139.958 116.435v.509h-29.33v-.509h29.33z" fill="#75BD80"/><path d="M117.617 91.5549c.458 0 .83-.3708.83-.8282 0-.4575-.372-.8283-.83-.8283-.458 0-.83.3708-.83.8283 0 .4574.372.8282.83.8282zM132.968 91.5549c.459 0 .83-.3708.83-.8282 0-.4575-.371-.8283-.83-.8283-.458 0-.829.3708-.829.8283 0 .4574.371.8282.829.8282z" fill="#6B7F9E"/><path d="M117.809 90.4395h.574c.064.1911.064.4142 0 .6053h-.447c.064 5.0653 1.979 8.283 4.373 9.7162.957.542 1.979.829 3 .829s2.042-.287 3-.829c2.425-1.4332 4.308-4.6509 4.372-9.7162h-.479c-.064-.1911-.064-.4142 0-.6053h.607c.127 0 .255.0636.351.1274.095.0957.127.2229.127.3504-.032 5.3521-2.074 8.8245-4.691 10.3537-1.021.605-2.17.924-3.287.924s-2.266-.319-3.287-.924c-2.618-1.5292-4.628-4.9698-4.692-10.3537 0-.1275.032-.2549.128-.3504.095-.0956.223-.1274.351-.1274zM186 143.058v9.18c0 4.627-4.17 8.402-9.227 8.402H38.2266c-5.0931 0-9.2266-3.775-9.2266-8.402v-9.18h157z" fill="#fff"/><path d="M107.5 154.385c1.59 0 2.878-1.293 2.878-2.887 0-1.595-1.288-2.888-2.878-2.888s-2.879 1.293-2.879 2.888c0 1.594 1.289 2.887 2.879 2.887zM125.621 173.893l13.286 4.256H76.0557l10.7766-4.256v-13.215h38.7887v13.215z" fill="#E4E7ED"/><path d="M125.621 173.893l-38.789-13.215h38.789v13.215z" fill="#C6CBD6"/><path d="M86.8323 173.893h38.7887l13.286 4.256V180H76.0557v-1.851l10.7766-4.256z" fill="#ECF0F1"/></svg>