<svg xmlns="http://www.w3.org/2000/svg" width="119" height="92" viewBox="0 0 119 92">
  <path fill="#2B2B2B" fill-rule="evenodd" d="M28.4735582,0.707183012 C28.3532111,0.693682031 28.2542572,0.705904243 28.1814911,0.714382675 C28.0943526,0.725441498 28.0801889,0.730919118 28.0408658,0.739581863 C27.9829619,0.737751986 27.925014,0.741367828 27.8677889,0.750381541 L26.0180295,1.0455714 C25.986489,1.04995291 25.9551967,1.05596078 25.9242782,1.06357093 C25.2029858,1.25660269 24.7436942,2.02819856 24.9399034,2.75911307 L25.4266825,4.57705169 C25.1374086,4.767116 24.8645065,4.97497212 24.604568,5.20343082 L22.9747594,4.26746176 C22.3302671,3.89643824 21.4593126,4.12922758 21.0853372,4.77504518 C21.0841354,4.77504283 21.0829335,4.77504283 21.0817317,4.77504518 L20.1514418,6.38058914 C19.7766542,7.02843345 20.0041206,7.89642945 20.659856,8.27412514 L22.2824517,9.2100942 C22.2124825,9.55068753 22.1704548,9.89266875 22.1490375,10.2396578 L20.3389428,10.7220418 C20.3377409,10.7220395 20.3365391,10.7220395 20.3353372,10.7220418 C19.6140818,10.9150183 19.1584134,11.6867067 19.354568,12.4175843 C19.3545657,12.4187842 19.3545657,12.4199841 19.354568,12.421184 L19.4771637,12.8675697 L19.715144,13.7603393 L19.8341342,14.2067232 C19.8341248,14.2091229 19.8341248,14.2115227 19.8341342,14.2139225 C20.0301772,14.9441919 20.8011588,15.3898072 21.5360572,15.1930891 L23.3497594,14.7071073 C23.542184,14.9968098 23.7495938,15.2715589 23.9807692,15.5314781 L23.0432702,17.1514225 C22.6681298,17.7998935 22.8931723,18.6670232 23.5480769,19.0449585 L25.159856,19.9737264 C25.8090745,20.3475331 26.6778265,20.123579 27.0564911,19.4697445 C27.0564934,19.4685446 27.0564934,19.4673447 27.0564911,19.4661448 L27.9975957,17.8425989 C28.3378603,17.911348 28.6786991,17.9587516 29.0252406,17.9793947 L29.5084142,19.7901333 C29.7051588,20.5230384 30.4854634,20.9598011 31.2103372,20.7657004 L33.0024043,20.286916 C33.7237705,20.0938842 34.1830991,19.322417 33.9867791,18.5913735 L33.5036055,16.7842364 C33.7924363,16.5925316 34.0629163,16.3807183 34.3221145,16.1506579 L35.9519231,17.0866251 C36.6083969,17.464542 37.472792,17.2290978 37.8485582,16.5790417 C37.8485605,16.5778418 37.8485605,16.576642 37.8485582,16.5754421 L38.7752406,14.9734978 L38.7716351,14.9734978 C39.1467735,14.3250268 38.9217311,13.4579155 38.2668265,13.0799618 L36.6442308,12.1439927 C36.7125385,11.8044518 36.7539163,11.463746 36.7740394,11.1180288 L38.5877397,10.6284455 C39.3090505,10.4354505 39.7684898,9.6639649 39.5721145,8.93290294 C39.5721168,8.93170306 39.5721168,8.93050318 39.5721145,8.92930329 L39.4495188,8.48291757 L39.3341342,8.04013333 C39.3329428,8.03772834 39.331741,8.03532855 39.3305286,8.03293404 L39.2115385,7.58654831 L39.0925483,7.14376408 C39.0925507,7.1425642 39.0925507,7.14136431 39.0925483,7.14016443 C38.8957298,6.40709345 38.1154252,5.96706286 37.3906252,6.16099776 L35.5769231,6.64698145 C35.3860308,6.35628184 35.1757225,6.08374451 34.9459132,5.82260882 L35.8834142,4.19906405 C36.2581465,3.55123816 36.0307538,2.68324272 35.375,2.3055286 L33.7668265,1.38036014 C33.1100203,1.00163211 32.2458855,1.23807105 31.8701932,1.88794282 L30.9326923,3.50788758 C30.5919846,3.4384013 30.2485188,3.39607255 29.9014418,3.37469216 L29.4182683,1.56395375 L29.4399034,1.67555 C29.4031649,1.40897706 29.2041957,1.02308181 28.8918265,0.847578094 C28.7356326,0.759844945 28.5939034,0.720683992 28.4735582,0.707183012 Z M71.2920671,2.38112598 C68.5902209,2.38112598 66.1296763,3.68332088 64.3978363,5.72181318 C63.5676763,5.306018 62.7086702,4.91610416 61.7728363,4.91544063 C58.6636548,4.91645251 56.1779009,7.33107106 55.8882209,10.362055 C55.5126394,10.2503609 55.1892117,9.98447173 54.7920671,9.98406808 C53.1196178,9.98487906 51.7973711,11.1111797 51.1718757,12.6083785 C48.0832788,12.8488526 45.6189902,15.364147 45.6189902,18.5085779 C45.6189902,21.811349 48.3108117,24.498774 51.6189902,24.498774 L56.2235582,24.498774 L63.6153846,24.498774 L63.6153846,32.0009176 L27.9254812,32.0009176 C25.5966135,32.0009176 23.6959132,33.9071916 23.6959132,36.2343735 L23.6959132,55.0401333 L21.1538462,55.0401333 L21.1538462,43.8517151 C21.1537952,43.3427679 20.7405494,42.9301974 20.2307692,42.9301465 L7.30769231,42.9301465 C6.7979121,42.9301974 6.38466632,43.3427679 6.38461538,43.8517151 L6.38461538,65.9693622 C6.38466632,66.4783094 6.7979121,66.89088 7.30769231,66.8909308 L20.2307692,66.8909308 C20.7405494,66.89088 21.1537952,66.4783094 21.1538462,65.9693622 L21.1538462,56.8832706 L23.6959132,56.8832706 L23.6959132,79.9764847 L19.0805288,79.9764847 C18.5707486,79.9765356 18.1575028,80.3891061 18.1574519,80.8980533 C18.1574519,86.4698572 22.6793397,90.9813098 28.2608166,90.9813098 L100.361779,90.9813098 C105.943256,90.9813098 110.465144,86.4698572 110.465144,80.8980533 C110.465093,80.3891061 110.051847,79.9765356 109.542067,79.9764847 L104.926682,79.9764847 L104.926682,55.8321073 L108.846154,55.8321073 C109.179049,55.8368076 109.48869,55.6621928 109.656512,55.3751264 C109.824333,55.0880601 109.824333,54.7330173 109.656512,54.4459509 C109.48869,54.1588845 109.179049,53.9842698 108.846154,53.98897 L107.652645,53.98897 C106.658417,53.98897 105.864183,53.194318 105.864183,52.1458328 L105.864183,51.8254421 L105.864183,50.3026955 L117.016826,50.3026955 C118.129891,50.3026955 119,49.3464667 119,48.2579633 L119,26.5435025 C119,25.4550009 118.129891,24.498774 117.016826,24.498774 L85.9062505,24.498774 C84.7931858,24.498774 83.9230769,25.4550009 83.9230769,26.5435025 L83.9230769,32.0009176 L65.4615385,32.0009176 L65.4615385,24.498774 L72.4026449,24.498774 L77.0036055,24.498774 C80.311784,24.498774 83.0036055,21.811349 83.0036055,18.5085779 C83.0036055,16.4022756 81.8036812,14.6799265 80.1550474,13.6163442 C80.3156628,12.9327062 80.4648117,12.24263 80.465144,11.5392151 C80.4646825,6.49290808 76.3465963,2.38153147 71.2920671,2.38112598 Z M27.5540868,2.46032319 C27.6844252,2.53478594 27.6628289,2.46589868 27.7524043,2.48912221 L27.7560098,2.49632206 L27.5540868,2.46032319 Z M27.7920671,2.62951748 L28.2752406,4.42945694 C28.3864598,4.84693691 28.7731969,5.13127753 29.2055286,5.11343227 C29.8633132,5.08394208 30.5215686,5.16983596 31.1490375,5.3690238 C31.5631227,5.50154894 32.0137014,5.32761037 32.2307692,4.95143894 L33.2403846,3.20549787 L34.055288,3.67348203 L33.0492782,5.41942255 C32.8336954,5.79241317 32.9055569,6.2647282 33.2223551,6.5569829 C33.7073028,7.00256318 34.1116511,7.53016675 34.4122603,8.11573145 C34.6112753,8.5013611 35.0527096,8.69623429 35.4723551,8.58371506 L37.4266825,8.06173306 C37.4266731,8.06413281 37.4266731,8.0665326 37.4266825,8.06893235 L37.5492782,8.51171659 L37.6646628,8.95810231 C37.6658541,8.96050731 37.667056,8.96290709 37.6682683,8.96530161 L35.7139428,9.49088325 C35.2944711,9.60389605 35.0107014,9.99362915 35.0324517,10.4268523 C35.0645748,11.0831198 34.980584,11.7402609 34.7836529,12.3671856 C34.6547474,12.7784243 34.8284562,13.2239468 35.2019231,13.4399504 L36.9471163,14.4443146 L36.4747594,15.261488 L34.7223551,14.2535223 C34.3462835,14.038095 33.8707242,14.1129816 33.5793274,14.4335157 C33.1371735,14.9193667 32.6118246,15.3214729 32.0288462,15.6250744 C31.6455901,15.8245956 31.4523046,16.2628915 31.5637022,16.6798392 L32.0865385,18.623774 L31.1742782,18.8685647 L30.6514418,16.9210303 C30.5399363,16.5021837 30.1512028,16.2174787 29.7175483,16.237055 C29.0600037,16.2678354 28.4017502,16.1830345 27.7740394,15.9850631 C27.3610395,15.854458 26.9126288,16.0281385 26.6959132,16.402648 L25.6899034,18.1485892 L24.8713945,17.677006 L25.8810098,15.9310647 C26.0996381,15.5555799 26.0260312,15.0786655 25.7043274,14.7863032 C25.2173305,14.3437107 24.8109034,13.8181456 24.5072111,13.2347558 C24.3070297,12.8505155 23.8658787,12.6572653 23.4471163,12.7703718 L21.5,13.2959535 L21.5,13.2923538 C21.5000023,13.291154 21.5000023,13.2899541 21.5,13.2887542 L21.2584142,12.3887853 C21.2584165,12.3875854 21.2584165,12.3863855 21.2584142,12.3851856 L23.2055286,11.8668033 C23.6250622,11.7554805 23.9102342,11.367381 23.8906252,10.9344339 C23.8610868,10.2777056 23.9471212,9.62052769 24.1466351,8.99410063 C24.2774527,8.58177568 24.1034872,8.13409872 23.7283649,7.91773796 L21.979568,6.90977227 L22.4519231,6.09619859 L24.2007218,7.09696498 C24.5743229,7.31219549 25.047411,7.24045138 25.340144,6.92417086 C25.7852886,6.44036576 26.3127163,6.03669843 26.8978363,5.73621176 C27.2840979,5.53752183 27.4792902,5.09680766 27.3665858,4.67784733 L26.854568,2.77711241 L27.7920671,2.62951748 Z M71.2920671,4.22426324 C75.3489717,4.22457657 78.6186209,7.48888416 78.6189902,11.5392151 C78.6186578,12.2627018 78.5100708,12.9818073 78.2980769,13.6739422 C78.1644981,14.1108258 78.3715956,14.5794793 78.784856,14.7755043 C80.1892991,15.441356 81.1574517,16.8414234 81.1574517,18.5085779 C81.1574517,20.8218257 79.3206209,22.6556367 77.0036055,22.6556367 L72.4026449,22.6556367 L67.3293274,22.6556367 L67.3293274,19.8909308 L69.4819705,19.8909308 C69.8603787,19.8896073 70.199659,19.6578636 70.3380011,19.3062232 C70.4763432,18.9545829 70.3857292,18.5542626 70.1093748,18.296184 L65.1694714,13.6883408 C64.9866619,13.5170898 64.7419554,13.4274246 64.4915858,13.4399504 C64.2701197,13.4514702 64.0602078,13.5421977 63.9002406,13.6955401 L59.0612978,18.3033833 C58.7893345,18.5632086 58.7026208,18.9618655 58.8421473,19.3109037 C58.9816738,19.6599419 59.3194929,19.8894477 59.6959132,19.8909308 L61.8521637,19.8909308 L61.8521637,22.6556367 L56.2235582,22.6556367 L51.6189902,22.6556367 C49.3019748,22.6556367 47.465144,20.8218257 47.465144,18.5085779 C47.465144,16.1955309 49.3014578,14.3615191 51.6189902,14.3615191 L51.6838935,14.3615191 C52.1218702,14.3620592 52.4999446,14.0552818 52.5889428,13.6271431 C52.8037058,12.5761678 53.7175871,11.8277214 54.7920671,11.8272053 C55.2954948,11.8277196 55.7808855,11.9990005 56.1766825,12.3095875 C56.4734563,12.5435671 56.8831508,12.5731893 57.2105965,12.3843429 C57.5380421,12.1954964 57.7170166,11.8263736 57.6622603,11.4528162 C57.6364142,11.2720063 57.6244418,11.0888445 57.6225957,10.9056367 C57.6222449,8.60458859 59.4682271,6.75933173 61.7728363,6.75857788 C62.603144,6.75916584 63.4114382,7.00939384 64.0985582,7.47495188 C64.5122604,7.75647189 65.0753279,7.65745789 65.3677889,7.25176086 C66.7444658,5.35172596 68.9451809,4.22426324 71.2920671,4.22426324 Z M29.5516825,6.04580169 L29.5516825,6.04940133 C29.4895693,6.05279097 29.4279583,6.06243967 29.3677889,6.07820035 C29.3653794,6.07938975 29.362975,6.08058964 29.360576,6.0818 C28.9918455,6.08917255 28.6213594,6.10567416 28.2644222,6.20059573 C26.0156055,6.80413102 24.5561822,9.00174227 24.8713945,11.3052215 C24.8880098,11.4220764 24.9072154,11.53763 24.9326923,11.6544112 C24.9456154,11.7196564 24.9571188,11.781138 24.9687495,11.8344046 C24.973078,11.8513373 24.9778879,11.8681437 24.9831735,11.8848034 C24.9979428,11.9399113 25.0169526,11.996221 25.0372603,12.0575975 L25.0336529,12.0575975 C25.0737163,12.1807191 25.1204572,12.3016565 25.1706726,12.421184 L25.1742782,12.4247836 C26.0538228,14.5774573 28.4153489,15.7528057 30.6658658,15.1534912 C30.6670677,15.1534935 30.6682695,15.1534935 30.6694714,15.1534912 C32.918456,14.5473939 34.3741003,12.3490583 34.055288,10.0452658 C34.0497495,10.0012148 34.044176,9.95064278 34.0336529,9.88687024 C34.0337116,9.88087097 34.0337116,9.87487127 34.0336529,9.868872 C34.0109452,9.73708584 33.9808991,9.6049882 33.9471163,9.47648467 C33.9459361,9.47287764 33.9447336,9.46927792 33.9435089,9.46568573 C33.9045551,9.32523867 33.858368,9.18711396 33.8064911,9.05169867 C33.8053273,9.04688955 33.8041248,9.04208986 33.8028837,9.03730008 L33.7920671,9.01570035 C33.7920694,9.01450047 33.7920694,9.01330059 33.7920671,9.01210071 C33.7828363,8.99035169 33.769856,8.95795855 33.7560098,8.92570365 C33.1368468,7.41108718 31.7234978,6.45492286 30.1286055,6.20779502 C30.0574628,6.15880104 29.9797813,6.12002373 29.8978363,6.09259894 L29.8906252,6.1285991 C29.8009022,6.11938341 29.732768,6.04930365 29.6418265,6.04580169 C29.6117964,6.04433617 29.5817125,6.04433617 29.5516825,6.04580169 Z M29.569712,7.89253859 L29.5733175,7.89253859 C30.6677729,7.93806408 31.6328388,8.61125706 32.0468757,9.62407941 C32.0502805,9.63494474 32.0538867,9.64574615 32.0576923,9.65647808 C32.0613846,9.66385063 32.0688043,9.67941408 32.0793274,9.70687682 L32.090144,9.72847655 C32.118944,9.80533537 32.1440812,9.88402443 32.1658658,9.96246835 C32.1846966,10.0356409 32.2000012,10.1119542 32.2127397,10.1856594 C32.216432,10.2099888 32.2180197,10.2370497 32.2235582,10.2792576 C32.2247001,10.2852688 32.225902,10.2912685 32.2271637,10.2972558 C32.4205852,11.6949436 31.5536203,13.0060446 30.1899034,13.3751513 C28.8224203,13.7392999 27.4128468,13.0389483 26.8798068,11.7300075 C26.8786437,11.7251984 26.8774418,11.7203987 26.8762012,11.7156089 C26.8444474,11.6407775 26.8149551,11.5663203 26.7896628,11.4888164 C26.7896651,11.4876165 26.7896651,11.4864166 26.7896628,11.4852167 C26.780432,11.457754 26.7704166,11.4262695 26.7608166,11.3916185 L26.7608166,11.3880189 C26.753432,11.3566856 26.7483274,11.3227202 26.7427889,11.2980222 C26.7418231,11.2860004 26.740621,11.2739986 26.7391834,11.2620239 C26.7244142,11.1930905 26.709488,11.1249111 26.6995188,11.0532315 C26.5082757,9.65574635 27.3767785,8.35009373 28.7403846,7.98253529 C29.0105323,7.91065294 29.2904997,7.88147976 29.569712,7.89253859 Z M10.9603365,15.3010859 C10.9053876,15.3070145 10.851083,15.3178576 10.7980769,15.3334846 L8.64543274,15.909465 C7.87434966,16.1157673 7.38659692,16.9360537 7.59615385,17.7166039 L8.21274043,20.0097265 C7.79113428,20.2770552 7.39615317,20.5780284 7.02644222,20.9132951 L4.97115385,19.7361349 C4.28215077,19.3389942 3.35148615,19.5822256 2.95192308,20.2725174 L1.83774039,22.2020517 C1.43747576,22.8941497 1.67455077,23.8182305 2.375,24.2215827 L4.43028837,25.4059422 C4.32228837,25.8939127 4.25473428,26.3862589 4.2319712,26.8854911 L1.94591345,27.4974716 C1.17490424,27.7037371 0.683545769,28.5241138 0.893028846,29.3046087 C0.894227448,29.3058119 0.895429375,29.3070118 0.896634615,29.3082084 L1.04086538,29.8445908 L1.32932692,30.9173538 L1.46995191,31.4537363 C1.47115052,31.4549395 1.47235245,31.4561394 1.47355769,31.4573359 C1.68289308,32.2372595 2.50262576,32.7150006 3.28725957,32.5049014 C3.28846154,32.5049038 3.28966351,32.5049038 3.29086548,32.5049014 L5.5805288,31.8893212 C5.8507688,32.3104412 6.1507088,32.7049795 6.48918265,33.0736807 L5.30288462,35.1220107 C4.90234308,35.8146064 5.14411298,36.73795 5.84374991,37.1415417 L7.77644222,38.2575042 C8.47013471,38.6573728 9.39508197,38.4158334 9.79927889,37.7175221 L10.9855769,35.6655924 C11.4743462,35.7723101 11.9676835,35.8382925 12.4675481,35.8599863 L13.0769231,38.1459078 C13.0781217,38.1471116 13.0793236,38.1483121 13.0805288,38.1495093 C13.2905657,38.93205 14.1196769,39.3972818 14.8942308,39.1898736 L17.046875,38.6138932 C17.8179396,38.4076093 18.3058954,37.5874335 18.0961538,36.8067543 L17.4831732,34.5208328 C17.9038561,34.2509404 18.2975945,33.9477443 18.6658655,33.6100631 L20.7247594,34.7944225 C21.4257255,35.1958763 22.3431532,34.943713 22.7439902,34.2508408 C22.745192,34.2508432 22.7463938,34.2508432 22.7475957,34.2508408 L23.8581735,32.3249062 L23.854568,32.3249062 C24.255128,31.6323105 24.0168338,30.7089485 23.3173077,30.3053751 L21.2656252,29.1210157 C21.3717791,28.6324922 21.4358498,28.1409385 21.4567298,27.6414667 L23.7463945,27.0258865 C24.5174591,26.8196026 25.0053588,25.9994102 24.7956726,25.2187476 C24.795675,25.2175477 24.795675,25.2163478 24.7956726,25.215148 L24.6514418,24.682367 L24.5108166,24.1459846 C24.5096253,24.1435796 24.5084234,24.1411798 24.5072111,24.1387853 L24.3629803,23.6060025 L24.2223551,23.0696219 C24.2211566,23.0684187 24.2199547,23.0672188 24.2187495,23.0660223 C24.0086388,22.2833156 23.1794905,21.8148325 22.4050474,22.0220583 C22.4038455,22.0220559 22.4026437,22.0220559 22.4014418,22.0220583 L20.1153846,22.6376366 C19.8466215,22.2138256 19.5444098,21.8175235 19.2067308,21.4460779 L20.389424,19.4013456 C20.7896517,18.709266 20.5491182,17.7851668 19.8485582,17.3818146 L17.9158655,16.265854 C17.2144376,15.8615065 16.2945673,16.1154577 15.8930288,16.8094339 L14.7067308,18.8613654 C14.2176108,18.7535419 13.7251411,18.6895869 13.2247596,18.6669716 L12.6153846,16.3774504 L12.6370193,16.489045 C12.5960347,16.1916917 12.4203015,15.8809682 12.2115385,15.7006725 C12.0027754,15.5204137 11.7957593,15.4470642 11.6418268,15.4054831 C11.4930268,15.3653027 11.3852761,15.3561791 11.3245191,15.347885 C11.3221206,15.3466747 11.3197167,15.3454748 11.3173077,15.3442854 L11.313702,15.3442854 C11.2296743,15.3175803 11.1422475,15.3030327 11.0540866,15.3010859 C11.0228567,15.2995007 10.9915664,15.2995007 10.9603365,15.3010859 Z M64.5456726,15.6286759 L67.1418265,18.0477936 L66.4062505,18.0477936 C65.8964703,18.0478445 65.4832245,18.460415 65.4831735,18.9693622 L65.4831735,22.6556367 L63.6983175,22.6556367 L63.6983175,18.9693622 C63.6982666,18.460415 63.2850208,18.0478445 62.7752406,18.0477936 L62.0036055,18.0477936 L64.5456726,15.6286759 Z M10.9242789,17.2054209 L11.5985578,19.7217364 C11.7100634,20.1405832 12.0987972,20.4252882 12.5324519,20.4057117 C13.343338,20.3692176 14.1531996,20.4768476 14.9266826,20.7225009 C15.3396822,20.8531054 15.7880922,20.679425 16.0048077,20.304916 L17.3100962,18.0441921 L18.6081732,18.7929666 L17.3064903,21.0464913 C17.0917914,21.4202913 17.1651677,21.8927196 17.4831732,22.1840516 C18.0809947,22.7333434 18.5765369,23.3845404 18.9471154,24.1063866 C19.1461304,24.4920167 19.5875653,24.68689 20.0072111,24.5743702 L22.5312505,23.8975942 L22.5781243,24.0775876 C22.5781149,24.0799874 22.5781149,24.0823871 22.5781243,24.0847869 L22.7259606,24.6211693 L22.8665858,25.1539503 C22.8665765,25.15635 22.8665765,25.1587498 22.8665858,25.1611496 L22.9170671,25.3411448 L20.3930295,26.0179209 C19.9735578,26.1309337 19.6897882,26.5206668 19.7115385,26.9538899 C19.7510462,27.7628797 19.6478535,28.5713811 19.4050474,29.3442085 C19.2761428,29.7554467 19.4498515,30.2009681 19.8233175,30.4169716 L22.0769231,31.7201267 L21.3269231,33.0160826 L19.0625,31.7129275 C18.6864282,31.4974995 18.2108682,31.5723862 17.9194712,31.8929209 C17.3743943,32.4918667 16.7270842,32.9910031 16.0084134,33.3652705 C15.6251573,33.5647916 15.4318717,34.0030876 15.5432692,34.4200353 L16.2175481,36.9291496 L14.7680288,37.3179373 L14.0937499,34.8016218 C13.9822443,34.382775 13.5935105,34.09807 13.1598558,34.1176465 C12.3492835,34.1556151 11.539422,34.0520327 10.765625,33.8080566 C10.3526255,33.677452 9.90421551,33.8511325 9.6875,34.2256415 L8.38581735,36.4791661 L7.08413452,35.7303916 L8.38942308,33.4732673 C8.60608109,33.0986229 8.53258989,32.623957 8.21274043,32.3321073 C7.61238966,31.7864834 7.11236222,31.1361637 6.73798068,30.4169716 C6.53779917,30.0327306 6.09664737,29.8394804 5.67788462,29.9525876 L3.1610576,30.6293636 L3.11418265,30.4457706 C3.11418499,30.4445707 3.11418499,30.4433708 3.11418265,30.4421709 L2.82572111,29.3658064 C2.82572345,29.3646066 2.82572345,29.3634067 2.82572111,29.3622068 L2.77524043,29.1822134 L5.29206726,28.5126366 C5.71016355,28.3999079 5.99356825,28.0121727 5.97355778,27.5802672 C5.93700375,26.7707263 6.04481009,25.9586235 6.29086548,25.1863489 C6.42168319,24.7740242 6.24771807,24.3263473 5.87259606,24.1099863 L3.61538462,22.8104307 L4.36538462,21.5144749 L6.62259606,22.8104307 C6.99700811,23.0247796 7.47021023,22.9515233 7.76201932,22.634037 C8.31078837,22.0376162 8.96256505,21.54292 9.68389428,21.1724863 C10.070156,20.9737965 10.2653485,20.5330823 10.1526442,20.1141218 L9.47475957,17.5942085 L10.9242789,17.2054209 Z M12.9615385,21.8924618 L12.9615385,21.8960614 C12.9006368,21.8996898 12.8402454,21.9093367 12.7812501,21.9248604 C12.778841,21.9260498 12.7764371,21.9272497 12.7740385,21.9284601 C12.3309985,21.9339895 11.8864435,21.9585493 11.4579327,22.0724552 C11.4567308,22.0724528 11.4555289,22.0724528 11.454327,22.0724552 C8.84454837,22.7728473 7.15465428,25.3174789 7.52043274,27.9906546 C7.53926351,28.1264938 7.56300966,28.2621911 7.59254812,28.3974405 C7.6054712,28.4704288 7.62040769,28.5471033 7.63942308,28.6278327 C7.6427834,28.6399043 7.64638994,28.6519062 7.65024043,28.663831 C7.67110197,28.7381095 7.68900375,28.7978437 7.70432702,28.8474241 C7.70549019,28.8522338 7.70669213,28.8570341 7.70793274,28.8618245 C7.75574812,29.0092755 7.81000769,29.1552114 7.87019231,29.2974095 L7.87379803,29.3010091 C8.89667803,31.7948291 11.6322327,33.1529282 14.2415866,32.4581023 C14.2427885,32.4581047 14.2439904,32.4581047 14.2451923,32.4581023 C16.8539369,31.755056 18.5433824,29.208502 18.1754809,26.5363032 C18.1680962,26.4714248 18.1607635,26.4080061 18.1502404,26.3419112 C18.1490773,26.3371015 18.1478753,26.3323012 18.1466347,26.3275108 C18.1204193,26.1756363 18.0887866,26.0239756 18.0492789,25.8739258 C18.0481157,25.8691167 18.0469136,25.864317 18.045673,25.8595272 C18.0004424,25.6967782 17.9466501,25.5369855 17.8870193,25.3807428 C17.8858396,25.3771358 17.8846376,25.373536 17.8834134,25.3699438 L17.8725961,25.3411448 C17.8713975,25.3399416 17.8701956,25.3387417 17.8689903,25.3375452 C17.852375,25.2960746 17.839198,25.261066 17.8257211,25.2295484 L17.8221154,25.2259487 C17.0245954,23.2804989 15.1594978,21.9757163 13.0552884,21.8924618 C13.0240586,21.8908766 12.9927683,21.8908766 12.9615385,21.8924618 Z M12.9795673,23.7319994 L12.9795673,23.735599 L12.9831732,23.735599 C14.3691362,23.7918147 15.5923343,24.6490873 16.1165866,25.9315238 C16.1189484,25.9363448 16.1213523,25.9411451 16.123798,25.9459242 C16.1385673,25.9802066 16.1472039,26.0102036 16.1562501,26.0323213 L16.1562501,26.0251202 L16.1670673,26.053921 C16.205098,26.154372 16.2361769,26.2542 16.2644231,26.3563098 L16.2644231,26.3455109 C16.2902692,26.4431971 16.3083673,26.5403784 16.3257211,26.6407004 C16.3312596,26.6760886 16.3364519,26.7116501 16.3401442,26.7486971 C16.3411101,26.760719 16.3423122,26.7727207 16.3437499,26.7846955 C16.5883284,28.5521535 15.4902835,30.2097753 13.765625,30.6761627 C12.036665,31.13656 10.253247,30.250387 9.57932702,28.595434 C9.57696518,28.590613 9.57456121,28.5858127 9.57211538,28.5810336 C9.53371538,28.4901669 9.49819428,28.3969042 9.46754812,28.3038442 L9.4639424,28.2894438 C9.44917298,28.2391261 9.43674615,28.1951507 9.42788462,28.1634487 C9.41865385,28.1238213 9.41132111,28.0842676 9.40264418,28.0374519 C9.40048,28.0254058 9.39807571,28.013404 9.39543274,28.0014536 C9.37623274,27.9137202 9.36111145,27.8252478 9.34855778,27.7350631 C9.10864991,25.9682317 10.2088297,24.3137543 11.9338943,23.8507951 C12.2748789,23.7601127 12.6274503,23.7185445 12.9795673,23.7319994 Z M85.9062505,26.3419112 L117.016826,26.3419112 C117.078857,26.3419112 117.153846,26.3876302 117.153846,26.5435025 L117.153846,48.2579633 C117.153846,48.4138945 117.078857,48.4595583 117.016826,48.4595583 L105.10697,48.4595583 C105.047491,48.4488783 104.987106,48.444055 104.926682,48.4451578 C104.872276,48.4451751 104.817978,48.449994 104.764422,48.4595583 L98.1406252,48.4595583 C98.0811462,48.4488783 98.0207605,48.444055 97.9603372,48.4451578 C97.9059311,48.4451751 97.851633,48.449994 97.7980769,48.4595583 L85.9062505,48.4595583 C85.8442197,48.4595583 85.7692308,48.4138558 85.7692308,48.2579633 L85.7692308,26.5435025 C85.7692308,26.3875731 85.8442197,26.3419112 85.9062505,26.3419112 Z M88.5384615,28.1850485 C88.0286813,28.1850993 87.6154356,28.5976699 87.6153846,29.1066171 L87.6153846,43.8517151 C87.6154356,44.3606624 88.0286813,44.7732329 88.5384615,44.7732838 L114.384615,44.7732838 C114.894396,44.7732329 115.307641,44.3606624 115.307692,43.8517151 L115.307692,29.1066171 C115.307641,28.5976699 114.894396,28.1850993 114.384615,28.1850485 L88.5384615,28.1850485 Z M89.4615385,30.0281857 L113.461538,30.0281857 L113.461538,42.9301465 L89.4615385,42.9301465 L89.4615385,30.0281857 Z M27.9254812,33.8440549 L63.6153846,33.8440549 L63.6153846,37.5591284 L30.1574517,37.5591284 C29.6476715,37.5591793 29.2344257,37.9717498 29.2343748,38.4806971 L29.2343748,55.0401333 L25.5420671,55.0401333 L25.5420671,36.2343735 C25.5420671,34.8940994 26.5894751,33.8440549 27.9254812,33.8440549 Z M65.4615385,33.8440549 L83.9230769,33.8440549 L83.9230769,37.5591284 L65.4615385,37.5591284 L65.4615385,33.8440549 Z M31.0805286,39.4022657 L63.6153846,39.4022657 L63.6153846,41.2562019 C62.9617649,41.2912399 62.3066369,41.3541923 61.6574517,41.4721955 C59.7317286,41.8222441 57.8440197,42.5395507 56.0973551,43.6465205 C49.7427643,47.6738362 47.2696289,55.5839528 49.9026449,62.4126824 L36.6189902,62.4126824 L36.6189902,55.961702 C36.6189392,55.4527547 36.2056934,55.0401842 35.6959132,55.0401333 L31.0805286,55.0401333 L31.0805286,39.4022657 Z M65.4615385,39.4022657 L83.9230769,39.4022657 L83.9230769,48.2579633 C83.9230769,49.3464667 84.7931858,50.3026955 85.9062505,50.3026955 L97.0516825,50.3026955 L97.0516825,51.8254421 C97.0516449,51.8302421 97.0516449,51.8350424 97.0516825,51.8398425 L97.0588935,52.1458328 C97.0588935,53.194318 96.2646597,53.98897 95.270432,53.98897 L94.0769231,53.98897 C93.7440284,53.9842698 93.4343864,54.1588845 93.2665652,54.4459509 C93.0987439,54.7330173 93.0987439,55.0880601 93.2665652,55.3751264 C93.4343864,55.6621928 93.7440284,55.8368076 94.0769231,55.8321073 L97.5420671,55.8321073 L97.5420671,57.6752445 L88.3112978,57.6752445 L88.3112978,54.1185647 C88.3112469,53.6096175 87.8980011,53.197047 87.3882209,53.1969961 L79.6682683,53.1969961 C79.2110886,51.2773649 78.3845268,49.4162847 77.1658658,47.7215827 C74.3370708,43.7877859 69.9852338,41.5690965 65.4615385,41.2778016 L65.4615385,39.4022657 Z M36.8317317,41.0870093 C36.5919401,41.0908259 36.3630474,41.1876553 36.1935089,41.3569994 L34.3581735,43.1929373 C34.1170282,43.424082 34.0198883,43.7673206 34.1042177,44.090277 C34.1885471,44.4132335 34.4411682,44.6654418 34.7646532,44.7496334 C35.0881382,44.833825 35.4319385,44.7368438 35.6634615,44.4960925 L35.9230769,44.2369013 L35.9230769,48.2075664 C35.918369,48.5399171 36.0932695,48.8490531 36.3808057,49.0166002 C36.6683419,49.1841472 37.0239658,49.1841472 37.311502,49.0166002 C37.5990382,48.8490531 37.7739387,48.5399171 37.7692308,48.2075664 L37.7692308,44.2369013 L38.0288462,44.4960925 C38.2603691,44.7368438 38.6041695,44.833825 38.9276545,44.7496334 C39.2511395,44.6654418 39.5037606,44.4132335 39.58809,44.090277 C39.6724194,43.7673206 39.5752795,43.424082 39.3341342,43.1929373 L37.4987988,41.3569994 C37.3221926,41.1806006 37.0815188,41.0831898 36.8317317,41.0870093 Z M64.5528837,43.0561415 C68.8199785,43.0821187 72.9995932,45.0865415 75.6658658,48.7943457 C79.9319212,54.7268147 78.8239262,62.930556 73.1346154,67.5209078 L74.2956726,68.9536595 C78.5905298,65.4883974 80.5671366,60.1815481 79.9819705,55.0401333 L86.465144,55.0401333 L86.465144,58.5968132 C86.465195,59.1057604 86.8784407,59.5183309 87.3882209,59.5183818 L97.5420671,59.5183818 L97.5420671,74.4218735 L31.0805286,74.4218735 L31.0805286,56.8832706 L34.7728363,56.8832706 L34.7728363,63.334251 C34.7728873,63.8431982 35.186133,64.2557687 35.6959132,64.2558196 L50.7427889,64.2558196 C50.7717034,64.3090291 50.7925169,64.364808 50.8221145,64.4178148 C54.8517329,71.6340842 63.8460302,74.4630787 71.2920671,70.8579944 L70.4843748,69.198452 C63.9025594,72.3851073 55.9958074,69.896555 52.4338935,63.517844 C48.8719797,57.1391146 50.9096203,49.1192245 57.0853372,45.2052672 C59.4012302,43.7375346 61.9926283,43.0405541 64.5528837,43.0561415 Z M8.23076923,44.7732838 L19.3076923,44.7732838 L19.3076923,48.4595583 L8.23076923,48.4595583 L8.23076923,44.7732838 Z M64.5384615,44.7732838 C57.9219754,44.7732653 52.5384615,50.1479992 52.5384615,56.7536759 C52.5384615,63.3593305 57.9219754,68.7340681 64.5384615,68.7340681 C71.1549477,68.7340681 76.5384615,63.3593305 76.5384615,56.7536759 C76.5384615,50.1479992 71.1549477,44.7732653 64.5384615,44.7732838 Z M101.497596,45.5940549 C101.226461,45.5944638 100.966601,45.7024234 100.775218,45.8941692 C100.583835,46.0859149 100.476616,46.3457293 100.477164,46.616421 C100.478015,47.1787167 100.93438,47.6343357 101.497596,47.6351856 C101.76873,47.635732 102.02897,47.5286886 102.22103,47.3376183 C102.413089,47.146548 102.521225,46.887113 102.521635,46.616421 C102.522184,46.3451051 102.41447,46.0847439 102.222307,45.8928941 C102.030143,45.7010444 101.769356,45.5935071 101.497596,45.5940549 Z M11.9338943,45.6948524 L11.9338943,47.5379896 L15.6045673,47.5379896 L15.6045673,45.6948524 L11.9338943,45.6948524 Z M40.5240394,46.616421 C40.2792224,46.6202344 40.0459505,46.7209886 39.8755435,46.8965177 C39.7051366,47.0720468 39.6115542,47.3079715 39.6153846,47.5523882 L39.6153846,51.6346497 L39.3305286,51.3682574 C39.1506644,51.1962169 38.9087966,51.1040424 38.659856,51.1126677 C38.2835888,51.1251172 37.9525881,51.3644277 37.8233577,51.7174487 C37.6941274,52.0704696 37.7925599,52.4664695 38.0721145,52.7182117 L39.9110572,54.424555 C40.2650419,54.7519727 40.8118812,54.7519727 41.1658658,54.424555 L43.0048086,52.7182117 C43.3781983,52.371278 43.3991848,51.7878352 43.0516833,51.4150556 C42.7041819,51.0422761 42.1197842,51.0213238 41.7463945,51.3682574 L41.4615385,51.6346497 L41.4615385,47.5523882 C41.4654473,47.3029784 41.3679311,47.0626374 41.1912614,46.8862564 C41.0145918,46.7098755 40.7738574,46.6125186 40.5240394,46.616421 L40.5240394,46.616421 Z M64.5384615,46.616421 C66.8897526,46.6164118 69.0431951,47.4178964 70.7620197,48.7511481 C70.6918658,48.7839652 70.6205194,48.8105506 70.5637022,48.9023425 C70.4863483,49.0273072 70.2699126,49.129135 70.0841342,49.129135 C69.8983742,49.129135 69.5285674,49.3347794 69.2620197,49.5827182 C68.9158289,49.9042166 68.6960332,49.9660133 68.4939902,49.7987118 C68.1774117,49.5363043 67.822064,49.8879528 68.0432702,50.2450975 C68.113424,50.3590034 67.9675742,50.3997883 67.7187495,50.3350942 C67.469888,50.2692942 67.0853157,50.2964805 66.8641834,50.3926922 C66.6430511,50.4890883 66.3848166,50.5497607 66.2908658,50.5294862 C66.1968966,50.5095803 66.1213945,50.5984545 66.1213945,50.72388 C66.1213945,50.8490291 65.917664,50.7433804 65.6670671,50.4934879 C65.0437686,49.8711157 64.6799563,49.9202409 63.860576,50.7382805 C63.0994806,51.4980585 62.9736505,51.9690667 63.4819705,52.163831 C63.6936689,52.2449291 63.8884843,52.0566858 64.0408658,51.6202493 C64.3082074,50.8546285 64.775984,50.6986512 64.5817317,51.4402559 C64.489976,51.790839 64.5361022,51.8810329 64.7367791,51.7570451 C64.9431606,51.6296843 64.9355748,51.7108487 64.715144,52.0630354 C64.5504671,52.3262538 64.3152006,52.5468976 64.1887022,52.559818 C63.1825483,52.6359396 62.4759606,53.0609984 62.4759606,53.5929831 C62.4759606,53.7653164 62.3650215,53.9061726 62.2307692,53.9061726 C62.0963692,53.9061726 62.0188308,54.147172 62.0576923,54.4425532 C62.0962769,54.7378238 61.995248,55.1378436 61.8341342,55.3317232 C61.3953772,55.8595055 61.231832,57.255153 61.5600966,57.6500452 C61.7140658,57.8355201 62.1769575,58.0516187 62.5913452,58.1288277 C63.3834191,58.2772003 63.6054098,58.6638868 63.6117791,59.8999684 C63.6133668,60.2562284 63.7786695,60.891849 63.979568,61.31472 C64.2931003,61.9742498 64.4091182,62.0513887 64.7908658,61.8475009 C65.0354812,61.7166382 65.2885834,61.435486 65.3533649,61.2247233 C65.4181649,61.0141817 65.5653865,60.664345 65.6814911,60.4471497 C65.7976142,60.2299913 65.8942308,59.8005071 65.8942308,59.4931824 C65.8942308,59.1860236 66.1186197,58.5503532 66.395432,58.0820305 C66.875672,57.2696309 66.8790874,57.2375529 66.4531243,57.3872544 C66.1551735,57.4919445 66.2152234,57.3872986 66.6334142,57.0704633 C67.2534265,56.6010365 67.4993729,55.898392 67.0048086,56.0085011 C66.8637606,56.0398344 66.6987791,55.9368215 66.6406252,55.7781089 C66.5557022,55.5463344 66.6635526,55.5424583 67.1814911,55.7637085 C68.1600449,56.1816398 68.3564498,56.3793034 68.5156252,57.1028638 C68.6572252,57.7509662 69.1734394,58.3549807 69.0528837,57.7364422 C68.9626068,57.2723034 69.3071175,56.4080877 69.5829329,56.4080877 C69.7165945,56.4080877 70.06856,56.6679387 70.3653846,56.9876677 C70.9469046,57.6141685 71.4611563,57.5408301 71.2451914,56.8616709 C71.153624,56.573183 71.2532572,56.3988093 71.5661065,56.3000909 C72.0871649,56.1349458 72.3103871,55.6075671 72.1682683,54.8709389 C72.080576,54.4160526 72.1215458,54.3847598 72.5396628,54.608148 C72.8423951,54.7707127 72.9584849,54.7778383 72.8641834,54.6261481 C72.7836911,54.4960226 72.9379114,54.1850485 73.2067298,53.9349716 C73.5582578,53.6085705 73.6568849,53.3228326 73.5564911,52.9234045 C73.4878142,52.6502331 73.4980474,52.4377102 73.6069705,52.2718278 C73.4555938,51.945865 73.2883266,51.627495 73.1057692,51.3178605 C74.1059212,52.8885673 74.6923077,54.7497507 74.6923077,56.7536759 C74.6923077,58.0044897 74.4559723,59.1945205 74.0432702,60.299555 C73.8087865,60.3386885 73.4573508,60.5551649 73.0877397,60.9403327 C72.566312,61.483579 72.4816566,61.7262298 72.6081735,62.3010859 C72.6538326,62.5086914 72.6916492,62.6379911 72.7343748,62.7294716 C70.8892825,65.2492687 67.9129797,66.8909308 64.5384615,66.8909308 C61.9502978,66.8909308 59.6010689,65.9196049 57.8100966,64.3350174 C57.8904098,64.1603617 57.9878794,63.999688 58.0913452,63.913831 C58.7417286,63.3741236 59.9091772,61.5261665 60.0745188,60.7747379 C60.1989495,60.2093555 60.1442942,60.0622824 59.7572111,59.9395663 C59.4990449,59.857731 59.2884615,59.6572032 59.2884615,59.4931824 C59.2884615,59.3291432 58.9528788,59.0715519 58.5456726,58.9208017 C58.1384849,58.7700331 57.6443378,58.5625327 57.4459132,58.4600174 C57.3766825,58.4240762 57.3142418,58.4052817 57.2584142,58.406019 C57.0911526,58.4075672 56.9712966,58.5853231 56.8185089,59.0071987 C56.4436289,60.0422309 56.4859058,60.517423 57.0024043,61.0663277 C57.4123428,61.5019164 57.4364812,61.7066852 57.2512012,63.3558507 C57.2309508,63.5358791 57.2360831,63.6234337 57.2223551,63.7806367 C55.4672388,61.9595213 54.3846154,59.4878078 54.3846154,56.7536759 C54.3846154,56.5680609 54.4036566,56.3860143 54.4134615,56.2028931 C54.9563582,56.9258839 55.6075095,57.6019522 56.1225957,57.8696365 C56.4222449,58.0257503 56.7198302,58.1042919 56.7824517,58.0460303 C56.8450363,57.9876029 56.7725988,57.8941964 56.6237988,57.8408375 C56.4735218,57.7873865 56.4042634,57.6083497 56.4687495,57.4412509 C56.5418572,57.2501544 56.4294283,57.1498067 56.1694714,57.1712608 C55.8956314,57.1939314 55.7548086,57.0508744 55.7548086,56.7500744 C55.7548086,56.4028827 55.9047403,56.2907886 56.3822111,56.3036905 C56.7330726,56.30922 57.0096154,56.1914527 57.0096154,56.0336986 C57.0096154,55.648446 58.0128265,54.5936407 58.4014418,54.5721497 C58.6326357,54.5574046 58.6425089,54.522632 58.4338935,54.4389536 C57.8711858,54.2122477 58.146344,53.8581663 58.7728363,54.0033686 C59.237624,54.1108235 59.3112062,54.088199 59.0576923,53.9169716 C58.8696615,53.790348 58.8158535,53.6829798 58.9350966,53.6829798 C59.0541735,53.6814131 58.7975877,53.3312631 58.3653846,52.9054062 C57.5362585,52.0891545 57.2367791,52.0560591 57.2367791,52.7830109 C57.2367791,53.3127101 57.0175243,53.3404806 56.4254812,52.8838065 C56.0240535,52.5741963 56.0179502,52.5163329 56.3497594,52.2574274 C56.5507686,52.1005764 56.7868289,51.7428419 56.8762012,51.4618556 C57.0523243,50.9079744 57.3454418,50.8015793 57.5937495,51.2026644 C57.6799649,51.341637 57.6266978,51.5338541 57.4747594,51.6274504 C57.2764086,51.7498329 57.3102782,51.8413299 57.5973551,51.9514389 C58.0058351,52.1081056 58.4274228,51.7132282 58.3004812,51.2926611 C58.2181631,51.0200851 57.1697305,50.4450742 56.6742782,50.3350942 C56.7739926,50.2133365 56.8827883,50.0992298 56.9879803,49.9823048 L56.9915858,49.9823048 C57.3045717,49.6345804 57.6359231,49.3047123 57.9939902,49.0031382 C58.348088,49.2312596 58.8275988,49.9682085 58.9567298,50.569086 C59.0418375,50.9654158 59.2091951,51.4764883 59.3281243,51.7030467 C59.6039582,52.2282855 60.0630025,52.0850277 60.1574517,51.4438555 C60.1975132,51.1723061 60.3093828,50.9470729 60.4062505,50.9470729 C60.5031735,50.9470729 60.7671532,50.6043176 60.9939902,50.183898 L61.4086548,49.4207249 L60.7451914,48.5927526 C60.2710806,47.9995204 60.035984,47.7630422 59.7355778,47.8187787 C59.7225015,47.8212006 59.7056554,47.8332584 59.6923077,47.8367788 C61.1311871,47.057622 62.7826012,46.6164136 64.5384615,46.616421 Z M63.8569705,48.2147657 C63.8091551,48.2092363 63.7564825,48.2337666 63.7055286,48.2831627 C63.6303902,48.3581784 63.6509526,48.5493836 63.7487988,48.7079487 C63.8924295,48.9389675 63.9456302,48.9390781 64.0228363,48.7079487 C64.105544,48.460913 64.000232,48.2286445 63.8569705,48.2147657 Z M59.0576923,48.221965 C58.9856129,48.2782544 58.905368,48.3161272 58.8269231,48.3659601 C58.9018972,48.3150545 58.9812929,48.2709003 59.0576923,48.221965 Z M67.6213945,48.9023425 C67.4304652,48.9023425 67.1620363,49.1179011 67.0228363,49.3775254 C66.7927871,49.8066815 66.813632,49.8242171 67.2319705,49.6007183 C67.8468874,49.2721791 68.0513452,48.9023425 67.6213945,48.9023425 Z M8.23076923,50.3026955 L19.3076923,50.3026955 L19.3076923,59.5327804 L8.23076923,59.5327804 L8.23076923,50.3026955 Z M98.8978363,50.3026955 L104.01803,50.3026955 L104.01803,51.8254421 L104.01803,52.1458328 C104.01803,52.8177964 104.21103,53.442854 104.526442,53.98897 L98.3966351,53.98897 C98.7120468,53.442854 98.9050474,52.8177964 98.9050474,52.1458328 C98.9050849,52.1410327 98.9050849,52.1362324 98.9050474,52.1314324 L98.8978363,51.8182428 L98.8978363,50.3026955 Z M56.4435089,50.6410826 C56.4705255,50.7010749 56.489264,50.7596977 56.5372603,50.8174764 C56.7661465,51.0929517 56.7375791,51.1475141 56.360576,51.119867 C56.265728,51.1127046 56.2013729,51.0792959 56.1406252,51.0478685 C56.2359366,50.9080998 56.3414905,50.7757017 56.4435089,50.6410826 Z M61.2247594,50.7994782 C60.8677132,50.7994782 60.7778203,51.0012464 61.0264418,51.2494617 C61.1966572,51.4193989 61.5637022,51.2316809 61.5637022,50.9758719 C61.5637022,50.8794758 61.4125686,50.7994782 61.2247594,50.7994782 Z M72.8822111,50.9758719 C72.9470332,51.0691365 73.0079858,51.1647437 73.069712,51.2602625 C73.0086836,51.1645065 72.9461758,51.0696983 72.8822111,50.9758719 Z M62.4002406,52.2250287 C62.3339637,52.215813 62.2488745,52.2824775 62.1117791,52.4194225 C61.7435268,52.7872575 61.684952,53.0916571 62.0216351,52.8838065 C62.1468043,52.8065791 62.2484111,52.8739973 62.2487988,53.0314013 C62.2490018,53.2281562 62.3215243,53.2432035 62.4831735,53.0818 C62.6125889,52.9527804 62.6561231,52.678728 62.5769231,52.4734209 C62.5152615,52.313068 62.4665175,52.2328252 62.4002406,52.2250287 Z M66.5829329,53.564184 C66.7330252,53.4714742 67.0211858,54.1708527 67.0300474,54.647746 C67.0316166,54.7411931 66.9425914,54.8169405 66.8317317,54.8169405 C66.5756886,54.8169405 66.3544714,53.705184 66.5829329,53.564184 Z M65.5769231,53.603782 C65.7353231,53.6148408 65.8166683,53.726487 65.8329329,53.9421709 C65.8495483,54.1740007 65.8461163,54.3486583 65.8221145,54.3345583 C65.7986702,54.3198132 65.6014788,54.2622833 65.3822111,54.2049618 C64.8657495,54.0702284 64.8714172,53.7615896 65.3930295,53.6253817 C65.4628142,53.6069504 65.5241231,53.6000957 65.5769231,53.603782 Z M63.5865385,53.8161759 C63.7747723,53.8088015 63.9320702,53.878203 63.9939902,54.0393669 C64.0622978,54.217414 64.3120658,54.3633555 64.5492782,54.3633555 C64.7864166,54.3633555 64.9819705,54.4648515 64.9819705,54.590148 C64.9819705,54.7151127 65.1435828,54.8169405 65.3389428,54.8169405 C65.5342658,54.8169405 65.6291286,54.9184181 65.5516825,55.043733 C65.4743286,55.1686977 65.0069748,55.2705255 64.5132209,55.2705255 C64.0194671,55.2705255 63.6153846,55.1692322 63.6153846,55.043733 C63.6153846,54.9187683 63.3560554,54.8169405 63.0384615,54.8169405 C62.5443385,54.8169405 62.4931022,54.7569298 62.6887022,54.3921563 C62.8743329,54.0459027 63.2727477,53.8266265 63.5865385,53.8161759 Z M73.9170671,53.9097723 C73.8260517,53.9108597 73.6327926,54.166842 73.4879803,54.4785515 C73.3430572,54.7903569 73.3008708,55.043733 73.3942308,55.043733 C73.4876462,55.043733 73.6806283,54.7877138 73.8233175,54.4749519 C73.9662098,54.1623742 74.0084702,53.9097723 73.9170671,53.9097723 Z M65.4579329,55.7565092 C65.496464,55.7472382 65.6405231,55.952313 65.8076923,56.2604911 C66.0003754,56.6154793 66.1157822,56.9468773 66.0637022,56.9984667 C65.9629022,57.099102 65.4315902,56.0412407 65.4471163,55.7709078 C65.4477458,55.7614764 65.453456,55.7592684 65.4579329,55.7565092 Z M99.3882209,55.8321073 L100.538462,55.8321073 L100.538462,57.6752445 L99.3882209,57.6752445 L99.3882209,55.8321073 Z M102.384615,55.8321073 L103.080529,55.8321073 L103.080529,79.9764847 L25.5420671,79.9764847 L25.5420671,56.8832706 L29.2343748,56.8832706 L29.2343748,75.3434422 C29.2344257,75.8523894 29.6476715,76.2649599 30.1574517,76.2650108 L98.465144,76.2650108 C98.9749242,76.2649599 99.38817,75.8523894 99.3882209,75.3434422 L99.3882209,59.5183818 L101.461538,59.5183818 C101.971319,59.5183309 102.384564,59.1057604 102.384615,58.5968132 L102.384615,55.8321073 Z M56.9374991,56.868872 C56.7744837,56.8704387 56.8041385,56.9595046 57.0096154,57.092063 C57.4472646,57.3743948 57.526976,57.3743948 57.3521637,57.092063 C57.2748098,56.9667297 57.0867237,56.868872 56.9374991,56.868872 Z M70.5889428,57.8516383 C70.5071582,57.8368932 70.4483175,57.8892715 70.4483175,57.9884323 C70.4483175,58.1205852 70.5537883,58.2296252 70.6790868,58.2296252 C70.8044406,58.2296252 70.9062505,58.1848591 70.9062505,58.1288277 C70.9062505,58.0735336 70.804256,57.9648088 70.6790868,57.8876366 C70.6477022,57.8680994 70.6160812,57.8562462 70.5889428,57.8516383 Z M71.8906252,57.8624373 C71.8706092,57.8627008 71.8459151,57.8744287 71.8149034,57.8912363 C71.6908418,57.9675422 71.5877397,58.1263395 71.5877397,58.2440238 C71.5877397,58.5712175 71.7499649,58.4977464 71.9014418,58.1036284 C71.9595957,57.953044 71.9532098,57.8642988 71.8906252,57.8624373 Z M72.5829329,58.7804062 C72.5818437,58.7914651 72.5929483,58.816928 72.6117791,58.8560025 C72.6911637,59.0123005 72.6471606,59.1403931 72.5144222,59.1403931 C72.3816855,59.1403931 72.2728363,59.2539285 72.2728363,59.3923849 C72.2728363,59.5302516 72.4275938,59.5834132 72.6153846,59.5111807 C72.8033415,59.4396669 72.9543274,59.479346 72.9543274,59.6011774 C72.9543274,59.7228244 73.0071274,59.8207706 73.069712,59.8207706 C73.2918043,59.8207706 73.1780757,59.4497839 72.8245188,59.014398 C72.6766418,58.8319275 72.5858129,58.7456078 72.5829329,58.7804062 Z M71.4182683,58.9532004 C71.3379625,58.962416 71.483624,59.2517941 71.8798068,59.7631725 C72.0009145,59.9194706 72.1889138,60.0475631 72.2980769,60.0475631 C72.4071846,60.0475631 72.2747489,59.7951252 72.0024043,59.4823816 C71.6816351,59.114086 71.4807809,58.9468968 71.4182683,58.9532004 Z M66.5612978,59.9575664 C66.5264055,59.9501938 66.4827145,59.9576936 66.4278855,59.9791661 C66.2595163,60.0438584 66.1213945,60.293104 66.1213945,60.5299471 C66.1213945,61.1489648 66.5056917,61.0593091 66.6298068,60.4111496 C66.6861145,60.1167102 66.666344,59.9749287 66.5612978,59.9575664 Z M8.23076923,61.3759176 L19.3076923,61.3759176 L19.3076923,65.0477936 L8.23076923,65.0477936 L8.23076923,61.3759176 Z M13.704327,62.1174929 C13.2198025,62.152232 12.8446379,62.5629793 12.8461538,63.0570597 C12.8477742,63.5744635 13.2605751,63.9930298 13.7692308,63.9930288 C14.2778864,63.9930298 14.6906873,63.5744635 14.6923077,63.0570597 C14.6924659,62.8079274 14.5952834,62.5689438 14.4221559,62.3927234 C14.2490283,62.2165031 14.0141496,62.1174936 13.7692308,62.1174929 C13.7476029,62.116719 13.7259549,62.116719 13.704327,62.1174929 Z M85.2103372,63.3414503 L85.2103372,64.3350174 C86.8067249,64.3256358 88.3453465,64.9572771 89.479568,66.0845583 C90.5512788,67.1586447 91.1747286,68.5974787 91.2247594,70.1092199 L92.2199526,70.1128195 C92.1692018,68.3378415 91.4371298,66.6436555 90.1790868,65.382581 C88.8591052,64.06765 87.0703372,63.3322346 85.2103372,63.3414503 Z M43.444712,65.0477936 C43.0137274,65.0312035 42.5759028,65.0892807 42.1466351,65.2313866 C40.4296197,65.7996627 39.3739465,67.538036 39.6622603,69.3208474 C39.9506295,71.1036404 41.4987938,72.4167595 43.3076923,72.4167411 C43.4741397,72.4190912 43.6289606,72.3317839 43.7128713,72.1882507 C43.7967819,72.0447175 43.7967819,71.8671961 43.7128713,71.7236629 C43.6289606,71.5801297 43.4741397,71.4928223 43.3076923,71.4951725 C41.9453231,71.4951909 40.7917003,70.515886 40.5745188,69.1732527 C40.3573926,67.8306009 41.1419397,66.5341511 42.4350966,66.1061562 C43.728272,65.6781428 45.1338671,66.2499245 45.7632209,67.4561104 C46.3580148,68.5961093 46.0641532,69.9557621 45.110576,70.7895974 C45.0821471,70.7578955 45.0600966,70.717704 45.0600966,70.667202 L45.0600966,70.4728082 C45.0603265,70.46441 45.0603265,70.456007 45.0600966,70.4476088 C45.0602656,70.4404099 45.0602656,70.433208 45.0600966,70.4260091 C45.0601388,70.4224096 45.0601388,70.4188097 45.0600966,70.4152102 L45.0600966,69.8716284 C45.0608905,69.8560388 45.0608905,69.840419 45.0600966,69.8248293 L45.0600966,67.700903 C45.0608898,67.6853134 45.0608898,67.6696936 45.0600966,67.6541039 L45.0600966,67.1177215 C45.062051,66.9930163 45.0132927,66.8728454 44.9249575,66.7846549 C44.8366222,66.6964644 44.7162546,66.6477862 44.5913452,66.6497379 C44.3768403,66.653309 44.1930765,66.8039584 44.1478363,67.0133262 C43.9077625,66.9718556 43.6635994,66.9716713 43.4266825,67.0133262 C42.9579994,67.0957144 42.5173058,67.3381331 42.1935089,67.7225009 C41.5460074,68.4911813 41.5460074,69.6213304 42.1935089,70.3900108 C42.6986166,70.9895833 43.4864997,71.2274973 44.2235582,71.0703883 C44.3605428,71.4100232 44.6627526,71.6517341 45.0276449,71.7291661 C45.1525083,71.7932017 45.2997402,71.7971742 45.4278855,71.7399651 C45.4388838,71.7355823 45.449709,71.7307786 45.4603372,71.7255646 C45.4639764,71.7232156 45.4675823,71.7208156 45.4711538,71.7183653 C45.4723623,71.7171721 45.4735642,71.7159722 45.4747594,71.7147657 C45.4833219,71.7102307 45.4917396,71.7054282 45.5,71.7003653 C45.5422611,71.6741901 45.5800074,71.6413683 45.6117791,71.6031693 C46.9792622,70.5084195 47.3969748,68.5902444 46.5817317,67.0277248 C45.9549791,65.8264969 44.7376843,65.0977057 43.444712,65.0477936 Z M85.2139428,65.3285826 L85.2175483,66.3185501 C86.286896,66.3082654 87.3188185,66.728062 88.0769231,67.4849095 C88.7760431,68.1853938 89.1896111,69.1165504 89.2379803,70.1020206 L90.2331735,70.1056202 C90.1837151,68.8569132 89.6610265,67.6711603 88.7764418,66.782934 C87.8302695,65.8410356 86.5467182,65.3193669 85.2139428,65.3285826 Z M85.2211538,67.18972 L85.2211538,68.1832852 C85.7227169,68.2024538 86.1995526,68.4113126 86.555288,68.7664667 C86.9101003,69.1222291 87.1169858,69.5978802 87.1358166,70.0984209 L88.1310098,70.1020206 C88.1113852,69.3382245 87.8008142,68.6096029 87.2584142,68.0680891 C86.7155342,67.5265017 85.9865692,67.2099945 85.2211538,67.18972 Z M43.5853372,67.9168947 C43.7679218,67.8851928 43.9551366,67.9159547 44.1370197,67.9744928 L44.1370197,69.8392298 C44.1366393,69.850026 44.1366393,69.8608322 44.1370197,69.8716284 L44.1370197,70.1344193 C43.6958074,70.2767095 43.2091022,70.1628146 42.9002406,69.7960303 C42.5371945,69.365068 42.5371945,68.7438441 42.9002406,68.3128817 C43.0817175,68.0973637 43.325048,67.9621069 43.5853372,67.9168947 Z M85.3725957,69.209251 C85.1712842,69.2057242 84.9775048,69.2836291 84.8353372,69.4252445 C84.6953365,69.5646982 84.6170164,69.7543576 84.617693,69.95229 C84.6183696,70.1502224 84.6979872,70.3401236 84.8389428,70.4800075 C84.9790556,70.6207328 85.1692676,70.7002203 85.367524,70.7008958 C85.5657803,70.7015713 85.7557501,70.6233791 85.895432,70.4836071 C86.0354327,70.3441535 86.1137529,70.1544941 86.1130763,69.9565617 C86.1123997,69.7586293 86.0327821,69.5687281 85.8918265,69.4288442 C85.7538074,69.2908587 85.5674303,69.2120361 85.3725957,69.209251 L85.3725957,69.209251 Z M20.1874991,81.8196219 L55.0805286,81.8196219 L55.0805286,83.34597 C55.0805286,85.1804813 56.5534437,86.7118556 58.3798068,86.7118556 L70.2463945,86.7118556 C72.0727575,86.7118556 73.5420671,85.1804629 73.5420671,83.34597 L73.5420671,81.8196219 L108.435097,81.8196219 C107.96117,85.9387388 104.624567,89.1381725 100.361779,89.1381725 L28.2608166,89.1381725 C23.9979366,89.1381725 20.6613348,85.9388494 20.1874991,81.8196219 Z M56.9266825,81.8196219 L71.6959132,81.8196219 L71.6959132,83.34597 C71.6959132,84.2223633 71.0500068,84.8687184 70.2463945,84.8687184 L58.3798068,84.8687184 C57.5762129,84.8687184 56.9266825,84.2223449 56.9266825,83.34597 L56.9266825,81.8196219 Z" transform="translate(0 .176)"/>
</svg>
