<svg xmlns="http://www.w3.org/2000/svg" xmlns:xlink="http://www.w3.org/1999/xlink" width="70" height="65"><use fill="#717D83" xlink:href="#path0_fill"/><defs><path id="path0_fill" d="M20.02 0c-2.2 0-4.2 1.2-5.24 3.13L.71 29.26a5.92 5.92 0 0 0 0 5.63l14.07 26.14a5.93 5.93 0 0 0 5.24 3.12h29.96c2.2 0 4.2-1.2 5.24-3.12L69.29 34.9a5.92 5.92 0 0 0 0-5.63L55.22 3.12A5.94 5.94 0 0 0 49.98 0H20.02zm0 2.38h29.96c1.31 0 2.52.71 3.14 1.87L67.19 30.4a3.55 3.55 0 0 1 0 3.38L53.12 59.9a3.57 3.57 0 0 1-3.14 1.88H20.02a3.55 3.55 0 0 1-3.14-1.88L2.8 33.77a3.56 3.56 0 0 1 0-3.38L16.89 4.25a3.57 3.57 0 0 1 3.14-1.87zm3.32 4.75c-1.3 0-2.5.7-3.13 1.85L8.45 30.36a3.53 3.53 0 0 0 0 3.43l11.76 21.4a3.57 3.57 0 0 0 3.13 1.84h.97a1.19 1.19 0 1 0-.01-2.38h-.96a1.2 1.2 0 0 1-1.04-.61L10.53 32.65a1.2 1.2 0 0 1 0-1.15L22.3 10.12c.2-.38.6-.62 1.04-.62h23.32c.44 0 .84.24 1.05.62L59.47 31.5c.2.36.2.8 0 1.15L47.7 54.04c-.21.37-.61.61-1.05.61h-.97a1.19 1.19 0 1 0 .01 2.38h.96c1.3 0 2.5-.7 3.13-1.85l11.76-21.39a3.54 3.54 0 0 0 0-3.43L49.79 8.98a3.57 3.57 0 0 0-3.13-1.85H23.34zM35.04 19c-.1 0-.18.03-.28.05a2.3 2.3 0 0 0-1.44.68 2.3 2.3 0 0 0-.6 1.73l1.1 14.26h.04v1.1a1.19 1.19 0 1 0 2.37 0v-1.76l1.05-13.6a2.2 2.2 0 0 0-1.87-2.39 1.2 1.2 0 0 0-.36-.07zm0 21.38a2.37 2.37 0 1 0 0 4.75 2.37 2.37 0 0 0 0-4.75zm-5.98 13.07c-.66 0-1.19.53-1.19 1.19v2.38c0 .66.53 1.18 1.19 1.18.66 0 1.19-.52 1.19-1.18v-2.38c0-.66-.53-1.19-1.19-1.19zm5.94 0c-.66 0-1.19.53-1.19 1.19v2.38c0 .66.53 1.18 1.19 1.18.66 0 1.19-.52 1.19-1.18v-2.38c0-.66-.53-1.19-1.19-1.19zm5.94 0c-.66 0-1.19.53-1.19 1.19v2.38c0 .66.53 1.18 1.19 1.18.66 0 1.19-.52 1.19-1.18v-2.38c0-.66-.53-1.19-1.19-1.19z"/></defs></svg>