<?xml version="1.0" encoding="UTF-8" standalone="no"?>
<svg width="24px" height="24px" viewBox="0 0 24 24" version="1.1" xmlns="http://www.w3.org/2000/svg" xmlns:xlink="http://www.w3.org/1999/xlink">
    <!-- Generator: Sketch 39 (31667) - http://www.bohemiancoding.com/sketch -->
    <title>Shape</title>
    <desc>Created with Sketch.</desc>
    <defs></defs>
    <g id="Блокировка" stroke="none" stroke-width="1" fill="none" fill-rule="evenodd" opacity="0.5">
        <g id="Блокировка-сеанса" transform="translate(-370.000000, -203.000000)" fill="#FFFFFF">
            <g id="icon_timer" transform="translate(370.000000, 203.000000)">
                <path d="M11.52,0 L11.52,0.48 L11.52,4.8 C11.5175519,4.97310524 11.6085001,5.13411905 11.758019,5.22138611 C11.9075378,5.30865316 12.0924622,5.30865316 12.241981,5.22138611 C12.3914999,5.13411905 12.4824481,4.97310524 12.48,4.8 L12.48,1.005 C18.3546566,1.26178267 23.04,6.06180048 23.04,12 C23.04,18.1035197 18.1035197,23.04 12,23.04 C5.89648032,23.04 0.96,18.1035197 0.96,12 C0.96,8.95014192 2.18896085,6.19833984 4.185,4.2 C4.32812382,4.08466534 4.39282376,3.89773025 4.35161781,3.71859738 C4.31041187,3.53946452 4.17053548,3.39958813 3.99140262,3.35838219 C3.81226975,3.31717624 3.62533466,3.38187618 3.51,3.525 C1.34155915,5.69594016 0,8.69081808 0,12 C0,18.6222403 5.37775968,24 12,24 C18.6222403,24 24,18.6222403 24,12 C24,5.37822 18.6222643,0 12,0 L11.52,0 L11.52,0 Z M5.985,5.985 C5.985,5.985 10.41744,12.45744 10.98,13.02 C11.54256,13.58256 12.45792,13.58208 13.02,13.02 C13.58256,12.45792 13.58256,11.54256 13.02,10.98 C12.45744,10.41744 5.985,5.985 5.985,5.985 L5.985,5.985 Z" id="Shape"></path>
            </g>
        </g>
    </g>
</svg>