<svg xmlns="http://www.w3.org/2000/svg" width="70" height="70" fill="none"><path fill="#41CFC8" d="M32.54 61.17l1.09-7.62 4.76-2.74 4.51 4.51-2.74 4.76-7.62 1.09z"/><path fill="#2E6493" d="M37.1 55.02l-4.83 4.82H7.9v2.26h25.97v-.66l4.82-4.82-1.6-1.6z"/><path fill="#2E6493" d="M68.12 30.4l1.28-1.28c.8-.8.8-2.09 0-2.88l-1.93-1.93c-.8-.8-2.09-.8-2.88 0l-7 7V10.17h9.02V6.21A6.22 6.22 0 0 0 60.41 0H6.2A6.22 6.22 0 0 0 0 6.21V70h57.58V40.94L66.53 32l.4.41a2.06 2.06 0 0 1 0 2.94l-5.63 5.64 1.6 1.6 5.63-5.65a4.34 4.34 0 0 0 0-6.12l-.4-.41zm-2.09-4.34l1.62 1.62-1.12 1.12-1.62-1.62 1.12-1.12zM64.35 6.2v1.7H12.42V6.2c0-1.5-.54-2.88-1.42-3.95h49.4a3.96 3.96 0 0 1 3.95 3.95zm-9.03 61.53H2.26V6.21a3.96 3.96 0 0 1 7.9 0v3.95h45.16v23.42L37.9 50.99l4.81 4.82L55.32 43.2v24.54zm-12.6-18.36l1.61 1.61-1.62 1.62L41.1 51l1.61-1.61zm3.21.02l-1.62-1.62 19-19 1.62 1.62-19 19z"/><path fill="#2E6493" d="M51.94 15.8H5.64v2.26h46.3v-2.25z"/><path fill="#41CFC8" d="M51.94 21.45H5.64v2.26h46.3v-2.26z"/><path fill="#2E6493" d="M51.94 27.1H5.64v2.25h46.3V27.1z"/><path fill="#41CFC8" d="M51.94 32.74H5.64V35h46.3v-2.26z"/></svg>