<svg xmlns="http://www.w3.org/2000/svg" width="75" height="58"><path d="M23.1.3l-.6.3L7.2 12.4a1.5 1.5 0 0 0-.5.3 1.5 1.5 0 0 0-.2.4l-.2.2L.4 25.1a1.5 1.5 0 0 0 2 2l3.9-2v30.5c0 .9.6 1.5 1.5 1.5h44.8a1.5 1.5 0 0 0 .5 0 1.5 1.5 0 0 0 .7-.5v-.2h.1l11.8-14.8c.2-.2.3-.6.3-1V26.5l8.6-8.6c.5-.5.5-1.2.2-1.8L66 1.5a1 1 0 0 0-.3-.7l-.1-.2h-.2l-.3-.2h-.2a1.5 1.5 0 0 0-.2 0 1.5 1.5 0 0 0-.1 0H23.3c0-.1 0-.1-.1 0 0-.1-.1-.1-.2 0zm.8 3h37l-9 9H12.2l11.7-9zm40.4 1l7.3 12.2-9.8 9.8L54.5 14l9.8-9.8zm-55 11H51v38.9H9.3V15.3zM54 19l6.2 10.4a1.5 1.5 0 0 0 2.3.3l.4-.4v10.8l-9 11.2V19zM6.2 20v1.7l-1.1.6 1-2.3zm16 1.1a1.5 1.5 0 0 0 .4 3h15a1.5 1.5 0 1 0 0-3H22.2z" opacity=".3"/></svg>