<svg xmlns="http://www.w3.org/2000/svg" width="70" height="67"><path d="M1.6 0v9.57c-.11.5-1.6 7.72-1.6 11.97 0 2.2.43 4.3 1.6 5.98V67h66.8V27.52c1.16-1.68 1.59-3.79 1.59-5.98 0-4.2-1.46-11.23-1.6-11.87V0H1.6zm3.17 3.19h60.46v4.79h-7.66a1.59 1.59 0 0 0-.65 0H46.48a1.59 1.59 0 0 0-.5-.05l-.14.05h-10.5a1.59 1.59 0 0 0-.49-.05l-.15.05H24.21a1.59 1.59 0 0 0-.5-.05l-.14.05H13.08a1.59 1.59 0 0 0-.5-.05l-.15.05H4.78V3.19zm-.2 7.98h6.57v14.15a5.44 5.44 0 0 1-3.98 1.8c-1.23 0-2-.31-2.59-.9a1.6 1.6 0 0 0-.4-.5c-.63-.91-.99-2.42-.99-4.18 0-3.15 1.12-8.91 1.4-10.37zm9.75 0h7.95v14.15a5.44 5.44 0 0 1-3.97 1.8 5.44 5.44 0 0 1-3.98-1.8V11.17zm11.13 0h7.96v14.15a5.44 5.44 0 0 1-3.98 1.8 5.44 5.44 0 0 1-3.98-1.8V11.17zm11.14 0h7.96v14.2a5.45 5.45 0 0 1-3.98 1.75 5.44 5.44 0 0 1-3.98-1.8V11.17zm11.14 0h7.95v14.2a5.45 5.45 0 0 1-3.98 1.75 5.45 5.45 0 0 1-3.97-1.75v-14.2zm11.13 0h6.57c.27 1.46 1.39 7.22 1.39 10.37 0 1.57-.29 2.9-.8 3.83a1.6 1.6 0 0 0-.74 1c-.56.5-1.31.75-2.44.75a5.45 5.45 0 0 1-3.98-1.75v-14.2zm-12.72 16.8a8.4 8.4 0 0 0 5.56 2.34c2.2 0 4.05-1 5.57-2.34 1.53 1.34 3.38 2.34 5.57 2.34a7.4 7.4 0 0 0 2.39-.4v33.9h-4.78V35.09h-17.5v28.73H4.77v-33.9c.73.25 1.54.4 2.39.4a8.4 8.4 0 0 0 5.57-2.3 8.41 8.41 0 0 0 5.57 2.3c2.18 0 4.04-.96 5.56-2.3a8.41 8.41 0 0 0 5.57 2.3 8.4 8.4 0 0 0 5.57-2.3 8.41 8.41 0 0 0 5.57 2.3c2.2 0 4.04-1 5.57-2.34zM9.54 35.1v23.93H38.2V35.08H9.53zm3.19 3.19H35v17.54H12.73V38.3zm33.4 0h11.14V63.8H46.14V38.29z" opacity=".32"/></svg>