<svg xmlns="http://www.w3.org/2000/svg" xmlns:xlink="http://www.w3.org/1999/xlink" width="70" height="60"><use fill="#717D83" xlink:href="#path0_fill"/><defs><path id="path0_fill" d="M3.75 0A3.757 3.757 0 0 0 0 3.75v52.5A3.757 3.757 0 0 0 3.75 60h62.5A3.757 3.757 0 0 0 70 56.25V3.75A3.757 3.757 0 0 0 66.25 0H3.75zm0 2.5h62.5c.689 0 1.25.562 1.25 1.25v52.5c0 .688-.561 1.25-1.25 1.25H3.75c-.688 0-1.25-.562-1.25-1.25v-4.482l7.144-7.144A3.7 3.7 0 0 0 11.25 45c1.148 0 2.163-.532 2.852-1.348l3.403 1.28c0 .024-.005.044-.005.068a3.757 3.757 0 0 0 3.75 3.75A3.757 3.757 0 0 0 25 45c0-.444-.093-.864-.234-1.265l8.3-6.787A3.735 3.735 0 0 0 35 37.5c.767 0 1.48-.234 2.075-.63l4.365 3.267c-.112.356-.19.722-.19 1.113A3.757 3.757 0 0 0 45 45a3.757 3.757 0 0 0 3.75-3.75c0-.767-.234-1.48-.63-2.075l7.017-9.365c.356.112.722.19 1.113.19A3.757 3.757 0 0 0 60 26.25a3.757 3.757 0 0 0-3.75-3.75 3.757 3.757 0 0 0-3.75 3.75c0 .767.234 1.48.63 2.075l-7.017 9.365A3.673 3.673 0 0 0 45 37.5c-.767 0-1.48.234-2.075.63l-4.365-3.267c.112-.356.19-.722.19-1.113A3.757 3.757 0 0 0 35 30a3.757 3.757 0 0 0-3.75 3.75c0 .444.093.864.234 1.265l-8.3 6.787a3.735 3.735 0 0 0-1.934-.552c-1.148 0-2.163.532-2.852 1.348l-3.403-1.28c0-.024.005-.044.005-.068a3.757 3.757 0 0 0-3.75-3.75 3.757 3.757 0 0 0-3.75 3.75 3.7 3.7 0 0 0 .376 1.606L2.5 48.232V15h51.25a1.25 1.25 0 1 0 0-2.5H2.5V3.75c0-.688.562-1.25 1.25-1.25zM7.5 5a1.25 1.25 0 0 0-1.25 1.25v2.5a1.25 1.25 0 1 0 2.5 0v-2.5A1.25 1.25 0 0 0 7.5 5zm6.25 0a1.25 1.25 0 0 0-1.25 1.25v2.5a1.25 1.25 0 1 0 2.5 0v-2.5A1.25 1.25 0 0 0 13.75 5zM20 5a1.25 1.25 0 0 0-1.25 1.25v2.5a1.25 1.25 0 1 0 2.5 0v-2.5A1.25 1.25 0 0 0 20 5zm6.25 0A1.25 1.25 0 0 0 25 6.25v2.5a1.25 1.25 0 1 0 2.5 0v-2.5A1.25 1.25 0 0 0 26.25 5zm6.25 0a1.25 1.25 0 0 0-1.25 1.25v2.5a1.25 1.25 0 1 0 2.5 0v-2.5A1.25 1.25 0 0 0 32.5 5zm6.25 0a1.25 1.25 0 0 0-1.25 1.25v2.5a1.25 1.25 0 1 0 2.5 0v-2.5A1.25 1.25 0 0 0 38.75 5zM45 5a1.25 1.25 0 0 0-1.25 1.25v2.5a1.25 1.25 0 1 0 2.5 0v-2.5A1.25 1.25 0 0 0 45 5zm6.25 0A1.25 1.25 0 0 0 50 6.25v2.5a1.25 1.25 0 1 0 2.5 0v-2.5A1.25 1.25 0 0 0 51.25 5zm6.25 0a1.25 1.25 0 0 0-1.25 1.25v2.5a1.25 1.25 0 1 0 2.5 0v-2.5A1.25 1.25 0 0 0 57.5 5zm6.25 0a1.25 1.25 0 0 0-1.25 1.25v2.5a1.25 1.25 0 1 0 2.5 0v-2.5A1.25 1.25 0 0 0 63.75 5zm-5 7.5a1.25 1.25 0 1 0 0 2.5h5a1.25 1.25 0 1 0 0-2.5h-5zm-2.5 12.29a1.46 1.46 0 1 1-.002 2.922 1.46 1.46 0 0 1 .002-2.922zM35 32.32a1.43 1.43 0 1 1 0 2.86 1.43 1.43 0 1 1 0-2.86zm-23.75 7.47a1.46 1.46 0 1 1-.002 2.922 1.46 1.46 0 0 1 .002-2.922zm33.75 0a1.46 1.46 0 1 1-.002 2.922A1.46 1.46 0 0 1 45 39.79zm-23.75 3.75a1.46 1.46 0 1 1-.002 2.922 1.46 1.46 0 0 1 .002-2.922z"/></defs></svg>