<svg width="70" height="70" viewBox="0 0 70 70" version="1.1" xmlns="http://www.w3.org/2000/svg" xmlns:xlink="http://www.w3.org/1999/xlink">
<title>icon_large_deposit</title>
<desc>Created using Figma</desc>
<g id="Canvas" transform="translate(-2404 116)">
<g id="icon_large_deposit">
<g id="icon_large_deposit">
<use xlink:href="#path0_fill" transform="translate(2404 -116)" fill="#9DA6AA"/>
</g>
</g>
</g>
<defs>
<path id="path0_fill" fill-rule="evenodd" d="M 30.9282 4.41772C 32.5647 1.7688 35.4915 0 38.8281 0C 43.9551 0 48.125 4.16992 48.125 9.29688C 48.125 12.7661 46.2109 15.7825 43.3911 17.3804C 45.6511 18.205 47.7959 19.2603 49.7571 20.5463C 49.9536 20.3412 50.1672 20.1489 50.3853 19.9609C 50.405 19.9412 50.4258 19.9214 50.4468 19.9016C 50.4666 19.8829 50.4861 19.8643 50.5049 19.8456C 50.5166 19.8355 50.5276 19.8248 50.5386 19.8141C 50.5554 19.7978 50.572 19.7816 50.5903 19.7687C 50.6001 19.759 50.6108 19.7548 50.6218 19.7507C 50.6301 19.7475 50.6384 19.7444 50.6458 19.7388C 52.3845 18.3032 54.5637 17.5 56.875 17.5C 57.2551 17.5 57.644 17.5256 58.1055 17.5854C 58.6523 17.6495 59.0625 18.1152 59.0625 18.6664L 59.0625 29.2621C 60.8228 30.7275 62.2583 32.4194 63.3435 34.2908L 67.1289 34.7693C 68.7654 34.9744 70 36.3757 70 38.0249L 70 47.2876C 70 48.941 68.7654 50.3381 67.1289 50.5432L 63.228 51.0303C 61.2114 54.4226 58.0798 57.1698 54.1663 58.9813L 54.7261 64.5056C 54.897 66.1206 53.8801 67.5946 52.312 68.0176L 47.1978 69.3848C 46.9116 69.4617 46.6252 69.5001 46.3433 69.5001C 45.2539 69.5001 44.2156 68.9575 43.5962 68.0133L 41.1694 64.2963C 35.0598 66.0693 28.3049 66.0565 22.1997 64.2877L 19.7644 68.0133C 18.9868 69.201 17.5427 69.7522 16.167 69.3848L 11.04 68.0133C 9.48071 67.5946 8.46387 66.1249 8.62622 64.5142L 9.38672 56.9177C 4.74243 52.3633 2.1875 46.5143 2.1875 40.4688C 2.1875 38.4479 2.47388 36.427 3.04199 34.4574C 1.07251 32.569 0 30.0482 0 27.3438C 0 24.2761 1.40137 21.4392 3.83667 19.5551C 4.19116 19.2816 4.67847 19.2517 5.06714 19.4824C 5.45166 19.7131 5.65674 20.1575 5.58423 20.6018C 5.50708 21.0675 5.46875 21.4819 5.46875 21.875C 5.46875 23.6182 6.04126 25.2588 7.13062 26.626C 10.5273 22.2125 15.3809 18.9398 20.9395 17.077C 20.8455 16.496 20.7812 15.9106 20.7812 15.3125C 20.7812 9.54895 25.2629 4.82361 30.9282 4.41772ZM 45.9375 9.29688C 45.9375 5.37476 42.7502 2.1875 38.8281 2.1875C 36.739 2.1875 34.8718 3.10608 33.573 4.5459C 38.7085 5.42603 42.6306 9.89075 42.6562 15.2655C 44.6216 14.0051 45.9375 11.8048 45.9375 9.29688ZM 40.4688 15.3125C 40.4688 10.4889 36.5422 6.5625 31.7188 6.5625C 26.8953 6.5625 22.9688 10.4889 22.9688 15.3125C 22.9688 17.6666 23.9343 19.9268 25.6177 21.5674C 27.5872 21.106 29.6252 20.8667 31.7188 20.8667C 33.8123 20.8667 35.8503 21.106 37.8198 21.5674C 39.5032 19.9268 40.4688 17.6709 40.4688 15.3125ZM 25.1562 15.3125C 25.1562 11.6937 28.0999 8.75 31.7188 8.75C 32.321 8.75 32.8125 9.24133 32.8125 9.84375C 32.8125 10.4462 32.321 10.9375 31.7188 10.9375C 29.3049 10.9375 27.3438 12.8986 27.3438 15.3125C 27.3438 15.9149 26.8523 16.4062 26.25 16.4062C 25.6477 16.4062 25.1562 15.9149 25.1562 15.3125ZM 23.272 22.2382C 22.52 21.3196 21.9263 20.2899 21.5076 19.1876C 16.4019 20.9137 11.9502 23.9044 8.8269 27.9163C 8.4082 28.4546 7.75879 28.775 7.08374 28.7793L 7.07104 28.7793C 6.42163 28.7793 5.81909 28.493 5.41748 27.9889C 4.31079 26.5961 3.6145 24.9768 3.37524 23.2507C 2.6062 24.4598 2.1875 25.8655 2.1875 27.3438C 2.1875 29.4458 3.0249 31.4069 4.53735 32.8638C 5.13989 33.4406 5.37036 34.2822 5.14404 35.0684C 4.63135 36.8372 4.375 38.653 4.375 40.4688C 4.375 45.9247 6.69922 51.2183 10.916 55.3668C 11.3904 55.8368 11.6255 56.4777 11.5613 57.1313L 10.8008 64.7321C 10.7454 65.2661 11.0872 65.7574 11.604 65.8984L 16.731 67.2699C 17.1882 67.3938 17.6709 67.2101 17.9272 66.8127L 20.3667 63.0786C 20.8923 62.2754 21.875 61.9122 22.8105 62.1857C 28.5186 63.8391 34.8503 63.8434 40.5669 62.2028C 40.7678 62.1429 40.9771 62.1173 41.1821 62.1173C 41.9043 62.1173 42.5879 62.4719 42.998 63.1L 45.4292 66.817C 45.6897 67.2101 46.1682 67.3938 46.6255 67.2699L 51.748 65.8984C 52.2693 65.7617 52.6067 65.2704 52.5513 64.7321L 51.9746 59.2035C 51.8806 58.2806 52.3889 57.392 53.2476 56.9946C 56.7554 55.3668 59.5581 52.9187 61.3525 49.9152C 61.7029 49.3298 62.2881 48.9453 62.9546 48.8599L 66.8555 48.3728C 67.4023 48.3044 67.8125 47.8387 67.8125 47.2876L 67.8125 38.0249C 67.8125 37.478 67.4023 37.0081 66.8555 36.9397L 63.0659 36.4697C 62.3865 36.3843 61.7969 35.9912 61.4507 35.3888C 60.4937 33.7396 59.2163 32.24 57.6611 30.9326C 57.1614 30.5139 56.875 29.9072 56.875 29.2621L 56.875 19.6875C 54.491 19.6875 52.2864 20.777 50.8208 22.674C 50.8154 22.6818 50.8086 22.6865 50.8022 22.6909C 50.7981 22.6936 50.7942 22.6963 50.791 22.6996C 49.7786 24.024 49.2188 25.6433 49.2188 27.3438C 49.2188 27.9462 48.7273 28.4375 48.125 28.4375C 47.5227 28.4375 47.0312 27.9462 47.0312 27.3438C 47.0312 25.5493 47.5227 23.819 48.4155 22.3193C 46.4246 21.0248 44.2371 19.978 41.9258 19.1962C 41.5071 20.2985 40.9175 21.3239 40.1655 22.2382C 40.8149 22.4603 41.4556 22.6996 42.0879 22.9688C 42.6433 23.2123 42.8997 23.8531 42.6562 24.4086C 42.4812 24.823 42.0752 25.0708 41.6523 25.0708C 41.5071 25.0708 41.3616 25.0409 41.2207 24.9811C 38.2642 23.6993 35.0684 23.0542 31.7188 23.0542C 28.4758 23.0542 25.3743 23.6609 22.4902 24.8615C 21.9304 25.0964 21.2898 24.8315 21.0591 24.2719C 20.8284 23.7122 21.0889 23.0756 21.6484 22.8448C 22.1826 22.6227 22.7251 22.4219 23.272 22.2382ZM 52.5427 37.1875C 52.5427 35.9784 53.521 35 54.7302 35C 55.9392 35 56.9177 35.9784 56.9177 37.1875C 56.9177 38.3966 55.9392 39.375 54.7302 39.375C 53.521 39.375 52.5427 38.3966 52.5427 37.1875ZM 16.4961 51.2183C 16.6755 50.9747 16.936 50.8252 17.2095 50.7825C 17.4871 50.7397 17.782 50.7996 18.0254 50.979C 18.5125 51.3336 18.6238 52.0172 18.269 52.5043L 16.9829 54.2773C 16.7693 54.5679 16.4363 54.726 16.0986 54.726C 15.8723 54.726 15.6501 54.6576 15.4536 54.5166C 14.9666 54.162 14.8552 53.4784 15.21 52.9913L 16.4961 51.2183ZM 47.5996 50.979C 47.843 50.7996 48.1379 50.7397 48.4155 50.7825C 48.689 50.8252 48.9495 50.9747 49.1289 51.2183L 50.415 52.9913C 50.7698 53.4784 50.6584 54.162 50.1714 54.5166C 49.9749 54.6576 49.7527 54.726 49.5264 54.726C 49.1887 54.726 48.8557 54.5679 48.6421 54.2773L 47.356 52.5043C 47.0012 52.0172 47.1125 51.3336 47.5996 50.979ZM 21.1357 54.162C 21.3196 53.7476 21.7297 53.504 22.157 53.5126C 22.2979 53.5168 22.4434 53.5468 22.5801 53.6066C 23.1311 53.8501 23.3789 54.4995 23.1353 55.0507L 22.2466 57.0459C 22.0671 57.4561 21.6658 57.6996 21.2471 57.6996C 21.0974 57.6996 20.948 57.6697 20.8027 57.6056C 20.2515 57.3578 19.9993 56.7126 20.2471 56.1572L 21.1357 54.162ZM 43.0449 53.6066C 43.1816 53.5468 43.3269 53.5168 43.468 53.5126C 43.8953 53.504 44.3054 53.7476 44.4893 54.162L 45.3779 56.1572C 45.6213 56.7126 45.3735 57.3578 44.8223 57.6056C 44.677 57.6697 44.5276 57.6996 44.3779 57.6996C 43.9592 57.6996 43.5579 57.4561 43.3784 57.0459L 42.4897 55.0507C 42.2461 54.4995 42.4939 53.8544 43.0449 53.6066ZM 26.2842 56.0718C 26.3782 55.6317 26.7285 55.307 27.1472 55.2258C 27.2881 55.2002 27.4333 55.2002 27.583 55.2344C 28.1726 55.3583 28.5486 55.9393 28.4248 56.5289L 27.9717 58.6694C 27.8606 59.1821 27.408 59.5367 26.8994 59.5367C 26.8269 59.5367 26.7498 59.5282 26.6729 59.5111C 26.0833 59.3872 25.7031 58.8062 25.8271 58.2123L 26.2842 56.0718ZM 38.042 55.2344C 38.1873 55.2002 38.3369 55.2002 38.4736 55.2258C 38.8923 55.307 39.2468 55.6317 39.3408 56.0718L 39.7979 58.2123C 39.9219 58.8062 39.5417 59.3872 38.9521 59.5111C 38.8752 59.5282 38.7981 59.5367 38.7256 59.5367C 38.217 59.5367 37.7644 59.1821 37.6533 58.6694L 37.2002 56.5289C 37.0764 55.9393 37.4524 55.3583 38.042 55.2344ZM 31.7188 56.875C 31.7188 56.2726 32.2102 55.7812 32.8125 55.7812C 33.4148 55.7812 33.9062 56.2726 33.9062 56.875L 33.9062 59.0625C 33.9062 59.6649 33.4148 60.1562 32.8125 60.1562C 32.2102 60.1562 31.7188 59.6649 31.7188 59.0625L 31.7188 56.875ZM 42.72 31.8233C 42.9353 31.6078 43.22 31.5 43.5 31.5C 43.7803 31.5 44.0647 31.6078 44.2803 31.8233C 44.7112 32.2543 44.7112 32.9526 44.2803 33.3836L 29.7112 47.4354C 29.4958 47.6509 29.2156 47.7587 28.9312 47.7587C 28.6467 47.7587 28.3665 47.6509 28.1509 47.4354L 20.5 40.0001C 20.0691 39.569 20.0691 38.8708 20.5 38.4397C 20.9312 38.0087 21.6294 38.0087 22.0603 38.4397L 28.9312 45.0949L 42.72 31.8233Z"/>
</defs>
</svg>
