<svg xmlns="http://www.w3.org/2000/svg" xmlns:xlink="http://www.w3.org/1999/xlink" width="57" height="62"><use fill="#717D83" xlink:href="#path0_fill"/><defs><path id="path0_fill" d="M21 0c-.55 0-1 .445-1 .996v6.945H5c-1.652 0-3 1.348-3 3a3 3 0 0 0 2 2.817V59.94H1c-.55 0-1 .45-1 1 0 .551.45 1 1 1h53.11c1.1 0 2-.898 2-2v-2.449a4.974 4.974 0 0 0-2.77-4.48l-7.852-3.899a15.889 15.889 0 0 0 1.352-2.933c.851-.387 1.59-1.407 1.95-2.77.23-.828.269-1.66.132-2.36-.191-.921-.711-1.558-1.422-1.75a.177.177 0 0 1-.078-.019 10.003 10.003 0 0 0-.402-1.558c.09.027.171.058.25.09.34.136.742.078 1.03-.16a.99.99 0 0 0 .329-.981c-.664-3.043-2.3-5.34-4.629-6.68V13.758a3 3 0 0 0 2-2.817c0-1.652-1.348-3-3-3H26V3.996c0-.55-.45-1-1-1s-1 .45-1 1v3.945h-2V.996A1 1 0 0 0 21 0zM5 9.941h38c.55 0 1 .45 1 1 0 .551-.45 1-1 1H5c-.55 0-1-.449-1-1 0-.55.45-1 1-1zm1 4h36V29.13a11.576 11.576 0 0 0-3.34-.477H38c-1.297 0-3.129.34-4.504 1.082-1.418-.707-3.035-1.09-4.84-1.09H28c-1.43 0-3.52.422-4.922 1.329-2.543.14-4.348 2.008-4.629 4.84-.176 1.722-.012 3.003.086 3.769.027.23.067.516.063.578-.004.043-.012.082-.02.125-.027.008-.05.012-.074.02-.715.191-1.235.828-1.422 1.75-.14.695-.098 1.53.121 2.355.367 1.363 1.102 2.38 1.953 2.778a15.863 15.863 0 0 0 1.371 2.968l-7.754 3.856A4.972 4.972 0 0 0 10 57.488v2.453H6v-46zm5 4c-.55 0-1 .45-1 1 0 .551.45 1 1 1h2c.55 0 1-.449 1-1 0-.55-.45-1-1-1h-2zm8 0c-.55 0-1 .45-1 1 0 .551.45 1 1 1h2c.55 0 1-.449 1-1 0-.55-.45-1-1-1h-2zm8 0c-.55 0-1 .45-1 1 0 .551.45 1 1 1h2c.55 0 1-.449 1-1 0-.55-.45-1-1-1h-2zm8 0c-.55 0-1 .45-1 1 0 .551.45 1 1 1h2c.55 0 1-.449 1-1 0-.55-.45-1-1-1h-2zm-24 4c-.55 0-1 .45-1 1 0 .551.45 1 1 1h2c.55 0 1-.449 1-1 0-.55-.45-1-1-1h-2zm8 0c-.55 0-1 .45-1 1 0 .551.45 1 1 1h2c.55 0 1-.449 1-1 0-.55-.45-1-1-1h-2zm8 0c-.55 0-1 .45-1 1 0 .551.45 1 1 1h2c.55 0 1-.449 1-1 0-.55-.45-1-1-1h-2zm8 0c-.55 0-1 .45-1 1 0 .551.45 1 1 1h2c.55 0 1-.449 1-1 0-.55-.45-1-1-1h-2zm-24 4c-.55 0-1 .45-1 1 0 .551.45 1 1 1h2c.55 0 1-.449 1-1 0-.55-.45-1-1-1h-2zm8 0c-.55 0-1 .45-1 1 0 .551.45 1 1 1h2c.55 0 1-.449 1-1 0-.55-.45-1-1-1h-2zm-8 4c-.55 0-1 .45-1 1 0 .551.45 1 1 1h2c.55 0 1-.449 1-1 0-.55-.45-1-1-1h-2zm17 .707h.656c.664 0 1.29.075 1.89.188-1.16.832-1.921 2.219-2.097 3.977-.172 1.73-.012 3 .09 3.769.031.23.059.52.059.578-.008.043-.008.082-.02.125-.031.008-.05.016-.078.016-.71.191-1.23.832-1.422 1.75-.14.703-.098 1.531.129 2.36.363 1.362 1.102 2.382 1.95 2.769a16.186 16.186 0 0 0 1.374 2.98l-7.761 3.852a4.97 4.97 0 0 0-2.77 4.48v2.45h-8v-2.454c0-1.144.637-2.175 1.664-2.687l8.758-4.352c.015-.008.023-.023.039-.031.031-.016.062-.023.09-.043.039-.027.058-.07.09-.102.047-.043.09-.082.125-.129a.984.984 0 0 0 .101-.175c.024-.059.051-.11.067-.168.015-.067.02-.13.023-.196a.811.811 0 0 0-.055-.375c-.015-.039-.011-.082-.03-.12-.017-.024-.036-.04-.052-.063-.011-.02-.015-.047-.03-.07a13.42 13.42 0 0 1-1.884-3.895c-.129-.426-.46-.707-.902-.707-.133-.047-.606-.504-.867-1.48-.196-.73-.145-1.27-.07-1.543.273.117.585.109.855-.028a1.01 1.01 0 0 0 .543-.843c.015-.329.047-.657.101-.973.059-.332.016-.688-.046-1.18-.094-.723-.23-1.816-.082-3.312.195-1.942 1.269-3.051 2.964-3.051.215 0 .426-.07.602-.2.836-.624 2.59-1.117 3.996-1.117zm10 .004h.66c3.66 0 6.352 1.778 7.57 4.95-.359.03-.71.148-.992.418-.27.261-.656.843-.277 1.882.398 1.07.539 1.688.578 2.578.012.36.25.66.57.833.25.117.551.128.82.03.079.27.13.817-.07 1.548-.261.98-.73 1.43-.808 1.48-.442 0-.832.29-.961.711a12.972 12.972 0 0 1-1.403 3.14 10.63 10.63 0 0 1-1.187 1.641c-1.262 1.469-2.828 2.48-4.5 2.48-1.648 0-3.21-.991-4.469-2.44a11.9 11.9 0 0 1-1.203-1.641 13.6 13.6 0 0 1-1.418-3.18c-.129-.422-.46-.71-.91-.71-.129-.052-.598-.5-.86-1.481-.199-.73-.148-1.27-.07-1.54.27.122.578.11.852-.03a.975.975 0 0 0 .539-.84c.02-.329.05-.66.11-.97.058-.34.007-.69-.052-1.179-.09-.73-.23-1.82-.081-3.32.19-1.942 1.273-3.051 2.964-3.051a.99.99 0 0 0 .598-.2c.84-.62 2.602-1.109 4-1.109zm-27 3.29c-.55 0-1 .449-1 1 0 .55.45 1 1 1h2c.55 0 1-.45 1-1 0-.551-.45-1-1-1h-2zm23.426.054a1.672 1.672 0 0 0-1.532.742l-1.05 1.602a.995.995 0 0 0 .281 1.383 1 1 0 0 0 1.387-.282l.89-1.355.758.371a14.228 14.228 0 0 0 6.203 1.434h1.684a1 1 0 1 0 0-2h-1.684c-1.832 0-3.675-.426-5.328-1.23l-1.027-.5a1.59 1.59 0 0 0-.582-.165zM11 37.941c-.55 0-1 .45-1 1 0 .551.45 1 1 1h2c.55 0 1-.449 1-1 0-.55-.45-1-1-1h-2zm0 4c-.55 0-1 .45-1 1 0 .551.45 1 1 1h2c.55 0 1-.449 1-1 0-.55-.45-1-1-1h-2zm0 4c-.55 0-1 .45-1 1 0 .551.45 1 1 1h2c.55 0 1-.449 1-1 0-.55-.45-1-1-1h-2zm33.328 4.828l8.121 4.032a2.998 2.998 0 0 1 1.66 2.691v2.45H22v-2.45c0-1.148.64-2.18 1.66-2.691l8.04-3.989c1.66 2.067 3.859 3.532 6.3 3.532 2.46 0 4.672-1.48 6.328-3.575z"/></defs></svg>