<?xml version="1.0" encoding="UTF-8"?>
<svg width="94px" height="80px" viewBox="0 0 94 80" version="1.1" xmlns="http://www.w3.org/2000/svg" xmlns:xlink="http://www.w3.org/1999/xlink">
    <!-- Generator: Sketch 43.1 (39012) - http://www.bohemiancoding.com/sketch -->
    <title>icon_card</title>
    <desc>Created with Sketch.</desc>
    <defs></defs>
    <g id="Page-1" stroke="none" stroke-width="1" fill="none" fill-rule="evenodd" fill-opacity="0.0947973279">
        <g id="Перевыпуск-карты---ожидание" transform="translate(-783.000000, -185.000000)" fill-rule="nonzero" fill="#000000">
            <g id="Group-5" transform="translate(556.000000, 185.000000)">
                <g id="icon_card" transform="translate(227.000000, 0.000000)">
                    <path d="M9.79166667,0 C4.40719764,0 0,4.39118829 0,9.75609756 L0,52.6829268 C0,58.0478361 4.40719764,62.4390244 9.79166667,62.4390244 L54.9327795,62.4390244 C55.9227816,72.264238 64.3060815,80 74.4166667,80 C85.1875,80 94,71.2195122 94,60.4878049 C94,56.1295473 92.5272432,52.10632 90.0795087,48.8490849 C90.0811875,48.8262433 90.0824626,48.8033741 90.0833333,48.7804878 L90.0833333,9.75609756 C90.0833333,4.39118829 85.6761355,0 80.2916667,0 L9.79166667,0 Z M9.79166667,3.90243902 L80.2916667,3.90243902 C83.5591145,3.90243902 86.1666667,6.50051902 86.1666667,9.75609756 L86.1666667,44.9314029 C82.8858199,42.4618029 78.8211757,40.9756098 74.4166667,40.9756098 C64.3060815,40.9756098 55.9227816,48.7113717 54.9327795,58.5365854 L9.79166667,58.5365854 C6.52421903,58.5365854 3.91666667,55.9385054 3.91666667,52.6829268 L3.91666667,9.75609756 C3.91666667,6.50051902 6.52421903,3.90243902 9.79166667,3.90243902 Z M74.4166667,40.9756098 L76.375,40.9756098 C77.0812453,40.9855615 77.7381593,40.6158531 78.0941968,40.008053 C78.4502342,39.4002529 78.4502342,38.6485276 78.0941968,38.0407275 C77.7381593,37.4329274 77.0812453,37.0632189 76.375,37.0731707 L66.5833333,37.0731707 C65.877088,37.0632189 65.220174,37.4329274 64.8641365,38.0407275 C64.5080991,38.6485276 64.5080991,39.4002529 64.8641365,40.008053 C65.220174,40.6158531 65.877088,40.9855615 66.5833333,40.9756098 L74.4166667,40.9756098 Z M15.6666667,13.6585366 C13.5260854,13.6585366 11.75,15.4281698 11.75,17.5609756 L11.75,23.4146341 C11.75,25.54744 13.5260854,27.3170732 15.6666667,27.3170732 L23.5,27.3170732 C25.6405817,27.3170732 27.4166667,25.54744 27.4166667,23.4146341 L27.4166667,17.5609756 C27.4166667,15.4281698 25.6405817,13.6585366 23.5,13.6585366 L15.6666667,13.6585366 Z M15.6666667,17.5609756 L23.5,17.5609756 L23.5,23.4146341 L15.6666667,23.4146341 L15.6666667,17.5609756 Z M50.9166667,17.5609756 C50.2104213,17.5510238 49.5535073,17.9207323 49.1974699,18.5285324 C48.8414324,19.1363325 48.8414324,19.8880577 49.1974699,20.4958579 C49.5535073,21.103658 50.2104213,21.4733664 50.9166667,21.4634146 L76.375,21.4634146 C77.0812453,21.4733664 77.7381593,21.103658 78.0941968,20.4958579 C78.4502342,19.8880577 78.4502342,19.1363325 78.0941968,18.5285324 C77.7381593,17.9207323 77.0812453,17.5510238 76.375,17.5609756 L50.9166667,17.5609756 Z M13.7083333,37.0731707 C13.002088,37.0632189 12.345174,37.4329274 11.9891365,38.0407275 C11.6330991,38.6485276 11.6330991,39.4002529 11.9891365,40.008053 C12.345174,40.6158531 13.002088,40.9855615 13.7083333,40.9756098 L23.5,40.9756098 C24.2062453,40.9855615 24.8631593,40.6158531 25.2191968,40.008053 C25.5752342,39.4002529 25.5752342,38.6485276 25.2191968,38.0407275 C24.8631593,37.4329274 24.2062453,37.0632189 23.5,37.0731707 L13.7083333,37.0731707 Z M31.3333333,37.0731707 C30.627088,37.0632189 29.970174,37.4329274 29.6141365,38.0407275 C29.2580991,38.6485276 29.2580991,39.4002529 29.6141365,40.008053 C29.970174,40.6158531 30.627088,40.9855615 31.3333333,40.9756098 L41.125,40.9756098 C41.8312453,40.9855615 42.4881593,40.6158531 42.8441968,40.008053 C43.2002342,39.4002529 43.2002342,38.6485276 42.8441968,38.0407275 C42.4881593,37.4329274 41.8312453,37.0632189 41.125,37.0731707 L31.3333333,37.0731707 Z M48.9583333,37.0731707 C48.252088,37.0632189 47.595174,37.4329274 47.2391365,38.0407275 C46.8830991,38.6485276 46.8830991,39.4002529 47.2391365,40.008053 C47.595174,40.6158531 48.252088,40.9855615 48.9583333,40.9756098 L58.75,40.9756098 C59.4562453,40.9855615 60.1131593,40.6158531 60.4691968,40.008053 C60.8252342,39.4002529 60.8252342,38.6485276 60.4691968,38.0407275 C60.1131593,37.4329274 59.4562453,37.0632189 58.75,37.0731707 L48.9583333,37.0731707 Z M74.4166667,44.8780488 C83.0333333,44.8780488 90.0833333,51.902439 90.0833333,60.4878049 C90.0833333,69.0731707 83.0333333,76.097561 74.4166667,76.097561 C65.8774873,76.097561 58.8866917,69.1963649 58.7614739,60.7164644 C58.7803772,60.5607816 58.7803772,60.403396 58.7614739,60.2477132 C58.8928545,51.7730829 65.8813511,44.8780488 74.4166667,44.8780488 Z M13.7083333,46.8292683 C13.002088,46.8193165 12.345174,47.189025 11.9891365,47.7968251 C11.6330991,48.4046252 11.6330991,49.1563504 11.9891365,49.7641505 C12.345174,50.3719506 13.002088,50.7416591 13.7083333,50.7317073 L39.1666667,50.7317073 C39.872912,50.7416591 40.529826,50.3719506 40.8858635,49.7641505 C41.2419009,49.1563504 41.2419009,48.4046252 40.8858635,47.7968251 C40.529826,47.189025 39.872912,46.8193165 39.1666667,46.8292683 L13.7083333,46.8292683 Z M82.54375,59.7058824 L75.2,59.7058824 L75.2,52.3529412 C75.2,51.5435294 74.53965,50.8823529 73.73125,50.8823529 C72.92285,50.8823529 72.2625,51.5435294 72.2625,52.3529412 L72.2625,61.1764706 C72.2625,61.9858824 72.92285,62.6470588 73.73125,62.6470588 L82.54375,62.6470588 C83.35215,62.6470588 84.0125,61.9858824 84.0125,61.1764706 C84.0125,60.3670588 83.35215,59.7058824 82.54375,59.7058824 Z" id="Shape"></path>
                </g>
            </g>
        </g>
    </g>
</svg>