<svg width="24" height="32" viewBox="0 0 24 32" version="1.1" xmlns="http://www.w3.org/2000/svg" xmlns:xlink="http://www.w3.org/1999/xlink">
<title>icon_file_pdf copy 3</title>
<desc>Created using Figma</desc>
<g id="Canvas" transform="translate(-4735 880)">
<g id="icon_file_pdf copy 3">
<g id="Fill 1">
<use xlink:href="#path0_fill" transform="translate(4735 -880)" fill="#EE2A24"/>
</g>
<g id="Fill 2">
<use xlink:href="#path1_fill" transform="translate(4735 -849.471)" fill="#CCCCCC"/>
</g>
<g id="Fill 3">
<use xlink:href="#path2_fill" transform="translate(4735 -850.207)" fill="#BE221D"/>
</g>
<g id="Fill 4">
<use xlink:href="#path3_fill" transform="translate(4750.54 -880)" fill="#FF6D68"/>
</g>
<g id="Fill 5">
<use xlink:href="#path4_fill" transform="translate(4750.54 -871.908)" fill="#BE221D"/>
</g>
<g id="Fill 6">
<use xlink:href="#path5_fill" transform="translate(4741.14 -869.701)" fill="#FFFFFF"/>
</g>
</g>
</g>
<defs>
<path id="path0_fill" fill-rule="evenodd" d="M 1.32708 0L 15.6597 0L 23.4894 7.99494L 23.4894 30.6449C 23.4894 31.3911 22.8932 32 22.1623 32L 1.32708 32C 0.596391 32 0 31.3913 0 30.6449L 0 1.35502C 0 0.608623 0.596214 0 1.32708 0Z"/>
<path id="path1_fill" fill-rule="evenodd" d="M 0 0C 0.0050114 0.811303 0.652445 1.47126 1.4455 1.47126C 0.652638 1.47126 0.0050114 0.811303 0 0ZM 23.4894 0C 23.4894 0.807038 22.841 1.46616 22.0439 1.47126C 22.841 1.46616 23.4894 0.807234 23.4894 0Z"/>
<path id="path2_fill" fill-rule="evenodd" d="M 23.4894 0C 23.4894 0.675229 22.8932 1.22605 22.1623 1.22605L 1.32708 1.22605C 0.596391 1.22605 0 0.67531 0 0L 0 0.980843C 0 0.98354 0 0.986156 8.84722e-05 0.988771C 0.00468903 1.66049 0.599222 2.2069 1.32708 2.2069L 22.1623 2.2069C 22.1652 2.2069 22.168 2.2069 22.1709 2.2069C 22.8979 2.20265 23.4894 1.65337 23.4894 0.980843L 23.4894 0Z"/>
<path id="path3_fill" fill-rule="evenodd" d="M 0 0L 0 8.09195L 7.95025 8.09195L 0 0Z"/>
<path id="path4_fill" fill-rule="evenodd" d="M 7.95025 0L 0 0L 7.95025 8.09195L 7.95025 0Z"/>
<path id="path5_fill" fill-rule="evenodd" d="M 1.08398 11.0345C 1.30755 10.3726 1.27914 10.5167 1.69821 10.1553C 2.0108 9.88563 2.17519 9.72198 2.52948 9.56323C 2.21726 10.0934 1.723 10.7534 1.08398 11.0345ZM 8.67285 7.72712C 9.41231 7.67924 12.2762 8.20763 11.3983 9.04691C 10.6984 9.71613 8.91603 7.91715 8.67285 7.72712ZM 5.68985 5.14941C 5.93599 5.37289 6.69962 6.54166 6.866 6.86801L 4.69775 7.35631L 5.68985 5.14941ZM 5.22148 2.94253C 5.08692 2.57132 5.05554 2.39512 5.05939 1.91449C 5.06769 0.893589 5.25535 1.15864 5.35367 1.10345C 5.53783 1.53891 5.29004 2.45515 5.22148 2.94253ZM 7.4619 7.80755C 7.93074 8.25736 10.4732 11.0722 11.6843 9.45093C 12.4088 8.48097 11.3224 7.64186 10.7617 7.37347C 9.83785 6.93135 8.73573 6.96495 7.67264 6.95003C 7.41087 6.49771 7.0304 6.09688 6.68493 5.62455C 6.38798 5.21862 5.86068 4.65441 5.97277 4.01799C 6.13606 3.09093 7.15645 0.656078 6.06104 0.150857C 4.3856 -0.621676 4.3361 1.75697 4.64755 3.11247C 4.92588 4.3249 5.37735 4.39836 4.00674 6.70935C 2.72718 8.86715 3.18984 7.73963 1.30492 8.9306C -0.658508 10.1714 -0.138286 11.7502 1.10994 11.3344C 2.19702 10.9722 2.9048 9.66542 3.58007 8.87019C 4.13019 8.22224 6.51394 7.8248 7.4619 7.80755Z"/>
</defs>
</svg>
