<svg xmlns="http://www.w3.org/2000/svg" width="28" height="36" viewBox="0 0 28 36">
  <g fill="none" fill-rule="evenodd">
    <g fill-rule="nonzero">
      <polygon fill="#ABEF90" points=".5 35.5 .5 .5 18.793 .5 27.5 9.207 27.5 35.5"/>
      <path fill="#3B9120" d="M18.586,1 L27,9.414 L27,35 L1,35 L1,1 L18.586,1 L18.586,1 Z M19,0 L0,0 L0,36 L28,36 L28,9 L19,0 L19,0 Z"/>
    </g>
    <g fill-rule="nonzero" transform="translate(18)">
      <polygon fill="#FFFFFF" points=".5 9.5 .5 .5 .793 .5 9.5 9.207 9.5 9.5"/>
      <path fill="#419027" d="M1,1.414 L8.586,9 L1,9 L1,1.414 L1,1.414 Z M1,0 L0,0 L0,10 L10,10 L10,9 L1,0 L1,0 Z"/>
    </g>
    <path fill="#349216" d="M9.38,23 L8.204,20.192 L7.04,23 L5.036,23 L7.124,18.548 L5.204,14.504 L7.208,14.504 L8.252,17.084 L9.308,14.504 L11.276,14.504 L9.344,18.536 L11.456,23 L9.38,23 Z M12.236,23 L12.236,14.504 L14.18,14.504 L14.18,21.224 L16.448,21.224 L16.448,23 L12.236,23 Z M20.828,16.544 C20.6839993,16.3759992 20.516001,16.2460005 20.324,16.154 C20.131999,16.0619995 19.932001,16.016 19.724,16.016 C19.5079989,16.016 19.3140009,16.0839993 19.142,16.22 C18.9699991,16.3560007 18.884,16.5799984 18.884,16.892 C18.884,17.1560013 18.9719991,17.3619993 19.148,17.51 C19.3240009,17.6580007 19.5839983,17.8199991 19.928,17.996 C20.120001,18.0920005 20.3219989,18.2059993 20.534,18.338 C20.7460011,18.4700007 20.9399991,18.631999 21.116,18.824 C21.2920009,19.016001 21.4379994,19.2459987 21.554,19.514 C21.6700006,19.7820013 21.728,20.0999982 21.728,20.468 C21.728,20.9240023 21.6560007,21.3259983 21.512,21.674 C21.3679993,22.0220017 21.1740012,22.3099989 20.93,22.538 C20.6859988,22.7660011 20.4040016,22.9379994 20.084,23.054 C19.7639984,23.1700006 19.4320017,23.228 19.088,23.228 C18.5759974,23.228 18.1100021,23.132001 17.69,22.94 C17.2699979,22.747999 16.9320013,22.5240013 16.676,22.268 L17.66,20.828 C17.8440009,21.020001 18.0559988,21.1739994 18.296,21.29 C18.5360012,21.4060006 18.7799988,21.464 19.028,21.464 C19.2600012,21.464 19.4559992,21.3880008 19.616,21.236 C19.7760008,21.0839992 19.856,20.8720014 19.856,20.6 C19.856,20.3199986 19.760001,20.0980008 19.568,19.934 C19.375999,19.7699992 19.0960018,19.5960009 18.728,19.412 C18.4959988,19.2999994 18.278001,19.1760007 18.074,19.04 C17.869999,18.9039993 17.6900008,18.740001 17.534,18.548 C17.3779992,18.355999 17.2560004,18.1320013 17.168,17.876 C17.0799996,17.6199987 17.036,17.3160018 17.036,16.964 C17.036,16.4919976 17.1139992,16.0860017 17.27,15.746 C17.4260008,15.4059983 17.6299987,15.1280011 17.882,14.912 C18.1340013,14.6959989 18.4139985,14.5360005 18.722,14.432 C19.0300015,14.3279995 19.3399984,14.276 19.652,14.276 C20.1160023,14.276 20.5319982,14.3519992 20.9,14.504 C21.2680018,14.6560008 21.5759988,14.8639987 21.824,15.128 L20.828,16.544 Z"/>
  </g>
</svg>
