<svg xmlns="http://www.w3.org/2000/svg" xmlns:xlink="http://www.w3.org/1999/xlink" width="60" height="56"><use fill="#717D83" xlink:href="#path0_fill"/><defs><path id="path0_fill" d="M21.2 0c-2.83.16-6.1 2.53-9.1 6.71-7.11 9.76-4.66 28-1.2 31.67l.4.4a14.97 14.97 0 0 1-9.5 3.8 1 1 0 0 0 .04 2h.05c4.23-.2 7.8-1.6 11.06-4.57 2.85 1.65 6.07 1.22 9.18.44a24.7 24.7 0 0 0 5.58-2.07c2.93 1.66 6.94 1.16 9.09-.03a31.87 31.87 0 0 0 5.61-3.51c.83.75 1.9 1.26 3.07 1.41 2.22.29 4.38-.62 6-1.45.89-.45 1.81-.97 2.9-1.64a1 1 0 1 0-1.04-1.7 39.5 39.5 0 0 1-2.76 1.56c-2.03 1.03-3.53 1.42-4.85 1.25a3.73 3.73 0 0 1-1.83-.79 20.88 20.88 0 0 0 3.5-4.86c.75-1.4 1.75-4.48.18-6.1a2.22 2.22 0 0 0-1.92-.62c-1.5.18-3.12 1.56-3.83 2.77a10.28 10.28 0 0 0-1.15 7.07c.1.54.28 1.05.52 1.51a29.85 29.85 0 0 1-5.35 3.34 8.4 8.4 0 0 1-6.07.53c4.02-2.83 7.04-7.33 10.23-14.68 1.5-3.45.58-7.15-2.09-8.43-2.56-1.23-6.59-.05-10.25 6.93-4.8 9.16-3.66 13.77-1.66 16.06a23.84 23.84 0 0 1-4.36 1.5c-3.25.82-5.45.87-7.22.04 3.28-3.56 6.27-8.84 9.34-16.2C29.2 9.28 27.2 2.46 23.85.6A4.8 4.8 0 0 0 21.2 0zm.27 2c.5 0 .98.11 1.4.35 2.85 1.58 3.43 8.7-.95 19.21-3.05 7.32-5.98 12.46-9.17 15.83a8.93 8.93 0 0 1-.4-.39C9.78 34.27 7.1 17 13.73 7.88 16.4 4.13 19.28 2 21.47 2zm14.57 13.59c.38 0 .72.08 1.02.22 1.45.7 2.3 3.12 1.12 5.83-3.27 7.53-6.22 11.8-10.34 14.37l-.08-.08c-2.43-2.36-1.83-7.36 1.69-14.06 2.45-4.68 4.89-6.28 6.59-6.28zM46 23.88c.06 0 .12 0 .14.03.51.53.27 2.32-.5 3.76-.9 1.68-1.84 3-2.89 4.13a8.3 8.3 0 0 1 .81-6.12c.48-.84 1.62-1.7 2.34-1.8h.1zm12.86 4.2a1 1 0 0 0-.38.13c-.76.46-1.5.94-2.27 1.42a1 1 0 0 0 1.08 1.68 98.6 98.6 0 0 1 2.23-1.4 1 1 0 0 0-.66-1.84zM1 47.71a1 1 0 1 0 0 2h58a1 1 0 1 0 0-2H1zm4 4.05a1 1 0 0 0-1 1v2a1 1 0 1 0 2 0v-2a1 1 0 0 0-1-1zm5 0a1 1 0 0 0-1 1v2a1 1 0 1 0 2 0v-2a1 1 0 0 0-1-1zm5 0a1 1 0 0 0-1 1v2a1 1 0 1 0 2 0v-2a1 1 0 0 0-1-1zm5 0a1 1 0 0 0-1 1v2a1 1 0 1 0 2 0v-2a1 1 0 0 0-1-1zm5 0a1 1 0 0 0-1 1v2a1 1 0 1 0 2 0v-2a1 1 0 0 0-1-1zm5 0a1 1 0 0 0-1 1v2a1 1 0 1 0 2 0v-2a1 1 0 0 0-1-1zm5 0a1 1 0 0 0-1 1v2a1 1 0 1 0 2 0v-2a1 1 0 0 0-1-1zm5 0a1 1 0 0 0-1 1v2a1 1 0 1 0 2 0v-2a1 1 0 0 0-1-1zm5 0a1 1 0 0 0-1 1v2a1 1 0 1 0 2 0v-2a1 1 0 0 0-1-1zm5 0a1 1 0 0 0-1 1v2a1 1 0 1 0 2 0v-2a1 1 0 0 0-1-1zm5 0a1 1 0 0 0-1 1v2a1 1 0 1 0 2 0v-2a1 1 0 0 0-1-1z"/></defs></svg>