<svg width="50" height="64" viewBox="0 0 50 64" fill="none" xmlns="http://www.w3.org/2000/svg">
<rect width="50" height="64" fill="black" fill-opacity="0"/>
<path d="M36.7347 30.9678H34.6938V51.6129H36.7347V30.9678Z" fill="#9DA6AA"/>
<path d="M2.04082 8.25807H34.6939H35.7143H36.7347V5.16129C36.7347 2.31536 34.4459 0 31.6327 0H5.10204C2.28878 0 0 2.31536 0 5.16129V54.1936H2.04082V8.25807ZM2.04082 5.16129C2.04082 3.45394 3.41429 2.06452 5.10204 2.06452H31.6327C33.3204 2.06452 34.6939 3.45394 34.6939 5.16129V6.19355H2.04082V5.16129Z" fill="#9DA6AA"/>
<path d="M0 58.8387C0 61.6847 2.28878 64 5.10204 64H31.6327C34.4459 64 36.7347 61.6847 36.7347 58.8387V53.6774H0V58.8387ZM2.04082 55.7419H34.6939V58.8387C34.6939 60.5461 33.3204 61.9355 31.6327 61.9355H5.10204C3.41429 61.9355 2.04082 60.5461 2.04082 58.8387V55.7419Z" fill="#9DA6AA"/>
<path d="M23.4695 57.8064H13.2654V59.8709H23.4695V57.8064Z" fill="#9DA6AA"/>
<path d="M46.9389 10.3226H24.4899C22.8022 10.3226 21.4287 11.7121 21.4287 13.4194V35.8886L32.9359 28.9033H46.9389C48.6267 28.9033 50.0001 27.5139 50.0001 25.8065V13.4194C50.0001 11.7121 48.6267 10.3226 46.9389 10.3226ZM47.9593 25.8065C47.9593 26.3753 47.5012 26.8388 46.9389 26.8388H32.3705L23.4695 32.2416V13.4194C23.4695 12.8506 23.9277 12.3871 24.4899 12.3871H46.9389C47.5012 12.3871 47.9593 12.8506 47.9593 13.4194V25.8065Z" fill="#9DA6AA"/>
<path d="M45.9184 14.4517H25.5103V16.5162H45.9184V14.4517Z" fill="#9DA6AA"/>
<path d="M45.9183 18.5807H29.5918V20.6452H45.9183V18.5807Z" fill="#9DA6AA"/>
<path d="M27.5511 18.5807H25.5103V20.6452H27.5511V18.5807Z" fill="#9DA6AA"/>
<path d="M45.9185 22.7097H43.8777V24.7742H45.9185V22.7097Z" fill="#9DA6AA"/>
<path d="M41.8368 22.7097H25.5103V24.7742H41.8368V22.7097Z" fill="#9DA6AA"/>
</svg>
