<svg xmlns="http://www.w3.org/2000/svg" width="28" height="36" viewBox="0 0 28 36">
  <g fill="none">
    <polygon fill="#FFA68A" points=".5 35.5 .5 .5 18.793 .5 27.5 9.207 27.5 35.5"/>
    <path fill="#C76443" d="M18.586,1 L27,9.414 L27,35 L1,35 L1,1 L18.586,1 L18.586,1 Z M19,0 L0,0 L0,36 L28,36 L28,9 L19,0 L19,0 Z"/>
    <g transform="translate(18)">
      <polygon fill="#FFFFFF" points=".5 9.5 .5 .5 .793 .5 9.5 9.207 9.5 9.5"/>
      <path fill="#C76443" d="M1,1.414 L8.586,9 L1,9 L1,1.414 L1,1.414 Z M1,0 L0,0 L0,10 L10,10 L10,9 L1,0 L1,0 Z"/>
    </g>
    <path fill="#FFFFFF" d="M6.499 16.105C6.98 16.001 7.631 15.936 8.28 15.936 9.295 15.936 10.1 16.08 10.659 16.613 11.18 17.068 11.414 17.796 11.414 18.537 11.414 19.486 11.128 20.162 10.673 20.643 10.127 21.228 9.256 21.488 8.54 21.488 8.424 21.488 8.319 21.488 8.202 21.475L8.202 24.738 6.499 24.738 6.499 16.105 6.499 16.105zM8.202 20.097C8.294 20.111 8.385 20.111 8.488 20.111 9.346 20.111 9.723 19.5 9.723 18.68 9.723 17.913 9.411 17.316 8.618 17.316 8.463 17.316 8.306 17.341 8.202 17.38L8.202 20.097 8.202 20.097zM12.44 16.105C12.92 16.001 13.571 15.936 14.221 15.936 15.235 15.936 16.04 16.08 16.6 16.613 17.12 17.068 17.354 17.796 17.354 18.537 17.354 19.486 17.068 20.162 16.613 20.643 16.067 21.228 15.196 21.488 14.481 21.488 14.364 21.488 14.26 21.488 14.143 21.475L14.143 24.738 12.44 24.738 12.44 16.105zM14.144 20.097C14.235 20.111 14.326 20.111 14.43 20.111 15.287 20.111 15.664 19.5 15.664 18.68 15.664 17.913 15.352 17.316 14.56 17.316 14.404 17.316 14.248 17.341 14.144 17.38L14.144 20.097 14.144 20.097z"/>
    <polygon fill="#FFFFFF" points="19.33 17.549 17.783 17.549 17.783 15.976 22.594 15.976 22.594 17.549 21.033 17.549 21.033 24.738 19.33 24.738"/>
  </g>
</svg>
