<svg xmlns="http://www.w3.org/2000/svg" width="28" height="36" viewBox="0 0 28 36">
  <g fill="none">
    <polygon fill="#D5DEF2" points=".5 35.5 .5 .5 18.793 .5 27.5 9.207 27.5 35.5"/>
    <path fill="#7675A1" d="M18.586,1 L27,9.414 L27,35 L1,35 L1,1 L18.586,1 L18.586,1 Z M19,0 L0,0 L0,36 L28,36 L28,9 L19,0 L19,0 Z"/>
    <g transform="translate(18)">
      <polygon fill="#FFFFFF" points=".5 9.5 .5 .5 .793 .5 9.5 9.207 9.5 9.5"/>
      <path fill="#7576A0" d="M1,1.414 L8.586,9 L1,9 L1,1.414 L1,1.414 Z M1,0 L0,0 L0,10 L10,10 L10,9 L1,0 L1,0 Z"/>
    </g>
    <path fill="#74779F" d="M5.381 15.96C5.81 15.856 6.434 15.791 7.11 15.791 8.215 15.791 8.982 16.051 9.542 16.571 10.296 17.247 10.686 18.404 10.686 20.107 10.686 21.875 10.231 23.136 9.464 23.812 8.866 24.371 8.008 24.657 6.799 24.657 6.253 24.657 5.72 24.605 5.382 24.553L5.382 15.96 5.381 15.96zM7.084 23.24C7.175 23.266 7.292 23.266 7.383 23.266 8.202 23.266 8.917 22.46 8.917 20.042 8.917 18.248 8.449 17.156 7.422 17.156 7.305 17.156 7.188 17.156 7.084 17.195L7.084 23.24 7.084 23.24zM17.263 20.055C17.263 23.357 16.093 24.696 14.429 24.696 12.44 24.696 11.66 22.59 11.66 20.185 11.66 17.793 12.608 15.726 14.558 15.726 16.665 15.726 17.263 18.053 17.263 20.055zM13.428 20.211C13.428 22.2 13.805 23.214 14.494 23.214 15.222 23.214 15.495 21.914 15.495 20.133 15.495 18.599 15.261 17.208 14.48 17.208 13.805 17.208 13.428 18.326 13.428 20.211zM22.865 24.462C22.618 24.579 22.137 24.67 21.553 24.67 19.304 24.67 18.238 22.837 18.238 20.341 18.238 17.039 20.071 15.752 21.774 15.752 22.372 15.752 22.788 15.869 22.957 15.986L22.672 17.416C22.477 17.325 22.256 17.247 21.879 17.247 20.916 17.247 20.045 18.079 20.045 20.25 20.045 22.343 20.839 23.162 21.879 23.162 22.164 23.162 22.489 23.097 22.697 23.032L22.865 24.462z"/>
  </g>
</svg>
