<svg fill="none" height="60" viewBox="0 0 60 60" width="60" xmlns="http://www.w3.org/2000/svg"><path d="m29.9999 30.9678h-2.9032v1.9355h2.9032z" fill="#003a69"/><path d="m49.859 20.4252-.4839-.4839c-2.2509-2.25-5.2432-3.4896-8.4271-3.4896-6.5709 0-11.9158 5.3448-11.9158 11.9158v7.439h.9678c0-1.6036 1.2996-2.9032 2.9032-2.9032v-.9678c2.4784 0 4.8552-.9842 6.6077-2.7367l1.1342-1.1342.0997.1325c1.7652 2.3536 4.5348 3.7384 7.4758 3.7384h2.1019v.9678c1.6036 0 2.9033 1.2996 2.9033 2.9032h.9677v-9.5584c0-2.701-1.769-5.0564-4.3345-5.8229z" fill="#41cfc8"/><path d="m40.6447 7.74194h-9.6774v3.87096h9.6774z" fill="#41cfc8"/><path d="m13.548 25.1614h-9.67739v3.8709h9.67739z" fill="#41cfc8"/><g fill="#003a69"><path d="m30.256 47.5022c-2.5061.4562-4.5156 2.254-5.248 4.6927l-2.2414 7.474h37.2334l-2.2414-7.474c-.7324-2.4387-2.7429-4.2365-5.248-4.6917l-6.3153-1.1491v-.4985c2.3617-1.3714 4.0902-3.711 4.6301-6.477 1.7497-.3619 3.0691-1.9142 3.0691-3.7697 0-1.7891-1.2309-3.2828-2.8872-3.713v-1.099h-3.0527c-2.6081 0-5.0998-1.2454-6.6647-3.3309l-.7641-1.0221-1.9133 1.9133c-1.5735 1.5735-3.6658 2.4397-5.8908 2.4397h-.9624v1.099c-1.6563.4302-2.8872 1.9239-2.8872 3.713 0 .3339.0558.6525.1366.9624h-26.12149c-.53125 0-.96241-.4312-.96241-.9624v-2.8872h23.0977v-1.9248h-23.0977v-24.06008c0-.53029.43116-.96241.96241-.96241h13.47359v2.88721c0 1.64858.6959 3.18358 1.9248 4.28168v.6776l-2.5696.4282c-1.8237.3032-3.3289 1.6477-3.8361 3.4243l-1.6072 5.6243h19.7764c.3272-.6805.716-1.3234 1.1626-1.9249h-18.3867l.9056-3.1701c.3031-1.0654 1.2078-1.8719 2.3011-2.0547l4.1787-.6968v-3.2404l-.382-.2887c-.9807-.7411-1.5428-1.85652-1.5428-3.06048v-2.88721c0-2.12306 1.7266-3.84961 3.8496-3.84961 2.1231 0 3.8497 1.72655 3.8497 3.84961v2.88721c0 1.20396-.5621 2.31938-1.5428 3.06048l-.382.2887v3.2404l4.1787.6968c1.0933.1819 1.997.9884 2.3011 2.0547l.8421 2.9421c.46-.591.9749-1.1347 1.536-1.6284l-.5264-1.843c-.5072-1.7766-2.0134-3.1211-3.8362-3.4252l-2.5705-.4273v-.6776c1.2289-1.0981 1.9248-2.6331 1.9248-4.28168v-2.88721h13.4736c.5312 0 .9624.43212.9624.96241v9.74718c.6554.0895 1.3002.2243 1.9248.4187v-10.16588c0-1.59182-1.2954-2.88721-2.8872-2.88721h-13.8105c-.7949-2.23951-2.9286-3.84961-5.4376-3.84961-2.5089 0-4.6426 1.6101-5.4375 3.84961h-13.81049c-1.59182 0-2.88721 1.29539-2.88721 2.88721v28.87208c0 1.5918 1.29539 2.8872 2.88721 2.8872h11.54879v3.8496h-1.9248v1.9248h19.2481v-1.9248h-1.9248v-3.8496h.3676c.4899.4283 1.0789.7458 1.7391.8825.5399 2.766 2.2693 5.1056 4.6301 6.477v.4985zm-2.3463-5.1565h-11.5489v-3.8496h11.5489zm2.8872-6.7368c0-.7093.3897-1.3233.9624-1.6573v3.3136c-.5727-.333-.9624-.947-.9624-1.6563zm6.4962 12.5709 2.6254 1.969-1.9633 1.9634-1.2742-3.8217zm8.7935.1116-1.2743 3.8217-1.9633-1.9633 2.6255-1.9691zm-4.7033.5505-2.8064-2.1038c.8893.2714 1.8305.4196 2.8064.4196s1.9171-.1482 2.8064-.4196zm14.5313 3.9064 1.4985 4.9958h-32.0596l1.4994-4.9958c.5226-1.7419 1.9585-3.0268 3.7486-3.3511l4.1672-.7574 2.3454 7.0371 4.2692-4.2712 4.2711 4.2712 2.3454-7.0371 4.1672.7574c1.7882.3243 3.225 1.6092 3.7476 3.3511zm-3.9449-17.1394c0 .7093-.3898 1.3233-.9624 1.6572v-3.3135c.5726.333.9624.947.9624 1.6563zm-18.2856 1.9248v-4.8563c2.3761-.2204 4.582-1.2521 6.2893-2.9603l.3743-.3744c1.9316 2.1298 4.711 3.378 7.6069 3.378h1.1279v4.812c0 4.2452-3.4541 7.6992-7.6992 7.6992-4.2452 0-7.6992-3.4531-7.6992-7.6982z"/><path d="m32.9033 7.74194h-1.9355v1.93549h1.9355z"/><path d="m36.7739 7.74194h-1.9355v1.93549h1.9355z"/><path d="m40.645 7.74194h-1.9355v1.93549h1.9355z"/><path d="m5.80658 27.0967h-1.93549v1.9355h1.93549z"/><path d="m9.67718 27.0967h-1.93548v1.9355h1.93548z"/><path d="m13.5483 27.0967h-1.9355v1.9355h1.9355z"/></g></svg>