<svg xmlns="http://www.w3.org/2000/svg" width="28" height="36" viewBox="0 0 28 36">
  <g fill="none">
    <polygon fill="#FFEEA3" points=".5 .5 19 .5 27.5 10 27.5 35.5 .5 35.5"/>
    <path fill="#BA9B48" d="M27,10 L27,35 L1,35 L1,1 L19,1 L27,10 Z M19,0 L0,0 L0,36 L28,36 L28,9 L19,0 Z"/>
    <g transform="translate(10 18)">
      <path fill="#FFFAE0" d="M4,10.5 C2.07,10.5 0.5,8.93 0.5,7 C0.5,6.45 0.854,4.509 1.473,1.675 C1.624,0.983 2.226,0.5 2.938,0.5 L5.063,0.5 C5.775,0.5 6.376,0.983 6.528,1.675 C7.146,4.509 7.5,6.45 7.5,7 C7.5,8.93 5.93,10.5 4,10.5 Z"/>
      <path fill="#BA9B48" d="M5.063,1 C5.537,1 5.939,1.321 6.039,1.782 C6.931,5.874 7,6.81 7,7 C7,8.654 5.654,10 4,10 C2.346,10 1,8.654 1,7 C1,6.81 1.069,5.874 1.961,1.782 C2.061,1.322 2.463,1 2.937,1 L5.063,1 L5.063,1 Z M5.063,0 L2.938,0 C1.997,0 1.185,0.65 0.985,1.569 C0.589,3.381 0,6.216 0,7 C0,9.209 1.791,11 4,11 C6.209,11 8,9.209 8,7 C8,6.216 7.411,3.381 7.016,1.569 C6.816,0.65 6.004,0 5.063,0 L5.063,0 Z"/>
    </g>
    <circle cx="14" cy="25" r="1.5" fill="#BA9B48"/>
    <polygon fill="#BA9B48" points="16.5 17 14 17 13 16 16.5 16"/>
    <circle cx="16.5" cy="16.5" r=".5" fill="#BA9B48"/>
    <polygon fill="#BA9B48" points="11.5 18 14 18 15 17 11.5 17"/>
    <circle cx="11.5" cy="17.5" r=".5" fill="#BA9B48"/>
    <polygon fill="#BA9B48" points="16.5 15 14 15 13 14 16.5 14"/>
    <circle cx="16.5" cy="14.5" r=".5" fill="#BA9B48"/>
    <polygon fill="#BA9B48" points="11.5 16 14 16 15 15 11.5 15"/>
    <circle cx="11.5" cy="15.5" r=".5" fill="#BA9B48"/>
    <polygon fill="#BA9B48" points="16.5 13 14 13 13 12 16.5 12"/>
    <circle cx="16.5" cy="12.5" r=".5" fill="#BA9B48"/>
    <polygon fill="#BA9B48" points="11.5 14 14 14 15 13 11.5 13"/>
    <circle cx="11.5" cy="13.5" r=".5" fill="#BA9B48"/>
    <polygon fill="#BA9B48" points="16.5 11 14 11 13 10 16.5 10"/>
    <circle cx="16.5" cy="10.5" r=".5" fill="#BA9B48"/>
    <polygon fill="#BA9B48" points="11.5 12 14 12 15 11 11.5 11"/>
    <circle cx="11.5" cy="11.5" r=".5" fill="#BA9B48"/>
    <polygon fill="#BA9B48" points="16.5 9 14 9 13 8 16.5 8"/>
    <circle cx="16.5" cy="8.5" r=".5" fill="#BA9B48"/>
    <polygon fill="#BA9B48" points="11.5 10 14 10 15 9 11.5 9"/>
    <circle cx="11.5" cy="9.5" r=".5" fill="#BA9B48"/>
    <polygon fill="#BA9B48" points="16.5 7 14 7 13 6 16.5 6"/>
    <circle cx="16.5" cy="6.5" r=".5" fill="#BA9B48"/>
    <polygon fill="#BA9B48" points="11.5 8 14 8 15 7 11.5 7"/>
    <circle cx="11.5" cy="7.5" r=".5" fill="#BA9B48"/>
    <polygon fill="#BA9B48" points="16.5 5 14 5 13 4 16.5 4"/>
    <circle cx="16.5" cy="4.5" r=".5" fill="#BA9B48"/>
    <polygon fill="#BA9B48" points="11.5 6 14 6 15 5 11.5 5"/>
    <circle cx="11.5" cy="5.5" r=".5" fill="#BA9B48"/>
    <polygon fill="#BA9B48" points="16.5 3 14 3 13 2 16.5 2"/>
    <circle cx="16.5" cy="2.5" r=".5" fill="#BA9B48"/>
    <polygon fill="#BA9B48" points="11.5 4 14 4 15 3 11.5 3"/>
    <circle cx="11.5" cy="3.5" r=".5" fill="#BA9B48"/>
    <polygon fill="#BA9B48" points="11.5 2 14 2 15 1 11.5 1"/>
    <circle cx="11.5" cy="1.5" r=".5" fill="#BA9B48"/>
    <g transform="translate(18)">
      <polygon fill="#FFFFFF" points=".5 9.5 .5 .5 .793 .5 9.5 9.207 9.5 9.5"/>
      <path fill="#BA9A4C" d="M1,1.414 L8.586,9 L1,9 L1,1.414 L1,1.414 Z M1,0 L0,0 L0,10 L10,10 L10,9 L1,0 L1,0 Z"/>
    </g>
  </g>
</svg>
