<svg xmlns="http://www.w3.org/2000/svg" width="70" height="70" fill="none"><path fill="#717D83" d="M35 0C15.7 0 0 15.7 0 35s15.7 35 35 35 35-15.7 35-35S54.3 0 35 0zm0 2.41A32.62 32.62 0 0 1 67.59 35 32.62 32.62 0 0 1 35 67.59 32.62 32.62 0 0 1 2.41 35 32.62 32.62 0 0 1 35 2.41zm0 4.83A27.79 27.79 0 0 0 7.24 35 27.79 27.79 0 0 0 35 62.76 27.79 27.79 0 0 0 62.76 35c0-8.58-3.87-16.53-10.62-21.84a1.2 1.2 0 1 0-1.5 1.9A25.22 25.22 0 0 1 60.35 35 25.38 25.38 0 0 1 35 60.34 25.38 25.38 0 0 1 9.66 35 25.38 25.38 0 0 1 38.7 9.92a1.2 1.2 0 0 0 1.37-1.02 1.2 1.2 0 0 0-1.02-1.37c-1.33-.19-2.7-.29-4.05-.29zm9.1 1.62a1.2 1.2 0 0 0-.36 2.34c.95.35 1.89.76 2.78 1.22a1.2 1.2 0 0 0 1.1-2.15c-.98-.5-2-.95-3.05-1.34a1.17 1.17 0 0 0-.48-.07zm-9.05 12.86c-.1 0-.19.04-.28.06-.55.05-1.09.27-1.47.69a2.34 2.34 0 0 0-.62 1.74l1.11 16.9h.05v1.13a1.2 1.2 0 1 0 2.41 0v-1.9l1.07-16.11a2.35 2.35 0 0 0-.62-1.76 2.2 2.2 0 0 0-1.29-.67 1.17 1.17 0 0 0-.36-.08zM13.28 33.8a1.2 1.2 0 0 0-1.21 1.21v2.41a1.2 1.2 0 1 0 2.41 0V35c0-.67-.54-1.2-1.2-1.2zm6.03 0c-.66 0-1.2.54-1.2 1.21v2.41a1.2 1.2 0 1 0 2.4 0V35c0-.67-.53-1.2-1.2-1.2zm6.03 0c-.66 0-1.2.54-1.2 1.21v2.41a1.2 1.2 0 1 0 2.41 0V35c0-.67-.54-1.2-1.2-1.2zm19.32 0a1.2 1.2 0 0 0-1.21 1.21v2.41a1.2 1.2 0 1 0 2.41 0V35c0-.67-.54-1.2-1.2-1.2zm6.03 0c-.67 0-1.2.54-1.2 1.21v2.41a1.2 1.2 0 1 0 2.4 0V35c0-.67-.54-1.2-1.2-1.2zm6.03 0c-.66 0-1.2.54-1.2 1.21v2.41a1.2 1.2 0 1 0 2.41 0V35c0-.67-.54-1.2-1.2-1.2zM35.05 45.86a2.41 2.41 0 1 0 0 4.83 2.41 2.41 0 0 0 0-4.83z"/></svg>
