<svg xmlns="http://www.w3.org/2000/svg" xmlns:xlink="http://www.w3.org/1999/xlink" width="49" height="32"><use fill="#FFF" xlink:href="#path0_fill"/><use fill="#717D83" xlink:href="#path1_fill"/><defs><path id="path0_fill" d="M2.3 0C1 0 0 1 0 2.29v21.33c0 1.3 1 2.28 2.3 2.28h.76v.77c0 1.3 1 2.28 2.3 2.28h.76v.76c0 1.3 1 2.29 2.3 2.29H46.7c1.3 0 2.3-1 2.3-2.29V8.38c0-1.3-1-2.28-2.3-2.28h-.76v-.77c0-1.3-1-2.28-2.3-2.28h-.77v-.76c0-1.3-1-2.29-2.3-2.29H2.3zm9.18 3.05c-.46 0-.76.3-.76.76v1.52c0 .46.3.77.76.77s.77-.3.77-.77V3.81c0-.46-.3-.76-.77-.76zm3.83 0c-.46 0-.76.3-.76.76v1.52c0 .46.3.77.76.77s.77-.3.77-.77V3.81c0-.46-.3-.76-.77-.76zm3.83 0c-.46 0-.77.3-.77.76v1.6c-2.3 1.37-3.82 4.2-3.82 7.54 0 3.35 1.6 6.18 3.82 7.55v1.6c0 .45.31.76.77.76s.77-.3.77-.76v-1a4.99 4.99 0 0 0 3.06 0v1c0 .45.3.76.76.76s.77-.3.77-.76v-1.6c2.3-1.38 3.83-4.2 3.83-7.55 0-3.35-1.61-6.17-3.83-7.54V3.8c0-.46-.3-.76-.77-.76-.46 0-.76.3-.76.76v1a4.99 4.99 0 0 0-3.06 0v-1c0-.46-.3-.76-.77-.76zm8.42 0c-.46 0-.76.3-.76.76v1.52c0 .46.3.77.76.77s.77-.3.77-.77V3.81c0-.46-.3-.76-.77-.76zm3.83 0c-.46 0-.77.3-.77.76v1.52c0 .46.31.77.77.77s.77-.3.77-.77V3.81c0-.46-.3-.76-.77-.76zM3.83 3.8c-.46 0-.77.3-.77.76s.3.76.77.76h3.83c.46 0 .76-.3.76-.76s-.3-.76-.76-.76H3.83zm31.39 0c-.46 0-.77.3-.77.76s.3.76.77.76h3.83c.46 0 .76-.3.76-.76s-.3-.76-.76-.76h-3.83zM21.44 5.94c2.98 0 5.43 3.13 5.43 7.01 0 3.89-2.45 7.01-5.43 7.01-2.99 0-5.44-3.12-5.44-7 0-3.9 2.45-7.02 5.44-7.02zM7.66 10.67a3.06 3.06 0 0 0-3.07 3.04 3.06 3.06 0 0 0 6.13 0 3.06 3.06 0 0 0-3.06-3.04zm27.56 0a3.06 3.06 0 0 0-3.06 3.04 3.06 3.06 0 0 0 6.12 0 3.06 3.06 0 0 0-3.06-3.04zM7.66 12.04c.91 0 1.68.76 1.68 1.67a1.7 1.7 0 0 1-1.68 1.68 1.7 1.7 0 0 1-1.69-1.68c0-.9.77-1.67 1.69-1.67zm27.56 0c.92 0 1.68.76 1.68 1.67a1.7 1.7 0 0 1-1.68 1.68 1.7 1.7 0 0 1-1.69-1.68c0-.9.77-1.67 1.69-1.67zM11.48 19.8c-.46 0-.76.3-.76.76v1.53c0 .45.3.76.76.76s.77-.3.77-.76v-1.53c0-.46-.3-.76-.77-.76zm3.83 0c-.46 0-.76.3-.76.76v1.53c0 .45.3.76.76.76s.77-.3.77-.76v-1.53c0-.46-.3-.76-.77-.76zm12.25 0c-.46 0-.76.3-.76.76v1.53c0 .45.3.76.76.76s.77-.3.77-.76v-1.53c0-.46-.3-.76-.77-.76zm3.83 0c-.46 0-.77.3-.77.76v1.53c0 .45.31.76.77.76s.77-.3.77-.76v-1.53c0-.46-.3-.76-.77-.76zm-27.56.76c-.46 0-.77.3-.77.76s.3.77.77.77h3.83c.46 0 .76-.3.76-.77 0-.45-.3-.76-.76-.76H3.83zm31.39 0c-.46 0-.77.3-.77.76s.3.77.77.77h3.83c.46 0 .76-.3.76-.77 0-.45-.3-.76-.76-.76h-3.83z"/><path id="path1_fill" d="M2.3 0C1 0 0 1 0 2.29v21.33c0 1.3 1 2.28 2.3 2.28h.76v.77c0 1.3 1 2.28 2.3 2.28h.76v.76c0 1.3 1 2.29 2.3 2.29H46.7c1.3 0 2.3-1 2.3-2.29V8.38c0-1.3-1-2.28-2.3-2.28h-.76v-.77c0-1.3-1-2.28-2.3-2.28h-.77v-.76c0-1.3-1-2.29-2.3-2.29H2.3zm0 1.52h38.28c.46 0 .76.3.76.77v21.33c0 .46-.3.76-.76.76H2.3c-.46 0-.77-.3-.77-.76V2.29c0-.46.3-.77.77-.77zm9.18 1.53c-.46 0-.76.3-.76.76v1.52c0 .46.3.77.76.77s.77-.3.77-.77V3.81c0-.46-.3-.76-.77-.76zm3.83 0c-.46 0-.76.3-.76.76v1.52c0 .46.3.77.76.77s.77-.3.77-.77V3.81c0-.46-.3-.76-.77-.76zm3.83 0c-.46 0-.77.3-.77.76v1.6c-2.3 1.37-3.82 4.2-3.82 7.54 0 3.35 1.6 6.18 3.82 7.55v1.6c0 .45.31.76.77.76s.77-.3.77-.76v-1a4.99 4.99 0 0 0 3.06 0v1c0 .45.3.76.76.76s.77-.3.77-.76v-1.6c2.3-1.38 3.83-4.2 3.83-7.55 0-3.35-1.61-6.17-3.83-7.54V3.8c0-.46-.3-.76-.77-.76-.46 0-.76.3-.76.76v1a4.99 4.99 0 0 0-3.06 0v-1c0-.46-.3-.76-.77-.76zm8.42 0c-.46 0-.76.3-.76.76v1.52c0 .46.3.77.76.77s.77-.3.77-.77V3.81c0-.46-.3-.76-.77-.76zm3.83 0c-.46 0-.77.3-.77.76v1.52c0 .46.31.77.77.77s.77-.3.77-.77V3.81c0-.46-.3-.76-.77-.76zM3.83 3.8c-.46 0-.77.3-.77.76s.3.76.77.76h3.83c.46 0 .76-.3.76-.76s-.3-.76-.76-.76H3.83zm31.39 0c-.46 0-.77.3-.77.76s.3.76.77.76h3.83c.46 0 .76-.3.76-.76s-.3-.76-.76-.76h-3.83zm7.66.76h.76c.46 0 .77.3.77.76v21.34c0 .45-.3.76-.77.76H5.36c-.46 0-.77-.3-.77-.76v-.77h35.99c1.3 0 2.3-.99 2.3-2.28V4.57zM21.43 5.94c2.98 0 5.43 3.13 5.43 7.01 0 3.89-2.45 7.01-5.43 7.01-2.99 0-5.44-3.12-5.44-7 0-3.9 2.45-7.02 5.44-7.02zm24.5 1.68h.76c.46 0 .77.3.77.76v21.33c0 .46-.3.77-.77.77H8.42c-.46 0-.76-.3-.76-.77v-.76h35.98c1.3 0 2.3-.99 2.3-2.28V7.62zM7.66 10.67a3.06 3.06 0 0 0-3.07 3.04 3.06 3.06 0 0 0 6.13 0 3.06 3.06 0 0 0-3.06-3.04zm27.56 0a3.06 3.06 0 0 0-3.06 3.04 3.06 3.06 0 0 0 6.12 0 3.06 3.06 0 0 0-3.06-3.04zM7.66 12.04c.91 0 1.68.76 1.68 1.67a1.7 1.7 0 0 1-1.68 1.68 1.7 1.7 0 0 1-1.69-1.68c0-.9.77-1.67 1.69-1.67zm27.56 0c.92 0 1.68.76 1.68 1.67a1.7 1.7 0 0 1-1.68 1.68 1.7 1.7 0 0 1-1.69-1.68c0-.9.77-1.67 1.69-1.67zM11.48 19.8c-.46 0-.76.3-.76.76v1.53c0 .45.3.76.76.76s.77-.3.77-.76v-1.53c0-.46-.3-.76-.77-.76zm3.83 0c-.46 0-.76.3-.76.76v1.53c0 .45.3.76.76.76s.77-.3.77-.76v-1.53c0-.46-.3-.76-.77-.76zm12.25 0c-.46 0-.76.3-.76.76v1.53c0 .45.3.76.76.76s.77-.3.77-.76v-1.53c0-.46-.3-.76-.77-.76zm3.83 0c-.46 0-.77.3-.77.76v1.53c0 .45.31.76.77.76s.77-.3.77-.76v-1.53c0-.46-.3-.76-.77-.76zm-27.56.76c-.46 0-.77.3-.77.76s.3.77.77.77h3.83c.46 0 .76-.3.76-.77 0-.45-.3-.76-.76-.76H3.83zm31.39 0c-.46 0-.77.3-.77.76s.3.77.77.77h3.83c.46 0 .76-.3.76-.77 0-.45-.3-.76-.76-.76h-3.83z"/></defs></svg>