<svg fill="none" height="60" viewBox="0 0 60 60" width="60" xmlns="http://www.w3.org/2000/svg"><path d="m50.2901 52.2632h-19.3423v-47.38893h19.3423z" fill="#41cfc8"/><g fill="#003a69"><path d="m55.1257 54.1975v-29.9401c0-1.6219-1.3192-2.9419-2.9419-2.9419h-1.8936v1.9342h1.8936c.5552 0 1.0077.4516 1.0077 1.0077v29.9401h-46.42177v-29.9401c0-.5561.45267-1.0077 1.00767-1.0077h1.89359v27.0794h-.96722v1.9342h.96722 19.34241 22.2438v-1.9342h-22.2436v-27.0794h1.9342v-1.9342h-1.9342v-10.9432l-19.3424 5.3724v5.5706h-1.8938c-1.62291 0-2.94191 1.32-2.94191 2.9419v29.9401h-4.83549v3.2021c0 1.4343 1.16632 2.6006 2.60065 2.6006h54.75925c1.4352 0 2.6015-1.1663 2.6015-2.6006v-3.2021zm-43.5203-36.9826 15.4739-4.2989v37.4131h-15.4739zm46.4218 40.1847c0 .3675-.2998.6664-.6664.6664h-54.76036c-.36663 0-.66641-.2987-.66641-.6664v-1.2678h2.90146 50.29021 2.9015z"/><path d="m34.8161 3.66917 5.8027-1.65756 5.8027 1.65756v1.20511h1.9343v-2.66337l-7.737-2.21091-7.737 2.21091v2.66337h1.9343z"/><path d="m37.7174 8.74268h-1.9342v1.93422h1.9342z"/><path d="m41.5861 8.74268h-1.9342v1.93422h1.9342z"/><path d="m45.4543 8.74268h-1.9343v1.93422h1.9343z"/><path d="m37.7174 12.6113h-1.9342v1.9343h1.9342z"/><path d="m41.5861 12.6113h-1.9342v1.9343h1.9342z"/><path d="m45.4543 12.6113h-1.9343v1.9343h1.9343z"/><path d="m37.7174 16.4797h-1.9342v1.9343h1.9342z"/><path d="m41.5861 16.4797h-1.9342v1.9343h1.9342z"/><path d="m45.4543 16.4797h-1.9343v1.9343h1.9343z"/><path d="m37.7174 20.3481h-1.9342v1.9343h1.9342z"/><path d="m41.5861 20.3481h-1.9342v1.9343h1.9342z"/><path d="m45.4543 20.3481h-1.9343v1.9343h1.9343z"/><path d="m37.7174 24.2166h-1.9342v1.9342h1.9342z"/><path d="m41.5861 24.2166h-1.9342v1.9342h1.9342z"/><path d="m45.4543 24.2166h-1.9343v1.9342h1.9343z"/><path d="m37.7174 28.0852h-1.9342v1.9342h1.9342z"/><path d="m41.5861 28.0852h-1.9342v1.9342h1.9342z"/><path d="m45.4543 28.0852h-1.9343v1.9342h1.9343z"/><path d="m37.7174 31.9536h-1.9342v1.9343h1.9342z"/><path d="m41.5861 31.9536h-1.9342v1.9343h1.9342z"/><path d="m45.4543 31.9536h-1.9343v1.9343h1.9343z"/><path d="m37.7174 35.822h-1.9342v1.9343h1.9342z"/><path d="m41.5861 35.822h-1.9342v1.9343h1.9342z"/><path d="m45.4543 35.822h-1.9343v1.9343h1.9343z"/><path d="m37.7174 39.6907h-1.9342v1.9342h1.9342z"/><path d="m41.5861 39.6907h-1.9342v1.9342h1.9342z"/><path d="m45.4543 39.6907h-1.9343v1.9342h1.9343z"/><path d="m37.7174 43.5591h-1.9342v1.9342h1.9342z"/><path d="m41.5861 43.5591h-1.9342v1.9342h1.9342z"/><path d="m45.4543 43.5591h-1.9343v1.9342h1.9343z"/><path d="m20.3092 16.4797h-1.9342v1.9343h1.9342z"/><path d="m24.1779 16.4797h-1.9342v1.9343h1.9342z"/><path d="m16.4406 20.3481h-1.9343v1.9343h1.9343z"/><path d="m20.3092 20.3481h-1.9342v1.9343h1.9342z"/><path d="m24.1779 20.3481h-1.9342v1.9343h1.9342z"/><path d="m16.4406 24.2166h-1.9343v1.9342h1.9343z"/><path d="m20.3092 24.2166h-1.9342v1.9342h1.9342z"/><path d="m24.1779 24.2166h-1.9342v1.9342h1.9342z"/><path d="m16.4406 28.0852h-1.9343v1.9342h1.9343z"/><path d="m20.3092 28.0852h-1.9342v1.9342h1.9342z"/><path d="m24.1779 28.0852h-1.9342v1.9342h1.9342z"/><path d="m16.4406 31.9536h-1.9343v1.9343h1.9343z"/><path d="m20.3092 31.9536h-1.9342v1.9343h1.9342z"/><path d="m24.1779 31.9536h-1.9342v1.9343h1.9342z"/><path d="m16.4406 35.822h-1.9343v1.9343h1.9343z"/><path d="m20.3092 35.822h-1.9342v1.9343h1.9342z"/><path d="m24.1779 35.822h-1.9342v1.9343h1.9342z"/><path d="m16.4406 39.6907h-1.9343v1.9342h1.9343z"/><path d="m20.3092 39.6907h-1.9342v1.9342h1.9342z"/><path d="m24.1779 39.6907h-1.9342v1.9342h1.9342z"/><path d="m16.4406 43.5591h-1.9343v1.9342h1.9343z"/><path d="m20.3092 43.5591h-1.9342v1.9342h1.9342z"/><path d="m24.1779 43.5591h-1.9342v1.9342h1.9342z"/></g></svg>