<svg xmlns="http://www.w3.org/2000/svg" xmlns:xlink="http://www.w3.org/1999/xlink" width="18" height="18"><use opacity=".54" transform="translate(.24)" xlink:href="#path0_fill"/><defs><path id="path0_fill" fill-rule="evenodd" d="M6.7.56L6.82 0h3.9l.1.56.42 2.06c.66.26 1.25.62 1.8 1.06l2-.7.55-.17.28.5 1.38 2.38.28.5-.4.37-1.56 1.36c.05.35.13.7.13 1.08 0 .3-.05.6-.1.9l-.03.18 1.55 1.36.41.37-.28.5-1.38 2.38-.28.5-.54-.18-2.02-.69c-.54.44-1.13.8-1.8 1.06l-.4 2.06-.11.56H6.8l-.1-.56-.41-2.06a6.88 6.88 0 0 1-1.8-1.06l-2.01.7-.54.17-.28-.5-1.39-2.38-.28-.5.41-.37 1.56-1.36-.03-.18c-.05-.3-.1-.6-.1-.9 0-.37.07-.73.13-1.08L.4 6.56 0 6.19l.28-.5 1.39-2.38.28-.5.54.18 2.01.69c.54-.44 1.14-.8 1.8-1.06L6.7.56zM10.85 9A2.07 2.07 0 1 0 6.7 9a2.07 2.07 0 1 0 4.15 0z"/></defs></svg>