<svg xmlns="http://www.w3.org/2000/svg" xmlns:xlink="http://www.w3.org/1999/xlink" width="70" height="70"><use fill="#717D83" xlink:href="#path0_fill"/><defs><path id="path0_fill" d="M35 0C15.7 0 0 15.7 0 35s15.7 35 35 35 35-15.7 35-35S54.3 0 35 0zm0 2.41A32.62 32.62 0 0 1 67.59 35 32.62 32.62 0 0 1 35 67.59 32.62 32.62 0 0 1 2.41 35 32.62 32.62 0 0 1 35 2.41zm0 4.83A27.79 27.79 0 0 0 7.24 35 27.79 27.79 0 0 0 35 62.76 27.79 27.79 0 0 0 62.76 35a27.6 27.6 0 0 0-10.62-21.84 1.2 1.2 0 0 0-1.5 1.9A25.22 25.22 0 0 1 60.35 35 25.38 25.38 0 0 1 35 60.34 25.38 25.38 0 0 1 9.66 35 25.38 25.38 0 0 1 38.7 9.92a1.2 1.2 0 0 0 1.37-1.01c.1-.66-.36-1.28-1.02-1.38-1.33-.19-2.7-.29-4.05-.29zm9.09 1.62a1.21 1.21 0 0 0-.35 2.34c.94.35 1.88.76 2.78 1.22a1.2 1.2 0 0 0 1.1-2.15 31.7 31.7 0 0 0-3.05-1.34 1.18 1.18 0 0 0-.48-.07zM35 14.48c-.66 0-1.2.54-1.2 1.21v2.41a1.2 1.2 0 0 0 2.4 0v-2.4c0-.67-.54-1.2-1.2-1.2zm7.22 1.41c-.47 0-.92.29-1.1.76l-.91 2.23a1.2 1.2 0 1 0 2.24.9l.9-2.23a1.2 1.2 0 0 0-1.13-1.66zm6.17 4.01c-.3 0-.6.13-.84.37l-1.68 1.74a1.2 1.2 0 0 0 1.73 1.68l1.68-1.74a1.21 1.21 0 0 0-.89-2.05zM35 21.72c-.66 0-1.2.55-1.2 1.21v10A2.41 2.41 0 0 0 35 37.4c.22 0 .42-.03.62-.09l7.58 7.59a1.2 1.2 0 0 0 1.7 0 1.2 1.2 0 0 0 0-1.71l-7.58-7.58c.06-.2.1-.4.1-.62 0-.9-.5-1.66-1.21-2.08v-9.99c0-.66-.55-1.2-1.21-1.2zm17.62 4.22c-.16 0-.32.04-.47.1l-2.2.98c-.61.28-.89.99-.62 1.6a1.21 1.21 0 0 0 1.6.61l2.2-.98c.61-.27.88-.99.61-1.6a1.2 1.2 0 0 0-1.12-.71zm-36.93 7.85a1.2 1.2 0 0 0 0 2.42h2.41a1.2 1.2 0 0 0 0-2.42h-2.4zm36.2 0a1.2 1.2 0 0 0 0 2.42h2.42a1.2 1.2 0 0 0 0-2.42H51.9zm-1.24 6.33a1.21 1.21 0 0 0-.43 2.32l2.23.91c.15.07.3.1.45.1a1.2 1.2 0 0 0 .45-2.34l-2.23-.9a1.19 1.19 0 0 0-.47-.09zm-3.52 5.4c-.3.02-.61.14-.84.38a1.2 1.2 0 0 0-.31.67c-.2.44-.13.98.24 1.35l1.58 1.59a1.2 1.2 0 0 0 1.7 0c.05-.05.07-.1.11-.15l.15-.1a1.2 1.2 0 0 0-.03-1.71l-1.74-1.68a1.21 1.21 0 0 0-.86-.34zM35 50.7c-.66 0-1.2.54-1.2 1.2v2.42a1.2 1.2 0 0 0 2.4 0V51.9a1.2 1.2 0 0 0-1.2-1.21z"/></defs></svg>