<svg fill="none" height="70" viewBox="0 0 70 70" width="70" xmlns="http://www.w3.org/2000/svg"><path clip-rule="evenodd" d="m32 0c-17.6422 0-32 14.3578-32 32s14.3578 32 32 32 32-14.3578 32-32-14.3578-32-32-32zm0 2.20691c16.4268 0 29.7931 13.36639 29.7931 29.79309 0 16.4268-13.3663 29.7931-29.7931 29.7931-16.4267 0-29.79309-13.3663-29.79309-29.7931 0-16.4267 13.36639-29.79309 29.79309-29.79309zm-17.9482 11.84479c4.6637-4.66382 10.9655-7.28882 17.4655-7.42243 1.5-.03015 3.0086.06897 4.5172.31037.5992.09484 1.0129.66375.9138 1.26721-.0991.59918-.6638 1.01294-1.2629.91382-7.3276-1.17676-14.8319 1.25433-20.069 6.49563-9.03449 9.0345-9.03876 23.7328 0 32.7673.431.431.431 1.1293 0 1.5604-.2155.2155-.5.3232-.7845.3232-.2801 0-.5646-.1077-.7801-.3232-9.89232-9.8966-9.89232-25.9958 0-35.8923zm26.4008-5.90088c-.4311.01727-.8276.28882-.9871.71551-.2155.57331.0733 1.20687.6466 1.42247.7844.293 1.5603.6293 2.3189 1.0086.1595.0819.3276.1207.4957.1207.4009 0 .7888-.2199.9871-.6078.2715-.5388.0517-1.20685-.4914-1.48272-.8233-.41382-1.6811-.78882-2.5388-1.11206-.1423-.05176-.2888-.06897-.431-.0647zm5.6336 4.04318c.1896-.2371.4569-.3794.737-.4138.2759-.0345.5733.0388.8147.2241.8061.6336 1.5819 1.3233 2.3103 2.0474 9.8923 9.8966 9.8923 26 0 35.8965-.2155.2113-.5.3233-.7801.3233-.2845 0-.569-.112-.7845-.3233-.431-.4353-.431-1.1292 0-1.5646 9.0388-9.0345 9.0388-23.7327 0-32.7672-.6595-.6638-1.3707-1.2974-2.1078-1.875-.4827-.375-.5646-1.0647-.1896-1.5474zm-.8449 9.875c-.2801 0-.5646.1078-.7801.3233l-15.7716 15.7715-8.0474-8.0474c-.431-.431-1.1293-.431-1.5603 0-.4311.431-.4311 1.1293 0 1.5604l8.8276 8.8275c.2155.2155.4957.3233.7801.3233.2845 0 .5647-.1078.7802-.3233l16.5517-16.5517c.4311-.4311.4311-1.1293 0-1.5603-.2155-.2155-.5-.3233-.7802-.3233zm-24.9525 28.5647c.2241-.3966.6594-.5949 1.0905-.5432.1379.0173.2802.0647.4138.138.5301.306.7069.9827.4009 1.5086l-1.1035 1.9095c-.2026.3534-.5733.5517-.9526.5517-.1897 0-.3793-.0474-.5517-.1465-.5258-.3061-.7069-.9785-.4008-1.5086zm22.3319-.5432c-.1422.0173-.2845.0647-.4138.138-.5302.306-.7069.9827-.4009 1.5129l1.1035 1.9095c.2026.3534.5733.5517.9526.5517.1896 0 .3793-.0517.5517-.1508.5302-.3061.7069-.9785.4008-1.5044l-1.1034-1.9095c-.2284-.3965-.6638-.5991-1.0905-.5474zm-17.2586 2.9612c.1206-.444.4913-.75.9181-.8103.1422-.0173.293-.0129.4396.0301.5862.1552.9354.763.7802 1.3492l-.5733 2.1336c-.1336.4914-.5819.8147-1.0646.8147-.0992 0-.194-.0086-.2889-.0345-.5861-.1595-.9396-.763-.7801-1.3491zm12.362-.8103c-.1423-.0173-.2931-.0129-.4439.0301-.5862.1552-.9354.763-.7802 1.3492l.5732 2.1336c.1336.4914.5776.8147 1.0647.8147.0992 0 .1939-.0086.2888-.0345.5862-.1595.9396-.763.7801-1.3491l-.5689-2.1337c-.1207-.444-.4914-.75-.9138-.8103zm-6.8276 1.8276c0-.6121.4914-1.1035 1.1035-1.1035s1.1035.4914 1.1035 1.1035v2.2069c0 .612-.4914 1.1034-1.1035 1.1034s-1.1035-.4914-1.1035-1.1034z" fill="#9da6aa" fill-rule="evenodd" transform="translate(3 3)"/></svg>