<svg xmlns="http://www.w3.org/2000/svg" width="22" height="23" viewBox="0 0 22 23">
  <path fill="#000000" fill-opacity=".348" d="M4,0 L4,1 L1,1 L0,1 L0,2 L0,22 L0,23 L1,23 L21,23 L22,23 L22,22 L22,2 L22,1 L21,1 L18,1 L18,0 L16,0 L16,1 L6,1 L6,0 L4,0 Z M2,3 L4,3 L4,4 L6,4 L6,3 L16,3 L16,4 L18,4 L18,3 L20,3 L20,5 L2,5 L2,3 Z M2,7 L20,7 L20,21 L2,21 L2,7 Z M8,9 L8,11 L10,11 L10,9 L8,9 Z M12,9 L12,11 L14,11 L14,9 L12,9 Z M16,9 L16,11 L18,11 L18,9 L16,9 Z M4,13 L4,15 L6,15 L6,13 L4,13 Z M8,13 L8,15 L10,15 L10,13 L8,13 Z M12,13 L12,15 L14,15 L14,13 L12,13 Z M16,13 L16,15 L18,15 L18,13 L16,13 Z M4,17 L4,19 L6,19 L6,17 L4,17 Z M8,17 L8,19 L10,19 L10,17 L8,17 Z M12,17 L12,19 L14,19 L14,17 L12,17 Z"/>
</svg>
