<svg width="132" height="107" viewBox="0 0 132 107" fill="none" xmlns="http://www.w3.org/2000/svg"><path d="M11.8777 75.8566C-8.65025 48.5754 -2.47445 9.05879 29.6649 1.80777C61.8043 -5.44324 54.8681 11.2263 97.6973 14.7447C140.526 18.2631 136.657 56.9113 121.449 75.0987C103.501 96.5881 43.3681 117.644 11.8777 75.8566Z" transform="translate(0 7.12402)" fill="#EDFAFF"/><path d="M37.3479 75.2396C57.9746 75.2396 74.6958 58.3967 74.6958 37.6198C74.6958 16.843 57.9746 0 37.3479 0C16.7212 0 0 16.843 0 37.6198C0 58.3967 16.7212 75.2396 37.3479 75.2396Z" transform="translate(39.6067)" fill="url(#paint0_linear)"/><path d="M34.2533 1.42967C33.471 0.641767 32.1968 0.641767 31.4146 1.42967L12.9681 20.0104C12.1878 20.7964 10.9173 20.7986 10.1343 20.0154L5.19111 15.0705C4.40418 14.2833 3.12596 14.29 2.34737 15.0855L1.37905 16.0748C0.614242 16.8562 0.618677 18.1069 1.38901 18.8829L10.1343 27.6919C10.9165 28.4798 12.1908 28.4798 12.973 27.6919L35.2504 5.25225C36.0246 4.47239 36.0246 3.21396 35.2504 2.4341L34.2533 1.42967Z" transform="translate(59.9189 21.8145)" fill="#fff"/><path opacity=".6" d="M0.825 22.81C2.475 20.4876 8.25 8.29456 6.1875 0C6.6 8.70929 4.5375 10.3682 0 20.3217C0.25876 21.3124 0.825 22.81 0.825 22.81Z" transform="translate(42.9 31.5195)" fill="#243036" fill-opacity=".12"/><path d="M18.1718 25.8836C23.3844 14.7329 24.4591 12.6219 24.4054 9.04937C24.3517 4.88142 24.0292 3.63645 22.4171 1.57954C20.1064 -1.39757 17.2045 0.226307 16.5059 3.20341C14.7863 10.2402 12.0457 11.8641 8.44522 16.3027C6.02701 19.2798 -0.260338 26.2625 0.00835171 36.8718C0.223304 44.937 4.84477 59.1189 4.84477 59.1189C4.84477 59.1189 5.05972 61.1758 16.3984 64.7483C28.5432 68.5915 32.0362 67.4548 32.0362 67.4548C32.0362 67.4548 35.9053 65.9933 38.7534 61.8795C44.6109 53.4353 46.7604 48.7261 46.7604 48.7261C30.0479 46.3444 19.569 32.9204 18.1718 25.8836Z" transform="translate(24.8204 26.1338)" fill="#FDC886"/><path d="M18.1718 25.8836C23.3844 14.7329 24.4591 12.6219 24.4054 9.04937C24.3517 4.88142 24.0292 3.63645 22.4171 1.57954C20.1064 -1.39757 17.2045 0.226307 16.5059 3.20341C14.7863 10.2402 12.0457 11.8641 8.44522 16.3027C6.02701 19.2798 -0.260338 26.2625 0.00835171 36.8718C0.223304 44.937 4.84477 59.1189 4.84477 59.1189C4.84477 59.1189 5.05972 61.1758 16.3984 64.7483C28.5432 68.5915 32.0362 67.4548 32.0362 67.4548C32.0362 67.4548 35.9053 65.9933 38.7534 61.8795C44.6109 53.4353 46.7604 48.7261 46.7604 48.7261C30.0479 46.3444 19.569 32.9204 18.1718 25.8836Z" transform="translate(24.8204 26.1338)" fill="url(#paint1_linear)"/><path d="M28.1587 21.4352C12.5747 19.2159 2.36447 7.30744 8.19977e-07 -1.65189e-06C5.74997 20.0819 26.1704 25.0618 26.1704 25.116C27.5676 22.6802 28.1587 21.4352 28.1587 21.4352Z" transform="translate(43.3684 53.4248)" fill="#243036" fill-opacity=".12"/><path d="M8.19977e-07 9.20197L6.12613 0C14.1331 3.95143 23.1073 6.82028 33.3176 8.3359L31.0068 21.381C18.8083 20.1361 8.54434 15.914 8.19977e-07 9.20197Z" transform="translate(23.4853 85.2539)" fill="#003A69"/><path d="M0.875152 0C0.875152 0 1.34345 1.44184 0 3.93179C0 3.93179 10.5326 12.4842 2.90185 25.6917" transform="translate(42.0249 54.7441)" stroke="#243036" stroke-opacity=".08" stroke-width="2" stroke-miterlimit="10" stroke-linecap="round" stroke-linejoin="round"/><path d="M1.97602 5.84596C3.96433 2.76059 2.78209 0 2.78209 0C2.78209 0 2.0625 0.0194404 1.2375 1.67835C0.4125 4.58105 0 5.82563 0 5.82563C0 5.82563 1.3849 6.76615 1.97602 5.84596Z" transform="translate(40.4251 26.5234)" fill="#243036" fill-opacity=".12"/><defs><linearGradient id="paint0_linear" x2="1" gradientUnits="userSpaceOnUse" gradientTransform="matrix(73.0125 51.841 -81.0847 115.436 48.3732 -40.2995)"><stop stop-color="#88BD1F"/><stop offset="1" stop-color="#C5CC00"/></linearGradient><linearGradient id="paint1_linear" x2="1" gradientUnits="userSpaceOnUse" gradientTransform="matrix(23.925 10.3682 -7.17066 16.7258 1.03943 22.7352)"><stop stop-color="#FFE2BE"/><stop offset="1" stop-color="#FEC886"/></linearGradient></defs></svg>