<svg xmlns="http://www.w3.org/2000/svg" xmlns:xlink="http://www.w3.org/1999/xlink" width="221" height="203"><use fill="url(#paint0_linear)" transform="rotate(-29.92 126.41 85.9) skewX(.12)" xlink:href="#path0_fill"/><use fill="#FFF" transform="translate(77.9 21.51)" xlink:href="#path1_fill"/><use fill="#C6CBD6" transform="translate(110.1 63.46)" xlink:href="#path2_fill"/><use fill="#FFF" transform="translate(45.2 63.17)" xlink:href="#path3_fill"/><use fill="#5D718F" transform="translate(117.1 99.35)" xlink:href="#path4_fill"/><use fill="#FFF" transform="translate(122.8 123.58)" xlink:href="#path5_fill"/><use fill="#FFF" transform="translate(135.1 123.58)" xlink:href="#path6_fill"/><use fill="#83CF8F" transform="translate(147.4 123.58)" xlink:href="#path7_fill"/><use fill="#FFE356" transform="translate(159.7 123.58)" xlink:href="#path8_fill"/><use fill="#FFF" transform="translate(122.8 135.69)" xlink:href="#path9_fill"/><use fill="#FFF" transform="translate(135.1 135.69)" xlink:href="#path10_fill"/><use fill="#FFF" transform="translate(147.4 135.69)" xlink:href="#path11_fill"/><use fill="#FFF" transform="translate(159.7 135.69)" xlink:href="#path12_fill"/><use fill="#FFF" transform="translate(122.8 147.84)" xlink:href="#path13_fill"/><use fill="#FFF" transform="translate(135.1 147.84)" xlink:href="#path14_fill"/><use fill="#FFF" transform="translate(147.4 147.84)" xlink:href="#path15_fill"/><use fill="#FFF" transform="translate(159.7 147.84)" xlink:href="#path16_fill"/><use fill="#FFF" transform="translate(122.8 159.95)" xlink:href="#path17_fill"/><use fill="#FFF" transform="translate(135.1 159.95)" xlink:href="#path18_fill"/><use fill="#FFF" transform="translate(147.4 159.95)" xlink:href="#path19_fill"/><use fill="#FFF" transform="translate(159.7 159.95)" xlink:href="#path20_fill"/><use fill="#ECF0F1" transform="translate(121.2 103.26)" xlink:href="#path21_fill"/><use fill="#807E7E" transform="translate(165.9 104.68)" xlink:href="#path22_fill"/><use fill="#83CF8F" transform="translate(62.9 78.79)" xlink:href="#path23_fill"/><g fill="#C6CBD6"><use transform="translate(71.3 85.82)" xlink:href="#path24_fill"/><use transform="translate(71.3 95.8)" xlink:href="#path25_fill"/><use transform="translate(71.3 105.74)" xlink:href="#path26_fill"/><use transform="translate(71.3 115.72)" xlink:href="#path27_fill"/></g><use fill="#FF7069" transform="translate(71.3 125.67)" xlink:href="#path28_fill"/><use fill="#C6CBD6" transform="translate(47.9 136.4)" xlink:href="#path29_fill"/><use fill="#FFE356" transform="translate(52 97)" xlink:href="#path30_fill"/><defs><linearGradient id="paint0_linear" x2="1" gradientTransform="matrix(0 176.158 -215.529 0 215.53 0)" gradientUnits="userSpaceOnUse"><stop offset="0" stop-color="#EDFAFF"/><stop offset="1" stop-color="#E5DDED"/></linearGradient><path id="path0_fill" d="M26.02 118.66c26.16-15.76 1.94-32.83-7.76-37.1-17.47-7.68-33.07-26.61 6.6-57.34 47.2-36.63 115.83-22.74 134.77-15.6 19.56 7.37 42.78 21.96 24.38 43.92-17.4 20.8-20.8 40.04 4.89 38.88 30.82-1.4 35.24 25.6 11.41 50.44-24.84 25.84-57.14 29.02-91.14 32.82-90.14 10.17-118.47-34.84-83.15-56.02z"/><path id="path1_fill" d="M62.7 6.59V64.3H0V5.64A82.88 82.88 0 0 1 30.23 0a82.82 82.82 0 0 1 32.51 6.59h-.04z"/><path id="path2_fill" d="M30.55 22.36H0c.98-29.24 29.57-30.38 30.55 0z"/><path id="path3_fill" d="M22.6 0h57.49c-7.56 0-13.86 8.6-15.08 19.85v73.34l-6.15-9-6.54 9.6-6.54-9.6-6.54 9.6-6.54-9.6-6.54 9.6-6.54-9.6-6.54 9.6-6.54-9.6L0 93.8V22.9A22.84 22.84 0 0 1 22.71 0h-.11z"/><path id="path4_fill" d="M0 0h61.6v74.17H0V0z"/><path id="path5_fill" d="M1.57 0H7.9c.86 0 1.57.71 1.57 1.58v6.39c0 .87-.7 1.58-1.57 1.58H1.57C.7 9.55 0 8.84 0 7.97v-6.4C0 .72.7 0 1.57 0z"/><path id="path6_fill" d="M1.57 0H7.9c.86 0 1.57.71 1.57 1.58v6.39c0 .87-.7 1.58-1.57 1.58H1.57C.7 9.55 0 8.84 0 7.97v-6.4C0 .72.7 0 1.57 0z"/><path id="path7_fill" d="M1.57 0H7.9c.86 0 1.57.71 1.57 1.58v6.39c0 .87-.7 1.58-1.57 1.58H1.57C.7 9.55 0 8.84 0 7.97v-6.4C0 .72.7 0 1.57 0z"/><path id="path8_fill" d="M1.57 0H7.9c.86 0 1.57.71 1.57 1.58v6.39c0 .87-.7 1.58-1.57 1.58H1.57C.7 9.55 0 8.84 0 7.97v-6.4C0 .72.7 0 1.57 0z"/><path id="path9_fill" d="M1.57 0H7.9c.86 0 1.57.71 1.57 1.58v6.39c0 .87-.7 1.58-1.57 1.58H1.57C.7 9.55 0 8.84 0 7.97v-6.4C0 .72.7 0 1.57 0z"/><path id="path10_fill" d="M1.57 0H7.9c.86 0 1.57.71 1.57 1.58v6.39c0 .87-.7 1.58-1.57 1.58H1.57C.7 9.55 0 8.84 0 7.97v-6.4C0 .72.7 0 1.57 0z"/><path id="path11_fill" d="M1.57 0H7.9c.86 0 1.57.71 1.57 1.58v6.39c0 .87-.7 1.58-1.57 1.58H1.57C.7 9.55 0 8.84 0 7.97v-6.4C0 .72.7 0 1.57 0z"/><path id="path12_fill" d="M1.57 0H7.9c.86 0 1.57.71 1.57 1.58v6.39c0 .87-.7 1.58-1.57 1.58H1.57C.7 9.55 0 8.84 0 7.97v-6.4C0 .72.7 0 1.57 0z"/><path id="path13_fill" d="M1.57 0H7.9c.86 0 1.57.71 1.57 1.58v6.39c0 .87-.7 1.58-1.57 1.58H1.57C.7 9.55 0 8.84 0 7.97v-6.4C0 .72.7 0 1.57 0z"/><path id="path14_fill" d="M1.57 0H7.9c.86 0 1.57.71 1.57 1.58v6.39c0 .87-.7 1.58-1.57 1.58H1.57C.7 9.55 0 8.84 0 7.97v-6.4C0 .72.7 0 1.57 0z"/><path id="path15_fill" d="M1.57 0H7.9c.86 0 1.57.71 1.57 1.58v6.39c0 .87-.7 1.58-1.57 1.58H1.57C.7 9.55 0 8.84 0 7.97v-6.4C0 .72.7 0 1.57 0z"/><path id="path16_fill" d="M1.57 0H7.9c.86 0 1.57.71 1.57 1.58v6.39c0 .87-.7 1.58-1.57 1.58H1.57C.7 9.55 0 8.84 0 7.97v-6.4C0 .72.7 0 1.57 0z"/><path id="path17_fill" d="M1.57 0H7.9c.86 0 1.57.71 1.57 1.58v6.39c0 .87-.7 1.58-1.57 1.58H1.57C.7 9.55 0 8.84 0 7.97v-6.4C0 .72.7 0 1.57 0z"/><path id="path18_fill" d="M1.57 0H7.9c.86 0 1.57.71 1.57 1.58v6.39c0 .87-.7 1.58-1.57 1.58H1.57C.7 9.55 0 8.84 0 7.97v-6.4C0 .72.7 0 1.57 0z"/><path id="path19_fill" d="M1.57 0H7.9c.86 0 1.57.71 1.57 1.58v6.39c0 .87-.7 1.58-1.57 1.58H1.57C.7 9.55 0 8.84 0 7.97v-6.4C0 .72.7 0 1.57 0z"/><path id="path20_fill" d="M1.57 0H7.9c.86 0 1.57.71 1.57 1.58v6.39c0 .87-.7 1.58-1.57 1.58H1.57C.7 9.55 0 8.84 0 7.97v-6.4C0 .72.7 0 1.57 0z"/><path id="path21_fill" d="M0 0h53.22v11.88H0V0z"/><path id="path22_fill" d="M3.05 0a3.07 3.07 0 0 1 3.06 3.08v2.25A3.07 3.07 0 0 1 3.06 8.4 3.07 3.07 0 0 1 0 5.32V3.08A3.07 3.07 0 0 1 3.05 0zm1.38 1.7a2 2 0 0 0-1.38-.6c-.54 0-1.01.24-1.37.6a2 2 0 0 0-.58 1.38v2.25A1.99 1.99 0 0 0 3.06 7.3c.54 0 1.01-.24 1.37-.6.35-.35.58-.86.58-1.37V3.08c0-.56-.23-1.03-.58-1.38z"/><path id="path23_fill" d="M0 0h28.7v2.68H0V0z"/><path id="path24_fill" d="M0 0h32.15v2.68H0V0z"/><path id="path25_fill" d="M0 0h32.15v2.64H0V0z"/><path id="path26_fill" d="M0 0h32.15v2.68H0V0z"/><path id="path27_fill" d="M0 0h32.15v2.64H0V0z"/><path id="path28_fill" d="M0 0h16.1v2.68H0V0z"/><path id="path29_fill" d="M0 0h2.78v2.8H0V0zm55.89 0h2.78v2.8h-2.78V0zm-6.23 0h2.78v2.8h-2.78V0zm-6.23 0h2.78v2.8h-2.78V0zm-6.22 0h2.78v2.8H37.2V0zm-6.23 0h2.78v2.8h-2.78V0zm-6.23 0h2.78v2.8h-2.78V0zm-6.23 0h2.79v2.8h-2.79V0zM12.3 0h2.78v2.8H12.3V0zM6.07 0h2.78v2.8H6.07V0z"/><path id="path30_fill" d="M8.1 17.34H4.96V20H2v-2.66H0V14h2v-1.05H0V9.62h2V0h5.58c1.08 0 2.03.27 2.85.81a5.26 5.26 0 0 1 1.89 2.32c.45 1 .68 2.14.68 3.42 0 1.98-.48 3.54-1.45 4.69a4.95 4.95 0 0 1-4.01 1.71H4.96V14H8.1v3.34zM4.96 9.62h2.56C9.17 9.62 10 8.6 10 6.58a3.9 3.9 0 0 0-.63-2.32c-.42-.6-1-.9-1.75-.9H4.96v6.26z"/></defs></svg>