<svg width="184" height="168" viewBox="0 0 184 168" fill="none" xmlns="http://www.w3.org/2000/svg">
<path d="M46.33 136.165C58.6818 113.906 33.9879 111.661 25.1717 112.619C9.3024 114.342 -9.92995 107.167 5.9332 68.4744C24.7806 22.3909 80.3054 3.85938 97.0155 1.13036C114.273 -1.68905 137.196 -0.817082 133.067 22.693C129.182 44.9429 134.768 60.2572 152.892 48.7234C174.631 34.8894 189.146 52.5426 182.284 80.3869C175.113 109.379 153.054 125.116 130.018 142.011C68.9924 186.857 29.6181 166.158 46.33 136.165Z" fill="#243036" fill-opacity="0.12"/>
<path d="M30.9223 39.8096H148.503C152.371 39.8096 155.527 42.9597 155.527 46.8201V119.118H23.8984V46.8201C23.8984 42.9597 27.0855 39.8096 30.9223 39.8096Z" fill="#666666"/>
<path d="M28.6631 114.363H150.761V46.8209C150.761 45.5856 149.74 44.5664 148.502 44.5664H30.9219C29.6842 44.5664 28.6631 45.5856 28.6631 46.8209V114.363Z" fill="#6B7F9E"/>
<path d="M60.001 56H108.9L120 67.1419V114.367H60V56H60.001Z" fill="white"/>
<path d="M108.899 56L120 67.1419H108.899V56Z" fill="#FAD24D"/>
<path d="M120 78.2837L108.899 67.1416H120V78.2837Z" fill="#ECF0F1"/>
<path d="M64.6494 72.4619H110.509V73.726H64.6494V72.4619ZM64.6494 86.0799H110.509V87.3453H64.6494V86.0799ZM64.6494 88.425H110.509V89.6891H64.6494V88.425ZM64.6494 90.7706H110.509V92.0347H64.6494V90.7706ZM64.6494 93.1159H110.511V94.38H64.6494V93.1159ZM64.6494 74.8075H110.509V76.0716H64.6494V74.8075ZM64.6494 77.1526H110.509V78.4167H64.6494V77.1526ZM64.6494 79.4979H110.511V80.7621H64.6494V79.4979ZM64.6494 81.8435H99.7771V83.1077H64.6494V81.8435ZM64.6494 95.461H99.7771V96.7251H64.6494V95.461Z" fill="#DCE3DB"/>
<path d="M155.527 119.118V126.777C155.527 130.638 152.03 133.788 147.791 133.788H31.634C27.364 133.788 23.8984 130.638 23.8984 126.777V119.118H155.527Z" fill="white"/>
<path d="M89.7143 128.569C91.0472 128.569 92.1278 127.49 92.1278 126.16C92.1278 124.829 91.0472 123.751 89.7143 123.751C88.3813 123.751 87.3008 124.829 87.3008 126.16C87.3008 127.49 88.3813 128.569 89.7143 128.569Z" fill="#E4E7ED"/>
<path d="M104.907 144.844L116.046 148.395H63.3516L72.3867 144.844V133.818H104.907V144.844Z" fill="#E4E7ED"/>
<path d="M104.904 144.845L72.3838 133.819H104.904V144.845Z" fill="#C6CBD6"/>
<path d="M72.3847 144.845H104.905L116.044 148.396V149.941H89.7124H63.3496V148.396L72.3847 144.845Z" fill="#ECF0F1"/>
</svg>
