<svg xmlns="http://www.w3.org/2000/svg" width="16" height="18"><g fill="none" fill-rule="evenodd" opacity=".54"><path d="M-2 19V-1h20v20z"/><g fill="#000" fill-rule="nonzero"><path d="M5.74 16.92H.5V.67h8.38l.2.17 3.74 3.75.18.2v2.33a6 6 0 0 0-1.25-.37V5.67H8V1.92H1.75v13.75h3.18c.22.44.49.86.81 1.25zm.69-8.75h-2.8V6.92h5.05a6.1 6.1 0 0 0-2.25 1.25zm-1.74 2.5H3.62V9.42h1.7c-.26.38-.47.8-.63 1.25zm-.38 2.5h-.69v-1.25h.76a6.74 6.74 0 0 0-.07 1.25zm4.94-8.75h1.6l-1.6-1.6v1.6z"/><path d="M11.78 14.12v1.25h1.5l-.12.12a3.81 3.81 0 0 1-5.31 0 3.81 3.81 0 0 1 0-5.3 3.81 3.81 0 0 1 5.3 0c.63.62 1 1.43 1.07 2.24l1.25-.06a4.41 4.41 0 0 0-1.44-3 5.02 5.02 0 0 0-7.06 0 5.02 5.02 0 0 0 0 7.06 5.17 5.17 0 0 0 7.13 0l.25-.25v1.69h1.25v-3.75h-3.82z"/></g></g></svg>