<svg xmlns="http://www.w3.org/2000/svg" xmlns:xlink="http://www.w3.org/1999/xlink" width="68" height="70"><use fill="#717D83" xlink:href="#path0_fill"/><defs><path id="path0_fill" d="M30.15 0a3.27 3.27 0 0 0-3.19 2.49l-1.89 7.53c-.96.33-1.94.74-2.89 1.22L15.5 7.23a3.28 3.28 0 0 0-4 .5L7.72 11.5a3.28 3.28 0 0 0-.5 4l4.01 6.68c-.47.96-.88 1.93-1.2 2.9L2.5 26.96A3.27 3.27 0 0 0 0 30.15v5.33a3.27 3.27 0 0 0 2.49 3.18l7.53 1.9c.33.96.74 1.93 1.22 2.88l-4.01 6.68a3.28 3.28 0 0 0 .5 4l3.77 3.78a3.28 3.28 0 0 0 4 .5l6.68-4c.95.46 1.92.87 2.9 1.2l1.88 7.54a3.27 3.27 0 0 0 3.19 2.48h2.66v1.1A3.3 3.3 0 0 0 36.09 70h28.44c1.8 0 3.28-1.47 3.28-3.28V40.47a3.28 3.28 0 0 0-2.71-3.23c.33-.51.53-1.11.53-1.76v-5.33a3.27 3.27 0 0 0-2.49-3.19l-7.54-1.89a22.5 22.5 0 0 0-1.22-2.89l4.02-6.68a3.28 3.28 0 0 0-.5-4l-3.77-3.78a3.28 3.28 0 0 0-4.01-.5l-6.68 4.01c-.95-.47-1.92-.88-2.89-1.2l-1.89-7.54A3.27 3.27 0 0 0 35.48 0h-5.33zm0 2.19h5.33c.5 0 .94.34 1.06.83l1.9 7.54c.17.72.7 1.3 1.4 1.54.88.29 1.76.66 2.63 1.1.67.33 1.46.3 2.1-.09l6.68-4c.43-.27.98-.2 1.33.16l3.77 3.77c.36.36.43.9.17 1.34l-4 6.67a2.19 2.19 0 0 0-.09 2.1c.43.87.8 1.75 1.1 2.63.25.7.82 1.24 1.53 1.41l7.55 1.9c.49.12.83.55.83 1.06v5.33c0 .5-.34.94-.83 1.06l-2.43.6-.08.05H47.49a15.27 15.27 0 0 0-11-19.24 1.1 1.1 0 0 0-.53 2.11 13.1 13.1 0 0 1 9.21 17.13H36.1a3.29 3.29 0 0 0-3.28 3.28v22.97h-2.66c-.5 0-.94-.34-1.06-.83l-1.9-7.54c-.17-.72-.7-1.3-1.41-1.54-.88-.3-1.76-.67-2.62-1.1a2.17 2.17 0 0 0-2.1.08l-6.68 4c-.43.27-.98.2-1.34-.16l-3.77-3.77c-.35-.35-.42-.9-.16-1.33l4-6.68c.39-.64.42-1.43.08-2.1-.43-.87-.8-1.75-1.1-2.62a2.18 2.18 0 0 0-1.53-1.42l-7.54-1.9a1.09 1.09 0 0 1-.83-1.05v-5.33c0-.5.34-.94.83-1.06l7.54-1.9c.71-.17 1.3-.7 1.54-1.41.29-.87.66-1.75 1.1-2.62.33-.68.3-1.46-.09-2.1l-4-6.68c-.26-.43-.2-.98.16-1.34l3.77-3.77c.36-.35.9-.42 1.34-.16l6.67 4a2.2 2.2 0 0 0 2.1.08c.87-.43 1.75-.8 2.63-1.1a2.17 2.17 0 0 0 1.41-1.53l1.9-7.54c.12-.5.55-.83 1.06-.83zm.61 15.45c-.92.12-1.83.33-2.7.61a1.1 1.1 0 0 0 .68 2.08 13 13 0 0 1 2.31-.52 1.1 1.1 0 0 0-.29-2.17zm-8 4.03a1.1 1.1 0 0 0-.77 1.86l1.54 1.55a1.09 1.09 0 0 0 1.55 0 1.1 1.1 0 0 0 0-1.55L23.53 22a1.1 1.1 0 0 0-.77-.32zm10.05 2.4a8.76 8.76 0 0 0-3.92 16.57 1.1 1.1 0 0 0 1.47-.5 1.1 1.1 0 0 0-.49-1.46 6.57 6.57 0 1 1 9.47-5.23c-.05.6.39 1.14.99 1.2a1.1 1.1 0 0 0 1.2-.99 8.76 8.76 0 0 0-8.71-9.6zm-13.08 2.1a1.1 1.1 0 0 0-.44 2.1l2.02.85a1.1 1.1 0 0 0 .85-2.02l-2.01-.85a1.04 1.04 0 0 0-.42-.09zm13.08 4.45a2.19 2.19 0 1 0 0 4.38 2.19 2.19 0 0 0 0-4.38zm-14.22 1.1a1.1 1.1 0 1 0 0 2.19h2.2a1.1 1.1 0 1 0 0-2.2h-2.2zm3.08 4.5c-.14 0-.28.03-.42.08l-2.03.82a1.1 1.1 0 1 0 .82 2.03l2.03-.82c.56-.22.83-.86.6-1.42a1.1 1.1 0 0 0-1-.68zm14.42 3.16h28.44c.6 0 1.1.49 1.1 1.09v1.1H35v-1.1c0-.6.5-1.1 1.1-1.1zm-11.79.85c-.28 0-.55.1-.77.32L22 42.09a1.1 1.1 0 1 0 1.54 1.55l1.55-1.55a1.1 1.1 0 0 0-.78-1.86zm3.81 2.56c-.42 0-.83.25-1 .67l-.86 2.02a1.1 1.1 0 1 0 2.01.85l.86-2.02a1.1 1.1 0 0 0-1-1.52zm6.89.96h30.63v22.97c0 .6-.5 1.1-1.1 1.1H36.1c-.6 0-1.09-.5-1.09-1.1V43.75zm12.03 4.38c-.28 0-.56.1-.77.32l-3.6 3.6-1.42-1.42a1.1 1.1 0 1 0-1.54 1.55l2.18 2.19a1.09 1.09 0 0 0 1.55 0l4.37-4.38a1.1 1.1 0 0 0-.77-1.87zm4.38 2.18a1.1 1.1 0 1 0 0 2.19h8.75a1.1 1.1 0 1 0 0-2.19H51.4zm-4.38 6.56c-.28 0-.56.11-.77.33l-3.6 3.6-1.42-1.42a1.1 1.1 0 1 0-1.54 1.55l2.18 2.19a1.09 1.09 0 0 0 1.55 0l4.37-4.38a1.1 1.1 0 0 0-.77-1.87zm4.38 2.2a1.1 1.1 0 1 0 0 2.18h4.37a1.1 1.1 0 1 0 0-2.19h-4.37z"/></defs></svg>