<svg xmlns="http://www.w3.org/2000/svg" width="54" height="54"><g opacity=".32"><path d="M51.65 21.51c-.44-.6-.61-1.4-.61-2.09l.09-1.91a6.84 6.84 0 0 0-3.83-6.62l-1.74-.87a3.42 3.42 0 0 1-1.57-1.57l-.87-1.74a6.83 6.83 0 0 0-6.62-3.84l-1.92.1c-.7 0-1.48-.18-2.09-.62l-1.65-1.04a6.83 6.83 0 0 0-7.67 0l-1.65 1.04c-.61.44-1.4.61-2.09.61l-1.92-.09a6.84 6.84 0 0 0-6.62 3.84l-.87 1.74c-.34.7-.87 1.22-1.57 1.57l-1.74.87a6.83 6.83 0 0 0-3.83 6.62l.09 1.91c0 .79-.17 1.48-.6 2.1l-1.05 1.65a6.83 6.83 0 0 0 0 7.66l1.04 1.65c.44.61.61 1.4.61 2.1l-.09 1.9a6.84 6.84 0 0 0 3.83 6.63l1.74.87c.7.35 1.22.87 1.57 1.57l.87 1.74a6.83 6.83 0 0 0 6.62 3.83l1.92-.09c.7 0 1.48.18 2.09.61l1.65 1.05A6.8 6.8 0 0 0 27 53.82a6.8 6.8 0 0 0 3.83-1.13l1.66-1.05c.6-.43 1.4-.6 2.09-.6l1.91.08c2.79.17 5.4-1.3 6.62-3.83l.87-1.74c.35-.7.87-1.22 1.57-1.57l1.74-.87a6.83 6.83 0 0 0 3.84-6.62l-.1-1.92c0-.78.18-1.48.62-2.09l1.04-1.65a6.83 6.83 0 0 0 0-7.66l-1.04-1.66zm-1.83 7.4l-1.05 1.66a7.34 7.34 0 0 0-1.13 4.27l.09 1.91c.09 1.4-.7 2.7-1.92 3.31l-1.74.87a7.27 7.27 0 0 0-3.13 3.14l-.88 1.74c-.6 1.22-2 2-3.3 1.92l-1.92-.1a7.47 7.47 0 0 0-4.27 1.14l-1.65 1.05c-1.13.78-2.7.78-3.83 0l-1.66-1.05a6.8 6.8 0 0 0-3.83-1.13h-.43l-1.92.09c-1.4.08-2.7-.7-3.3-1.92l-.88-1.74a7.27 7.27 0 0 0-3.14-3.14l-1.74-.87c-1.22-.6-2-1.91-1.91-3.31l.09-1.91a7.47 7.47 0 0 0-1.14-4.27L4.2 28.92a3.42 3.42 0 0 1 0-3.84l1.04-1.65a7.34 7.34 0 0 0 1.14-4.27l-.1-1.91a3.5 3.5 0 0 1 1.92-3.31l1.74-.87a7.27 7.27 0 0 0 3.14-3.14l.87-1.74a3.5 3.5 0 0 1 3.31-1.92l1.92.1a7.47 7.47 0 0 0 4.26-1.14l1.66-1.05a3.42 3.42 0 0 1 3.83 0l1.65 1.05a7.17 7.17 0 0 0 4.27 1.13l1.91-.09c1.4-.08 2.7.7 3.31 1.92l.88 1.74a7.27 7.27 0 0 0 3.13 3.14l1.74.87c1.22.6 2 1.91 1.92 3.3l-.09 1.92a7.47 7.47 0 0 0 1.13 4.27l1.05 1.65c.7 1.14.7 2.7 0 3.84z"/><path d="M20.2 25.87a6.43 6.43 0 0 0 6.45-6.45 6.43 6.43 0 0 0-6.44-6.44 6.43 6.43 0 0 0-6.45 6.44 6.49 6.49 0 0 0 6.45 6.45zm0-9.5a2.94 2.94 0 0 1 2.97 2.96 2.93 2.93 0 0 1-2.96 2.96 2.94 2.94 0 0 1-2.96-2.96c0-1.65 1.3-2.95 2.96-2.95zm13.6 11.76a6.43 6.43 0 0 0-6.45 6.45 6.43 6.43 0 0 0 6.44 6.44 6.43 6.43 0 0 0 6.45-6.44 6.49 6.49 0 0 0-6.45-6.45zm0 9.5a2.94 2.94 0 0 1-2.97-2.96 2.93 2.93 0 0 1 2.96-2.96c1.66 0 2.96 1.3 2.96 2.96 0 1.65-1.3 2.95-2.96 2.95zm-19.18-.72l22.36-22.35 2.46 2.46-22.36 22.36z"/></g></svg>