<svg xmlns="http://www.w3.org/2000/svg" width="70" height="70"><path fill="#717d83" d="M53.64 0c-3.71 0-7.43 1.41-10.25 4.24l-7.46 7.46a14.55 14.55 0 0 0-3.74 14.06 3.95 3.95 0 0 0 6.61 1.71l2.31-2.31a4.03 4.03 0 0 0 1.14-3.04 3.88 3.88 0 0 1 1.14-2.96l7.45-7.46a3.96 3.96 0 0 1 5.6 0l1.86 1.86a3.94 3.94 0 0 1 0 5.6l-7.46 7.45a3.88 3.88 0 0 1-2.96 1.14 4.07 4.07 0 0 0-3.04 1.14l-2.31 2.31a3.94 3.94 0 0 0 1.71 6.61 14.54 14.54 0 0 0 14.06-3.74l7.45-7.46A14.4 14.4 0 0 0 70 16.36c0-3.88-1.5-7.52-4.25-10.26L63.9 4.24A14.45 14.45 0 0 0 53.64 0zm0 2.63c3.04 0 6.07 1.16 8.39 3.47l1.86 1.87a11.8 11.8 0 0 1 3.47 8.39c0 3.17-1.23 6.15-3.47 8.39l-7.46 7.45c-3 3-7.4 4.17-11.5 3.06a1.24 1.24 0 0 1-.88-.9c-.13-.47 0-.95.34-1.3l2.31-2.3a1.34 1.34 0 0 1 1.05-.38c1.84.09 3.66-.6 4.95-1.9l7.46-7.46a6.55 6.55 0 0 0 0-9.32L58.3 9.83a6.6 6.6 0 0 0-9.32 0l-7.46 7.46a6.55 6.55 0 0 0-1.9 4.95c.02.42-.11.8-.37 1.05l-2.31 2.32c-.34.34-.83.46-1.3.34a1.25 1.25 0 0 1-.9-.88 11.9 11.9 0 0 1 3.06-11.5l7.45-7.47a11.83 11.83 0 0 1 8.39-3.47zM22.64 9a1.32 1.32 0 0 0-.9 2l3.96 6.24a1.32 1.32 0 1 0 2.23-1.4l-3.96-6.25a1.33 1.33 0 0 0-1.33-.6zm-10.51 1.54a1.32 1.32 0 0 0-.93 2.25l8.45 8.45a1.31 1.31 0 0 0 1.86 0 1.3 1.3 0 0 0 0-1.86l-8.45-8.46a1.3 1.3 0 0 0-.93-.38zm-1.34 10.74a1.32 1.32 0 0 0-.92 2.42l6.24 3.95a1.32 1.32 0 0 0 1.4-2.22l-6.23-3.96c-.15-.1-.32-.16-.49-.19zm11.18 10.4c-3.8.01-7.52 1.5-10.27 4.25l-7.45 7.46A14.4 14.4 0 0 0 0 53.64c0 3.87 1.51 7.52 4.25 10.26l1.86 1.86a14.47 14.47 0 0 0 20.5 0l7.46-7.46a14.55 14.55 0 0 0 3.74-14.06 3.86 3.86 0 0 0-2.77-2.74 3.94 3.94 0 0 0-3.84 1.03l-2.31 2.31c-.78.78-1.2 1.9-1.14 3.04a3.88 3.88 0 0 1-1.14 2.97l-7.45 7.45a3.96 3.96 0 0 1-5.6 0l-1.86-1.86a3.96 3.96 0 0 1 0-5.6l7.46-7.45a3.86 3.86 0 0 1 2.96-1.13 4 4 0 0 0 3.04-1.15l2.31-2.3a3.94 3.94 0 0 0-1.71-6.62c-1.25-.34-2.53-.5-3.8-.5zm0 2.64c1.03 0 2.08.14 3.1.42.63.17.82.68.88.9.13.47 0 .95-.34 1.3l-2.31 2.3c-.27.27-.64.4-1.05.38-1.83-.1-3.66.6-4.96 1.9l-7.45 7.46a6.6 6.6 0 0 0 0 9.32l1.86 1.87a6.6 6.6 0 0 0 9.32 0l7.45-7.46c1.3-1.3 2-3.1 1.91-4.96-.02-.41.11-.78.37-1.04l2.31-2.32c.34-.34.83-.47 1.3-.34.22.06.73.26.9.88a11.9 11.9 0 0 1-3.06 11.5l-7.45 7.47a11.78 11.78 0 0 1-8.39 3.47c-3.16 0-6.14-1.23-8.39-3.47l-1.86-1.87a11.79 11.79 0 0 1-3.47-8.39c0-3.17 1.23-6.15 3.47-8.39l7.46-7.45a11.9 11.9 0 0 1 8.4-3.48zm32.22 8.08a1.32 1.32 0 0 0-.92 2.42l6.24 3.95a1.32 1.32 0 0 0 1.41-2.23l-6.24-3.95c-.15-.1-.32-.16-.49-.19zm-3.98 6.22a1.32 1.32 0 0 0-.93 2.25l8.45 8.46a1.31 1.31 0 0 0 1.86 0c.52-.52.52-1.35 0-1.87l-8.45-8.45c-.26-.26-.6-.39-.93-.39zm-6.45 3.79a1.32 1.32 0 0 0-.9 2l3.96 6.24a1.32 1.32 0 1 0 2.22-1.4L45.1 53c-.3-.46-.82-.67-1.33-.59z"/></svg>