<svg xmlns="http://www.w3.org/2000/svg" xmlns:xlink="http://www.w3.org/1999/xlink" width="70" height="70"><use fill="#717D83" xlink:href="#path0_fill"/><defs><path id="path0_fill" d="M35 0C15.7 0 0 15.7 0 35s15.7 35 35 35 35-15.7 35-35S54.3 0 35 0zm0 2.41A32.62 32.62 0 0 1 67.59 35 32.62 32.62 0 0 1 35 67.59 32.62 32.62 0 0 1 2.41 35 32.62 32.62 0 0 1 35 2.41zm0 8.45a24.17 24.17 0 0 0-23.63 29.06 1.2 1.2 0 1 0 2.36-.49A21.75 21.75 0 0 1 35 13.27c7.24 0 14.05 3.68 18.06 9.66h-6a1.2 1.2 0 0 0 0 2.41h8.46c.66 0 1.2-.54 1.2-1.2v-8.55a1.2 1.2 0 0 0-2.41 0v4.95A24.26 24.26 0 0 0 35 10.86zm0 7.24c-.66 0-1.2.55-1.2 1.21v2.41a1.2 1.2 0 0 0 2.4 0v-2.41c0-.66-.54-1.2-1.2-1.2zm-8 2.12a1.2 1.2 0 0 0-.9 1.8l1.22 2.08a1.2 1.2 0 0 0 1.65.45 1.2 1.2 0 0 0 .43-1.65l-1.2-2.1a1.2 1.2 0 0 0-1.2-.58zm-5.44 5.74a1.2 1.2 0 0 0-.75 2.24l2.09 1.2c.2.12.4.17.6.17a1.2 1.2 0 0 0 .6-2.25l-2.08-1.2c-.15-.1-.3-.14-.46-.16zm36.1 3.1a1.25 1.25 0 0 0-.47 0 1.2 1.2 0 0 0-.93 1.44A21.75 21.75 0 0 1 35 56.73a21.78 21.78 0 0 1-18.06-9.66h6a1.2 1.2 0 0 0 0-2.41h-8.46c-.66 0-1.2.54-1.2 1.2v8.55a1.2 1.2 0 0 0 2.41 0v-4.93A24.21 24.21 0 0 0 35 59.14 24.17 24.17 0 0 0 58.62 30c-.1-.49-.5-.85-.95-.94zm-38.35 4.73a1.2 1.2 0 0 0 0 2.42h2.41a1.2 1.2 0 0 0 0-2.42h-2.41zm28.97 0a1.2 1.2 0 0 0 0 2.42h2.41a1.2 1.2 0 0 0 0-2.42h-2.41zm-1.64 6.65a1.2 1.2 0 0 0-.74 2.24l2.08 1.2c.2.12.4.17.6.17a1.2 1.2 0 0 0 .61-2.25l-2.09-1.2a1.2 1.2 0 0 0-.46-.16zM41.5 45.3a1.2 1.2 0 0 0-.9 1.8l1.21 2.09a1.2 1.2 0 0 0 1.65.44 1.2 1.2 0 0 0 .44-1.65l-1.21-2.08a1.2 1.2 0 0 0-1.2-.6zM35 47.07c-.66 0-1.2.54-1.2 1.2v2.42a1.2 1.2 0 0 0 2.4 0v-2.41a1.2 1.2 0 0 0-1.2-1.21z"/></defs></svg>