<?xml version="1.0" encoding="UTF-8" standalone="no"?>
<svg width="90px" height="64px" viewBox="0 0 90 64" version="1.1" xmlns="http://www.w3.org/2000/svg" xmlns:xlink="http://www.w3.org/1999/xlink" xmlns:sketch="http://www.bohemiancoding.com/sketch/ns">
    <!-- Generator: Sketch 3.3.2 (12043) - http://www.bohemiancoding.com/sketch -->
    <title>Group</title>
    <desc>Created with Sketch.</desc>
    <defs></defs>
    <g id="Мессенджер" stroke="none" stroke-width="1" fill="none" fill-rule="evenodd" sketch:type="MSPage">
        <g id="месенджер---первый-вход" sketch:type="MSArtboardGroup" transform="translate(-575.000000, -504.000000)">
            <g id="noun_67363_cc" sketch:type="MSLayerGroup" transform="translate(575.000000, 504.000000)">
                <g id="Group" sketch:type="MSShapeGroup">
                    <path d="M31.295,0.487 C14.489,0.487 0.862,14.113 0.862,30.92 C0.862,37.838 3.176,44.212 7.064,49.325 L0,63.081 L14.239,56.125 C19.105,59.425 24.975,61.353 31.295,61.353 C48.104,61.353 61.729,47.728 61.729,30.92 C61.729,14.113 48.104,0.487 31.295,0.487 L31.295,0.487 Z M36.226,50.925 L27.276,50.925 L27.276,42.347 L36.226,42.347 L36.226,50.925 L36.226,50.925 Z M40.796,30.679 L37.174,35.315 C36.543,36.131 36.226,36.966 36.226,37.82 L36.226,38.298 L27.276,38.298 L27.276,37.072 C27.276,34.836 28.015,32.863 29.492,31.159 L33.278,26.789 C34.249,25.652 34.736,24.658 34.736,23.807 C34.736,21.639 33.671,20.556 31.538,20.556 C29.407,20.556 28.342,21.674 28.342,23.911 L19.604,23.911 C19.604,20.432 20.794,17.642 23.172,15.547 C25.375,13.628 28.164,12.669 31.538,12.669 C34.877,12.669 37.646,13.611 39.85,15.494 C42.266,17.554 43.474,20.342 43.474,23.858 C43.474,26.132 42.581,28.406 40.796,30.679 L40.796,30.679 Z" id="Shape" fill="#00AEF0"></path>
                    <path d="M85.656,55.054 C88.04,51.917 89.472,48.017 89.472,43.774 C89.472,33.457 81.104,25.094 70.792,25.094 C68.626,25.094 66.557,25.481 64.622,26.157 C64.845,27.715 64.965,29.303 64.965,30.92 C64.965,40.033 61.321,48.306 55.419,54.375 C58.789,59.251 64.414,62.451 70.792,62.451 C74.67,62.451 78.272,61.268 81.26,59.245 L90,63.513 L85.656,55.054 L85.656,55.054 Z M73.966,54.715 L69.16,54.715 L69.16,39.566 L73.966,39.566 L73.966,54.715 L73.966,54.715 Z M73.966,37.341 L69.16,37.341 L69.16,33.679 L73.966,33.679 L73.966,37.341 L73.966,37.341 Z" id="Shape" fill="#8DC540"></path>
                </g>
            </g>
        </g>
    </g>
</svg>