<svg xmlns="http://www.w3.org/2000/svg" xmlns:xlink="http://www.w3.org/1999/xlink" width="49" height="46"><use fill="#FFF" xlink:href="#path0_fill"/><use fill="#717D83" xlink:href="#path1_fill"/><defs><path id="path0_fill" d="M5.654 0C4.053 0 2.827 1.197 2.827 2.76v7.36h-.942C.847 10.12 0 10.947 0 11.96v7.36c0 1.013.847 1.84 1.885 1.84h.942v22.08c0 1.563 1.226 2.76 2.827 2.76h37.692c1.601 0 2.827-1.197 2.827-2.76V21.16h.942c1.038 0 1.885-.827 1.885-1.84v-7.36c0-1.103-.847-1.84-1.885-1.84h-.942V2.76c0-1.563-1.226-2.76-2.827-2.76H5.654zm20.73 4.647a.846.846 0 0 0-.47.136l-1.885.92c-.471.184-.659.737-.471 1.197.187.46.754.643 1.225.46l.472-.277v3.957c0 .553.375.92.942.92s.942-.367.942-.92V5.52c.188-.277 0-.643-.283-.737a.846.846 0 0 0-.471-.136zm12.25 0a.846.846 0 0 0-.47.136l-1.885.92c-.471.184-.659.737-.471 1.197.187.46.754.643 1.225.46l.472-.277v3.957c0 .553.375.92.942.92s.942-.367.942-.92V5.52c.188-.277 0-.643-.283-.737a.846.846 0 0 0-.471-.136zm-6.596.873c-.566 0-.942.367-.942.92v.92h-.942c-.567 0-.942.367-.942.92s.375.92.942.92h.942v.92c0 .553.376.92.942.92.567 0 .943-.367.943-.92V9.2h.942c.567 0 .942-.367.942-.92s-.375-.92-.942-.92h-.942v-.92c0-.553-.376-.92-.943-.92zM1.886 11.96h.942v7.36h-.942v-7.36zm44.288 0h.942v7.36h-.942v-7.36zM10.365 18.4c-.566 0-.942.367-.942.92v1.84c0 .553.376.92.942.92.567 0 .943-.367.943-.92v-1.84c0-.553-.376-.92-.943-.92zm4.712 0c-.567 0-.942.367-.942.92v1.84c0 .553.375.92.942.92s.942-.367.942-.92v-1.84c0-.553-.375-.92-.942-.92zm4.711 0c-.566 0-.942.367-.942.92v1.84c0 .553.376.92.942.92.567 0 .943-.367.943-.92v-1.84c0-.553-.376-.92-.943-.92zm4.712 0c-.567 0-.942.367-.942.92v1.84c0 .553.375.92.942.92s.942-.367.942-.92v-1.84c0-.553-.375-.92-.942-.92zm4.712 0c-.567 0-.943.367-.943.92v1.84c0 .553.376.92.943.92.566 0 .942-.367.942-.92v-1.84c0-.553-.376-.92-.942-.92zm4.711 0c-.567 0-.942.367-.942.92v1.84c0 .553.375.92.942.92s.942-.367.942-.92v-1.84c0-.553-.375-.92-.942-.92zm4.712 0c-.567 0-.943.367-.943.92v1.84c0 .553.376.92.943.92s.942-.367.942-.92v-1.84c0-.553-.375-.92-.942-.92zm-28.27 5.52c-1.038 0-1.884.827-1.884 1.84v3.68c0 1.013.846 1.84 1.884 1.84h5.654c1.038 0 1.885-.827 1.885-1.84v-3.68c0-1.013-.847-1.84-1.885-1.84h-5.654zm11.308 0c-1.038 0-1.884.827-1.884 1.84v3.68c0 1.013.846 1.84 1.884 1.84h5.654c1.038 0 1.884-.827 1.884-1.84v-3.68c0-1.013-.846-1.84-1.884-1.84h-5.654zm11.308 0c-1.038 0-1.885.827-1.885 1.84v12.88c0 1.013.847 1.84 1.885 1.84h5.654c1.038 0 1.884-.827 1.884-1.84V25.76c0-1.013-.846-1.84-1.884-1.84H32.98zm-22.616 1.84h5.654v3.68h-5.654v-3.68zm11.308 0h5.654v3.68h-5.654v-3.68zm11.308 0h5.654v12.88H32.98V25.76zm-22.616 7.36c-1.038 0-1.884.827-1.884 1.84v3.68c0 1.013.846 1.84 1.884 1.84h5.654c1.038 0 1.885-.827 1.885-1.84v-3.68c0-1.013-.847-1.84-1.885-1.84h-5.654zm11.308 0c-1.038 0-1.884.827-1.884 1.84v3.68c0 1.013.846 1.84 1.884 1.84h5.654c1.038 0 1.884-.827 1.884-1.84v-3.68c0-1.013-.846-1.84-1.884-1.84h-5.654zm-11.308 1.84h5.654v3.68h-5.654v-3.68zm11.308 0h5.654v3.68h-5.654v-3.68z"/><path id="path1_fill" d="M5.654 0C4.053 0 2.827 1.197 2.827 2.76v7.36h-.942C.847 10.12 0 10.947 0 11.96v7.36c0 1.013.847 1.84 1.885 1.84h.942v22.08c0 1.563 1.226 2.76 2.827 2.76h37.692c1.601 0 2.827-1.197 2.827-2.76V21.16h.942c1.038 0 1.885-.827 1.885-1.84v-7.36c0-1.103-.847-1.84-1.885-1.84h-.942V2.76c0-1.563-1.226-2.76-2.827-2.76H5.654zm0 1.84h37.692c.567 0 .943.367.943.92v11.96H4.712V2.76c0-.553.375-.92.942-.92zm20.73 2.807a.846.846 0 0 0-.47.136l-1.885.92c-.471.184-.659.737-.471 1.197.187.46.754.643 1.225.46l.472-.277v3.957c0 .553.375.92.942.92s.942-.367.942-.92V5.52c.188-.277 0-.643-.283-.737a.846.846 0 0 0-.471-.136zm12.25 0a.846.846 0 0 0-.47.136l-1.885.92c-.471.184-.659.737-.471 1.197.187.46.754.643 1.225.46l.472-.277v3.957c0 .553.375.92.942.92s.942-.367.942-.92V5.52c.188-.277 0-.643-.283-.737a.846.846 0 0 0-.471-.136zm-6.596.873c-.566 0-.942.367-.942.92v.92h-.942c-.567 0-.942.367-.942.92s.375.92.942.92h.942v.92c0 .553.376.92.942.92.567 0 .943-.367.943-.92V9.2h.942c.567 0 .942-.367.942-.92s-.375-.92-.942-.92h-.942v-.92c0-.553-.376-.92-.943-.92zM1.886 11.96h.942v7.36h-.942v-7.36zm44.288 0h.942v7.36h-.942v-7.36zm-41.461 4.6h39.576v26.68c0 .553-.375.92-.942.92H5.654c-.567 0-.942-.367-.942-.92V16.56zm5.653 1.84c-.566 0-.942.367-.942.92v1.84c0 .553.376.92.942.92.567 0 .943-.367.943-.92v-1.84c0-.553-.376-.92-.943-.92zm4.712 0c-.567 0-.942.367-.942.92v1.84c0 .553.375.92.942.92s.942-.367.942-.92v-1.84c0-.553-.375-.92-.942-.92zm4.711 0c-.566 0-.942.367-.942.92v1.84c0 .553.376.92.942.92.567 0 .943-.367.943-.92v-1.84c0-.553-.376-.92-.943-.92zm4.712 0c-.567 0-.942.367-.942.92v1.84c0 .553.375.92.942.92s.942-.367.942-.92v-1.84c0-.553-.375-.92-.942-.92zm4.712 0c-.567 0-.943.367-.943.92v1.84c0 .553.376.92.943.92.566 0 .942-.367.942-.92v-1.84c0-.553-.376-.92-.942-.92zm4.711 0c-.567 0-.942.367-.942.92v1.84c0 .553.375.92.942.92s.942-.367.942-.92v-1.84c0-.553-.375-.92-.942-.92zm4.712 0c-.567 0-.943.367-.943.92v1.84c0 .553.376.92.943.92s.942-.367.942-.92v-1.84c0-.553-.375-.92-.942-.92zm-28.27 5.52c-1.038 0-1.884.827-1.884 1.84v3.68c0 1.013.846 1.84 1.884 1.84h5.654c1.038 0 1.885-.827 1.885-1.84v-3.68c0-1.013-.847-1.84-1.885-1.84h-5.654zm11.308 0c-1.038 0-1.884.827-1.884 1.84v3.68c0 1.013.846 1.84 1.884 1.84h5.654c1.038 0 1.884-.827 1.884-1.84v-3.68c0-1.013-.846-1.84-1.884-1.84h-5.654zm11.308 0c-1.038 0-1.885.827-1.885 1.84v12.88c0 1.013.847 1.84 1.885 1.84h5.654c1.038 0 1.884-.827 1.884-1.84V25.76c0-1.013-.846-1.84-1.884-1.84H32.98zm-22.616 1.84h5.654v3.68h-5.654v-3.68zm11.308 0h5.654v3.68h-5.654v-3.68zm11.308 0h5.654v12.88H32.98V25.76zm-22.616 7.36c-1.038 0-1.884.827-1.884 1.84v3.68c0 1.013.846 1.84 1.884 1.84h5.654c1.038 0 1.885-.827 1.885-1.84v-3.68c0-1.013-.847-1.84-1.885-1.84h-5.654zm11.308 0c-1.038 0-1.884.827-1.884 1.84v3.68c0 1.013.846 1.84 1.884 1.84h5.654c1.038 0 1.884-.827 1.884-1.84v-3.68c0-1.013-.846-1.84-1.884-1.84h-5.654zm-11.308 1.84h5.654v3.68h-5.654v-3.68zm11.308 0h5.654v3.68h-5.654v-3.68z"/></defs></svg>