<svg xmlns="http://www.w3.org/2000/svg" width="28" height="36" viewBox="0 0 28 36">
  <g fill="none">
    <polygon fill="#FED9D9" points=".5 35.5 .5 .5 18.793 .5 27.5 9.207 27.5 35.5"/>
    <path fill="#C74343" d="M18.586,1 L27,9.414 L27,35 L1,35 L1,1 L18.586,1 L18.586,1 Z M19,0 L0,0 L0,36 L28,36 L28,9 L19,0 L19,0 Z"/>
    <g transform="translate(18)">
      <polygon fill="#FFFFFF" points=".5 9.5 .5 .5 .793 .5 9.5 9.207 9.5 9.5"/>
      <path fill="#C74343" d="M1,1.414 L8.586,9 L1,9 L1,1.414 L1,1.414 Z M1,0 L0,0 L0,10 L10,10 L10,9 L1,0 L1,0 Z"/>
    </g>
    <path fill="#C74343" d="M6.044 15.535C6.525 15.431 7.175 15.366 7.825 15.366 8.839 15.366 9.645 15.51 10.204 16.043 10.724 16.498 10.958 17.226 10.958 17.967 10.958 18.916 10.672 19.592 10.217 20.073 9.671 20.658 8.8 20.918 8.085 20.918 7.968 20.918 7.864 20.918 7.747 20.905L7.747 24.168 6.044 24.168 6.044 15.535 6.044 15.535zM7.747 19.526C7.838 19.54 7.929 19.54 8.033 19.54 8.891 19.54 9.268 18.929 9.268 18.109 9.268 17.342 8.956 16.745 8.163 16.745 8.007 16.745 7.851 16.77 7.747 16.809L7.747 19.526 7.747 19.526zM11.985 15.535C12.414 15.431 13.038 15.366 13.714 15.366 14.819 15.366 15.586 15.627 16.145 16.146 16.899 16.822 17.289 17.979 17.289 19.682 17.289 21.451 16.834 22.711 16.067 23.387 15.469 23.947 14.611 24.233 13.402 24.233 12.856 24.233 12.323 24.18 11.985 24.129L11.985 15.535 11.985 15.535zM13.688 22.816C13.779 22.841 13.896 22.841 13.987 22.841 14.806 22.841 15.521 22.035 15.521 19.617 15.521 17.823 15.053 16.73 14.026 16.73 13.909 16.73 13.792 16.73 13.688 16.769L13.688 22.816 13.688 22.816z"/>
    <polygon fill="#C74343" points="18.368 15.405 22.177 15.405 22.177 16.887 20.071 16.887 20.071 19.136 22.047 19.136 22.047 20.553 20.071 20.553 20.071 24.167 18.368 24.167"/>
  </g>
</svg>
