<svg xmlns="http://www.w3.org/2000/svg" xmlns:xlink="http://www.w3.org/1999/xlink" width="70" height="69"><use fill="#717D83" xlink:href="#path0_fill"/><defs><path id="path0_fill" d="M46.56.01a1.1 1.1 0 0 0-.9.8l-1.42 5.28v.04a33.95 33.95 0 0 0-34 11.6c-.46.55-.44 1.34.03 1.88a9.88 9.88 0 0 0 10.08 3.03l.04-.02.16.28A7.61 7.61 0 0 0 31 25.7l.13-.07 1.1 1.65a10.86 10.86 0 0 0 3.3 3.16L31.94 43.8a12.02 12.02 0 1 0-19.92 12.67c-.55-.06-1.1-.14-1.64-.29l-6.24-1.7A3.26 3.26 0 0 0 0 57.65v8.06A3.29 3.29 0 0 0 3.28 69h63.4c1.8 0 3.28-1.47 3.28-3.28v-8.06c0-1.03-.47-1.98-1.29-2.61a3.26 3.26 0 0 0-2.85-.56l-6.24 1.7a9.8 9.8 0 0 1-5.42-.06l-5.42-1.63a9.8 9.8 0 0 0-5.66 0l-5.27 1.59a9.87 9.87 0 0 1-3.73.34c.02-.04.05-.08.06-.13l6.5-24.2c.23 0 .47.04.7.04 1.63 0 3.27-.36 4.8-1.12l1.79-.88.07.13a7.62 7.62 0 0 0 10.46 2.8l.27-.16.03.03a9.9 9.9 0 0 0 10.26 2.42c.67-.23 1.07-.9.96-1.61A33.93 33.93 0 0 0 46.33 6.69l.02-.03 1.41-5.28A1.09 1.09 0 0 0 46.56 0zm-9.9 7.41c1.32 0 2.65.1 3.97.26-3.26 2.43-6.77 7.87-10.02 15.73l-.7.4a5.42 5.42 0 0 1-7.46-2l-.26-.45a36.1 36.1 0 0 1 5.72-7.13 1.1 1.1 0 1 0-1.5-1.58 38.29 38.29 0 0 0-6.2 7.76l-.45.12a7.7 7.7 0 0 1-7.43-1.91 31.76 31.76 0 0 1 24.33-11.2zm-4.32.94c-.14.02-.28.06-.41.14-.72.4-1.43.86-2.13 1.35a1.1 1.1 0 1 0 1.26 1.79c.64-.46 1.29-.87 1.94-1.24a1.09 1.09 0 0 0-.66-2.04zm11.9.07c.16 0 .33.01.49.06 2.5.66 4.17 7.56 2.63 19.49l-2.18 1.07a8.76 8.76 0 0 1-11.12-2.98l-1.36-2.02c4.34-10.4 8.91-15.57 11.53-15.62zm4.7 2.04c5.24 3.65 8.58 11.12 8.88 20.44l-.45.26a5.44 5.44 0 0 1-7.47-2l-.4-.7c1.05-7.98.82-14.2-.57-18zm5.66 2.62a31.76 31.76 0 0 1 13.12 20.37 7.68 7.68 0 0 1-7.4-2.06l-.32-.34c-.2-7.25-2.15-13.5-5.4-17.97zM37.53 31.43c.3.12.62.21.93.3l-6.43 23.99c-.03.1-.02.2-.02.31l-1-.3 6.52-24.3zM19.5 38.48c.8 1 1.41 2.09 1.9 3.25-.34.32-.58.7-.73 1.14a15.77 15.77 0 0 0-9.7 4.82 9.84 9.84 0 0 1 8.53-9.21zm2.7.02a9.83 9.83 0 0 1 7.73 6.15 15.6 15.6 0 0 0-4-1.5v-.04A2.72 2.72 0 0 0 23.46 41c-.35-.87-.76-1.7-1.26-2.5zm-1.32 6.54a2.7 2.7 0 0 0 1.55 1.26c.14 3.07-.74 6.1-2.5 8.58l-4.13 1.24c-.22.06-.44.1-.67.15a9.8 9.8 0 0 1-3.87-5.53 13.65 13.65 0 0 1 9.62-5.7zm4.6.26c1.9.43 3.7 1.27 5.28 2.5l.1.04-1.94 7.26-2.04-.61a9.76 9.76 0 0 0-3.96-.33 15.92 15.92 0 0 0 1.69-8.09c.34-.2.64-.46.87-.77zm-1.43 10.96c.74 0 1.48.1 2.2.32l5.28 1.59c2.25.67 4.65.67 6.9 0l5.28-1.59a7.64 7.64 0 0 1 4.4 0l5.42 1.63c2.16.65 4.44.68 6.62.08l6.24-1.7a1.09 1.09 0 0 1 1.38 1.05v2.6c-.6 0-1.09.5-1.09 1.1v2.19c0 .6.49 1.1 1.1 1.1v1.08c0 .6-.5 1.1-1.1 1.1H3.28c-.6 0-1.1-.5-1.1-1.1v-1.09c.61 0 1.1-.49 1.1-1.1v-2.18c0-.6-.49-1.1-1.1-1.1v-2.6c0-.34.16-.65.44-.86a1.07 1.07 0 0 1 .95-.19l6.24 1.7a12.08 12.08 0 0 0 5.48.18c.38-.08.77-.15 1.14-.26l5.42-1.63a7.74 7.74 0 0 1 2.2-.32zm-16.4 3.99c-.6 0-1.1.49-1.1 1.1v2.18a1.1 1.1 0 1 0 2.2 0v-2.19c0-.6-.5-1.1-1.1-1.1zm5.47 0c-.6 0-1.1.49-1.1 1.1v2.18a1.1 1.1 0 1 0 2.2 0v-2.19c0-.6-.5-1.1-1.1-1.1zm5.46 0c-.6 0-1.09.49-1.09 1.1v2.18a1.1 1.1 0 1 0 2.19 0v-2.19c0-.6-.49-1.1-1.1-1.1zm5.47 0c-.6 0-1.1.49-1.1 1.1v2.18a1.1 1.1 0 1 0 2.2 0v-2.19c0-.6-.5-1.1-1.1-1.1zm5.46 0c-.6 0-1.09.49-1.09 1.1v2.18a1.1 1.1 0 1 0 2.19 0v-2.19c0-.6-.49-1.1-1.1-1.1zm5.47 0c-.6 0-1.1.49-1.1 1.1v2.18a1.1 1.1 0 1 0 2.2 0v-2.19c0-.6-.5-1.1-1.1-1.1zm5.47 0c-.61 0-1.1.49-1.1 1.1v2.18a1.1 1.1 0 1 0 2.19 0v-2.19c0-.6-.49-1.1-1.1-1.1zm5.46 0c-.6 0-1.1.49-1.1 1.1v2.18a1.1 1.1 0 1 0 2.2 0v-2.19c0-.6-.5-1.1-1.1-1.1zm5.47 0c-.6 0-1.1.49-1.1 1.1v2.18a1.1 1.1 0 1 0 2.19 0v-2.19c0-.6-.49-1.1-1.1-1.1zm5.46 0c-.6 0-1.09.49-1.09 1.1v2.18a1.1 1.1 0 1 0 2.19 0v-2.19c0-.6-.5-1.1-1.1-1.1zm5.47 0c-.6 0-1.1.49-1.1 1.1v2.18a1.1 1.1 0 1 0 2.2 0v-2.19c0-.6-.5-1.1-1.1-1.1z"/></defs></svg>