<svg fill="none" height="46" viewBox="0 0 41 46" width="41" xmlns="http://www.w3.org/2000/svg"><g clip-rule="evenodd" fill-rule="evenodd"><path d="m41 24.9053c0 11.322-9.178 20.5-20.5 20.5-11.32198 0-20.5-9.178-20.5-20.5 0-11.3212 9.17802-20.50003 20.5-20.50003 11.322 0 20.5 9.17883 20.5 20.50003z" fill="#fff"/><path d="m14.7903 26.4048v-14.1473c0-2.98313 2.6589-5.41128 5.642-5.41128 2.9832 0 5.6421 2.42815 5.6421 5.41128v14.1473h6.155v-13.8344c0-6.38071-5.4174-11.5704-11.7971-11.5704-6.3796 0-11.79705 5.18969-11.79705 11.5704v13.8344z" fill="#fffffe"/><path d="m14.7903 26.4048v-14.1473c0-2.98313 2.6589-5.41128 5.642-5.41128 2.9832 0 5.6421 2.42815 5.6421 5.41128v14.1473h6.155v-13.8344c0-6.38071-5.4174-11.5704-11.7971-11.5704-6.3796 0-11.79705 5.18969-11.79705 11.5704v13.8344z" stroke="#003a69" stroke-width="2"/><path d="m4.53223 23.3271v18.465c0 1.1335.91812 2.0516 2.05166 2.0516h27.69751c1.1325 0 2.0517-.9181 2.0517-2.0516v-18.465c0-1.1326-.9192-2.0517-2.0517-2.0517h-27.69751c-1.13354 0-2.05166.9191-2.05166 2.0517z" fill="#b2e2f7"/><path d="m4.53223 23.3271v18.465c0 1.1335.91812 2.0516 2.05166 2.0516h27.69751c1.1325 0 2.0517-.9181 2.0517-2.0516v-18.465c0-1.1326-.9192-2.0517-2.0517-2.0517h-27.69751c-1.13354 0-2.05166.9191-2.05166 2.0517zm4.10333 15.3875v2.0516zm0-14.3617v12.31z" stroke="#003a69" stroke-width="2"/><path d="m22.9969 37.6889v-4.6727c1.2218-.7109 2.0517-2.0188 2.0517-3.534 0-2.5871-2.3943-4.6142-5.0882-3.9884-1.4536.3375-2.6374 1.509-2.9923 2.9595-.474 1.9368.4339 3.6951 1.9255 4.5629v4.6727c0 1.1336.9181 2.0517 2.0516 2.0517 1.1325 0 2.0517-.9181 2.0517-2.0517z" fill="#fffffe"/><path d="m22.9969 37.6889v-4.6727c1.2218-.7109 2.0517-2.0188 2.0517-3.534 0-2.5871-2.3943-4.6142-5.0882-3.9884-1.4536.3375-2.6374 1.509-2.9923 2.9595-.474 1.9368.4339 3.6951 1.9255 4.5629v4.6727c0 1.1336.9181 2.0517 2.0516 2.0517 1.1325 0 2.0517-.9181 2.0517-2.0517z" stroke="#2c4971" stroke-width="2"/></g></svg>