<svg width="54" height="62" viewBox="0 0 54 62" version="1.1" xmlns="http://www.w3.org/2000/svg" xmlns:xlink="http://www.w3.org/1999/xlink">
<title>Vector</title>
<desc>Created using Figma</desc>
<g id="Canvas" transform="translate(-3280 -294)">
<g id="Vector">
<use xlink:href="#path0_fill" transform="translate(3280 294)" fill="#717D83"/>
</g>
</g>
<defs>
<path id="path0_fill" d="M 13.6562 0C 12.3203 0 11.0664 0.519531 10.1211 1.46484L 1.46484 10.1211C 0.519531 11.0664 0 12.3203 0 13.6562L 0 53C 0 54.6523 1.34766 56 3 56L 30.0625 56C 32.375 59.6016 36.4102 62 41 62C 48.168 62 54 56.168 54 49C 54 43.6016 50.6914 38.9688 46 37.0039L 46 3C 46 1.34766 44.6523 0 43 0L 13.6562 0ZM 14 2L 43 2C 43.5508 2 44 2.44922 44 3L 44 36.3633C 43.0352 36.1328 42.0352 36 41 36C 33.832 36 28 41.832 28 49C 28 50.7695 28.3594 52.4609 29.0039 54L 3 54C 2.44922 54 2 53.5508 2 53L 2 14L 11 14C 12.6523 14 14 12.6523 14 11L 14 2ZM 12 2.5L 12 11C 12 11.5508 11.5508 12 11 12L 2.5 12C 2.60547 11.8359 2.73438 11.6797 2.87891 11.5352L 11.5352 2.87891C 11.6797 2.73828 11.8359 2.61328 12 2.5ZM 13 17C 12.7461 17 12.4883 17.0977 12.293 17.293L 11 18.5859L 10.707 18.293C 10.3164 17.9023 9.68359 17.9023 9.29297 18.293C 8.90234 18.6836 8.90234 19.3164 9.29297 19.707L 10.293 20.707C 10.4883 20.9023 10.7422 21 11 21C 11.2578 21 11.5117 20.9023 11.707 20.707L 13.707 18.707C 14.0977 18.3164 14.0977 17.6836 13.707 17.293C 13.5117 17.0977 13.2539 17 13 17ZM 18 18C 17.4453 18 17 18.4492 17 19C 17 19.5508 17.4453 20 18 20L 32 20C 32.5547 20 33 19.5508 33 19C 33 18.4492 32.5547 18 32 18L 18 18ZM 13 23C 12.7461 23 12.4883 23.0977 12.293 23.293L 11 24.5859L 10.707 24.293C 10.3164 23.9023 9.68359 23.9023 9.29297 24.293C 8.90234 24.6836 8.90234 25.3164 9.29297 25.707L 10.293 26.707C 10.4883 26.9023 10.7422 27 11 27C 11.2578 27 11.5117 26.9023 11.707 26.707L 13.707 24.707C 14.0977 24.3164 14.0977 23.6836 13.707 23.293C 13.5117 23.0977 13.2539 23 13 23ZM 18 24C 17.4453 24 17 24.4492 17 25C 17 25.5508 17.4453 26 18 26L 30 26C 30.5547 26 31 25.5508 31 25C 31 24.4492 30.5547 24 30 24L 18 24ZM 13 29C 12.7461 29 12.4883 29.0977 12.293 29.293L 11 30.5859L 10.707 30.293C 10.3164 29.9023 9.68359 29.9023 9.29297 30.293C 8.90234 30.6836 8.90234 31.3164 9.29297 31.707L 10.293 32.707C 10.4883 32.9023 10.7422 33 11 33C 11.2578 33 11.5117 32.9023 11.707 32.707L 13.707 30.707C 14.0977 30.3164 14.0977 29.6836 13.707 29.293C 13.5117 29.0977 13.2539 29 13 29ZM 18 30C 17.4453 30 17 30.4492 17 31C 17 31.5508 17.4453 32 18 32L 31 32C 31.5547 32 32 31.5508 32 31C 32 30.4492 31.5547 30 31 30L 18 30ZM 13 35C 12.7461 35 12.4883 35.0977 12.293 35.293L 11 36.5859L 10.707 36.293C 10.3164 35.9023 9.68359 35.9023 9.29297 36.293C 8.90234 36.6836 8.90234 37.3164 9.29297 37.707L 10.293 38.707C 10.4883 38.9023 10.7422 39 11 39C 11.2578 39 11.5117 38.9023 11.707 38.707L 13.707 36.707C 14.0977 36.3164 14.0977 35.6836 13.707 35.293C 13.5117 35.0977 13.2539 35 13 35ZM 18 36C 17.4453 36 17 36.4492 17 37C 17 37.5508 17.4453 38 18 38L 26 38C 26.5547 38 27 37.5508 27 37C 27 36.4492 26.5547 36 26 36L 18 36ZM 41 38C 47.0664 38 52 42.9336 52 49C 52 55.0664 47.0664 60 41 60C 34.9336 60 30 55.0664 30 49C 30 42.9336 34.9336 38 41 38ZM 41 42C 40.4492 42 40 42.4492 40 43L 40 48L 35 48C 34.4492 48 34 48.4492 34 49C 34 49.5508 34.4492 50 35 50L 40 50L 40 55C 40 55.5508 40.4492 56 41 56C 41.5508 56 42 55.5508 42 55L 42 50L 47 50C 47.5508 50 48 49.5508 48 49C 48 48.4492 47.5508 48 47 48L 42 48L 42 43C 42 42.4492 41.5508 42 41 42ZM 5 48C 4.44922 48 4 48.4492 4 49L 4 51C 4 51.5508 4.44922 52 5 52C 5.55078 52 6 51.5508 6 51L 6 49C 6 48.4492 5.55078 48 5 48ZM 10 48C 9.44922 48 9 48.4492 9 49L 9 51C 9 51.5508 9.44922 52 10 52C 10.5508 52 11 51.5508 11 51L 11 49C 11 48.4492 10.5508 48 10 48ZM 15 48C 14.4492 48 14 48.4492 14 49L 14 51C 14 51.5508 14.4492 52 15 52C 15.5508 52 16 51.5508 16 51L 16 49C 16 48.4492 15.5508 48 15 48ZM 20 48C 19.4492 48 19 48.4492 19 49L 19 51C 19 51.5508 19.4492 52 20 52C 20.5508 52 21 51.5508 21 51L 21 49C 21 48.4492 20.5508 48 20 48ZM 25 48C 24.4492 48 24 48.4492 24 49L 24 51C 24 51.5508 24.4492 52 25 52C 25.5508 52 26 51.5508 26 51L 26 49C 26 48.4492 25.5508 48 25 48Z"/>
</defs>
</svg>
