<svg xmlns="http://www.w3.org/2000/svg" width="64" height="50"><path d="M0 0v50h2.78V2.78h58.44V50H64V0H0zm8.35 8.33v12.5h47.3V8.33H8.35zm2.78 2.78h41.74v6.95H11.13V11.1zm-1.4 18.06v2.77H47.3v-2.77H9.74zm0 5.55v2.78h43.14v-2.78H9.74zm0 5.56v2.78h32v-2.78h-32zm-4.16 6.94V50h4.17v-2.78H5.57zm6.95 0V50h4.18v-2.78h-4.18zm6.96 0V50h4.17v-2.78h-4.17zm6.95 0V50h4.18v-2.78h-4.18zm6.96 0V50h4.18v-2.78h-4.18zm6.96 0V50h4.17v-2.78h-4.17zm6.95 0V50h4.18v-2.78H47.3zm6.96 0V50h4.17v-2.78h-4.17z" opacity=".32"/></svg>