<svg width="132" height="120" viewBox="0 0 132 120" fill="none" xmlns="http://www.w3.org/2000/svg"><path d="M50.1926 91.0948C1.62547 86.6976 -11.5705 44.7511 10.059 30.8678C30.1506 17.9726 40.3701 29.5832 64.6289 8.48646C88.4412 -12.2644 123.912 8.23943 121.332 35.5614C118.752 62.34 101.389 95.739 50.1926 91.0948Z" transform="translate(0 28.1895)" fill="url(#paint0_linear)"/><path d="M59.2567 6.21776C63.6222 18.4707 18.5277 41.2967 3.54579 32.6505C-8.16193 25.8817 11.8801 8.53989 23.7366 3.94504C37.5775 -1.44031 56.3793 -1.88497 59.2567 6.21776Z" transform="translate(8.59668 10.2012)" fill="url(#paint1_linear)"/><path d="M15.6268 0H0V13.9327H15.6268V0Z" transform="translate(48.9524 51.5479)" fill="#FDC886"/><path d="M6.05296 4.94069C9.17832 5.48417 13.9904 3.45848 15.6275 1.82805V1.50778e-06H4.16782C1.73698 0.592884 0.000667446 1.03755 0.000667446 1.03755V6.52171C-0.0489415 6.52171 2.67955 4.39721 6.05296 4.94069Z" transform="translate(49.0012 51.5479)" fill="#FAAB62"/><path d="M39.3895 0.138808C39.3895 0.138808 22.5721 0.23762 16.619 8.38976C10.6659 16.5419 -3.78486e-07 43.0734 -3.78486e-07 43.0734C3.8695 47.4212 6.89565 49.5951 11.7077 52.2137L24.5068 26.5715L26.4416 58.8342C37.0083 61.848 55.2644 63.8737 72.7267 58.5872L71.6849 24.5952L80.2673 34.279C83.5911 38.0833 89.5442 38.0833 92.868 34.3284L110.132 15.0103L101.798 8.6862L88.6016 21.2356C88.6016 21.2356 81.9044 12.0953 74.463 4.78306C68.51 -1.04696 55.0659 0.089402 55.0659 0.089402C53.7761 6.80874 41.1258 6.06764 39.3895 0.138808Z" transform="translate(9.56299 57.9307)" fill="url(#paint2_linear)"/><path d="M0.774411 20.885C0.774411 20.885 -0.614636 17.5747 0.327934 12.7329C0.873632 9.81785 1.71698 6.21115 0.625583 3.39495C-0.465814 0.578758 1.66737 -0.458788 2.70916 0.183502C6.77709 2.65385 5.68569 9.66963 5.68569 9.66963C5.68569 9.66963 10.597 5.07479 13.4743 5.61826C15.9051 6.06292 15.9051 8.0392 15.9051 8.0392C17.5422 8.63209 18.336 9.71904 18.336 11.2507C19.477 11.9918 20.2707 13.0293 20.0723 14.7091C20.9156 15.302 22.2055 16.9324 20.7668 18.9581C19.477 20.8356 14.7641 24.8375 12.6309 25.8751C10.6962 26.8632 9.10872 27.1597 9.10872 27.1597C5.88413 25.5787 3.05642 23.5036 0.774411 20.885Z" transform="translate(110.586 45.7314)" fill="#FDC886"/><path d="M1.83553 -1.50778e-06C1.83553 -1.50778e-06 5.06012 4.69366 3.02789e-06 7.8557" transform="translate(115.627 57.9209)" stroke="#F7913D" stroke-miterlimit="10"/><path d="M7.74895 1.13636C7.15364 2.27272 4.62358 4.34781 2.78805 5.23713C0.803689 6.22527 -0.535752 4.34781 0.208382 2.91501C0.605254 2.1245 3.13531 -7.53889e-07 3.13531 -7.53889e-07" transform="translate(118.742 52.6836)" stroke="#F7913D" stroke-miterlimit="10"/><path d="M0.186374 1.23517C-0.508152 2.51975 0.83129 4.44662 2.66682 3.90314C3.70861 3.6067 8.02459 1.18577 8.6199 1.50778e-06" transform="translate(120.352 56.9824)" stroke="#F7913D" stroke-miterlimit="10"/><path d="M0.293019 0.494071C-0.500725 1.23518 0.342628 3.80434 2.52542 3.21145C3.21995 3.01383 7.53593 1.13636 8.23046 1.50778e-06" transform="translate(122.428 60.4404)" stroke="#F7913D" stroke-miterlimit="10"/><path d="M0.438677 0.0494038C-0.702329 0.88932 0.537892 2.76678 2.37342 2.42093C3.26638 2.27271 5.74684 1.28458 6.49097 1.50778e-06" transform="translate(124.316 63.6523)" stroke="#F7913D" stroke-miterlimit="10"/><path d="M-1.51395e-06 -1.50778e-06C-1.51395e-06 -1.50778e-06 0.297658 0.197628 0.694532 1.3834C1.19062 2.76679 0.49609 2.96442 0.49609 2.96442" transform="translate(110.963 47.0518)" stroke="#F7913D" stroke-miterlimit="10"/><path d="M4.95807 19.0711L7.9346 -1.88472e-07L36.1621 8.30036C36.1621 8.30036 35.9637 12.6976 37.7 18.33C39.4363 23.9623 41.5695 28.1125 39.1386 33.2508C36.1125 39.7231 22.5196 46.1955 13.7885 39.8714C8.08343 35.7212 6.14868 29.2983 6.14868 29.2983C6.14868 29.2983 3.56902 30.9781 1.18779 27.6185C-0.945399 24.5058 -0.498919 17.49 4.95807 19.0711Z" transform="translate(34.5684 12.3184)" fill="#FDC886"/><path d="M12.4192 9.50223C12.7169 4.85798 24.4246 -2.94831 35.8842 1.15246C40.9444 2.98052 38.0174 6.29078 38.0174 6.29078C59.3989 12.9607 37.819 29.3144 13.5602 17.5556C13.213 23.8796 12.0719 27.8816 7.9544 31.3895C-4.49745 28.9191 -1.81856 9.2552 12.4192 9.50223Z" transform="translate(31.5723)" fill="#003A69"/><path d="M3.62145 4.41014C3.52224 -1.66691 0.347263 -0.481147 0 2.13742" transform="translate(35.9548 33.4023)" stroke="#F7913D" stroke-miterlimit="10"/><path d="M1.19062 1.50778e-06C1.19062 1.50778e-06 0.347262 -1.53134e-06 -1.51395e-06 1.18576" transform="translate(37.5422 34.0078)" stroke="#F7913D" stroke-miterlimit="10"/><path d="M-7.56973e-07 3.80433C2.28201 5.08891 8.88001 4.15017 10.1202 -7.53889e-07" transform="translate(60.3127 41.3203)" stroke="#F7913D" stroke-miterlimit="10"/><path d="M7.56971e-07 7.5389e-07C7.56971e-07 7.5389e-07 5.70502 8.39918 1.6867 9.68376" transform="translate(63.1899 28.623)" stroke="#F7913D" stroke-miterlimit="10"/><path d="M5.11664 0C5.11664 0 2.43776 5.7312 3.1819 15.8102C3.7772 23.9129 -0.538775 33.5967 0.0565324 35.5236C3.28111 34.8813 6.15843 33.9425 6.15843 33.9425L5.11664 0Z" transform="translate(76.0815 82.5254)" fill="#059B91"/><defs><linearGradient id="paint0_linear" x2="1" gradientUnits="userSpaceOnUse" gradientTransform="translate(116.12 -23.6383) scale(110.833 110.382) rotate(90)"><stop stop-color="#EDFAFF"/><stop offset="1" stop-color="#E7F6FD"/></linearGradient><linearGradient id="paint1_linear" x2="1" gradientUnits="userSpaceOnUse" gradientTransform="translate(85.1983 -5.65022) scale(110.833 110.382) rotate(90)"><stop stop-color="#EDFAFF"/><stop offset="1" stop-color="#E7F6FD"/></linearGradient><linearGradient id="paint2_linear" x2="1" gradientUnits="userSpaceOnUse" gradientTransform="translate(-3.13836 43.7107) scale(82.9165 82.5788) rotate(-60)"><stop stop-color="#059B91"/><stop offset="1" stop-color="#24C4BC"/></linearGradient></defs></svg>