<svg width="75" height="64" viewBox="0 0 75 64" fill="none" xmlns="http://www.w3.org/2000/svg">
<rect width="75" height="64" fill="black" fill-opacity="0"/>
<rect width="75" height="64" fill="black" fill-opacity="0"/>
<path d="M0 50.717C0 54.0462 2.71331 56.7547 6.04839 56.7547H24.1935V61.5849H19.3548V64H55.6452V61.5849H50.8064V56.7547H68.9516C72.2867 56.7547 75 54.0462 75 50.717V47.0943H0V50.717ZM48.3871 61.5849H26.6129V56.7547H48.3871V61.5849ZM2.41935 49.5094H72.5806V50.717C72.5806 52.7143 70.9524 54.3396 68.9516 54.3396H6.04839C4.04758 54.3396 2.41935 52.7143 2.41935 50.717V49.5094Z" fill="#9DA6AA"/>
<path d="M68.9516 0H58.0645V2.41509H68.9516C70.9524 2.41509 72.5806 4.04045 72.5806 6.03774V44.6792H75V6.03774C75 2.70853 72.2867 0 68.9516 0Z" fill="#9DA6AA"/>
<path d="M2.41935 6.03774C2.41935 4.04045 4.04758 2.41509 6.04839 2.41509H60.2949V0H6.04839C2.71331 0 0 2.70853 0 6.03774V44.6792H2.41935V6.03774Z" fill="#9DA6AA"/>
<path d="M37.5 42.9057C47.5052 42.9057 55.6452 34.7801 55.6452 24.7925C55.6452 14.8048 47.5052 6.67926 37.5 6.67926C27.4947 6.67926 19.3548 14.8048 19.3548 24.7925C19.3548 34.7801 27.4947 42.9057 37.5 42.9057ZM37.5 9.09435C46.171 9.09435 53.2258 16.1368 53.2258 24.7925C53.2258 33.4482 46.171 40.4906 37.5 40.4906C28.829 40.4906 21.7742 33.4482 21.7742 24.7925C21.7742 16.1368 28.829 9.09435 37.5 9.09435Z" fill="#9DA6AA"/>
<path d="M30.617 32.8671L37.4999 25.9963L44.3829 32.8671L45.9295 31.3233L39.0465 24.4524L45.9295 17.5816L44.3829 16.0378L37.4999 22.9086L30.617 16.0378L29.0704 17.5816L35.9534 24.4524L29.0704 31.3233L30.617 32.8671Z" fill="#9DA6AA"/>
</svg>
