<svg xmlns="http://www.w3.org/2000/svg" xmlns:xlink="http://www.w3.org/1999/xlink" width="69" height="69"><use fill="#B2E2F7" transform="translate(52 1)" xlink:href="#path0_fill"/><use fill="#015486" xlink:href="#path1_fill"/><use fill="#B2E2F7" transform="translate(9 47)" xlink:href="#path2_fill"/><use fill="#B2E2F7" transform="translate(9 52.8)" xlink:href="#path2_fill"/><use fill="#B2E2F7" transform="translate(9 58.7)" xlink:href="#path2_fill"/><use fill="#B2E2F7" transform="translate(28.86 47)" xlink:href="#path2_fill"/><use fill="#B2E2F7" transform="translate(28.87 52.8)" xlink:href="#path3_fill"/><use fill="#41CFC8" transform="translate(11.41 8.9)" xlink:href="#path4_fill"/><use fill="#FFF" transform="translate(18 16)" xlink:href="#path5_fill"/><defs><path id="path0_fill" d="M0 5a5 5 0 0 1 5-5h5a5 5 0 0 1 5 5v16.58H0V5z"/><path id="path1_fill" d="M60.1.02L9.46 0A9.47 9.47 0 0 0 0 9.46V69h52.3V23.97l2.31-1.54 4.37 2.19 4.46-2.23L69 25.17V9.46A9.47 9.47 0 0 0 60.1.02zM50.08 9.46v57.31H2.23V9.46a7.24 7.24 0 0 1 7.23-7.23h43.99a9.45 9.45 0 0 0-3.37 7.23zm16.7 12.11l-3.34-1.67-4.46 2.23-4.53-2.27-2.14 1.43V9.46a7.24 7.24 0 0 1 14.46 0v12.11z"/><path id="path2_fill" d="M15.13 0H0v2.33h15.13V0z"/><path id="path3_fill" d="M11.35 0H0v2.33h11.35V0z"/><path id="path4_fill" d="M14.47 28.94a14.47 14.47 0 1 0 0-28.94 14.47 14.47 0 0 0 0 28.94z"/><path id="path5_fill" d="M15 1.76L13.06 0 3.82 10.66 2.16 8.11 0 9.6 3.52 15 15 1.76z"/></defs></svg>