<svg xmlns="http://www.w3.org/2000/svg" xmlns:xlink="http://www.w3.org/1999/xlink" width="70" height="70"><use fill="#717D83" xlink:href="#path0_fill"/><defs><path id="path0_fill" d="M35 0C15.7 0 0 15.7 0 35s15.7 35 35 35 35-15.7 35-35S54.3 0 35 0zm0 2.41A32.62 32.62 0 0 1 67.59 35 32.62 32.62 0 0 1 35 67.59 32.62 32.62 0 0 1 2.41 35 32.62 32.62 0 0 1 35 2.41zm-.53 4.84c-7.1.15-14 3.02-19.1 8.12a27.8 27.8 0 0 0 0 39.26 1.2 1.2 0 0 0 1.71-1.71A25.37 25.37 0 0 1 39.03 9.98a1.2 1.2 0 0 0 .38-2.39 27.7 27.7 0 0 0-4.94-.34zm9.77 1.67c-.47.01-.9.31-1.07.78a1.2 1.2 0 0 0 .7 1.55c.86.32 1.7.7 2.54 1.1.17.1.36.14.54.14a1.21 1.21 0 0 0 .54-2.29A29 29 0 0 0 44.72 9a1.26 1.26 0 0 0-.48-.07zm6.97 3.96c-.3.04-.6.2-.8.46a1.2 1.2 0 0 0 .2 1.69 25.36 25.36 0 0 1 2.3 37.89 1.21 1.21 0 0 0 1.72 1.71 27.8 27.8 0 0 0-2.53-41.5c-.26-.2-.59-.28-.89-.25zm-1.73 11.26c-.3 0-.61.12-.85.35L31.38 41.74l-8.8-8.8a1.2 1.2 0 1 0-1.7 1.7l9.65 9.66a1.2 1.2 0 0 0 1.7 0l18.1-18.1a1.2 1.2 0 0 0-.85-2.06zm-26.1 30.65a1.2 1.2 0 0 0-1.19.59L21 57.47a1.2 1.2 0 0 0 1.04 1.8c.41 0 .82-.2 1.04-.6l1.2-2.08a1.2 1.2 0 0 0-.89-1.8zm23.24 0a1.2 1.2 0 0 0-.9 1.8l1.21 2.1a1.2 1.2 0 0 0 1.65.43 1.2 1.2 0 0 0 .44-1.65L47.8 55.4a1.2 1.2 0 0 0-1.2-.6zm-17.88 2.35c-.46.06-.87.4-1 .89l-.62 2.33a1.2 1.2 0 0 0 2.33.62l.63-2.33a1.2 1.2 0 0 0-1.34-1.51zm12.52 0a1.2 1.2 0 0 0-1.34 1.5l.63 2.34a1.2 1.2 0 0 0 2.33-.62l-.62-2.33a1.22 1.22 0 0 0-1-.9zm-6.26.8c-.67 0-1.2.53-1.2 1.2v2.41a1.2 1.2 0 1 0 2.41 0v-2.41c0-.67-.54-1.2-1.21-1.2z"/></defs></svg>