<svg width="20" height="22" viewBox="0 0 20 22" version="1.1" xmlns="http://www.w3.org/2000/svg" xmlns:xlink="http://www.w3.org/1999/xlink"><title>icons8-google_play</title><desc>Created using Figma</desc><g id="Canvas" transform="translate(121 2071)"><g id="icons8-google_play"><g id="Vector"><use xlink:href="#path0_fill" transform="translate(-121 -2070.98)" fill="#4DB6AC"/></g><g id="Vector"><use xlink:href="#path1_fill" transform="translate(-120.612 -2071)" fill="#DCE775"/></g><g id="Vector"><use xlink:href="#path2_fill" transform="translate(-120.725 -2060.07)" fill="#D32F2F"/></g><g id="Vector"><use xlink:href="#path3_fill" transform="translate(-109.627 -2063.11)" fill="#FBC02D"/></g></g></g><defs><path id="path0_fill" d="M 0.3877 1.21673e-07C 0.160579 0.0588425 0 0.255167 0 0.592823C 0 1.5838 0 10.9287 0 10.9287C 0 10.9287 0 21.0276 0 21.4736C 0 21.7189 0.108336 21.8833 0.274965 21.9444L 11.3731 10.9106L 0.3877 1.21673e-07Z"/><path id="path1_fill" d="M 14.0408 7.89269L 9.47253 5.25523C 9.47253 5.25523 1.08886 0.414205 0.596123 0.129891C 0.38275 0.00670733 0.172678 -0.0257383 -4.19563e-08 0.0193558L 10.9859 10.9299L 14.0408 7.89269Z"/><path id="path2_fill" d="M 0.504285 10.954C 0.796847 10.7847 8.9094 6.10091 14.1783 3.0587L 11.0981 -3.18868e-07L 0 11.0338C 0.136382 11.0838 0.31126 11.0651 0.504285 10.954Z"/><path id="path3_fill" d="M 7.54338 2.59072C 7.10563 2.3548 3.08895 0.0192478 3.08895 0.0192478L 3.05541 3.3565e-07L -1.3426e-07 3.03726L 3.08015 6.09596C 5.51744 4.6887 7.34815 3.63228 7.51203 3.53714C 8.03116 3.23798 7.98112 2.82664 7.54338 2.59072Z"/></defs></svg>