<svg xmlns="http://www.w3.org/2000/svg" xmlns:xlink="http://www.w3.org/1999/xlink" width="70" height="70"><use fill="url(#paint0_linear)" transform="translate(18.06 13.5)" xlink:href="#path0_fill"/><use fill="#015486" transform="translate(0 58.7)" xlink:href="#path1_fill"/><use fill="#015486" transform="translate(22.58 58.7)" xlink:href="#path2_fill"/><use fill="#015486" transform="translate(6.77 63.2)" xlink:href="#path3_fill"/><use fill="#015486" transform="translate(11.29 63.2)" xlink:href="#path3_fill"/><use fill="#015486" transform="translate(15.81 63.2)" xlink:href="#path3_fill"/><use fill="#015486" transform="translate(58.71 11.3)" xlink:href="#path4_fill"/><use fill="#015486" transform="translate(2.26 11.3)" xlink:href="#path5_fill"/><use fill="#015486" transform="translate(58.71 15.8)" xlink:href="#path6_fill"/><use fill="#015486" transform="translate(6.77 15.8)" xlink:href="#path7_fill"/><g fill="#F09292"><use transform="translate(13.55)" xlink:href="#path8_fill"/><use transform="translate(18.06 4.5)" xlink:href="#path3_fill"/><use transform="translate(22.58 4.5)" xlink:href="#path3_fill"/><use transform="translate(27.1 4.5)" xlink:href="#path3_fill"/></g><use fill="#F09292" transform="translate(13.55 13.5)" xlink:href="#path9_fill"/><use fill="#FFF" transform="translate(18.06 21.5)" xlink:href="#path10_fill"/><use fill="#FFF" transform="translate(41.77 21.5)" xlink:href="#path11_fill"/><use fill="#FFF" transform="translate(29.35 21.5)" xlink:href="#path12_fill"/><defs><linearGradient id="paint0_linear" x2="1" gradientTransform="matrix(0 30.4839 -33.871 0 33.87 0)" gradientUnits="userSpaceOnUse"><stop offset="0" stop-color="#F09292"/><stop offset="1" stop-color="#FAAB62"/></linearGradient><path id="path0_fill" d="M33.87 0H0v30.48h33.87V0z"/><path id="path1_fill" d="M64.35 11.29H5.65A5.65 5.65 0 0 1 0 5.65V0h20.32v2.26H2.26v3.39a3.4 3.4 0 0 0 3.39 3.38h58.7a3.4 3.4 0 0 0 3.4-3.38v-3.4H49.67V0H70v5.65a5.65 5.65 0 0 1-5.65 5.64z"/><path id="path2_fill" d="M21.45 6.77H3.4A3.4 3.4 0 0 1 0 3.4V0h24.84v3.39a3.4 3.4 0 0 1-3.39 3.38zM2.25 2.26v1.13c0 .62.51 1.13 1.14 1.13h18.06c.62 0 1.13-.51 1.13-1.13V2.26H2.26z"/><path id="path3_fill" d="M2.26 0H0v2.26h2.26V0z"/><path id="path4_fill" d="M9.03 45.16H6.77V5.65a3.4 3.4 0 0 0-3.38-3.4H0V0h3.39a5.65 5.65 0 0 1 5.64 5.65v39.51z"/><path id="path5_fill" d="M2.26 45.16H0V5.65A5.65 5.65 0 0 1 5.65 0h3.38v2.26H5.65a3.4 3.4 0 0 0-3.4 3.39v39.51z"/><path id="path6_fill" d="M4.52 40.65H2.26V2.25H0V0h2.26a2.26 2.26 0 0 1 2.26 2.26v38.39z"/><path id="path7_fill" d="M2.26 40.65H0V2.25A2.26 2.26 0 0 1 2.26 0h2.26v2.26H2.26v38.39z"/><path id="path8_fill" d="M42.9 11.29H0V0h42.9v11.29zM2.26 9.03h38.39V2.26H2.25v6.77z"/><path id="path9_fill" d="M42.9 35H0V0h2.26v32.74h38.39V0h2.25v35z"/><path id="path10_fill" d="M7.9 16.94H5.65v-3.4H0v-2.49L4.91 0h3v11.29h2.25v2.26H7.9v3.39zm-5.53-5.65h3.28V3.91l-3.28 7.38z"/><path id="path11_fill" d="M7.9 16.94H5.65v-3.4H0v-2.49L4.91 0h3v11.29h2.25v2.26H7.9v3.39zm-5.53-5.65h3.28V3.91l-3.28 7.38z"/><path id="path12_fill" d="M5.65 15.8A5.65 5.65 0 0 1 0 10.17V5.65a5.65 5.65 0 0 1 11.29 0v4.51a5.65 5.65 0 0 1-5.64 5.65zm0-13.54a3.4 3.4 0 0 0-3.4 3.39v4.51a3.4 3.4 0 0 0 6.78 0V5.65a3.4 3.4 0 0 0-3.38-3.4z"/></defs></svg>