<svg xmlns="http://www.w3.org/2000/svg" width="110" height="100"><g fill="none"><path fill="#F5F5F6" d="M97.91 39.11C64.08 62.5 92.47 100 64.08 100c-28.4 0-44.83-12.5-60.64-37.5C-12.38 37.5 29.97 0 58.36 0c28.4 0 73.39 15.73 39.55 39.11z" opacity=".3"/><path fill="url(#paint0_linear)" d="M4.08 8.08a4.06 4.06 0 0 0 4.08-4.04A4.06 4.06 0 0 0 4.08 0 4.06 4.06 0 0 0 0 4.04a4.06 4.06 0 0 0 4.08 4.04z" transform="translate(90.12 81.14)"/><path fill="#C7CFE2" d="M94.2 86.5c-.82 0-1.52-.57-1.69-1.37l-1.13-5.6h5.63l-1.13 5.6a1.7 1.7 0 0 1-1.68 1.37z"/><path fill="url(#paint1_linear)" d="M92.98 71.15H9.78c-.9 0-1.62-.73-1.62-1.62V12.38a4.8 4.8 0 0 0-1.44-3.43L.48 2.76a1.6 1.6 0 0 1 0-2.29 1.64 1.64 0 0 1 2.3 0l6.25 6.2a8 8 0 0 1 2.39 5.71v55.53h81.56c.9 0 1.64.73 1.64 1.62 0 .9-.73 1.62-1.64 1.62z" transform="translate(6.92 10)"/><path fill="url(#paint2_linear)" d="M8.16 16.17c4.5 0 8.15-3.62 8.15-8.09A8.12 8.12 0 0 0 8.16 0 8.12 8.12 0 0 0 0 8.08a8.12 8.12 0 0 0 8.16 8.09z" transform="translate(6.92 73.06)"/><path fill="#E8C113" d="M15.08 86c2.7 0 4.9-2.17 4.9-4.85 0-2.68-2.2-4.85-4.9-4.85s-4.9 2.17-4.9 4.85c0 2.68 2.2 4.85 4.9 4.85z"/><path fill="#fff" d="M15.08 82.76c.9 0 1.63-.72 1.63-1.61 0-.9-.73-1.62-1.63-1.62-.9 0-1.63.72-1.63 1.62 0 .89.73 1.61 1.63 1.61z"/><path fill="url(#paint3_linear)" d="M64.43 0H1.73C.77 0 0 .77 0 1.71v52.35c0 .95.77 1.71 1.73 1.71h62.7c.95 0 1.73-.76 1.73-1.7V1.7c0-.94-.78-1.71-1.73-1.71z" transform="translate(27.99 13.3)"/><path fill="#fff" d="M85.66 64.02H36.47a3.36 3.36 0 0 1-3.37-3.33v-39a3.36 3.36 0 0 1 3.37-3.33h49.2c1.85 0 3.36 1.5 3.36 3.33v39a3.36 3.36 0 0 1-3.37 3.33zM36.47 20.14c-.86 0-1.56.7-1.56 1.55v39c0 .85.7 1.55 1.56 1.55h49.2c.86 0 1.56-.7 1.56-1.55v-39c0-.85-.7-1.55-1.57-1.55H36.47z"/><path fill="url(#paint4_linear)" d="M0 0v7.55C0 8.19.52 8.7 1.17 8.7h5.05c.27 0 .53-.09.73-.25l3.84-3.06c.2-.17.47-.26.73-.26h37.5c.26 0 .52.1.73.26l3.83 3.06c.21.16.47.25.73.25h5.06c.65 0 1.17-.51 1.17-1.15V0H0z" transform="translate(30.8 69.08)"/><path fill="#243036" fill-opacity=".25" d="M30.8 69.08v7.55c0 .63.52 1.15 1.17 1.15h5.05c.27 0 .53-.09.73-.26l3.84-3.05c.2-.17.47-.26.73-.26h37.5c.26 0 .52.1.73.26l3.83 3.05c.21.17.47.26.73.26h5.06c.64 0 1.17-.52 1.17-1.15v-7.55H30.8z"/><path fill="#243036" fill-opacity=".29" d="M30.77 68.46h60.77v3.08H30.77z"/><path fill="#fff" d="M34.1 23.63c-.91 0-1.66.74-1.66 1.66v7.64c0 .92.75 1.66 1.67 1.66.92 0 1.67-.74 1.67-1.66V25.3c0-.92-.75-1.66-1.67-1.66zm0 24.17c-.91 0-1.66.73-1.66 1.65v7.64c0 .92.75 1.66 1.67 1.66.92 0 1.67-.74 1.67-1.66v-7.64c0-.92-.75-1.66-1.67-1.66zm50.48-17.4H70.64v6.13h13.94V30.4z"/><path fill="#fff" d="M84.58 35.76H70.64v.77h13.94v-.77z"/><path fill="#fff" fill-opacity=".5" d="M74.29 39.83h-3.34a.3.3 0 0 1-.3-.3v-1.18c0-.17.13-.3.3-.3h3.34c.17 0 .3.13.3.3v1.18a.3.3 0 0 1-.3.3zm4.99 0h-3.34a.3.3 0 0 1-.3-.3v-1.18c0-.17.13-.3.3-.3h3.34c.17 0 .3.13.3.3v1.18a.3.3 0 0 1-.3.3zm5 0h-3.35a.3.3 0 0 1-.3-.3v-1.18c0-.17.14-.3.3-.3h3.35c.16 0 .3.13.3.3v1.18a.3.3 0 0 1-.3.3zm-9.99 3.03h-3.34a.3.3 0 0 1-.3-.3v-1.18c0-.16.13-.3.3-.3h3.34c.16 0 .3.14.3.3v1.18a.3.3 0 0 1-.3.3zm4.99 0h-3.34a.3.3 0 0 1-.3-.3v-1.18c0-.16.13-.3.3-.3h3.34c.17 0 .3.14.3.3v1.18a.3.3 0 0 1-.3.3zm5 0h-3.35a.3.3 0 0 1-.3-.3v-1.18c0-.16.14-.3.3-.3h3.35c.16 0 .3.14.3.3v1.18a.3.3 0 0 1-.3.3zm-9.99 3.04h-3.34a.3.3 0 0 1-.3-.3v-1.18c0-.16.13-.3.3-.3h3.34c.16 0 .3.14.3.3v1.18a.3.3 0 0 1-.3.3zm4.99 0h-3.34a.3.3 0 0 1-.3-.3v-1.18c0-.16.13-.3.3-.3h3.34c.17 0 .3.14.3.3v1.18a.3.3 0 0 1-.3.3zm5 0h-3.35a.3.3 0 0 1-.3-.3v-1.18c0-.16.14-.3.3-.3h3.35c.16 0 .3.14.3.3v1.18a.3.3 0 0 1-.3.3zm-9.99 3.04h-3.34a.3.3 0 0 1-.3-.3v-1.18c0-.17.13-.3.3-.3h3.34c.16 0 .3.13.3.3v1.18a.3.3 0 0 1-.3.3zm4.99 0h-3.34a.3.3 0 0 1-.3-.3v-1.18c0-.17.13-.3.3-.3h3.34c.17 0 .3.13.3.3v1.18a.3.3 0 0 1-.3.3zm5 0h-3.35a.3.3 0 0 1-.3-.3v-1.18c0-.17.14-.3.3-.3h3.35c.16 0 .3.13.3.3v1.18a.3.3 0 0 1-.3.3z"/><path fill="#fff" d="M74.29 51.97h-3.34a.3.3 0 0 1-.3-.3V50.5c0-.16.13-.3.3-.3h3.34c.17 0 .3.14.3.3v1.18a.3.3 0 0 1-.3.3zm4.99 0h-3.34a.3.3 0 0 1-.3-.3V50.5c0-.16.13-.3.3-.3h3.34c.17 0 .3.14.3.3v1.18a.3.3 0 0 1-.3.3zm5 0h-3.35a.3.3 0 0 1-.3-.3V50.5c0-.16.14-.3.3-.3h3.35c.16 0 .3.14.3.3v1.18a.3.3 0 0 1-.3.3zm-20.62-6.92l-.88-.5a7.64 7.64 0 0 0 0-6.71l.88-.51a.59.59 0 0 0 .22-.81.6.6 0 0 0-.82-.22l-.88.5a7.88 7.88 0 0 0-5.88-3.35v-1.01a.6.6 0 0 0-.6-.6.6.6 0 0 0-.6.6v1a7.88 7.88 0 0 0-5.88 3.36l-.89-.5a.6.6 0 0 0-.82.22.59.59 0 0 0 .22.81l.89.5a7.64 7.64 0 0 0 0 6.72l-.89.5a.59.59 0 0 0-.22.81.6.6 0 0 0 .82.22l.89-.5a7.87 7.87 0 0 0 5.88 3.35v1.01c0 .33.27.6.6.6a.6.6 0 0 0 .6-.6v-1a7.88 7.88 0 0 0 5.88-3.36l.88.5a.6.6 0 0 0 .82-.22.59.59 0 0 0-.22-.8zm-1.3-3.86c0 .99-.23 1.92-.62 2.76l-4.27-2.43a1.76 1.76 0 0 0 0-.66l4.27-2.43c.39.84.62 1.77.62 2.76zm-1.23-3.79l-4.26 2.44a1.8 1.8 0 0 0-.57-.33v-4.87c2 .17 3.74 1.23 4.83 2.76zm-6.03-2.76v4.87c-.21.08-.4.19-.57.33l-4.27-2.44a6.67 6.67 0 0 1 4.84-2.76zm-6.06 6.55c0-.99.23-1.92.62-2.76l4.26 2.43a1.79 1.79 0 0 0 0 .66l-4.26 2.43a6.47 6.47 0 0 1-.62-2.76zm1.22 3.79l4.27-2.44c.17.14.36.26.57.33v4.87a6.67 6.67 0 0 1-4.84-2.76zm6.04 2.76v-4.87c.21-.07.4-.18.57-.33l4.26 2.44a6.67 6.67 0 0 1-4.83 2.76z"/></g><defs><linearGradient id="paint0_linear" x2="1" gradientTransform="matrix(0 8.0848 -8.15653 0 8.16 0)" gradientUnits="userSpaceOnUse"><stop stop-color="#717D83"/><stop offset="1" stop-color="#49555C"/></linearGradient><linearGradient id="paint1_linear" x2="1" gradientTransform="matrix(0 71.146 -94.6154 0 94.62 0)" gradientUnits="userSpaceOnUse"><stop stop-color="#F5F5F6"/><stop offset="1" stop-color="#CDE5FA"/></linearGradient><linearGradient id="paint2_linear" x2="1" gradientTransform="matrix(0 16.1696 -16.3131 0 16.31 0)" gradientUnits="userSpaceOnUse"><stop stop-color="#717D83"/><stop offset="1" stop-color="#49555C"/></linearGradient><linearGradient id="paint3_linear" x2="1" gradientTransform="matrix(45.5777 -80.4444 -95.3951 -38.4346 66.2 72.78)" gradientUnits="userSpaceOnUse"><stop stop-color="#E8C113"/><stop offset="1" stop-color="#FAE6AA"/></linearGradient><linearGradient id="paint4_linear" x2="1" gradientTransform="matrix(41.7061 -12.55 -87.2918 -5.99613 60.58 11.35)" gradientUnits="userSpaceOnUse"><stop stop-color="#E8C113"/><stop offset="1" stop-color="#FAE6AA"/></linearGradient></defs></svg>
