<svg enable-background="new 0 0 219.5 201.4" height="201.4" viewBox="0 0 219.5 201.4" width="219.5" xmlns="http://www.w3.org/2000/svg" xmlns:xlink="http://www.w3.org/1999/xlink"><linearGradient id="a" gradientTransform="matrix(88 152.4205 -186.1955 107.5 -5486.8901 -29315.8652)" gradientUnits="userSpaceOnUse" x1="160.1245" x2="161.1265" y1="45.8529" y2="45.8529"><stop offset="0" stop-color="#ffef9e" stop-opacity=".35"/><stop offset="1" stop-color="#ffb9b5" stop-opacity=".35"/></linearGradient><path d="m55.1 163.3c14.8-26.7-14.8-29.4-25.3-28.3-19 2.1-42-6.5-23-53 22.6-55.4 89-77.6 108.9-80.9 20.6-3.4 48-2.3 43.1 25.9-4.6 26.7 2 45.1 23.7 31.3 26-16.6 43.3 4.6 35.1 38-8.6 34.8-35 53.7-62.5 74-72.9 54-120 29.1-100-7z" fill="url(#a)"/><path d="m33.6 52.7c6.5-1.1 13.1-1.1 19.5 0 2.8.5 5.3 2.3 5.3 5.2 0 1.7-.8 3.1-1.9 4.1-.5.4-1.1.6-1.7.4-.6-.1-1.2-.4-1.5-1-.5-.6-1.1-1.1-2-.6-4.6 2.3-6.2-1.3-8.3.2-1.8 1.2-2.6 1.1-5.1.1-1.7-.7-3.7.3-4.9 1-1 .6-2 .5-2.8-.1-1.2-1-1.9-2.5-1.9-4 0-2.9 2.4-4.8 5.3-5.3z" fill="#596366"/><path d="m192.6 145c0 1.7-.8 3.1-2.4 3.4l-89.9 16c-1.7.3-3.3-.7-3.7-2.4-.1-.6-.1-1.3.2-1.9-.2-.3-.3-.6-.4-.9l-24.8-98.2h-14.8c-1.5 0-2.7-1.2-2.8-2.7 0-1.5 1.2-2.7 2.7-2.7h17.2c.5 0 1 .1 1.4.4.8.4 1.4 1.1 1.6 1.9l25.4 100.1c0 .1.1.2.1.3l86.8-15.5c1.6-.5 3.5.6 3.4 2.2z" fill="#cbcfd1"/><path d="m33.6 52.7c6.5-1.1 13.1-1.1 19.5 0 .8.1 1.6.4 2.2.8-.4.4-.8.9-1.5 1.4-5.3 4.5-24.4 0-24.4 0 1.1-1.1 2.6-1.9 4.2-2.2z" fill="#6c7678"/><path d="m56.1 51.3c1.2 0 2.2 1 2.2 2.2v8.8c0 1.2-1 2.2-2.2 2.2s-2.2-1-2.2-2.2v-8.8c-.1-1.1.9-2.2 2.2-2.2z" fill="#6c7678"/><path d="m69.5 30.5 42.6-10.1 11.5 43.1-42.6 10.7z" fill="#ffe356"/><path d="m82.1 73.9 63.1-15.6 22.7 90.3-62.9 11.9s-22.9-86.6-22.9-86.6z" fill="#fcd34e"/><path d="m108.3 67.4 11.4-2.8 8.3 31.4-2.7-1.8-.6 2.3-1.8-1.8-1.2 2.4-1.5-2-1.2 2.5-1.6-1.8-1.4 2.4z" fill="#eeb731"/><path d="m120.8 129.7 33.6-6.2 5.3 21.4-33.6 6.2z" fill="#fff"/><path d="m122.8 130.8.6-.1 4 17.7-.6.1zm20.4.7-.3.1 3 13.4.3-.1zm1.6-.3-1.3.3 3 13.4 1.3-.3zm1-.2-.6.1 3 13.4.7-.1zm1.4-.3-.4.1 3 13.4.4-.1zm4.3-.7.3-.1 3 13.4-.3.1zm-1.7.3 1.3-.3 3 13.4-1.3.3zm-1 .2.6-.1 3 13.4-.6.1zm-1.3.2.4-.1 3 13.4-.4.1zm-11.3-2.4.2-.1 4 17.7-.2.1zm1.9-.3 1.7-.3 4 17.7-1.7.3zm-.8.1.5-.1 4 17.7-.5.1zm-3.4.6 1.7-.3 4 17.7-1.7.3zm-.6.2.4-.1 4 17.7-.4.1zm-.9.2.5-.1 4 17.7-.5.1zm-1.3.2.9-.2 4 17.7-.9.2zm-2.2.4 1.7-.3 4 17.7-1.7.3zm-1 .2.4-.1 4 17.7-.4.1zm-1.9.4 1.5-.3 4 17.7-1.5.3zm-2.1.4.6-.1 4 17.7-.6.1z" fill="#c6cbd6"/><path d="m115.5 50.5-.8.8-1-1.1c-.3-.3-.5-.4-.7-.3-.4.1-.7.5-.9.8-.1.1-.1.3-.2.4.1.1.1.2.3.3.3.4.7.9 1.2 1.4l-.8.8 1.1-.4h.1l.1-.1 1-.3.3-1v-.1zm-6.1 7.5c-.4 0-.8 0-1-.2l1.6 1.8c.1.1.2.1.3.1h.1l2.7-.5-.3-1.8c-.2.1-.5.1-.7.1l-1.7.3c-.1 0-.2.1-.4.1h-.1c-.2.1-.4.1-.5.1zm-1.8-3 1.1.3-.5 1.5c-.1.4-.1.6.1.8.3.3.8.4 1.2.4.2 0 .3 0 .5-.1.1-.1.1-.3.1-.4.2-.4.4-1.1.6-1.7l1 .3-.9-.8-.1-.1-.1-.1-.8-.7-1 .3h-.1l-1.3.3zm9.3 1.7c.2.3.4.6.4 1l.8-2.3c0-.1 0-.1-.1-.2l-1.8-2.1-1.4 1.1c.1.1.3.3.4.5l1.2 1.3.3.3.1.1c0 .1.1.2.1.3zm-1.7 3.1-.3-1.1 1.5-.3c.4-.1.6-.3.6-.4.1-.4-.1-.8-.3-1.2-.1-.1-.2-.3-.3-.4-.1 0-.3 0-.4.1-.5.1-1.2.2-1.8.3l-.3-1-.3 1.1v.2l-.2 1 .7.7.1.1zm-3.2-9.3c.2-.3.4-.6.6-.8l-2.4.4c-.1.1-.1.1-.1.2v.1l-.9 2.6 1.7.6c.1-.2.1-.4.3-.6l.6-1.7c0-.1.1-.2.1-.3 0-.2 0-.3.1-.5z" fill="#6c7678"/><path d="m100.1 187.7c14.5.1 26.4-11.7 26.4-26.2s-11.9-26.3-26.4-26.2c-14.5-.1-26.3 11.7-26.4 26.2.1 14.5 11.9 26.3 26.4 26.2z" fill="#596366"/><path d="m100.1 177.6c9 0 16.2-7.2 16.2-16.1s-7.3-16.1-16.2-16.1-16.2 7.2-16.2 16.1 7.3 16.1 16.2 16.1z" fill="#ecf0f1"/><path d="m100.1 175.1c7.6 0 13.7-6.1 13.7-13.6s-6.1-13.6-13.7-13.6c-7.5 0-13.7 6.1-13.7 13.6s6.2 13.6 13.7 13.6z" fill="#c6cbd6"/><path d="m100.1 167.6c3.4 0 6.1-2.7 6.2-6.1 0-3.4-2.8-6.1-6.2-6.1s-6.1 2.7-6.1 6.1 2.7 6.1 6.1 6.1z" fill="#ecf0f1"/><path d="m99.8 163.1c.9 0 1.5-.7 1.5-1.5s-.7-1.5-1.5-1.5-1.5.7-1.5 1.5.7 1.5 1.5 1.5z" fill="#37414c"/><path d="m67.8 27.8 44.5-10.5 2.1 8.7-44.6 10.5z" fill="#fcd34e"/></svg>