<svg xmlns="http://www.w3.org/2000/svg" width="279" height="263" fill="none"><path fill="url(#paint0_linear)" fill-opacity=".2" d="M26 118.6c26-15.8 1.9-32.8-7.8-37.1-17.4-7.7-33-26.6 6.6-57.3 47-36.6 115.5-22.7 134.4-15.6 19.6 7.4 42.7 22 24.4 43.9-17.4 20.8-20.8 40 4.8 38.8 30.8-1.4 35.2 25.6 11.4 50.4-24.8 25.9-57 29-90.9 32.8-90 10.2-118.2-34.8-83-56z" transform="translate(0 110.5) rotate(-30)"/><mask id="a" width="220" height="203" x="26" y="36" mask-type="alpha" maskUnits="userSpaceOnUse"><path fill="#C4C4C4" d="M26 118.6c26-15.8 1.9-32.8-7.8-37.1-17.4-7.7-33-26.6 6.6-57.3 47-36.6 115.5-22.7 134.4-15.6 19.6 7.4 51.4 27 33 48.9-17.3 20.8-19.4 17.7 6.2 16.5 30.8-1.4 25.2 43 1.4 67.7-24.8 25.9-57 29-90.9 32.8-90 10.2-118.2-34.8-83-56z" transform="translate(0 110.5) rotate(-30)"/></mask><g mask="url(#a)"><path fill="#75BD80" d="M70 93h130.8c4 0 7.2 3.2 7.2 7v75c0 3.8-3.2 7-7.2 7H70c-4 0-7.1-3.2-7.1-7v-75c0-3.8 3.2-7 7.1-7z"/><path fill="#A4D73E" d="M68.4 92h132.3c3.5 0 6.4 2.9 6.4 6.3v76.3c0 3.5-2.9 6.4-6.4 6.4H68.4a6.4 6.4 0 0 1-6.4-6.4V98.3c0-3.4 2.9-6.3 6.4-6.3z"/><path fill="#717D83" d="M62 100.4h145.1V121H62v-20.5z"/><path fill="#fff" d="M73 130h123.1V141h-123V130z"/><path fill="#E6E8E9" d="M73 154h18.7v18.4H73V154z"/><path fill="#717D83" d="M101.8 154h93v2.7h-93V154zM101.8 162h93v2.7h-93V162zM101.8 170H155v2.6h-53.2V170z"/><path fill="#6C7678" d="M208 100.4h-.9V121h.9v-20.5z"/><path fill="#E6E8E9" d="M139.4 132h53.7v7h-53.7v-7z"/></g><defs><linearGradient id="paint0_linear" x2="1" gradientTransform="translate(0 -599.975) scale(215 1199.95)" gradientUnits="userSpaceOnUse"><stop stop-color="#EE7C2D"/><stop offset="1" stop-color="#24C4BC"/></linearGradient></defs></svg>