<svg width="48" height="44" viewBox="0 0 48 44" version="1.1" xmlns="http://www.w3.org/2000/svg" xmlns:xlink="http://www.w3.org/1999/xlink">
<title>icons8-calculator</title>
<desc>Created using Figma</desc>
<g id="Canvas" transform="translate(-1943 -4102)">
<g id="icons8-calculator">
<g id="Ellipse">
<use xlink:href="#path0_fill" transform="translate(1950 4105)" fill="#F0FFF7"/>
</g>
<g id="surface1">
<g id="Vector">
<use xlink:href="#path1_fill" transform="translate(1943 4102)"/>
</g>
</g>
</g>
</g>
<defs>
<path id="path0_fill" d="M 41 20.5C 41 31.8218 31.8218 41 20.5 41C 9.17816 41 0 31.8218 0 20.5C 0 9.17816 9.17816 0 20.5 0C 31.8218 0 41 9.17816 41 20.5Z"/>
<path id="path1_fill" d="M 4.32692 0C 3.10152 0 2.16346 0.936562 2.16346 2.16L 2.16346 7.92L 1.44231 7.92C 0.647912 7.92 0 8.56688 0 9.36L 0 15.12C 0 15.9131 0.647912 16.56 1.44231 16.56L 2.16346 16.56L 2.16346 33.84C 2.16346 35.0634 3.10152 36 4.32692 36L 33.1731 36C 34.3985 36 35.3365 35.0634 35.3365 33.84L 35.3365 16.56L 36.0577 16.56C 36.8521 16.56 37.5 15.9131 37.5 15.12L 37.5 9.36C 37.5 8.49656 36.8521 7.92 36.0577 7.92L 35.3365 7.92L 35.3365 2.16C 35.3365 0.936562 34.3985 0 33.1731 0L 4.32692 0ZM 4.32692 1.44L 33.1731 1.44C 33.6069 1.44 33.8942 1.72688 33.8942 2.16L 33.8942 11.52L 3.60577 11.52L 3.60577 2.16C 3.60577 1.72688 3.8931 1.44 4.32692 1.44ZM 20.1923 3.63656C 20.0655 3.63656 19.9388 3.67031 19.8317 3.74344L 18.3894 4.46344C 18.0288 4.60688 17.8852 5.04 18.0288 5.4C 18.1725 5.76 18.6063 5.90344 18.9669 5.76L 19.3275 5.54344L 19.3275 8.64C 19.3275 9.07312 19.6148 9.36 20.0486 9.36C 20.4825 9.36 20.7698 9.07312 20.7698 8.64L 20.7698 4.32C 20.9135 4.10344 20.7698 3.81656 20.5529 3.74344C 20.4458 3.67031 20.3191 3.63656 20.1923 3.63656ZM 29.5673 3.63656C 29.4405 3.63656 29.3138 3.67031 29.2067 3.74344L 27.7644 4.46344C 27.4038 4.60688 27.2602 5.04 27.4038 5.4C 27.5475 5.76 27.9813 5.90344 28.3419 5.76L 28.7025 5.54344L 28.7025 8.64C 28.7025 9.07312 28.9898 9.36 29.4236 9.36C 29.8575 9.36 30.1448 9.07312 30.1448 8.64L 30.1448 4.32C 30.2885 4.10344 30.1448 3.81656 29.9279 3.74344C 29.8208 3.67031 29.6941 3.63656 29.5673 3.63656ZM 24.5192 4.32C 24.0854 4.32 23.7981 4.60688 23.7981 5.04L 23.7981 5.76L 23.0769 5.76C 22.6431 5.76 22.3558 6.04688 22.3558 6.48C 22.3558 6.91313 22.6431 7.2 23.0769 7.2L 23.7981 7.2L 23.7981 7.92C 23.7981 8.35313 24.0854 8.64 24.5192 8.64C 24.953 8.64 25.2404 8.35313 25.2404 7.92L 25.2404 7.2L 25.9615 7.2C 26.3954 7.2 26.6827 6.91313 26.6827 6.48C 26.6827 6.04688 26.3954 5.76 25.9615 5.76L 25.2404 5.76L 25.2404 5.04C 25.2404 4.60688 24.953 4.32 24.5192 4.32ZM 1.44231 9.36L 2.16346 9.36L 2.16346 15.12L 1.44231 15.12L 1.44231 9.36ZM 35.3365 9.36L 36.0577 9.36L 36.0577 15.12L 35.3365 15.12L 35.3365 9.36ZM 3.60577 12.96L 33.8942 12.96L 33.8942 33.84C 33.8942 34.2731 33.6069 34.56 33.1731 34.56L 4.32692 34.56C 3.8931 34.56 3.60577 34.2731 3.60577 33.84L 3.60577 12.96ZM 7.93269 14.4C 7.49887 14.4 7.21154 14.6869 7.21154 15.12L 7.21154 16.56C 7.21154 16.9931 7.49887 17.28 7.93269 17.28C 8.36651 17.28 8.65384 16.9931 8.65384 16.56L 8.65384 15.12C 8.65384 14.6869 8.36651 14.4 7.93269 14.4ZM 11.5385 14.4C 11.1046 14.4 10.8173 14.6869 10.8173 15.12L 10.8173 16.56C 10.8173 16.9931 11.1046 17.28 11.5385 17.28C 11.9723 17.28 12.2596 16.9931 12.2596 16.56L 12.2596 15.12C 12.2596 14.6869 11.9723 14.4 11.5385 14.4ZM 15.1442 14.4C 14.7104 14.4 14.4231 14.6869 14.4231 15.12L 14.4231 16.56C 14.4231 16.9931 14.7104 17.28 15.1442 17.28C 15.578 17.28 15.8654 16.9931 15.8654 16.56L 15.8654 15.12C 15.8654 14.6869 15.578 14.4 15.1442 14.4ZM 18.75 14.4C 18.3162 14.4 18.0288 14.6869 18.0288 15.12L 18.0288 16.56C 18.0288 16.9931 18.3162 17.28 18.75 17.28C 19.1838 17.28 19.4712 16.9931 19.4712 16.56L 19.4712 15.12C 19.4712 14.6869 19.1838 14.4 18.75 14.4ZM 22.3558 14.4C 21.9219 14.4 21.6346 14.6869 21.6346 15.12L 21.6346 16.56C 21.6346 16.9931 21.9219 17.28 22.3558 17.28C 22.7896 17.28 23.0769 16.9931 23.0769 16.56L 23.0769 15.12C 23.0769 14.6869 22.7896 14.4 22.3558 14.4ZM 25.9615 14.4C 25.5277 14.4 25.2404 14.6869 25.2404 15.12L 25.2404 16.56C 25.2404 16.9931 25.5277 17.28 25.9615 17.28C 26.3954 17.28 26.6827 16.9931 26.6827 16.56L 26.6827 15.12C 26.6827 14.6869 26.3954 14.4 25.9615 14.4ZM 29.5673 14.4C 29.1335 14.4 28.8462 14.6869 28.8462 15.12L 28.8462 16.56C 28.8462 16.9931 29.1335 17.28 29.5673 17.28C 30.0011 17.28 30.2885 16.9931 30.2885 16.56L 30.2885 15.12C 30.2885 14.6869 30.0011 14.4 29.5673 14.4ZM 7.93269 18.72C 7.1383 18.72 6.49038 19.3669 6.49038 20.16L 6.49038 23.04C 6.49038 23.8331 7.1383 24.48 7.93269 24.48L 12.2596 24.48C 13.054 24.48 13.7019 23.8331 13.7019 23.04L 13.7019 20.16C 13.7019 19.3669 13.054 18.72 12.2596 18.72L 7.93269 18.72ZM 16.5865 18.72C 15.7921 18.72 15.1442 19.3669 15.1442 20.16L 15.1442 23.04C 15.1442 23.8331 15.7921 24.48 16.5865 24.48L 20.9135 24.48C 21.7079 24.48 22.3558 23.8331 22.3558 23.04L 22.3558 20.16C 22.3558 19.3669 21.7079 18.72 20.9135 18.72L 16.5865 18.72ZM 25.2404 18.72C 24.446 18.72 23.7981 19.3669 23.7981 20.16L 23.7981 30.24C 23.7981 31.0331 24.446 31.68 25.2404 31.68L 29.5673 31.68C 30.3617 31.68 31.0096 31.0331 31.0096 30.24L 31.0096 20.16C 31.0096 19.3669 30.3617 18.72 29.5673 18.72L 25.2404 18.72ZM 7.93269 20.16L 12.2596 20.16L 12.2596 23.04L 7.93269 23.04L 7.93269 20.16ZM 16.5865 20.16L 20.9135 20.16L 20.9135 23.04L 16.5865 23.04L 16.5865 20.16ZM 25.2404 20.16L 29.5673 20.16L 29.5673 30.24L 25.2404 30.24L 25.2404 20.16ZM 7.93269 25.92C 7.1383 25.92 6.49038 26.5669 6.49038 27.36L 6.49038 30.24C 6.49038 31.0331 7.1383 31.68 7.93269 31.68L 12.2596 31.68C 13.054 31.68 13.7019 31.0331 13.7019 30.24L 13.7019 27.36C 13.7019 26.5669 13.054 25.92 12.2596 25.92L 7.93269 25.92ZM 16.5865 25.92C 15.7921 25.92 15.1442 26.5669 15.1442 27.36L 15.1442 30.24C 15.1442 31.0331 15.7921 31.68 16.5865 31.68L 20.9135 31.68C 21.7079 31.68 22.3558 31.0331 22.3558 30.24L 22.3558 27.36C 22.3558 26.5669 21.7079 25.92 20.9135 25.92L 16.5865 25.92ZM 7.93269 27.36L 12.2596 27.36L 12.2596 30.24L 7.93269 30.24L 7.93269 27.36ZM 16.5865 27.36L 20.9135 27.36L 20.9135 30.24L 16.5865 30.24L 16.5865 27.36Z"/>
</defs>
</svg>
