<svg width="49" height="50" viewBox="0 0 49 50" version="1.1" xmlns="http://www.w3.org/2000/svg" xmlns:xlink="http://www.w3.org/1999/xlink">
<g id="Canvas" fill="none">
<g id="Group">
<g id="Group_2">
<g id="Vector">
<path d="M 44.9834 0L 22.4917 0C 20.2771 0 18.4752 1.80885 18.4752 4.03233L 18.4752 12.0968L 20.0818 12.0968L 20.0818 8.06449L 47.3931 8.06449L 47.3931 39.5161L 20.0818 39.5161L 20.0818 37.0966L 20.8851 37.0966L 28.9179 37.0966L 30.5244 37.0966L 30.5244 35.4837L 28.9179 35.4837L 28.9179 33.0643L 27.3113 33.0643L 27.3113 24.9998L 28.9179 24.9998L 28.9179 20.9675L 20.8851 20.9675L 20.8851 24.9998L 22.4917 24.9998L 22.4917 33.0643L 20.8851 33.0643L 20.8851 35.4837L 19.2786 35.4837L 19.2786 33.0643L 17.672 33.0643L 17.672 24.9998L 19.2786 24.9998L 19.2786 20.9675L 11.2458 20.9675L 11.2458 24.9998L 12.8524 24.9998L 12.8524 33.0643L 11.2458 33.0643L 11.2458 35.4837L 9.63929 35.4837L 9.63929 33.0643L 8.03274 33.0643L 8.03274 24.9998L 9.63929 24.9998L 9.63929 20.9675L 1.60655 20.9675L 1.60655 24.9998L 3.2131 24.9998L 3.2131 33.0643L 1.60655 33.0643L 1.60655 35.4837L -1.1113e-08 35.4837L -1.1113e-08 37.0966L 1.60655 37.0966L 9.63929 37.0966L 11.2458 37.0966L 18.4754 37.0966L 18.4754 45.9677C 18.4754 48.191 20.2771 50 22.4919 50L 44.9835 50C 47.1981 50 49 48.1911 49 45.9677L 49 4.03233C 48.9997 1.80885 47.1979 0 44.9834 0ZM 22.4917 22.5806L 27.3113 22.5806L 27.3113 23.3871L 22.4917 23.3871L 22.4917 22.5806ZM 24.0982 25L 25.7048 25L 25.7048 33.0645L 24.0982 33.0645L 24.0982 25ZM 22.4917 34.6774L 27.3113 34.6774L 27.3113 35.4839L 22.4917 35.4839L 22.4917 34.6774ZM 3.2131 22.5806L 8.03274 22.5806L 8.03274 23.3871L 3.2131 23.3871L 3.2131 22.5806ZM 4.81965 25L 6.4262 25L 6.4262 33.0645L 4.81965 33.0645L 4.81965 25ZM 3.2131 35.4837L 3.2131 34.6772L 8.03274 34.6772L 8.03274 35.4837L 3.2131 35.4837ZM 20.0818 6.45159L 20.0818 4.03233C 20.0818 2.69849 21.1629 1.6129 22.4917 1.6129L 44.9834 1.6129C 46.312 1.6129 47.3933 2.69831 47.3933 4.03233L 47.3933 6.45159L 20.0818 6.45159ZM 12.8524 22.5806L 17.672 22.5806L 17.672 23.3871L 12.8524 23.3871L 12.8524 22.5806ZM 14.4589 25L 16.0655 25L 16.0655 33.0645L 14.4589 33.0645L 14.4589 25ZM 12.8524 35.4837L 12.8524 34.6772L 17.672 34.6772L 17.672 35.4837L 12.8524 35.4837ZM 44.9834 48.3869L 22.4917 48.3869C 21.1631 48.3869 20.0818 47.3015 20.0818 45.9675L 20.0818 41.1288L 47.3931 41.1288L 47.3931 45.9675C 47.3931 47.3015 46.312 48.3869 44.9834 48.3869Z" fill="white"/>
</g>
<g id="Vector_2">
<path d="M 12.8524 -4.72529e-08L 1.17667e-07 7.25812L 25.7048 7.25812L 12.8524 -4.72529e-08ZM 12.8524 6.45159C 11.5214 6.45159 10.4425 5.36858 10.4425 4.03216C 10.4425 2.69573 11.5212 1.61273 12.8524 1.61273C 14.1836 1.61273 15.2623 2.6959 15.2623 4.03216C 15.2623 5.36841 14.1834 6.45159 12.8524 6.45159Z" transform="translate(2.40979 8.87097)" fill="#009EE3"/>
</g>
<g id="Vector_3">
<path d="M 27.3113 0L 13.6556 0L 7.06003e-08 0L 7.06003e-08 4.03233L 27.3113 4.03233L 27.3113 0ZM 25.7048 2.41943L 1.60655 2.41943L 1.60655 1.6129L 25.7048 1.6129L 25.7048 2.41943Z" transform="translate(1.60651 16.129)" fill="white"/>
</g>
<g id="Vector_4">
<path d="M 6.4262 0L 0 0L 0 1.6129L 6.4262 1.6129L 6.4262 0Z" transform="translate(32.9344 3.22583)" fill="white"/>
</g>
<g id="Vector_5">
<path d="M 1.60655 0L 0 0L 0 1.6129L 1.60655 1.6129L 1.60655 0Z" transform="translate(28.1147 3.22583)" fill="white"/>
</g>
<g id="Vector_6">
<path d="M 2.81142 0C 1.26108 0 -6.0664e-07 1.26606 -6.0664e-07 2.82253C -6.0664e-07 4.379 1.26108 5.64506 2.81142 5.64506C 4.36176 5.64506 5.62283 4.379 5.62283 2.82253C 5.62283 1.26606 4.36193 0 2.81142 0ZM 2.81142 4.03233C 2.14704 4.03233 1.60655 3.48954 1.60655 2.8227C 1.60655 2.15587 2.14721 1.61307 2.81142 1.61307C 3.47563 1.61307 4.01629 2.15587 4.01629 2.8227C 4.01629 3.48954 3.47563 4.03233 2.81142 4.03233Z" transform="translate(30.9261 41.9353)" fill="white"/>
</g>
<g id="Vector_7">
<path d="M 6.4262 3.2258C 6.4262 1.4467 4.98519 0 3.2131 0C 1.44101 0 -2.09186e-07 1.4467 -2.09186e-07 3.2258C -2.09186e-07 5.00489 1.44101 6.45159 3.2131 6.45159C 4.98519 6.45159 6.4262 5.00489 6.4262 3.2258ZM 3.2131 4.83869C 2.32714 4.83869 1.60655 4.11525 1.60655 3.2258C 1.60655 2.33634 2.32714 1.6129 3.2131 1.6129C 4.09906 1.6129 4.81965 2.33634 4.81965 3.2258C 4.81965 4.11525 4.09923 4.83869 3.2131 4.83869Z" transform="translate(12.0491 9.67737)" fill="white"/>
</g>
</g>
</g>
</g>
</svg>

