<svg fill="none" height="241" width="264" xmlns="http://www.w3.org/2000/svg" xmlns:xlink="http://www.w3.org/1999/xlink"><linearGradient id="a" gradientUnits="userSpaceOnUse" x1="176.5" x2="254.55" y1="56.5" y2="208.04"><stop offset="0" stop-color="#e6e8e9"/><stop offset="1" stop-color="#f5f5f6"/></linearGradient><linearGradient id="b" gradientUnits="userSpaceOnUse" x1="84" x2="102.22" y1="192" y2="82.02"><stop offset="0" stop-color="#9cecb7"/><stop offset="1" stop-color="#3cd2cb"/></linearGradient><path d="m83.85 235.19c-35.77-6.53-77.83-19.56-83.16-69.7-5.33-50.13 22.03-41.95 20.61-78.93s32.34-65.53 72.5-59.62c33.05 4.86 26.5 36.7 66.8 25.13 53.31-15.29 85.65 38.76 74.06 63.3-9.49 20.06-22.52 27.01-10.8 54.04 11.73 27.02-9.59 89.6-140.01 65.78z" fill="url(#a)" opacity=".4"/><path d="m191.66 185.76s13.8 5.7 22.96 3.04c9.17-2.65.48-11.21-9.91-11.87-24.47-1.54-13.05 8.83-13.05 8.83z" fill="#2cbdca"/><path d="m201.1 12.75-19.25 67.03 9.81 2.81c5.76 1.66 11.84.48 17.34-2.86 2-1.21 3.91-2.71 5.7-4.46a34.76 34.76 0 0 0 3.18-3.48 41.08 41.08 0 0 0 3.49-5.09 45.18 45.18 0 0 0 5.21-13.41c.43-1.97.74-3.91.92-5.83.14-1.47.2-2.92.17-4.34.01-2.15-.17-4.23-.51-6.24a33.42 33.42 0 0 0 -4.16-11.67c-2.88-4.73-7-8.19-12.09-9.64l-9.8-2.82z" fill="#e8c113"/><path d="m166.91 39.23a44.2 44.2 0 0 0 -.78 3.18c-3.75 17.36 2.93 33.7 15.72 37.37 4.26 1.22 8.7.9 12.93-.71 9.25-3.48 17.62-13.05 21.26-25.75 5.33-18.52-1.37-36.67-14.94-40.57-13.56-3.89-28.86 7.96-34.19 26.48z" fill="#efd04e"/><path d="m216.26 29.36 9.77 2.8.01-.06a30.07 30.07 0 0 0 -3.04-6.9l-9.82-2.8c1.28 2.09 2.31 4.43 3.08 6.96zm1.61 10.94 9.8 2.82c0-2.14-.17-4.23-.51-6.24l-9.81-2.81c.32 2 .5 4.1.52 6.24zm-18.7 36.6 9.83 2.83c2-1.21 3.91-2.7 5.7-4.46l-9.8-2.81a32.2 32.2 0 0 1 -5.73 4.45zm17.59-26.42 9.81 2.8c.44-1.96.75-3.9.93-5.82l-9.82-2.81a46.32 46.32 0 0 1 -.92 5.83zm-8.71 18.49 9.83 2.82a41.14 41.14 0 0 0 3.48-5.09l-9.81-2.82a41.62 41.62 0 0 1 -3.5 5.1zm5.49-8.91 9.81 2.82c.81-1.73 1.52-3.57 2.13-5.48l-9.83-2.82c-.6 1.9-1.3 3.74-2.1 5.48zm-12.54-31.6-7-1.17c-1-.17-1.98.43-2.29 1.4l-4.87 15.55-3.2-.29a2.04 2.04 0 1 0 -.36 4.06l2.32.2-1.09 3.46-3.3-.18a2.04 2.04 0 0 0 -.23 4.07l2.28.12-1.82 5.8a2.04 2.04 0 0 0 3.9 1.21l2.12-6.77 9.7.54h.11a2.04 2.04 0 0 0 .12-4.07l-8.68-.48 1.04-3.33 4.26.38c6.8.64 11.86-5.44 12.65-11.45.63-4.82-1.59-8.37-5.66-9.05zm1.62 8.52c-.47 3.6-3.6 8.36-8.24 7.92l-3.38-.3 4.07-13 5.26.88c2.54.42 2.45 3.29 2.29 4.5z" fill="#d2aa0f"/><path d="m60.74 185.76h137.6a6.37 6.37 0 0 0 6.37-6.36v-86h-150.35v86a6.37 6.37 0 0 0 6.38 6.36z" fill="url(#b)"/><path d="m68.17 174.16h122.73c1.33 0 2.4-1.07 2.4-2.4v-62.36a2.39 2.39 0 0 0 -2.4-2.39h-122.73a2.39 2.39 0 0 0 -2.39 2.4v62.37a2.39 2.39 0 0 0 2.4 2.39z" fill="#fff"/><path d="m94.76 133.41h-16.93a1.6 1.6 0 0 1 -1.6-1.59v-11.34c0-.89.71-1.6 1.6-1.6h16.93c.88 0 1.6.72 1.6 1.6v11.34c0 .88-.72 1.6-1.6 1.6zm30.08 0h-16.93a1.6 1.6 0 0 1 -1.6-1.59v-11.34c0-.89.72-1.6 1.6-1.6h16.93c.88 0 1.6.72 1.6 1.6v11.34c0 .88-.72 1.6-1.6 1.6zm30.08 0h-16.92a1.6 1.6 0 0 1 -1.6-1.59v-11.34c0-.89.72-1.6 1.6-1.6h16.93c.88 0 1.6.72 1.6 1.6v11.34c0 .88-.72 1.6-1.6 1.6zm-60.16 25.49h-16.93a1.6 1.6 0 0 1 -1.6-1.6v-11.34c0-.89.71-1.6 1.6-1.6h16.93c.88 0 1.6.71 1.6 1.6v11.34c0 .88-.72 1.6-1.6 1.6zm30.08 0h-16.93a1.6 1.6 0 0 1 -1.6-1.6v-11.34c0-.89.72-1.6 1.6-1.6h16.93c.88 0 1.6.71 1.6 1.6v11.34c0 .88-.72 1.6-1.6 1.6zm30.08 0h-16.92a1.6 1.6 0 0 1 -1.6-1.6v-11.34c0-.89.72-1.6 1.6-1.6h16.93c.88 0 1.6.71 1.6 1.6v11.34c0 .88-.72 1.6-1.6 1.6z" fill="#a3f2ef"/><path d="m172.53 132.73-7.98-8.02a.98.98 0 0 1 0-1.39l4.2-4.17a.99.99 0 0 1 1.4 0l2.54 2.56c.38.38.99.38 1.38.02l9.6-9.13a.99.99 0 0 1 1.4.04l4.07 4.29a.98.98 0 0 1 -.03 1.39l-15.2 14.43a.99.99 0 0 1 -1.38-.02zm25.8-79.87h-137.6a6.37 6.37 0 0 0 -6.37 6.37v38.4h150.35v-38.4a6.37 6.37 0 0 0 -6.38-6.37zm-111.43 27.3a8.07 8.07 0 1 1 0-16.13 8.07 8.07 0 0 1 0 16.13zm85.29 0a8.06 8.06 0 1 1 -.01-16.13 8.06 8.06 0 0 1 0 16.13z" fill="#24c4bc"/><path d="m91.08 72.9h-8.38a1.88 1.88 0 0 1 -1.88-1.9v-32.05c0-1.04.84-1.88 1.88-1.88h8.38c1.04 0 1.89.84 1.89 1.88v32.05c0 1.04-.85 1.89-1.89 1.89zm85.32 0h-8.38a1.88 1.88 0 0 1 -1.89-1.89v-32.06c0-1.04.85-1.88 1.89-1.88h8.38c1.04 0 1.88.84 1.88 1.88v32.05c0 1.04-.84 1.89-1.88 1.89z" fill="#059b91"/><path d="m204.7 97.62h-150.33v4.94h150.35v-4.94z" fill="#243036" fill-opacity=".12"/><path d="m204.7 92.68h-150.33v4.94h150.35v-4.94z" fill="#059b91"/><path d="m204.7 179.4v-60.05c-7.64 4.56-28.77 49.07-26.2 61.09 1.19 5.56 7.04 4.51 13.16 5.32h6.67a6.37 6.37 0 0 0 6.38-6.37z" fill="#243036" fill-opacity=".24" opacity=".4"/><path d="m224.93 118.02v71.83h-10.51c-6.18 0-11.86-2.9-16.35-7.76a32.38 32.38 0 0 1 -4.39-6.03 36.1 36.1 0 0 1 -2.15-4.35c-.8-1.9-1.47-3.92-2-6.03a46.43 46.43 0 0 1 -1.43-10.38c-.02-.45-.02-.9-.02-1.36a48.92 48.92 0 0 1 .84-9.05c.28-1.5.63-2.95 1.07-4.35.6-2.12 1.37-4.14 2.28-6.03a34.65 34.65 0 0 1 7.43-10.38c4.2-3.86 9.27-6.11 14.72-6.11z" fill="#e8c113"/><path d="m251.25 153.94c0 1.14-.04 2.25-.12 3.37-1.24 18.26-12.5 32.54-26.2 32.54a20.9 20.9 0 0 1 -12.6-4.38c-8.18-6.07-13.73-17.92-13.73-31.53 0-19.85 11.78-35.92 26.33-35.92 14.53 0 26.32 16.07 26.32 35.92z" fill="#efd04e"/><path d="m202.78 134.51h-10.51a37.37 37.37 0 0 0 -2.28 6.03h10.5a41.9 41.9 0 0 1 2.3-6.03zm7.45-10.38h-10.53a31.08 31.08 0 0 0 -4.97 5.96v.07h10.47a31.28 31.28 0 0 1 5.03-6.03zm-10.79 20.77h-10.52a48.95 48.95 0 0 0 -.74 6.02h10.52c.12-2.06.37-4.08.74-6.03zm4.76 31.16h-10.52a32.39 32.39 0 0 0 4.38 6.03h10.54a33.14 33.14 0 0 1 -4.4-6.03zm-4.16-10.38h-10.51c.53 2.11 1.2 4.13 2 6.03h10.53c-.8-1.91-1.48-3.92-2.02-6.03zm-1.41-10.38h-10.53c.05 2.07.24 4.08.54 6.03h10.52c-.3-1.96-.47-3.97-.53-6.03zm33.98 1.69-8.67 2.2v-3.6l4.3-.94c6.88-1.46 9.98-9 8.9-15.16-.87-4.92-4.15-7.73-8.36-7.14l-7.25 1a2.1 2.1 0 0 0 -1.8 2.08v16.79l-3.24.7a2.1 2.1 0 1 0 .9 4.1l2.35-.5v3.72l-3.31.84a2.1 2.1 0 1 0 1.03 4.07l2.28-.58v6.25a2.1 2.1 0 0 0 4.2 0v-7.31l9.7-2.46a2.1 2.1 0 1 0 -1.03-4.06zm-3.25-20.49c2.63-.36 3.42 2.48 3.64 3.72.65 3.69-.95 9.33-5.66 10.33l-3.4.75-.02-14.04 5.44-.75z" fill="#d2aa0f"/><path d="m31.05 33.08 23.3 57.58-8.42 3.4c-4.95 2-10.44 1.53-15.63-.92a27.98 27.98 0 0 1 -5.46-3.41 31.04 31.04 0 0 1 -3.14-2.8 36.69 36.69 0 0 1 -3.56-4.17 40.23 40.23 0 0 1 -5.87-11.4c-.57-1.7-1.02-3.4-1.36-5.07a33.4 33.4 0 0 1 -.56-3.83c-.2-1.9-.25-3.77-.13-5.57a29.85 29.85 0 0 1 2.59-10.73c2.11-4.46 5.44-7.9 9.81-9.67l8.43-3.4z" fill="#e8c113"/><path d="m63.8 53.35c.37.9.7 1.82 1 2.74 4.93 15.03.54 30.13-10.44 34.57a18.07 18.07 0 0 1 -11.52.57c-8.54-2.22-16.84-9.91-21.24-20.82-6.44-15.91-2.21-32.61 9.45-37.33 11.64-4.7 26.3 4.36 32.75 20.27z" fill="#efd04e"/><path d="m33.26 86.32-8.42 3.4a28 28 0 0 0 5.46 3.42l8.45-3.41a28.68 28.68 0 0 1 -5.49-3.4zm-13.92-23.44-8.43 3.4c.34 1.69.79 3.38 1.36 5.08l8.43-3.4c-.57-1.7-1.03-3.4-1.36-5.08zm-.17-13.68a27.01 27.01 0 0 1 2.08-6.45l-8.44 3.4a26.83 26.83 0 0 0 -2.05 6.4l.02.05 8.4-3.4zm-.52 4.28-8.43 3.4c-.12 1.81-.08 3.68.13 5.58l8.42-3.4c-.18-1.9-.22-3.77-.12-5.58zm3.42 18.01-8.45 3.4c.72 1.65 1.52 3.2 2.4 4.66l8.42-3.4a42.14 42.14 0 0 1 -2.37-4.66zm4.5 7.86-8.43 3.4a36.47 36.47 0 0 0 3.56 4.19l8.44-3.41a37 37 0 0 1 -3.57-4.18zm25.82-17.13c-.6-.8-1.73-.99-2.54-.4l-6.25 4.58-1.17-2.88 3.14-2.14c5.05-3.4 5.08-10.46 2.22-15.03-2.3-3.67-5.83-4.86-9.02-3.03l-5.48 3.16a1.81 1.81 0 0 0 -.78 2.25l5.46 13.45-2.37 1.62a1.81 1.81 0 1 0 2.05 3l1.71-1.18 1.22 3-2.39 1.74a1.81 1.81 0 1 0 2.15 2.92l1.64-1.2 2.03 5.01a1.82 1.82 0 0 0 3.37-1.36l-2.38-5.86 7-5.11c.81-.6.99-1.73.4-2.54zm-15.9-13.39 4.1-2.36c2-1.15 3.55.88 4.13 1.8 1.72 2.74 2.26 7.78-1.18 10.1l-2.5 1.71-4.56-11.25z" fill="#d2aa0f"/></svg>