<svg width="60" height="70" viewBox="0 0 60 70" version="1.1" xmlns="http://www.w3.org/2000/svg" xmlns:xlink="http://www.w3.org/1999/xlink">
<title>Vector</title>
<desc>Created using Figma</desc>
<g id="Canvas" transform="translate(-17046 652)">
<g id="Vector">
<use xlink:href="#path0_fill" transform="translate(17046 -652)" fill="#9DA6AA"/>
</g>
</g>
<defs>
<path id="path0_fill" d="M 3.75 0C 1.68457 0 0 1.68457 0 3.75C 0 5.81543 1.68457 7.5 3.75 7.5L 7.78809 7.5L 10.7178 18.5986C 11.9775 23.3887 15.0146 27.4121 19.2725 29.9414L 21.8896 31.4941C 22.2656 31.7188 22.5 32.1338 22.5 32.5732L 22.5 37.3633C 22.5 37.7979 22.2803 38.1934 21.9141 38.4229L 18.9453 40.2783C 15.459 42.4609 12.8271 45.6836 11.377 49.4824C 11.3623 49.5166 11.3428 49.5508 11.3281 49.5898C 11.1133 50.1611 10.9229 50.752 10.7617 51.3477L 7.79297 62.5L 3.75 62.5C 1.68457 62.5 0 64.1846 0 66.25C 0 68.3154 1.68457 70 3.75 70L 56.25 70C 58.3154 70 60 68.3154 60 66.25C 60 64.1846 58.3154 62.5 56.25 62.5L 52.2119 62.5L 49.2529 51.333C 48.0127 46.665 45.0635 42.7002 40.9473 40.1709L 38.0957 38.418C 37.7295 38.1885 37.5 37.7832 37.5 37.3535L 37.5 32.7686C 37.5 32.3291 37.7295 31.9189 38.1055 31.6943L 40.8203 30.0586C 45.0146 27.5195 48.0176 23.5107 49.2578 18.7646L 52.2119 7.5L 56.25 7.5C 58.3154 7.5 60 5.81543 60 3.75C 60 1.68457 58.3154 0 56.25 0L 3.75 0ZM 3.75 2.5L 56.25 2.5C 56.9385 2.5 57.5 3.06152 57.5 3.75C 57.5 4.43848 56.9385 5 56.25 5L 3.75 5C 3.06152 5 2.5 4.43848 2.5 3.75C 2.5 3.06152 3.06152 2.5 3.75 2.5ZM 10.3711 7.5L 49.6289 7.5L 46.8408 18.125C 45.7666 22.2412 43.1641 25.7129 39.5264 27.9102L 36.8115 29.5508C 35.6934 30.2295 35 31.46 35 32.7637L 35 37.3486C 35 38.6426 35.6836 39.8682 36.7871 40.5469L 39.6387 42.2998C 41.8018 43.6279 43.584 45.4199 44.9023 47.5244L 40.3369 45.5713C 33.7695 42.7539 26.2354 42.7539 19.6631 45.5713L 15.1514 47.5049C 16.4404 45.459 18.1738 43.7109 20.2686 42.4023L 23.2373 40.5469C 24.3408 39.8535 25 38.6621 25 37.3633L 25 32.5684C 25 31.25 24.2969 30.0146 23.1641 29.3408L 20.5469 27.793C 16.8604 25.6006 14.2236 22.1094 13.1299 17.9639L 11.6943 12.5L 33.75 12.5C 34.4385 12.5 35 11.9385 35 11.25C 35 10.5615 34.4385 10 33.75 10L 11.25 10C 11.1768 10 11.1133 10.0293 11.04 10.0391L 10.3711 7.5ZM 38.75 10C 38.0615 10 37.5 10.5615 37.5 11.25C 37.5 11.9385 38.0615 12.5 38.75 12.5L 43.75 12.5C 44.4385 12.5 45 11.9385 45 11.25C 45 10.5615 44.4385 10 43.75 10L 38.75 10ZM 30 45.957C 33.1934 45.957 36.3818 46.5967 39.3555 47.8711L 46.5039 50.9326C 46.6211 51.2793 46.7432 51.6211 46.8359 51.9775L 47.7734 55.5078C 47.6123 55.7178 47.5 55.9668 47.5 56.25L 47.5 58.75C 47.5 59.4385 48.0615 60 48.75 60C 48.8232 60 48.8818 59.9707 48.9502 59.9609L 49.624 62.5L 10.376 62.5L 11.0547 59.9609C 11.123 59.9707 11.1816 60 11.25 60C 11.9385 60 12.5 59.4385 12.5 58.75L 12.5 56.25C 12.5 55.9717 12.3926 55.7275 12.2412 55.5225L 13.1787 51.9922C 13.2764 51.6309 13.3984 51.2744 13.5156 50.9229L 20.6445 47.8711C 23.6182 46.5967 26.8066 45.957 30 45.957ZM 17.5 55C 16.8115 55 16.25 55.5615 16.25 56.25L 16.25 58.75C 16.25 59.4385 16.8115 60 17.5 60C 18.1885 60 18.75 59.4385 18.75 58.75L 18.75 56.25C 18.75 55.5615 18.1885 55 17.5 55ZM 23.75 55C 23.0615 55 22.5 55.5615 22.5 56.25L 22.5 58.75C 22.5 59.4385 23.0615 60 23.75 60C 24.4385 60 25 59.4385 25 58.75L 25 56.25C 25 55.5615 24.4385 55 23.75 55ZM 30 55C 29.3115 55 28.75 55.5615 28.75 56.25L 28.75 58.75C 28.75 59.4385 29.3115 60 30 60C 30.6885 60 31.25 59.4385 31.25 58.75L 31.25 56.25C 31.25 55.5615 30.6885 55 30 55ZM 36.25 55C 35.5615 55 35 55.5615 35 56.25L 35 58.75C 35 59.4385 35.5615 60 36.25 60C 36.9385 60 37.5 59.4385 37.5 58.75L 37.5 56.25C 37.5 55.5615 36.9385 55 36.25 55ZM 42.5 55C 41.8115 55 41.25 55.5615 41.25 56.25L 41.25 58.75C 41.25 59.4385 41.8115 60 42.5 60C 43.1885 60 43.75 59.4385 43.75 58.75L 43.75 56.25C 43.75 55.5615 43.1885 55 42.5 55ZM 3.75 65L 56.25 65C 56.9385 65 57.5 65.5615 57.5 66.25C 57.5 66.9385 56.9385 67.5 56.25 67.5L 3.75 67.5C 3.06152 67.5 2.5 66.9385 2.5 66.25C 2.5 65.5615 3.06152 65 3.75 65Z"/>
</defs>
</svg>
