<svg version="1.1" id="Layer_1" xmlns="http://www.w3.org/2000/svg" xmlns:xlink="http://www.w3.org/1999/xlink" x="0" y="0" viewBox="0 0 60 24" xml:space="preserve" enable-background="new 0 0 60 24"><style type="text/css">.st0{fill:#717d83}</style><path class="st0" d="M11.2,3.1c0.7-0.8,1.1-2,1-3.1c-1,0-2.2,0.6-2.9,1.5c-0.6,0.7-1.2,1.9-1,3C9.3,4.5,10.5,3.9,11.2,3.1z M13.6,10.3c0-2.3,1.8-3.5,2.1-3.7l0,0c-1.2-1.7-3-1.9-3.6-1.9c-1-0.1-1.9,0.3-2.6,0.6C9.1,5.4,8.7,5.6,8.4,5.6	c-0.3,0-0.7-0.2-1.2-0.3C6.6,5,5.9,4.7,5.2,4.7c-1.7,0-3.2,0.9-4,2.4c-1.7,2.9-0.5,7.3,1.2,9.7c0.8,1.2,1.8,2.5,3.1,2.4	c0.6,0,1-0.2,1.4-0.4c0.5-0.2,1-0.4,1.8-0.4c0.8,0,1.3,0.2,1.7,0.4c0.4,0.2,0.9,0.4,1.5,0.4c1.3,0,2.2-1.2,3-2.4	c0.9-1.3,1.3-2.5,1.3-2.7l0,0c0,0,0,0,0,0C15.9,14,13.7,13,13.6,10.3z M28.3,1.4h-6.8v17.8h2.8v-6.1h3.9c3.6,0,6-2.4,6-5.9	S31.8,1.4,28.3,1.4z M27.5,10.8h-3.2V3.7h3.2c2.4,0,3.8,1.3,3.8,3.5S30,10.8,27.5,10.8z M40.8,6.1c-3,0-5.2,1.7-5.3,4h2.5	c0.2-1.1,1.2-1.8,2.7-1.8c1.7,0,2.7,0.8,2.7,2.2v1l-3.5,0.2c-3.3,0.2-5,1.5-5,3.8c0,2.3,1.8,3.8,4.4,3.8c1.8,0,3.4-0.9,4.1-2.3h0.1	v2.1h2.6v-8.9C46.1,7.7,44.1,6.1,40.8,6.1z M43.4,14.3c0,1.7-1.4,2.9-3.3,2.9c-1.5,0-2.4-0.7-2.4-1.8c0-1.1,0.9-1.8,2.7-1.9l3.1-0.2	V14.3z M56.8,6.2l-3.3,10.5h-0.1L50.2,6.2h-2.9l4.8,13L51.7,20c-0.4,1.3-1.1,1.8-2.4,1.8c-0.2,0-0.6,0-0.8,0v2.1	c0.2,0,0.9,0.1,1.1,0.1c2.7,0,4-1,5.2-4.1l4.9-13.6H56.8z"/></svg>