<svg xmlns="http://www.w3.org/2000/svg" xmlns:xlink="http://www.w3.org/1999/xlink" width="70" height="57"><use fill="#717D83" xlink:href="#path0_fill"/><defs><path id="path0_fill" d="M3.28 0A3.29 3.29 0 0 0 0 3.28v39.38a3.29 3.29 0 0 0 3.28 3.28h38.7A14.23 14.23 0 0 0 70 42.47c.01-5.02-2.6-9.45-6.55-11.96V3.28c0-1.8-1.47-3.28-3.28-3.28H3.28zm0 2.19h56.88c.6 0 1.09.49 1.09 1.1V4.6L33 25.07c-.76.56-1.8.55-2.56 0L2.19 4.6V3.28c0-.6.49-1.1 1.1-1.1zM2.18 7.3l26.97 19.53a4.38 4.38 0 0 0 5.14 0L61.25 7.3v22.03a14.21 14.21 0 0 0-8.97-.65l-9.11-5.56A1.1 1.1 0 0 0 42.03 25l7.61 4.64a14.25 14.25 0 0 0-8.01 14.11H3.28c-.6 0-1.1-.5-1.1-1.1v-5.94L21.42 25a1.1 1.1 0 1 0-1.14-1.87L2.19 34.15V7.31zm53.6 23.13a11.94 11.94 0 0 1 7.66 2.74 12.03 12.03 0 1 1-8.27-2.73l.61-.01zm2.19 5.47a1.1 1.1 0 0 0-.77 1.87l3.6 3.6h-3.92a7.67 7.67 0 0 0-7.66 7.65 1.1 1.1 0 1 0 2.19 0 5.48 5.48 0 0 1 5.47-5.47h3.92l-3.6 3.6a1.1 1.1 0 1 0 1.55 1.55l5.47-5.47a1.1 1.1 0 0 0 0-1.55l-5.47-5.46a1.1 1.1 0 0 0-.78-.32zm-53.6 1.28c-.6 0-1.08.49-1.08 1.1v2.18a1.1 1.1 0 0 0 2.19 0v-2.19c0-.6-.5-1.1-1.1-1.1zm5.48 0c-.6 0-1.1.49-1.1 1.1v2.18a1.09 1.09 0 1 0 2.19 0v-2.19c0-.6-.49-1.1-1.1-1.1zm5.46 0c-.6 0-1.1.49-1.1 1.1v2.18a1.1 1.1 0 1 0 2.2 0v-2.19c0-.6-.5-1.1-1.1-1.1zm5.47 0c-.6 0-1.1.49-1.1 1.1v2.18a1.1 1.1 0 1 0 2.2 0v-2.19c0-.6-.5-1.1-1.1-1.1zm5.47 0c-.6 0-1.1.49-1.1 1.1v2.18a1.1 1.1 0 1 0 2.2 0v-2.19c0-.6-.5-1.1-1.1-1.1zm5.47 0c-.6 0-1.1.49-1.1 1.1v2.18a1.1 1.1 0 1 0 2.2 0v-2.19c0-.6-.5-1.1-1.1-1.1zm5.47 0c-.6 0-1.1.49-1.1 1.1v2.18a1.1 1.1 0 1 0 2.2 0v-2.19c0-.6-.5-1.1-1.1-1.1z"/></defs></svg>