<svg fill="none" height="60" viewBox="0 0 60 60" width="60" xmlns="http://www.w3.org/2000/svg"><path d="m60 32.9031h-7.7419v-8.7029l-15.2885-.1026-6.0018-2.4861v-3.2245h-1.9356v3.2245l-6.0018 2.4861-15.28851.1026v8.7029h-7.74189v11.6128h17.4193v-11.6128h-7.74189v-6.781l13.34709-.089 6.0077 2.6612v4.2088h-7.7419v11.6128h17.4193v-11.6128h-7.7418v-4.2088l6.0077-2.6612 13.3471.089v6.781h-7.7419v11.6128h7.7419v2.9033h-21.2904v4.8388h-3.8708c-2.1349 0-3.8711 1.7361-3.8711 3.871s1.7362 3.871 3.8711 3.871h9.6774c2.1349 0 3.8711-1.7361 3.8711-3.871s-1.7362-3.871-3.8711-3.871h-3.871v-2.9033h21.2903v-4.8388h7.7419zm-44.5162 9.6773h-13.54828v-7.7418h13.54828zm21.2903 0h-13.5484v-7.7418h13.5484zm-6.7741-15.5747-4.3171-1.9123 4.3171-1.7874 4.3171 1.7884zm6.7741 29.1229c0 1.0673-.868 1.9355-1.9355 1.9355h-9.6772c-1.0673 0-1.9355-.868-1.9355-1.9355 0-1.0673.8679-1.9355 1.9355-1.9355h9.6774c1.0673.0002 1.9353.8682 1.9353 1.9355zm21.2904-13.5482h-13.5485v-7.7418h13.5485z" fill="#003a69"/><path d="m34.839 19.3547h-9.6774v-5.574c-1.827-1.4671-2.9033-3.6871-2.9033-6.03866 0-4.26893 3.4731-7.74204 7.7419-7.74204 4.2687 0 7.7419 3.47311 7.7419 7.74184 0 2.35256-1.0761 4.57256-2.9033 6.03866z" fill="#41cfc8"/><g fill="#003a69"><path d="m35.8065 14.5162h-4.8388v-4.0491c1.1236-.4005 1.9355-1.46522 1.9355-2.72521 0-1.6006-1.3027-2.90327-2.9033-2.90327s-2.9033 1.30267-2.9033 2.90327c0 1.25999.8119 2.32451 1.9356 2.72521v4.0491h-4.8388v1.9355h11.6129zm-5.8064-7.74207c.5333 0 .9678.4345.9678.96776s-.4345.96775-.9678.96775c-.5332 0-.9677-.43449-.9677-.96775s.4345-.96776.9677-.96776z"/><path d="m19.3544 6.77417h-4.8388v1.93551h4.8388z"/><path d="m19.793 10.9211-4.4698 1.8521.741 1.788 4.4697-1.8521z"/><path d="m40.2051 10.9208-.7407 1.7882 4.4707 1.8519.7407-1.7883z"/><path d="m45.4838 6.77417h-4.8388v1.93551h4.8388z"/><path d="m43.9331.923019-4.4697 1.852131.7409 1.78802 4.4697-1.85213z"/><path d="m16.0654.921744-.7407 1.788216 4.4708 1.85188.7407-1.78822z"/></g></svg>