<svg fill="none" height="50" viewBox="0 0 50 50" width="50" xmlns="http://www.w3.org/2000/svg"><path d="m50 8.06452h-50v-8.06452h50zm-48.3871-1.61291h46.7742v-4.83871h-46.7742z" fill="#003a69"/><path d="m4.83898 3.22583h-1.61291v1.6129h1.61291z" fill="#003a69"/><path d="m8.06407 3.22583h-1.6129v1.6129h1.6129z" fill="#003a69"/><path d="m11.2901 3.22583h-1.61285v1.6129h1.61285z" fill="#003a69"/><path d="m24.9999 16.9354c1.3362 0 2.4194-1.0832 2.4194-2.4194 0-1.3361-1.0832-2.4193-2.4194-2.4193s-2.4193 1.0832-2.4193 2.4193c0 1.3362 1.0831 2.4194 2.4193 2.4194z" fill="#41cfc8"/><path d="m25.0001 42.7419c.8908 0 1.6129-.7221 1.6129-1.6129s-.7221-1.6129-1.6129-1.6129-1.6129.7221-1.6129 1.6129.7221 1.6129 1.6129 1.6129z" fill="#41cfc8"/><path d="m36.1744 23.3869c.8908 0 1.6129-.7221 1.6129-1.6129 0-.8907-.7221-1.6129-1.6129-1.6129s-1.6129.7222-1.6129 1.6129c0 .8908.7221 1.6129 1.6129 1.6129z" fill="#41cfc8"/><path d="m13.8229 23.3869c.8907 0 1.6129-.7221 1.6129-1.6129 0-.8907-.7222-1.6129-1.6129-1.6129-.8908 0-1.6129.7222-1.6129 1.6129 0 .8908.7221 1.6129 1.6129 1.6129z" fill="#41cfc8"/><path d="m13.1274 37.4998c1.3361 0 2.4193-1.0831 2.4193-2.4193s-1.0832-2.4194-2.4193-2.4194c-1.3362 0-2.4194 1.0832-2.4194 2.4194s1.0832 2.4193 2.4194 2.4193z" fill="#41cfc8"/><path d="m36.8725 37.4998c1.3362 0 2.4193-1.0831 2.4193-2.4193s-1.0831-2.4194-2.4193-2.4194-2.4194 1.0832-2.4194 2.4194 1.0832 2.4193 2.4194 2.4193z" fill="#41cfc8"/><path d="m9.67784 45.1614h-1.6129v1.6129h1.6129z" fill="#41cfc8"/><path d="m14.5162 45.1614h-1.6129v1.6129h1.6129z" fill="#41cfc8"/><path d="m4.83898 45.1614h-1.61291v1.6129h1.61291z" fill="#41cfc8"/><g fill="#003a69"><path d="m48.3871 9.67749v38.70971h-46.7742v-38.70971h-1.6129v40.32261h50v-40.32261z"/><path d="m15.035 19.6782c-1.1556-.6653-2.6379-.2678-3.3056.8863-.667 1.1556-.2694 2.6379.8862 3.3056.3799.2186.7952.3226 1.2049.3226.5701 0 1.1209-.2153 1.5613-.5879l5.0871 2.9371c-.196.525-.3081 1.0911-.3081 1.6839 0 .5927.1121 1.1588.3081 1.6838l-5.0516 2.9162c-.3992-.4065-.892-.7097-1.4565-.8613-.8331-.2242-1.7016-.1089-2.4484.3218-.7468.4306-1.2798 1.1258-1.5024 1.9588-.22339.8323-.10887 1.7016.3218 2.4476.4306.746 1.1266 1.2798 1.9588 1.5024.2783.075.5597.1121.8404.1121.5588 0 1.1104-.1476 1.608-.4339.746-.4306 1.2799-1.1258 1.5033-1.9588.1516-.5645.1346-1.1436-.0178-1.692l5.0484-2.9145c.725.875 1.7532 1.4863 2.9202 1.6831v5.8669c-.9363.3339-1.6129 1.221-1.6129 2.271 0 1.3339 1.0854 2.4193 2.4193 2.4193s2.4194-1.0854 2.4194-2.4193c0-1.05-.6766-1.9371-1.6129-2.271v-5.8661c1.1669-.1968 2.1951-.8081 2.9201-1.6831l5.0484 2.9145c-.1524.5484-.1693 1.1275-.0177 1.692.2226.8322.7564 1.5282 1.5024 1.9589.4976.2862 1.0492.4338 1.6081.4338.2798 0 .5621-.0371.8403-.1121.8322-.2226 1.5282-.7564 1.958-1.5024.4315-.746.546-1.6153.3226-2.4476-.2226-.8322-.7564-1.5282-1.5024-1.9588-.7468-.4299-1.6153-.546-2.4484-.3218-.5645.1508-1.0572.4548-1.4564.8613l-5.0516-2.9162c.1967-.5258.3088-1.0919.3088-1.6846 0-.5928-.1121-1.1589-.308-1.6839l5.0871-2.9371c.4403.3734.9911.5879 1.5612.5879.4097 0 .825-.104 1.2049-.3226h.0008c1.1548-.6677 1.5516-2.15.8855-3.3056-.6662-1.1549-2.1484-1.5532-3.3057-.8863-.9088.5258-1.3387 1.554-1.1596 2.5322l-5.0783 2.9323c-.725-.875-1.7532-1.4863-2.9201-1.6831v-5.8322c1.3871-.3605 2.4193-1.6121 2.4193-3.1113 0-1.779-1.4468-3.2258-3.2258-3.2258s-3.2258 1.4468-3.2258 3.2258c0 1.4992 1.0323 2.7508 2.4194 3.1113v5.8322c-1.167.1968-2.1952.8081-2.9202 1.6831l-5.0782-2.9323c.179-.9774-.2508-2.0064-1.1597-2.5322zm-.3508 15.8201c-.1113.4162-.3782.7638-.7516.9791-.3726.2169-.8065.2734-1.2234.1613-.4161-.1113-.7637-.3783-.979-.7516-.2154-.3734-.2726-.8081-.1613-1.2242.1113-.4162.3782-.7637.7516-.9791.2484-.1443.5242-.2177.804-.2177.1403 0 .2815.0185.4202.0556.4161.1113.7637.3783.979.7516.2153.3742.2726.8081.1605 1.225zm20.7919-1.2241c.2154-.3734.5629-.6404.9791-.7517.1387-.0371.2798-.0556.4201-.0556.2799 0 .5549.0734.8041.2177.3725.2154.6395.5629.7516.9791.1121.4161.054.8508-.1613 1.2242s-.5629.6403-.9791.7516c-.4177.1105-.8516.054-1.2242-.1613-.3733-.2153-.6403-.5629-.7516-.979-.1121-.4178-.0548-.8517.1613-1.225zm.2944-13.1984c.1266-.0734.2653-.1081.4016-.1081.279 0 .5508.1452.7.4032.2226.3855.0895.8799-.2952 1.1016-.3838.2234-.879.0896-1.1008-.2951-.2226-.3855-.0903-.8799.2944-1.1016zm-10.771 20.8596c-.4443 0-.8064-.3612-.8064-.8064s.3621-.8065.8064-.8065c.4444 0 .8065.3613.8065.8065s-.3621.8064-.8065.8064zm-1.6129-27.4193c0-.8895.7234-1.6129 1.6129-1.6129s1.6129.7234 1.6129 1.6129-.7234 1.6129-1.6129 1.6129-1.6129-.7234-1.6129-1.6129zm1.6129 10.4839c1.779 0 3.2258 1.4467 3.2258 3.2258 0 1.779-1.4468 3.2258-3.2258 3.2258s-3.2258-1.4468-3.2258-3.2258c0-1.7791 1.4468-3.2258 3.2258-3.2258zm-10.4766-2.8226c-.2226.3855-.7169.5177-1.1008.2951-.3855-.2217-.5177-.7169-.2952-1.1016.1492-.258.4202-.4032.7-.4032.1363 0 .275.0347.4016.1081.3847.2217.517.7161.2944 1.1016z"/><path d="m46.7743 9.67749h-12.9032v1.61291h12.9032z"/><path d="m46.7741 12.9033h-9.6774v1.6129h9.6774z"/><path d="m35.484 12.9033h-1.6129v1.6129h1.6129z"/><path d="m46.774 16.1292h-1.6129v1.6129h1.6129z"/><path d="m43.5485 16.1292h-9.6774v1.6129h9.6774z"/><path d="m14.5164 41.9355h-11.29033v1.6129h11.29033z"/><path d="m34.6772 40.3226v6.4516h12.9033v-11.2903h-5.6452v1.6129h4.0323v8.0645h-9.6775v-4.8387z"/><path d="m44.3549 41.9355h-6.4516v1.6129h6.4516z"/><path d="m44.3548 38.7097h-4.8387v1.6129h4.8387z"/><path d="m9.67769 19.3549h-4.83871v-8.0645h9.67742v6.4516h1.6129v-8.06451h-12.90323v11.29031h6.45162z"/><path d="m12.9028 12.9033h-6.45163v1.6129h6.45163z"/><path d="m12.9028 16.1292h-6.45163v1.6129h6.45163z"/></g></svg>