<svg xmlns="http://www.w3.org/2000/svg" width="216" height="198" version="1.1"><g fill="none"><path fill="url(#paint0_linear)" fill-opacity=".15" d="M25.36 116.26c25.5-15.44 1.9-32.16-7.56-36.34-17.03-7.53-32.24-26.08 6.43-56.2 46-35.88 112.9-22.27 131.37-15.27 19.06 7.22 41.7 21.51 23.76 43.03-16.95 20.38-20.28 39.23 4.76 38.1 30.04-1.38 34.36 25.08 11.13 49.41-24.22 25.32-55.7 28.44-88.84 32.16-87.86 9.96-115.48-34.13-81.05-54.9z" transform="rotate(-30 122.73 83.38) skewX(.01)"/><mask id="a" width="216" height="198" x="0" y="0" mask-type="alpha" maskUnits="userSpaceOnUse"><path fill="url(#paint1_linear)" d="M25.36 123.76c25.5-15.43 1.9-32.16-7.56-36.34-17.03-7.53-32.24-26.08 6.43-56.19C44.35 15.53 68.48 9.31 90.79 7.85c12.32-.8 8.4-6.34 15.09-7.72 6.28-1.3 11.99 7.55 22.1 9.28l.13.02c12.23 1.78 22 4.44 27.48 6.52 19.07 7.22 41.7 21.52 23.77 43.03-16.95 20.38-20.28 39.24 4.76 38.1 30.04-1.37 34.36 25.09 11.13 49.42-24.22 25.31-55.7 28.43-88.84 32.16-87.86 9.96-115.48-34.14-81.05-54.9z" transform="rotate(-30 108.73 87.14) skewX(.01)"/></mask><g filter="url(#filter0_d)" mask="url(#a)"><path fill="#5D718F" d="M65.77 14.91h85.97c1.34 0 2.44 1.1 2.44 2.44v165.44c0 1.34-1.1 2.44-2.44 2.44H65.77a2.45 2.45 0 0 1-2.44-2.44V17.35a2.42 2.42 0 0 1 2.44-2.44z"/><path fill="#fff" d="M69.54 37.88h78.43c1.05 0 1.91.86 1.91 1.9v120.57c0 1.06-.86 1.92-1.91 1.92H69.54a1.92 1.92 0 0 1-1.91-1.92V39.8c0-1.05.86-1.91 1.91-1.91z"/><path fill="#8597B1" d="M88.12 25.44h41.27c.95 0 1.72.76 1.72 1.72s-.77 1.72-1.72 1.72H88.12c-.95 0-1.72-.76-1.72-1.72s.77-1.72 1.72-1.72zm20.3 154.53a5.69 5.69 0 1 0 0-11.38 5.69 5.69 0 0 0 0 11.38zM74.65 29.22a1.96 1.96 0 1 0 0-3.92 1.96 1.96 0 0 0 0 3.92z"/><g fill="#596366"><path d="M104.98 123.04h-2.67v5.4h2.67v-5.4z"/><path d="M113.05 120.3h-2.67v-2.67h-2.72v2.68h-2.68v2.73l2.68-.05v5.4h2.72v-2.67h5.4v-2.68h-2.73v-2.73zm-32.33 8.14H99.3l.28-18.9H80.72v18.9zm2.67-16.22h13.47v13.5H83.4v-13.5zm40.46 13.5h-2.68v2.68h2.68v-2.68zm8.07 2.72h2.72v-2.72h-2.72v2.72zm-5.35 0h2.68v-2.72h-2.73l.05 2.72zm-8.12-2.72h-2.67v2.68h2.67v-2.68zM94.19 77.1h-8.07v8.14h8.07v-8.13zm21.54-5.4h-2.68v5.4h2.68v-5.4zm-10.75 2.73h-2.67v5.4h2.67v-5.4z"/><path d="M99.58 71.7H80.72v18.9h18.86V71.7zm-2.67 16.22H83.44v-13.5h13.47v13.5zm-10.79 35.12h8.07v-8.09h-8.07v8.09zm-2.72-16.22v-2.68h2.72v2.68h2.67v-5.4h-8.07v5.4h2.67zm2.72-13.49h-5.4v5.4h5.4v-5.4zm45.8-16.23h-8.07v8.1h8.07v-8.1zm-16.19 10.82h-2.68v2.68h2.68v-2.68zm-10.75 29.71h-2.67v2.68h2.67v-2.68z"/><path d="M134.64 93.33h-5.4V96h2.68v2.67h-5.4v-5.4h-8.07v2.68h-2.67v-2.68h-8.12l.04 5.4h-2.67V96h-2.68v-2.67h2.68v-5.41h2.67v2.68h2.68v-5.36h5.4v-5.4h-2.73v2.67h-10.8v10.82h-5.39V96h-5.4v2.67h5.4v2.68h2.68v2.68h2.67v8.09h2.68v-2.68h2.67v2.68h-2.67v2.68h5.4v-2.68h5.4v-2.68h-5.4v-2.68h-5.4v-2.68h2.67v-2.68h5.5v2.68h5.4v2.68h-2.68v2.68h2.67v5.45h-5.4v2.68h2.68v5.46h5.4v-2.68h2.67v2.68h2.68v-2.68h2.67v2.68h2.68v-2.68h2.67v2.68h2.67v-5.41h-2.67v-8.09h-2.67v-2.67h-2.68v2.67h-5.4v2.68h-2.58v-8.08h8.08v-2.68h2.67v2.68h5.4v-8.09h-2.68v-2.72zm-35.06 8.08v-2.68h-2.67v-2.68h2.67v2.68h2.68v2.68h-2.68zm5.4 2.73h-2.67v-2.68h2.67v2.68zm13.47-2.73h-5.4v-5.4h2.68v2.67h2.67v2.73h.05zm16.2 0h-2.68v-2.68h2.67v2.68z"/><path d="M118.45 71.75v18.9h18.87v-18.9h-18.87zm16.2 16.17h-13.48v-13.5h13.47v13.5zm-43.19 5.41H88.8V96h2.67v-2.67zm8.12 10.81h-2.67v2.68h2.67v-2.68zm10.8-27.04v-5.4h-2.72v8.13h5.4v-2.72h-2.68zm0 29.72h2.67v-2.68h-2.67v2.68z"/></g><path fill="#FF7069" d="M74.8 64.67h11.7v2.72H76.13v10.39h-2.72V64.67h1.38zm56.21 0h13.09v13.11h-2.72V67.39H131v-2.72zm13.09 57.7v13.11h-13.08v-2.73h10.36v-10.38h2.72zm-57.6 13.1H73.4v-13.09h2.73v10.38H86.5v2.73z"/></g></g><defs><filter id="filter0_d" width="109.02" height="188.49" x="57.65" y="9.23" color-interpolation-filters="sRGB" filterUnits="userSpaceOnUse"><feFlood flood-opacity="0" result="BackgroundImageFix"/><feColorMatrix in="SourceAlpha" type="matrix" values="0 0 0 0 0 0 0 0 0 0 0 0 0 0 0 0 0 0 255 0"/><feOffset dx="3.41" dy="3.41"/><feGaussianBlur stdDeviation="4.54"/><feColorMatrix type="matrix" values="0 0 0 0 0 0 0 0 0 0 0 0 0 0 0 0 0 0 0.15 0"/><feBlend in2="BackgroundImageFix" mode="normal" result="effect1_dropShadow"/><feBlend in="SourceGraphic" in2="effect1_dropShadow" mode="normal" result="shape"/></filter><linearGradient id="paint0_linear" x2="1" gradientTransform="matrix(-145.371 118.483 -144.214 -331.76 278.93 173.73)" gradientUnits="userSpaceOnUse"><stop offset=".38" stop-color="#83C7F0"/><stop offset="1" stop-color="#0382CE"/></linearGradient><linearGradient id="paint1_linear" x2="1" gradientTransform="matrix(-145.371 118.483 -144.214 -331.76 278.93 181.23)" gradientUnits="userSpaceOnUse"><stop offset=".38" stop-color="#83C7F0"/><stop offset="1" stop-color="#0382CE"/></linearGradient></defs></svg>