<svg width="70" height="70" viewBox="0 0 70 70" fill="none" xmlns="http://www.w3.org/2000/svg">
<path d="M49.6774 69.9231L47.4194 35.5345H54.1936L40.6452 19.4866L27.0968 35.5345H33.871L31.6129 69.9231H49.6774Z" fill="#F9BA48"/>
<path d="M58.7097 10.3164V8.86206e-09H0V52.7291C0 56.5221 3.03821 59.6068 6.77419 59.6068H31.1579L30.485 69.8476L32.7384 70L35.0777 34.3883H29.5499L40.6449 21.2484L51.7387 34.3883H46.211L48.5492 69.9988L50.8027 69.8464L50.1322 59.6068H63.2258C66.9618 59.6068 70 56.5221 70 52.7291V10.3164H58.7097ZM2.25806 52.7291V2.29257H56.4516V10.3167H31.1815L28.9235 5.73154H11.2903V52.7293C11.2903 55.2581 9.26493 57.3145 6.77419 57.3145C4.28346 57.3145 2.25806 55.2576 2.25806 52.7291ZM67.7419 52.7291C67.7419 55.2579 65.7165 57.3142 63.2258 57.3142H49.9811L48.6263 36.6811H56.6469L40.6452 17.7248L24.6422 36.6809H32.6628L31.308 57.314H11.8096C12.8867 56.0954 13.5484 54.4917 13.5484 52.7288V8.02387H27.5282L29.7862 12.609H67.7419V52.7291Z" fill="#333333"/>
</svg>
