<svg xmlns="http://www.w3.org/2000/svg" xmlns:xlink="http://www.w3.org/1999/xlink" width="221" height="205"><use fill="#EDFAFF" transform="rotate(-30 126.27 85.07)" xlink:href="#path0_fill"/><use fill="#FFF" transform="translate(46 69.2)" xlink:href="#path1_fill"/><use fill="#C6CBD6" transform="translate(54.59 73.75)" xlink:href="#path2_fill"/><use fill="#C6CBD6" transform="translate(53.86 125.89)" xlink:href="#path3_fill"/><use fill="#FF7069" transform="translate(126.51 136.57)" xlink:href="#path4_fill"/><use fill="#596366" transform="translate(127.14 133.8)" xlink:href="#path5_fill"/><use fill="#ECF0F1" transform="translate(126.51 136.57)" xlink:href="#path6_fill"/><use fill="#6C7678" transform="translate(66.72 57)" xlink:href="#path7_fill"/><g fill="#FFF"><use transform="translate(104.93 65.7)" xlink:href="#path8_fill"/><use transform="translate(75.27 73.37)" xlink:href="#path9_fill"/></g><defs><path id="path0_fill" d="M26.02 118.7c26.16-15.77 1.94-32.84-7.76-37.11-17.47-7.69-33.07-26.63 6.6-57.37C72.04-12.4 140.65 1.48 159.6 8.62c19.56 7.38 42.77 21.97 24.37 43.94-17.39 20.8-20.8 40.05 4.9 38.89 30.8-1.4 35.23 25.61 11.4 50.45-24.84 25.85-57.13 29.03-91.13 32.84C19.03 184.9-9.3 139.88 26.02 118.69z"/><path id="path1_fill" d="M1.08 0L132 .07l-1.11 65.18L0 65.11 1.08 0z"/><path id="path2_fill" d="M.9 0h2.33l-.9 50.1H0L.9 0zm75.23 12.25h-1.25l-.7 37.91h1.26l.7-37.91zm6.47 0h-5.11l-.7 37.91h5.11l.7-37.91zm4.07 0H84.2l-.7 37.91h2.47l.7-37.91zm5.35 0h-1.6l-.7 37.91h1.6l.7-37.91zm16.69 0h1.25l-.7 37.91h-1.25l.7-37.91zm-6.47 0h5.11l-.7 37.91h-5.1l.7-37.91zm-4.07 0h2.47l-.7 37.91h-2.46l.7-37.91zm-5.35 0h1.6l-.7 37.91h-1.6l.7-37.91zM53.32 0h.88l-.9 50.1h-.88l.9-50.1zm7.14 0h6.8l-.9 50.1h-6.8l.9-50.1zm-3 0h1.7l-.9 50.1h-1.73L57.47 0zM44.33 0h6.82l-.9 50.1h-6.82l.9-50.1zm-2.46 0h1.46l-.9 50.1h-1.47l.9-50.1zm-3.52 0h1.7l-.9 50.1h-1.7l.9-50.1zm-4.83 0h3.44l-.93 50.1h-3.45L33.51 0zm-8.38 0h6.82l-.9 50.1h-6.82l.9-50.1zM21.1 0h1.46l-.9 50.1H20.2L21.1 0zm-7.54 0h5.63l-.9 50.1h-5.64l.9-50.1zm-7.9 0H8l-.9 50.1H4.75L5.66 0z"/><path id="path3_fill" d="M.07 2.88C.07 1.84.21 1.1.52.69.83.28 1.3.07 1.95.07c.31 0 .55.03.73.14.17.1.38.24.45.38.14.14.24.31.28.45a5.2 5.2 0 0 1 .31 1.84c0 1-.14 1.73-.42 2.18-.28.46-.73.7-1.42.7-.39 0-.7-.1-.9-.24-.25-.14-.42-.39-.6-.63-.1-.17-.17-.48-.28-.83-.03-.38-.1-.73-.1-1.18h.07zm1.25 0c0 .7.04 1.18.14 1.46.1.27.24.38.45.38.14 0 .25-.04.31-.18.1-.1.18-.27.18-.48.03-.24.03-.6.03-1.11 0-.73-.03-1.25-.14-1.46-.1-.28-.27-.38-.45-.38-.24 0-.38.14-.45.38-.1.28-.14.73-.14 1.42h.07v-.03zm6.26-1.15L6.4 1.46c.1-.45.27-.84.55-1.04.28-.25.7-.39 1.18-.39.6 0 1.01.14 1.3.42.27.28.4.6.4 1 0 .25-.03.46-.13.63-.1.17-.28.38-.45.49.17.03.31.14.41.17.14.1.28.28.39.45.1.17.14.42.14.63a2.06 2.06 0 0 1-.84 1.6c-.28.13-.59.23-1 .23-.42 0-.74-.03-.98-.17a2.01 2.01 0 0 1-.6-.48c-.13-.25-.27-.49-.37-.87l1.25-.18c.03.32.14.56.24.63.1.14.24.17.42.17.17 0 .31-.1.42-.24.1-.14.17-.38.17-.59 0-.28-.04-.45-.17-.59a.6.6 0 0 0-.46-.24c-.1 0-.24.03-.41.1l.03-1.1h.18a.5.5 0 0 0 .41-.18c.1-.14.18-.28.18-.45 0-.18-.04-.32-.14-.42C8.42.94 8.34.9 8.2.9a.46.46 0 0 0-.38.18c-.1.1-.14.3-.17.55l-.07.1zm7.23 2.88h-2.3V3.33L14.82 0h1.11v3.36h.56v1.18h-.6V5.6h-1.1V4.54v.07h.03zm0-1.18V1.7l-1.18 1.73h1.18zm5.35-1.7l-1.18-.27c.1-.45.28-.84.56-1.04.28-.25.7-.39 1.18-.39.6 0 1 .14 1.29.42.27.28.41.6.41 1 0 .25-.03.46-.17.63-.1.17-.28.38-.45.49.17.03.31.14.41.17.14.1.28.28.39.45.1.17.14.42.14.63a2.06 2.06 0 0 1-.84 1.6c-.28.13-.59.23-1 .23-.42 0-.74-.03-.98-.17a2.02 2.02 0 0 1-.6-.48c-.13-.25-.27-.49-.37-.87l1.25-.18c.03.32.14.56.24.63.1.14.24.17.42.17.17 0 .31-.1.42-.24.1-.14.17-.38.17-.59 0-.28-.04-.45-.17-.59a.6.6 0 0 0-.46-.24c-.1 0-.24.03-.41.1l.03-1.1h.18a.5.5 0 0 0 .41-.18c.1-.14.18-.28.18-.45 0-.18-.04-.32-.14-.42-.1-.1-.18-.14-.32-.14a.46.46 0 0 0-.38.18c-.1.1-.14.3-.17.55v.1h-.04zm8.73-.34l-1.25.17c-.04-.24-.1-.38-.18-.45-.07-.07-.17-.14-.27-.14-.18 0-.39.14-.46.38-.1.18-.14.56-.17 1.15.14-.18.31-.31.45-.42.14-.1.31-.14.56-.14.42 0 .73.18 1 .56.28.38.42.83.42 1.32 0 .38-.1.69-.24 1a1.3 1.3 0 0 1-.6.7c-.23.13-.55.24-.96.24-.46 0-.84-.1-1.12-.28a1.63 1.63 0 0 1-.62-.9 4.36 4.36 0 0 1-.25-1.63c0-1 .18-1.74.5-2.19.3-.45.83-.7 1.42-.7a2 2 0 0 1 .87.15c.24.1.38.24.48.45a2 2 0 0 1 .31.73h.1zm-2.3 2.46c0 .31.04.56.18.7.14.17.28.27.45.27.17 0 .31-.1.42-.24.1-.14.17-.38.17-.7 0-.3-.03-.55-.17-.72-.14-.18-.28-.25-.42-.25-.17 0-.31.1-.45.25-.14.14-.18.34-.18.7zm8.66 1.8H31.5c.03-.45.17-.86.41-1.28a6 6 0 0 1 1.26-1.42c.38-.31.59-.6.69-.76.1-.18.14-.32.14-.49a.6.6 0 0 0-.14-.42c-.1-.14-.24-.17-.38-.17a.55.55 0 0 0-.42.17c-.1.14-.17.32-.17.63l-1.25-.14c.03-.45.13-.76.27-1 .14-.25.32-.42.56-.56.24-.14.56-.18 1-.18.46 0 .77.04 1.02.18.24.14.45.31.59.55.14.28.24.56.24.87 0 .31-.1.62-.24.97a4.1 4.1 0 0 1-.87 1l-.49.46-.31.31h1.98v1.25l-.14.03zM38.38.14h2.95v1.25h-2.01l-.1.83c.13-.1.27-.14.41-.17.14-.04.28-.04.42-.04.45 0 .83.18 1.11.49.28.31.42.76.42 1.28a2.49 2.49 0 0 1-.84 1.81c-.27.17-.59.27-1 .27-.28 0-.56-.03-.77-.1-.24-.1-.42-.17-.56-.31-.13-.14-.27-.28-.38-.45-.1-.18-.17-.42-.24-.63l1.29-.17c.03.24.1.45.24.55.1.14.24.18.42.18.17 0 .3-.1.41-.25.14-.17.18-.41.18-.73 0-.3-.04-.55-.18-.72-.14-.14-.28-.25-.45-.25a.8.8 0 0 0-.38.1c-.1.04-.18.15-.28.28L38 3.2l.4-2.96-.03-.1zm9.42 1.25l-1.25.17c-.04-.24-.1-.38-.17-.45S46.2.97 46.1.97c-.18 0-.38.14-.45.38-.1.18-.14.56-.18 1.15.14-.18.31-.31.45-.42.14-.1.32-.14.56-.14.42 0 .73.18 1 .56a2.2 2.2 0 0 1 .18 2.32 1.3 1.3 0 0 1-.59.7 2 2 0 0 1-.97.24c-.45 0-.84-.1-1.12-.28a1.63 1.63 0 0 1-.62-.9 4.36 4.36 0 0 1-.24-1.63c0-1 .17-1.74.48-2.19.32-.45.84-.7 1.43-.7a2 2 0 0 1 .87.15c.24.1.38.24.48.45a2 2 0 0 1 .32.73h.1zm-2.3 2.46c0 .31.04.56.18.7.14.17.28.27.45.27.18 0 .32-.1.42-.24.1-.14.17-.38.17-.7 0-.3-.03-.55-.17-.72-.14-.18-.28-.25-.42-.25-.17 0-.31.1-.45.25-.1.14-.17.34-.17.7zm8.28-2.12l-1.18-.27c.1-.45.28-.84.55-1.04.28-.25.7-.39 1.19-.39.59 0 1 .14 1.28.42.28.28.42.6.42 1 0 .25-.03.46-.14.63-.1.17-.28.38-.45.49.17.03.31.14.42.17.14.1.27.28.38.45.1.17.14.42.14.63 0 .3-.04.62-.25.9-.13.28-.3.48-.59.7-.27.13-.59.23-1 .23-.42 0-.73-.03-.98-.17a2.01 2.01 0 0 1-.59-.48 3.4 3.4 0 0 1-.38-.87l1.25-.18c.03.32.14.56.24.63.1.14.25.17.42.17.17 0 .31-.1.42-.24.1-.14.17-.38.17-.59 0-.28-.03-.45-.17-.59a.6.6 0 0 0-.45-.24c-.1 0-.25.03-.42.1l.03-1.1h.18c.17 0 .31-.04.41-.18.1-.14.18-.28.18-.45 0-.18-.04-.32-.14-.42-.1-.1-.17-.14-.31-.14a.47.47 0 0 0-.39.18c-.1.1-.14.3-.17.55l-.07.1zm8.76-.34l-1.25.17c-.04-.24-.1-.38-.17-.45s-.18-.14-.28-.14c-.18 0-.38.14-.45.38-.1.18-.14.56-.18 1.15.14-.18.31-.31.45-.42.14-.1.32-.14.56-.14.42 0 .73.18 1 .56a2.2 2.2 0 0 1 .18 2.32 1.3 1.3 0 0 1-.59.7 2.1 2.1 0 0 1-2.02-.03 1.63 1.63 0 0 1-.62-.91 4.36 4.36 0 0 1-.24-1.63c0-1 .17-1.74.48-2.19.32-.45.84-.7 1.43-.7a2 2 0 0 1 .87.15c.24.1.38.24.48.45a2 2 0 0 1 .32.73h.03zm-2.3 2.46c0 .31.04.56.18.7.14.17.28.27.45.27.18 0 .32-.1.42-.24.1-.14.17-.38.17-.7 0-.3-.03-.55-.17-.72-.14-.18-.28-.25-.42-.25-.17 0-.31.1-.45.25-.14.14-.17.34-.17.7zM65.23.14h3.65v1.04c-.31.38-.6.73-.77 1.14a6.06 6.06 0 0 0-.59 1.63c-.14.46-.17 1.05-.24 1.7h-1.25c.1-.9.28-1.63.45-2.29.24-.58.56-1.28 1-1.97h-2.22V.1h-.03v.04zm9.14-.1v5.61h-1.29v-3.7a2.1 2.1 0 0 1-.59.44 1.7 1.7 0 0 1-.73.32V1.46c.42-.18.77-.38 1.01-.6.24-.24.42-.55.56-.86h1.04v.03zm7.13 5.61h-3.76c.04-.45.18-.86.42-1.28a5.9 5.9 0 0 1 1.25-1.42c.38-.31.6-.6.7-.76.1-.18.14-.32.14-.49a.6.6 0 0 0-.14-.42c-.1-.14-.25-.17-.39-.17a.5.5 0 0 0-.41.17 1 1 0 0 0-.18.63l-1.25-.14c.04-.45.14-.76.28-1 .14-.25.31-.42.56-.56.24-.14.55-.18 1-.18.46 0 .77.04 1.05.18.24.14.45.31.59.55.14.28.24.56.24.87 0 .31-.1.62-.24.97a4.1 4.1 0 0 1-.87 1l-.49.46-.31.31h1.98v1.25l-.17.03zM84.65.14h2.96v1.25h-2.02l-.1.83c.13-.1.27-.14.41-.17.14-.04.28-.04.42-.04.45 0 .83.18 1.11.49.28.31.42.76.42 1.28 0 .38-.1.7-.24 1.04-.14.31-.39.6-.6.77-.27.17-.59.27-1 .27-.28 0-.56-.03-.77-.1-.24-.1-.42-.17-.55-.31A2.39 2.39 0 0 1 84.3 5c-.1-.18-.17-.42-.24-.63l1.29-.17c.03.24.1.45.24.55.1.14.24.18.42.18.17 0 .31-.1.41-.25.14-.17.18-.41.18-.73 0-.3-.04-.55-.18-.72-.14-.14-.27-.25-.45-.25a.8.8 0 0 0-.38.1c-.1.04-.17.15-.28.28l-1.04-.17.42-2.95-.04-.1zm7.96 4.47h-2.3V3.33L92.62 0h1.11v3.36h.56v1.18h-.56V5.6h-1.1V4.54v.07zm0-1.18V1.7l-1.18 1.73h1.18zm9.88-2.04l-1.26.17c-.03-.24-.1-.38-.17-.45s-.17-.14-.28-.14c-.17 0-.38.14-.45.38-.1.18-.14.56-.17 1.15.14-.18.3-.31.45-.42a.9.9 0 0 1 .55-.14c.42 0 .73.18 1.01.56.28.38.42.83.42 1.32 0 .38-.1.69-.24 1a1.3 1.3 0 0 1-.6.7c-.24.13-.55.24-.97.24-.45 0-.83-.1-1.11-.28a1.63 1.63 0 0 1-.63-.9 4.36 4.36 0 0 1-.24-1.63c0-1 .17-1.74.49-2.19.31-.45.83-.7 1.42-.7.39 0 .63.04.87.15.25.1.38.24.49.45.14.17.24.45.31.73h.1zm-2.3 2.46c0 .31.03.56.17.7.14.17.28.27.46.27.17 0 .3-.1.41-.24.1-.14.18-.38.18-.7 0-.3-.04-.55-.18-.72-.14-.18-.28-.25-.41-.25-.18 0-.32.1-.46.25-.14.14-.17.34-.17.7zm6.22-2.12l-1.18-.27c.1-.45.28-.84.56-1.04.28-.25.7-.39 1.18-.39.6 0 1 .14 1.29.42.27.28.41.6.41 1 0 .25-.03.46-.14.63-.1.17-.27.38-.45.49.18.03.31.14.42.17a1.27 1.27 0 0 1 .52 1.08 2.09 2.09 0 0 1-.84 1.6c-.27.13-.59.23-1 .23-.42 0-.73-.03-.98-.17a2.02 2.02 0 0 1-.59-.48 3.43 3.43 0 0 1-.38-.87l1.25-.18c.04.32.14.56.25.63.1.14.24.17.41.17.18 0 .32-.1.42-.24.1-.14.17-.38.17-.59 0-.28-.03-.45-.17-.59a.6.6 0 0 0-.45-.24c-.1 0-.25.03-.42.1l.04-1.1h.17c.17 0 .31-.04.42-.18.1-.14.17-.28.17-.45 0-.18-.03-.32-.14-.42-.1-.1-.17-.14-.31-.14a.44.44 0 0 0-.38.18c-.1.1-.14.3-.18.55l-.07.1z"/><path id="path4_fill" d="M8.38.8L3.13 3.82a6.26 6.26 0 0 0-2.3 8.53l31.33 54.29c1 1.7 3.2 2.29 4.9 1.32l9.87-5.66a3.6 3.6 0 0 0 1.32-4.89L16.93 3.12A6.29 6.29 0 0 0 8.38.83V.8z"/><path id="path5_fill" d="M6.57 0L0 3.78l2.5 4.37 6.57-3.78L6.57 0z"/><path id="path6_fill" d="M8.38.8L3.13 3.82a6.26 6.26 0 0 0-2.3 8.53l4.66 8.12 16.1-9.23-4.66-8.12A6.3 6.3 0 0 0 8.38.83V.8z"/><path id="path7_fill" d="M80.4 21.54A43.1 43.1 0 0 0 21.58 5.75 42.96 42.96 0 0 0 5.77 64.48a43.1 43.1 0 0 0 58.82 15.79A42.96 42.96 0 0 0 80.4 21.54zM60.8 73.7a35.57 35.57 0 0 1-48.5-13.04 35.41 35.41 0 0 1 13.07-48.4 35.57 35.57 0 0 1 48.5 13.05 35.41 35.41 0 0 1-13.07 48.4z"/><path id="path8_fill" d="M5.56.03C3.65.03 1.81.21 0 .5h.6A35.58 35.58 0 0 1 36.18 36c0 9.85-4.03 18.8-10.5 25.22a33.84 33.84 0 0 0 13.9-27.34A33.9 33.9 0 0 0 5.64 0h-.07v.03z"/><path id="path9_fill" d="M34.03 61.2c1.92 0 3.76-.18 5.57-.46H39A35.58 35.58 0 0 1 3.4 25.22C3.4 15.37 7.45 6.42 13.9 0A33.84 33.84 0 0 0 0 27.34c0 18.7 15.2 33.89 33.96 33.89h.07v-.04z"/></defs></svg>