<svg height="70" viewBox="0 0 61 70" width="61" xmlns="http://www.w3.org/2000/svg" xmlns:xlink="http://www.w3.org/1999/xlink"><linearGradient id="a" gradientTransform="matrix(0 10.984 -15.1897 0 19.615 -.101691)" gradientUnits="userSpaceOnUse" x2="1"><stop offset="0" stop-color="#41cfc8" stop-opacity=".7"/><stop offset="1" stop-color="#24c4bc"/></linearGradient><g fill="none"><path d="m23.9878 3.63139v7.64241l-1.1423.0011h-22.84549983l.00228438-4.06109 11.39421545-6.06516c2.8796-1.532099 6.3168-1.53097 9.1941 0l2.7986 1.48919z" fill="url(#a)" transform="translate(9.13623 48.5627)"/><g fill="#333"><path d="m1.14227 2.25806c.63087 0 1.14228-.50548 1.14228-1.12903 0-.623545-.51141-1.12903-1.14228-1.12903-.630856 0-1.14227.505485-1.14227 1.12903 0 .62355.511414 1.12903 1.14227 1.12903z" transform="translate(23.9873 35)"/><path d="m1.14227 2.25806c.63087 0 1.14228-.50548 1.14228-1.12903 0-.623545-.51141-1.12903-1.14228-1.12903-.630856 0-1.14227.505485-1.14227 1.12903 0 .62355.511414 1.12903 1.14227 1.12903z" transform="translate(23.9873 39.5161)"/><path d="m1.14227 2.25806c.63087 0 1.14228-.50548 1.14228-1.12903 0-.623545-.51141-1.12903-1.14228-1.12903-.630856 0-1.14227.505485-1.14227 1.12903 0 .62355.511414 1.12903 1.14227 1.12903z" transform="translate(23.9873 44.0323)"/></g><path d="m60.5405 50.8064h-3.8186l2.6992-2.669-6.4607-6.3858-2.7003 2.6679v-3.7743h-3.4269v-1.2894c1.9659-.5047 3.4269-2.2569 3.4269-4.3558s-1.461-3.8511-3.4269-4.3558v-24.75065c.6957-.62097 1.1423-1.50952 1.1423-2.50645 0-1.86742-1.5375-3.3871-3.4268-3.3871h-38.83733c-1.88932 0-3.42682 1.51968-3.42682 3.3871 0 .99693.44663 1.88548 1.14227 2.50645v24.75065c-1.96585.5047-3.42682 2.2569-3.42682 4.3558s1.46097 3.8511 3.42682 4.3558v24.7507c-.69564.6209-1.14227 1.5095-1.14227 2.5064 0 1.8674 1.5375 3.3871 3.42682 3.3871h35.41053 2.2845 6.8537v-3.7744l2.7003 2.6679 6.4607-6.3858-2.6992-2.669h3.8186zm-12.565-15.8064c0 1.2453-1.0246 2.2581-2.2845 2.2581-1.26 0-2.2846-1.0128-2.2846-2.2581s1.0246-2.2581 2.2846-2.2581c1.2599 0 2.2845 1.0128 2.2845 2.2581zm-3.4268-4.3558c-1.9659.5047-3.4268 2.2569-3.4268 4.3558s1.4609 3.8511 3.4268 4.3558v1.2894h-3.4268v3.7743l-.9116-.901c-1.2028-3.2617-3.5125-5.9703-6.5463-7.6401l-1.5969-.8784 1.5957-.8773c4.6-2.5312 7.4602-7.3364 7.4636-12.539l.0138-14.80951h3.4085zm-12.589 17.4932 2.7003 2.669h-2.6763-1.1423v1.1291 6.7742h-19.4324l.008-10.29c.0035-4.3863 2.4125-8.4361 6.2905-10.5678l3.3903-1.864c.3621-.1998.5871-.5769.5871-.9868 0-.4098-.2238-.7869-.5871-.9867l-3.3903-1.8641c-3.8289-2.1056-6.2162-6.0832-6.279-10.4051l13.7015 3.1229 13.7016-3.1252c-.0628 4.3231-2.4502 8.2995-6.2791 10.4052l-3.3902 1.864c-.3621.1998-.5872.5769-.5872.9868 0 .4098.2239.7869.5872.9867l3.3902 1.8641c2.0676 1.1369 3.7387 2.8463 4.8399 4.9158l-4.6251 4.5714zm-20.5529 12.8303h22.111l-1.5581 1.54.7265.7181h-21.2817zm.0091-41.545-.0069-8.1324h27.4432l-.0069 8.1324-13.7153 3.1286zm27.4374-10.39044h-27.4465l-.0023-2.25807h27.45zm-33.14193-6.7742h38.83733c.6305 0 1.1423.50581 1.1423 1.12904 0 .62322-.5118 1.12903-1.1423 1.12903h-4.5497-29.7379-4.54973c-.63053 0-1.14227-.50581-1.14227-1.12903 0-.62323.51174-1.12904 1.14227-1.12904zm-3.42682 32.74194c0-1.2453 1.02462-2.2581 2.28455-2.2581s2.28455 1.0128 2.28455 2.2581-1.02462 2.2581-2.28455 2.2581-2.28455-1.0128-2.28455-2.2581zm3.42682 4.3558c1.96586-.5047 3.42683-2.2569 3.42683-4.3558s-1.46097-3.8511-3.42683-4.3558v-23.87001h3.40855l.01256 14.80841c.00343 5.2026 2.86372 10.0077 7.46362 12.539l1.5969.8784-1.5958.8773c-4.5999 2.5313-7.46015 7.3364-7.46357 12.539l-.01371 14.8095h-3.40855zm0 28.3861c-.63053 0-1.14227-.5058-1.14227-1.129s.51174-1.129 1.14227-1.129h4.54973 24.7096l2.2846 2.258zm35.41053 0h-1.5341l1.5341-1.5163zm17.1341-10.1613h-3.6896l-.2695.7531c-.1074.3003-.2296.5905-.3667.875l-.3461.7203 2.6078 2.5787-3.2303 3.1929-2.609-2.5775-.7288.3421c-.2878.1354-.5825.2574-.8852.3624l-.7631.2676v3.6467h-4.5691v-3.6467l-.7619-.2665c-.3038-.1061-.5974-.2269-.8852-.3624l-.7288-.3421-2.609 2.5776-2.1691-2.1441-.3359-.3319-.7265-.7181 2.6079-2.5787-.3462-.7203c-.137-.2845-.2604-.5758-.3666-.875l-.2696-.7531h-.8076-2.8819v-4.5161h2.8819.8076l.2696-.753c.1074-.3004.2296-.5905.3666-.875l.3462-.7204-2.6079-2.5787 3.2304-3.1929.008.0079 2.601 2.5697.7287-.3421c.2879-.1355.5826-.2574.8853-.3624l.763-.2676v-3.6468h4.5691v3.6468l.7619.2665c.3039.1061.5974.2269.8853.3624l.7288.3421 2.6089-2.5776 3.2304 3.1929-2.6078 2.5787.3461.7203c.137.2845.2604.5758.3666.875l.2707.7542h3.6896z" fill="#015486"/><path d="m5.71137 0c-3.14925 0-5.71137 2.53242-5.71137 5.64516s2.56212 5.64514 5.71137 5.64514 5.71133-2.5324 5.71133-5.64514-2.56208-5.64516-5.71133-5.64516zm0 9.03226c-1.88932 0-3.42682-1.51968-3.42682-3.3871s1.5375-3.3871 3.42682-3.3871 3.42682 1.51968 3.42682 3.3871-1.5375 3.3871-3.42682 3.3871z" fill="#015486" transform="translate(39.979 49.6775)"/></g></svg>