<svg xmlns="http://www.w3.org/2000/svg" xmlns:xlink="http://www.w3.org/1999/xlink" width="50" height="42"><use fill="#FFF" xlink:href="#path0_fill"/><use fill="#717D83" xlink:href="#path1_fill"/><defs><path id="path0_fill" d="M25 0c-.3 0-.62.06-.91.17L1.28 9.07a1.63 1.63 0 0 0-1.03 1.85c.15.8.83 1.35 1.64 1.35h1.44v1.65c0 .9.75 1.65 1.67 1.65h1.67v16.52H5c-.92 0-1.67.74-1.67 1.65v1.65H1.67c-.92 0-1.67.74-1.67 1.65v4.13c0 .46.37.83.83.83h48.34c.46 0 .83-.37.83-.83v-4.13c0-.9-.75-1.65-1.67-1.65h-1.66v-1.65c0-.9-.75-1.65-1.67-1.65h-1.67V15.57H45c.92 0 1.67-.74 1.67-1.65v-1.65h1.44a1.65 1.65 0 0 0 .61-3.19L25.92.18A2.35 2.35 0 0 0 25 0zm0 4a2.5 2.5 0 0 0-2.5 2.48A2.5 2.5 0 0 0 25 8.96a2.5 2.5 0 0 0 2.5-2.48A2.5 2.5 0 0 0 25 4.01zm0 1.45c.57 0 1.04.47 1.04 1.03a1.04 1.04 0 0 1-2.08 0c0-.56.47-1.03 1.04-1.03zm14.17 5.16a.83.83 0 0 0-.84.83c0 .46.38.83.84.83h3.33c.46 0 .83-.37.83-.83a.83.83 0 0 0-.83-.83h-3.33zM8.33 35.4a.83.83 0 0 0-.83.83v1.65a.83.83 0 1 0 1.67 0v-1.65a.83.83 0 0 0-.84-.83zm4.17 0a.83.83 0 0 0-.83.83v1.65a.83.83 0 1 0 1.67 0v-1.65a.83.83 0 0 0-.84-.83zm4.17 0a.83.83 0 0 0-.84.83v1.65a.84.84 0 0 0 1.67 0v-1.65a.83.83 0 0 0-.83-.83zm4.16 0a.83.83 0 0 0-.83.83v1.65a.83.83 0 1 0 1.67 0v-1.65a.83.83 0 0 0-.84-.83zm4.17 0a.83.83 0 0 0-.83.83v1.65a.83.83 0 1 0 1.67 0v-1.65a.83.83 0 0 0-.84-.83zm4.17 0a.83.83 0 0 0-.84.83v1.65a.84.84 0 0 0 1.67 0v-1.65a.83.83 0 0 0-.83-.83zm4.16 0a.83.83 0 0 0-.83.83v1.65a.83.83 0 1 0 1.67 0v-1.65a.83.83 0 0 0-.84-.83zm4.17 0a.83.83 0 0 0-.83.83v1.65a.83.83 0 1 0 1.67 0v-1.65a.83.83 0 0 0-.84-.83zm4.17 0a.83.83 0 0 0-.84.83v1.65a.84.84 0 0 0 1.67 0v-1.65a.83.83 0 0 0-.83-.83z"/><path id="path1_fill" d="M25 0c-.3 0-.62.06-.91.17L1.28 9.07a1.63 1.63 0 0 0-1.03 1.85c.15.8.83 1.35 1.64 1.35h1.44v1.65c0 .9.75 1.65 1.67 1.65h1.67v16.52H5c-.92 0-1.67.74-1.67 1.65v1.65H1.67c-.92 0-1.67.74-1.67 1.65v4.13c0 .46.37.83.83.83h48.34c.46 0 .83-.37.83-.83v-4.13c0-.9-.75-1.65-1.67-1.65h-1.66v-1.65c0-.9-.75-1.65-1.67-1.65h-1.67V15.57H45c.92 0 1.67-.74 1.67-1.65v-1.65h1.44a1.65 1.65 0 0 0 .61-3.19L25.92.18A2.35 2.35 0 0 0 25 0zm0 1.65c.1 0 .2.02.3.06l22.81 8.9h-2.28a.83.83 0 0 0-.83.83v2.48H5v-1.65h30.83c.46 0 .84-.37.84-.83a.83.83 0 0 0-.84-.83H1.9l22.8-8.9c.1-.04.2-.06.31-.06zm0 2.36a2.5 2.5 0 0 0-2.5 2.47A2.5 2.5 0 0 0 25 8.96a2.5 2.5 0 0 0 2.5-2.48A2.5 2.5 0 0 0 25 4.01zm0 1.44c.57 0 1.04.47 1.04 1.03a1.04 1.04 0 0 1-2.08 0c0-.56.47-1.03 1.04-1.03zm14.17 5.16a.83.83 0 0 0-.84.83c0 .46.38.83.84.83h3.33c.46 0 .83-.37.83-.83a.83.83 0 0 0-.83-.83h-3.33zM8.33 15.57h3.34v16.52H8.33V15.57zm5 0h3.34v16.52h-3.34V15.57zm5 0h3.34v16.52h-3.34V15.57zm5 0h3.34v16.52h-3.34V15.57zm5 0h3.34v16.52h-3.34V15.57zm5 0h3.34v16.52h-3.34V15.57zm5 0h3.34v16.52h-3.34V15.57zM5 33.74h40v2.48c0 .45.37.82.83.82h2.5v3.3H1.67v-3.3h2.5c.46 0 .83-.37.83-.82v-2.48zm3.33 1.65a.83.83 0 0 0-.83.83v1.65a.83.83 0 1 0 1.67 0v-1.65a.83.83 0 0 0-.84-.83zm4.17 0a.83.83 0 0 0-.83.83v1.65a.83.83 0 1 0 1.67 0v-1.65a.83.83 0 0 0-.84-.83zm4.17 0a.83.83 0 0 0-.84.83v1.65a.84.84 0 0 0 1.67 0v-1.65a.83.83 0 0 0-.83-.83zm4.16 0a.83.83 0 0 0-.83.83v1.65a.83.83 0 1 0 1.67 0v-1.65a.83.83 0 0 0-.84-.83zm4.17 0a.83.83 0 0 0-.83.83v1.65a.83.83 0 1 0 1.67 0v-1.65a.83.83 0 0 0-.84-.83zm4.17 0a.83.83 0 0 0-.84.83v1.65a.84.84 0 0 0 1.67 0v-1.65a.83.83 0 0 0-.83-.83zm4.16 0a.83.83 0 0 0-.83.83v1.65a.83.83 0 1 0 1.67 0v-1.65a.83.83 0 0 0-.84-.83zm4.17 0a.83.83 0 0 0-.83.83v1.65a.83.83 0 1 0 1.67 0v-1.65a.83.83 0 0 0-.84-.83zm4.17 0a.83.83 0 0 0-.84.83v1.65a.84.84 0 0 0 1.67 0v-1.65a.83.83 0 0 0-.83-.83z"/></defs></svg>