<svg xmlns="http://www.w3.org/2000/svg" width="18" height="20" viewBox="0 0 18 20">
  <g fill="#000000">
    <path d="M13.75,7.0756125 C13.2466881,7.23571063 12.7755238,7.4916325 12.375,7.84337813 L12.375,1.375 L1.375,1.375 L1.375,15.125 L5.7006125,15.125 C5.56686625,15.5454613 5.5,15.9883556 5.5,16.43125 C5.5,16.4541644 5.50017875,16.4770856 5.50053625,16.5 L0.6875,16.5 L5.55111512e-16,16.5 L5.55111512e-16,15.8125 L5.55111512e-16,0.6875 L5.55111512e-16,0 L0.6875,0 L13.0625,0 L13.75,0 L13.75,0.6875 L13.75,7.0756125 Z M10.8152206,9.625 L8.9375,9.625 L8.9375,8.25 L11,8.25 L11,9.3125175 C10.9335944,9.4134975 10.8720013,9.51786 10.8152206,9.625 Z M8.9375,11.8881125 L8.9375,11 L10.3654994,11 C10.3301687,11.2292675 10.3125,11.459855 10.3125,11.6875 L10.24375,11.6875 C9.80085562,11.6875 9.35796125,11.7543731 8.9375,11.8881125 Z M11,4.125 L11,5.5 L2.75,5.5 L2.75,4.125 L11,4.125 Z M7.5625,8.25 L7.5625,9.625 L2.75,9.625 L2.75,8.25 L7.5625,8.25 Z M7.5625,11 L7.5625,12.375 L2.75,12.375 L2.75,11 L7.5625,11 Z" transform="translate(.125 .75)"/>
    <path d="M3.91875,8.04375 L2.95625,7.08125 L7.08125,2.95625 L8.04375,3.91875 L3.91875,8.04375 Z M4.675,8.25 C4.60625,8.3875 4.5375,8.525 4.4,8.6625 L3.85,9.2125 C3.3,9.7625 2.3375,9.7625 1.7875,9.2125 C1.2375,8.6625 1.2375,7.7 1.7875,7.15 L2.3375,6.6 C2.40625,6.53125 2.54375,6.39375 2.68125,6.325 L4.125,4.95 C3.85,4.88125 3.64375,4.8125 3.36875,4.8125 C2.6125,4.8125 1.925,5.0875 1.375,5.6375 L0.825,6.1875 C-0.275,7.2875 -0.275,9.075 0.825,10.175 C1.375,10.725 2.0625,11 2.81875,11 C3.575,11 4.2625,10.725 4.8125,10.175 L5.3625,9.625 C6.11875,8.86875 6.325,7.8375 6.05,6.875 L4.675,8.25 Z M10.175,0.825 C9.625,0.275 8.9375,0 8.18125,0 C7.425,0 6.7375,0.275 6.1875,0.825 L5.6375,1.375 C4.88125,2.13125 4.675,3.1625 4.95,4.125 L6.39375,2.68125 C6.4625,2.54375 6.53125,2.40625 6.66875,2.3375 L7.21875,1.7875 C7.425,1.5125 7.76875,1.375 8.18125,1.375 C8.59375,1.375 8.9375,1.5125 9.2125,1.7875 C9.7625,2.3375 9.7625,3.3 9.2125,3.85 L8.6625,4.4 C8.525,4.5375 8.45625,4.60625 8.31875,4.675 L6.875,6.05 C7.08125,6.11875 7.35625,6.1875 7.63125,6.1875 C8.3875,6.1875 9.075,5.9125 9.625,5.3625 L10.175,4.8125 C11.275,3.7125 11.275,1.925 10.175,0.825 L10.175,0.825 Z" transform="translate(7 9)"/>
  </g>
</svg>
