<svg xmlns="http://www.w3.org/2000/svg" xmlns:xlink="http://www.w3.org/1999/xlink" width="40" height="41"><use fill="#9DA6AA" transform="translate(0 .85)" xlink:href="#path0_fill"/><defs><path id="path0_fill" d="M6.43 0C5.25 0 4.29.96 4.29 2.14V34.3H1.43c-.79 0-1.43.64-1.43 1.42v1.43A2.86 2.86 0 0 0 2.86 40h34.28A2.86 2.86 0 0 0 40 37.14v-35C40 .96 39.04 0 37.86 0H6.43zm0 1.43h31.43c.4 0 .71.32.71.71v35a1.43 1.43 0 0 1-2.86 0v-1.43c0-.78-.64-1.42-1.42-1.42H5.7V2.14c0-.4.33-.71.72-.71zm6.43 4.28c-.4 0-.72.32-.72.72v.71c-1.18 0-2.14.97-2.14 2.15v2.14c0 1.18.96 2.14 2.14 2.14h1.43c.4 0 .72.32.72.72v2.14c0 .4-.33.71-.72.71h-1.43a.72.72 0 0 1-.71-.71v-.72a.7.7 0 0 0-.72-.71.7.7 0 0 0-.71.71v.72c0 1.18.96 2.14 2.14 2.14v.72c0 .4.32.71.72.71a.7.7 0 0 0 .71-.71v-.72c1.18 0 2.14-.96 2.14-2.14v-2.14c0-1.18-.96-2.15-2.14-2.15h-1.43a.72.72 0 0 1-.71-.71V9.29c0-.4.32-.72.71-.72h1.43c.4 0 .72.32.72.72V10c0 .4.31.71.71.71a.7.7 0 0 0 .71-.71v-.71c0-1.18-.96-2.15-2.14-2.15v-.71c0-.4-.32-.72-.71-.72zm6.43 1.43c-.4 0-.72.32-.72.72 0 .4.32.71.72.71H25a.71.71 0 1 0 0-1.43h-5.71zm8.57 0c-.4 0-.72.32-.72.72 0 .4.32.71.72.71h4.28a.71.71 0 1 0 0-1.43h-4.28zM19.29 10a.71.71 0 1 0 0 1.43h10a.7.7 0 0 0 .71-.72.7.7 0 0 0-.71-.71h-10zm0 7.14c-.4 0-.72.32-.72.72 0 .4.32.71.72.71h12.85a.71.71 0 1 0 0-1.43H19.3zm0 2.86a.71.71 0 1 0 0 1.43H25a.7.7 0 0 0 .71-.72A.7.7 0 0 0 25 20h-5.71zm8.57 0a.71.71 0 1 0 0 1.43h1.43a.7.7 0 0 0 .71-.72.7.7 0 0 0-.71-.71h-1.43zM8.57 28.57a.7.7 0 0 0-.71.72v1.42a.71.71 0 1 0 1.43 0V29.3c0-.4-.32-.72-.72-.72zm3.57 0a.7.7 0 0 0-.71.72v1.42a.71.71 0 1 0 1.43 0V29.3c0-.4-.32-.72-.72-.72zm3.57 0a.7.7 0 0 0-.71.72v1.42a.71.71 0 1 0 1.43 0V29.3c0-.4-.32-.72-.72-.72zm3.58 0c-.4 0-.72.32-.72.72v1.42c0 .4.32.72.72.72a.7.7 0 0 0 .71-.72V29.3c0-.4-.32-.72-.71-.72zm3.57 0c-.4 0-.72.32-.72.72v1.42c0 .4.32.72.72.72a.7.7 0 0 0 .71-.72V29.3c0-.4-.32-.72-.71-.72zm3.57 0c-.4 0-.72.32-.72.72v1.42c0 .4.32.72.72.72a.7.7 0 0 0 .71-.72V29.3c0-.4-.32-.72-.71-.72zm3.57 0a.7.7 0 0 0-.71.72v1.42a.71.71 0 1 0 1.43 0V29.3c0-.4-.32-.72-.72-.72zm3.57 0a.7.7 0 0 0-.71.72v1.42a.71.71 0 1 0 1.43 0V29.3c0-.4-.32-.72-.72-.72zm3.57 0a.7.7 0 0 0-.71.72v1.42a.71.71 0 1 0 1.43 0V29.3c0-.4-.32-.72-.72-.72zM1.43 35.71h32.86v1.43c0 .52.15 1.01.4 1.43H2.85c-.79 0-1.43-.64-1.43-1.43v-1.43z"/></defs></svg>