<svg xmlns="http://www.w3.org/2000/svg" width="64" height="64" fill="none">
  <path fill="url(#paint0_linear)" d="M21.11 56h-6.09c-1.11 0-2.13-.6-2.65-1.58a2.95 2.95 0 0 1 .12-3.05L39.5 9.83c.74-1.15 2-1.83 3.38-1.83h6.09c1.11 0 2.13.6 2.66 1.57.52.98.48 2.13-.13 3.06L24.5 54.17A4.02 4.02 0 0 1 21.11 56zm21.78-46c-.7 0-1.33.34-1.7.92L14.16 52.46a.97.97 0 0 0-.04 1.01 1 1 0 0 0 .9.53h6.1c.68 0 1.32-.34 1.7-.92l27.02-41.54a.97.97 0 0 0 .04-1.01 1 1 0 0 0-.9-.53h-6.09z"/>
  <path fill="url(#paint1_linear)" d="M48 55c-4.96 0-9-4.49-9-10s4.04-10 9-10 9 4.49 9 10-4.04 10-9 10zm0-18c-3.86 0-7 3.59-7 8s3.14 8 7 8 7-3.59 7-8-3.14-8-7-8z"/>
  <path fill="url(#paint2_linear)" d="M16 29c-4.96 0-9-4.49-9-10s4.04-10 9-10 9 4.49 9 10-4.04 10-9 10zm0-18c-3.86 0-7 3.59-7 8s3.14 8 7 8 7-3.59 7-8-3.14-8-7-8z"/>
  <g opacity=".5">
    <path fill="url(#paint3_linear)" d="M42.57 12.46L17.35 51.23a.5.5 0 0 0 .42.77h2.8a1 1 0 0 0 .84-.45l25.24-38.78a.5.5 0 0 0-.42-.77H43.4a1 1 0 0 0-.84.46z"/>
    <path fill="url(#paint4_linear)" d="M48 41c1.42 0 3 1.64 3 4 0 2.36-1.58 4-3 4s-3-1.64-3-4c0-2.36 1.58-4 3-4z"/>
    <path fill="url(#paint5_linear)" d="M16 15c1.42 0 3 1.64 3 4 0 2.36-1.58 4-3 4s-3-1.64-3-4c0-2.36 1.58-4 3-4z"/>
  </g>
  <defs>
    <linearGradient id="paint0_linear" x1="32" x2="32" y1="8" y2="83" gradientUnits="userSpaceOnUse">
      <stop stop-color="#24C4BC"/>
      <stop offset="1" stop-color="#EFD04E"/>
    </linearGradient>
    <linearGradient id="paint1_linear" x1="48" x2="48" y1="8.5" y2="75.5" gradientUnits="userSpaceOnUse">
      <stop stop-color="#24C4BC"/>
      <stop offset="1" stop-color="#EFD04E"/>
    </linearGradient>
    <linearGradient id="paint2_linear" x1="16" x2="16" y1="9" y2="68" gradientUnits="userSpaceOnUse">
      <stop stop-color="#24C4BC"/>
      <stop offset="1" stop-color="#EFD04E"/>
    </linearGradient>
    <linearGradient id="paint3_linear" x1="32" x2="32" y1="12" y2="68.27" gradientUnits="userSpaceOnUse">
      <stop stop-color="#24C4BC"/>
      <stop offset="1" stop-color="#EFD04E"/>
    </linearGradient>
    <linearGradient id="paint4_linear" x1="48" x2="48" y1="41" y2="52.25" gradientUnits="userSpaceOnUse">
      <stop stop-color="#24C4BC"/>
      <stop offset="1" stop-color="#EFD04E"/>
    </linearGradient>
    <linearGradient id="paint5_linear" x1="16" x2="16" y1="15" y2="26.25" gradientUnits="userSpaceOnUse">
      <stop stop-color="#24C4BC"/>
      <stop offset="1" stop-color="#EFD04E"/>
    </linearGradient>
  </defs>
</svg>
