<?xml version="1.0" encoding="UTF-8" standalone="no"?>
<svg width="28px" height="29px" viewBox="0 0 28 29" version="1.1" xmlns="http://www.w3.org/2000/svg" xmlns:xlink="http://www.w3.org/1999/xlink">
    <!-- Generator: Sketch 39 (31667) - http://www.bohemiancoding.com/sketch -->
    <title>Group 2</title>
    <desc>Created with Sketch.</desc>
    <defs></defs>
    <g id="Page-1" stroke="none" stroke-width="1" fill="none" fill-rule="evenodd" opacity="0.300000012">
        <g id="Group-2" fill="#000000">
            <g id="Group">
                <path d="M14.53514,25 L14,25 L13,25 L13,24 L13,19 L11,19 L11,24 L11,25 L10,25 L1,25 L0,25 L0,24 L0,7 L0,6.34375 L0.59375,6.09375 L11.59375,1.09375 L12,0.90625 L12.40625,1.09375 L23.40625,6.09375 L24,6.34375 L24,7 L24,13.39367 C23.70094,13.35505 23.39606,13.33513 23.08649,13.33513 C22.71782,13.33513 22.35497,13.36338 22,13.41782 L22,7.625 L12,3.09375 L2,7.625 L2,23 L9,23 L9,18 L9,17 L10,17 L14,17 L15,17 L15,18 L15,23 L16.18436,23 C16.21358,23.08852 16.24406,23.17513 16.27568,23.25946 L14.53514,25 Z M18.4796,15 L16,15 L16,13 L20,13 L20,14.03319 C19.45365,14.29288 18.94327,14.61874 18.4796,15 L18.4796,15 Z M16,18.90665 L16,17 L16.77557,17 C16.43158,17.58989 16.16784,18.23065 16,18.90665 L16,18.90665 Z M20,9 L20,11 L16,11 L16,9 L20,9 Z M8,9 L8,11 L4,11 L4,9 L8,9 Z M14,9 L14,11 L10,11 L10,9 L14,9 Z M8,13 L8,15 L4,15 L4,13 L8,13 Z M14,13 L14,15 L10,15 L10,13 L14,13 Z M8,17 L8,19 L4,19 L4,17 L8,17 Z" id="Shape"></path>
            </g>
            <g id="Group" transform="translate(14.000000, 15.000000)">
                <path d="M8.64865,0.67027 C5.72973,0.67027 3.2973,3.1027 3.2973,6.02162 C3.2973,7.18919 3.68649,8.16216 4.27027,9.03784 L0.67027,12.63784 L2.03243,14 L5.63243,10.4 C6.50811,10.98378 7.57838,11.37297 8.64865,11.37297 C11.56757,11.37297 14,8.94054 14,6.02162 C14,3.1027 11.56757,0.67027 8.64865,0.67027 L8.64865,0.67027 Z M8.64865,9.42703 C6.8,9.42703 5.24324,7.87027 5.24324,6.02162 C5.24324,4.17297 6.8,2.61621 8.64865,2.61621 C10.4973,2.61621 12.05406,4.17297 12.05406,6.02162 C12.05406,7.87027 10.4973,9.42703 8.64865,9.42703 L8.64865,9.42703 Z" id="Shape"></path>
            </g>
        </g>
    </g>
</svg>