<svg fill="none" height="46" viewBox="0 0 49 46" width="49" xmlns="http://www.w3.org/2000/svg"><path clip-rule="evenodd" d="m48.3574 25.1335c0 11.2425-9.1147 20.3572-20.3572 20.3572s-20.35713-9.1147-20.35713-20.3572c0-11.2436 9.11463-20.35713 20.35713-20.35713 11.2436-.00107 20.3572 9.11353 20.3572 20.35713z" fill="#fff" fill-rule="evenodd"/><path clip-rule="evenodd" d="m9.96296 13.1553c-3.05148 0-8.96296 1.6646-8.96296 4.8889v9.8446c0 1.8985 1.36074 3.1924 3.25926 3.1924h.81481v14.6667h9.77783v-14.6667h.8148c1.8985 0 3.2592-1.2939 3.2592-3.1924v-9.8446c0-3.2243-5.9115-4.8889-8.96294-4.8889z" fill="#a7cce2" fill-rule="evenodd"/><path d="m15.6667 31.148c1.8985 0 3.2592-1.3607 3.2592-3.2592v-9.8446c0-3.2243-5.9115-4.8889-8.96294-4.8889-3.05148 0-8.96296 1.6646-8.96296 4.8889v9.8446c0 1.8985 1.36074 3.2592 3.25926 3.2592" stroke="#2c4971" stroke-width="2"/><path clip-rule="evenodd" d="m9.96275 10.7004c2.27495 0 4.07405-1.86107 4.07405-4.15721v-1.386c0-2.29615-1.7991-4.15719-4.07405-4.15719-2.27497 0-4.07408 1.86104-4.07408 4.15719v1.386c0 2.29614 1.79911 4.15721 4.07408 4.15721z" fill="#fffffe" fill-rule="evenodd"/><path d="m29.5183 34.374c1.8985 0 3.2593-1.3941 3.2593-3.2927v-9.8446c0-3.2242-5.9115-4.822-8.963-4.822h-3.2593m8.1482 29.3333v-21.1852m-18.74075-13.8624c2.27495 0 4.07405-1.86107 4.07405-4.15721v-1.386c0-2.29615-1.7991-4.15719-4.07405-4.15719-2.27497 0-4.07408 1.86104-4.07408 4.15719v1.386c0 2.29614 1.79911 4.15721 4.07408 4.15721z" stroke="#2c4971" stroke-width="2"/><path clip-rule="evenodd" d="m23.8148 13.8936c2.275 0 4.0741-1.8611 4.0741-4.15722v-1.38681c0-2.29615-1.7991-4.15719-4.0741-4.15719s-4.0741 1.86104-4.0741 4.15719v1.38681c0 2.29612 1.7991 4.15722 4.0741 4.15722z" fill="#fffffe" fill-rule="evenodd"/><path d="m41.7407 36.8184c1.8985 0 3.2593-1.3942 3.2593-3.2927v-9.0298c0-3.2242-5.9115-4.822-8.963-4.822h-1.6296m6.5185 26.074v-18.7407m-17.1111-13.1136c2.275 0 4.0741-1.8611 4.0741-4.15722v-1.38681c0-2.29615-1.7991-4.15719-4.0741-4.15719s-4.0741 1.86104-4.0741 4.15719v1.38681c0 2.29612 1.7991 4.15722 4.0741 4.15722z" stroke="#2c4971" stroke-width="2"/><g clip-rule="evenodd" fill-rule="evenodd"><path d="m36.037 17.1528c2.2749 0 4.074-1.8618 4.074-4.1571v-1.3869c0-2.2961-1.7991-4.15714-4.074-4.15714-2.275 0-4.0741 1.86104-4.0741 4.15714v1.3869c0 2.2953 1.7991 4.1571 4.0741 4.1571z" fill="#fffffe"/><path d="m36.0372 17.1528c2.2749 0 4.0741-1.8618 4.0741-4.1571v-1.3869c0-2.2961-1.7992-4.15714-4.0741-4.15714-2.275 0-4.0741 1.86104-4.0741 4.15714v1.3869c0 2.2953 1.7991 4.1571 4.0741 4.1571zm-21.1852 28.5952v-24.4445zm-9.77778-24.4445v24.4445zm4.88889 8.963v15.4815z" stroke="#2c4971" stroke-width="2"/></g></svg>