<svg width="19" height="24" viewBox="0 0 19 24" version="1.1" xmlns="http://www.w3.org/2000/svg" xmlns:xlink="http://www.w3.org/1999/xlink"><title>icons8-apple_pay_filled</title><desc>Created using Figma</desc><g id="Canvas" transform="translate(265 2073)"><g id="icons8-apple_pay_filled"><g id="Vector"><use xlink:href="#path0_fill" transform="translate(-265 -2073)" fill="#FFF"/></g></g></g><defs><path id="path0_fill" d="M 14.0772 0C 12.9 0.0564771 11.4464 0.806719 10.6161 1.86143C 9.85482 2.77071 9.20384 4.24741 9.36878 5.63392C 10.6982 5.7497 12.027 4.9396 12.8574 3.91313C 13.6751 2.85842 14.2153 1.4444 14.0772 0ZM 13.923 6.35091C 11.9845 6.35091 10.5988 7.40986 9.69369 7.40986C 8.77452 7.40986 7.40282 6.3647 5.81684 6.3647C 3.87842 6.3647 1.97997 7.58333 0.979042 9.35953C -1.0778 12.9105 0.445095 18.1674 2.43286 21.0576C 3.40701 22.4893 4.5833 24 6.16928 24C 7.62274 23.9449 8.11475 23.1175 9.86991 23.1175C 11.6377 23.1175 12.1608 24 13.7468 24C 15.3327 24 16.2929 22.5444 17.2656 21.1127C 18.3765 19.489 18.8304 17.9061 18.8571 17.8228C 18.8304 17.796 15.7877 16.6259 15.7595 13.1017C 15.7327 10.1564 18.1579 8.75201 18.2679 8.67011C 16.8962 6.63412 14.6279 6.35091 14.0992 6.35091L 13.923 6.35091Z"/></defs></svg>