<svg width="70" height="70" viewBox="0 0 70 70" fill="none" xmlns="http://www.w3.org/2000/svg"><path d="M2.53129 2.55161H0.273226C0.273226 1.8979 0.180645 1.25435 -6.54651e-07 0.636774L2.16548 -2.58415e-07C2.40822 0.824193 2.53129 1.68226 2.53129 2.55161Z" transform="translate(62.9526 14.3839)" fill="#333"/><path d="M2.25806 9.03226H0C0 4.0521 4.0521 0 9.03226 0C11.9915 0 14.7666 1.45307 16.4556 3.88613L14.6006 5.17436C13.3339 3.34758 11.2519 2.25806 9.03226 2.25806C5.29629 2.25806 2.25806 5.29629 2.25806 9.03226Z" transform="translate(47.4194 7.9032)" fill="#015486"/><path d="M12.6294 13.5484C7.00113 13.5484 2.04355 10.1602 -9.30294e-07 4.91581L2.10338 4.095C3.80822 8.46661 7.93935 11.2903 12.6294 11.2903C18.8548 11.2903 23.9197 6.22548 23.9197 0H26.1777C26.1777 7.47081 20.1002 13.5484 12.6294 13.5484Z" transform="translate(43.8223 50.8064)" fill="#015486"/><path d="M0.256292 2.63629C0.0858078 1.77484 0 0.888548 0 0H2.25806C2.25806 0.741774 2.32919 1.48129 2.47145 2.19822L0.256292 2.63629Z" transform="translate(42.9033 50.8064)" fill="#333"/><path d="M9.03226 9.03226C4.0521 9.03226 0 4.98016 0 0H2.25806C2.25806 3.73597 5.29629 6.77419 9.03226 6.77419C12.7682 6.77419 15.8065 3.73597 15.8065 0H18.0645C18.0645 4.98016 14.0124 9.03226 9.03226 9.03226Z" transform="translate(47.4194 50.8064)" fill="#015486"/><path fill-rule="evenodd" clip-rule="evenodd" d="M38 0H0V51H38V0ZM19 39C26.7319 39 33 32.7319 33 25C33 17.2681 26.7319 11 19 11C11.2681 11 5 17.2681 5 25C5 32.7319 11.2681 39 19 39Z" transform="translate(1 8)" fill="#B2E2F7"/><path d="M2.25806 0H0V9.03226H2.25806V0Z" transform="translate(13.5483 38.3871)" fill="#015486"/><path d="M11.2903 0H0V2.25806H11.2903V0Z" transform="translate(14.6772 63.2258)" fill="#015486"/><path d="M13.5484 0C6.07758 0 0 6.07758 0 13.5484H2.25806C2.25806 7.3229 7.3229 2.25806 13.5484 2.25806C19.7739 2.25806 24.8387 7.3229 24.8387 13.5484H27.0968C27.0968 6.07758 21.0192 0 13.5484 0Z" transform="translate(42.9033 3.38708)" fill="#015486"/><path d="M11.2903 18.0645V3.04839C12.705 2.54597 14.2213 2.25806 15.8065 2.25806C21.2935 2.25806 26.2037 5.53 28.3161 10.5948L30.4003 9.72548C27.9356 3.81726 22.2081 0 15.8065 0C7.09032 0 0 7.09032 0 15.8065C0 24.5226 7.09032 31.6129 15.8065 31.6129C22.2035 31.6129 27.93 27.799 30.3969 21.8965L28.3127 21.026C26.1992 26.0852 21.289 29.3548 15.8065 29.3548C8.33565 29.3548 2.25806 23.2773 2.25806 15.8065C2.25806 10.8048 4.98919 6.43774 9.03226 4.09161V18.0645H11.2903Z" transform="translate(4.51611 18.0646)" fill="#015486"/><path d="M35 0H5.64516C2.53242 0 0 2.53242 0 5.64516V64.3548C0 67.4676 2.53242 70 5.64516 70H35C38.1127 70 40.6452 67.4676 40.6452 64.3548V39.5161H38.3871V58.7097H2.25806V9.03226H38.3871V28.2258H40.6452V5.64516C40.6452 2.53242 38.1127 0 35 0ZM38.3871 60.9677V64.3548C38.3871 66.2223 36.8674 67.7419 35 67.7419H5.64516C3.77774 67.7419 2.25806 66.2223 2.25806 64.3548V60.9677H38.3871ZM2.25806 6.77419V5.64516C2.25806 3.77774 3.77774 2.25806 5.64516 2.25806H35C36.8674 2.25806 38.3871 3.77774 38.3871 5.64516V6.77419H2.25806Z" fill="#015486"/><path d="M40.6452 0C35.7745 0 31.3442 2.57758 28.9224 6.77419H0V20.3226H3.3871L5.64516 16.9355L7.90323 20.3226H11.2903L13.5484 16.9355L15.8065 20.3226H28.9224C31.3442 24.5192 35.7734 27.0968 40.6452 27.0968C48.116 27.0968 54.1936 21.0192 54.1936 13.5484C54.1936 6.07758 48.116 0 40.6452 0ZM40.6452 20.3226C36.9035 20.3226 33.871 17.29 33.871 13.5484C33.871 9.80678 36.9035 6.77419 40.6452 6.77419C44.3868 6.77419 47.4194 9.80678 47.4194 13.5484C47.4194 17.29 44.3868 20.3226 40.6452 20.3226Z" transform="translate(15.8066 20.3226)" fill="url(#paint0_linear)"/><path d="M7.90323 15.8065C3.54629 15.8065 0 12.2613 0 7.90323C0 3.54516 3.54629 0 7.90323 0C12.2602 0 15.8065 3.54516 15.8065 7.90323C15.8065 12.2613 12.2602 15.8065 7.90323 15.8065ZM7.90323 2.25806C4.79048 2.25806 2.25806 4.79048 2.25806 7.90323C2.25806 11.016 4.79048 13.5484 7.90323 13.5484C11.016 13.5484 13.5484 11.016 13.5484 7.90323C13.5484 4.79048 11.016 2.25806 7.90323 2.25806Z" transform="translate(48.5483 25.9678)" fill="#176694"/><defs><linearGradient id="paint0_linear" x2="1" gradientUnits="userSpaceOnUse" gradientTransform="translate(44.3145 -0.244392) scale(34.3168 26.3976) rotate(90)"><stop stop-color="#41CFC8" stop-opacity=".7"/><stop offset="1" stop-color="#24C4BC"/></linearGradient></defs></svg>