<svg xmlns="http://www.w3.org/2000/svg" xmlns:xlink="http://www.w3.org/1999/xlink" width="48" height="50"><use fill="#FFF" xlink:href="#path0_fill"/><use fill="#717D83" xlink:href="#path1_fill"/><use fill="#717D83" transform="translate(25.14 14.984)" xlink:href="#path2_fill"/><defs><path id="path0_fill" d="M30 0c-2.51 0-4.694 1.38-5.872 3.423a8.002 8.002 0 0 0-1.728-.196c-4.412 0-8 3.618-8 8.068a8.076 8.076 0 0 0 4.912 7.435c-.065.473-.112.952-.112 1.44 0 5.783 4.666 10.489 10.4 10.489S40 25.953 40 20.17a10.5 10.5 0 0 0-4.85-8.856 6.851 6.851 0 0 0 1.65-4.456C36.8 3.076 33.75 0 30 0zm-7.6 6.454c-2.647 0-4.8 2.172-4.8 4.841 0 .445.36.807.8.807.44 0 .8-.362.8-.807 0-1.78 1.434-3.227 3.2-3.227.44 0 .8-.362.8-.807a.805.805 0 0 0-.8-.807zM13.038 28.5a10.2 10.2 0 0 0-1.454.066L2.12 29.688A2.418 2.418 0 0 0 0 32.096v10.211c0 .753.338 1.447.925 1.91.584.46 1.334.62 2.056.438l5.25-1.32a5.567 5.567 0 0 1 3.969.482l10.069 5.348c1.05.558 2.2.835 3.353.835a7.133 7.133 0 0 0 3.316-.813l17.04-8.913A3.77 3.77 0 0 0 48 36.914a3.767 3.767 0 0 0-1.453-2.984 3.689 3.689 0 0 0-3.231-.668l-10.729 2.805a4.027 4.027 0 0 0-1.062-1.664 3.99 3.99 0 0 0-3.012-1.072l-1.754.126a3.955 3.955 0 0 1-1.993-.375L17.238 29.5a10.326 10.326 0 0 0-4.2-1zM4 32.272c-.44 0-.8.363-.8.807 0 .444.36.807.8.807h1.6c.44 0 .8-.363.8-.807a.805.805 0 0 0-.8-.807H4zm0 4.034c-.44 0-.8.363-.8.807 0 .444.36.807.8.807h1.6c.44 0 .8-.363.8-.807a.805.805 0 0 0-.8-.807H4zm0 4.034c-.44 0-.8.363-.8.807 0 .445.36.807.8.807h1.6c.44 0 .8-.362.8-.807a.805.805 0 0 0-.8-.807H4z"/><path id="path1_fill" d="M30 0c-2.51 0-4.694 1.38-5.872 3.423a8.002 8.002 0 0 0-1.728-.196c-4.412 0-8 3.618-8 8.068a8.076 8.076 0 0 0 4.912 7.435c-.065.473-.112.952-.112 1.44 0 5.783 4.666 10.489 10.4 10.489S40 25.953 40 20.17a10.5 10.5 0 0 0-4.85-8.856 6.851 6.851 0 0 0 1.65-4.456C36.8 3.076 33.75 0 30 0zm0 1.614c2.869 0 5.2 2.35 5.2 5.244a5.225 5.225 0 0 1-1.51 3.672 10.25 10.25 0 0 0-3.45-.817 8.08 8.08 0 0 0-4.552-5.764A5.163 5.163 0 0 1 30 1.614zM22.4 4.84c2.994 0 5.503 2.086 6.2 4.891-4.238.41-7.738 3.391-8.947 7.375A6.454 6.454 0 0 1 16 11.295c0-3.558 2.872-6.454 6.4-6.454zm0 1.613c-2.647 0-4.8 2.172-4.8 4.841 0 .445.36.807.8.807.44 0 .8-.362.8-.807 0-1.78 1.434-3.227 3.2-3.227.44 0 .8-.362.8-.807a.805.805 0 0 0-.8-.807zm7.2 4.841c4.853 0 8.8 3.98 8.8 8.875s-3.947 8.875-8.8 8.875c-4.853 0-8.8-3.98-8.8-8.875 0-4.894 3.947-8.875 8.8-8.875zM13.037 28.5a10.2 10.2 0 0 0-1.453.066L2.12 29.688A2.418 2.418 0 0 0 0 32.096v10.211c0 .753.338 1.447.925 1.91.584.46 1.334.62 2.056.438l5.25-1.32a5.566 5.566 0 0 1 3.969.482l10.069 5.348c1.05.558 2.2.835 3.353.835a7.133 7.133 0 0 0 3.316-.813l17.04-8.913A3.77 3.77 0 0 0 48 36.914a3.767 3.767 0 0 0-1.453-2.984 3.689 3.689 0 0 0-3.231-.668l-10.729 2.805a4.027 4.027 0 0 0-1.062-1.664 3.99 3.99 0 0 0-3.012-1.072l-1.754.126a3.955 3.955 0 0 1-1.993-.375L17.238 29.5a10.326 10.326 0 0 0-4.2-1zM13 30.113a8.714 8.714 0 0 1 3.553.845l7.531 3.583a5.605 5.605 0 0 0 2.791.527l1.753-.126a2.374 2.374 0 0 1 1.81.643c.49.46.762 1.09.762 1.768v.327a.807.807 0 0 1-.472.738l-2.362 1.068a7.175 7.175 0 0 1-5.625.12l-4.035-1.63a.795.795 0 0 0-1.04.451.804.804 0 0 0 .447 1.047l4.034 1.632a8.776 8.776 0 0 0 6.878-.148l2.36-1.068a2.429 2.429 0 0 0 1.415-2.21l10.916-2.858a2.12 2.12 0 0 1 1.85.384c.53.413.834 1.037.834 1.718 0 .81-.444 1.544-1.156 1.916L28.2 47.753a5.563 5.563 0 0 1-5.188-.016L12.944 42.39a7.139 7.139 0 0 0-5.097-.621l-5.253 1.324a.795.795 0 0 1-.685-.145.807.807 0 0 1-.309-.64V32.096c0-.41.303-.757.706-.804l9.466-1.122A8.89 8.89 0 0 1 13 30.113zm-9 2.16a.806.806 0 1 0 0 1.613h1.6c.44 0 .8-.363.8-.807a.805.805 0 0 0-.8-.807H4zm0 4.033c-.44 0-.8.363-.8.807 0 .444.36.807.8.807h1.6c.44 0 .8-.363.8-.807a.805.805 0 0 0-.8-.807H4zm0 4.034c-.44 0-.8.363-.8.807 0 .445.36.807.8.807h1.6c.44 0 .8-.362.8-.807a.805.805 0 0 0-.8-.807H4z"/><path id="path2_fill" d="M5.353 7.851a.563.563 0 0 1-.563.563H2.906v1.262a.697.697 0 0 1-1.394 0V8.414h-.95a.563.563 0 0 1 0-1.126h.95v-.976H.559a.56.56 0 0 1 0-1.118h.953V1.148C1.512.514 2.025 0 2.659 0h2.774c1.14 0 2.042.283 2.71.848.666.565 1 1.33 1 2.294 0 1.012-.321 1.793-.964 2.344-.638.546-1.546.822-2.724.826H2.906v.976H4.79c.31 0 .563.252.563.563zM2.906 5.194h2.527c.755 0 1.33-.174 1.724-.52.394-.347.591-.853.591-1.518 0-.603-.204-1.09-.613-1.46-.41-.376-.962-.566-1.658-.57H3.71a.803.803 0 0 0-.804.803v3.265z"/></defs></svg>