<svg version="1.1" id="Layer_1" xmlns="http://www.w3.org/2000/svg" xmlns:xlink="http://www.w3.org/1999/xlink" x="0" y="0" viewBox="0 0 48 48" xml:space="preserve" enable-background="new 0 0 48 48"><style type="text/css">.st0{fill:#717d83}</style><path id="path0_fill" class="st0" d="M24,0c-0.5,0-1.1,0.2-1.5,0.5l-3.7,3c-0.2,0.1-0.4,0.2-0.6,0.2l-4.6-0.7	c-1.1-0.2-2.2,0.5-2.6,1.5L9.3,8.8C9.2,9,9,9.2,8.8,9.3L4.4,11c-1,0.4-1.7,1.5-1.5,2.6l0.7,4.6c0,0.2,0,0.4-0.2,0.6l-3,3.7	c-0.7,0.9-0.7,2.1,0,3l3,3.7c0.1,0.2,0.2,0.4,0.2,0.6l-0.7,4.6c-0.2,1.1,0.5,2.2,1.5,2.6l4.4,1.7C9,38.8,9.2,39,9.3,39.2l1.7,4.4	c0.4,1.1,1.5,1.7,2.6,1.5l4.6-0.7c0.2,0,0.4,0,0.6,0.2l3.7,3c0.4,0.4,1,0.5,1.5,0.5c0.5,0,1.1-0.2,1.5-0.5l3.7-3	c0.2-0.1,0.4-0.2,0.6-0.2l4.6,0.7c1.1,0.2,2.2-0.5,2.6-1.5l1.7-4.4c0.1-0.2,0.2-0.4,0.5-0.5l4.4-1.7c1.1-0.4,1.7-1.5,1.5-2.6	l-0.7-4.6c0-0.2,0-0.4,0.2-0.6l3-3.7c0.7-0.9,0.7-2.1,0-3l-3-3.7c-0.1-0.2-0.2-0.4-0.2-0.6l0.7-4.6c0.2-1.1-0.5-2.2-1.5-2.6	l-4.4-1.7C39,9.2,38.8,9,38.7,8.8L37,4.4c-0.4-1-1.5-1.7-2.6-1.5l-4.6,0.7c-0.2,0-0.4,0-0.6-0.2l-3.7-3C25.1,0.2,24.5,0,24,0z M24,1.6c0.2,0,0.4,0.1,0.5,0.2l3.7,3c0.5,0.4,1.2,0.6,1.9,0.5l4.6-0.7C35,4.4,35.4,4.6,35.6,5l1.7,4.4c0.2,0.6,0.7,1.1,1.4,1.4	l4.4,1.7c0.3,0.1,0.6,0.5,0.5,0.9L42.8,18c-0.1,0.7,0.1,1.4,0.5,1.9l3,3.7c0.2,0.3,0.2,0.7,0,1l-3,3.7c-0.4,0.5-0.6,1.2-0.5,1.9	l0.7,4.6c0.1,0.4-0.2,0.7-0.5,0.9l-4.4,1.7c-0.6,0.2-1.1,0.7-1.4,1.4L35.6,43c-0.1,0.3-0.5,0.6-0.9,0.5L30,42.8	c-0.7-0.1-1.4,0.1-1.9,0.5l-3.7,3c-0.3,0.2-0.7,0.2-1,0l-3.7-3c-0.4-0.3-1-0.5-1.5-0.5c-0.1,0-0.2,0-0.4,0l-4.6,0.7	c-0.4,0.1-0.7-0.2-0.9-0.5L11,39.2h0.2c1.2,0,2.3-0.6,3.1-1.5c0.1,0.1,0.2,0.1,0.3,0.1c0.6,0.2,1.5,0.2,2.3,0.2c0.2,0,0.3,0,0.5,0	l13.1-0.8c1.4-0.1,2.5-1.2,2.5-2.6c0-0.6-0.2-1.2-0.6-1.7c0.7-0.5,1.1-1.4,1.1-2.3v-0.4c0-0.7-0.2-1.3-0.6-1.7	c1-0.5,1.6-1.5,1.6-2.7c0-0.9-0.4-1.7-1-2.3c0.6-0.6,1-1.4,1-2.3v-0.2c0-1.6-1.3-2.8-2.8-2.8H22l1.3-5.4c0.3-1.2,0-2.3-0.7-3.3	c-0.7-0.9-1.8-1.5-3-1.5h-0.2c-0.3,0-0.6,0.2-0.7,0.5l-4.9,10.7c-0.7-0.6-1.6-1-2.7-1H5.3c0-0.1,0-0.3,0-0.5l-0.7-4.6	c-0.1-0.4,0.2-0.7,0.5-0.9l4.4-1.7c0.6-0.2,1.1-0.7,1.4-1.4L12.4,5c0.1-0.3,0.5-0.6,0.9-0.5L18,5.2c0.7,0.1,1.4-0.1,1.9-0.5l3.7-3	C23.6,1.7,23.8,1.6,24,1.6z M28,7.8c-0.3,0-0.6,0.3-0.7,0.6l-0.4,1.5c-0.1,0.4,0.1,0.9,0.6,1c0.1,0,0.1,0,0.2,0	c0.4,0,0.7-0.2,0.8-0.6l0.4-1.5c0.1-0.4-0.1-0.9-0.6-1C28.2,7.8,28.1,7.8,28,7.8z M32.1,9.4c-0.3,0-0.6,0.1-0.8,0.4l-0.8,1.4	c-0.2,0.4-0.1,0.9,0.3,1.1c0.1,0.1,0.3,0.1,0.4,0.1c0.3,0,0.5-0.1,0.7-0.4l0.8-1.4c0.2-0.4,0.1-0.9-0.3-1.1	C32.3,9.4,32.2,9.4,32.1,9.4z M19.9,9.9c0.6,0.1,1.1,0.4,1.4,0.8c0.4,0.5,0.6,1.2,0.4,1.9l-1.4,5.7h-0.9c-0.4,0-0.8,0.4-0.8,0.8	c0,0.4,0.4,0.8,0.8,0.8h12.1c0.7,0,1.2,0.5,1.2,1.2v0.2c0,0.7-0.5,1.3-1.2,1.4l-1.2,0.2c-0.4,0.1-0.7,0.4-0.7,0.9	c0,0.4,0.4,0.7,0.8,0.7h0.8c0.8,0,1.4,0.6,1.4,1.4c0,0.7-0.5,1.3-1.2,1.4l-1.2,0.2c-0.4,0.1-0.7,0.4-0.7,0.9c0,0.4,0.4,0.7,0.8,0.7	c0.7,0,1.2,0.5,1.2,1.2v0.4c0,0.6-0.4,1.1-1,1.2L29.9,32c-0.4,0.1-0.7,0.5-0.6,0.9c0,0.4,0.4,0.7,0.8,0.7h0.2c0.3,0,0.5,0.1,0.7,0.3	c0.2,0.2,0.3,0.5,0.3,0.7c0,0.5-0.4,1-1,1l-13.1,0.8c-0.6,0-1.6,0-2.2-0.2c0.1-0.4,0.2-0.7,0.2-1.1V22.4c0-0.6-0.1-1.1-0.3-1.6	c0.1-0.1,0.2-0.2,0.2-0.3L19.9,9.9z M35.3,11.9c-0.2,0-0.4,0.1-0.6,0.2l-1.1,1.1c-0.3,0.3-0.3,0.8,0,1.1c0.2,0.2,0.4,0.2,0.6,0.2	c0.2,0,0.4-0.1,0.6-0.2l1.1-1.1c0.3-0.3,0.3-0.8,0-1.1C35.7,12,35.5,11.9,35.3,11.9z M37.7,15.2c-0.1,0-0.2,0-0.3,0.1L36,16.1	c-0.4,0.2-0.5,0.7-0.3,1.1c0.1,0.3,0.4,0.4,0.7,0.4c0.1,0,0.3,0,0.4-0.1l1.4-0.8c0.4-0.2,0.5-0.7,0.3-1.1	C38.3,15.3,38,15.2,37.7,15.2z M39.5,19.1c-0.1,0-0.2,0-0.3,0l-1.5,0.4c-0.4,0.1-0.7,0.6-0.6,1c0.1,0.4,0.4,0.6,0.8,0.6	c0.1,0,0.1,0,0.2,0l1.5-0.4c0.4-0.1,0.7-0.6,0.6-1C40.1,19.3,39.8,19.1,39.5,19.1z M4.7,19.9c0.1,0,0.1,0,0.2,0h6.3	c1.3,0,2.4,1.1,2.4,2.4v12.8c0,1.3-1.1,2.4-2.4,2.4h-1.1c0,0-0.1,0-0.1,0c-0.2-0.1-0.4-0.3-0.6-0.3L5,35.6c-0.3-0.1-0.6-0.5-0.5-0.9	L5.2,30c0.1-0.7-0.1-1.4-0.5-1.9l-3-3.7c-0.2-0.3-0.2-0.7,0-1L4.7,19.9z M38.4,23.2c-0.4,0-0.8,0.4-0.8,0.8c0,0.4,0.4,0.8,0.8,0.8	H40c0.4,0,0.8-0.4,0.8-0.8c0-0.4-0.4-0.8-0.8-0.8H38.4z"/></svg>