<svg fill="none" height="60" viewBox="0 0 70 60" width="70" xmlns="http://www.w3.org/2000/svg"><path d="m3.28125 0c-1.80725 0-3.28125 1.474-3.28125 3.28125v45.93755c0 1.8072 1.474 3.2812 3.28125 3.2812h40.53715c2.5293 3.9392 6.9427 6.5625 11.9628 6.5625 7.84 0 14.2188-6.3788 14.2188-14.2187 0-5.9046-3.6188-10.9717-8.75-13.1208v-28.44175c0-1.80725-1.474-3.28125-3.2812-3.28125zm0 2.1875h54.68755c.6024 0 1.0937.49133 1.0937 1.09375v3.28125h-56.875v-3.28125c0-.60242.49133-1.09375 1.09375-1.09375zm-1.09375 6.5625h56.875v22.2723c-1.0553-.252-2.149-.3973-3.2813-.3973-7.8399 0-14.2187 6.3788-14.2187 14.2188 0 1.9354.3931 3.7854 1.098 5.4687h-39.37925c-.60242 0-1.09375-.4913-1.09375-1.0937zm14.2187 4.375c-.2777 0-.5596.1068-.7733.3204l-3.6017 3.6017-1.4141-1.4142c-.4273-.4272-1.11942-.4272-1.54667 0-.42724.4273-.42724 1.1194 0 1.5467l2.18747 2.1875c.2137.2136.4914.3204.7733.3204.282 0 .5597-.1068.7734-.3204l4.375-4.375c.4272-.4273.4272-1.1194 0-1.5467-.2137-.2136-.4956-.3204-.7734-.3204zm4.375 2.1875c-.6066 0-1.0937.4913-1.0937 1.0937 0 .6025.4871 1.0938 1.0937 1.0938h4.375c.6067 0 1.0938-.4913 1.0938-1.0938 0-.6024-.4871-1.0937-1.0938-1.0937zm8.75 0c-.6066 0-1.0937.4913-1.0937 1.0937 0 .6025.4871 1.0938 1.0937 1.0938h18.5938c.6067 0 1.0938-.4913 1.0938-1.0938 0-.6024-.4871-1.0937-1.0938-1.0937zm-13.125 6.5625c-.2777 0-.5596.1068-.7733.3204l-3.6017 3.6017-1.4141-1.4142c-.4273-.4272-1.11942-.4272-1.54667 0-.42724.4273-.42724 1.1194 0 1.5467l2.18747 2.1875c.2137.2136.4914.3204.7733.3204.282 0 .5597-.1068.7734-.3204l4.375-4.375c.4272-.4273.4272-1.1194 0-1.5467-.2137-.2136-.4956-.3204-.7734-.3204zm4.375 2.1875c-.6066 0-1.0937.4913-1.0937 1.0937 0 .6025.4871 1.0938 1.0937 1.0938h27.3438c.6067 0 1.0938-.4913 1.0938-1.0938 0-.6024-.4871-1.0937-1.0938-1.0937zm-4.375 6.5625c-.2777 0-.5596.1068-.7733.3204l-3.6017 3.6017-1.4141-1.4142c-.4273-.4272-1.11942-.4272-1.54667 0-.42724.4273-.42724 1.1194 0 1.5467l2.18747 2.1875c.2137.2136.4914.3204.7733.3204.282 0 .5597-.1068.7734-.3204l4.375-4.375c.4272-.4273.4272-1.1194 0-1.5467-.2137-.2136-.4956-.3204-.7734-.3204zm4.375 2.1875c-.6066 0-1.0937.4913-1.0937 1.0937 0 .6025.4871 1.0938 1.0937 1.0938h16.4063c.6067 0 1.0937-.4913 1.0937-1.0938 0-.6024-.487-1.0937-1.0937-1.0937zm35 0c6.6352 0 12.0313 5.3961 12.0313 12.0313 0 6.6351-5.3961 12.0312-12.0313 12.0312-6.6351 0-12.0312-5.3961-12.0312-12.0312 0-6.6352 5.3961-12.0313 12.0312-12.0313zm0 3.2813c-.6066 0-1.0937.4913-1.0937 1.0937v7.6563c0 .1409.0299.2862.0854.4187.0556.1324.1368.252.2393.3546l5.4645 5.4687c.2136.2136.4913.3204.7733.3204s.5597-.1068.7733-.3204c.4273-.4272.4273-1.1194 0-1.5466l-5.1483-5.1483v-7.2034c0-.6024-.4871-1.0937-1.0938-1.0937zm-49.2187 7.6562c-.60669 0-1.09375.4913-1.09375 1.0938v2.1874c0 .6025.48706 1.0938 1.09375 1.0938s1.09375-.4913 1.09375-1.0938v-2.1874c0-.6025-.48706-1.0938-1.09375-1.0938zm5.4687 0c-.6066 0-1.0937.4913-1.0937 1.0938v2.1874c0 .6025.4871 1.0938 1.0937 1.0938.6067 0 1.0938-.4913 1.0938-1.0938v-2.1874c0-.6025-.4871-1.0938-1.0938-1.0938zm5.4688 0c-.6067 0-1.0938.4913-1.0938 1.0938v2.1874c0 .6025.4871 1.0938 1.0938 1.0938s1.0938-.4913 1.0938-1.0938v-2.1874c0-.6025-.4871-1.0938-1.0938-1.0938zm5.4688 0c-.6067 0-1.0938.4913-1.0938 1.0938v2.1874c0 .6025.4871 1.0938 1.0938 1.0938.6066 0 1.0937-.4913 1.0937-1.0938v-2.1874c0-.6025-.4871-1.0938-1.0937-1.0938zm5.4687 0c-.6067 0-1.0937.4913-1.0937 1.0938v2.1874c0 .6025.487 1.0938 1.0937 1.0938s1.0937-.4913 1.0937-1.0938v-2.1874c0-.6025-.487-1.0938-1.0937-1.0938zm5.4687 0c-.6066 0-1.0937.4913-1.0937 1.0938v2.1874c0 .6025.4871 1.0938 1.0937 1.0938.6067 0 1.0938-.4913 1.0938-1.0938v-2.1874c0-.6025-.4871-1.0938-1.0938-1.0938zm5.4688 0c-.6067 0-1.0938.4913-1.0938 1.0938v2.1874c0 .6025.4871 1.0938 1.0938 1.0938s1.0938-.4913 1.0938-1.0938v-2.1874c0-.6025-.4871-1.0938-1.0938-1.0938z" fill="#9da6aa"/></svg>