<svg width="58" height="46" viewBox="0 0 58 46" version="1.1" xmlns="http://www.w3.org/2000/svg" xmlns:xlink="http://www.w3.org/1999/xlink">
<g id="Canvas" fill="none">
<g id="calendar">
<g id="Group">
<g id="Group_2">
<g id="Vector">
<path d="M 51.4515 43.1249C 51.4515 43.6538 51.0324 44.0833 50.516 44.0833L 2.80654 44.0833C 2.29006 44.0833 1.87096 43.654 1.87096 43.1249L 1.87096 15.3335L 51.4515 15.3335L 51.4515 27.7916L 53.3225 27.7916L 53.3225 8.62506C 53.3225 7.04001 52.0634 5.74997 50.516 5.74997L 46.774 5.74997L 46.774 2.87509C 46.774 1.29004 45.515 5.61521e-08 43.9675 5.61521e-08C 42.4202 5.61521e-08 41.1609 1.28983 41.1609 2.87509L 41.1609 5.75018L 12.1613 5.75018L 12.1613 2.87509C 12.1613 1.29004 10.9023 5.61521e-08 9.35481 5.61521e-08C 7.80735 5.61521e-08 6.54827 1.28983 6.54827 2.87509L 6.54827 5.75018L 2.80634 5.75018C 1.25908 5.75018 0 7.04001 0 8.62506L 0 43.1249C 0 44.71 1.25908 46 2.80654 46L 50.5162 46C 52.0634 46 53.3227 44.7102 53.3227 43.1249L 53.3227 41.2083L 51.4517 41.2083L 51.4517 43.1249L 51.4515 43.1249ZM 43.0321 2.87509C 43.0321 2.34701 43.4512 1.91666 43.9677 1.91666C 44.4842 1.91666 44.9031 2.34701 44.9031 2.87509L 44.9031 6.70841C 44.9031 7.23648 44.484 7.66684 43.9675 7.66684C 43.451 7.66684 43.0319 7.23648 43.0319 6.70841L 43.0319 2.87509L 43.0321 2.87509ZM 8.41943 2.87509C 8.41943 2.34701 8.83852 1.91666 9.35501 1.91666C 9.87149 1.91666 10.2906 2.34701 10.2906 2.87509L 10.2906 6.70841C 10.2906 7.23648 9.87149 7.66684 9.35501 7.66684C 8.83852 7.66684 8.41943 7.23648 8.41943 6.70841L 8.41943 2.87509ZM 2.80654 7.66684L 6.72069 7.66684C 7.10806 8.77942 8.13704 9.5835 9.35501 9.5835C 10.573 9.5835 11.602 8.77942 11.9893 7.66684L 41.3344 7.66684C 41.7217 8.77942 42.7507 9.5835 43.9687 9.5835C 45.1867 9.5835 46.2156 8.77942 46.603 7.66684L 50.5162 7.66684C 51.0324 7.66684 51.4517 8.09719 51.4517 8.62527L 51.4517 13.4172L 1.87096 13.4172L 1.87096 8.62506C 1.87096 8.09699 2.29006 7.66684 2.80654 7.66684Z" fill="white"/>
</g>
<g id="Vector_2">
<path d="M 7.95163 16.2917C 3.5671 16.2917 7.06483e-07 12.6377 7.06483e-07 8.14585C 7.06483e-07 3.65402 3.5669 0 7.95163 0C 12.3364 0 15.9033 3.65402 15.9033 8.14585C 15.9033 12.6377 12.3362 16.2917 7.95163 16.2917Z" transform="translate(42.0967 25.875)" fill="#009EE3"/>
</g>
<g id="Vector_3">
<path d="M 1.03836 8.43432L -2.92338e-07 10.029L 3.51282 12.4277L 12.4691 1.21317L 11.021 9.73303e-07L 3.13863 9.8689L 1.03836 8.43432Z" transform="translate(45.3194 25.2683)" fill="white"/>
</g>
<g id="Vector_4">
<path d="M 6.54826 0L -5.48133e-08 0L -5.48133e-08 5.74997L 6.54826 5.74997L 6.54826 0ZM 4.6773 3.83332L 1.87096 3.83332L 1.87096 1.91666L 4.6775 1.91666L 4.6773 3.83332Z" transform="translate(4.67749 18.2084)" fill="white"/>
</g>
<g id="Vector_5">
<path d="M 6.54827 0L 7.06483e-07 0L 7.06483e-07 5.74997L 6.54846 5.74997L 6.54846 0L 6.54827 0ZM 4.6773 3.83332L 1.87096 3.83332L 1.87096 1.91666L 4.6773 1.91666L 4.6773 3.83332Z" transform="translate(14.0323 18.2084)" fill="white"/>
</g>
<g id="Vector_6">
<path d="M 6.54846 0L -7.06483e-07 0L -7.06483e-07 5.74997L 6.54846 5.74997L 6.54846 0ZM 4.6775 3.83332L 1.87096 3.83332L 1.87096 1.91666L 4.6775 1.91666L 4.6775 3.83332Z" transform="translate(23.3869 18.2084)" fill="white"/>
</g>
<g id="Vector_7">
<path d="M 6.54846 0L -7.06483e-07 0L -7.06483e-07 5.74997L 6.54846 5.74997L 6.54846 0ZM 4.6775 3.83332L 1.87096 3.83332L 1.87096 1.91666L 4.6775 1.91666L 4.6775 3.83332Z" transform="translate(32.7417 18.2084)" fill="white"/>
</g>
<g id="Vector_8">
<path d="M 6.54846 0L -7.06483e-07 0L -7.06483e-07 5.74997L 6.54846 5.74997L 6.54846 0ZM 4.6775 3.83332L 1.87096 3.83332L 1.87096 1.91666L 4.6775 1.91666L 4.6775 3.83332Z" transform="translate(42.0965 18.2084)" fill="white"/>
</g>
<g id="Vector_9">
<path d="M 6.54826 7.23738e-07L -5.48133e-08 7.23738e-07L -5.48133e-08 5.74998L 6.54826 5.74998L 6.54826 7.23738e-07ZM 4.6773 3.83332L 1.87096 3.83332L 1.87096 1.91666L 4.6775 1.91666L 4.6773 3.83332Z" transform="translate(4.67749 26.8334)" fill="white"/>
</g>
<g id="Vector_10">
<path d="M 6.54827 7.23738e-07L 7.06483e-07 7.23738e-07L 7.06483e-07 5.74998L 6.54846 5.74998L 6.54846 7.23738e-07L 6.54827 7.23738e-07ZM 4.6773 3.83332L 1.87096 3.83332L 1.87096 1.91666L 4.6773 1.91666L 4.6773 3.83332Z" transform="translate(14.0323 26.8334)" fill="white"/>
</g>
<g id="Vector_11">
<path d="M 6.54846 7.23738e-07L -7.06483e-07 7.23738e-07L -7.06483e-07 5.74998L 6.54846 5.74998L 6.54846 7.23738e-07ZM 4.6775 3.83332L 1.87096 3.83332L 1.87096 1.91666L 4.6775 1.91666L 4.6775 3.83332Z" transform="translate(23.3869 26.8334)" fill="white"/>
</g>
<g id="Vector_12">
<path d="M 6.54846 7.23738e-07L -7.06483e-07 7.23738e-07L -7.06483e-07 5.74998L 6.54846 5.74998L 6.54846 7.23738e-07ZM 4.6775 3.83332L 1.87096 3.83332L 1.87096 1.91666L 4.6775 1.91666L 4.6775 3.83332Z" transform="translate(32.7417 26.8334)" fill="white"/>
</g>
<g id="Vector_13">
<path d="M -5.48133e-08 5.74997L 6.54826 5.74997L 6.54826 0L -5.48133e-08 0L -5.48133e-08 5.74997ZM 1.87096 1.91666L 4.6775 1.91666L 4.6775 3.83332L 1.87096 3.83332L 1.87096 1.91666Z" transform="translate(4.67749 35.4583)" fill="white"/>
</g>
<g id="Vector_14">
<path d="M 7.06483e-07 5.74997L 6.54846 5.74997L 6.54846 0L 7.06483e-07 0L 7.06483e-07 5.74997ZM 1.87096 1.91666L 4.6773 1.91666L 4.6773 3.83332L 1.87096 3.83332L 1.87096 1.91666Z" transform="translate(14.0323 35.4583)" fill="white"/>
</g>
<g id="Vector_15">
<path d="M 0.000200276 5.74997L 6.54846 5.74997L 6.54846 0L -7.06483e-07 0L -7.06483e-07 5.74997L 0.000200276 5.74997ZM 1.87116 1.91666L 4.6777 1.91666L 4.6777 3.83332L 1.87116 3.83332L 1.87116 1.91666Z" transform="translate(23.3869 35.4583)" fill="white"/>
</g>
<g id="Vector_16">
<path d="M 7.06483e-07 5.74997L 6.54847 5.74997L 6.54847 0L 7.06483e-07 0L 7.06483e-07 5.74997ZM 1.87096 1.91666L 4.6773 1.91666L 4.6773 3.83332L 1.87076 3.83332L 1.87076 1.91666L 1.87096 1.91666Z" transform="translate(32.7419 35.4583)" fill="white"/>
</g>
</g>
</g>
</g>
</g>
</svg>

