<svg width="70" height="70" viewBox="0 0 70 70" fill="none" xmlns="http://www.w3.org/2000/svg"><path fill-rule="evenodd" clip-rule="evenodd" d="M35 3C17.3578 3 3 17.3578 3 35C3 52.6422 17.3578 67 35 67C52.6422 67 67 52.6422 67 35C67 17.3578 52.6422 3 35 3ZM35 5.2069C51.4267 5.2069 64.7931 18.5733 64.7931 35C64.7931 51.4267 51.4267 64.7931 35 64.7931C18.5733 64.7931 5.2069 51.4267 5.2069 35C5.2069 18.5733 18.5733 5.2069 35 5.2069ZM17.0517 17.0517C21.7155 12.3879 28.0172 9.76293 34.5172 9.62931C36.0172 9.59914 37.5259 9.69828 39.0345 9.93966C39.6336 10.0345 40.0474 10.6034 39.9483 11.2069C39.8491 11.806 39.2845 12.2198 38.6853 12.1207C31.3578 10.944 23.8534 13.375 18.6164 18.6164C9.5819 27.6509 9.57759 42.3491 18.6164 51.3836C19.0474 51.8147 19.0474 52.5129 18.6164 52.944C18.4009 53.1595 18.1164 53.2672 17.8319 53.2672C17.5517 53.2672 17.2672 53.1595 17.0517 52.944C7.15948 43.0474 7.15948 26.9483 17.0517 17.0517ZM43.4526 11.1509C43.0215 11.1681 42.625 11.4397 42.4655 11.8664C42.25 12.4397 42.5388 13.0733 43.1121 13.2888C43.8965 13.5819 44.6724 13.9181 45.431 14.2974C45.5905 14.3793 45.7586 14.4181 45.9267 14.4181C46.3276 14.4181 46.7155 14.1983 46.9138 13.8103C47.1853 13.2716 46.9655 12.6034 46.4224 12.3276C45.5991 11.9138 44.7414 11.5388 43.8836 11.2155C43.7414 11.1638 43.5948 11.1466 43.4526 11.1509ZM49.0862 15.194C49.2759 14.9569 49.5431 14.8147 49.8233 14.7802C50.0991 14.7457 50.3965 14.819 50.6379 15.0043C51.444 15.6379 52.2198 16.3276 52.9483 17.0517C62.8405 26.9483 62.8405 43.0517 52.9483 52.9483C52.7328 53.1595 52.4483 53.2716 52.1681 53.2716C51.8836 53.2716 51.5991 53.1595 51.3836 52.9483C50.9526 52.5129 50.9526 51.819 51.3836 51.3836C60.4224 42.3491 60.4224 27.6509 51.3836 18.6164C50.7241 17.9526 50.0129 17.319 49.2759 16.7414C48.7931 16.3664 48.7112 15.6767 49.0862 15.194ZM48.2414 25.069C47.9612 25.069 47.6767 25.1767 47.4612 25.3922L31.6897 41.1638L23.6422 33.1164C23.2112 32.6853 22.5129 32.6853 22.0819 33.1164C21.6509 33.5474 21.6509 34.2457 22.0819 34.6767L30.9095 43.5043C31.125 43.7198 31.4052 43.8276 31.6897 43.8276C31.9741 43.8276 32.2543 43.7198 32.4698 43.5043L49.0216 26.9526C49.4526 26.5216 49.4526 25.8233 49.0216 25.3922C48.806 25.1767 48.5215 25.069 48.2414 25.069ZM23.2888 53.6336C23.5129 53.2371 23.9483 53.0388 24.3793 53.0905C24.5172 53.1078 24.6595 53.1552 24.7931 53.2284C25.3233 53.5345 25.5 54.2112 25.194 54.7371L24.0905 56.6466C23.8879 57 23.5172 57.1983 23.1379 57.1983C22.9483 57.1983 22.7586 57.1509 22.5862 57.0517C22.0603 56.7457 21.8793 56.0733 22.1853 55.5431L23.2888 53.6336ZM45.6207 53.0905C45.4785 53.1078 45.3362 53.1552 45.2069 53.2284C44.6767 53.5345 44.5 54.2112 44.806 54.7414L45.9095 56.6509C46.1121 57.0043 46.4828 57.2026 46.8621 57.2026C47.0517 57.2026 47.2414 57.1509 47.4138 57.0517C47.944 56.7457 48.1207 56.0733 47.8147 55.5474L46.7112 53.6379C46.4828 53.2414 46.0474 53.0388 45.6207 53.0905ZM28.3621 56.0517C28.4828 55.6078 28.8534 55.3017 29.2802 55.2414C29.4224 55.2241 29.5733 55.2284 29.7198 55.2715C30.306 55.4267 30.6552 56.0345 30.5 56.6207L29.9267 58.7543C29.7931 59.2457 29.3448 59.569 28.8621 59.569C28.7629 59.569 28.6681 59.5603 28.5733 59.5345C27.9871 59.375 27.6336 58.7715 27.7931 58.1853L28.3621 56.0517ZM40.7241 55.2414C40.5819 55.2241 40.431 55.2284 40.2802 55.2715C39.694 55.4267 39.3448 56.0345 39.5 56.6207L40.0733 58.7543C40.2069 59.2457 40.6509 59.569 41.1379 59.569C41.2371 59.569 41.3319 59.5603 41.4267 59.5345C42.0129 59.375 42.3664 58.7715 42.2069 58.1853L41.6379 56.0517C41.5172 55.6078 41.1466 55.3017 40.7241 55.2414ZM33.8966 57.069C33.8966 56.4569 34.3879 55.9655 35 55.9655C35.6121 55.9655 36.1034 56.4569 36.1034 57.069V59.2759C36.1034 59.8879 35.6121 60.3793 35 60.3793C34.3879 60.3793 33.8966 59.8879 33.8966 59.2759V57.069Z" fill="#6CA300"/></svg>
