<svg fill="none" height="44" viewBox="0 0 40 44" width="40" xmlns="http://www.w3.org/2000/svg"><path clip-rule="evenodd" d="m20 1.91797h12.2084c.4819 3.45454 3.3371 5.73195 6.7916 6.213v17.40663c0 9.3117-16.6181 17.3245-19 17.3245s-19-8.0128-19-17.3245c0-3.389 0-10.9112 0-17.40663 3.45455-.48105 6.30973-2.75846 6.79077-6.213z" fill="#fffffe" fill-rule="evenodd"/><path clip-rule="evenodd" d="m20 1.91797h12.2084c.4819 3.45454 3.3371 5.73195 6.7916 6.213v17.40663c0 9.3117-16.6181 17.3245-19 17.3245s-19-8.0128-19-17.3245c0-3.389 0-10.9112 0-17.40663 3.45455-.48105 6.30973-2.75846 6.79077-6.213z" fill-rule="evenodd" stroke="#003a69" stroke-width="2"/><path d="m31.8256 21.2558c0 6.973-5.6525 12.6263-12.6264 12.6263-6.973 0-12.62547-5.6533-12.62547-12.6263 0-6.9739 5.65247-12.62641 12.62547-12.62641 1.5891 0 3.1091.29364 4.5091.82823" stroke="#003a69" stroke-width="2"/><g clip-rule="evenodd" fill-rule="evenodd"><path d="m31.3832 8.71387-11.3828 11.38273-4.7431-4.7422-3.7939 3.7939 8.537 8.5371 15.1767-15.1767z" fill="#b2e2f7"/><path d="m31.3832 8.71387-11.3828 11.38273-4.7431-4.7422-3.7939 3.7939 8.537 8.5371 15.1767-15.1767z" stroke="#003a69" stroke-width="2"/></g></svg>