<svg width="70" height="70" viewBox="0 0 70 70" version="1.1" xmlns="http://www.w3.org/2000/svg" xmlns:xlink="http://www.w3.org/1999/xlink">
<title>icon_large_cancel</title>
<desc>Created using Figma</desc>
<g id="Canvas" transform="translate(-5902 -298)">
<g id="icon_large_cancel">
<g id="surface1">
<g id="Vector">
<use xlink:href="#path0_fill" transform="translate(5902 298)" fill="#717D83"/>
</g>
</g>
</g>
</g>
<defs>
<path id="path0_fill" d="M 35 0C 15.7038 0 0 15.6991 0 35C 0 54.3009 15.7038 70 35 70C 54.2962 70 70 54.3009 70 35C 70 15.6991 54.2962 0 35 0ZM 35 2.41379C 52.9667 2.41379 67.5862 17.0333 67.5862 35C 67.5862 52.9667 52.9667 67.5862 35 67.5862C 17.0333 67.5862 2.41379 52.9667 2.41379 35C 2.41379 17.0333 17.0333 2.41379 35 2.41379ZM 34.472 7.25081C 27.3626 7.39224 20.4701 10.2728 15.3691 15.3691C 4.54943 26.1934 4.54943 43.8019 15.3691 54.6262C 15.6048 54.8619 15.9159 54.9798 16.2224 54.9798C 16.5335 54.9798 16.8447 54.8619 17.0804 54.6262C 17.5519 54.1548 17.5519 53.391 17.0804 52.9196C 7.19423 43.0381 7.19895 26.9619 17.0804 17.0804C 22.8085 11.3477 31.0163 8.69343 39.0308 9.97575C 39.6862 10.0842 40.3085 9.6316 40.4122 8.97629C 40.5206 8.31627 40.068 7.69397 39.4127 7.59025C 37.7674 7.32624 36.1173 7.21309 34.472 7.25081ZM 44.2403 8.91501C 43.7736 8.93386 43.3398 9.23087 43.1654 9.6976C 42.9297 10.3246 43.2456 11.0176 43.8726 11.2534C 44.7353 11.5739 45.5839 11.9464 46.4089 12.3565C 46.5834 12.4461 46.7672 12.4886 46.9511 12.4886C 47.3895 12.4886 47.8138 12.2481 48.0307 11.8238C 48.3277 11.2298 48.0873 10.5038 47.4933 10.202C 46.5975 9.74946 45.6593 9.34402 44.7165 8.99044C 44.5609 8.93386 44.4006 8.91029 44.2403 8.91501ZM 51.213 12.8846C 50.9065 12.9223 50.6142 13.0731 50.4068 13.3371C 49.9966 13.8605 50.0862 14.6195 50.6142 15.0296C 51.4204 15.6614 52.1936 16.3497 52.9196 17.0804C 62.8058 26.9619 62.8058 43.0381 52.9196 52.9196C 52.4481 53.3957 52.4481 54.1548 52.9196 54.6309C 53.1553 54.8619 53.4665 54.9845 53.7776 54.9845C 54.0841 54.9845 54.3952 54.8619 54.6309 54.6309C 65.4506 43.8066 65.4506 26.1934 54.6309 15.3691C 53.8342 14.577 52.9856 13.8227 52.104 13.1297C 51.84 12.927 51.5147 12.8468 51.213 12.8846ZM 24.7602 23.5533C 24.4538 23.5533 24.1426 23.6712 23.9069 23.9069C 23.4355 24.3784 23.4355 25.1421 23.9069 25.6136L 33.2934 35L 23.9069 44.3864C 23.4355 44.8579 23.4355 45.6216 23.9069 46.0931C 24.1426 46.3288 24.4491 46.4467 24.7602 46.4467C 25.0714 46.4467 25.3778 46.3288 25.6136 46.0931L 35 36.7066L 44.3864 46.0931C 44.6222 46.3288 44.9286 46.4467 45.2398 46.4467C 45.5509 46.4467 45.8574 46.3288 46.0931 46.0931C 46.5645 45.6216 46.5645 44.8579 46.0931 44.3864L 36.7066 35L 46.0931 25.6136C 46.5645 25.1421 46.5645 24.3784 46.0931 23.9069C 45.6216 23.4355 44.8579 23.4355 44.3864 23.9069L 35 33.2934L 25.6136 23.9069C 25.3778 23.6712 25.0667 23.5533 24.7602 23.5533ZM 23.3836 54.7865C 22.9122 54.7299 22.436 54.9468 22.1909 55.3805L 20.984 57.4737C 20.6492 58.0489 20.8473 58.7843 21.4224 59.1191C 21.611 59.2275 21.8184 59.2841 22.0259 59.2841C 22.4407 59.2841 22.8462 59.0672 23.0678 58.6806L 24.2747 56.5874C 24.6094 56.0123 24.4161 55.2721 23.8362 54.9374C 23.6901 54.8572 23.5345 54.8054 23.3836 54.7865ZM 46.6164 54.7865C 46.4608 54.8054 46.3052 54.8572 46.1638 54.9374C 45.5839 55.2721 45.3906 56.0123 45.7253 56.5921L 46.9322 58.6806C 47.1538 59.0672 47.5593 59.2841 47.9741 59.2841C 48.1816 59.2841 48.389 59.2322 48.5776 59.1191C 49.1575 58.7891 49.3508 58.0489 49.016 57.4737L 47.8091 55.3852C 47.5593 54.9515 47.0831 54.7299 46.6164 54.7865ZM 28.7439 57.139C 28.2772 57.205 27.8718 57.5397 27.7398 58.0253L 27.1175 60.359C 26.943 61.0001 27.3296 61.6602 27.9708 61.8346C 28.0745 61.8629 28.1782 61.877 28.2866 61.877C 28.8147 61.877 29.305 61.5187 29.4511 60.9813L 30.0781 58.6476C 30.2478 58.0065 29.866 57.3417 29.2248 57.172C 29.0598 57.1249 28.8995 57.1154 28.7439 57.139ZM 41.2608 57.139C 41.1052 57.1154 40.9402 57.1249 40.7752 57.172C 40.134 57.3417 39.7522 58.0065 39.9219 58.6476L 40.5489 60.9813C 40.695 61.5187 41.1806 61.877 41.7134 61.877C 41.8218 61.877 41.9255 61.8629 42.0292 61.8346C 42.6704 61.6602 43.057 61.0001 42.8825 60.359L 42.2602 58.0253C 42.1282 57.5397 41.7228 57.205 41.2608 57.139ZM 35 57.931C 34.3306 57.931 33.7931 58.4732 33.7931 59.1379L 33.7931 61.5517C 33.7931 62.2165 34.3306 62.7586 35 62.7586C 35.6695 62.7586 36.2069 62.2165 36.2069 61.5517L 36.2069 59.1379C 36.2069 58.4732 35.6695 57.931 35 57.931Z"/>
</defs>
</svg>
