<svg xmlns="http://www.w3.org/2000/svg" width="70" height="70" fill="none"><path fill="#41CFC8" d="M40.64 47.42h-27.1V27.1h27.1v20.32zM65.48 20.32H47.42V9.03h18.06v11.3z"/><path fill="#2E6493" d="M13.55 63.23h-2.26v2.25h2.26v-2.25zM18.06 63.23h-2.25v2.25h2.25v-2.25zM15.8 49.68h-2.25v2.26h2.26v-2.26zM40.65 49.68H18.06v2.26h22.59v-2.26zM40.64 54.2H38.4v2.25h2.25V54.2zM36.13 54.2H13.55v2.25h22.58V54.2zM36.13 31.61H18.06v2.26h18.07v-2.26zM36.13 36.13H22.58v2.26h13.55v-2.26zM20.32 36.13h-2.26v2.26h2.26v-2.26zM36.13 40.65H18.06v2.25h18.07v-2.25z"/><path fill="#2E6493" d="M66.61 0H46.3a3.4 3.4 0 0 0-3.39 3.39V15.8h-35a5.65 5.65 0 0 0-5.64 5.64v37.26H0v5.64A5.65 5.65 0 0 0 5.65 70h51.93a5.65 5.65 0 0 0 5.65-5.65v-5.64h-2.26v-15.8h5.64A3.4 3.4 0 0 0 70 39.5V3.4A3.4 3.4 0 0 0 66.61 0zM46.3 2.26h20.32c.63 0 1.13.5 1.13 1.13v1.13H45.16V3.39c0-.63.5-1.13 1.13-1.13zM9.03 58.7V22.58H42.9v16.94a3.4 3.4 0 0 0 3.39 3.38h7.9v15.81H9.03zm15.8 2.26H38.4v1.13c0 .62-.5 1.13-1.13 1.13h-11.3c-.62 0-1.12-.51-1.12-1.13v-1.13zm42.91-54.2v24.84H45.16V6.77h22.58zM4.52 21.45a3.4 3.4 0 0 1 3.38-3.39h35v2.26H6.77v38.39H4.52V21.45zm56.45 42.9a3.4 3.4 0 0 1-3.39 3.4H5.65a3.4 3.4 0 0 1-3.4-3.4v-3.38h20.33v1.13a3.4 3.4 0 0 0 3.39 3.38h11.29a3.4 3.4 0 0 0 3.39-3.38v-1.13h20.32v3.38zm-2.26-5.64h-2.26v-15.8h2.26v15.8zm7.9-18.06H46.3c-.62 0-1.13-.51-1.13-1.13v-5.65h22.58v5.65c0 .62-.5 1.13-1.13 1.13z"/><path fill="#2E6493" d="M60.97 36.13h-9.03v2.26h9.03v-2.26zM65.48 22.58H47.42v2.26h18.06v-2.26zM60.97 27.1H47.42v2.25h13.55V27.1zM65.48 27.1h-2.25v2.25h2.25V27.1z"/></svg>