<svg width="147" height="128" xmlns="http://www.w3.org/2000/svg" xmlns:xlink="http://www.w3.org/1999/xlink"><use xlink:href="#path0_fill" transform="translate(65.51 50.46)" fill="#5BB56A"/><use xlink:href="#path1_fill" transform="translate(68.19 52.09)" fill="#318C3A"/><use xlink:href="#path2_fill" transform="translate(92.17 65.91)" fill="#318C3A"/><use xlink:href="#path3_fill" transform="translate(87.64 63.23)" fill="#318C3A"/><use xlink:href="#path0_fill" transform="translate(65.51 50.46)" fill="url(#paint4_linear)"/><use xlink:href="#path4_fill" transform="translate(67.7 42.3)" fill="#5BB56A"/><use xlink:href="#path5_fill" transform="translate(70.38 43.96)" fill="#318C3A"/><use xlink:href="#path6_fill" transform="translate(94.36 57.75)" fill="#318C3A"/><use xlink:href="#path7_fill" transform="translate(89.86 55.07)" fill="#318C3A"/><use xlink:href="#path4_fill" transform="translate(67.7 42.3)" fill="url(#paint9_linear)"/><use xlink:href="#path8_fill" transform="translate(51.92 29.56)" fill="url(#paint10_linear)" opacity=".5"/><use xlink:href="#path9_fill" transform="translate(48.95)" fill="#5B3814"/><use xlink:href="#path10_fill" transform="translate(50.29 .78)" fill="#714C24"/><use xlink:href="#path11_fill" transform="translate(90.34 4.74)" fill="#5BB56A"/><use xlink:href="#path11_fill" transform="translate(90.34 4.74)" fill="url(#paint14_linear)"/><use xlink:href="#path12_fill" transform="translate(88.22 6.83)" fill="#318C3A"/><use xlink:href="#path13_fill" transform="translate(63.42 3.46)" fill="#5BB56A"/><use xlink:href="#path14_fill" transform="translate(50.29 7.05)" fill="#895C30"/><use xlink:href="#path15_fill" transform="translate(96.19 14.96)" fill="#AD3B3B"/><use xlink:href="#path16_fill" transform="translate(95.73 15.28)" fill="#D85555"/><use xlink:href="#path17_fill" transform="translate(116.45 30.41)" fill="#F2C724"/><use xlink:href="#path18_fill" transform="translate(55.97 14.96)" fill="#84A3AA"/><use xlink:href="#path19_fill" transform="translate(56.46 15.28)" fill="#BEC7CF"/><use xlink:href="#path20_fill" transform="translate(58.91 30.41)" fill="#F2C724"/><use xlink:href="#path21_fill" transform="translate(52.77 17.51)" fill="#9E6A3B"/><use xlink:href="#path22_fill" transform="translate(87.34 6.92)" fill="url(#paint25_linear)"/><g fill="#5B3814"><use xlink:href="#path23_stroke" transform="translate(51.49 24.1)"/><use xlink:href="#path24_stroke" transform="translate(51.49 25.57)"/><use xlink:href="#path25_stroke" transform="translate(51.49 58.27)"/></g><g fill="#5B3814"><use xlink:href="#path26_stroke" transform="translate(127.89 24.27)"/><use xlink:href="#path27_stroke" transform="translate(127.89 25.74)"/><use xlink:href="#path28_stroke" transform="translate(127.89 58.43)"/></g><use xlink:href="#path29_fill" transform="translate(83.87 75.58)" fill="url(#paint32_linear)" opacity=".5"/><use xlink:href="#path30_fill" transform="translate(81.98 74.44)" fill="#E2AF0E"/><use xlink:href="#path30_fill" transform="translate(81.98 74.44)" fill="url(#paint34_linear)"/><use xlink:href="#path31_fill" transform="translate(81.98 72.57)" fill="#F2C724"/><use xlink:href="#path32_fill" transform="translate(84.04 73.81)" fill="#E0AD0B"/><use xlink:href="#path33_fill" transform="translate(87.3 74.86)" fill="#F2C724"/><use xlink:href="#path34_fill" transform="translate(56.89 67.32)" fill="url(#paint38_linear)" opacity=".5"/><use xlink:href="#path35_fill" transform="translate(54.3 66.73)" fill="#E2AF0E"/><use xlink:href="#path35_fill" transform="translate(54.3 66.73)" fill="url(#paint40_linear)"/><use xlink:href="#path36_fill" transform="translate(54.3 64.87)" fill="#F2C724"/><use xlink:href="#path37_fill" transform="translate(56.36 66.11)" fill="#E0AD0B"/><use xlink:href="#path38_fill" transform="translate(59.63 67.15)" fill="#F2C724"/><use xlink:href="#path39_fill" transform="translate(106.68 57.29)" fill="url(#paint44_linear)" opacity=".5"/><use xlink:href="#path40_fill" transform="translate(103.35 56.31)" fill="#E2AF0E"/><use xlink:href="#path40_fill" transform="translate(103.35 56.31)" fill="url(#paint46_linear)"/><use xlink:href="#path41_fill" transform="translate(103.35 54.45)" fill="#F2C724"/><use xlink:href="#path42_fill" transform="translate(105.41 55.69)" fill="#E0AD0B"/><use xlink:href="#path43_fill" transform="translate(108.71 56.73)" fill="#F2C724"/><use xlink:href="#path44_fill" transform="translate(103.94 53.83)" fill="url(#paint50_linear)" opacity=".5"/><use xlink:href="#path45_fill" transform="translate(102.83 53.08)" fill="#E2AF0E"/><use xlink:href="#path45_fill" transform="translate(102.83 53.08)" fill="url(#paint52_linear)"/><use xlink:href="#path46_fill" transform="translate(102.83 51.21)" fill="#F2C724"/><use xlink:href="#path47_fill" transform="translate(104.88 52.45)" fill="#E0AD0B"/><use xlink:href="#path48_fill" transform="translate(108.18 53.5)" fill="#F2C724"/><use xlink:href="#path49_fill" transform="translate(103.84 51.21)" fill="url(#paint56_linear)" opacity=".5"/><use xlink:href="#path50_fill" transform="translate(103.87 50.59)" fill="#E2AF0E"/><use xlink:href="#path50_fill" transform="translate(103.87 50.59)" fill="url(#paint58_linear)"/><use xlink:href="#path31_fill" transform="translate(103.87 48.73)" fill="#F2C724"/><use xlink:href="#path32_fill" transform="translate(105.93 49.97)" fill="#E0AD0B"/><use xlink:href="#path51_fill" transform="translate(109.2 51.02)" fill="#F2C724"/><use xlink:href="#path52_fill" transform="translate(104.39 48.7)" fill="url(#paint62_linear)" opacity=".5"/><use xlink:href="#path53_fill" transform="translate(102.73 47.62)" fill="#E2AF0E"/><use xlink:href="#path53_fill" transform="translate(102.73 47.62)" fill="url(#paint64_linear)"/><use xlink:href="#path54_fill" transform="translate(102.73 45.76)" fill="#F2C724"/><use xlink:href="#path55_fill" transform="translate(104.79 47)" fill="#E0AD0B"/><use xlink:href="#path56_fill" transform="translate(108.12 48.05)" fill="#F2C724"/><use xlink:href="#path57_fill" transform="translate(43.46 65.55)" fill="url(#paint68_linear)" opacity=".5"/><use xlink:href="#path58_fill" transform="translate(4.18 54.14)" fill="#3D4B5C"/><use xlink:href="#path59_fill" transform="translate(67.18 105.6)" fill="#283542"/><use xlink:href="#path60_fill" transform="translate(62.57 99.06)" fill="url(#paint71_linear)"/><use xlink:href="#path61_fill" transform="translate(3.17 69.8)" fill="#283542"/><use xlink:href="#path61_fill" transform="translate(3.17 69.8)" fill="url(#paint73_linear)"/><use xlink:href="#path62_fill" transform="translate(1.57 70.94)" fill="#3D4B5C"/><use xlink:href="#path63_fill" transform="translate(0 71.86)" fill="#283542"/><use xlink:href="#path64_fill" transform="translate(11.02 57.58)" fill="#5C7289"/><use xlink:href="#path65_fill" transform="translate(11.53 58.07)" fill="#283542"/><use xlink:href="#path66_fill" transform="translate(6.34 40.79)" fill="#FFF"/><use xlink:href="#path67_fill" transform="translate(16.86 62.12)" fill="#B6CCDB"/><use xlink:href="#path67_fill" transform="translate(16.86 62.12)" fill="url(#paint80_linear)"/><use xlink:href="#path68_fill" transform="translate(16.24 61.27)" fill="#283542"/><use xlink:href="#path69_fill" transform="rotate(149.26 16.89 45.07) skewX(.02)" fill="#9E3535"/><use xlink:href="#path70_fill" transform="matrix(-.85949 .51126 -.51155 -.85931 54.43 74.52)" fill="#C45957"/><use xlink:href="#path71_fill" transform="matrix(-.85949 .51126 -.51155 -.85931 49.16 78.28)" fill="#B6CCDB"/><use xlink:href="#path71_fill" transform="matrix(-.85949 .51126 -.51155 -.85931 49.17 77.65)" fill="#FFF"/><use xlink:href="#path72_fill" transform="matrix(-.85949 .51126 -.51155 -.85931 43.9 81.41)" fill="#B6CCDB"/><use xlink:href="#path73_fill" transform="matrix(-.85949 .51126 -.51155 -.85931 43.89 80.76)" fill="#FFF"/><use xlink:href="#path74_fill" transform="matrix(-.85949 .51126 -.51155 -.85931 38.62 84.52)" fill="#B6CCDB"/><use xlink:href="#path74_fill" transform="matrix(-.85949 .51126 -.51155 -.85931 38.63 83.9)" fill="#FFF"/><use xlink:href="#path75_fill" transform="matrix(-.97642 -.21612 .21628 -.97638 60.02 81.76)" fill="#2497B2"/><use xlink:href="#path75_fill" transform="matrix(-.97642 -.21612 .21628 -.97638 60.02 81.14)" fill="#3BBEDF"/><use xlink:href="#path76_fill" transform="matrix(-.97642 -.21602 .21618 -.97638 54.41 85.03)" fill="#2497B2"/><use xlink:href="#path77_fill" transform="matrix(-.97642 -.21602 .21618 -.97638 54.41 84.37)" fill="#3BBEDF"/><use xlink:href="#path78_fill" transform="matrix(-.97642 -.21602 .21618 -.97638 48.81 88.26)" fill="#2497B2"/><use xlink:href="#path78_fill" transform="matrix(-.97642 -.21602 .21618 -.97638 48.8 87.63)" fill="#3BBEDF"/><use xlink:href="#path79_fill" transform="matrix(-.97642 -.21612 .21628 -.97638 43.24 91.52)" fill="#9E3535"/><use xlink:href="#path80_fill" transform="matrix(-.97642 -.21602 .21618 -.97638 43.23 90.87)" fill="#C45957"/><use xlink:href="#path81_fill" transform="matrix(-.97642 -.21612 .21628 -.97638 66.43 86.33)" fill="#2497B2"/><use xlink:href="#path82_fill" transform="matrix(-.97642 -.21602 .21618 -.97638 66.43 85.68)" fill="#3BBEDF"/><use xlink:href="#path83_fill" transform="matrix(-.97642 -.21602 .21618 -.97638 60.82 89.56)" fill="#2497B2"/><use xlink:href="#path84_fill" transform="matrix(-.97642 -.21612 .21628 -.97638 60.83 88.93)" fill="#3BBEDF"/><use xlink:href="#path85_fill" transform="matrix(-.97642 -.21602 .21618 -.97638 55.21 92.82)" fill="#2497B2"/><use xlink:href="#path86_fill" transform="matrix(-.97642 -.21602 .21618 -.97638 55.22 92.17)" fill="#3BBEDF"/><use xlink:href="#path87_fill" transform="matrix(-.97642 -.21602 .21618 -.97638 49.64 96.06)" fill="#E25D4B"/><use xlink:href="#path87_fill" transform="matrix(-.97642 -.21602 .21618 -.97638 49.64 95.43)" fill="#FF7F66"/><use xlink:href="#path88_fill" transform="matrix(-.97642 -.21602 .21618 -.97638 72.62 90.87)" fill="#2497B2"/><use xlink:href="#path88_fill" transform="matrix(-.97642 -.21602 .21618 -.97638 72.62 90.24)" fill="#3BBEDF"/><use xlink:href="#path89_fill" transform="matrix(-.97642 -.21612 .21628 -.97638 67.02 94.12)" fill="#2497B2"/><use xlink:href="#path84_fill" transform="matrix(-.97642 -.21612 .21628 -.97638 67.03 93.47)" fill="#3BBEDF"/><use xlink:href="#path90_fill" transform="matrix(-.97642 -.21602 .21618 -.97638 61.44 97.36)" fill="#2497B2"/><use xlink:href="#path90_fill" transform="matrix(-.97642 -.21602 .21618 -.97638 61.44 96.74)" fill="#3BBEDF"/><use xlink:href="#path90_fill" transform="matrix(-.97642 -.21602 .21618 -.97638 78.37 95.57)" fill="#2497B2"/><use xlink:href="#path90_fill" transform="matrix(-.97642 -.21602 .21618 -.97638 78.37 94.95)" fill="#3BBEDF"/><use xlink:href="#path91_fill" transform="matrix(-.97642 -.21602 .21618 -.97638 72.79 98.84)" fill="#2497B2"/><use xlink:href="#path92_fill" transform="matrix(-.97642 -.21602 .21618 -.97638 72.8 98.18)" fill="#3BBEDF"/><use xlink:href="#path93_fill" transform="matrix(-.97642 -.21612 .21628 -.97638 67.2 102.06)" fill="#2497B2"/><use xlink:href="#path93_fill" transform="matrix(-.97642 -.21612 .21628 -.97638 67.2 101.43)" fill="#3BBEDF"/><use xlink:href="#path94_fill" transform="translate(50.92 96.86)" fill="#7CA550"/><use xlink:href="#path95_fill" transform="translate(50.92 96.24)" fill="#9FCF74"/><use xlink:href="#path96_fill" transform="translate(65.67 97.62)" fill="#B6CCDB"/><use xlink:href="#path97_fill" transform="translate(17.81 46.02)" fill="#283542"/><use xlink:href="#path98_fill" transform="translate(18.92 48.4)" fill="#283542"/><use xlink:href="#path99_fill" transform="translate(13.07 52.23)" fill="#283542"/><use xlink:href="#path100_fill" transform="translate(13.98 55.43)" fill="#283542"/><g fill="#283542"><use xlink:href="#path101_fill" transform="translate(21.34 64.8)"/><use xlink:href="#path102_fill" transform="translate(23.69 66.92)"/><use xlink:href="#path103_fill" transform="translate(26.07 69.01)"/><use xlink:href="#path104_fill" transform="translate(29.64 78.42)"/><use xlink:href="#path105_fill" transform="translate(38.98 71.3)"/></g><use xlink:href="#path106_fill" transform="translate(16.86 72.25)" fill="#FFF" opacity=".4"/><use xlink:href="#path107_fill" transform="translate(18.82 75.42)" fill="#FFF" opacity=".4"/><use xlink:href="#path108_fill" transform="translate(95.8 82.39)" fill="url(#paint132_linear)" opacity=".5"/><use xlink:href="#path109_fill" transform="translate(93.06 82.39)" fill="#32879B"/><use xlink:href="#path109_fill" transform="translate(93.06 82.39)" fill="url(#paint134_linear)"/><use xlink:href="#path110_fill" transform="translate(93.06 81.83)" fill="#42A1A8"/><use xlink:href="#path111_fill" transform="translate(120.73 83.84)" fill="#FFD45A"/><use xlink:href="#path112_fill" transform="translate(112.7 102.4)" fill="#F7CE4D"/><use xlink:href="#path113_fill" transform="translate(112.25 103.84)" fill="#D3514A"/><use xlink:href="#path114_stroke" transform="translate(106.03 99.42)" fill="#F5F5F5"/><use xlink:href="#path115_stroke" transform="translate(116.19 93.64)" fill="#F5F5F5"/><use xlink:href="#path116_stroke" transform="translate(125.73 89.46)" fill="#F5F5F5"/><use xlink:href="#path117_stroke" transform="translate(132.59 92.66)" fill="#F5F5F5"/><use xlink:href="#path118_stroke" transform="translate(98.15 96.02)" fill="#F5F5F5"/><use xlink:href="#path110_fill" transform="translate(93.06 81.83)" fill="url(#paint144_linear)"/><defs><linearGradient id="paint4_linear" x2="1" gradientUnits="userSpaceOnUse" gradientTransform="matrix(14.8148 -50.8658 50.8854 14.8091 -3.24 44.45)"><stop offset="0" stop-color="#FFF" stop-opacity="0"/><stop offset="1" stop-color="#5BB56A"/></linearGradient><linearGradient id="paint9_linear" x2="1" gradientUnits="userSpaceOnUse" gradientTransform="matrix(21.0412 -27.2572 27.2677 21.0332 13.1 14.71)"><stop offset="0" stop-color="#FFF" stop-opacity="0"/><stop offset="1" stop-color="#5BB56A"/></linearGradient><linearGradient id="paint10_linear" x2="1" gradientUnits="userSpaceOnUse" gradientTransform="matrix(0 84.0541 -84.0863 0 85 -41.03)"><stop offset=".06" stop-color="#FFF" stop-opacity="0"/><stop offset=".12" stop-color="#DFE1E3" stop-opacity=".13"/><stop offset=".21" stop-color="#B3B8BD" stop-opacity=".33"/><stop offset=".3" stop-color="#9198A0" stop-opacity=".52"/><stop offset=".39" stop-color="#79818A" stop-opacity=".7"/><stop offset=".46" stop-color="#6A737D" stop-opacity=".86"/><stop offset=".53" stop-color="#656E79"/></linearGradient><linearGradient id="paint14_linear" x2="1" gradientUnits="userSpaceOnUse" gradientTransform="matrix(-10.6204 15.6718 -15.6778 -10.6164 31.8 5.5)"><stop offset="0" stop-color="#FFF" stop-opacity="0"/><stop offset="1" stop-color="#5BB56A"/></linearGradient><linearGradient id="paint25_linear" x2="1" gradientUnits="userSpaceOnUse" gradientTransform="matrix(0 157.686 -157.747 0 80.45 -33.11)"><stop offset=".06" stop-color="#FFF" stop-opacity="0"/><stop offset=".21" stop-color="#D5CCC3" stop-opacity=".16"/><stop offset=".36" stop-color="#B1A08F" stop-opacity=".32"/><stop offset=".5" stop-color="#927B63" stop-opacity=".47"/><stop offset=".64" stop-color="#7A5E40" stop-opacity=".62"/><stop offset=".78" stop-color="#694928" stop-opacity=".76"/><stop offset=".9" stop-color="#5F3C19" stop-opacity=".89"/><stop offset="1" stop-color="#5B3814"/></linearGradient><linearGradient id="paint32_linear" x2="1" gradientUnits="userSpaceOnUse" gradientTransform="matrix(7.40283 -11.3467 11.3511 7.39999 -2.04 8.4)"><stop offset=".06" stop-color="#FFF" stop-opacity="0"/><stop offset=".12" stop-color="#DFE1E3" stop-opacity=".13"/><stop offset=".21" stop-color="#B3B8BD" stop-opacity=".33"/><stop offset=".3" stop-color="#9198A0" stop-opacity=".52"/><stop offset=".39" stop-color="#79818A" stop-opacity=".7"/><stop offset=".46" stop-color="#6A737D" stop-opacity=".86"/><stop offset=".53" stop-color="#656E79"/></linearGradient><linearGradient id="paint34_linear" x2="1" gradientUnits="userSpaceOnUse" gradientTransform="matrix(-19.7647 0 0 19.7571 15.12 -5.26)"><stop offset="0" stop-color="#FFF" stop-opacity="0"/><stop offset="1" stop-color="#E2AF0E"/></linearGradient><linearGradient id="paint38_linear" x2="1" gradientUnits="userSpaceOnUse" gradientTransform="matrix(7.40283 -11.3467 11.3511 7.39999 -2.02 8.4)"><stop offset=".06" stop-color="#FFF" stop-opacity="0"/><stop offset=".12" stop-color="#DFE1E3" stop-opacity=".13"/><stop offset=".21" stop-color="#B3B8BD" stop-opacity=".33"/><stop offset=".3" stop-color="#9198A0" stop-opacity=".52"/><stop offset=".39" stop-color="#79818A" stop-opacity=".7"/><stop offset=".46" stop-color="#6A737D" stop-opacity=".86"/><stop offset=".53" stop-color="#656E79"/></linearGradient><linearGradient id="paint40_linear" x2="1" gradientUnits="userSpaceOnUse" gradientTransform="matrix(19.7647 0 0 19.7571 3.1 -5.26)"><stop offset="0" stop-color="#FFF" stop-opacity="0"/><stop offset="1" stop-color="#E2AF0E"/></linearGradient><linearGradient id="paint44_linear" x2="1" gradientUnits="userSpaceOnUse" gradientTransform="matrix(7.67135 -11.7583 11.7628 7.66841 -2.1 8.7)"><stop offset=".06" stop-color="#FFF" stop-opacity="0"/><stop offset=".12" stop-color="#DFE1E3" stop-opacity=".13"/><stop offset=".21" stop-color="#B3B8BD" stop-opacity=".33"/><stop offset=".3" stop-color="#9198A0" stop-opacity=".52"/><stop offset=".39" stop-color="#79818A" stop-opacity=".7"/><stop offset=".46" stop-color="#6A737D" stop-opacity=".86"/><stop offset=".53" stop-color="#656E79"/></linearGradient><linearGradient id="paint46_linear" x2="1" gradientUnits="userSpaceOnUse" gradientTransform="matrix(15.9078 0 0 15.9017 7.32 -3.33)"><stop offset="0" stop-color="#FFF" stop-opacity="0"/><stop offset="1" stop-color="#E2AF0E"/></linearGradient><linearGradient id="paint50_linear" x2="1" gradientUnits="userSpaceOnUse" gradientTransform="matrix(7.40283 -11.3467 11.3511 7.39999 -2.02 8.38)"><stop offset=".06" stop-color="#FFF" stop-opacity="0"/><stop offset=".12" stop-color="#DFE1E3" stop-opacity=".13"/><stop offset=".21" stop-color="#B3B8BD" stop-opacity=".33"/><stop offset=".3" stop-color="#9198A0" stop-opacity=".52"/><stop offset=".39" stop-color="#79818A" stop-opacity=".7"/><stop offset=".46" stop-color="#6A737D" stop-opacity=".86"/><stop offset=".53" stop-color="#656E79"/></linearGradient><linearGradient id="paint52_linear" x2="1" gradientUnits="userSpaceOnUse" gradientTransform="matrix(18.2837 0 0 18.2767 2.48 -4.52)"><stop offset="0" stop-color="#FFF" stop-opacity="0"/><stop offset="1" stop-color="#E2AF0E"/></linearGradient><linearGradient id="paint56_linear" x2="1" gradientUnits="userSpaceOnUse" gradientTransform="matrix(7.40287 -11.3467 11.3511 7.40003 -2 8.38)"><stop offset=".06" stop-color="#FFF" stop-opacity="0"/><stop offset=".12" stop-color="#DFE1E3" stop-opacity=".13"/><stop offset=".21" stop-color="#B3B8BD" stop-opacity=".33"/><stop offset=".3" stop-color="#9198A0" stop-opacity=".52"/><stop offset=".39" stop-color="#79818A" stop-opacity=".7"/><stop offset=".46" stop-color="#6A737D" stop-opacity=".86"/><stop offset=".53" stop-color="#656E79"/></linearGradient><linearGradient id="paint58_linear" x2="1" gradientUnits="userSpaceOnUse" gradientTransform="matrix(16.7211 0 0 16.7147 5.22 -3.73)"><stop offset="0" stop-color="#FFF" stop-opacity="0"/><stop offset="1" stop-color="#E2AF0E"/></linearGradient><linearGradient id="paint62_linear" x2="1" gradientUnits="userSpaceOnUse" gradientTransform="matrix(7.23397 -11.0879 11.0921 7.2312 -1.85 7.8)"><stop offset=".06" stop-color="#FFF" stop-opacity="0"/><stop offset=".12" stop-color="#DFE1E3" stop-opacity=".13"/><stop offset=".21" stop-color="#B3B8BD" stop-opacity=".33"/><stop offset=".3" stop-color="#9198A0" stop-opacity=".52"/><stop offset=".39" stop-color="#79818A" stop-opacity=".7"/><stop offset=".46" stop-color="#6A737D" stop-opacity=".86"/><stop offset=".53" stop-color="#656E79"/></linearGradient><linearGradient id="paint64_linear" x2="1" gradientUnits="userSpaceOnUse" gradientTransform="matrix(19.7647 0 0 19.7571 3.11 -5.26)"><stop offset="0" stop-color="#FFF" stop-opacity="0"/><stop offset="1" stop-color="#E2AF0E"/></linearGradient><linearGradient id="paint68_linear" x2="1" gradientUnits="userSpaceOnUse" gradientTransform="matrix(-124.434 -30.3108 30.3224 -124.386 66.6 111.56)"><stop offset=".06" stop-color="#FFF" stop-opacity="0"/><stop offset=".12" stop-color="#DFE1E3" stop-opacity=".13"/><stop offset=".21" stop-color="#B3B8BD" stop-opacity=".33"/><stop offset=".3" stop-color="#9198A0" stop-opacity=".52"/><stop offset=".39" stop-color="#79818A" stop-opacity=".7"/><stop offset=".46" stop-color="#6A737D" stop-opacity=".86"/><stop offset=".53" stop-color="#656E79"/></linearGradient><linearGradient id="paint71_linear" x2="1" gradientUnits="userSpaceOnUse" gradientTransform="matrix(0 43.4023 43.4189 0 -7.7 -3.27)"><stop offset="0" stop-color="#FFF" stop-opacity="0"/><stop offset=".05" stop-color="#EFF0F1" stop-opacity=".05"/><stop offset=".23" stop-color="#B9BEC4" stop-opacity=".23"/><stop offset=".41" stop-color="#8D959F" stop-opacity=".41"/><stop offset=".57" stop-color="#6A7582" stop-opacity=".58"/><stop offset=".73" stop-color="#515E6D" stop-opacity=".74"/><stop offset=".88" stop-color="#425060" stop-opacity=".88"/><stop offset=".99" stop-color="#3D4B5C"/></linearGradient><linearGradient id="paint73_linear" x2="1" gradientUnits="userSpaceOnUse" gradientTransform="matrix(0 71.7876 71.8151 0 -5.73 19.07)"><stop offset="0" stop-color="#FFF" stop-opacity="0"/><stop offset=".05" stop-color="#EFF0F1" stop-opacity=".05"/><stop offset=".23" stop-color="#B9BEC4" stop-opacity=".23"/><stop offset=".41" stop-color="#8D959F" stop-opacity=".41"/><stop offset=".57" stop-color="#6A7582" stop-opacity=".58"/><stop offset=".73" stop-color="#515E6D" stop-opacity=".74"/><stop offset=".88" stop-color="#425060" stop-opacity=".88"/><stop offset=".99" stop-color="#3D4B5C"/></linearGradient><linearGradient id="paint80_linear" x2="1" gradientUnits="userSpaceOnUse" gradientTransform="matrix(-11.335 22.0948 22.1033 11.3307 9.5 -2.07)"><stop offset="0" stop-color="#FFF" stop-opacity="0"/><stop offset=".25" stop-color="#E3EBF1" stop-opacity=".25"/><stop offset=".53" stop-color="#CADAE5" stop-opacity=".53"/><stop offset=".78" stop-color="#BBD0DE" stop-opacity=".79"/><stop offset=".99" stop-color="#B6CCDB"/></linearGradient><linearGradient id="paint132_linear" x2="1" gradientUnits="userSpaceOnUse" gradientTransform="matrix(-36.9273 -76.3484 76.3776 -36.9132 6.02 71.82)"><stop offset=".06" stop-color="#FFF" stop-opacity="0"/><stop offset=".12" stop-color="#DFE1E3" stop-opacity=".13"/><stop offset=".21" stop-color="#B3B8BD" stop-opacity=".33"/><stop offset=".3" stop-color="#9198A0" stop-opacity=".52"/><stop offset=".39" stop-color="#79818A" stop-opacity=".7"/><stop offset=".46" stop-color="#6A737D" stop-opacity=".86"/><stop offset=".53" stop-color="#656E79"/></linearGradient><linearGradient id="paint134_linear" x2="1" gradientUnits="userSpaceOnUse" gradientTransform="matrix(-51.1801 0 0 51.1604 51.2 -10.67)"><stop offset="0" stop-color="#FFF" stop-opacity="0"/><stop offset="1" stop-color="#42A1A8"/></linearGradient><linearGradient id="paint144_linear" x2="1" gradientUnits="userSpaceOnUse" gradientTransform="matrix(-69.5245 0 0 69.4979 46.73 -19.84)"><stop offset="0" stop-color="#FFF" stop-opacity="0"/><stop offset="1" stop-color="#42A1A8"/></linearGradient><path id="path0_fill" d="M42.8 36.87L0 12.18 21.1 0l42.78 24.7L42.8 36.86z"/><path id="path1_fill" d="M39.96 33.7L0 10.62 18.4 0l39.99 23.06L39.96 33.7zM1.37 10.62L39.96 32.9l17.02-9.83L18.4.82l-17.03 9.8z"/><path id="path2_fill" d="M6.3 2.87c-.61-.88-.65-1.2-.12-1.5.42-.23 1.2-.36 2.02.13.72.43.92.82 1.01 1.05l.04.1 1.27-.33-.03-.07c-.2-.39-.52-.75-1.05-1.07l1.11-.66L9.64 0 8.5.65a4.24 4.24 0 0 0-3.63.13c-1.15.66-.75 1.5-.13 2.32.52.72.52 1.15-.03 1.44-.63.36-1.54.3-2.3-.13-.78-.46-1.04-.98-1.1-1.18l-.04-.1L0 3.5v.07a3 3 0 0 0 1.18 1.27L.03 5.5l.92.5 1.2-.69c1.28.53 2.82.46 3.83-.13.98-.58 1.08-1.27.33-2.32z"/><path id="path3_fill" d="M2.87 9.67c-3.83-2.22-3.83-5.82 0-8 3.82-2.23 10.06-2.23 13.88 0 3.83 2.22 3.83 5.8 0 8-3.82 2.22-10.06 2.22-13.88 0zm13.2-7.61c-3.43-2-9.05-2-12.52 0-3.43 1.99-3.43 5.22 0 7.22 3.43 1.99 9.05 1.99 12.52 0 3.43-2 3.43-5.23 0-7.22z"/><path id="path4_fill" d="M42.8 36.87L0 12.18 21.1 0l42.81 24.7-21.1 12.17z"/><path id="path5_fill" d="M40 33.67L0 10.62 18.4 0l39.99 23.06-18.4 10.61zM1.36 10.62l38.59 22.27 17.02-9.83L18.4.78 1.37 10.62z"/><path id="path6_fill" d="M6.3 2.87c-.61-.88-.65-1.2-.12-1.5.42-.23 1.2-.36 2.02.13.72.43.92.82 1.01 1.05l.04.1 1.27-.33-.03-.07c-.2-.39-.52-.75-1.05-1.07l1.11-.66L9.64 0 8.5.65a4.24 4.24 0 0 0-3.63.13c-1.15.66-.75 1.5-.13 2.32.52.72.52 1.15-.03 1.44-.63.36-1.54.3-2.3-.13-.78-.46-1.04-.98-1.1-1.18l-.04-.1L0 3.5v.07a3 3 0 0 0 1.18 1.27L.03 5.5l.92.5 1.2-.69c1.28.53 2.82.46 3.83-.13.98-.58 1.11-1.27.33-2.32z"/><path id="path7_fill" d="M2.87 9.67c-3.83-2.22-3.83-5.82 0-8 3.82-2.23 10.06-2.23 13.88 0 3.83 2.22 3.83 5.8 0 8-3.82 2.22-10.06 2.22-13.88 0zm13.2-7.61c-3.43-2-9.05-2-12.52 0-3.43 1.99-3.43 5.22 0 7.22 3.43 1.99 9.05 1.99 12.52 0 3.43-2 3.43-5.23 0-7.22z"/><path id="path8_fill" d="M0 31.29h9.38a7.5 7.5 0 0 0 3.72-.98l30.68-17.25L75.35 31.3l2.41-.78L85.28 26a1.3 1.3 0 0 0-.03-2.26L44.24 0 0 31.29z"/><path id="path9_fill" d="M79.6 20.51L45.86 1.05A7.71 7.71 0 0 0 42 0h-2.7a7.7 7.7 0 0 0-3.9 1.05L1.7 20.5A3.43 3.43 0 0 0 0 23.45v35.67c0 .42.23.78.56.94l1.3.76-.23-.76 35.59-20.54h6.86l35.58 20.54-.23.76 1.3-.76c.33-.2.56-.52.56-.94V23.45c0-1.2-.62-2.35-1.7-2.94z"/><path id="path10_fill" d="M76.91 20.51L43.2 1.05a7.7 7.7 0 0 0-7.77 0L1.7 20.5A3.43 3.43 0 0 0 0 23.45v35.67c0 .85.91 1.37 1.63.94l34.4-19.85a4.94 4.94 0 0 1 2.53-.69h1.47c.88 0 1.76.23 2.51.69l34.4 19.85c.73.43 1.64-.1 1.64-.94V23.45a3.3 3.3 0 0 0-1.67-2.94z"/><path id="path11_fill" d="M.13 0l32.51 6.56v16.2L0 4.39.13 0z"/><path id="path12_fill" d="M.03 0L0 .56l31.92 6.46v15.16l.66.55V6.56L.03 0z"/><path id="path13_fill" d="M30.06 1.05a7.7 7.7 0 0 0-7.78 0L0 13.9v28.2h.07l22.21-12.84a7.7 7.7 0 0 1 7.78 0L52.28 42.1h.06V13.88L30.06 1.05z"/><path id="path14_fill" d="M39.3 0c-1.37 0-2.7.36-3.88 1.05L0 21.49v31.36c0 .85.91 1.37 1.63.94l34.4-19.85a4.94 4.94 0 0 1 2.53-.7h1.47c.88 0 1.76.24 2.51.7l34.4 19.85c.73.43 1.64-.1 1.64-.94V21.49L43.2 1.05A7.7 7.7 0 0 0 39.31 0z"/><path id="path15_fill" d="M25.1 35.93L1.04 22.05A2.12 2.12 0 0 1 0 20.22V.79A.8.8 0 0 1 1.18.1l24.37 14.08a2.03 2.03 0 0 1 1.05 1.8v19.1c-.07.75-.85 1.24-1.5.85z"/><path id="path16_fill" d="M25.1 35.93L1.04 22.05A2.12 2.12 0 0 1 0 20.22V.79A.8.8 0 0 1 1.18.1l24.37 14.08a2.03 2.03 0 0 1 1.05 1.8v19.1c-.04.75-.85 1.2-1.5.85z"/><path id="path17_fill" d="M3.4 4.87L0 2.9V0l3.4 2v2.87z"/><path id="path18_fill" d="M1.5 35.93l24.05-13.88a2.12 2.12 0 0 0 1.05-1.83V.79A.8.8 0 0 0 25.42.1L1.05 14.18A2.03 2.03 0 0 0 0 15.98v19.1c.07.75.85 1.24 1.5.85z"/><path id="path19_fill" d="M1.47 35.93l24.05-13.88a2.12 2.12 0 0 0 1.04-1.83V.79A.8.8 0 0 0 25.4.1L1.05 14.18A2.03 2.03 0 0 0 0 15.98v19.1c0 .75.82 1.2 1.47.85z"/><path id="path20_fill" d="M0 4.87L3.4 2.9V0L0 2v2.87z"/><path id="path21_fill" d="M73.65 20.05l-32.94-19a7.71 7.71 0 0 0-7.77 0L0 20.05v18.46a.82.82 0 0 0 1.2.72l31.7-18.3a7.7 7.7 0 0 1 7.78 0l31.7 18.3c.55.32 1.2-.07 1.2-.72V20.05h.07z"/><path id="path22_fill" d="M4.18.23A7.6 7.6 0 0 0 2.25 0C1.5 0 .72.13 0 .33v33.31a4.8 4.8 0 0 1 1.5-.23h1.47c.4 0 .82.07 1.21.13V.23z"/><path id="path23_stroke" d="M.5 0a.5.5 0 0 0-1 0h1zm-1 .49a.5.5 0 0 0 1 0h-1zm0-.49v.49h1V0h-1z"/><path id="path24_stroke" d="M.5 0a.5.5 0 0 0-1 0h1zm-1 32.2a.5.5 0 1 0 1 0h-1zm0-30.59a.5.5 0 0 0 1 0h-1zm1 3.22a.5.5 0 0 0-1 0h1zm-1 3.22a.5.5 0 1 0 1 0h-1zm1 3.22a.5.5 0 0 0-1 0h1zm-1 3.22a.5.5 0 0 0 1 0h-1zm1 3.22a.5.5 0 1 0-1 0h1zm-1 3.22a.5.5 0 0 0 1 0h-1zm1 3.22a.5.5 0 0 0-1 0h1zm-1 3.22a.5.5 0 1 0 1 0h-1zm1 3.22a.5.5 0 0 0-1 0h1zM-.5 0v1.61h1V0h-1zm0 4.83v3.22h1V4.83h-1zm0 6.44v3.22h1v-3.22h-1zm0 6.44v3.22h1v-3.22h-1zm0 6.44v3.22h1v-3.22h-1zm0 6.44v1.61h1v-1.6h-1z"/><path id="path25_stroke" d="M.5 0a.5.5 0 0 0-1 0h1zm-1 .49a.5.5 0 0 0 1 0h-1zm0-.49v.49h1V0h-1z"/><path id="path26_stroke" d="M.5 0a.5.5 0 0 0-1 0h1zm-1 .49a.5.5 0 0 0 1 0h-1zm0-.49v.49h1V0h-1z"/><path id="path27_stroke" d="M.5 0a.5.5 0 0 0-1 0h1zm-1 32.2a.5.5 0 1 0 1 0h-1zm0-30.59a.5.5 0 0 0 1 0h-1zm1 3.22a.5.5 0 0 0-1 0h1zm-1 3.22a.5.5 0 1 0 1 0h-1zm1 3.22a.5.5 0 0 0-1 0h1zm-1 3.22a.5.5 0 0 0 1 0h-1zm1 3.22a.5.5 0 1 0-1 0h1zm-1 3.22a.5.5 0 0 0 1 0h-1zm1 3.22a.5.5 0 0 0-1 0h1zm-1 3.22a.5.5 0 1 0 1 0h-1zm1 3.22a.5.5 0 0 0-1 0h1zM-.5 0v1.61h1V0h-1zm0 4.83v3.22h1V4.83h-1zm0 6.44v3.22h1v-3.22h-1zm0 6.44v3.22h1v-3.22h-1zm0 6.44v3.22h1v-3.22h-1zm0 6.44v1.61h1v-1.6h-1z"/><path id="path28_stroke" d="M.5 0a.5.5 0 0 0-1 0h1zm-1 .49a.5.5 0 0 0 1 0h-1zm0-.49v.49h1V0h-1z"/><path id="path29_fill" d="M17.22 4.6c0-2.54-4.09-4.6-9.12-4.6-1.08 0-2.12.1-3.07.26C2.06 1.01 0 2.58 0 4.38c0 2.54 4.08 4.6 9.12 4.6 1.07 0 2.12-.1 3.07-.26 2.97-.75 5.03-2.29 5.03-4.11z"/><path id="path30_fill" d="M.78 2.74C2.22 1.14 5.4 0 9.12 0c3.72 0 6.89 1.11 8.33 2.74h.78v1.9c0 2.55-4.08 4.6-9.11 4.6C4.08 9.24 0 7.2 0 4.64v-1.9h.78z"/><path id="path31_fill" d="M9.12 9.21c5.03 0 9.11-2.06 9.11-4.6C18.23 2.06 14.15 0 9.12 0 4.08 0 0 2.06 0 4.6c0 2.55 4.08 4.61 9.12 4.61z"/><path id="path32_fill" d="M7.06 6.27c3.9 0 7.06-1.4 7.06-3.13C14.12 1.4 10.96 0 7.06 0 3.16 0 0 1.4 0 3.14c0 1.73 3.16 3.13 7.06 3.13z"/><path id="path33_fill" d="M4.5 2c-.42-.63-.45-.86-.09-1.05.3-.17.85-.26 1.44.1.52.29.65.58.72.71l.03.07.92-.23-.04-.03a1.94 1.94 0 0 0-.72-.75l.79-.46L6.89 0l-.81.46a2.96 2.96 0 0 0-2.58.1c-.82.45-.53 1.07-.1 1.63.36.49.36.81-.03 1.01-.43.26-1.12.2-1.64-.1a1.69 1.69 0 0 1-.78-.85L.9 2.2l-.9.25v.03c.1.3.4.62.85.92l-.82.45.66.36.85-.49a3.2 3.2 0 0 0 2.7-.1c.73-.39.82-.88.27-1.63z"/><path id="path34_fill" d="M17.22 4.6c0-2.54-4.09-4.6-9.12-4.6-1.08 0-2.12.1-3.07.26C2.06 1.01 0 2.58 0 4.38c0 2.54 4.08 4.6 9.12 4.6 1.07 0 2.12-.1 3.07-.26 3-.75 5.03-2.29 5.03-4.11z"/><path id="path35_fill" d="M17.45 2.74C16 1.14 12.85 0 9.12 0 5.39 0 2.22 1.11.78 2.74H0v1.9c0 2.55 4.08 4.6 9.12 4.6 5.03 0 9.11-2.05 9.11-4.6v-1.9h-.78z"/><path id="path36_fill" d="M9.12 9.21c5.03 0 9.11-2.06 9.11-4.6C18.23 2.06 14.15 0 9.12 0 4.08 0 0 2.06 0 4.6c0 2.55 4.08 4.61 9.12 4.61z"/><path id="path37_fill" d="M7.06 6.27c3.9 0 7.06-1.4 7.06-3.13C14.12 1.4 10.96 0 7.06 0 3.16 0 0 1.4 0 3.14c0 1.73 3.16 3.13 7.06 3.13z"/><path id="path38_fill" d="M3.04 2c.42-.63.46-.86.1-1.05-.3-.17-.85-.26-1.44.1-.52.29-.65.58-.72.71l-.03.07-.92-.23.04-.03C.2 1.3.42 1.05.78.82L0 .36.65 0l.82.46c.88-.36 1.9-.33 2.58.1.82.45.52 1.07.1 1.63-.36.49-.36.81.03 1.01.43.26 1.11.2 1.64-.1.55-.32.71-.68.78-.85l.03-.06.92.26v.03c-.1.3-.4.62-.85.92l.81.45-.65.36-.85-.49c-.91.36-2 .33-2.71-.1-.72-.39-.78-.88-.26-1.63z"/><path id="path39_fill" d="M17.84 4.8c0-2.64-4.25-4.8-9.44-4.8-1.11 0-2.2.1-3.2.3C2.12 1.07 0 2.7 0 4.56c0 2.65 4.25 4.8 9.44 4.8 1.11 0 2.2-.1 3.2-.29 3.08-.82 5.2-2.42 5.2-4.28z"/><path id="path40_fill" d="M17.45 2.74C16 1.14 12.85 0 9.12 0 5.39 0 2.22 1.11.78 2.74H0v1.9c0 2.55 4.08 4.6 9.12 4.6 5.03 0 9.11-2.05 9.11-4.6v-1.9h-.78z"/><path id="path41_fill" d="M9.12 9.21c5.03 0 9.11-2.06 9.11-4.6C18.23 2.06 14.15 0 9.12 0 4.08 0 0 2.06 0 4.6c0 2.55 4.08 4.61 9.12 4.61z"/><path id="path42_fill" d="M7.06 6.27c3.9 0 7.06-1.4 7.06-3.13C14.12 1.4 10.96 0 7.06 0 3.16 0 0 1.4 0 3.14c0 1.73 3.16 3.13 7.06 3.13z"/><path id="path43_fill" d="M3.04 2c.42-.63.46-.86.1-1.05-.3-.17-.85-.26-1.44.1-.52.29-.65.58-.72.71l-.03.07-.92-.23.04-.03C.2 1.3.42 1.05.78.82L0 .36.65 0l.82.46c.88-.36 1.9-.33 2.58.1.82.45.52 1.07.1 1.63-.36.49-.36.81.03 1.01.43.26 1.11.2 1.64-.1.55-.32.71-.68.78-.85l.03-.06.92.26v.03c-.1.3-.4.62-.85.92l.82.45-.66.36-.85-.49c-.91.36-2 .33-2.71-.1-.75-.39-.82-.88-.26-1.63z"/><path id="path44_fill" d="M17.22 4.6c0-2.54-4.09-4.6-9.12-4.6-1.08 0-2.12.1-3.07.26C2.06 1.01 0 2.58 0 4.38c0 2.54 4.08 4.6 9.12 4.6 1.07 0 2.12-.1 3.07-.26 3-.75 5.03-2.32 5.03-4.11z"/><path id="path45_fill" d="M17.45 2.74C16 1.14 12.85 0 9.12 0 5.39 0 2.22 1.11.78 2.74H0v1.9c0 2.55 4.08 4.6 9.12 4.6 5.03 0 9.11-2.05 9.11-4.6v-1.9h-.78z"/><path id="path46_fill" d="M9.12 9.21c5.03 0 9.11-2.06 9.11-4.6C18.23 2.06 14.15 0 9.12 0 4.08 0 0 2.06 0 4.6c0 2.55 4.08 4.61 9.12 4.61z"/><path id="path47_fill" d="M7.06 6.27c3.9 0 7.06-1.4 7.06-3.13C14.12 1.4 10.96 0 7.06 0 3.16 0 0 1.4 0 3.14c0 1.73 3.16 3.13 7.06 3.13z"/><path id="path48_fill" d="M3.04 2c.42-.63.46-.86.1-1.05-.3-.17-.85-.26-1.44.1-.52.29-.65.58-.72.71l-.03.07-.92-.23.04-.03C.2 1.3.42 1.05.78.82L0 .36.65 0l.82.46c.88-.36 1.9-.33 2.58.1.82.45.52 1.07.1 1.63-.36.49-.36.81.03 1.01.43.26 1.11.2 1.64-.1.55-.32.71-.68.78-.85l.03-.06.92.26v.03c-.1.3-.4.62-.85.92l.81.45-.65.36-.85-.49c-.91.36-2 .33-2.71-.1-.72-.39-.78-.88-.26-1.63z"/><path id="path49_fill" d="M17.22 4.6c0-2.54-4.09-4.6-9.12-4.6-1.08 0-2.12.1-3.07.26C2.06 1.01 0 2.58 0 4.38c0 2.54 4.08 4.6 9.12 4.6 1.07 0 2.12-.1 3.07-.26 3-.75 5.03-2.32 5.03-4.11z"/><path id="path50_fill" d="M17.45 2.74C16 1.14 12.85 0 9.12 0 5.39 0 2.22 1.11.78 2.74H0v1.9c0 2.55 4.08 4.6 9.12 4.6 5.03 0 9.11-2.05 9.11-4.6v-1.9h-.78z"/><path id="path51_fill" d="M3.04 2c.42-.63.46-.86.1-1.05-.3-.17-.85-.26-1.44.1-.52.29-.65.58-.72.71l-.03.07-.92-.23.04-.03C.2 1.3.42 1.05.78.82L0 .36.65 0l.82.46c.88-.36 1.9-.33 2.58.1.82.45.52 1.07.1 1.63-.36.49-.36.81.03 1.01.43.26 1.11.2 1.64-.1.55-.32.71-.68.78-.85l.03-.06.92.26v.03c-.1.3-.4.62-.85.92l.82.45-.66.36-.85-.49c-.91.36-2 .33-2.71-.1-.72-.39-.78-.88-.26-1.63z"/><path id="path52_fill" d="M16.8 2.61C15.31 1.08 12.18 0 8.6 0 4.76 0 1.5 1.18.15 2.87c-.1.3-.16.6-.16.89 0 2.54 4.08 4.6 9.12 4.6 1.07 0 2.12-.1 3.07-.26 2.97-.75 5.03-2.32 5.03-4.12a2.94 2.94 0 0 0-.43-1.37z"/><path id="path53_fill" d="M17.45 2.74C16 1.14 12.85 0 9.12 0 5.39 0 2.22 1.11.78 2.74H0v1.9c0 2.55 4.08 4.6 9.12 4.6 5.03 0 9.11-2.05 9.11-4.6v-1.9h-.78z"/><path id="path54_fill" d="M9.12 9.21c5.03 0 9.11-2.06 9.11-4.6C18.23 2.06 14.15 0 9.12 0 4.08 0 0 2.06 0 4.6c0 2.55 4.08 4.61 9.12 4.61z"/><path id="path55_fill" d="M7.06 6.27c3.9 0 7.06-1.4 7.06-3.13C14.12 1.4 10.96 0 7.06 0 3.16 0 0 1.4 0 3.14c0 1.73 3.16 3.13 7.06 3.13z"/><path id="path56_fill" d="M3 2c.43-.63.46-.86.1-1.05-.29-.17-.85-.26-1.43.1-.53.29-.66.58-.72.71l-.04.07-.88-.23.04-.03C.2 1.3.42 1.05.78.82L0 .36.65 0l.82.46c.88-.36 1.9-.33 2.58.1.82.45.52 1.07.1 1.63-.36.49-.36.81.03 1.01.43.26 1.11.2 1.64-.1.55-.32.71-.68.78-.85l.03-.06.92.26v.03c-.1.3-.4.62-.85.92l.81.45-.65.36-.85-.49c-.91.36-2 .33-2.71-.1-.78-.39-.85-.88-.3-1.63z"/><path id="path57_fill" d="M14.47 62.45h3.96c3 0 5.94-.79 8.53-2.32l32.64-19.1a2.4 2.4 0 0 0 .06-4.12L0 0l14.47 62.45z"/><path id="path58_fill" d="M0 15.92L27.09.24c.72-.42 1.76-.3 2.87.43l51.7 39.26c1.36.91 2.54 2.31 3.39 3.88a10.1 10.1 0 0 1 1.3 4.67v3.95c0 1.5-.48 2.58-1.3 3.17l-.1.04c-.06.03-.13.1-.23.13L58.1 71.28V60.99l.33-.2L0 15.93z"/><path id="path59_fill" d="M1.11 12.04L19.57 1.4a.72.72 0 0 0 .36-.65c0-.56-.62-.91-1.11-.65L.36 10.73a.72.72 0 0 0-.36.66c0 .55.62.91 1.11.65z"/><path id="path60_fill" d="M28 3.63v3.95c0 1.5-.49 2.58-1.3 3.17l-.1.03c-.07.03-.13.1-.23.13L0 26.16V15.84L27.15 0c.56 1.2.85 2.45.85 3.63z"/><path id="path61_fill" d="M3.95.68l51.7 39.26c2.64 1.77 4.7 5.52 4.7 8.6v3.94c0 3.27-2.29 4.58-5.1 2.94L3.7 25.67a8.21 8.21 0 0 1-3.7-6.4V2.64C0 .16 1.83-.76 3.95.68z"/><path id="path62_fill" d="M3.99.68l51.69 39.26c2.64 1.77 4.7 5.52 4.7 8.6v3.94c0 3.27-2.29 4.58-5.1 2.94L3.7 25.67a8.21 8.21 0 0 1-3.7-6.4V2.64C0 .16 1.83-.76 3.99.68z"/><path id="path63_fill" d="M3.99.68l51.69 39.26c2.64 1.77 4.7 5.52 4.7 8.6v3.94c0 3.27-2.29 4.58-5.1 2.94L3.7 25.67a8.21 8.21 0 0 1-3.7-6.4V2.64C0 .16 1.83-.76 3.99.68z"/><path id="path64_fill" d="M3.49 13.4L23.16 2.03c.72-.42.62-1.14-.2-1.63a3.17 3.17 0 0 0-2.8-.13L.47 11.67c-.72.42-.62 1.14.2 1.63.85.46 2.09.52 2.8.1z"/><path id="path65_fill" d="M1.76 12.7c.4 0 .76-.06.98-.22L22.41 1.1c.07-.03.23-.16.23-.3 0-.1-.13-.29-.45-.48A2.9 2.9 0 0 0 20.85 0c-.4 0-.76.07-.98.23L.23 11.59c-.07.04-.23.17-.23.3 0 .1.13.3.46.49.32.2.81.33 1.3.33z"/><path id="path66_fill" d="M27.41 17.64L6.04 29.85S5.42 17.11 0 12.02L21.1 0s5.9 6.4 6.32 17.64z"/><path id="path67_fill" d="M20.03 0l13.56 10.13-20.26 11.95L0 11.76 20.03 0z"/><path id="path68_fill" d="M20.65.85L.62 12.6 0 12.15 20.65 0l14.18 10.58-.62.4L20.65.84z"/><path id="path69_fill" d="M2.25 2.03c1.25 0 2.26-.46 2.26-1.02S3.5 0 2.25 0C1.01 0 0 .45 0 1.01s1 1.02 2.25 1.02z"/><path id="path70_fill" d="M2.25 2.03c1.25 0 2.26-.46 2.26-1.02S3.5 0 2.25 0C1.01 0 0 .45 0 1.01s1 1.02 2.25 1.02z"/><path id="path71_fill" d="M2.25 2.03c1.25 0 2.26-.46 2.26-1.02S3.5 0 2.25 0C1.01 0 0 .45 0 1.01s1 1.02 2.25 1.02z"/><path id="path72_fill" d="M2.25 2.03c1.25 0 2.26-.46 2.26-1.02S3.5 0 2.25 0C1.01 0 0 .45 0 1.01s1 1.02 2.25 1.02z"/><path id="path73_fill" d="M2.25 2.03c1.25 0 2.26-.46 2.26-1.02S3.5 0 2.25 0C1.01 0 0 .45 0 1.01s1 1.02 2.25 1.02z"/><path id="path74_fill" d="M2.25 2.03c1.25 0 2.26-.46 2.26-1.02S3.5 0 2.25 0C1.01 0 0 .45 0 1.01s1 1.02 2.25 1.02z"/><path id="path75_fill" d="M2.68 3.14c1.48 0 2.68-.7 2.68-1.57C5.36.7 4.16 0 2.68 0 1.2 0 0 .7 0 1.57c0 .86 1.2 1.57 2.68 1.57z"/><path id="path76_fill" d="M2.68 3.14c1.48 0 2.68-.7 2.68-1.57C5.36.7 4.16 0 2.68 0 1.2 0 0 .7 0 1.57c0 .86 1.2 1.57 2.68 1.57z"/><path id="path77_fill" d="M2.68 3.14c1.48 0 2.68-.7 2.68-1.57C5.36.7 4.16 0 2.68 0 1.2 0 0 .7 0 1.57c0 .86 1.2 1.57 2.68 1.57z"/><path id="path78_fill" d="M2.68 3.14c1.48 0 2.68-.7 2.68-1.57C5.36.7 4.16 0 2.68 0 1.2 0 0 .7 0 1.57c0 .86 1.2 1.57 2.68 1.57z"/><path id="path79_fill" d="M2.68 3.14c1.48 0 2.68-.7 2.68-1.57C5.36.7 4.16 0 2.68 0 1.2 0 0 .7 0 1.57c0 .86 1.2 1.57 2.68 1.57z"/><path id="path80_fill" d="M2.68 3.14c1.48 0 2.68-.7 2.68-1.57C5.36.7 4.16 0 2.68 0 1.2 0 0 .7 0 1.57c0 .86 1.2 1.57 2.68 1.57z"/><path id="path81_fill" d="M2.68 3.14c1.48 0 2.68-.7 2.68-1.57C5.36.7 4.16 0 2.68 0 1.2 0 0 .7 0 1.57c0 .86 1.2 1.57 2.68 1.57z"/><path id="path82_fill" d="M2.68 3.14c1.48 0 2.68-.7 2.68-1.57C5.36.7 4.16 0 2.68 0 1.2 0 0 .7 0 1.57c0 .86 1.2 1.57 2.68 1.57z"/><path id="path83_fill" d="M2.68 3.14c1.48 0 2.68-.7 2.68-1.57C5.36.7 4.16 0 2.68 0 1.2 0 0 .7 0 1.57c0 .86 1.2 1.57 2.68 1.57z"/><path id="path84_fill" d="M2.68 3.14c1.48 0 2.68-.7 2.68-1.57C5.36.7 4.16 0 2.68 0 1.2 0 0 .7 0 1.57c0 .86 1.2 1.57 2.68 1.57z"/><path id="path85_fill" d="M2.68 3.14c1.48 0 2.68-.7 2.68-1.57C5.36.7 4.16 0 2.68 0 1.2 0 0 .7 0 1.57c0 .86 1.2 1.57 2.68 1.57z"/><path id="path86_fill" d="M2.68 3.14c1.48 0 2.68-.7 2.68-1.57C5.36.7 4.16 0 2.68 0 1.2 0 0 .7 0 1.57c0 .86 1.2 1.57 2.68 1.57z"/><path id="path87_fill" d="M2.68 3.14c1.48 0 2.68-.7 2.68-1.57C5.36.7 4.16 0 2.68 0 1.2 0 0 .7 0 1.57c0 .86 1.2 1.57 2.68 1.57z"/><path id="path88_fill" d="M2.68 3.14c1.48 0 2.68-.7 2.68-1.57C5.36.7 4.16 0 2.68 0 1.2 0 0 .7 0 1.57c0 .86 1.2 1.57 2.68 1.57z"/><path id="path89_fill" d="M2.68 3.14c1.48 0 2.68-.7 2.68-1.57C5.36.7 4.16 0 2.68 0 1.2 0 0 .7 0 1.57c0 .86 1.2 1.57 2.68 1.57z"/><path id="path90_fill" d="M2.68 3.14c1.48 0 2.68-.7 2.68-1.57C5.36.7 4.16 0 2.68 0 1.2 0 0 .7 0 1.57c0 .86 1.2 1.57 2.68 1.57z"/><path id="path91_fill" d="M2.68 3.14c1.48 0 2.68-.7 2.68-1.57C5.36.7 4.16 0 2.68 0 1.2 0 0 .7 0 1.57c0 .86 1.2 1.57 2.68 1.57z"/><path id="path92_fill" d="M2.68 3.14c1.48 0 2.68-.7 2.68-1.57C5.36.7 4.16 0 2.68 0 1.2 0 0 .7 0 1.57c0 .86 1.2 1.57 2.68 1.57z"/><path id="path93_fill" d="M2.68 3.14c1.48 0 2.68-.7 2.68-1.57C5.36.7 4.16 0 2.68 0 1.2 0 0 .7 0 1.57c0 .86 1.2 1.57 2.68 1.57z"/><path id="path94_fill" d="M.02 1.06C.22.2 1.52-.22 2.96.1c.65.13 1.2.42 1.63.75l5.62 4.57c.59.43.92.95.78 1.47-.2.85-1.5 1.28-2.94.95a3.67 3.67 0 0 1-1.56-.72L.89 2.56c-.61-.4-.97-.95-.87-1.5z"/><path id="path95_fill" d="M.02 1.06C.22.2 1.52-.22 2.96.1c.65.13 1.2.42 1.63.75l5.62 4.57c.59.43.92.95.78 1.47-.2.85-1.5 1.28-2.94.95a3.67 3.67 0 0 1-1.56-.72L.89 2.56c-.61-.42-.97-.98-.87-1.5z"/><path id="path96_fill" d="M.23 8.82c.03 0 .1 0 .13-.03L14.7.46c.13-.07.17-.23.1-.33-.06-.13-.23-.16-.33-.1L.13 8.36a.24.24 0 0 0-.1.33c.04.06.1.13.2.13z"/><path id="path97_fill" d="M.23 5.23c.03 0 .06 0 .13-.04L8.99.46c.13-.07.16-.2.1-.33-.07-.13-.24-.16-.33-.1L.13 4.77c-.13.06-.16.2-.1.33.04.1.1.13.2.13z"/><path id="path98_fill" d="M.23 5.23c.03 0 .06 0 .13-.04L8.99.46c.13-.07.16-.2.1-.33-.07-.13-.24-.16-.33-.1L.13 4.77c-.13.06-.16.2-.1.33.04.06.13.13.2.13z"/><path id="path99_fill" d="M.23 9.34c.03 0 .06 0 .13-.03L16.63.46c.13-.07.16-.2.1-.33-.07-.13-.2-.16-.33-.1L.13 8.88c-.13.07-.16.2-.1.33.04.1.1.13.2.13z"/><path id="path100_fill" d="M.23 9.34c.03 0 .06 0 .13-.03L16.63.46c.13-.07.16-.2.1-.33-.07-.13-.2-.16-.33-.1L.13 8.88c-.13.07-.16.2-.1.33.04.07.1.13.2.13z"/><path id="path101_fill" d="M.23 9.9c.03 0 .1 0 .13-.04L16.04.46c.13-.07.17-.23.1-.33-.06-.13-.23-.16-.33-.1L.13 9.43a.25.25 0 0 0-.1.34c.04.1.1.13.2.13z"/><path id="path102_fill" d="M.23 9.9c.03 0 .1 0 .13-.04L16.04.46c.13-.07.17-.23.1-.33-.06-.13-.23-.16-.33-.1L.13 9.43a.25.25 0 0 0-.1.34c.04.06.13.13.2.13z"/><path id="path103_fill" d="M.23 9.9c.03 0 .1 0 .13-.04L16.04.46c.13-.07.17-.23.1-.33-.06-.13-.23-.16-.33-.1L.13 9.43a.25.25 0 0 0-.1.34c.04.1.1.13.2.13z"/><path id="path104_fill" d="M.23 2.78c.03 0 .1 0 .13-.04L4.15.46a.24.24 0 0 0 .1-.33.24.24 0 0 0-.33-.1L.13 2.32c-.13.06-.16.23-.1.33.04.1.1.13.2.13z"/><path id="path105_fill" d="M.26 4.28c.03 0 .1 0 .13-.03L6.7.45a.22.22 0 0 0 .1-.32.23.23 0 0 0-.32-.1L.13 3.83a.23.23 0 0 0-.1.32c.07.06.13.13.23.13z"/><path id="path106_fill" d="M33.59 0H2.8L0 1.63h30.78L33.58 0z"/><path id="path107_fill" d="M21.99 2.51H3.27L0 0h26.24l-4.25 2.51z"/><path id="path108_fill" d="M20.52 29.51l30.19-17.4c.65-.4.65-1.35 0-1.7L33.29.33a2.66 2.66 0 0 0-2.6 0L.48 17.75c-.65.4-.65 1.34 0 1.7L17.9 29.51c.81.46 1.8.46 2.6 0z"/><path id="path109_fill" d="M20.52 29.51l30.19-17.4c.65-.4.65-1.35 0-1.7L33.29.33a2.66 2.66 0 0 0-2.6 0L.48 17.75c-.65.4-.65 1.34 0 1.7L17.9 29.51c.81.46 1.8.46 2.6 0z"/><path id="path110_fill" d="M20.52 29.51l30.19-17.4c.65-.4.65-1.35 0-1.7L33.29.33a2.66 2.66 0 0 0-2.6 0L.48 17.75c-.65.4-.65 1.34 0 1.7L17.9 29.51c.81.46 1.8.46 2.6 0z"/><path id="path111_fill" d="M2.78 3.79l3.85-2.22L3.86 0 0 2.22 2.78 3.8z"/><path id="path112_fill" d="M2.97 3.03l1.99-1.14a.67.67 0 0 0 0-1.15L4.04.22c-.52-.3-1.17-.3-1.73 0l-2 1.14a.67.67 0 0 0 0 1.15l.92.52c.56.3 1.21.3 1.74 0z"/><path id="path113_fill" d="M2.92 2.83L4.32 2c.6-.36.6-1.2 0-1.53L4 .28a2.2 2.2 0 0 0-2.15 0l-1.4.82a.88.88 0 0 0 0 1.53l.32.2c.65.4 1.5.4 2.15 0z"/><path id="path114_stroke" d="M8.25.43a.5.5 0 0 0-.5-.86l.5.86zm-8.5 3.74a.5.5 0 0 0 .5.87l-.5-.87zm8-4.6l-8 4.6.5.87 8-4.6-.5-.87z"/><path id="path115_stroke" d="M8.12.43a.5.5 0 0 0-.5-.86l.5.86zM-.25 4.07a.5.5 0 0 0 .5.87l-.5-.87zm7.88-4.5l-7.88 4.5.5.87L8.12.44l-.5-.87z"/><path id="path116_stroke" d="M5.8.43a.5.5 0 1 0-.5-.86l.5.86zM-.25 2.77a.5.5 0 0 0 .5.86l-.5-.86zM5.3-.43l-5.55 3.2.5.86L5.8.43l-.5-.86z"/><path id="path117_stroke" d="M5.8.43a.5.5 0 1 0-.5-.86l.5.86zM-.25 2.77a.5.5 0 1 0 .5.86l-.5-.86zM5.3-.43l-5.55 3.2.5.86L5.8.43l-.5-.86z"/><path id="path118_stroke" d="M7.7.43a.5.5 0 1 0-.5-.86l.5.86zM-.25 3.85a.5.5 0 0 0 .5.86l-.5-.86zM7.2-.43L-.25 3.85l.5.86L7.7.43l-.5-.86z"/></defs></svg>