<?xml version="1.0" encoding="UTF-8" standalone="no"?>
<svg width="270px" height="50px" viewBox="0 0 270 50" version="1.1" xmlns="http://www.w3.org/2000/svg" xmlns:xlink="http://www.w3.org/1999/xlink" xmlns:sketch="http://www.bohemiancoding.com/sketch/ns">
    <!-- Generator: Sketch 3.2.2 (9983) - http://www.bohemiancoding.com/sketch -->
    <title>logo</title>
    <desc>Created with Sketch.</desc>
    <defs></defs>
    <g id="Регистрация-/-вход" stroke="none" stroke-width="1" fill="none" fill-rule="evenodd" sketch:type="MSPage">
        <g id="Регистрация" sketch:type="MSArtboardGroup" transform="translate(-100.000000, -40.000000)">
            <g id="logo" sketch:type="MSLayerGroup" transform="translate(100.000000, 40.000000)">
                <path d="M40.1246591,20.0321429 L40.1246591,10.1326531 L50.0466477,10.1326531 L50.045625,20.0321429 L40.1246591,20.0321429" id="Fill-1" fill="#8DC540" sketch:type="MSShapeGroup"></path>
                <path d="M40.1246591,29.930102 L50.0451136,29.930102 L50.0451136,39.8311224 L40.1246591,39.8311224 L40.1246591,29.930102 Z" id="Fill-2" fill="#D6DF26" sketch:type="MSShapeGroup"></path>
                <path d="M40.1246591,39.8311224 L50.0451136,39.8311224 L50.0451136,49.7311224 L40.1246591,49.7311224 L40.1246591,39.8311224 Z" id="Fill-3" fill="#00AEF0" sketch:type="MSShapeGroup"></path>
                <path d="M30.2031818,0.233673469 L40.1246591,0.233673469 L40.1246591,10.1326531 L30.2031818,10.1326531 L30.2031818,0.233673469 Z" id="Fill-4" fill="#7ED2F7" sketch:type="MSShapeGroup"></path>
                <path d="M30.2031818,10.1326531 L40.1246591,10.1326531 L40.1246591,20.0316327 L30.2031818,20.0316327 L30.2031818,10.1326531 Z" id="Fill-5" fill="#00AEF0" sketch:type="MSShapeGroup"></path>
                <path d="M30.2031818,20.0321429 L40.1246591,20.0321429 L40.1246591,29.9352041 L30.2031818,29.9352041 L30.2031818,20.0321429 Z" id="Fill-6" fill="#7ED2F7" sketch:type="MSShapeGroup"></path>
                <path d="M20.2827273,0.233673469 L30.2031818,0.233673469 L30.2031818,10.1326531 L20.2827273,10.1326531 L20.2827273,0.233673469 Z" id="Fill-7" fill="#2D4668" sketch:type="MSShapeGroup"></path>
                <path d="M20.2827273,20.0321429 L30.2031818,20.0321429 L30.2031818,29.930102 L20.2827273,29.930102 L20.2827273,20.0321429 Z" id="Fill-8" fill="#D6DF26" sketch:type="MSShapeGroup"></path>
                <path d="M20.2827273,49.7316327 L20.2827273,39.8321429 L30.2031818,39.8311224 L30.2031818,49.7316327 L20.2827273,49.7316327" id="Fill-9" fill="#8DC540" sketch:type="MSShapeGroup"></path>
                <path d="M10.3597159,10.1326531 L20.2822159,10.1326531 L20.2822159,20.0316327 L10.3597159,20.0316327 L10.3597159,10.1326531 Z" id="Fill-10" fill="#8DC540" sketch:type="MSShapeGroup"></path>
                <path d="M10.3576705,29.930102 L10.3597159,20.0321429 L20.2827273,20.0321429 L20.2827273,29.930102 L10.3576705,29.930102" id="Fill-11" fill="#7ED2F7" sketch:type="MSShapeGroup"></path>
                <path d="M10.3576705,29.930102 L20.2822159,29.930102 L20.2822159,39.8321429 L10.3576705,39.8321429 L10.3576705,29.930102 Z" id="Fill-12" fill="#00AEF0" sketch:type="MSShapeGroup"></path>
                <path d="M0.437215909,10.1326531 L0.436193182,0.233673469 L10.3576705,0.233673469 L10.3597159,10.1326531 L0.437215909,10.1326531" id="Fill-13" fill="#7ED2F7" sketch:type="MSShapeGroup"></path>
                <path d="M0.436193182,20.0321429 L0.437215909,10.1326531 L10.3597159,10.1326531 L10.3597159,20.0321429 L0.436193182,20.0321429" id="Fill-14" fill="#D6DF26" sketch:type="MSShapeGroup"></path>
                <path d="M0.436193182,29.930102 L10.3576705,29.930102 L10.3576705,39.8321429 L0.436193182,39.8321429 L0.436193182,29.930102 Z" id="Fill-15" fill="#2D4668" sketch:type="MSShapeGroup"></path>
                <path d="M0.436193182,39.8321429 L10.3576705,39.8321429 L10.3576705,49.7311224 L0.436193182,49.7311224 L0.436193182,39.8321429 Z" id="Fill-16" fill="#7ED2F7" sketch:type="MSShapeGroup"></path>
                <path d="M113.281364,40.2765306 C106.842273,40.2765306 103.272955,35.3255102 103.272955,28.7346939 C103.272955,22.1464286 106.842273,17.2352041 113.281364,17.2352041 C119.721989,17.2352041 123.289773,22.1464286 123.289773,28.7346939 C123.289773,35.3255102 119.721989,40.2765306 113.281364,40.2765306 L113.281364,40.2765306 Z M113.281364,21.6153061 C110.328239,21.6153061 108.851932,24.2739796 108.851932,28.6943878 C108.851932,33.1137755 110.328239,35.7336735 113.281364,35.7336735 C116.234489,35.7336735 117.711307,33.1137755 117.711307,28.6943878 C117.711307,24.2739796 116.234489,21.6153061 113.281364,21.6153061 L113.281364,21.6153061 Z" id="Fill-17" fill="#2D4668" sketch:type="MSShapeGroup"></path>
                <path d="M137.53892,40.2765306 C130.401307,40.2765306 126.504205,36.0617347 126.504205,28.8984694 C126.504205,22.1066327 130.073011,17.5219388 136.840909,17.5219388 C138.031364,17.5219388 139.300568,17.7270408 140.000625,17.9734694 L140.000625,7.66071429 L145.618977,7.66071429 L145.618977,38.680102 C144.01892,39.5392857 140.901648,40.2765306 137.53892,40.2765306 L137.53892,40.2765306 Z M140.000625,22.1464286 C139.549091,21.9423469 138.399545,21.7382653 137.41517,21.7382653 C133.929716,21.7382653 132.081648,24.6423469 132.081648,28.8183673 C132.081648,33.2785714 133.970114,35.8979592 137.41517,35.8979592 C138.399545,35.8979592 139.549091,35.6938776 140.000625,35.4469388 L140.000625,22.1464286 L140.000625,22.1464286 Z" id="Fill-18" fill="#2D4668" sketch:type="MSShapeGroup"></path>
                <path d="M159.886023,40.2765306 C153.774716,40.2765306 150.576648,37.8219388 150.576648,32.0913265 L150.576648,17.7270408 L156.154602,17.7270408 L156.154602,32.2158163 C156.154602,34.5877551 157.424318,35.6938776 159.886023,35.6938776 C161.322443,35.6938776 162.510852,35.4469388 163.126023,35.202551 L163.126023,17.7270408 L168.706023,17.7270408 L168.706023,38.680102 C166.77767,39.622449 163.331591,40.2765306 159.886023,40.2765306" id="Fill-19" fill="#2D4668" sketch:type="MSShapeGroup"></path>
                <path d="M173.724545,7.66071429 L179.301477,7.66071429 L179.301477,39.7862245 L173.724545,39.7862245 L173.724545,7.66071429 Z" id="Fill-20" fill="#2D4668" sketch:type="MSShapeGroup"></path>
                <path d="M193.372159,40.1933673 C190.868523,40.1933673 188.40733,39.5392857 186.766364,38.680102 L186.766364,7.66071429 L189.18767,7.66071429 L189.18767,18.4214286 C190.419034,17.8096939 192.304432,17.3994898 194.150455,17.3994898 C199.852159,17.3994898 203.709375,21.6153061 203.709375,28.4076531 C203.709375,36.7561224 199.195057,40.1933673 193.372159,40.1933673 L193.372159,40.1933673 Z M193.904489,19.4035714 C192.223636,19.4035714 190.336193,19.8147959 189.18767,20.3852041 L189.18767,37.3306122 C190.048295,37.7377551 191.689261,38.1892857 193.453466,38.1892857 C197.759148,38.1892857 201.28858,35.5704082 201.28858,28.530102 C201.28858,22.8418367 198.295057,19.4035714 193.904489,19.4035714 L193.904489,19.4035714 Z" id="Fill-21" fill="#2D4668" sketch:type="MSShapeGroup"></path>
                <path d="M216.619261,40.1933673 C210.833693,40.1933673 207.880057,37.6173469 207.880057,33.6056122 C207.880057,27.1806122 214.936364,26.3622449 221.621932,25.994898 L221.621932,24.0714286 C221.621932,20.3454082 219.121364,19.2408163 215.839432,19.2408163 C213.786818,19.2408163 211.326136,19.894898 209.93267,20.6331633 L209.19375,18.8321429 C210.793807,18.0545918 213.5025,17.3188776 216.004091,17.3188776 C220.63858,17.3188776 223.959375,19.1602041 223.959375,24.2336735 L223.959375,38.680102 C222.443182,39.5392857 219.365795,40.1933673 216.619261,40.1933673 L216.619261,40.1933673 Z M221.621932,27.8367347 C216.331875,28.1229592 210.220568,28.4076531 210.220568,33.5647959 C210.220568,36.3882653 212.270114,38.2734694 216.57733,38.2734694 C218.464261,38.2734694 220.72142,37.9020408 221.621932,37.4540816 L221.621932,27.8367347 L221.621932,27.8367347 Z" id="Fill-22" fill="#2D4668" sketch:type="MSShapeGroup"></path>
                <path d="M244.092273,39.7862245 L244.092273,24.725 C244.092273,21.4520408 242.080568,19.3229592 238.061761,19.3229592 C235.846534,19.3229592 233.916648,19.7316327 232.68733,20.222449 L232.68733,39.7862245 L230.267557,39.7862245 L230.267557,18.8321429 C232.27875,17.9306122 235.025795,17.3188776 238.061761,17.3188776 C243.557898,17.3188776 246.511023,20.0586735 246.511023,24.6020408 L246.511023,39.7862245 L244.092273,39.7862245" id="Fill-23" fill="#2D4668" sketch:type="MSShapeGroup"></path>
                <path d="M266.473636,39.7862245 L255.317216,28.3673469 L255.233352,28.3673469 L255.233352,39.7862245 L252.89642,39.7862245 L252.89642,7.66071429 L255.233352,7.66071429 L255.233352,28.0397959 L255.317216,28.0397959 L265.939261,17.7270408 L268.975227,17.7270408 L258.145568,28.2433673 L269.507557,39.7862245 L266.473636,39.7862245" id="Fill-24" fill="#2D4668" sketch:type="MSShapeGroup"></path>
                <path d="M96.5909659,10.1561224 L90.0286364,10.1561224 L84.0385227,31.2734694 L83.9577273,31.2734694 C83.9577273,31.2734694 83.9577273,31.2734694 77.9272159,10.1561224 L69.8875568,10.1561224 L69.8875568,39.7862245 L75.5074432,39.7862245 L75.5074432,16.9081633 C75.5074432,16.9081633 75.5074432,16.9081633 82.1536364,39.7862245 L85.843125,39.7862245 L92.446875,16.9081633 L92.446875,39.7862245 L98.0657386,39.7862245 L98.0657386,10.1561224 L96.5909659,10.1561224" id="Fill-25" fill="#2D4668" sketch:type="MSShapeGroup"></path>
            </g>
        </g>
    </g>
</svg>