<svg width="383" height="60" viewBox="0 0 383 60" fill="none" xmlns="http://www.w3.org/2000/svg">
<path d="M89.2941 48.0003H84.7059C84.2118 48.0003 84 47.7179 84 47.2238V12.7062C84 12.212 84.2118 11.9297 84.7059 11.9297H90.2118C90.6353 11.9297 90.8471 12.1415 90.9882 12.4944L97.1294 23.9297C98.4 26.3297 99.8118 29.2944 101.435 32.7532H101.647C103.2 29.2238 104.682 26.2591 105.953 23.9297L112.024 12.4944C112.235 12.1415 112.518 11.9297 112.871 11.9297H118.306C118.8 11.9297 119.082 12.212 119.082 12.7062V47.2238C119.082 47.7179 118.8 48.0003 118.306 48.0003H113.647C113.153 48.0003 112.941 47.7179 112.941 47.2238V37.0591C112.941 33.1062 113.082 27.812 113.365 21.2473L113.224 21.1767C112.235 23.365 110.682 26.4709 108.706 30.4944L104.259 39.1062C104.118 39.4591 103.835 39.6709 103.412 39.6709H99.6C99.1765 39.6709 98.8941 39.4591 98.7529 39.1062L94.3059 30.4944C92.2588 26.4709 90.7765 23.365 89.7882 21.1767L89.6471 21.2473C89.9294 27.812 90.0706 33.1062 90.0706 37.0591V47.2238C90.0706 47.7179 89.7882 48.0003 89.2941 48.0003Z" fill="white"/>
<path d="M147.035 38.4002C147.035 41.5061 145.976 43.9767 143.929 45.812C141.882 47.6473 139.059 48.5649 135.6 48.5649C132.141 48.5649 129.317 47.6473 127.27 45.812C125.223 43.9767 124.165 41.5061 124.165 38.4002V31.6943C124.165 28.5179 125.223 26.0473 127.27 24.1414C129.317 22.2355 132.141 21.3179 135.6 21.3179C139.059 21.3179 141.882 22.2355 143.929 24.1414C145.976 26.0473 147.035 28.5179 147.035 31.6943V38.4002ZM129.953 38.4002C129.953 41.7179 131.788 43.3414 135.529 43.3414C137.365 43.3414 138.706 42.9179 139.694 42.0708C140.682 41.2238 141.106 40.0238 141.106 38.4002V31.6943C141.106 30.0708 140.612 28.8002 139.623 27.8826C138.635 26.9649 137.294 26.5414 135.529 26.5414C133.694 26.5414 132.353 26.9649 131.365 27.8826C130.376 28.7296 129.953 30.0002 129.953 31.6943V38.4002Z" fill="white"/>
<path d="M154.588 54.7061H150.494C150 54.7061 149.788 54.4943 149.788 54.0002V43.5531C149.788 43.059 150 42.8472 150.494 42.8472H151.624C152.753 42.0708 153.6 40.3061 154.165 37.6237C154.8 34.8708 155.365 29.9296 155.93 22.659C156 22.1649 156.282 21.9531 156.706 21.9531H173.435C173.93 21.9531 174.212 22.1649 174.212 22.659V42.8472H176.753C177.247 42.8472 177.53 43.1296 177.53 43.6237V54.0708C177.53 54.5649 177.247 54.7767 176.753 54.7767H172.659C172.165 54.7767 171.882 54.5649 171.882 54.0708V48.0002H155.365V54.0002C155.365 54.4943 155.082 54.7061 154.588 54.7061ZM161.365 27.0355C160.659 35.3649 159.53 40.5884 157.906 42.8472H168.353V27.0355H161.365Z" fill="white"/>
<path d="M197.365 40.9411V22.5882C197.365 22.0941 197.647 21.8823 198.141 21.8823H202.447C202.941 21.8823 203.223 22.0941 203.223 22.5882V46.3059C203.223 54.1411 199.482 58.0235 192 58.0235C187.976 58.0235 184.659 56.9647 182.118 54.847C181.765 54.5647 181.694 54.2117 181.976 53.8588L184.165 50.8235C184.447 50.4 184.729 50.3294 185.153 50.5411C187.412 52.0941 189.67 52.8706 192 52.8706C193.906 52.8706 195.318 52.3764 196.235 51.3882C197.153 50.4 197.576 48.7059 197.506 46.3059C195.529 46.9411 193.765 47.2235 192.141 47.2235C189.247 47.2235 186.776 46.3059 184.588 44.5411C182.47 42.7764 181.341 40.2353 181.341 36.9882V22.5882C181.341 22.0941 181.623 21.8823 182.118 21.8823H186.494C186.988 21.8823 187.2 22.0941 187.2 22.5882V36.7059C187.2 38.5411 187.765 39.8117 188.823 40.6588C189.882 41.5059 191.294 41.9294 192.918 41.9294C194.541 41.9294 196.023 41.5764 197.365 40.9411Z" fill="white"/>
<path d="M216.917 39.3884C216.282 42.5649 215.294 44.8237 214.023 46.0943C212.682 47.3649 210.635 48.0708 207.812 48.212C207.317 48.212 207.106 47.9296 207.106 47.4355V43.7649C207.106 43.3414 207.317 43.059 207.812 42.9884C208.8 42.9178 209.576 42.4943 210.07 41.7884C210.635 41.0825 211.059 39.7414 211.482 37.8355C212.047 34.5178 212.47 29.4355 212.753 22.659C212.823 22.1649 213.106 21.9531 213.529 21.9531H230.612C231.106 21.9531 231.388 22.1649 231.388 22.659V47.2237C231.388 47.7178 231.106 48.0002 230.612 48.0002H226.306C225.812 48.0002 225.529 47.7178 225.529 47.2237V27.0355H218.117C217.906 31.8355 217.553 35.9296 216.917 39.3884Z" fill="white"/>
<path d="M247.553 47.9294H237.176C236.682 47.9294 236.4 47.647 236.4 47.1529V22.5882C236.4 22.0941 236.682 21.8823 237.176 21.8823H241.482C241.976 21.8823 242.259 22.0941 242.259 22.5882V30.3529H247.623C250.729 30.3529 253.2 31.1294 255.106 32.6823C257.012 34.2353 257.929 36.4235 257.929 39.247C257.929 42.2117 257.012 44.4 255.176 45.8117C253.27 47.2235 250.8 47.9294 247.553 47.9294ZM242.188 35.1529V43.1294H246.494C250.094 43.1294 251.929 41.7882 251.929 39.1764C251.929 37.8353 251.506 36.7764 250.588 36.1411C249.67 35.5059 248.329 35.1529 246.494 35.1529H242.188Z" fill="white"/>
<path d="M265.341 47.9295H263.365C263.082 47.9295 262.941 47.7883 262.941 47.5059V12.2824C262.941 12.0001 263.082 11.8589 263.365 11.8589H265.341C265.624 11.8589 265.765 12.0001 265.765 12.2824V30.7765L283.976 12.1412C284.188 11.9295 284.329 11.8589 284.541 11.8589H287.082C287.224 11.8589 287.365 11.9295 287.435 12.0001C287.506 12.0707 287.435 12.2118 287.365 12.353L271.976 28.0942L288.282 47.3648C288.494 47.6471 288.282 47.8589 288 47.8589H285.459C285.176 47.8589 285.106 47.7883 284.965 47.5765L270.071 30.0001L265.765 34.3059V47.4354C265.694 47.7883 265.553 47.9295 265.341 47.9295Z" fill="white"/>
<path d="M292.094 24.0707C294.564 22.306 297.67 21.459 301.341 21.459C304.447 21.459 306.776 22.306 308.47 23.9296C310.164 25.5531 310.941 27.9531 310.941 30.9884V46.306C310.941 46.5178 310.8 46.7296 310.588 46.8002C307.623 47.9296 304.517 48.4943 301.2 48.4943C298.164 48.4943 295.623 47.7884 293.647 46.3766C291.67 44.9649 290.682 42.9178 290.682 40.306C290.682 37.7649 291.6 35.7884 293.506 34.3766C295.412 32.9649 297.953 32.3296 301.27 32.3296C303.035 32.3296 305.435 32.6119 308.329 33.106V30.9178C308.329 26.1884 306 23.7884 301.27 23.7884C298.376 23.7884 295.764 24.4943 293.576 25.8355C293.364 25.9766 293.223 25.9766 293.012 25.7649L292.164 24.4237C291.953 24.3531 291.953 24.1413 292.094 24.0707ZM293.364 40.306C293.364 42.0707 294.07 43.4825 295.553 44.5413C296.964 45.6002 298.87 46.0943 301.27 46.0943C303.6 46.0943 306 45.6707 308.329 44.8943V35.506C306 35.0119 303.67 34.7296 301.27 34.7296C295.976 34.7296 293.364 36.6355 293.364 40.306Z" fill="white"/>
<path d="M335.294 45.459C332.612 47.506 329.718 48.5649 326.4 48.5649C323.224 48.5649 320.753 47.6472 318.847 45.8825C317.012 44.1178 316.024 41.7884 316.024 39.0355V30.9884C316.024 28.2355 316.941 25.9766 318.847 24.1413C320.683 22.3766 323.224 21.459 326.4 21.459C329.294 21.459 331.977 22.306 334.518 24.0707C334.73 24.2825 334.8 24.4943 334.659 24.706L333.812 26.0472C333.6 26.259 333.388 26.259 333.177 26.1178C331.059 24.706 328.8 23.9296 326.4 23.9296C324 23.9296 322.165 24.5649 320.753 25.906C319.412 27.2472 318.706 28.9413 318.706 30.9884V39.0355C318.706 41.1531 319.412 42.8472 320.753 44.1178C322.094 45.459 324 46.0943 326.4 46.0943C329.012 46.0943 331.483 45.2472 333.883 43.5531C334.094 43.3413 334.306 43.3413 334.518 43.6237L335.365 44.8943C335.506 45.106 335.506 45.3178 335.294 45.459Z" fill="white"/>
<path d="M358.588 45.459C355.906 47.506 353.012 48.5649 349.694 48.5649C346.518 48.5649 344.047 47.6472 342.141 45.8825C340.306 44.1178 339.318 41.7884 339.318 39.0355V30.9884C339.318 28.2355 340.236 25.9766 342.141 24.1413C343.977 22.3766 346.518 21.459 349.694 21.459C352.588 21.459 355.271 22.306 357.812 24.0707C358.024 24.2825 358.094 24.4943 357.953 24.706L357.106 26.0472C356.894 26.259 356.683 26.259 356.471 26.1178C354.353 24.706 352.094 23.9296 349.694 23.9296C347.294 23.9296 345.459 24.5649 344.047 25.906C342.706 27.2472 342 28.9413 342 30.9884V39.0355C342 41.1531 342.706 42.8472 344.047 44.1178C345.388 45.459 347.294 46.0943 349.694 46.0943C352.306 46.0943 354.777 45.2472 357.177 43.5531C357.388 43.3413 357.6 43.3413 357.812 43.6237L358.659 44.8943C358.8 45.106 358.73 45.3178 358.588 45.459Z" fill="white"/>
<path d="M363.318 24.0707C365.788 22.306 368.894 21.459 372.565 21.459C375.671 21.459 378 22.306 379.694 23.9296C381.388 25.5531 382.165 27.9531 382.165 30.9884V46.306C382.165 46.5178 382.024 46.7296 381.812 46.8002C378.847 47.9296 375.741 48.4943 372.424 48.4943C369.388 48.4943 366.847 47.7884 364.871 46.3766C362.894 44.9649 361.906 42.9178 361.906 40.306C361.906 37.7649 362.824 35.7884 364.73 34.3766C366.635 32.9649 369.177 32.3296 372.494 32.3296C374.259 32.3296 376.659 32.6119 379.553 33.106V30.9178C379.553 26.1884 377.224 23.7884 372.494 23.7884C369.6 23.7884 366.988 24.4943 364.8 25.8355C364.588 25.9766 364.447 25.9766 364.235 25.7649L363.388 24.4237C363.177 24.3531 363.177 24.1413 363.318 24.0707ZM364.588 40.306C364.588 42.0707 365.294 43.4825 366.777 44.5413C368.188 45.6002 370.094 46.0943 372.494 46.0943C374.824 46.0943 377.224 45.6707 379.553 44.8943V35.506C377.224 35.0119 374.894 34.7296 372.494 34.7296C367.2 34.7296 364.588 36.6355 364.588 40.306Z" fill="white"/>
<path d="M36 36V24H24V12H12V0H0V24H12V36H0V60H12V48H24V36H36Z" fill="white"/>
<path d="M48 36H36V48H48V36Z" fill="white"/>
<path d="M60 48H48V60H60V48Z" fill="white"/>
<path d="M36 48H24V60H36V48Z" fill="white"/>
<path d="M48 12V0H24V12H36V24H48V36H60V12H48Z" fill="white"/>
</svg>
