<svg version="1.2" baseProfile="tiny" xmlns="http://www.w3.org/2000/svg" width="199" height="31"><path fill-rule="evenodd" fill="#404040" d="M12.495 8.128H9.224l-6.23 7.271h-.061V8.128H.081v15.625h2.852v-7.396h.062l6.564 7.396h3.5l-7.791-7.976 7.227-7.649zm53.673 2.708h5.008v12.917h2.85V10.836h4.849V8.128H66.168v2.708zm-4.933 2.977h-7.096V8.084h-2.853v15.714h2.853v-7.12h7.096v7.075h2.851V8.128h-2.851v5.685zm27.406 5.447c-.151.528-.254.913-.304 1.156h-.091c-.163-.639-.271-1.034-.32-1.187L83.889 8.262l-2.902-.134 6.087 15.55-1.25 2.953c-.627 1.5-1.571 2.063-2.829 2.063-.446 0-1.317.098-1.854-.085v2.192c.436.132 1.358.198 2.008.198 2.313 0 4.107-1.568 5.387-4.795L95.7 8.128h-2.765L88.641 19.26zm17.58-11.453c-2.159 0-3.901 1.41-5.126 3.479l-.061-.952v-2.25h-2.809v22.748h2.809v-9.42h.061c1.094 1.745 2.651 2.618 4.671 2.618 2.202 0 3.935-.783 5.204-2.351 1.267-1.567 1.899-3.033 1.899-5.64 0-2.344-.563-4.212-1.688-5.606-1.126-1.395-2.952-2.626-4.96-2.626zm2.807 12.389c-.856 1.155-2.042 1.734-3.553 1.734-1.289 0-2.351-.449-3.187-1.348-.839-.896-1.255-1.989-1.255-3.278V15.75c0-1.521.439-2.786 1.321-3.797.883-1.009 2.05-1.514 3.501-1.514 1.37 0 2.455.492 3.255 1.477.803.983 1.203 2.342 1.203 4.077.001 2.061-.428 3.046-1.285 4.203zm9.561 1.049c-.336-.343-.743-.514-1.225-.514-.47 0-.87.171-1.201.514-.331.341-.497.747-.497 1.217s.166.873.497 1.209c.331.338.731.506 1.201.506.481 0 .889-.168 1.225-.506.337-.336.506-.739.506-1.209s-.169-.876-.506-1.217z"/><path fill-rule="evenodd" fill="#1B6EBA" d="M40.808 6.572c-.931-.37-2.086-.436-3.084-.34-.487-.918-1.033-1.631-1.709-2.159C34.228 2.676 31.98 1.87 29.57 1.87c-3.635 0-6.916 1.815-8.703 5.338-.333.657-.591 1.603-.619 2.355-.759.05-1.628.159-2.18.528-2.32 1.551-3.85 4.18-3.85 7.157 0 4.756 3.899 7.953 8.694 7.953h14.284c5.368 0 9.739-4.332 9.739-9.659.001-4.061-2.54-7.544-6.127-8.97zm-3.857 15.757H23.245c-3.357 0-6.089-1.986-6.089-5.247 0-1.844.9-3.562 2.354-4.668.353-.268 1.057-.381 1.722-.438 1.315-.113 1.613.281 1.626-1.415.005-.684.34-1.43.514-1.866 1.009-2.544 3.683-3.922 6.261-3.922 1.93 0 3.758.639 5.124 1.87.383.346.391 1.228.453 1.809.074.699.451.933 1.45.464.562-.264 1.387-.3 2.2-.117 3.032.683 5.184 3.502 5.184 6.639-.002 3.8-3.183 6.891-7.093 6.891zM126.395 7.794c-1.469 0-2.746.276-3.826.827v2.48c1.07-.796 2.336-1.195 3.795-1.195 1.51 0 2.722.44 3.63 1.319.908.876 1.422 2.092 1.544 3.642h-6.674v2.144h6.674c-.081 1.562-.579 2.8-1.49 3.713-.915.914-2.111 1.372-3.593 1.372-1.528 0-2.887-.44-4.071-1.318v2.373c1.175.705 2.563 1.057 4.165 1.057 2.318 0 4.162-.732 5.534-2.196 1.372-1.466 2.061-3.428 2.061-5.888 0-2.644-.67-4.691-2.007-6.147-1.339-1.455-3.252-2.183-5.742-2.183zm10.187 14.163c-.416 0-.805-.092-1.161-.275v2.158c.375.143.826.214 1.347.214 1.713 0 3.078-1.025 4.096-3.076 1.015-2.052 1.731-5.615 2.151-10.688h3.643v13.55h2.496V8.162h-8.237c-.646 9.196-2.089 13.795-4.335 13.795zm24.077-7.778h-4.225V8.162h-2.512V23.84h6.949c1.45 0 2.649-.438 3.598-1.317.949-.878 1.426-2.071 1.426-3.582 0-1.5-.474-2.669-1.416-3.506-.945-.837-2.22-1.256-3.82-1.256zm-.461 7.517h-3.764v-5.358h3.732c2.104 0 3.153.867 3.153 2.603.001 1.836-1.038 2.755-3.121 2.755zm15.966-13.197c-2.265 0-4.012.888-5.236 2.664h-.06c.163-2.021.539-3.557 1.124-4.608.589-1.051 1.338-1.736 2.252-2.06.911-.321 2.518-.654 4.813-1.002.93-.153 1.604-.382 2.023-.689V.445c-.482.285-1.213.542-2.192.767-2.468.438-4.213.821-5.227 1.147-1.016.327-1.939.924-2.771 1.791-.83.868-1.481 2.161-1.951 3.882-.471 1.72-.705 3.814-.705 6.284 0 3.176.651 5.616 1.951 7.326 1.303 1.71 3.156 2.564 5.565 2.564 2.235 0 4.015-.728 5.336-2.181 1.321-1.456 1.982-3.382 1.982-5.781 0-2.326-.633-4.199-1.897-5.618-1.265-1.418-2.934-2.127-5.007-2.127zm3.041 12.025c-.864 1.047-1.995 1.571-3.392 1.571-.768 0-1.447-.149-2.045-.445-.596-.296-1.115-.745-1.554-1.347-.438-.603-.776-1.296-1.012-2.082-.234-.786-.356-1.588-.366-2.404v-2.175c1.071-1.999 2.659-3 4.76-3 1.5 0 2.693.527 3.577 1.585.883 1.055 1.324 2.483 1.324 4.279.001 1.634-.431 2.973-1.292 4.018zm13.287-12.73c-2.01 0-3.786.49-5.326 1.471v2.571c1.519-1.286 3.226-1.93 5.113-1.93 2.155 0 3.232 1.333 3.232 3.996l-4.704.66c-3.448.479-5.174 2.184-5.174 5.112 0 1.368.442 2.466 1.325 3.293.883.826 2.104 1.239 3.667 1.239 2.123 0 3.73-.938 4.823-2.816h.063v2.449h2.508V13.643c.001-3.899-1.84-5.849-5.527-5.849zm3.02 9.676c0 1.337-.407 2.442-1.219 3.316-.811.872-1.841 1.31-3.088 1.31-.908 0-1.635-.245-2.18-.729-.548-.485-.82-1.11-.82-1.876 0-1.051.298-1.783.89-2.196.592-.414 1.469-.702 2.634-.865l3.783-.521v1.561z"/></svg>