<svg xmlns="http://www.w3.org/2000/svg" width="24" height="24" viewBox="0 0 24 24">
  <path fill="#FFFFFF" fill-rule="evenodd" d="M19.2000495,9.59965367 L19.2000495,4.79970314 L24,4.79970314 L23.9995052,9.59965367 L19.2000495,9.59965367 Z M19.2000495,14.398862 L23.9992579,14.398862 L23.9992579,19.1995547 L19.2000495,19.1995547 L19.2000495,14.398862 Z M19.2000495,19.1995547 L23.9992579,19.1995547 L23.9992579,23.9997526 L19.2000495,23.9997526 L19.2000495,19.1995547 Z M14.4003463,0 L19.2000495,0 L19.2000495,4.79970314 L14.4003463,4.79970314 L14.4003463,0 Z M14.4003463,4.79970314 L19.2000495,4.79970314 L19.2000495,9.59940628 L14.4003463,9.59940628 L14.4003463,4.79970314 Z M14.4003463,9.59965367 L19.2000495,9.59965367 L19.2000495,14.4013359 L14.4003463,14.4013359 L14.4003463,9.59965367 Z M9.60113796,0 L14.4003463,0 L14.4003463,4.79970314 L9.60113796,4.79970314 L9.60113796,0 Z M9.60113796,9.59965367 L14.4003463,9.59965367 L14.4003463,14.398862 L9.60113796,14.398862 L9.60113796,9.59965367 Z M9.60113796,24 L9.60113796,19.2000495 L14.4003463,19.1995547 L14.4003463,24 L9.60113796,24 Z M4.80069267,4.79970314 L9.60089057,4.79970314 L9.60089057,9.59940628 L4.80069267,9.59940628 L4.80069267,4.79970314 Z M4.79970314,14.398862 L4.80069267,9.59965367 L9.60113796,9.59965367 L9.60113796,14.398862 L4.79970314,14.398862 Z M4.79970314,14.398862 L9.60089057,14.398862 L9.60089057,19.2000495 L4.79970314,19.2000495 L4.79970314,14.398862 Z M0.00049476375,4.79970314 L0,0 L4.79970314,0 L4.80069267,4.79970314 L0.00049476375,4.79970314 Z M0,9.59965367 L0.00049476375,4.79970314 L4.80069267,4.79970314 L4.80069267,9.59965367 L0,9.59965367 Z M0,14.398862 L4.79970314,14.398862 L4.79970314,19.2000495 L0,19.2000495 L0,14.398862 Z M0,19.2000495 L4.79970314,19.2000495 L4.79970314,23.9997526 L0,23.9997526 L0,19.2000495 Z"/>
</svg>
