<svg width="16" height="16" viewBox="0 0 16 16" fill="none" xmlns="http://www.w3.org/2000/svg">
<path d="M3.19997 0H0V3.19995H3.19997V0Z" fill="#90D1F3"/>
<path d="M3.19997 3.19971H0V6.39966H3.19997V3.19971Z" fill="#D3D800"/>
<path d="M6.39969 3.2002H3.19971V6.40015H6.39969V3.2002Z" fill="#88BD1F"/>
<path d="M9.59989 0H6.3999V3.19995H9.59989V0Z" fill="#003A69"/>
<path d="M12.7996 0H9.59961V3.19995H12.7996V0Z" fill="#90D1F3"/>
<path d="M12.7996 3.2002H9.59961V6.40015H12.7996V3.2002Z" fill="#009EE3"/>
<path d="M15.9998 3.2002H12.7998V6.40015H15.9998V3.2002Z" fill="#88BD1F"/>
<path d="M15.9998 6.40039H12.7998V9.60035H15.9998V6.40039Z" fill="#90D1F3"/>
<path d="M15.9998 12.7998H12.7998V15.9998H15.9998V12.7998Z" fill="#009EE3"/>
<path d="M12.7996 9.59961H9.59961V12.7996H12.7996V9.59961Z" fill="#D3D800"/>
<path d="M9.59989 6.40039H6.3999V9.60035H9.59989V6.40039Z" fill="#D3D800"/>
<path d="M9.59989 12.7998H6.3999V15.9998H9.59989V12.7998Z" fill="#88BD1F"/>
<path d="M6.39969 6.40039H3.19971V9.60035H6.39969V6.40039Z" fill="#90D1F3"/>
<path d="M6.39969 9.59961H3.19971V12.7996H6.39969V9.59961Z" fill="#009EE3"/>
<path d="M3.19997 9.59985H0V12.7998H3.19997V9.59985Z" fill="#003A69"/>
<path d="M3.19997 12.8H0V16H3.19997V12.8Z" fill="#90D1F3"/>
</svg>
