<svg width="362" height="60" viewBox="0 0 362 60" fill="none" xmlns="http://www.w3.org/2000/svg">
<path d="M47.9988 12V-4.30836e-06H23.9995V12H35.9992V24H47.9988V36H59.9985V12H47.9988Z" fill="white"/>
<path d="M35.9989 36.0004V24.0005H23.9993V12.0005H11.9996V0.000483973H2.15412e-06V24.0005H11.9996V36.0004H2.15412e-06V60.0004H11.9996V48.0004H23.9993V36.0004H35.9989Z" fill="white"/>
<path d="M47.9987 36H35.999V48H47.9987V36Z" fill="white"/>
<path d="M35.9992 48H23.9995V60H35.9992V48Z" fill="white"/>
<path d="M59.9982 48H47.9985V60H59.9982V48Z" fill="white"/>
<path d="M89.2915 48H84.7034C84.2093 48 83.9976 47.7176 83.9976 47.2235V12.7765C83.9976 12.2824 84.2093 12 84.7034 12H90.2091C90.6327 12 90.8444 12.2118 90.9856 12.5647L97.1266 24C98.3971 26.4 99.8089 29.3647 101.432 32.8235H101.644C103.197 29.2941 104.679 26.3294 105.95 24L112.02 12.5647C112.232 12.2118 112.514 12 112.867 12H118.302C118.797 12 119.079 12.2824 119.079 12.7765V47.2235C119.079 47.7176 118.797 48 118.302 48H113.714C113.22 48 113.008 47.7176 113.008 47.2235V37.1294C113.008 33.1764 113.15 27.8823 113.432 21.3176L113.291 21.247C112.303 23.4353 110.75 26.5412 108.773 30.5647L104.326 39.1764C104.185 39.5294 103.903 39.7412 103.479 39.7412H99.6677C99.2442 39.7412 98.9618 39.5294 98.8207 39.1764L94.3737 30.5647C92.3267 26.5412 90.8444 23.4353 89.8562 21.247L89.715 21.3176C89.9974 27.8823 90.1386 33.1764 90.1386 37.1294V47.2235C90.068 47.7176 89.7856 48 89.2915 48Z" fill="white"/>
<path d="M147.031 38.3992C147.031 41.5051 145.972 43.9757 143.925 45.811C141.878 47.6463 139.055 48.5639 135.596 48.5639C132.137 48.5639 129.314 47.6463 127.267 45.811C125.22 43.9757 124.161 41.5051 124.161 38.3992V31.6933C124.161 28.5169 125.22 26.0463 127.267 24.1404C129.314 22.2345 132.137 21.3169 135.596 21.3169C139.055 21.3169 141.878 22.2345 143.925 24.1404C145.972 26.0463 147.031 28.5169 147.031 31.6933V38.3992ZM130.02 38.3992C130.02 41.7169 131.855 43.3404 135.596 43.3404C137.431 43.3404 138.772 42.9169 139.761 42.0698C140.749 41.2228 141.172 40.0227 141.172 38.3992V31.6933C141.172 30.0698 140.678 28.7992 139.69 27.8816C138.702 26.9639 137.361 26.5404 135.596 26.5404C133.761 26.5404 132.42 26.9639 131.432 27.8816C130.443 28.7286 130.02 29.9992 130.02 31.6933V38.3992Z" fill="white"/>
<path d="M154.584 54.7761H150.49C149.995 54.7761 149.784 54.5644 149.784 54.0702V43.5526C149.784 43.0585 149.995 42.8467 150.49 42.8467H151.619C152.748 42.0703 153.595 40.3056 154.16 37.6232C154.795 34.8703 155.36 29.9291 155.925 22.6585C155.995 22.1644 156.278 21.9526 156.701 21.9526H173.43C173.924 21.9526 174.207 22.1644 174.207 22.6585V42.8467H176.748C177.242 42.8467 177.524 43.1291 177.524 43.6232V54.0702C177.524 54.5644 177.242 54.7761 176.748 54.7761H172.654C172.159 54.7761 171.877 54.5644 171.877 54.0702V47.9997H155.36V54.0702C155.36 54.5644 155.078 54.7761 154.584 54.7761ZM161.36 27.035C160.654 35.3644 159.525 40.5879 157.901 42.8467H168.348V27.035H161.36Z" fill="white"/>
<path d="M197.359 40.9408V22.6585C197.359 22.1644 197.641 21.9526 198.135 21.9526H202.441C202.935 21.9526 203.218 22.1644 203.218 22.6585V46.3761C203.218 54.2114 199.477 58.0938 191.994 58.0938C187.971 58.0938 184.653 57.035 182.112 54.9173C181.759 54.635 181.689 54.282 181.971 53.9291L184.159 50.8938C184.442 50.4703 184.724 50.3997 185.148 50.6114C187.406 52.1644 189.665 52.9408 191.994 52.9408C193.9 52.9408 195.312 52.4467 196.23 51.4585C197.147 50.4702 197.571 48.7761 197.5 46.3761C195.524 47.0114 193.759 47.2938 192.136 47.2938C189.242 47.2938 186.771 46.3761 184.583 44.6114C182.465 42.8467 181.336 40.3056 181.336 37.0585V22.6585C181.336 22.1644 181.618 21.9526 182.112 21.9526H186.489C186.983 21.9526 187.195 22.1644 187.195 22.6585V36.7761C187.195 38.6114 187.759 39.882 188.818 40.7291C189.877 41.5761 191.289 41.9997 192.912 41.9997C194.536 41.9997 196.018 41.6467 197.359 40.9408Z" fill="white"/>
<path d="M216.911 39.4582C216.276 42.6347 215.288 44.8935 214.017 46.1641C212.676 47.4347 210.629 48.1406 207.805 48.2817C207.311 48.2817 207.1 47.9994 207.1 47.5053V43.8347C207.1 43.4112 207.311 43.1288 207.805 43.0582C208.794 42.9876 209.57 42.5641 210.064 41.8582C210.629 41.1523 211.052 39.8112 211.476 37.9053C212.041 34.5876 212.464 29.5053 212.747 22.7288C212.817 22.2347 213.099 22.023 213.523 22.023H230.605C231.099 22.023 231.381 22.2347 231.381 22.7288V47.2935C231.381 47.7876 231.099 48.07 230.605 48.07H226.299C225.805 48.07 225.523 47.7876 225.523 47.2935V27.1053H218.182C217.97 31.8347 217.546 35.9994 216.911 39.4582Z" fill="white"/>
<path d="M247.546 47.9997H237.17C236.675 47.9997 236.393 47.7173 236.393 47.2232V22.6585C236.393 22.1644 236.675 21.9526 237.17 21.9526H241.475C241.969 21.9526 242.252 22.1644 242.252 22.6585V30.4232H247.616C250.722 30.4232 253.193 31.1997 255.098 32.7526C257.004 34.3056 257.922 36.4938 257.922 39.3173C257.922 42.282 257.004 44.4703 255.169 45.882C253.334 47.2938 250.793 47.9997 247.546 47.9997ZM242.252 35.1526V43.1291H246.557C250.157 43.1291 251.993 41.7879 251.993 39.1761C251.993 37.835 251.569 36.7762 250.651 36.1409C249.734 35.5056 248.393 35.1526 246.557 35.1526H242.252Z" fill="white"/>
<path d="M265.757 26.4H275.286C279.38 26.4 282.486 27.247 284.392 29.0117C286.368 30.7764 287.356 33.4588 287.356 37.1294C287.356 40.5882 286.298 43.2705 284.18 45.1764C282.062 47.0117 279.168 48 275.498 48H263.357C263.075 48 262.934 47.8588 262.934 47.5764V12.4235C262.934 12.1412 263.075 12 263.357 12H284.533C284.815 12 284.956 12.1412 284.956 12.4235V14.1882C284.956 14.4706 284.815 14.6118 284.533 14.6118H265.757V26.4ZM265.757 45.3882H275.498C278.392 45.3882 280.651 44.6823 282.204 43.3411C283.757 42 284.533 39.8823 284.533 37.1294C284.533 34.3059 283.827 32.2588 282.345 30.9176C280.862 29.5765 278.533 28.9412 275.357 28.9412H265.828V45.3882H265.757Z" fill="white"/>
<path d="M292.297 24.1411C294.768 22.3764 297.874 21.5293 301.473 21.5293C304.579 21.5293 306.909 22.3764 308.603 23.9999C310.297 25.6234 311.073 28.0234 311.073 31.0587V46.3763C311.073 46.5881 310.932 46.7998 310.72 46.8704C307.756 47.9998 304.65 48.5646 301.332 48.5646C298.297 48.5646 295.756 47.8587 293.78 46.4469C291.803 45.0352 290.815 43.0587 290.815 40.3763C290.815 37.8352 291.733 35.8587 293.638 34.5175C295.544 33.1763 298.085 32.4705 301.403 32.4705C303.168 32.4705 305.497 32.7528 308.461 33.2469V31.0587C308.461 26.3293 306.132 23.9999 301.403 23.9999C298.509 23.9999 295.897 24.7058 293.709 26.0469C293.497 26.1881 293.356 26.1881 293.144 25.9764L292.297 24.6352C292.085 24.4234 292.085 24.2117 292.297 24.1411ZM293.497 40.3763C293.497 42.141 294.203 43.5528 295.685 44.6116C297.097 45.5999 299.003 46.1646 301.403 46.1646C303.732 46.1646 306.062 45.741 308.461 44.9646V35.5763C306.132 35.0822 303.803 34.7999 301.403 34.7999C296.109 34.7999 293.497 36.6352 293.497 40.3763Z" fill="white"/>
<path d="M318.414 48.0006H316.579C316.296 48.0006 316.155 47.8594 316.155 47.577V22.5182C316.155 22.2359 316.296 22.0947 316.579 22.0947H318.414C318.696 22.0947 318.838 22.2359 318.838 22.5182V33.3182H333.237V22.5182C333.237 22.2359 333.378 22.0947 333.661 22.0947H335.496C335.778 22.0947 335.919 22.2359 335.919 22.5182V47.577C335.919 47.8594 335.778 48.0006 335.496 48.0006H333.661C333.378 48.0006 333.237 47.8594 333.237 47.577V35.7888H318.838V47.577C318.838 47.8594 318.696 48.0006 318.414 48.0006Z" fill="white"/>
<path d="M361.119 47.9999H358.86C358.648 47.9999 358.507 47.9294 358.366 47.7176L347.425 35.3647L343.614 38.8941V47.5058C343.614 47.7882 343.472 47.9293 343.19 47.9293H341.425C341.143 47.9293 341.002 47.7882 341.002 47.5058V22.3764C341.002 22.0941 341.143 21.9529 341.425 21.9529H343.19C343.472 21.9529 343.614 22.0941 343.614 22.3764V35.5764L357.59 22.0941C357.731 21.9529 357.872 21.8823 358.154 21.8823H360.413C360.554 21.8823 360.696 21.9529 360.766 22.0235C360.837 22.0941 360.766 22.2353 360.625 22.3764L349.19 33.4588L361.331 47.3646C361.613 47.8588 361.401 47.9999 361.119 47.9999Z" fill="white"/>
</svg>
