<svg width="362" height="60" viewBox="0 0 362 60" fill="none" xmlns="http://www.w3.org/2000/svg">
<path d="M89.3649 48.0003H84.7767C84.2826 48.0003 84.0708 47.7179 84.0708 47.2238V12.7062C84.0708 12.212 84.2826 11.9297 84.7767 11.9297H90.2826C90.7061 11.9297 90.9179 12.1415 91.059 12.4944L97.2002 23.9297C98.4708 26.3297 99.8826 29.2944 101.506 32.7532H101.718C103.271 29.2238 104.753 26.2591 106.024 23.9297L112.094 12.4944C112.306 12.1415 112.588 11.9297 112.941 11.9297H118.377C118.871 11.9297 119.153 12.212 119.153 12.7062V47.2238C119.153 47.7179 118.871 48.0003 118.377 48.0003H113.788C113.294 48.0003 113.083 47.7179 113.083 47.2238V37.0591C113.083 33.1062 113.224 27.812 113.506 21.2473L113.365 21.1767C112.377 23.365 110.824 26.4709 108.847 30.4944L104.4 39.1062C104.259 39.4591 103.977 39.6709 103.553 39.6709H99.7414C99.3179 39.6709 99.0355 39.4591 98.8943 39.1062L94.4473 30.4944C92.4002 26.4709 90.9179 23.365 89.9296 21.1767L89.7884 21.2473C90.0708 27.812 90.212 33.1062 90.212 37.0591V47.2238C90.0708 47.7179 89.859 48.0003 89.3649 48.0003Z" fill="#003A69"/>
<path d="M147.106 38.3997C147.106 41.5056 146.047 43.9762 144 45.8115C141.953 47.6468 139.129 48.5644 135.671 48.5644C132.212 48.5644 129.388 47.6468 127.341 45.8115C125.294 43.9762 124.235 41.5056 124.235 38.3997V31.6939C124.235 28.5174 125.294 26.0468 127.341 24.1409C129.388 22.235 132.212 21.3174 135.671 21.3174C139.129 21.3174 141.953 22.235 144 24.1409C146.047 26.0468 147.106 28.5174 147.106 31.6939V38.3997ZM130.024 38.3997C130.024 41.7174 131.859 43.3409 135.6 43.3409C137.435 43.3409 138.777 42.9174 139.765 42.0703C140.753 41.2233 141.177 40.0233 141.177 38.3997V31.6939C141.177 30.0703 140.682 28.7997 139.694 27.8821C138.706 26.9644 137.365 26.5409 135.6 26.5409C133.765 26.5409 132.424 26.9644 131.435 27.8821C130.447 28.7291 130.024 29.9997 130.024 31.6939V38.3997Z" fill="#003A69"/>
<path d="M154.659 54.7059H150.565C150.071 54.7059 149.859 54.4941 149.859 54V43.4823C149.859 42.9882 150.071 42.7764 150.565 42.7764H151.694C152.824 42 153.671 40.2353 154.235 37.5529C154.871 34.8 155.435 29.8588 156 22.5882C156.071 22.0941 156.353 21.8823 156.777 21.8823H173.506C174 21.8823 174.282 22.0941 174.282 22.5882V42.7764H176.824C177.318 42.7764 177.6 43.0588 177.6 43.5529V54C177.6 54.4941 177.318 54.7059 176.824 54.7059H172.729C172.235 54.7059 171.953 54.4941 171.953 54V48H155.435V54.0706C155.435 54.4941 155.153 54.7059 154.659 54.7059ZM161.435 27.0353C160.729 35.3647 159.6 40.5882 157.977 42.847H168.424V27.0353H161.435Z" fill="#003A69"/>
<path d="M197.365 40.8706V22.5882C197.365 22.0941 197.647 21.8823 198.141 21.8823H202.447C202.941 21.8823 203.224 22.0941 203.224 22.5882V46.3059C203.224 54.1411 199.482 58.0235 192 58.0235C187.977 58.0235 184.659 56.9647 182.118 54.847C181.765 54.5647 181.694 54.2117 181.977 53.8588L184.165 50.8235C184.447 50.4 184.73 50.3294 185.153 50.5411C187.412 52.0941 189.671 52.8706 192 52.8706C193.906 52.8706 195.318 52.3764 196.235 51.3882C197.153 50.4 197.577 48.7059 197.506 46.3059C195.53 46.9411 193.765 47.2235 192.141 47.2235C189.247 47.2235 186.777 46.3059 184.588 44.5411C182.471 42.7764 181.341 40.2353 181.341 36.9882V22.5882C181.341 22.0941 181.624 21.8823 182.118 21.8823H186.494C186.988 21.8823 187.2 22.0941 187.2 22.5882V36.7059C187.2 38.5411 187.765 39.8117 188.824 40.6588C189.882 41.5059 191.294 41.9294 192.918 41.9294C194.612 41.9294 196.094 41.5764 197.365 40.8706Z" fill="#003A69"/>
<path d="M216.988 39.3884C216.353 42.5649 215.364 44.8237 214.094 46.0943C212.753 47.3649 210.706 48.0708 207.882 48.212C207.388 48.212 207.176 47.9296 207.176 47.4355V43.7649C207.176 43.3414 207.388 43.059 207.882 42.9884C208.87 42.9178 209.647 42.4943 210.141 41.7884C210.706 41.0825 211.129 39.7414 211.553 37.8355C212.117 34.5178 212.541 29.4355 212.823 22.659C212.894 22.1649 213.176 21.9531 213.6 21.9531H230.682C231.176 21.9531 231.459 22.1649 231.459 22.659V47.2943C231.459 47.7884 231.176 48.0708 230.682 48.0708H226.376C225.882 48.0708 225.6 47.7884 225.6 47.2943V27.0355H218.259C217.976 31.8355 217.623 35.9296 216.988 39.3884Z" fill="#003A69"/>
<path d="M247.623 48H237.176C236.682 48 236.4 47.7176 236.4 47.2235V22.5882C236.4 22.0941 236.682 21.8823 237.176 21.8823H241.482C241.976 21.8823 242.259 22.0941 242.259 22.5882V30.3529H247.623C250.729 30.3529 253.2 31.1294 255.106 32.6823C257.012 34.2353 257.929 36.4235 257.929 39.247C257.929 42.2117 257.012 44.4 255.176 45.8117C253.341 47.2941 250.87 48 247.623 48ZM242.259 35.1529V43.1294H246.565C250.165 43.1294 252 41.7882 252 39.1764C252 37.8353 251.576 36.7764 250.659 36.1411C249.741 35.5059 248.4 35.1529 246.565 35.1529H242.259Z" fill="#003A69"/>
<path d="M265.836 26.4003H275.294C279.388 26.4003 282.494 27.2473 284.4 29.012C286.377 30.7767 287.365 33.4591 287.365 37.1297C287.365 40.5885 286.306 43.2709 284.188 45.1767C282.071 47.012 279.177 48.0003 275.506 48.0003H263.365C263.083 48.0003 262.941 47.8591 262.941 47.5767V12.3532C262.941 12.0709 263.083 11.9297 263.365 11.9297H284.541C284.824 11.9297 284.965 12.0709 284.965 12.3532V14.1179C284.965 14.4003 284.824 14.5415 284.541 14.5415H265.765V26.4003H265.836ZM265.836 45.3885H275.577C278.471 45.3885 280.73 44.6826 282.283 43.3415C283.836 42.0003 284.612 39.8826 284.612 37.1297C284.612 34.3062 283.906 32.2591 282.424 30.9179C280.941 29.5767 278.612 28.9415 275.436 28.9415H265.906V45.3885H265.836Z" fill="#003A69"/>
<path d="M292.306 24.0707C294.777 22.306 297.883 21.459 301.483 21.459C304.588 21.459 306.918 22.306 308.612 23.9296C310.306 25.5531 311.083 27.9531 311.083 30.9884V46.306C311.083 46.5178 310.941 46.7296 310.73 46.8002C307.765 47.9296 304.659 48.4943 301.341 48.4943C298.306 48.4943 295.765 47.7884 293.788 46.3766C291.812 44.9649 290.824 42.9884 290.824 40.306C290.824 37.7649 291.741 35.7884 293.647 34.4472C295.553 33.106 298.094 32.4002 301.412 32.4002C303.177 32.4002 305.506 32.6825 308.471 33.1766V31.059C308.471 26.3296 306.141 24.0002 301.412 24.0002C298.518 24.0002 295.906 24.706 293.718 26.0472C293.506 26.1884 293.365 26.1884 293.153 25.9766L292.306 24.6355C292.165 24.3531 292.165 24.2119 292.306 24.0707ZM293.577 40.3766C293.577 42.1413 294.283 43.5531 295.765 44.6119C297.177 45.6002 299.083 46.1649 301.483 46.1649C303.812 46.1649 306.141 45.7413 308.541 44.9649V35.506C306.212 35.0119 303.883 34.7296 301.483 34.7296C296.188 34.7296 293.577 36.6355 293.577 40.3766Z" fill="#003A69"/>
<path d="M318.494 48.0001H316.659C316.377 48.0001 316.235 47.8589 316.235 47.5766V22.5178C316.235 22.2354 316.377 22.0942 316.659 22.0942H318.494C318.777 22.0942 318.918 22.2354 318.918 22.5178V33.3178H333.318V22.5178C333.318 22.2354 333.459 22.0942 333.741 22.0942H335.577C335.859 22.0942 336 22.2354 336 22.5178V47.5766C336 47.8589 335.859 48.0001 335.577 48.0001H333.741C333.459 48.0001 333.318 47.8589 333.318 47.5766V35.7178H318.918V47.5766C318.918 47.8589 318.777 48.0001 318.494 48.0001Z" fill="#003A69"/>
<path d="M361.2 48.0002H358.941C358.73 48.0002 358.588 47.9296 358.447 47.7178L347.506 35.3649L343.694 38.8943V47.5061C343.694 47.7884 343.553 47.9296 343.271 47.9296H341.506C341.224 47.9296 341.083 47.7884 341.083 47.5061V22.4472C341.083 22.1649 341.224 22.0237 341.506 22.0237H343.271C343.553 22.0237 343.694 22.1649 343.694 22.4472V35.6472L357.671 22.1649C357.812 22.0237 357.953 21.9531 358.235 21.9531H360.494C360.635 21.9531 360.777 22.0237 360.847 22.0943C360.918 22.1649 360.847 22.3061 360.706 22.4472L349.271 33.5296L361.412 47.4355C361.694 47.7884 361.483 48.0002 361.2 48.0002Z" fill="#003A69"/>
<path d="M12 0H0V12H12V0Z" fill="#90D1F3"/>
<path d="M12 12H0V24H12V12Z" fill="#D3D800"/>
<path d="M24 12H12V24H24V12Z" fill="#88BD1F"/>
<path d="M36 0H24V12H36V0Z" fill="#003A69"/>
<path d="M48 0H36V12H48V0Z" fill="#90D1F3"/>
<path d="M48 12H36V24H48V12Z" fill="#009EE3"/>
<path d="M60 12H48V24H60V12Z" fill="#88BD1F"/>
<path d="M60 24H48V36H60V24Z" fill="#90D1F3"/>
<path d="M60 48H48V60H60V48Z" fill="#009EE3"/>
<path d="M48 36H36V48H48V36Z" fill="#D3D800"/>
<path d="M36 24H24V36H36V24Z" fill="#D3D800"/>
<path d="M36 48H24V60H36V48Z" fill="#88BD1F"/>
<path d="M24 24H12V36H24V24Z" fill="#90D1F3"/>
<path d="M24 36H12V48H24V36Z" fill="#009EE3"/>
<path d="M12 36H0V48H12V36Z" fill="#003A69"/>
<path d="M12 48H0V60H12V48Z" fill="#90D1F3"/>
</svg>
