<?xml version="1.0" encoding="utf-8"?>
<!-- Generator: Adobe Illustrator 21.1.0, SVG Export Plug-In . SVG Version: 6.00 Build 0)  -->
<svg version="1.1" id="Layer_1" xmlns="http://www.w3.org/2000/svg" xmlns:xlink="http://www.w3.org/1999/xlink" x="0px" y="0px"
	 viewBox="0 0 32 32" style="enable-background:new 0 0 32 32;" xml:space="preserve">
<style type="text/css">
	.st0{fill:#90D1F3;}
	.st1{fill:#D3D800;}
	.st2{fill:#88BD1F;}
	.st3{fill:#003A69;}
	.st4{fill:#009EE3;}
</style>
<g id="Modulbank-logo">
	<path id="path10_fill" class="st0" d="M6.4,0H0v6.4h6.4V0z"/>
	<path id="path10_fill_1_" class="st1" d="M6.4,6.4H0v6.4h6.4V6.4z"/>
	<path id="path10_fill_2_" class="st2" d="M12.8,6.4H6.4v6.4h6.4V6.4z"/>
	<path id="path10_fill_3_" class="st3" d="M19.2,0h-6.4v6.4h6.4V0z"/>
	<path id="path10_fill_4_" class="st0" d="M25.6,0h-6.4v6.4h6.4V0z"/>
	<path id="path10_fill_5_" class="st4" d="M25.6,6.4h-6.4v6.4h6.4V6.4z"/>
	<path id="path10_fill_6_" class="st2" d="M32,6.4h-6.4v6.4H32V6.4z"/>
	<path id="path10_fill_7_" class="st0" d="M32,12.8h-6.4v6.4H32V12.8z"/>
	<path id="path10_fill_8_" class="st4" d="M32,25.6h-6.4V32H32V25.6z"/>
	<path id="path10_fill_9_" class="st1" d="M25.6,19.2h-6.4v6.4h6.4V19.2z"/>
	<path id="path10_fill_10_" class="st1" d="M19.2,12.8h-6.4v6.4h6.4V12.8z"/>
	<path id="path10_fill_11_" class="st2" d="M19.2,25.6h-6.4V32h6.4V25.6z"/>
	<path id="path10_fill_12_" class="st0" d="M12.8,12.8H6.4v6.4h6.4V12.8z"/>
	<path id="path10_fill_13_" class="st4" d="M12.8,19.2H6.4v6.4h6.4V19.2z"/>
	<path id="path10_fill_14_" class="st3" d="M6.4,19.2H0v6.4h6.4V19.2z"/>
	<path id="path10_fill_15_" class="st0" d="M6.4,25.6H0V32h6.4V25.6z"/>
</g>
</svg>
