<svg width="382" height="60" viewBox="0 0 382 60" fill="none" xmlns="http://www.w3.org/2000/svg">
<path d="M89.2017 48.0008H84.6182C84.1246 48.0008 83.9131 47.7184 83.9131 47.2243V12.7066C83.9131 12.2125 84.1246 11.9302 84.6182 11.9302H90.1184C90.5415 11.9302 90.753 12.1419 90.894 12.4949L97.0288 23.9302C98.2981 26.3302 99.7084 29.2949 101.33 32.7537H101.542C103.093 29.2243 104.574 26.2596 105.843 23.9302L111.907 12.4949C112.119 12.1419 112.401 11.9302 112.754 11.9302H118.183C118.677 11.9302 118.959 12.2125 118.959 12.7066V47.2243C118.959 47.7184 118.677 48.0008 118.183 48.0008H113.529C113.036 48.0008 112.824 47.7184 112.824 47.2243V37.0596C112.824 33.1066 112.965 27.8125 113.247 21.2478L113.106 21.1772C112.119 23.3655 110.568 26.4714 108.593 30.4949L104.151 39.1066C104.01 39.4596 103.728 39.6714 103.305 39.6714H99.4968C99.0738 39.6714 98.7917 39.4596 98.6507 39.1066L94.2082 30.4949C92.1633 26.4714 90.6825 23.3655 89.6953 21.1772L89.5543 21.2478C89.8363 27.8125 89.9774 33.1066 89.9774 37.0596V47.2243C89.9774 47.7184 89.6953 48.0008 89.2017 48.0008Z" fill="#003A69"/>
<path d="M146.882 38.4002C146.882 41.5061 145.825 43.9767 143.78 45.812C141.735 47.6473 138.914 48.5649 135.459 48.5649C132.004 48.5649 129.183 47.6473 127.138 45.812C125.093 43.9767 124.036 41.5061 124.036 38.4002V31.6943C124.036 28.5179 125.093 26.0473 127.138 24.1414C129.183 22.2355 132.004 21.3179 135.459 21.3179C138.914 21.3179 141.735 22.2355 143.78 24.1414C145.825 26.0473 146.882 28.5179 146.882 31.6943V38.4002ZM129.818 38.4002C129.818 41.7179 131.651 43.3414 135.389 43.3414C137.222 43.3414 138.562 42.9179 139.549 42.0708C140.536 41.2238 140.959 40.0238 140.959 38.4002V31.6943C140.959 30.0708 140.466 28.8002 139.478 27.8826C138.491 26.9649 137.151 26.5414 135.389 26.5414C133.555 26.5414 132.215 26.9649 131.228 27.8826C130.241 28.7296 129.818 30.0002 129.818 31.6943V38.4002Z" fill="#003A69"/>
<path d="M154.428 54.7061H150.338C149.844 54.7061 149.633 54.4943 149.633 54.0002V43.5531C149.633 43.059 149.844 42.8472 150.338 42.8472H151.466C152.594 42.0708 153.441 40.3061 154.005 37.6237C154.639 34.8708 155.203 29.9296 155.768 22.659C155.838 22.1649 156.12 21.9531 156.543 21.9531H173.255C173.749 21.9531 174.031 22.1649 174.031 22.659V42.8472H176.569C177.063 42.8472 177.345 43.1296 177.345 43.6237V54.0708C177.345 54.5649 177.063 54.7767 176.569 54.7767H172.48C171.986 54.7767 171.704 54.5649 171.704 54.0708V48.0002H155.203V54.0002C155.203 54.4943 154.921 54.7061 154.428 54.7061ZM161.197 27.0355C160.492 35.3649 159.364 40.5884 157.742 42.8472H168.178V27.0355H161.197Z" fill="#003A69"/>
<path d="M197.16 40.9411V22.5882C197.16 22.0941 197.442 21.8823 197.935 21.8823H202.237C202.73 21.8823 203.012 22.0941 203.012 22.5882V46.3059C203.012 54.1411 199.275 58.0235 191.801 58.0235C187.781 58.0235 184.467 56.9647 181.928 54.847C181.576 54.5647 181.505 54.2117 181.787 53.8588L183.973 50.8235C184.255 50.4 184.538 50.3294 184.961 50.5411C187.217 52.0941 189.474 52.8706 191.801 52.8706C193.704 52.8706 195.115 52.3764 196.031 51.3882C196.948 50.4 197.371 48.7059 197.301 46.3059C195.326 46.9411 193.563 47.2235 191.942 47.2235C189.05 47.2235 186.582 46.3059 184.397 44.5411C182.281 42.7764 181.153 40.2353 181.153 36.9882V22.5882C181.153 22.0941 181.435 21.8823 181.928 21.8823H186.3C186.794 21.8823 187.006 22.0941 187.006 22.5882V36.7059C187.006 38.5411 187.57 39.8117 188.627 40.6588C189.685 41.5059 191.095 41.9294 192.717 41.9294C194.339 41.9294 195.82 41.5764 197.16 40.9411Z" fill="#003A69"/>
<path d="M216.692 39.3884C216.058 42.5649 215.07 44.8237 213.801 46.0943C212.461 47.3649 210.416 48.0708 207.596 48.212C207.102 48.212 206.891 47.9296 206.891 47.4355V43.7649C206.891 43.3414 207.102 43.059 207.596 42.9884C208.583 42.9178 209.359 42.4943 209.852 41.7884C210.416 41.0825 210.839 39.7414 211.263 37.8355C211.827 34.5178 212.25 29.4355 212.532 22.659C212.602 22.1649 212.884 21.9531 213.307 21.9531H230.372C230.866 21.9531 231.148 22.1649 231.148 22.659V47.2237C231.148 47.7178 230.866 48.0002 230.372 48.0002H226.071C225.577 48.0002 225.295 47.7178 225.295 47.2237V27.0355H217.891C217.679 31.8355 217.327 35.9296 216.692 39.3884Z" fill="#003A69"/>
<path d="M247.295 47.9294H236.929C236.436 47.9294 236.154 47.647 236.154 47.1529V22.5882C236.154 22.0941 236.436 21.8823 236.929 21.8823H241.231C241.724 21.8823 242.007 22.0941 242.007 22.5882V30.3529H247.366C250.468 30.3529 252.936 31.1294 254.84 32.6823C256.744 34.2353 257.661 36.4235 257.661 39.247C257.661 42.2117 256.744 44.4 254.911 45.8117C253.007 47.2235 250.539 47.9294 247.295 47.9294ZM241.936 35.1529V43.1294H246.237C249.834 43.1294 251.667 41.7882 251.667 39.1764C251.667 37.8353 251.244 36.7764 250.327 36.1411C249.411 35.5059 248.071 35.1529 246.237 35.1529H241.936Z" fill="#003A69"/>
<path d="M265.065 47.9295H263.091C262.809 47.9295 262.668 47.7883 262.668 47.5059V12.2824C262.668 12.0001 262.809 11.8589 263.091 11.8589H265.065C265.348 11.8589 265.489 12.0001 265.489 12.2824V30.7765L283.681 12.1412C283.893 11.9295 284.034 11.8589 284.245 11.8589H286.784C286.925 11.8589 287.066 11.9295 287.137 12.0001C287.207 12.0707 287.137 12.2118 287.066 12.353L271.694 28.0942L287.983 47.3648C288.194 47.6471 287.983 47.8589 287.701 47.8589H285.162C284.88 47.8589 284.81 47.7883 284.669 47.5765L269.79 30.0001L265.489 34.3059V47.4354C265.418 47.7883 265.277 47.9295 265.065 47.9295Z" fill="#003A69"/>
<path d="M291.791 24.0707C294.259 22.306 297.361 21.459 301.028 21.459C304.131 21.459 306.458 22.306 308.15 23.9296C309.842 25.5531 310.618 27.9531 310.618 30.9884V46.306C310.618 46.5178 310.477 46.7296 310.266 46.8002C307.304 47.9296 304.201 48.4943 300.887 48.4943C297.855 48.4943 295.316 47.7884 293.342 46.3766C291.368 44.9649 290.38 42.9178 290.38 40.306C290.38 37.7649 291.297 35.7884 293.201 34.3766C295.105 32.9649 297.643 32.3296 300.958 32.3296C302.72 32.3296 305.118 32.6119 308.009 33.106V30.9178C308.009 26.1884 305.682 23.7884 300.958 23.7884C298.066 23.7884 295.457 24.4943 293.271 25.8355C293.06 25.9766 292.919 25.9766 292.707 25.7649L291.861 24.4237C291.65 24.3531 291.65 24.1413 291.791 24.0707ZM293.06 40.306C293.06 42.0707 293.765 43.4825 295.246 44.5413C296.656 45.6002 298.56 46.0943 300.958 46.0943C303.285 46.0943 305.682 45.6707 308.009 44.8943V35.506C305.682 35.0119 303.355 34.7296 300.958 34.7296C295.669 34.7296 293.06 36.6355 293.06 40.306Z" fill="#003A69"/>
<path d="M334.946 45.459C332.266 47.506 329.375 48.5649 326.061 48.5649C322.888 48.5649 320.42 47.6472 318.516 45.8825C316.683 44.1178 315.695 41.7884 315.695 39.0355V30.9884C315.695 28.2355 316.612 25.9766 318.516 24.1413C320.349 22.3766 322.888 21.459 326.061 21.459C328.952 21.459 331.632 22.306 334.17 24.0707C334.382 24.2825 334.452 24.4943 334.311 24.706L333.465 26.0472C333.253 26.259 333.042 26.259 332.83 26.1178C330.715 24.706 328.458 23.9296 326.061 23.9296C323.663 23.9296 321.83 24.5649 320.42 25.906C319.08 27.2472 318.375 28.9413 318.375 30.9884V39.0355C318.375 41.1531 319.08 42.8472 320.42 44.1178C321.76 45.459 323.663 46.0943 326.061 46.0943C328.67 46.0943 331.138 45.2472 333.536 43.5531C333.747 43.3413 333.959 43.3413 334.17 43.6237L335.016 44.8943C335.157 45.106 335.157 45.3178 334.946 45.459Z" fill="#003A69"/>
<path d="M358.215 45.459C355.536 47.506 352.645 48.5649 349.331 48.5649C346.157 48.5649 343.689 47.6472 341.785 45.8825C339.952 44.1178 338.965 41.7884 338.965 39.0355V30.9884C338.965 28.2355 339.882 25.9766 341.785 24.1413C343.619 22.3766 346.157 21.459 349.331 21.459C352.222 21.459 354.901 22.306 357.44 24.0707C357.651 24.2825 357.722 24.4943 357.581 24.706L356.735 26.0472C356.523 26.259 356.311 26.259 356.1 26.1178C353.984 24.706 351.728 23.9296 349.331 23.9296C346.933 23.9296 345.1 24.5649 343.689 25.906C342.35 27.2472 341.644 28.9413 341.644 30.9884V39.0355C341.644 41.1531 342.35 42.8472 343.689 44.1178C345.029 45.459 346.933 46.0943 349.331 46.0943C351.94 46.0943 354.408 45.2472 356.805 43.5531C357.017 43.3413 357.228 43.3413 357.44 43.6237L358.286 44.8943C358.427 45.106 358.356 45.3178 358.215 45.459Z" fill="#003A69"/>
<path d="M362.94 24.0707C365.408 22.306 368.51 21.459 372.177 21.459C375.28 21.459 377.607 22.306 379.299 23.9296C380.991 25.5531 381.767 27.9531 381.767 30.9884V46.306C381.767 46.5178 381.626 46.7296 381.414 46.8002C378.453 47.9296 375.35 48.4943 372.036 48.4943C369.004 48.4943 366.465 47.7884 364.491 46.3766C362.517 44.9649 361.529 42.9178 361.529 40.306C361.529 37.7649 362.446 35.7884 364.35 34.3766C366.254 32.9649 368.792 32.3296 372.107 32.3296C373.869 32.3296 376.267 32.6119 379.158 33.106V30.9178C379.158 26.1884 376.831 23.7884 372.107 23.7884C369.215 23.7884 366.606 24.4943 364.42 25.8355C364.209 25.9766 364.068 25.9766 363.856 25.7649L363.01 24.4237C362.799 24.3531 362.799 24.1413 362.94 24.0707ZM364.209 40.306C364.209 42.0707 364.914 43.4825 366.395 44.5413C367.805 45.6002 369.709 46.0943 372.107 46.0943C374.434 46.0943 376.831 45.6707 379.158 44.8943V35.506C376.831 35.0119 374.504 34.7296 372.107 34.7296C366.818 34.7296 364.209 36.6355 364.209 40.306Z" fill="#003A69"/>
<path d="M11.9875 12H0V24H11.9875V12Z" fill="#DCDE4A"/>
<path d="M35.9626 24H23.9751V36H35.9626V24Z" fill="#DCDE4A"/>
<path d="M47.9499 36H35.9624V48H47.9499V36Z" fill="#DCDE4A"/>
<path d="M47.9504 12H35.9629V24H47.9504V12Z" fill="#C3CE00"/>
<path d="M59.9377 48H47.9502V60H59.9377V48Z" fill="#C3CE00"/>
<path d="M23.9753 36H11.9878V48H23.9753V36Z" fill="#C3CE00"/>
<path d="M35.9626 0H23.9751V12H35.9626V0Z" fill="#BDC800"/>
<path d="M11.9875 36H0V48H11.9875V36Z" fill="#BDC800"/>
<path d="M23.9748 12H11.9873V24H23.9748V12Z" fill="#D3D800"/>
<path d="M35.9626 48H23.9751V60H35.9626V48Z" fill="#D3D800"/>
<path d="M59.9377 12H47.9502V24H59.9377V12Z" fill="#D3D800"/>
<path d="M11.9875 0H0V12H11.9875V0Z" fill="#E6E466"/>
<path d="M23.9748 24H11.9873V36H23.9748V24Z" fill="#E6E466"/>
<path d="M11.9875 48H0V60H11.9875V48Z" fill="#E6E466"/>
<path d="M47.9499 0H35.9624V12H47.9499V0Z" fill="#E6E466"/>
<path d="M59.9377 24H47.9502V36H59.9377V24Z" fill="#E6E466"/>
</svg>
