<svg xmlns="http://www.w3.org/2000/svg" xmlns:xlink="http://www.w3.org/1999/xlink" width="241" height="40"><use fill="#003A69" transform="translate(56.04 7.95)" xlink:href="#path0_fill"/><use fill="#003A69" transform="translate(82.81 14.21)" xlink:href="#path1_fill"/><use fill="#003A69" transform="translate(99.89 14.59)" xlink:href="#path2_fill"/><use fill="#003A69" transform="translate(120.88 14.59)" xlink:href="#path3_fill"/><use fill="#003A69" transform="translate(138.1 14.64)" xlink:href="#path4_fill"/><use fill="#003A69" transform="translate(157.58 14.59)" xlink:href="#path5_fill"/><use fill="#003A69" transform="translate(175.27 7.95)" xlink:href="#path6_fill"/><use fill="#003A69" transform="translate(193.86 14.31)" xlink:href="#path7_fill"/><use fill="#003A69" transform="translate(210.8 14.73)" xlink:href="#path8_fill"/><use fill="#003A69" transform="translate(227.36 14.64)" xlink:href="#path9_fill"/><use fill="#90D1F3" xlink:href="#path10_fill"/><use fill="#D3D800" transform="translate(0 8)" xlink:href="#path10_fill"/><use fill="#88BD1F" transform="translate(8 8)" xlink:href="#path10_fill"/><use fill="#003A69" transform="translate(16)" xlink:href="#path10_fill"/><use fill="#90D1F3" transform="translate(24)" xlink:href="#path10_fill"/><use fill="#009EE3" transform="translate(24 8)" xlink:href="#path10_fill"/><use fill="#88BD1F" transform="translate(32 8)" xlink:href="#path10_fill"/><use fill="#90D1F3" transform="translate(32 16)" xlink:href="#path10_fill"/><use fill="#009EE3" transform="translate(32 32)" xlink:href="#path10_fill"/><use fill="#D3D800" transform="translate(24 24)" xlink:href="#path10_fill"/><use fill="#D3D800" transform="translate(16 16)" xlink:href="#path10_fill"/><use fill="#88BD1F" transform="translate(16 32)" xlink:href="#path10_fill"/><use fill="#90D1F3" transform="translate(8 16)" xlink:href="#path10_fill"/><use fill="#009EE3" transform="translate(8 24)" xlink:href="#path10_fill"/><use fill="#003A69" transform="translate(0 24)" xlink:href="#path10_fill"/><use fill="#90D1F3" transform="translate(0 32)" xlink:href="#path10_fill"/><defs><path id="path0_fill" d="M3.53 24.05H.47c-.33 0-.47-.2-.47-.52V.52C0 .19.14 0 .47 0h3.67c.28 0 .42.14.52.38L8.76 8c.84 1.6 1.78 3.58 2.86 5.88h.14A77.96 77.96 0 0 1 14.63 8L18.68.38c.14-.24.33-.38.56-.38h3.63c.33 0 .52.19.52.52v23c0 .34-.2.53-.52.53H19.8c-.33 0-.47-.2-.47-.52v-6.78c0-2.63.1-6.16.28-10.54l-.1-.05c-.65 1.46-1.69 3.53-3 6.22l-2.97 5.74a.57.57 0 0 1-.56.37h-2.54a.57.57 0 0 1-.57-.37l-2.96-5.74A153.09 153.09 0 0 1 3.9 6.16l-.1.05c.19 4.38.28 7.9.28 10.54v6.78c-.1.33-.23.52-.56.52z"/><path id="path1_fill" d="M15.25 11.39a6.3 6.3 0 0 1-2.08 4.94c-1.36 1.22-3.24 1.83-5.55 1.83-2.3 0-4.19-.6-5.55-1.83A6.32 6.32 0 0 1 0 11.39V6.92C0 4.8.7 3.15 2.07 1.88 3.43.61 5.32 0 7.62 0s4.19.61 5.55 1.88a6.53 6.53 0 0 1 2.08 5.04v4.47zm-11.4 0c0 2.21 1.23 3.3 3.73 3.3a4.1 4.1 0 0 0 2.77-.85c.66-.57.94-1.37.94-2.45V6.92a3.3 3.3 0 0 0-.99-2.54c-.65-.62-1.55-.9-2.72-.9-1.23 0-2.12.28-2.78.9-.66.56-.94 1.4-.94 2.54v4.47z"/><path id="path2_fill" d="M3.2 21.88H.47c-.33 0-.47-.14-.47-.47V14.4c0-.33.14-.47.47-.47h.75c.76-.52 1.32-1.7 1.7-3.48.42-1.84.8-5.13 1.17-9.98.05-.33.24-.47.52-.47h11.15c.33 0 .52.14.52.47v13.46h1.7c.32 0 .51.19.51.52v6.96c0 .33-.19.47-.52.47h-2.72c-.33 0-.52-.14-.52-.47v-4H3.72v4.05c0 .28-.2.42-.52.42zM7.72 3.44c-.47 5.55-1.23 9.03-2.3 10.54h6.95V3.44H7.72z"/><path id="path3_fill" d="M10.68 12.66V.47c0-.33.19-.47.52-.47h2.87c.33 0 .52.14.52.47v15.81c0 5.23-2.5 7.81-7.49 7.81-2.68 0-4.89-.7-6.58-2.11-.24-.2-.28-.43-.1-.66l1.46-2.03c.19-.28.38-.33.66-.18a7.96 7.96 0 0 0 4.56 1.55c1.28 0 2.22-.33 2.83-.99.61-.66.9-1.79.85-3.39-1.32.43-2.5.61-3.58.61a7.75 7.75 0 0 1-5.04-1.78A6.24 6.24 0 0 1 0 10.07V.47C0 .14.19 0 .52 0h2.91c.33 0 .48.14.48.47v9.41c0 1.23.37 2.07 1.08 2.64.7.56 1.64.84 2.73.84a6 6 0 0 0 2.96-.7z"/><path id="path4_fill" d="M6.54 11.62c-.42 2.12-1.08 3.63-1.93 4.47-.9.85-2.26 1.32-4.14 1.42-.33 0-.47-.2-.47-.52v-2.45c0-.28.14-.47.47-.52a1.93 1.93 0 0 0 1.5-.8c.38-.47.66-1.36.95-2.63.37-2.21.66-5.6.84-10.12C3.81.14 4 0 4.28 0h11.39c.33 0 .52.14.52.47V16.9c0 .33-.2.52-.52.52H12.8c-.33 0-.52-.19-.52-.52V3.4h-4.9c-.18 3.2-.42 5.93-.84 8.23z"/><path id="path5_fill" d="M7.48 17.41H.52c-.33 0-.52-.19-.52-.52V.47C0 .14.19 0 .52 0h2.87c.33 0 .52.14.52.47v5.18h3.57c2.07 0 3.72.51 4.99 1.55s1.88 2.5 1.88 4.38c0 1.97-.61 3.43-1.83 4.37-1.23 1-2.87 1.46-5.04 1.46zM3.91 8.85v5.31h2.87c2.4 0 3.62-.89 3.62-2.63 0-.9-.28-1.6-.9-2.02a4.76 4.76 0 0 0-2.72-.66H3.9z"/><path id="path6_fill" d="M1.93 9.65h6.3c2.73 0 4.8.56 6.07 1.74 1.32 1.17 1.98 2.96 1.98 5.41 0 2.3-.7 4.1-2.12 5.36-1.4 1.23-3.34 1.89-5.78 1.89H.28c-.19 0-.28-.1-.28-.29V.28C0 .1.1 0 .28 0H14.4c.19 0 .28.1.28.28v1.18c0 .19-.1.28-.28.28H1.88v7.9h.05zm0 12.66h6.5c1.92 0 3.43-.47 4.46-1.37 1.04-.9 1.56-2.3 1.56-4.14 0-1.88-.48-3.25-1.46-4.14-1-.9-2.54-1.32-4.66-1.32H1.98v10.97h-.05z"/><path id="path7_fill" d="M.99 1.74A10.3 10.3 0 0 1 7.1 0c2.07 0 3.62.56 4.75 1.65 1.13 1.08 1.64 2.68 1.64 4.7v10.21c0 .15-.09.29-.23.33A17.36 17.36 0 0 1 7 18.02a8.49 8.49 0 0 1-5.03-1.4A4.63 4.63 0 0 1 0 12.55c0-1.69.61-3 1.88-3.9 1.27-.9 2.97-1.37 5.18-1.37 1.17 0 2.73.2 4.7.52V6.4c0-3.15-1.55-4.7-4.7-4.7a9.7 9.7 0 0 0-5.13 1.36c-.14.1-.24.1-.38-.05L1 2.11c-.1-.18-.1-.27 0-.37zm.85 10.87a3.3 3.3 0 0 0 1.45 2.83 6.54 6.54 0 0 0 3.82 1.03c1.55 0 3.1-.28 4.7-.8v-6.3c-1.55-.33-3.1-.52-4.7-.52-3.53 0-5.27 1.27-5.27 3.76z"/><path id="path8_fill" d="M1.5 17.27H.29c-.19 0-.28-.1-.28-.28V.29C0 .08.1 0 .28 0h1.23c.18 0 .28.1.28.28v7.2h9.6V.28c0-.19.1-.28.28-.28h1.22c.2 0 .28.1.28.28v16.7c0 .2-.09.3-.28.3h-1.22c-.19 0-.28-.1-.28-.3v-7.9h-9.6v7.9c0 .2-.1.3-.28.3z"/><path id="path9_fill" d="M13.41 17.36h-1.5c-.15 0-.24-.04-.34-.18L4.28 8.94 1.74 11.3v5.75c0 .18-.1.28-.28.28H.28c-.19 0-.28-.1-.28-.28V.33C0 .14.1.05.28.05h1.18c.19 0 .28.1.28.28v8.8L11.06.14c.1-.1.19-.14.37-.14h1.51c.1 0 .19.05.23.1.05.04 0 .14-.09.23L5.46 7.72l8.1 9.27c.18.23.04.37-.15.37z"/><path id="path10_fill" d="M8 0H0v8h8V0z"/></defs></svg>