<svg fill="none" height="226" width="292" xmlns="http://www.w3.org/2000/svg" xmlns:xlink="http://www.w3.org/1999/xlink"><filter id="a" color-interpolation-filters="sRGB" filterUnits="userSpaceOnUse" height="195" width="285" x="0" y="30.055"><feFlood flood-opacity="0" result="BackgroundImageFix"/><feColorMatrix in="SourceAlpha" values="0 0 0 0 0 0 0 0 0 0 0 0 0 0 0 0 0 0 127 0"/><feOffset dx="7" dy="14"/><feGaussianBlur stdDeviation="10.5"/><feColorMatrix values="0 0 0 0 0 0 0 0 0 0.436856 0 0 0 0 0.532751 0 0 0 0.2 0"/><feBlend in2="BackgroundImageFix" result="effect1_dropShadow"/><feBlend in="SourceGraphic" in2="effect1_dropShadow" result="shape"/></filter><linearGradient id="b" gradientUnits="userSpaceOnUse" x1="19" x2="257" y1="43" y2="190"><stop offset="0" stop-color="#fff" stop-opacity=".2"/><stop offset="1" stop-color="#fff" stop-opacity="0"/></linearGradient><clipPath id="c"><path d="m14 37.055h243v153h-243z"/></clipPath><mask id="d" height="32" maskUnits="userSpaceOnUse" width="32" x="13" y="159"><path d="m14 159.539h30.614v30.588h-30.614z" fill="#7bbb42"/></mask><mask id="e" height="32" maskUnits="userSpaceOnUse" width="29" x="228" y="67"><path d="m228.299 67.697h28.63v30.613h-28.63z" fill="#00a3da"/></mask><mask id="f" height="31" maskUnits="userSpaceOnUse" width="29" x="228" y="37"><path d="m228.299 37.127h28.63v30.613h-28.63z" fill="#fff"/></mask><mask id="g" height="32" maskUnits="userSpaceOnUse" width="31" x="75" y="159"><path d="m75.228 159.54h30.614v30.587h-30.614z" fill="#fff"/></mask><mask id="h" height="32" maskUnits="userSpaceOnUse" width="31" x="167" y="159"><path d="m167.072 159.54h30.613v30.587h-30.613z" fill="#fff"/></mask><mask id="i" height="32" maskUnits="userSpaceOnUse" width="29" x="228" y="128"><path d="m228.299 128.925h28.63v30.615h-28.63z" fill="#fff"/></mask><path d="m31.898 93.266c-9.171-19.396 1.697-42.336 22.517-47.523l113.235-28.213a34 34 0 0 1 37.023 14.925l58.872 93.857c12.52 19.96 1.435 46.294-21.59 51.293l-127.939 27.773c-15.458 3.356-31.189-4.393-37.95-18.693z" fill="#a3f2ef"/><g clip-path="url(#c)" filter="url(#a)"><path clip-rule="evenodd" d="m14 182.126a8 8 0 0 0 8 8h226.929a8 8 0 0 0 8-8v-137.07a8 8 0 0 0 -8-8h-226.929a8 8 0 0 0 -8 8z" fill="#2e79b1" fill-rule="evenodd"/><path clip-rule="evenodd" d="m45.654 97.835c0-16.621 13.474-30.094 30.094-30.094s30.094 13.473 30.094 30.094-13.474 30.095-30.094 30.095-30.094-13.474-30.094-30.095z" fill="#003555" fill-rule="evenodd"/><g mask="url(#d)"><path clip-rule="evenodd" d="m14 174.846c0-8.453 6.853-15.307 15.307-15.307s15.307 6.854 15.307 15.307c0 8.454-6.853 15.308-15.307 15.308s-15.307-6.854-15.307-15.308z" fill="#7bbb42" fill-rule="evenodd"/></g><path clip-rule="evenodd" d="m136.457 113.618c0-8.454 6.853-15.307 15.307-15.307s15.307 6.853 15.307 15.307-6.853 15.307-15.307 15.307-15.307-6.853-15.307-15.307z" fill="#00a3da" fill-rule="evenodd"/><g mask="url(#e)"><path clip-rule="evenodd" d="m228.299 83.004c0-8.455 6.854-15.308 15.308-15.308s15.306 6.854 15.306 15.308-6.852 15.306-15.306 15.306-15.308-6.852-15.308-15.306z" fill="#00a3da" fill-rule="evenodd"/></g><g mask="url(#f)"><path clip-rule="evenodd" d="m258.913 67.74h-30.614v-30.613z" fill="#7bbb42" fill-rule="evenodd"/></g><path clip-rule="evenodd" d="m167.071 98.31h-30.614v-30.612zm61.228 30.615h-30.614v-30.614z" fill="#7bbb42" fill-rule="evenodd"/><g mask="url(#g)"><path clip-rule="evenodd" d="m105.842 190.154h-30.614v-30.614z" fill="#7bbb42" fill-rule="evenodd"/></g><path clip-rule="evenodd" d="m44.614 159.539h-30.614l30.614-30.613zm61.228 0h-30.614l30.614-30.613z" fill="#003555" fill-rule="evenodd"/><g mask="url(#h)"><path clip-rule="evenodd" d="m197.685 190.154h-30.613l30.613-30.614z" fill="#003555" fill-rule="evenodd"/></g><g mask="url(#i)"><path clip-rule="evenodd" d="m258.913 159.54h-30.614l30.614-30.615z" fill="#003555" fill-rule="evenodd"/></g><g clip-rule="evenodd" fill-rule="evenodd"><path d="m44.615 159.54h30.614v-30.614h-30.614zm153.07 30.614h30.614v-30.614h-30.614zm-61.228 0h30.614v-30.614h-30.614zm-30.615-91.844h30.615v-30.612h-30.615z" fill="#00a3da"/><path d="m14 98.31v-30.612h30.614zm91.842 30.615v-30.614h30.615zm0 61.229v-61.229h61.229zm61.229-61.229v-30.614h30.613z" fill="#c6d639"/><path d="m182.378 159.539h15.307v-15.308h-15.307z" fill="#7bbb42"/><path d="m167.071 144.232h15.307v-15.307h-15.307z" fill="#003555"/><path d="m167.071 159.539h15.307v-15.308h-15.307zm15.307-15.307h15.307v-15.307h-15.307z" fill="#00a3da"/><path d="m251.26 174.846h7.653v-7.653h-7.653z" fill="#7bbb42"/><path d="m243.607 167.193h7.653v-7.653h-7.653z" fill="#003555"/><path d="m243.607 174.846h7.653v-7.653h-7.653zm7.653-7.653h7.653v-7.653h-7.653z" fill="#00a3da"/><path d="m251.26 113.618h7.653v-7.653h-7.653z" fill="#7bbb42"/><path d="m243.607 105.965h7.653v-7.654h-7.653z" fill="#003555"/><path d="m243.607 113.618h7.653v-7.653h-7.653zm7.653-7.653h7.653v-7.654h-7.653z" fill="#00a3da"/><path d="m29.307 128.924h15.307v-15.307h-15.307z" fill="#7bbb42"/><path d="m14 113.618h15.307v-15.307h-15.307z" fill="#003555"/><path d="m14 128.924h15.307v-15.307h-15.307z" fill="#00a3da"/><path d="m29.307 113.618h15.307v-15.307h-15.307z" fill="#00a3da"/><path d="m197.685 98.31h30.614v-30.612h-30.614zm-30.613-30.613h30.613v-30.615h-30.613z" fill="#003555"/><path d="m167.072 98.31h30.613v-30.612h-30.613z" fill="#7bbb42"/><path d="m197.685 67.697h30.614v-30.615h-30.614z" fill="#00a3da"/><g fill="#fffffe"><path d="m52.71 49.262v-3.207h-6.414v3.207h3.207v3.207h3.207v3.207h3.207v-6.414zm-3.207 6.414v-3.206h-3.207v-3.207h-3.206v-3.207h-3.207v6.414h3.207v3.207h-3.207v6.414h3.207v-3.207h3.207v-3.207zm0 3.207h3.207v-3.207h-3.207z"/><path d="m46.296 62.09h3.207v-3.207h-3.207zm6.414 0h3.207v-3.207h-3.207zm11.032-3.217h-1.222c-.125 0-.188-.067-.188-.202v-9.203c0-.134.063-.2.188-.2h1.465c.107 0 .18.048.215.147l1.64 3.05c.34.635.72 1.424 1.141 2.364h.054c.42-.94.801-1.729 1.142-2.365l1.626-3.049c.053-.099.13-.148.228-.148h1.451c.134 0 .201.067.201.201v9.203c0 .135-.067.202-.2.202h-1.224c-.125 0-.188-.067-.188-.202v-2.7c0-1.057.036-2.463.108-4.219l-.04-.013c-.27.582-.672 1.41-1.21 2.485l-1.182 2.297a.232.232 0 0 1 -.229.148h-1.02a.23.23 0 0 1 -.229-.148l-1.182-2.297a95.579 95.579 0 0 1 -1.21-2.485l-.04.013c.072 1.756.108 3.162.108 4.22v2.7c0 .134-.068.201-.202.201zm10.873-2.553c0 .878.497 1.316 1.491 1.316.484 0 .853-.11 1.11-.336.254-.222.381-.55.381-.98v-1.8c0-.438-.129-.777-.389-1.014s-.627-.356-1.102-.356c-.483 0-.853.117-1.108.35-.256.233-.383.573-.383 1.02zm4.555 0c0 .833-.278 1.494-.833 1.981-.556.49-1.299.733-2.23.733-.932 0-1.676-.244-2.23-.733-.556-.487-.834-1.148-.834-1.98v-1.8c0-.843.278-1.515.833-2.017.555-.5 1.3-.751 2.23-.751.932 0 1.675.25 2.231.751.555.503.833 1.175.833 2.017zm3.83-3.036c-.18 2.222-.489 3.627-.928 4.219h2.795v-4.22zm-1.815 7.403h-1.088c-.126 0-.188-.063-.188-.188v-2.809c0-.125.062-.188.188-.188h.296c.295-.206.523-.674.685-1.404.161-.73.317-2.063.47-3.997.018-.126.085-.188.201-.188h4.461c.135 0 .202.062.202.188v5.4h.685c.134 0 .201.068.201.202v2.795c0 .125-.067.188-.2.188h-1.089c-.135 0-.202-.063-.202-.188v-1.626h-4.42v1.626c0 .125-.067.188-.202.188zm11.42-3.695v-4.89c0-.126.068-.189.202-.189h1.156c.134 0 .2.063.2.188v6.328c0 2.087-.997 3.131-2.995 3.131-1.075 0-1.953-.282-2.633-.847-.1-.07-.112-.16-.04-.268l.577-.82c.072-.116.157-.139.256-.067.599.412 1.209.618 1.827.618.5 0 .877-.132 1.128-.396.25-.265.363-.715.336-1.35a4.851 4.851 0 0 1 -1.437.241c-.771 0-1.443-.239-2.015-.719-.574-.479-.861-1.153-.861-2.022v-3.829c0-.125.068-.188.202-.188h1.169c.125 0 .188.063.188.188v3.762c0 .484.143.838.43 1.062s.654.336 1.102.336a2.41 2.41 0 0 0 1.209-.269zm5.227-.403c-.17.851-.43 1.449-.78 1.794s-.904.53-1.665.558c-.126 0-.188-.068-.188-.202v-.981c0-.116.062-.188.188-.215a.792.792 0 0 0 .61-.323c.149-.196.272-.55.37-1.061.153-.886.265-2.239.337-4.057.017-.126.085-.188.2-.188h4.569c.134 0 .202.062.202.188v6.57c0 .134-.068.201-.202.201h-1.155c-.135 0-.202-.067-.202-.201v-5.388h-1.961c-.045 1.281-.153 2.383-.323 3.305zm6.764-1.142v2.136h1.156c.967 0 1.451-.353 1.451-1.061.009-.367-.108-.638-.35-.813-.241-.175-.609-.262-1.101-.262zm1.424 3.426h-2.781c-.134 0-.201-.067-.201-.201v-6.57c0-.126.067-.188.201-.188h1.156c.134 0 .201.062.201.188v2.069h1.424c.825 0 1.49.211 1.995.631.507.421.76 1.003.76 1.747 0 .797-.244 1.384-.733 1.76-.488.376-1.162.564-2.022.564zm4.862-.685h2.593c.78 0 1.377-.184 1.794-.55.416-.368.625-.919.625-1.654 0-.752-.198-1.305-.592-1.659s-1.016-.53-1.867-.53h-2.553zm0-5.079h2.54c1.101 0 1.914.233 2.438.7s.786 1.19.786 2.175c0 .932-.28 1.646-.84 2.143-.56.498-1.332.746-2.318.746h-3.237c-.081 0-.121-.036-.121-.107v-9.392c0-.07.04-.107.121-.107h5.656c.072 0 .107.036.107.107v.47c0 .072-.035.108-.107.108h-5.025zm7.417 3.735c0 .475.192.85.578 1.122.384.273.891.41 1.518.41s1.254-.108 1.881-.323v-2.499a8.858 8.858 0 0 0 -1.881-.2c-1.398 0-2.096.496-2.096 1.49zm-.336-4.34c.663-.465 1.482-.698 2.459-.698.824 0 1.458.22 1.901.658s.665 1.066.665 1.881v4.084c0 .063-.032.108-.094.135a6.882 6.882 0 0 1 -2.499.456c-.815 0-1.49-.188-2.022-.564-.533-.376-.8-.913-.8-1.612 0-.68.251-1.205.753-1.572.501-.367 1.191-.55 2.069-.55.474 0 1.101.071 1.881.214v-.577c0-1.264-.627-1.895-1.881-1.895-.78 0-1.465.184-2.056.551-.054.045-.103.036-.148-.027l-.228-.35c-.045-.062-.045-.107 0-.134zm6.991 6.37h-.484c-.08 0-.12-.037-.12-.108v-6.69c0-.082.04-.122.12-.122h.484c.072 0 .107.04.107.121v2.888h3.856v-2.888c0-.08.036-.12.108-.12h.484c.08 0 .12.04.12.12v6.691c0 .071-.04.107-.12.107h-.484c-.072 0-.108-.036-.108-.107v-3.158h-3.856v3.158c0 .071-.035.107-.107.107zm11.404.012h-.607c-.063 0-.088-.014-.135-.067l-2.913-3.29-1.012.943v2.306c0 .072-.036.108-.107.108h-.473c-.081 0-.121-.036-.121-.108v-6.717c0-.08.04-.12.121-.12h.473c.071 0 .107.04.107.12v3.534l3.736-3.6c.044-.044.077-.055.149-.055h.606c.045 0 .074.013.088.041.014.027.002.058-.033.094l-3.048 2.954 3.236 3.722c.07.083.011.135-.067.135zm-116.663 42.379c.253.343.454.722.584 1.128a4.006 4.006 0 0 1 0 2.606 3.9 3.9 0 0 1 -.587 1.128 1.052 1.052 0 0 0 .216 1.465 1.05 1.05 0 0 0 1.465-.219 6.311 6.311 0 0 0 .895-1.706 6.317 6.317 0 0 0 .002-3.94 6.394 6.394 0 0 0 -.897-1.707 1.043 1.043 0 0 0 -1.461-.216c-.467.343-.56.998-.217 1.461zm3.579-1.949a8.292 8.292 0 0 1 1.242 4.38 8.29 8.29 0 0 1 -1.242 4.381 1.047 1.047 0 0 0 1.784 1.096 10.377 10.377 0 0 0 1.548-5.477 10.392 10.392 0 0 0 -1.548-5.477 1.043 1.043 0 0 0 -1.44-.34 1.05 1.05 0 0 0 -.344 1.437zm3.8-1.986c1.094 1.87 1.721 4.04 1.721 6.366s-.627 4.498-1.724 6.364c-.288.504-.122 1.143.378 1.434s1.14.123 1.43-.377a14.66 14.66 0 0 0 2.002-7.421c0-2.701-.728-5.24-2.002-7.419a1.045 1.045 0 0 0 -1.805 1.053z"/><path d="m30.862 95.338a16.865 16.865 0 0 1 2.205 8.358 16.862 16.862 0 0 1 -2.205 8.36 1.042 1.042 0 0 0 .394 1.423 1.04 1.04 0 0 0 1.423-.389 18.924 18.924 0 0 0 2.48-9.394c0-3.414-.9-6.622-2.48-9.393a1.041 1.041 0 0 0 -1.423-.39 1.043 1.043 0 0 0 -.394 1.425z"/></g><path d="m215.682 169.984h13.797v-24.793h-13.797z" fill="#e05a29"/><path d="m216.557 157.588c0-5.03 2.354-9.51 6.022-12.396a15.697 15.697 0 0 0 -9.745-3.373c-8.707 0-15.766 7.061-15.766 15.769s7.059 15.768 15.766 15.768c3.679 0 7.063-1.26 9.745-3.372a15.735 15.735 0 0 1 -6.022-12.396z" fill="#d8232a"/><path d="m247.598 167.358v-.611h-.159l-.185.421-.183-.421h-.16v.611h.113v-.462l.172.399h.117l.173-.4v.463zm-1.012 0v-.508h.204v-.102h-.52v.102h.204v.508zm1.505-9.77c0 8.708-7.059 15.768-15.767 15.768-3.677 0-7.062-1.26-9.744-3.372 3.667-2.886 6.023-7.366 6.023-12.396s-2.356-9.51-6.023-12.396a15.698 15.698 0 0 1 9.744-3.373c8.708 0 15.767 7.061 15.767 15.769z" fill="#ec972d"/><path d="m247.08 180.972v.103h.095a.086.086 0 0 0 .051-.013c.013-.008.02-.022.02-.039s-.007-.03-.02-.038a.086.086 0 0 0 -.051-.013zm.096-.072c.05 0 .088.01.114.033.027.021.04.052.04.09 0 .032-.01.058-.031.079a.165.165 0 0 1 -.092.038l.127.146h-.1l-.117-.145h-.037v.145h-.083v-.386zm-.025.518a.333.333 0 0 0 .228-.094.324.324 0 0 0 .094-.23.312.312 0 0 0 -.026-.126.316.316 0 0 0 -.296-.197.336.336 0 0 0 -.128.025.296.296 0 0 0 -.103.069.306.306 0 0 0 -.069.103.312.312 0 0 0 0 .253.327.327 0 0 0 .172.172.318.318 0 0 0 .128.025zm0-.74a.418.418 0 0 1 .423.416.425.425 0 0 1 -.725.294.41.41 0 0 1 0-.588.413.413 0 0 1 .302-.122zm-39.058-1.486c0-.737.481-1.34 1.269-1.34.753 0 1.262.577 1.262 1.34 0 .761-.509 1.34-1.262 1.34-.788 0-1.269-.605-1.269-1.34zm3.389 0v-2.094h-.911v.509c-.289-.377-.727-.614-1.323-.614-1.173 0-2.093.919-2.093 2.199 0 1.278.92 2.198 2.093 2.198.596 0 1.034-.236 1.323-.613v.508h.911zm30.761 0c0-.737.482-1.34 1.27-1.34.753 0 1.261.577 1.261 1.34 0 .761-.508 1.34-1.261 1.34-.788 0-1.27-.605-1.27-1.34zm3.39 0v-3.776h-.911v2.191c-.289-.377-.727-.614-1.323-.614-1.173 0-2.093.919-2.093 2.199 0 1.278.92 2.198 2.093 2.198.596 0 1.034-.236 1.323-.613v.508h.911zm-22.852-1.384c.586 0 .963.368 1.06 1.016h-2.172c.096-.605.464-1.016 1.112-1.016zm.018-.815c-1.227 0-2.085.894-2.085 2.199 0 1.331.893 2.198 2.145 2.198.631 0 1.209-.157 1.717-.587l-.446-.674a1.992 1.992 0 0 1 -1.218.438c-.587 0-1.121-.272-1.253-1.025h3.11c.009-.114.017-.228.017-.35-.008-1.305-.814-2.199-1.987-2.199zm10.992 2.199c0-.737.481-1.34 1.269-1.34.753 0 1.262.577 1.262 1.34 0 .761-.509 1.34-1.262 1.34-.788 0-1.269-.605-1.269-1.34zm3.39 0v-2.094h-.912v.509c-.289-.377-.727-.614-1.323-.614-1.173 0-2.093.919-2.093 2.199 0 1.278.92 2.198 2.093 2.198.596 0 1.034-.236 1.323-.613v.508h.912zm-8.532 0c0 1.269.885 2.198 2.234 2.198.631 0 1.051-.14 1.507-.499l-.439-.736c-.342.246-.7.377-1.095.377-.726-.009-1.261-.535-1.261-1.34 0-.806.535-1.331 1.261-1.34.395 0 .753.131 1.095.376l.439-.735c-.456-.36-.876-.5-1.507-.5-1.349 0-2.234.928-2.234 2.199zm11.737-2.199c-.526 0-.868.246-1.104.614v-.509h-.902v4.187h.911v-2.347c0-.693.298-1.077.893-1.077.184 0 .377.026.57.104l.28-.858a1.965 1.965 0 0 0 -.648-.114zm-24.402.438c-.438-.289-1.043-.438-1.708-.438-1.06 0-1.743.508-1.743 1.34 0 .684.508 1.104 1.445 1.236l.429.06c.499.071.736.202.736.439 0 .324-.333.508-.955.508-.63 0-1.086-.202-1.392-.439l-.43.71c.5.368 1.13.543 1.814.543 1.209 0 1.909-.569 1.909-1.366 0-.737-.552-1.121-1.463-1.253l-.429-.061c-.394-.052-.71-.132-.71-.412 0-.306.298-.49.798-.49.534 0 1.051.201 1.305.358zm11.745-.438c-.525 0-.867.246-1.103.614v-.509h-.902v4.187h.911v-2.347c0-.693.298-1.077.893-1.077.184 0 .376.026.57.104l.28-.858a1.975 1.975 0 0 0 -.649-.114zm-7.768.105h-1.489v-1.27h-.92v1.27h-.85v.832h.85v1.91c0 .972.377 1.55 1.454 1.55.393 0 .849-.122 1.138-.324l-.262-.78c-.272.158-.57.237-.806.237-.456 0-.604-.28-.604-.7v-1.893h1.489zm-13.611 4.187v-2.627c0-.991-.631-1.656-1.647-1.665-.535-.008-1.087.158-1.472.745-.289-.464-.745-.745-1.383-.745-.448 0-.885.131-1.227.622v-.517h-.911v4.187h.92v-2.321c0-.727.403-1.112 1.024-1.112.605 0 .911.393.911 1.103v2.33h.92v-2.321c0-.727.42-1.112 1.025-1.112.622 0 .92.393.92 1.103v2.33zm20.678-123.211a.643.643 0 0 0 -.355.36.695.695 0 0 0 -.05.267.68.68 0 0 0 .19.481c.06.06.132.107.215.14.082.034.172.05.266.05a.673.673 0 0 0 .629-.404.681.681 0 0 0 .052-.267.678.678 0 0 0 -.198-.482.668.668 0 0 0 -.483-.198.675.675 0 0 0 -.266.053zm20.543 3.089a2.567 2.567 0 0 0 -.249-.127 3.11 3.11 0 0 0 -.705-.213 2.217 2.217 0 0 0 -.407-.037c-.264 0-.469.048-.616.144-.144.098-.217.224-.217.38 0 .077.018.14.056.193a.454.454 0 0 0 .156.129c.064.034.14.06.229.08s.185.038.285.054l.455.069c.482.07.858.21 1.128.42s.404.505.404.88a1.247 1.247 0 0 1 -.526 1.039c-.17.127-.381.226-.631.296a3.1 3.1 0 0 1 -.847.106c-.115 0-.246-.007-.397-.021a3.338 3.338 0 0 1 -.993-.255 2.34 2.34 0 0 1 -.501-.29l.446-.722c.079.06.166.119.259.172.094.054.199.102.318.143.119.042.248.075.391.099.143.025.305.037.485.037.331 0 .581-.048.75-.145.168-.096.253-.228.253-.393 0-.126-.061-.23-.184-.311s-.316-.14-.58-.176l-.459-.061c-.491-.067-.863-.211-1.116-.43s-.379-.506-.379-.862c0-.218.042-.414.126-.59.085-.174.206-.322.363-.443.158-.121.349-.214.573-.28.224-.067.478-.1.759-.1.347 0 .673.04.979.123.307.08.576.195.805.342zm-4.638 0a2.428 2.428 0 0 0 -.248-.127 3.027 3.027 0 0 0 -.705-.213 2.209 2.209 0 0 0 -.407-.037c-.265 0-.469.048-.615.144-.145.098-.218.224-.218.38 0 .077.018.14.057.193s.09.095.155.129c.064.034.14.06.229.08s.185.038.285.054l.456.069c.481.07.857.21 1.127.42s.405.505.405.88c0 .213-.045.407-.136.583a1.326 1.326 0 0 1 -.391.456c-.17.127-.38.226-.63.296s-.533.106-.848.106a4.36 4.36 0 0 1 -.397-.021 3.338 3.338 0 0 1 -.994-.255 2.357 2.357 0 0 1 -.5-.29l.447-.722c.079.06.166.119.258.172.094.054.2.102.319.143.118.042.248.075.39.099.143.025.305.037.486.037.331 0 .581-.048.75-.145.168-.096.253-.228.253-.393 0-.126-.062-.23-.185-.311s-.315-.14-.58-.176l-.459-.061c-.491-.067-.862-.211-1.116-.43a1.084 1.084 0 0 1 -.379-.862c0-.218.042-.414.126-.59.085-.174.206-.322.363-.443.158-.121.35-.214.573-.28.224-.067.478-.1.759-.1.347 0 .673.04.981.123.305.08.574.195.804.342zm-6.273-.364c-.172 0-.324.027-.458.078-.133.053-.248.127-.345.224s-.176.212-.237.345c-.062.133-.104.28-.128.44h2.286c-.053-.345-.176-.611-.368-.801-.194-.19-.444-.286-.75-.286zm.018-.855c.306 0 .588.056.844.168.256.11.476.269.657.473.184.205.326.449.429.732.103.284.154.597.154.94a3.767 3.767 0 0 1 -.019.359h-3.256c.03.2.088.37.17.51a1.17 1.17 0 0 0 .69.547c.144.045.294.066.451.066.22 0 .442-.041.665-.122a2.18 2.18 0 0 0 .609-.343l.478.686c-.269.23-.555.39-.858.483a3.29 3.29 0 0 1 -.954.138c-.331 0-.635-.055-.911-.166a2.036 2.036 0 0 1 -1.178-1.201 2.645 2.645 0 0 1 -.165-.952c0-.343.054-.657.161-.942.108-.286.258-.53.45-.735.195-.204.425-.362.693-.473.268-.112.565-.168.89-.168zm-5.129 0c.26 0 .5.043.72.129a1.625 1.625 0 0 1 .939.916c.087.213.131.45.131.707v2.77h-.966v-2.452c0-.371-.09-.656-.27-.855-.179-.2-.431-.3-.756-.3a1.29 1.29 0 0 0 -.442.076 1.027 1.027 0 0 0 -.607.589 1.283 1.283 0 0 0 -.092.499v2.443h-.966v-4.407h.957v.538a1.401 1.401 0 0 1 .64-.52 1.71 1.71 0 0 1 .36-.104c.121-.02.238-.03.352-.03zm-4.733 4.522h.966v-4.407h-.966zm-1.639-3.303a2.658 2.658 0 0 0 -.575-.25 3.185 3.185 0 0 0 -.379-.09 2.2 2.2 0 0 0 -.407-.037c-.265 0-.469.048-.614.144-.147.098-.219.224-.219.38 0 .077.02.14.058.193s.09.095.154.129.142.06.23.08.184.038.286.054l.454.069c.482.07.858.21 1.128.42.269.21.404.505.404.88a1.26 1.26 0 0 1 -.526 1.039c-.17.127-.381.226-.631.296s-.533.106-.848.106c-.113 0-.246-.007-.395-.021a3.329 3.329 0 0 1 -.995-.255 2.421 2.421 0 0 1 -.502-.29l.447-.722c.08.06.167.119.26.172.094.054.2.102.318.143.117.042.248.075.39.099.143.025.305.037.486.037.331 0 .581-.048.75-.145.168-.096.253-.228.253-.393 0-.126-.062-.23-.184-.311-.123-.081-.316-.14-.58-.176l-.46-.061c-.491-.067-.863-.211-1.116-.43a1.087 1.087 0 0 1 -.379-.862c0-.218.042-.414.127-.59.084-.174.205-.322.363-.443s.349-.214.573-.28c.223-.067.476-.1.758-.1.347 0 .674.04.98.123.307.08.575.195.805.342zm-4.393 1.435c0 .35-.059.65-.175.902-.117.25-.27.456-.46.616s-.408.277-.653.352a2.567 2.567 0 0 1 -1.509 0 1.854 1.854 0 0 1 -.655-.352 1.708 1.708 0 0 1 -.461-.616 2.173 2.173 0 0 1 -.172-.902v-2.54h.966v2.453c0 .21.027.392.082.54.055.149.132.27.228.362a.888.888 0 0 0 .343.2c.132.04.272.06.423.06.15 0 .291-.02.424-.06a.876.876 0 0 0 .342-.2.96.96 0 0 0 .228-.362c.055-.148.082-.33.082-.54v-2.452h.967zm-7.512-1.748a1.272 1.272 0 0 0 -1.232.851 1.553 1.553 0 0 0 -.098.56c0 .204.032.39.098.562.063.172.154.32.27.447.116.125.257.224.419.297.162.07.343.107.543.107.205 0 .391-.037.557-.112.165-.075.304-.176.418-.304.113-.127.201-.277.262-.45a1.59 1.59 0 0 0 .092-.546c0-.193-.03-.375-.092-.547a1.247 1.247 0 0 0 -.68-.752 1.324 1.324 0 0 0 -.557-.113zm.115-.906a2.144 2.144 0 0 1 1.564.653c.199.206.355.45.469.734.114.283.17.594.17.93s-.056.649-.17.933a2.156 2.156 0 0 1 -2.033 1.387c-.316 0-.587-.058-.812-.175a1.737 1.737 0 0 1 -.568-.464v.524h-.961v-6.087h.961v2.205c.154-.194.342-.35.568-.465.225-.117.496-.175.812-.175zm29.19 6.564a.638.638 0 0 0 -.354.36c-.035.084-.05.173-.05.268a.679.679 0 0 0 .19.48c.06.06.131.107.214.14s.172.05.267.05a.692.692 0 0 0 .482-.19.641.641 0 0 0 .198-.48.68.68 0 0 0 -.198-.483.675.675 0 0 0 -.482-.198.68.68 0 0 0 -.267.053zm5.233 2.787h-1.688v1.918c0 .147.019.273.056.378a.728.728 0 0 0 .149.255.579.579 0 0 0 .221.145.81.81 0 0 0 .273.046c.152 0 .304-.03.458-.088.155-.058.299-.13.431-.212l.381.769c-.177.119-.377.222-.6.308s-.474.129-.752.129c-.5 0-.889-.14-1.166-.416-.278-.278-.416-.71-.416-1.295v-1.937h-.879v-.874h.879v-1.334h.965v1.334h1.688zm-5.445 3.533h.966v-4.408h-.966zm-3.693-3.616c-.209 0-.395.038-.559.113s-.304.176-.417.304c-.113.127-.2.276-.262.448a1.623 1.623 0 0 0 -.091.547c0 .194.03.376.091.548.062.17.149.32.262.448s.253.229.417.304.35.113.559.113c.199 0 .38-.037.543-.11a1.275 1.275 0 0 0 .689-.741c.066-.172.097-.36.097-.562s-.031-.39-.097-.561a1.26 1.26 0 0 0 -.689-.742 1.314 1.314 0 0 0 -.543-.11zm-.116-.906c.316 0 .588.059.815.177s.417.275.57.472v-2.165h.962v6.037h-.962v-.53c-.153.197-.343.354-.57.47s-.499.175-.815.175a2.16 2.16 0 0 1 -1.563-.654 2.25 2.25 0 0 1 -.47-.733 2.496 2.496 0 0 1 -.17-.932c0-.337.057-.647.17-.931a2.159 2.159 0 0 1 2.033-1.387zm-5.2.856c-.172 0-.324.026-.458.078a.97.97 0 0 0 -.344.223 1.184 1.184 0 0 0 -.238.345c-.061.134-.104.28-.128.439h2.285c-.051-.343-.174-.61-.367-.8s-.443-.285-.75-.285zm.019-.856c.306 0 .587.056.844.168.255.112.475.27.657.473.183.205.325.448.429.732.102.284.153.597.153.94a2.936 2.936 0 0 1 -.019.359h-3.256c.031.2.087.37.17.51s.183.258.299.349c.116.09.247.157.392.2.143.043.294.064.45.064.221 0 .442-.041.665-.122.222-.081.425-.196.609-.343l.479.686c-.27.229-.556.39-.858.483s-.621.138-.955.138c-.332 0-.634-.056-.911-.166a2.069 2.069 0 0 1 -.713-.47 2.106 2.106 0 0 1 -.464-.731 2.603 2.603 0 0 1 -.165-.952c0-.343.053-.658.16-.943.108-.285.257-.53.451-.734.193-.203.424-.361.692-.473.269-.112.566-.168.891-.168zm-3.503 0c.147 0 .28.01.398.03s.232.05.343.094l-.23.953a1.322 1.322 0 0 0 -.355-.12 1.866 1.866 0 0 0 -.377-.042c-.153 0-.295.026-.424.079a.9.9 0 0 0 -.331.229c-.09.102-.164.226-.215.373a1.502 1.502 0 0 0 -.079.502v2.424h-.961v-4.408h.953v.497c.146-.212.329-.367.546-.465.218-.098.462-.147.732-.147zm-4.894 0c.331 0 .64.059.925.177s.527.294.723.527l-.617.658a1.862 1.862 0 0 0 -.488-.34 1.341 1.341 0 0 0 -.57-.116 1.27 1.27 0 0 0 -.93.394 1.337 1.337 0 0 0 -.273.445 1.603 1.603 0 0 0 -.099.573c0 .209.033.4.099.573.065.173.157.322.273.446.118.125.255.22.414.29.16.069.331.104.516.104.212 0 .409-.044.593-.132.184-.087.347-.196.488-.33l.594.664a1.953 1.953 0 0 1 -.727.527c-.282.117-.59.177-.921.177-.348 0-.667-.06-.952-.177-.285-.118-.529-.281-.731-.488s-.359-.452-.469-.734-.165-.59-.165-.92.055-.637.165-.92c.11-.282.267-.526.469-.733s.446-.37.731-.488.604-.177.952-.177z" fill="#fffffe"/><path d="m68.99 118.471h-24.525a3.771 3.771 0 0 1 -3.76-3.76v-22.03a3.77 3.77 0 0 1 3.76-3.758h24.525a3.77 3.77 0 0 1 3.76 3.759v22.029a3.771 3.771 0 0 1 -3.76 3.76z" fill="#c2c2c1"/><path d="m68.99 118.471h-24.525a3.771 3.771 0 0 1 -3.76-3.76v-22.03a3.77 3.77 0 0 1 3.76-3.758h24.525a3.77 3.77 0 0 1 3.76 3.759v22.029a3.771 3.771 0 0 1 -3.76 3.76z" stroke="#717d83" stroke-width=".5"/><path d="m52.906 107.548h7.643v-7.703h-7.643zm10.79-10.907h9.054v-.396h-8.483v-7.323h-.396v7.323h-.175a3.15 3.15 0 0 0 -3.147 3.147v.057h-7.643v-.057a3.15 3.15 0 0 0 -3.146-3.147h-.176v-7.323h-.396v7.323h-8.483v.396h9.055a2.754 2.754 0 0 1 2.751 2.751v4.106h-11.806v.396h11.806v4.106a2.754 2.754 0 0 1 -2.751 2.751h-9.055v.396h8.483v7.323h.396v-7.323h.176a3.15 3.15 0 0 0 3.146-3.147v-.057h7.643v.057a3.15 3.15 0 0 0 3.147 3.147h.175v7.323h.396v-7.323h8.483v-.396h-9.054a2.755 2.755 0 0 1 -2.752-2.751v-4.106h11.806v-.396h-11.806v-4.106a2.755 2.755 0 0 1 2.752-2.75z" fill="#717d83"/><path d="m14 182.126a8 8 0 0 0 8 8h226.929a8 8 0 0 0 8-8v-137.07a8 8 0 0 0 -8-8h-226.929a8 8 0 0 0 -8 8z" fill="url(#b)"/></g></g></svg>