<?xml version="1.0" encoding="UTF-8" standalone="no"?>
<svg width="32px" height="32px" viewBox="0 0 32 32" version="1.1" xmlns="http://www.w3.org/2000/svg" xmlns:xlink="http://www.w3.org/1999/xlink" xmlns:sketch="http://www.bohemiancoding.com/sketch/ns">
    <!-- Generator: Sketch 3.3 (11970) - http://www.bohemiancoding.com/sketch -->
    <title>Group</title>
    <desc>Created with Sketch.</desc>
    <defs></defs>
    <g id="Мессенджер" stroke="none" stroke-width="1" fill="none" fill-rule="evenodd" sketch:type="MSPage">
        <g id="месенджер---создание-2" sketch:type="MSArtboardGroup" transform="translate(-934.000000, -485.000000)" fill="#00AEEF">
            <g id="Group-4" sketch:type="MSLayerGroup" transform="translate(800.000000, 428.000000)">
                <g id="Group" transform="translate(134.000000, 57.000000)" sketch:type="MSShapeGroup">
                    <path d="M11.0965333,21.8929778 C11.0965333,21.0414222 11.2053333,20.2186667 11.392,19.4264889 C11.7290667,18.0046222 12.3463111,16.6976 13.1850667,15.5569778 C14.0675556,14.3573333 15.1921778,13.3500444 16.4899556,12.6051556 C18.0558222,11.7088 19.8652444,11.1893333 21.7969778,11.1893333 C22.2471111,11.1893333 22.6855111,11.2259556 23.1214222,11.2789333 L27.6451556,6.75626667 C27.6451556,6.75626667 28.0295111,4.83662222 25.4673778,2.27662222 C22.9098667,-0.283733333 20.9884444,0.0999111111 20.9884444,0.0999111111 L12.0295111,9.0592 L1.79022222,19.2977778 L0,27.7443556 L8.44622222,25.9541333 L11.1982222,23.2017778 C11.1648,22.928 11.1342222,22.6542222 11.1203556,22.3751111 C11.1132444,22.2147556 11.0965333,22.0558222 11.0965333,21.8929778 L11.0965333,21.8929778 Z M7.94382222,24.9376 L5.06311111,25.5573333 C4.78577778,25.0371556 4.45155556,24.5191111 3.83964444,23.9050667 C3.22808889,23.2928 2.70684444,22.9571556 2.1856,22.6798222 L2.80604444,19.7991111 L3.63982222,18.9685333 C3.63982222,18.9685333 5.20817778,19.0001778 6.97386667,20.7690667 C8.74311111,22.5393778 8.77511111,24.1048889 8.77511111,24.1048889 L7.94382222,24.9376 L7.94382222,24.9376 Z" id="Shape"></path>
                    <path d="M24.0586667,13.8766222 C23.6917333,13.8311111 23.3212444,13.8001778 22.9393778,13.8001778 C21.3041778,13.8001778 19.7720889,14.2414222 18.4476444,14.9998222 C17.3475556,15.6280889 16.3964444,16.4817778 15.6490667,17.4965333 C14.9397333,18.4625778 14.4170667,19.5690667 14.1301333,20.7712 C13.9722667,21.4421333 13.8812444,22.1397333 13.8812444,22.8608 C13.8812444,22.9984 13.8947556,23.1335111 13.9018667,23.2696889 C13.9136,23.5057778 13.9377778,23.7372444 13.9669333,23.9683556 C14.5166222,28.448 18.3121778,31.92 22.9397333,31.92 C27.9466667,31.9203556 32,27.8645333 32,22.8611556 C32,18.2343111 28.5372444,14.4284444 24.0586667,13.8766222 L24.0586667,13.8766222 Z M24.4323556,16.1998222 C24.7719111,16.5443556 24.9475556,16.9639111 24.9475556,17.4485333 C24.9475556,17.9498667 24.7719111,18.3694222 24.4273778,18.6944 C24.0878222,19.0122667 23.6284444,19.1779556 23.0648889,19.1779556 C22.5144889,19.1779556 22.0732444,19.0119111 21.7514667,18.6872889 C21.4371556,18.3662222 21.2771556,17.9459556 21.2771556,17.4485333 C21.2771556,16.9674667 21.4346667,16.5475556 21.7472,16.2030222 C22.0661333,15.8538667 22.5091556,15.6760889 23.0648889,15.6760889 C23.6341333,15.6760889 24.0924444,15.8506667 24.4323556,16.1998222 L24.4323556,16.1998222 Z M26.3377778,29.4048 L20.0291556,29.4048 L20.0291556,26.9831111 L21.7123556,26.9831111 L21.7123556,22.3228444 L20.0291556,22.3228444 L20.0291556,19.9029333 L24.4945778,19.9029333 L24.4945778,26.9831111 L26.3381333,26.9831111 L26.3381333,29.4048 L26.3377778,29.4048 Z" id="Shape"></path>
                </g>
            </g>
        </g>
    </g>
</svg>