<svg xmlns="http://www.w3.org/2000/svg" xmlns:xlink="http://www.w3.org/1999/xlink" width="280" height="130"><use fill="#A4D73E" transform="translate(-74 -109)" xlink:href="#path0_fill"/><use fill="#EDB937" transform="translate(129.6 8.2)" xlink:href="#path1_fill"/><use fill="#FAD24D" transform="translate(106.6 6)" xlink:href="#path2_fill"/><use fill="#EDB937" transform="translate(116.5 82.2)" xlink:href="#path3_fill"/><use fill="#EDB937" transform="translate(124.3 50.7)" xlink:href="#path4_fill"/><use fill="#FFF" transform="translate(139.3 63.8)" xlink:href="#path5_fill"/><use fill="#FFF" transform="translate(113.1 30.4)" xlink:href="#path6_fill"/><use fill="#FFF" transform="translate(64.5 112.8)" xlink:href="#path7_fill"/><use fill="#FED298" transform="translate(77.5 92.9)" xlink:href="#path8_fill"/><use fill="#F0BA7D" transform="translate(97.6 101.5)" xlink:href="#path9_fill"/><use fill="#0F7986" transform="translate(48 117.1)" xlink:href="#path10_fill"/><g fill="#FFF"><use transform="translate(147.8 99)" xlink:href="#path11_fill"/><use transform="translate(187.8 98.8)" xlink:href="#path12_fill"/></g><defs><path id="path0_fill" d="M177 354a177 177 0 1 0 0-354 177 177 0 0 0 0 354z"/><path id="path1_fill" d="M0 3.7S5.6-.2 9 0c3.5.2 7.6 5 12.4 2.7 4.7-2.3 5-2.5 7.1-.6C30.7 4 30 7.8 30 7.8l-6.7 10-8.9 1-12.5-7.5L0 3.7z"/><path id="path2_fill" d="M27.9 29a14 14 0 0 1-.6 3.8c-1 3.3-52.3 46.4-11.7 67.7C47 117 102 92 68.8 54L51.3 33.9s-.4-2.1-.6-4.9c0-.7-.2-3.8-.1-4.5.1-1.1-.3-2.6 1-5.6 1.4-3 9.6-9.2 9.6-9.2s-5.3-6.2-7.6-5.5c-2.2.7-9.3 13.5-9.3 13.5s-1.8-2.5-.7-6.4c1.2-3.9 4.5-9.8 4.5-9.8s-6.5-2.3-8-.5c-1.5 1.7-4.5-2.3-6.3-.6L29.5 5s4.3 3.3 5.5 6.3c1.2 2.9-.3 5-.3 5l-2.5-2.1c-2.6-2.1-5-11-8-10.4-3.1.5-10.4 2.9-5.1 6.1L26.5 20l1 4.5c.2.7.3 3.8.4 4.5z"/><path id="path3_fill" d="M69.1 0C61.6 27 22.1 29 0 20.8c1.7 1.2 3.6 2.4 5.7 3.6 24.8 13 64 .2 63.4-24.4z"/><path id="path4_fill" d="M21.2 42.2a21.1 21.1 0 0 0 0-42.2A21.1 21.1 0 0 0 0 21c0 11.7 9.5 21.2 21.2 21.2z"/><path id="path5_fill" d="M8.9 14H5.2v2.5H2.3V14H0v-2.3h2.3v-1.2H0V8h2.3V0h6.4c1.8 0 3.3.5 4.4 1.4 1 1 1.6 2.2 1.6 3.8 0 1.6-.5 2.9-1.5 3.8-1 .9-2.5 1.4-4.4 1.4H5.2v1.2H9v2.3zM5.2 8h3.5c1 0 1.8-.2 2.3-.6.6-.5.8-1.2.8-2.2 0-.8-.2-1.5-.8-2a3 3 0 0 0-2.2-.9H5.2v5.8z"/><path id="path6_fill" d="M0 18.4C1 6.4 11.5 6 16.5 4a18 18 0 0 1 1.8-.6 4 4 0 0 1 4-3.5c1 0 1.8.3 2.5.8L44.2.3c1.5.5.8 2.4.1 2.7l-17.9.4a3.8 3.8 0 0 1 0 1.5l18.1-.4c1.5.5.8 2.4.1 2.7l-21.8.5H22c-.3 0-.6 0-.8-.2-1.2 1.7-3 3-5.1 4.2C12 14 4.7 15.4 5 23.5H3.1c-.4-9.1 7.5-10.7 11.9-13.4 1.8-1.1 3.4-2.2 4.4-3.5l-.8-1.2-1.4.5C12.6 7.7 2.8 7.6 2 18.5l-2-.1z"/><path id="path7_fill" d="M6 0l33.7 27.6-8 7.3L0 5.4 6 0z"/><path id="path8_fill" d="M50.6.9C60.2 3.7 78 6.6 78 6.6s-1 6.3-6.4 7.5C66.2 15.3 52 12.5 52 12.5s-2.6 2.6 2 3.4c4.6.9 27.1.4 27.1.4s23.1-11 27.1-12.4c4-1.4 6.4 2.2 6.4 2.2L85.4 29c-2.5 1.8-44 5.4-44 5.4l-12.2 1.2-4.9 5.2-2.2 3.1L0 25.8l17.7-12.6c7-11.6 23.3-15 33-12.3z"/><path id="path9_fill" d="M90.7.3c-7.3 5.8-23.5 18.6-25.5 20-2.4 1.8-43.9 5.3-43.9 5.3L9.1 27l-4.9 5L2 35.2l-2-1.7c5-4.9 8.7-8 7.8-7.6-.9.5 52.6-4.5 56.7-6.6C68.5 17.2 88 1.6 88.9.5c.8-1 1.8-.2 1.8-.2z"/><path id="path10_fill" d="M0 14.4L15.3 0l37.5 32.3L40 49.9A93.7 93.7 0 0 1 0 14.4z"/><path id="path11_fill" d="M.5 0L0 2.4l5.5.3c.4-.5.7-1 .5-2L.5 0z"/><path id="path12_fill" d="M0 2l.7.6 3-2c.1-.5-.8-.6-.8-.6L0 2z"/></defs></svg>