<svg xmlns="http://www.w3.org/2000/svg" width="120" height="72"><g fill="none"><path fill="#75BD80" d="M6.58.83h107.54A5.78 5.78 0 0 1 120 6.47v59.89c0 3.1-2.65 5.64-5.88 5.64H6.58a5.78 5.78 0 0 1-5.87-5.64V6.47A5.77 5.77 0 0 1 6.58.83z"/><path fill="#A4D73E" d="M5.28 0h108.73a5.2 5.2 0 0 1 5.28 5.07V66.1a5.2 5.2 0 0 1-5.28 5.07H5.28A5.2 5.2 0 0 1 0 66.1V5.07A5.2 5.2 0 0 1 5.28 0z"/><path fill="#717D83" d="M0 6.76h119.3v16.38H0V6.76z"/><path fill="#fff" d="M9.07 30.34h101.15v8.96H9.07v-8.96z"/><path fill="#E6E8E9" d="M9.07 49.6h15.36v14.76H9.07V49.6z"/><path fill="#717D83" d="M32.67 49.6h76.4v2.17h-76.4V49.6zm0 6.37h76.4v2.17h-76.4v-2.17zm0 6.37h43.8v2.16h-43.8v-2.16z"/><path fill="#6C7678" d="M120 6.76h-.7v16.38h.7V6.76z"/><path fill="#E6E8E9" d="M63.65 32h44.14v5.65H63.65v-5.66z"/></g></svg>