<svg width="80" height="80" viewBox="0 0 80 80" fill="none" xmlns="http://www.w3.org/2000/svg">
<path fill-rule="evenodd" clip-rule="evenodd" d="M2.66663 77.3333H77.3311V2.66992H2.66663V77.3333Z" fill="#FFED00"/>
<path fill-rule="evenodd" clip-rule="evenodd" d="M2.66659 77.3334H77.3311V2.67004H2.66659V77.3334ZM0 80H80V0H0V80Z" fill="black"/>
<path fill-rule="evenodd" clip-rule="evenodd" d="M39.9996 49.1199L17.0218 72.0943L7.90502 62.989L30.8851 40.0066L26.0914 35.2095V25.7384L22.7622 22.4057V30.6655L19.8644 33.5644L8.21448 21.9111L5.33276 24.7916C5.35347 22.6185 5.78716 16.3294 11.1215 11.0859C16.878 5.54799 23.0947 8.04318 25.2206 10.1714L36.8648 21.819L33.8945 24.7859L39.9996 30.8933L46.1035 24.7859L43.1344 21.819L54.7763 10.1714C56.9022 8.04318 63.1189 5.54799 68.8754 11.0859C74.2109 16.3294 74.6445 22.6185 74.6664 24.7916L71.7847 21.9111L60.1336 33.5644L57.2369 30.6655V22.4057L53.9054 25.7384V35.2095L49.1118 40.0066L72.093 62.989L62.9773 72.0943L39.9996 49.1199Z" fill="black"/>
</svg>
