<svg width="687" height="96" viewBox="0 0 687 96" fill="none" xmlns="http://www.w3.org/2000/svg">
<path fill-rule="evenodd" clip-rule="evenodd" d="M10.6666 85.3333H85.3311V10.6699H10.6666V85.3333Z" fill="#FFED00"/>
<path fill-rule="evenodd" clip-rule="evenodd" d="M10.6666 85.3334H85.3311V10.67H10.6666V85.3334ZM8 88H88V8H8V88Z" fill="black"/>
<path fill-rule="evenodd" clip-rule="evenodd" d="M47.9996 57.1199L25.0218 80.0943L15.905 70.989L38.8851 48.0066L34.0914 43.2095V33.7384L30.7622 30.4057V38.6655L27.8644 41.5644L16.2145 29.9111L13.3328 32.7916C13.3535 30.6185 13.7872 24.3294 19.1215 19.0859C24.878 13.548 31.0947 16.0432 33.2206 18.1714L44.8648 29.819L41.8945 32.7859L47.9996 38.8933L54.1035 32.7859L51.1344 29.819L62.7763 18.1714C64.9022 16.0432 71.1188 13.548 76.8754 19.0859C82.2109 24.3294 82.6445 30.6185 82.6664 32.7916L79.7847 29.9111L68.1336 41.5644L65.2369 38.6655V30.4057L61.9054 33.7384V43.2095L57.1118 48.0066L80.093 70.989L70.9773 80.0943L47.9996 57.1199Z" fill="black"/>
<path d="M134.406 53.5625V69H123.438V23.5H141.594C145.073 23.5 148.146 24.1458 150.812 25.4375C153.5 26.7083 155.573 28.5312 157.031 30.9062C158.51 33.2604 159.25 35.9375 159.25 38.9375C159.25 43.375 157.656 46.9271 154.469 49.5938C151.302 52.2396 146.948 53.5625 141.406 53.5625H134.406ZM134.406 45.0938H141.594C143.719 45.0938 145.333 44.5625 146.438 43.5C147.562 42.4375 148.125 40.9375 148.125 39C148.125 36.875 147.552 35.1771 146.406 33.9062C145.26 32.6354 143.698 31.9896 141.719 31.9688H134.406V45.0938Z" fill="black"/>
<path d="M183.312 69C182.938 68.3125 182.604 67.3021 182.312 65.9688C180.375 68.4062 177.667 69.625 174.188 69.625C171 69.625 168.292 68.6667 166.062 66.75C163.833 64.8125 162.719 62.3854 162.719 59.4688C162.719 55.8021 164.073 53.0312 166.781 51.1562C169.49 49.2812 173.427 48.3438 178.594 48.3438H181.844V46.5625C181.844 43.4583 180.5 41.9062 177.812 41.9062C175.312 41.9062 174.062 43.1354 174.062 45.5938H163.531C163.531 42.3229 164.917 39.6667 167.688 37.625C170.479 35.5833 174.031 34.5625 178.344 34.5625C182.656 34.5625 186.062 35.6146 188.562 37.7188C191.062 39.8229 192.344 42.7083 192.406 46.375V61.3438C192.448 64.4479 192.927 66.8229 193.844 68.4688V69H183.312ZM176.719 62.125C178.031 62.125 179.115 61.8438 179.969 61.2812C180.844 60.7188 181.469 60.0833 181.844 59.375V53.9688H178.781C175.115 53.9688 173.281 55.6146 173.281 58.9062C173.281 59.8646 173.604 60.6458 174.25 61.25C174.896 61.8333 175.719 62.125 176.719 62.125Z" fill="black"/>
<path d="M217.938 35.1875H228.5V69H217.938V49.3125L208.656 69H198.062V35.1875H208.656V54.8125L217.938 35.1875ZM225.094 20.9375C225.094 23.7917 224.042 26.1042 221.938 27.875C219.833 29.6458 217.031 30.5312 213.531 30.5312C210.031 30.5312 207.229 29.6458 205.125 27.875C203.021 26.1042 201.969 23.7917 201.969 20.9375H209.125C209.125 22.1875 209.51 23.1667 210.281 23.875C211.073 24.5625 212.156 24.9062 213.531 24.9062C214.906 24.9062 215.969 24.5729 216.719 23.9062C217.49 23.2188 217.875 22.2292 217.875 20.9375H225.094Z" fill="black"/>
<path d="M232.844 52.1562C232.844 46.7604 233.958 42.4792 236.188 39.3125C238.438 36.1458 241.521 34.5625 245.438 34.5625C246.771 34.5625 248.094 34.8333 249.406 35.375V21H259.938V35.3438C261.146 34.8229 262.448 34.5625 263.844 34.5625C267.781 34.5625 270.865 36.1562 273.094 39.3438C275.344 42.5312 276.469 47.0208 276.469 52.8125C276.469 58.0208 275.333 62.125 273.062 65.125C270.812 68.125 267.76 69.625 263.906 69.625C262.448 69.625 261.125 69.3854 259.938 68.9062V82H249.406V68.875C248.094 69.375 246.75 69.625 245.375 69.625C241.542 69.625 238.49 68.125 236.219 65.125C233.969 62.125 232.844 57.9479 232.844 52.5938V52.1562ZM243.375 52.8125C243.375 58.5208 244.885 61.4062 247.906 61.4688H248.719L249.406 61.4062V42.7812L248.094 42.6875C244.948 42.6875 243.375 46.0625 243.375 52.8125ZM265.906 52.1562C265.906 49.1771 265.51 46.8542 264.719 45.1875C263.948 43.5208 262.792 42.6875 261.25 42.6875L259.938 42.7812V61.4375L261.312 61.5C264.125 61.5 265.646 59.0938 265.875 54.2812L265.906 52.1562Z" fill="black"/>
<path d="M279.781 52.1562C279.781 46.7604 280.896 42.4792 283.125 39.3125C285.375 36.1458 288.458 34.5625 292.375 34.5625C293.708 34.5625 295.031 34.8333 296.344 35.375V21H306.875V35.3438C308.083 34.8229 309.385 34.5625 310.781 34.5625C314.719 34.5625 317.802 36.1562 320.031 39.3438C322.281 42.5312 323.406 47.0208 323.406 52.8125C323.406 58.0208 322.271 62.125 320 65.125C317.75 68.125 314.698 69.625 310.844 69.625C309.385 69.625 308.062 69.3854 306.875 68.9062V82H296.344V68.875C295.031 69.375 293.688 69.625 292.312 69.625C288.479 69.625 285.427 68.125 283.156 65.125C280.906 62.125 279.781 57.9479 279.781 52.5938V52.1562ZM290.312 52.8125C290.312 58.5208 291.823 61.4062 294.844 61.4688H295.656L296.344 61.4062V42.7812L295.031 42.6875C291.885 42.6875 290.312 46.0625 290.312 52.8125ZM312.844 52.1562C312.844 49.1771 312.448 46.8542 311.656 45.1875C310.885 43.5208 309.729 42.6875 308.188 42.6875L306.875 42.7812V61.4375L308.25 61.5C311.062 61.5 312.583 59.0938 312.812 54.2812L312.844 52.1562Z" fill="black"/>
<path d="M347.062 69C346.688 68.3125 346.354 67.3021 346.062 65.9688C344.125 68.4062 341.417 69.625 337.938 69.625C334.75 69.625 332.042 68.6667 329.812 66.75C327.583 64.8125 326.469 62.3854 326.469 59.4688C326.469 55.8021 327.823 53.0312 330.531 51.1562C333.24 49.2812 337.177 48.3438 342.344 48.3438H345.594V46.5625C345.594 43.4583 344.25 41.9062 341.562 41.9062C339.062 41.9062 337.812 43.1354 337.812 45.5938H327.281C327.281 42.3229 328.667 39.6667 331.438 37.625C334.229 35.5833 337.781 34.5625 342.094 34.5625C346.406 34.5625 349.812 35.6146 352.312 37.7188C354.812 39.8229 356.094 42.7083 356.156 46.375V61.3438C356.198 64.4479 356.677 66.8229 357.594 68.4688V69H347.062ZM340.469 62.125C341.781 62.125 342.865 61.8438 343.719 61.2812C344.594 60.7188 345.219 60.0833 345.594 59.375V53.9688H342.531C338.865 53.9688 337.031 55.6146 337.031 58.9062C337.031 59.8646 337.354 60.6458 338 61.25C338.646 61.8333 339.469 62.125 340.469 62.125Z" fill="black"/>
<path d="M381.688 35.1875H392.25V69H381.688V49.3125L372.406 69H361.812V35.1875H372.406V54.8125L381.688 35.1875ZM388.844 20.9375C388.844 23.7917 387.792 26.1042 385.688 27.875C383.583 29.6458 380.781 30.5312 377.281 30.5312C373.781 30.5312 370.979 29.6458 368.875 27.875C366.771 26.1042 365.719 23.7917 365.719 20.9375H372.875C372.875 22.1875 373.26 23.1667 374.031 23.875C374.823 24.5625 375.906 24.9062 377.281 24.9062C378.656 24.9062 379.719 24.5729 380.469 23.9062C381.24 23.2188 381.625 22.2292 381.625 20.9375H388.844Z" fill="black"/>
<path d="M415.406 45.4062C415.406 43.1979 414.24 42.0938 411.906 42.0938C409.219 42.0938 407.875 43.0625 407.875 45H397.344C397.344 41.9375 398.625 39.4375 401.188 37.5C403.771 35.5625 407.115 34.5938 411.219 34.5938C415.781 34.5938 419.375 35.4583 422 37.1875C424.625 38.8958 425.938 41.3125 425.938 44.4375C425.938 45.9375 425.479 47.3229 424.562 48.5938C423.667 49.8438 422.396 50.8438 420.75 51.5938C424.604 52.9479 426.531 55.5625 426.531 59.4375C426.531 62.5208 425.135 64.9896 422.344 66.8438C419.573 68.6979 415.865 69.625 411.219 69.625C406.99 69.625 403.531 68.6667 400.844 66.75C398.156 64.8125 396.812 62.2292 396.812 59H407.344C407.344 59.8542 407.698 60.5938 408.406 61.2188C409.115 61.8229 410.292 62.125 411.938 62.125C413.271 62.125 414.281 61.8021 414.969 61.1562C415.677 60.5104 416.031 59.625 416.031 58.5C416.031 56.0833 414.688 54.8333 412 54.75H407.281V48.625H411.562C414.125 48.625 415.406 47.5521 415.406 45.4062Z" fill="black"/>
<path d="M447.375 69.625C442.188 69.625 437.99 68.0833 434.781 65C431.573 61.8958 429.969 57.8646 429.969 52.9062V52.0312C429.969 48.5729 430.604 45.5208 431.875 42.875C433.167 40.2292 435.042 38.1875 437.5 36.75C439.958 35.2917 442.875 34.5625 446.25 34.5625C451 34.5625 454.75 36.0417 457.5 39C460.25 41.9375 461.625 46.0417 461.625 51.3125V55.4062H440.688C441.062 57.3021 441.885 58.7917 443.156 59.875C444.427 60.9583 446.073 61.5 448.094 61.5C451.427 61.5 454.031 60.3333 455.906 58L460.719 63.6875C459.406 65.5 457.542 66.9479 455.125 68.0312C452.729 69.0938 450.146 69.625 447.375 69.625ZM446.188 42.6875C443.104 42.6875 441.271 44.7292 440.688 48.8125H451.312V48C451.354 46.3125 450.927 45.0104 450.031 44.0938C449.135 43.1562 447.854 42.6875 446.188 42.6875Z" fill="black"/>
<path d="M496 69H485.438V56.4688H476.219V69H465.688V35.1875H476.219V48.375H485.438V35.1875H496V69Z" fill="black"/>
<path d="M533.812 51H528.594L525.438 69H514.75L522.625 23.5H533.344L530.281 41.0938H534.062L545.594 23.5H559.094L542.938 45L552.281 69H540.062L533.812 51Z" fill="black"/>
<path d="M573.906 69C573.615 68.1875 573.469 67.1667 573.469 65.9375C571.156 68.4792 568.396 69.7083 565.188 69.625C562.25 69.5833 559.812 68.6042 557.875 66.6875C555.938 64.7708 555.031 62.4479 555.156 59.7188C555.26 56.0521 556.792 53.2396 559.75 51.2812C562.708 49.3021 566.75 48.3125 571.875 48.3125L575.312 48.375L575.688 46.4688L575.812 44.8125C575.729 42.9167 574.781 41.9375 572.969 41.875C570.719 41.8333 569.333 43.0729 568.812 45.5938L558.5 45.625C558.604 43.3542 559.344 41.3854 560.719 39.7188C562.094 38.0312 563.958 36.7396 566.312 35.8438C568.688 34.9271 571.208 34.5 573.875 34.5625C576.438 34.625 578.677 35.1667 580.594 36.1875C582.531 37.1875 583.979 38.5938 584.938 40.4062C585.896 42.1979 586.26 44.2708 586.031 46.625L583.5 62.5312L583.344 64.4688C583.26 66.0104 583.458 67.3229 583.938 68.4062L583.906 69H573.906ZM568.031 62.1875C570.135 62.2708 571.979 61.3438 573.562 59.4062L574.594 53.9688L571.938 53.9375C570.292 53.9792 568.875 54.4688 567.688 55.4062C566.5 56.3229 565.802 57.5833 565.594 59.1875C565.49 60.0417 565.646 60.75 566.062 61.3125C566.5 61.8542 567.156 62.1458 568.031 62.1875Z" fill="black"/>
<path d="M603.75 61.5312C605.229 61.5729 606.385 61.1667 607.219 60.3125C608.052 59.4375 608.583 58.3125 608.812 56.9375L618.438 56.9062C618.312 59.3854 617.573 61.6042 616.219 63.5625C614.885 65.5208 613.073 67.0417 610.781 68.125C608.51 69.1875 606.073 69.6875 603.469 69.625C598.969 69.5417 595.5 67.9271 593.062 64.7812C590.625 61.6146 589.635 57.5312 590.094 52.5312L590.188 51.7812C590.562 48.3646 591.521 45.3438 593.062 42.7188C594.604 40.0729 596.625 38.0312 599.125 36.5938C601.646 35.1562 604.458 34.4792 607.562 34.5625C611.5 34.6458 614.604 35.9062 616.875 38.3438C619.167 40.7604 620.271 44.0312 620.188 48.1562L610.562 48.125C610.667 44.5417 609.385 42.7188 606.719 42.6562C603.094 42.5312 601.01 45.5833 600.469 51.8125L600.188 55L600.156 56.1875C600.156 59.6875 601.354 61.4688 603.75 61.5312Z" fill="black"/>
<path d="M636.312 61.5312C637.792 61.5729 638.948 61.1667 639.781 60.3125C640.615 59.4375 641.146 58.3125 641.375 56.9375L651 56.9062C650.875 59.3854 650.135 61.6042 648.781 63.5625C647.448 65.5208 645.635 67.0417 643.344 68.125C641.073 69.1875 638.635 69.6875 636.031 69.625C631.531 69.5417 628.062 67.9271 625.625 64.7812C623.188 61.6146 622.198 57.5312 622.656 52.5312L622.75 51.7812C623.125 48.3646 624.083 45.3438 625.625 42.7188C627.167 40.0729 629.188 38.0312 631.688 36.5938C634.208 35.1562 637.021 34.4792 640.125 34.5625C644.062 34.6458 647.167 35.9062 649.438 38.3438C651.729 40.7604 652.833 44.0312 652.75 48.1562L643.125 48.125C643.229 44.5417 641.948 42.7188 639.281 42.6562C635.656 42.5312 633.573 45.5833 633.031 51.8125L632.75 55L632.719 56.1875C632.719 59.6875 633.917 61.4688 636.312 61.5312Z" fill="black"/>
<path d="M672.281 69C671.99 68.1875 671.844 67.1667 671.844 65.9375C669.531 68.4792 666.771 69.7083 663.562 69.625C660.625 69.5833 658.188 68.6042 656.25 66.6875C654.312 64.7708 653.406 62.4479 653.531 59.7188C653.635 56.0521 655.167 53.2396 658.125 51.2812C661.083 49.3021 665.125 48.3125 670.25 48.3125L673.688 48.375L674.062 46.4688L674.188 44.8125C674.104 42.9167 673.156 41.9375 671.344 41.875C669.094 41.8333 667.708 43.0729 667.188 45.5938L656.875 45.625C656.979 43.3542 657.719 41.3854 659.094 39.7188C660.469 38.0312 662.333 36.7396 664.688 35.8438C667.062 34.9271 669.583 34.5 672.25 34.5625C674.812 34.625 677.052 35.1667 678.969 36.1875C680.906 37.1875 682.354 38.5938 683.312 40.4062C684.271 42.1979 684.635 44.2708 684.406 46.625L681.875 62.5312L681.719 64.4688C681.635 66.0104 681.833 67.3229 682.312 68.4062L682.281 69H672.281ZM666.406 62.1875C668.51 62.2708 670.354 61.3438 671.938 59.4062L672.969 53.9688L670.312 53.9375C668.667 53.9792 667.25 54.4688 666.062 55.4062C664.875 56.3229 664.177 57.5833 663.969 59.1875C663.865 60.0417 664.021 60.75 664.438 61.3125C664.875 61.8542 665.531 62.1458 666.406 62.1875Z" fill="black"/>
</svg>
