<svg width="687" height="96" viewBox="0 0 687 96" fill="none" xmlns="http://www.w3.org/2000/svg">
<path d="M134.406 50.5625V66H123.438V20.5H141.594C145.073 20.5 148.146 21.1458 150.812 22.4375C153.5 23.7083 155.573 25.5312 157.031 27.9062C158.51 30.2604 159.25 32.9375 159.25 35.9375C159.25 40.375 157.656 43.9271 154.469 46.5938C151.302 49.2396 146.948 50.5625 141.406 50.5625H134.406ZM134.406 42.0938H141.594C143.719 42.0938 145.333 41.5625 146.438 40.5C147.562 39.4375 148.125 37.9375 148.125 36C148.125 33.875 147.552 32.1771 146.406 30.9062C145.26 29.6354 143.698 28.9896 141.719 28.9688H134.406V42.0938Z" fill="white"/>
<path d="M183.312 66C182.938 65.3125 182.604 64.3021 182.312 62.9688C180.375 65.4062 177.667 66.625 174.188 66.625C171 66.625 168.292 65.6667 166.062 63.75C163.833 61.8125 162.719 59.3854 162.719 56.4688C162.719 52.8021 164.073 50.0312 166.781 48.1562C169.49 46.2812 173.427 45.3438 178.594 45.3438H181.844V43.5625C181.844 40.4583 180.5 38.9062 177.812 38.9062C175.312 38.9062 174.062 40.1354 174.062 42.5938H163.531C163.531 39.3229 164.917 36.6667 167.688 34.625C170.479 32.5833 174.031 31.5625 178.344 31.5625C182.656 31.5625 186.062 32.6146 188.562 34.7188C191.062 36.8229 192.344 39.7083 192.406 43.375V58.3438C192.448 61.4479 192.927 63.8229 193.844 65.4688V66H183.312ZM176.719 59.125C178.031 59.125 179.115 58.8438 179.969 58.2812C180.844 57.7188 181.469 57.0833 181.844 56.375V50.9688H178.781C175.115 50.9688 173.281 52.6146 173.281 55.9062C173.281 56.8646 173.604 57.6458 174.25 58.25C174.896 58.8333 175.719 59.125 176.719 59.125Z" fill="white"/>
<path d="M217.938 32.1875H228.5V66H217.938V46.3125L208.656 66H198.062V32.1875H208.656V51.8125L217.938 32.1875ZM225.094 17.9375C225.094 20.7917 224.042 23.1042 221.938 24.875C219.833 26.6458 217.031 27.5312 213.531 27.5312C210.031 27.5312 207.229 26.6458 205.125 24.875C203.021 23.1042 201.969 20.7917 201.969 17.9375H209.125C209.125 19.1875 209.51 20.1667 210.281 20.875C211.073 21.5625 212.156 21.9062 213.531 21.9062C214.906 21.9062 215.969 21.5729 216.719 20.9062C217.49 20.2188 217.875 19.2292 217.875 17.9375H225.094Z" fill="white"/>
<path d="M232.844 49.1562C232.844 43.7604 233.958 39.4792 236.188 36.3125C238.438 33.1458 241.521 31.5625 245.438 31.5625C246.771 31.5625 248.094 31.8333 249.406 32.375V18H259.938V32.3438C261.146 31.8229 262.448 31.5625 263.844 31.5625C267.781 31.5625 270.865 33.1562 273.094 36.3438C275.344 39.5312 276.469 44.0208 276.469 49.8125C276.469 55.0208 275.333 59.125 273.062 62.125C270.812 65.125 267.76 66.625 263.906 66.625C262.448 66.625 261.125 66.3854 259.938 65.9062V79H249.406V65.875C248.094 66.375 246.75 66.625 245.375 66.625C241.542 66.625 238.49 65.125 236.219 62.125C233.969 59.125 232.844 54.9479 232.844 49.5938V49.1562ZM243.375 49.8125C243.375 55.5208 244.885 58.4062 247.906 58.4688H248.719L249.406 58.4062V39.7812L248.094 39.6875C244.948 39.6875 243.375 43.0625 243.375 49.8125ZM265.906 49.1562C265.906 46.1771 265.51 43.8542 264.719 42.1875C263.948 40.5208 262.792 39.6875 261.25 39.6875L259.938 39.7812V58.4375L261.312 58.5C264.125 58.5 265.646 56.0938 265.875 51.2812L265.906 49.1562Z" fill="white"/>
<path d="M279.781 49.1562C279.781 43.7604 280.896 39.4792 283.125 36.3125C285.375 33.1458 288.458 31.5625 292.375 31.5625C293.708 31.5625 295.031 31.8333 296.344 32.375V18H306.875V32.3438C308.083 31.8229 309.385 31.5625 310.781 31.5625C314.719 31.5625 317.802 33.1562 320.031 36.3438C322.281 39.5312 323.406 44.0208 323.406 49.8125C323.406 55.0208 322.271 59.125 320 62.125C317.75 65.125 314.698 66.625 310.844 66.625C309.385 66.625 308.062 66.3854 306.875 65.9062V79H296.344V65.875C295.031 66.375 293.688 66.625 292.312 66.625C288.479 66.625 285.427 65.125 283.156 62.125C280.906 59.125 279.781 54.9479 279.781 49.5938V49.1562ZM290.312 49.8125C290.312 55.5208 291.823 58.4062 294.844 58.4688H295.656L296.344 58.4062V39.7812L295.031 39.6875C291.885 39.6875 290.312 43.0625 290.312 49.8125ZM312.844 49.1562C312.844 46.1771 312.448 43.8542 311.656 42.1875C310.885 40.5208 309.729 39.6875 308.188 39.6875L306.875 39.7812V58.4375L308.25 58.5C311.062 58.5 312.583 56.0938 312.812 51.2812L312.844 49.1562Z" fill="white"/>
<path d="M347.062 66C346.688 65.3125 346.354 64.3021 346.062 62.9688C344.125 65.4062 341.417 66.625 337.938 66.625C334.75 66.625 332.042 65.6667 329.812 63.75C327.583 61.8125 326.469 59.3854 326.469 56.4688C326.469 52.8021 327.823 50.0312 330.531 48.1562C333.24 46.2812 337.177 45.3438 342.344 45.3438H345.594V43.5625C345.594 40.4583 344.25 38.9062 341.562 38.9062C339.062 38.9062 337.812 40.1354 337.812 42.5938H327.281C327.281 39.3229 328.667 36.6667 331.438 34.625C334.229 32.5833 337.781 31.5625 342.094 31.5625C346.406 31.5625 349.812 32.6146 352.312 34.7188C354.812 36.8229 356.094 39.7083 356.156 43.375V58.3438C356.198 61.4479 356.677 63.8229 357.594 65.4688V66H347.062ZM340.469 59.125C341.781 59.125 342.865 58.8438 343.719 58.2812C344.594 57.7188 345.219 57.0833 345.594 56.375V50.9688H342.531C338.865 50.9688 337.031 52.6146 337.031 55.9062C337.031 56.8646 337.354 57.6458 338 58.25C338.646 58.8333 339.469 59.125 340.469 59.125Z" fill="white"/>
<path d="M381.688 32.1875H392.25V66H381.688V46.3125L372.406 66H361.812V32.1875H372.406V51.8125L381.688 32.1875ZM388.844 17.9375C388.844 20.7917 387.792 23.1042 385.688 24.875C383.583 26.6458 380.781 27.5312 377.281 27.5312C373.781 27.5312 370.979 26.6458 368.875 24.875C366.771 23.1042 365.719 20.7917 365.719 17.9375H372.875C372.875 19.1875 373.26 20.1667 374.031 20.875C374.823 21.5625 375.906 21.9062 377.281 21.9062C378.656 21.9062 379.719 21.5729 380.469 20.9062C381.24 20.2188 381.625 19.2292 381.625 17.9375H388.844Z" fill="white"/>
<path d="M415.406 42.4062C415.406 40.1979 414.24 39.0938 411.906 39.0938C409.219 39.0938 407.875 40.0625 407.875 42H397.344C397.344 38.9375 398.625 36.4375 401.188 34.5C403.771 32.5625 407.115 31.5938 411.219 31.5938C415.781 31.5938 419.375 32.4583 422 34.1875C424.625 35.8958 425.938 38.3125 425.938 41.4375C425.938 42.9375 425.479 44.3229 424.562 45.5938C423.667 46.8438 422.396 47.8438 420.75 48.5938C424.604 49.9479 426.531 52.5625 426.531 56.4375C426.531 59.5208 425.135 61.9896 422.344 63.8438C419.573 65.6979 415.865 66.625 411.219 66.625C406.99 66.625 403.531 65.6667 400.844 63.75C398.156 61.8125 396.812 59.2292 396.812 56H407.344C407.344 56.8542 407.698 57.5938 408.406 58.2188C409.115 58.8229 410.292 59.125 411.938 59.125C413.271 59.125 414.281 58.8021 414.969 58.1562C415.677 57.5104 416.031 56.625 416.031 55.5C416.031 53.0833 414.688 51.8333 412 51.75H407.281V45.625H411.562C414.125 45.625 415.406 44.5521 415.406 42.4062Z" fill="white"/>
<path d="M447.375 66.625C442.188 66.625 437.99 65.0833 434.781 62C431.573 58.8958 429.969 54.8646 429.969 49.9062V49.0312C429.969 45.5729 430.604 42.5208 431.875 39.875C433.167 37.2292 435.042 35.1875 437.5 33.75C439.958 32.2917 442.875 31.5625 446.25 31.5625C451 31.5625 454.75 33.0417 457.5 36C460.25 38.9375 461.625 43.0417 461.625 48.3125V52.4062H440.688C441.062 54.3021 441.885 55.7917 443.156 56.875C444.427 57.9583 446.073 58.5 448.094 58.5C451.427 58.5 454.031 57.3333 455.906 55L460.719 60.6875C459.406 62.5 457.542 63.9479 455.125 65.0312C452.729 66.0938 450.146 66.625 447.375 66.625ZM446.188 39.6875C443.104 39.6875 441.271 41.7292 440.688 45.8125H451.312V45C451.354 43.3125 450.927 42.0104 450.031 41.0938C449.135 40.1562 447.854 39.6875 446.188 39.6875Z" fill="white"/>
<path d="M496 66H485.438V53.4688H476.219V66H465.688V32.1875H476.219V45.375H485.438V32.1875H496V66Z" fill="white"/>
<path d="M533.812 48H528.594L525.438 66H514.75L522.625 20.5H533.344L530.281 38.0938H534.062L545.594 20.5H559.094L542.938 42L552.281 66H540.062L533.812 48Z" fill="white"/>
<path d="M573.906 66C573.615 65.1875 573.469 64.1667 573.469 62.9375C571.156 65.4792 568.396 66.7083 565.188 66.625C562.25 66.5833 559.812 65.6042 557.875 63.6875C555.938 61.7708 555.031 59.4479 555.156 56.7188C555.26 53.0521 556.792 50.2396 559.75 48.2812C562.708 46.3021 566.75 45.3125 571.875 45.3125L575.312 45.375L575.688 43.4688L575.812 41.8125C575.729 39.9167 574.781 38.9375 572.969 38.875C570.719 38.8333 569.333 40.0729 568.812 42.5938L558.5 42.625C558.604 40.3542 559.344 38.3854 560.719 36.7188C562.094 35.0312 563.958 33.7396 566.312 32.8438C568.688 31.9271 571.208 31.5 573.875 31.5625C576.438 31.625 578.677 32.1667 580.594 33.1875C582.531 34.1875 583.979 35.5938 584.938 37.4062C585.896 39.1979 586.26 41.2708 586.031 43.625L583.5 59.5312L583.344 61.4688C583.26 63.0104 583.458 64.3229 583.938 65.4062L583.906 66H573.906ZM568.031 59.1875C570.135 59.2708 571.979 58.3438 573.562 56.4062L574.594 50.9688L571.938 50.9375C570.292 50.9792 568.875 51.4688 567.688 52.4062C566.5 53.3229 565.802 54.5833 565.594 56.1875C565.49 57.0417 565.646 57.75 566.062 58.3125C566.5 58.8542 567.156 59.1458 568.031 59.1875Z" fill="white"/>
<path d="M603.75 58.5312C605.229 58.5729 606.385 58.1667 607.219 57.3125C608.052 56.4375 608.583 55.3125 608.812 53.9375L618.438 53.9062C618.312 56.3854 617.573 58.6042 616.219 60.5625C614.885 62.5208 613.073 64.0417 610.781 65.125C608.51 66.1875 606.073 66.6875 603.469 66.625C598.969 66.5417 595.5 64.9271 593.062 61.7812C590.625 58.6146 589.635 54.5312 590.094 49.5312L590.188 48.7812C590.562 45.3646 591.521 42.3438 593.062 39.7188C594.604 37.0729 596.625 35.0312 599.125 33.5938C601.646 32.1562 604.458 31.4792 607.562 31.5625C611.5 31.6458 614.604 32.9062 616.875 35.3438C619.167 37.7604 620.271 41.0312 620.188 45.1562L610.562 45.125C610.667 41.5417 609.385 39.7188 606.719 39.6562C603.094 39.5312 601.01 42.5833 600.469 48.8125L600.188 52L600.156 53.1875C600.156 56.6875 601.354 58.4688 603.75 58.5312Z" fill="white"/>
<path d="M636.312 58.5312C637.792 58.5729 638.948 58.1667 639.781 57.3125C640.615 56.4375 641.146 55.3125 641.375 53.9375L651 53.9062C650.875 56.3854 650.135 58.6042 648.781 60.5625C647.448 62.5208 645.635 64.0417 643.344 65.125C641.073 66.1875 638.635 66.6875 636.031 66.625C631.531 66.5417 628.062 64.9271 625.625 61.7812C623.188 58.6146 622.198 54.5312 622.656 49.5312L622.75 48.7812C623.125 45.3646 624.083 42.3438 625.625 39.7188C627.167 37.0729 629.188 35.0312 631.688 33.5938C634.208 32.1562 637.021 31.4792 640.125 31.5625C644.062 31.6458 647.167 32.9062 649.438 35.3438C651.729 37.7604 652.833 41.0312 652.75 45.1562L643.125 45.125C643.229 41.5417 641.948 39.7188 639.281 39.6562C635.656 39.5312 633.573 42.5833 633.031 48.8125L632.75 52L632.719 53.1875C632.719 56.6875 633.917 58.4688 636.312 58.5312Z" fill="white"/>
<path d="M672.281 66C671.99 65.1875 671.844 64.1667 671.844 62.9375C669.531 65.4792 666.771 66.7083 663.562 66.625C660.625 66.5833 658.188 65.6042 656.25 63.6875C654.312 61.7708 653.406 59.4479 653.531 56.7188C653.635 53.0521 655.167 50.2396 658.125 48.2812C661.083 46.3021 665.125 45.3125 670.25 45.3125L673.688 45.375L674.062 43.4688L674.188 41.8125C674.104 39.9167 673.156 38.9375 671.344 38.875C669.094 38.8333 667.708 40.0729 667.188 42.5938L656.875 42.625C656.979 40.3542 657.719 38.3854 659.094 36.7188C660.469 35.0312 662.333 33.7396 664.688 32.8438C667.062 31.9271 669.583 31.5 672.25 31.5625C674.812 31.625 677.052 32.1667 678.969 33.1875C680.906 34.1875 682.354 35.5938 683.312 37.4062C684.271 39.1979 684.635 41.2708 684.406 43.625L681.875 59.5312L681.719 61.4688C681.635 63.0104 681.833 64.3229 682.312 65.4062L682.281 66H672.281ZM666.406 59.1875C668.51 59.2708 670.354 58.3438 671.938 56.4062L672.969 50.9688L670.312 50.9375C668.667 50.9792 667.25 51.4688 666.062 52.4062C664.875 53.3229 664.177 54.5833 663.969 56.1875C663.865 57.0417 664.021 57.75 664.438 58.3125C664.875 58.8542 665.531 59.1458 666.406 59.1875Z" fill="white"/>
<path fill-rule="evenodd" clip-rule="evenodd" d="M10.6666 85.3334H85.3311V10.67H10.6666V85.3334ZM8 88H88V8H8V88Z" fill="white"/>
<path fill-rule="evenodd" clip-rule="evenodd" d="M47.9996 57.1199L25.0218 80.0943L15.905 70.989L38.8851 48.0066L34.0914 43.2095V33.7384L30.7622 30.4057V38.6655L27.8644 41.5644L16.2145 29.9111L13.3328 32.7916C13.3535 30.6185 13.7872 24.3294 19.1215 19.0859C24.878 13.548 31.0947 16.0432 33.2206 18.1714L44.8648 29.819L41.8945 32.7859L47.9996 38.8933L54.1035 32.7859L51.1344 29.819L62.7763 18.1714C64.9022 16.0432 71.1189 13.548 76.8754 19.0859C82.2109 24.3294 82.6445 30.6185 82.6664 32.7916L79.7847 29.9111L68.1336 41.5644L65.2369 38.6655V30.4057L61.9054 33.7384V43.2095L57.1118 48.0066L80.093 70.989L70.9773 80.0943L47.9996 57.1199Z" fill="white"/>
</svg>
