<?xml version="1.0" encoding="UTF-8" standalone="no"?>
<svg width="26px" height="26px" viewBox="0 0 26 26" version="1.1" xmlns="http://www.w3.org/2000/svg" xmlns:xlink="http://www.w3.org/1999/xlink">
    <!-- Generator: Sketch 39 (31667) - http://www.bohemiancoding.com/sketch -->
    <title>round-check</title>
    <desc>Created with Sketch.</desc>
    <defs></defs>
    <g id="Page-1" stroke="none" stroke-width="1" fill="none" fill-rule="evenodd">
        <g id="round-check" fill="#000000">
            <path d="M13,0 C5.8,0 0,5.8 0,13 C0,20.2 5.8,26 13,26 C20.2,26 26,20.2 26,13 C26,11.6 25.8125,10.20625 25.3125,8.90625 L23.6875,10.5 C23.8875,11.3 24,12.1 24,13 C24,19.1 19.1,24 13,24 C6.9,24 2,19.1 2,13 C2,6.9 6.9,2 13,2 C16,2 18.69375,3.19375 20.59375,5.09375 L22,3.6875 C19.7,1.3875 16.5,0 13,0 L13,0 Z M24.28125,4.28125 L13,15.5625 L8.71875,11.28125 L7.28125,12.71875 L12.28125,17.71875 L13,18.40625 L13.71875,17.71875 L25.71875,5.71875 L24.28125,4.28125 L24.28125,4.28125 Z" id="Shape"></path>
        </g>
    </g>
</svg>