<svg width="16" height="16" viewBox="0 0 16 16" version="1.1" xmlns="http://www.w3.org/2000/svg" xmlns:xlink="http://www.w3.org/1999/xlink"><title>Shape</title><desc>Created using Figma</desc><g id="Canvas" transform="translate(-12719 -1535)"><g id="Shape"><use xlink:href="#path0_fill" transform="translate(12719.2 1535)" fill="#717D83"/></g></g><defs><path id="path0_fill" fill-rule="evenodd" d="M 3.51953 6.15381C 3.51953 2.76196 6.28125 0 9.67285 0C 13.0645 0 15.8271 2.76196 15.8271 6.15381C 15.8271 9.54565 13.0645 12.3077 9.67285 12.3077C 8.19922 12.3077 6.84863 11.7909 5.78809 10.9231L 0.884766 15.8269L 0 14.9423L 4.9043 10.0385C 4.03613 8.97839 3.51953 7.62744 3.51953 6.15381ZM 14.5957 6.15381C 14.5957 3.42786 12.3994 1.23071 9.67285 1.23071C 6.94727 1.23071 4.75 3.42786 4.75 6.15381C 4.75 8.87976 6.94727 11.0769 9.67285 11.0769C 12.3994 11.0769 14.5957 8.87976 14.5957 6.15381Z"/></defs></svg>