<svg width="501" height="80" viewBox="0 0 501 80" fill="none" xmlns="http://www.w3.org/2000/svg"><path d="M111.162 39.4949L91.039 59.6169L107.124 75.8009C112.645 81.3559 121.654 81.4209 127.246 75.8629C132.82 70.3229 132.847 61.3139 127.308 55.7409L111.162 39.4949Z" fill="url(#paint0_linear)"/><path d="M75.783 35.5889L107.206 4.16687C112.762 -1.38913 121.771 -1.38912 127.328 4.16788C132.884 9.72488 132.884 18.7339 127.327 24.2899L75.783 75.8329V35.5889Z" fill="#EC6500"/><path d="M65.722 79.9998C57.864 79.9998 51.493 73.6298 51.493 65.7708V28.5058H28.457V65.7708C28.457 73.6298 22.087 79.9998 14.229 79.9998C6.37 79.9998 0 73.6298 0 65.7708V14.2778C0 6.41883 6.37 0.0488281 14.229 0.0488281H65.723C73.581 0.0488281 79.952 6.41883 79.952 14.2768V65.7708C79.951 73.6298 73.581 79.9998 65.722 79.9998Z" fill="#181716"/><path d="M187.847 59.4439H181.839C181.043 59.4439 180.399 58.7989 180.399 58.0039V29.1489H166.167V58.0029C166.167 58.7989 165.522 59.4429 164.727 59.4429H158.682C157.886 59.4429 157.241 58.7979 157.241 58.0029V21.9959C157.241 21.1999 157.886 20.5559 158.682 20.5559H187.848C188.644 20.5559 189.288 21.2009 189.288 21.9959V58.0039C189.287 58.7989 188.642 59.4439 187.847 59.4439Z" fill="#181716"/><path d="M225.506 45.3989C225.542 53.6769 219.569 60.0919 212.292 60.1229C208.57 60.1389 205.901 58.8729 204.059 56.7699V69.0579C204.059 69.8509 203.418 70.4949 202.625 70.4989L197.005 70.5229C196.207 70.5259 195.558 69.8799 195.558 69.0829V32.5659C195.558 31.7699 196.203 31.1249 196.999 31.1249H200.234C200.618 31.1249 200.985 31.2779 201.256 31.5499L203.903 34.2129C205.727 32.0939 208.444 30.8049 212.166 30.7889C219.443 30.7579 225.47 37.1209 225.506 45.3989ZM217.172 45.4349C217.154 41.2679 214.365 38.6689 210.532 38.6859C206.699 38.7029 203.932 41.3249 203.95 45.4919C203.968 49.6589 206.757 52.2579 210.59 52.2409C214.424 52.2249 217.19 49.6019 217.172 45.4349Z" fill="#181716"/><path d="M228.839 45.3849C228.803 37.1069 235.331 30.6899 243.498 30.6549C251.665 30.6199 258.248 36.9799 258.284 45.2579C258.32 53.5359 251.792 59.9529 243.625 59.9879C235.458 60.0229 228.875 53.6619 228.839 45.3849ZM249.951 45.2939C249.934 41.3499 247.145 38.7509 243.534 38.7659C239.923 38.7819 237.156 41.4049 237.173 45.3489C237.19 49.2929 239.979 51.8929 243.59 51.8769C247.201 51.8609 249.968 49.2379 249.951 45.2939Z" fill="#181716"/><path d="M313.264 39.233H306.512V58.004C306.512 58.8 305.867 59.444 305.072 59.444H299.534C298.738 59.444 298.094 58.799 298.094 58.004V39.233H291.111C290.315 39.233 289.671 38.588 289.671 37.793V32.566C289.671 31.77 290.316 31.125 291.111 31.125H313.265C314.061 31.125 314.705 31.77 314.705 32.566V37.793C314.704 38.588 314.059 39.233 313.264 39.233Z" fill="#181716"/><path d="M315.841 45.0099C315.805 36.7319 322.333 30.3149 330.5 30.2799C338.667 30.2449 345.25 36.6049 345.285 44.8829C345.32 53.1609 338.793 59.5779 330.626 59.6129C322.46 59.6479 315.877 53.2869 315.841 45.0099ZM336.953 44.9189C336.936 40.9749 334.147 38.3759 330.536 38.3909C326.925 38.4069 324.158 41.0299 324.175 44.9739C324.192 48.9189 326.981 51.5179 330.592 51.5019C334.203 51.4859 336.97 48.8629 336.953 44.9189Z" fill="#181716"/><path d="M380.147 57.187L368.037 39.56L379.52 22.817C380.176 21.861 379.491 20.562 378.332 20.562H371.71C371.239 20.562 370.797 20.793 370.528 21.18L359.141 37.545L359.228 22.011C359.233 21.212 358.586 20.563 357.788 20.563H351.621C350.826 20.563 350.181 21.208 350.181 22.003V58.003C350.181 58.799 350.826 59.443 351.621 59.443H357.789C358.587 59.443 359.233 58.794 359.229 57.996L359.157 41.542L371.154 58.824C371.423 59.212 371.865 59.443 372.337 59.443H378.959C380.119 59.443 380.803 58.143 380.147 57.187Z" fill="#EC6500"/><path d="M410.817 32.5658V58.0038C410.817 58.7998 410.172 59.4438 409.377 59.4438H406.086C405.702 59.4438 405.335 59.2908 405.064 59.0188L402.484 56.4228C400.66 58.5418 397.932 59.8318 394.21 59.8478C386.932 59.8788 380.905 53.5158 380.869 45.2388C380.833 36.9618 386.806 30.5468 394.084 30.5148C397.806 30.4988 400.642 31.7648 402.485 33.8678V32.5658C402.485 31.7698 403.13 31.1248 403.925 31.1248H409.377C410.172 31.1258 410.817 31.7708 410.817 32.5658ZM402.424 45.1458C402.406 40.9788 399.617 38.3798 395.784 38.3968C391.951 38.4138 389.184 41.0358 389.202 45.2028C389.22 49.3698 392.009 51.9688 395.842 51.9518C399.675 51.9358 402.442 49.3118 402.424 45.1458Z" fill="#EC6500"/><path d="M500.514 32.5658V58.0038C500.514 58.7998 499.869 59.4438 499.073 59.4438H495.782C495.398 59.4438 495.031 59.2908 494.76 59.0188L492.18 56.4228C490.356 58.5418 487.628 59.8318 483.906 59.8478C476.628 59.8788 470.601 53.5158 470.565 45.2388C470.529 36.9618 476.502 30.5468 483.78 30.5148C487.502 30.4988 490.338 31.7648 492.181 33.8678V32.5658C492.181 31.7698 492.826 31.1248 493.621 31.1248H499.073C499.869 31.1258 500.514 31.7708 500.514 32.5658ZM492.121 45.1458C492.103 40.9788 489.314 38.3798 485.481 38.3968C481.648 38.4138 478.881 41.0358 478.899 45.2028C478.917 49.3698 481.706 51.9688 485.539 51.9518C489.373 51.9358 492.139 49.3118 492.121 45.1458Z" fill="#EC6500"/><path d="M282.176 50.4888C281.661 49.9768 280.855 49.9538 280.279 50.3978C279.256 51.1808 277.914 51.6208 276.427 51.6238C272.812 51.6408 270.136 49.0428 270.119 45.2078C270.102 41.3758 272.758 38.7538 276.369 38.7368C277.863 38.7298 279.195 39.1608 280.218 39.9398C280.797 40.3798 281.607 40.3528 282.122 39.8348L285.973 35.9468C286.564 35.3498 286.528 34.3668 285.881 33.8308C283.355 31.7398 280.032 30.4978 276.445 30.5148C267.999 30.5488 261.752 36.9648 261.789 45.2408C261.823 53.5208 268.128 59.8828 276.57 59.8488C280.188 59.8318 283.481 58.5678 285.981 56.4438C286.621 55.9018 286.648 54.9198 286.052 54.3298L282.176 50.4888Z" fill="#181716"/><path d="M436.624 50.4888C436.109 49.9768 435.303 49.9538 434.727 50.3978C433.704 51.1808 432.362 51.6208 430.875 51.6238C427.26 51.6408 424.584 49.0428 424.567 45.2078C424.55 41.3758 427.206 38.7538 430.817 38.7368C432.311 38.7298 433.642 39.1608 434.666 39.9398C435.245 40.3798 436.055 40.3528 436.57 39.8348L440.421 35.9468C441.012 35.3498 440.976 34.3668 440.329 33.8308C437.803 31.7398 434.48 30.4978 430.893 30.5148C422.447 30.5488 416.2 36.9648 416.238 45.2408C416.272 53.5208 422.577 59.8828 431.019 59.8488C434.637 59.8318 437.93 58.5678 440.43 56.4438C441.07 55.9018 441.097 54.9198 440.501 54.3298L436.624 50.4888Z" fill="#EC6500"/><path d="M463.936 50.4888C463.421 49.9768 462.615 49.9538 462.039 50.3978C461.016 51.1808 459.674 51.6208 458.187 51.6238C454.572 51.6408 451.896 49.0428 451.879 45.2078C451.862 41.3758 454.518 38.7538 458.129 38.7368C459.623 38.7298 460.954 39.1608 461.977 39.9398C462.556 40.3798 463.366 40.3528 463.881 39.8348L467.732 35.9468C468.323 35.3498 468.287 34.3668 467.64 33.8308C465.114 31.7398 461.791 30.4978 458.204 30.5148C449.758 30.5488 443.511 36.9648 443.549 45.2408C443.583 53.5208 449.888 59.8828 458.33 59.8488C461.948 59.8318 465.241 58.5678 467.741 56.4438C468.381 55.9018 468.408 54.9198 467.812 54.3298L463.936 50.4888Z" fill="#EC6500"/><defs><linearGradient id="paint0_linear" x1="91.039" y1="59.7476" x2="131.445" y2="59.7476" gradientUnits="userSpaceOnUse"><stop stop-color="#E73928"/><stop offset="1" stop-color="#EC6500"/></linearGradient></defs></svg>
