<svg width="85" height="52" viewBox="0 0 85 52" fill="none" xmlns="http://www.w3.org/2000/svg"><path d="M71.8558 25.5298L58.8485 38.5366L69.2464 48.9981C72.8156 52.589 78.639 52.6304 82.2537 49.0379C85.8565 45.4568 85.8746 39.6334 82.2935 36.0306L71.8558 25.5298Z" fill="url(#paint0_linear)"/><path d="M48.9869 23.0047L69.2992 2.69352C72.8911 -0.897927 78.7145 -0.897927 82.3065 2.69404C85.8979 6.286 85.8979 12.1094 82.306 15.7013L48.9869 49.0188V23.0047Z" fill="#EC6500"/><path d="M42.4835 51.7124C37.4038 51.7124 33.2859 47.5945 33.2859 42.5148V18.4265H18.3947V42.5153C18.3947 47.5951 14.2768 51.7129 9.19711 51.7129C4.11737 51.7129 0 47.5945 0 42.5148V9.22887C0 4.14913 4.11788 0.03125 9.19762 0.03125H42.4835C47.5633 0.03125 51.6812 4.14913 51.6812 9.22887V42.5148C51.6812 47.5945 47.5633 51.7124 42.4835 51.7124Z" fill="#181716"/><defs><linearGradient id="paint0_linear" x1="58.8484" y1="38.6212" x2="84.9671" y2="38.6212" gradientUnits="userSpaceOnUse"><stop stop-color="#E73928"/><stop offset="1" stop-color="#EC6500"/></linearGradient></defs></svg>
