<svg width="501" height="80" viewBox="0 0 501 80" fill="none" xmlns="http://www.w3.org/2000/svg"><path d="M187.847 59.4444H181.839C181.043 59.4444 180.398 58.7994 180.398 58.0044V29.1494H166.166V58.0034C166.166 58.7994 165.521 59.4434 164.725 59.4434H158.68C157.884 59.4434 157.24 58.7984 157.24 58.0034V21.9964C157.24 21.2004 157.885 20.5554 158.68 20.5554H187.846C188.642 20.5554 189.287 21.2004 189.287 21.9964V58.0044C189.287 58.7994 188.642 59.4444 187.847 59.4444Z" fill="white"/><path d="M225.505 45.3994C225.541 53.6774 219.568 60.0924 212.291 60.1234C208.569 60.1394 205.9 58.8734 204.058 56.7704V69.0584C204.058 69.8514 203.417 70.4954 202.624 70.4984L197.004 70.5224C196.206 70.5254 195.557 69.8794 195.557 69.0824V32.5664C195.557 31.7704 196.202 31.1264 196.997 31.1264H200.232C200.616 31.1264 200.983 31.2794 201.254 31.5514L203.901 34.2144C205.725 32.0954 208.442 30.8064 212.164 30.7904C219.442 30.7584 225.47 37.1214 225.505 45.3994ZM217.172 45.4354C217.154 41.2684 214.365 38.6694 210.532 38.6864C206.699 38.7034 203.932 41.3254 203.95 45.4924C203.968 49.6594 206.757 52.2584 210.59 52.2414C214.424 52.2254 217.19 49.6024 217.172 45.4354Z" fill="white"/><path d="M228.839 45.3844C228.803 37.1064 235.331 30.6894 243.498 30.6544C251.665 30.6194 258.248 36.9794 258.283 45.2574C258.318 53.5354 251.791 59.9524 243.624 59.9874C235.458 60.0234 228.875 53.6624 228.839 45.3844ZM249.95 45.2934C249.933 41.3494 247.144 38.7504 243.533 38.7654C239.922 38.7814 237.155 41.4044 237.172 45.3484C237.189 49.2924 239.978 51.8924 243.589 51.8764C247.201 51.8614 249.967 49.2384 249.95 45.2934Z" fill="white"/><path d="M313.263 39.2335H306.511V58.0045C306.511 58.8005 305.866 59.4445 305.071 59.4445H299.533C298.737 59.4445 298.093 58.7995 298.093 58.0045V39.2335H291.11C290.314 39.2335 289.67 38.5885 289.67 37.7935V32.5665C289.67 31.7705 290.315 31.1265 291.11 31.1265H313.264C314.06 31.1265 314.704 31.7715 314.704 32.5665V37.7935C314.704 38.5885 314.059 39.2335 313.263 39.2335Z" fill="white"/><path d="M315.841 45.0094C315.805 36.7314 322.333 30.3144 330.5 30.2794C338.667 30.2444 345.25 36.6044 345.285 44.8824C345.32 53.1604 338.793 59.5774 330.626 59.6124C322.46 59.6484 315.877 53.2874 315.841 45.0094ZM336.952 44.9184C336.935 40.9744 334.146 38.3754 330.535 38.3904C326.924 38.4054 324.157 41.0294 324.174 44.9734C324.191 48.9184 326.98 51.5174 330.591 51.5014C334.202 51.4864 336.969 48.8634 336.952 44.9184Z" fill="white"/><path d="M380.146 57.1875L368.037 39.5605L379.52 22.8175C380.175 21.8615 379.491 20.5625 378.332 20.5625H371.71C371.239 20.5625 370.797 20.7935 370.528 21.1805L359.14 37.5445L359.227 22.0105C359.231 21.2115 358.585 20.5625 357.787 20.5625H351.62C350.824 20.5625 350.18 21.2075 350.18 22.0035V58.0035C350.18 58.7985 350.825 59.4435 351.62 59.4435H357.788C358.586 59.4435 359.232 58.7945 359.228 57.9965L359.156 41.5425L371.153 58.8245C371.422 59.2125 371.864 59.4435 372.336 59.4435H378.958C380.118 59.4435 380.803 58.1425 380.146 57.1875Z" fill="white"/><path d="M410.817 32.5665V58.0045C410.817 58.8005 410.172 59.4445 409.376 59.4445H406.085C405.702 59.4445 405.334 59.2915 405.063 59.0195L402.483 56.4235C400.659 58.5425 397.931 59.8325 394.209 59.8485C386.931 59.8795 380.904 53.5165 380.868 45.2395C380.832 36.9625 386.805 30.5475 394.082 30.5155C397.804 30.4995 400.64 31.7655 402.483 33.8685V32.5665C402.483 31.7705 403.128 31.1265 403.923 31.1265H409.375C410.172 31.1265 410.817 31.7715 410.817 32.5665ZM402.423 45.1465C402.405 40.9795 399.616 38.3805 395.783 38.3975C391.95 38.4145 389.183 41.0365 389.201 45.2035C389.219 49.3705 392.008 51.9695 395.841 51.9525C399.674 51.9355 402.441 49.3125 402.423 45.1465Z" fill="white"/><path d="M500.513 32.5665V58.0045C500.513 58.8005 499.868 59.4445 499.073 59.4445H495.782C495.399 59.4445 495.031 59.2915 494.76 59.0195L492.18 56.4235C490.356 58.5425 487.628 59.8325 483.906 59.8485C476.628 59.8795 470.601 53.5165 470.565 45.2395C470.529 36.9625 476.502 30.5475 483.78 30.5155C487.502 30.4995 490.338 31.7655 492.181 33.8685V32.5665C492.181 31.7705 492.826 31.1265 493.621 31.1265H499.073C499.869 31.1265 500.513 31.7715 500.513 32.5665ZM492.12 45.1465C492.102 40.9795 489.313 38.3805 485.48 38.3975C481.647 38.4145 478.88 41.0365 478.898 45.2035C478.916 49.3705 481.705 51.9695 485.538 51.9525C489.371 51.9355 492.138 49.3125 492.12 45.1465Z" fill="white"/><path d="M282.176 50.4893C281.661 49.9773 280.855 49.9543 280.279 50.3983C279.256 51.1813 277.914 51.6213 276.427 51.6243C272.812 51.6413 270.136 49.0433 270.119 45.2083C270.102 41.3763 272.758 38.7543 276.369 38.7373C277.863 38.7303 279.195 39.1613 280.218 39.9403C280.797 40.3803 281.607 40.3533 282.122 39.8353L285.973 35.9473C286.564 35.3503 286.528 34.3673 285.88 33.8313C283.354 31.7403 280.031 30.4983 276.444 30.5153C267.998 30.5493 261.751 36.9653 261.789 45.2413C261.823 53.5213 268.127 59.8833 276.57 59.8493C280.188 59.8323 283.481 58.5683 285.981 56.4443C286.621 55.9023 286.648 54.9193 286.052 54.3303L282.176 50.4893Z" fill="white"/><path d="M436.623 50.4893C436.108 49.9773 435.302 49.9543 434.726 50.3983C433.703 51.1813 432.361 51.6213 430.874 51.6243C427.259 51.6413 424.583 49.0433 424.566 45.2083C424.549 41.3763 427.205 38.7543 430.816 38.7373C432.31 38.7303 433.641 39.1613 434.664 39.9403C435.243 40.3803 436.053 40.3533 436.568 39.8353L440.419 35.9473C441.01 35.3503 440.974 34.3673 440.327 33.8313C437.801 31.7403 434.478 30.4983 430.891 30.5153C422.445 30.5493 416.198 36.9653 416.236 45.2413C416.27 53.5213 422.575 59.8833 431.017 59.8493C434.635 59.8323 437.928 58.5683 440.428 56.4443C441.068 55.9023 441.095 54.9193 440.499 54.3303L436.623 50.4893Z" fill="white"/><path d="M463.935 50.4893C463.42 49.9773 462.614 49.9543 462.038 50.3983C461.015 51.1813 459.673 51.6213 458.186 51.6243C454.571 51.6413 451.895 49.0433 451.878 45.2083C451.861 41.3763 454.517 38.7543 458.128 38.7373C459.622 38.7303 460.953 39.1613 461.977 39.9403C462.556 40.3803 463.366 40.3533 463.881 39.8353L467.732 35.9473C468.324 35.3503 468.287 34.3673 467.64 33.8313C465.114 31.7403 461.791 30.4983 458.204 30.5153C449.758 30.5493 443.511 36.9653 443.549 45.2413C443.583 53.5213 449.888 59.8833 458.33 59.8493C461.948 59.8323 465.241 58.5683 467.741 56.4443C468.381 55.9023 468.409 54.9193 467.812 54.3303L463.935 50.4893Z" fill="white"/><path d="M51.494 48.3803L79.951 19.9243V14.2783C79.951 6.42032 73.581 0.0493164 65.722 0.0493164H14.228C6.37 0.0493164 0 6.41932 0 14.2783V65.7723C0 73.6293 6.37 80.0003 14.228 80.0003C22.086 80.0003 28.457 73.6303 28.457 65.7713V28.5063H51.494V48.3803Z" fill="white"/><path d="M55.661 75.8324C50.105 70.2754 50.105 61.2664 55.661 55.7104L107.206 4.16738C112.763 -1.38963 121.772 -1.38863 127.328 4.16738C132.884 9.72437 132.884 18.7334 127.328 24.2894L75.784 75.8334C70.228 81.3884 61.219 81.3904 55.661 75.8324Z" fill="white"/><path d="M117.372 45.7444L97.249 65.8664L107.124 75.8024C112.645 81.3574 121.654 81.4224 127.246 75.8644C132.82 70.3244 132.847 61.3154 127.308 55.7424L117.372 45.7444Z" fill="white"/></svg>
