<svg width="275" height="260" viewBox="0 0 275 260" fill="none" xmlns="http://www.w3.org/2000/svg"><path d="M81.7549 197.189C96.4875 170.51 67.0338 167.82 56.5182 168.967C37.5901 171.032 14.6506 162.432 33.5715 116.056C56.0517 60.8218 122.279 38.6104 142.21 35.3394C162.794 31.9601 190.135 33.0052 185.211 61.1839C180.577 87.8521 187.239 106.207 208.858 92.3834C234.786 75.8022 252.099 96.961 243.914 130.335C235.361 165.084 209.05 183.946 181.574 204.196C108.786 257.948 61.8217 233.138 81.7549 197.189Z" fill="url(#paint0_linear)" fill-opacity=".35"/><path d="M60.2428 86.845C66.7645 85.7027 73.222 85.7027 79.7437 86.845C82.5569 87.3525 84.9864 89.1928 84.9864 92.0482C84.9864 93.6981 84.2193 95.1574 83.0683 96.1093C82.5569 96.4901 81.9813 96.6802 81.3422 96.5535C80.7027 96.4901 80.1913 96.1726 79.8075 95.6017C79.3599 94.967 78.7204 94.5228 77.8256 94.967C73.222 97.2515 71.6238 93.6981 69.5139 95.1574C67.7235 96.363 66.9563 96.2997 64.4626 95.2208C62.8003 94.5228 60.7542 95.4746 59.5394 96.236C58.7081 96.7436 57.6852 96.6802 56.9181 96.0455C55.7672 95.0937 55 93.6343 55 92.0479C54.9996 89.1928 57.3657 87.3525 60.2428 86.845Z" fill="#596366"/><path d="M218.936 178.921C218.936 180.571 218.169 182.03 216.57 182.347L126.93 198.338C124.18 198.846 122.518 196.054 123.477 194.087C123.285 193.833 123.157 193.516 123.093 193.198L98.1577 95.0316H83.3881C81.8534 95.0316 80.6387 93.826 80.6387 92.3029C80.6387 90.7798 81.8534 89.5742 83.3881 89.5742H100.523C101.035 89.5742 101.482 89.7013 101.866 89.9551C102.633 90.336 103.273 91.034 103.465 91.8587L128.848 191.739C128.848 191.802 128.912 191.929 128.912 191.993L215.547 176.509C217.146 176.192 219 177.271 219 178.857L218.936 178.921Z" fill="#CBCFD1"/><path d="M60.2427 86.845C66.7644 85.7027 73.2219 85.7027 79.7436 86.845C80.575 86.972 81.3421 87.2258 81.9816 87.6063C81.5979 87.9872 81.1503 88.4948 80.5111 89.0024C75.2684 93.5076 56.1509 89.0024 56.1509 89.0024C57.1099 87.9235 58.5804 87.1621 60.2427 86.9083V86.845Z" fill="#6C7678"/><path d="M82.6843 85.4492C83.8988 85.4492 84.9218 86.4644 84.9218 87.6703V96.4908C84.9218 97.6964 83.8991 98.7119 82.6843 98.7119C81.4698 98.7119 80.4468 97.6967 80.4468 96.4908V87.6703C80.4468 86.4644 81.4694 85.4492 82.6843 85.4492Z" fill="#6C7678"/><path d="M96.1118 64.6979L138.631 54.6719L150.139 97.6951L107.557 108.229L96.1118 64.6979Z" fill="#FFE356"/><path d="M108.644 107.976L171.558 92.4297L194.192 182.474L131.533 194.34L108.644 107.976Z" fill="#FCD34E"/><path d="M134.794 101.503L146.175 98.7109L154.487 129.995L151.802 128.218L151.162 130.503L149.372 128.662L148.221 131.073L146.686 129.043L145.536 131.581L143.937 129.741L142.53 132.089L134.794 101.503Z" fill="#EEB731"/><path d="M147.262 163.626L180.766 157.471L186.009 178.792L152.505 185.011L147.262 163.626Z" fill="#fff"/><path d="M149.244 164.705L149.819 164.578L153.783 182.219L153.208 182.346L149.244 164.705ZM169.576 165.403L169.256 165.466L172.261 178.856L172.581 178.792L169.576 165.403ZM171.238 165.085L169.895 165.339L172.901 178.729L174.243 178.475L171.238 165.085ZM172.261 164.895L171.622 165.022L174.627 178.411L175.266 178.284L172.261 164.895ZM173.604 164.641L173.22 164.705L176.225 178.094L176.609 178.031L173.604 164.641ZM177.888 163.88L178.207 163.816L181.212 177.206L180.893 177.269L177.888 163.88ZM176.225 164.197L177.568 163.944L180.573 177.333L179.23 177.587L176.225 164.197ZM175.202 164.387L175.842 164.26L178.847 177.65L178.208 177.777L175.202 164.387ZM173.86 164.641L174.243 164.578L177.249 177.967L176.865 178.031L173.86 164.641ZM162.67 162.23L162.862 162.167L166.826 179.807L166.635 179.871L162.67 162.23ZM164.525 161.913L166.251 161.596L170.215 179.237L168.489 179.554L164.525 161.913ZM163.758 162.04L164.205 161.976L168.169 179.617L167.722 179.68L163.758 162.04ZM160.369 162.674L162.095 162.357L166.059 179.998L164.333 180.315L160.369 162.674ZM159.73 162.801L160.113 162.738L164.077 180.378L163.694 180.442L159.73 162.801ZM158.834 162.991L159.282 162.928L163.246 180.569L162.798 180.632L158.834 162.991ZM157.555 163.245L158.451 163.055L162.415 180.696L161.52 180.886L157.555 163.245ZM155.382 163.626L157.108 163.309L161.072 180.95L159.346 181.267L155.382 163.626ZM154.359 163.816L154.742 163.753L158.707 181.394L158.323 181.457L154.359 163.816ZM152.44 164.197L153.911 163.944L157.875 181.584L156.404 181.838L152.44 164.197ZM150.395 164.578L150.97 164.451L154.934 182.092L154.359 182.219L150.395 164.578Z" fill="#C6CBD6"/><path d="M142.019 84.622L141.252 85.3833L140.229 84.2411C139.974 83.9873 139.718 83.8602 139.526 83.9239C139.142 83.9873 138.823 84.3682 138.631 84.749C138.567 84.8761 138.503 85.0662 138.439 85.1933C138.503 85.2566 138.567 85.3837 138.695 85.5104C139.014 85.8913 139.398 86.3989 139.846 86.9064L139.078 87.6678L140.166 87.287H140.229L140.357 87.2236L141.316 86.9064L141.572 85.9546V85.8276L141.892 84.5586L142.019 84.622ZM135.881 92.1097C135.498 92.1097 135.114 92.1097 134.859 91.9193L136.457 93.7595C136.585 93.8229 136.649 93.8229 136.713 93.8229H136.777L139.462 93.3153L139.206 91.5384C139.014 91.6018 138.759 91.6018 138.503 91.6655L136.777 91.9826C136.713 91.9826 136.585 92.046 136.393 92.046H136.329C136.201 92.046 136.009 92.1094 135.818 92.1094H135.881V92.1097ZM134.091 89.0639L135.178 89.3176L134.667 90.777C134.539 91.1579 134.603 91.4117 134.731 91.6021C134.986 91.9193 135.498 91.983 135.945 91.983C136.137 91.983 136.265 91.983 136.393 91.9196C136.457 91.7926 136.457 91.6658 136.521 91.5388C136.713 91.0945 136.905 90.4599 137.16 89.8256L138.183 90.0794L137.288 89.318L137.224 89.2546L137.096 89.1276L136.329 88.4296L135.37 88.6833H135.242L133.963 89.0005L134.091 89.0639ZM143.426 90.8408C143.618 91.1579 143.81 91.4754 143.81 91.7926L144.577 89.4447C144.577 89.3177 144.513 89.2543 144.513 89.2543L142.723 87.1602L141.316 88.3025C141.444 88.4296 141.636 88.6196 141.764 88.8101L142.915 90.1427C142.978 90.2061 143.043 90.2698 143.17 90.3965L143.234 90.4599C143.298 90.587 143.426 90.7137 143.49 90.8408H143.426ZM141.7 93.8866L141.38 92.8077L142.915 92.4906C143.299 92.4272 143.49 92.2368 143.554 92.0464C143.682 91.6655 143.491 91.2213 143.299 90.8408C143.235 90.7137 143.107 90.587 143.043 90.4599C142.915 90.4599 142.787 90.4599 142.659 90.5233C142.148 90.5866 141.508 90.7137 140.869 90.8404L140.549 89.8252L140.294 90.9675V91.0308V91.1579L140.102 92.1731L140.805 92.8711L140.869 92.9344L141.764 93.8863H141.7V93.8866ZM138.503 84.622C138.695 84.3048 138.887 83.9873 139.142 83.7969L136.713 84.2411C136.649 84.3045 136.585 84.3682 136.585 84.4315V84.4949L135.69 87.0965L137.352 87.7312C137.416 87.5407 137.48 87.3503 137.608 87.0965L138.183 85.4467C138.183 85.3833 138.247 85.2563 138.311 85.1296V85.0662C138.375 84.9395 138.439 84.8124 138.503 84.622Z" fill="#6C7678"/><path d="M126.674 221.5C141.223 221.5 153.016 209.795 153.016 195.357C153.016 180.918 141.223 169.213 126.674 169.213C112.126 169.213 100.332 180.918 100.332 195.357C100.332 209.795 112.126 221.5 126.674 221.5Z" fill="#596366"/><path d="M126.674 211.41C135.608 211.41 142.85 204.222 142.85 195.355C142.85 186.489 135.608 179.301 126.674 179.301C117.74 179.301 110.498 186.489 110.498 195.355C110.498 204.222 117.74 211.41 126.674 211.41Z" fill="#ECF0F1"/><path d="M126.674 208.932C134.231 208.932 140.357 202.853 140.357 195.353C140.357 187.853 134.231 181.773 126.674 181.773C119.118 181.773 112.992 187.853 112.992 195.353C112.992 202.853 119.118 208.932 126.674 208.932Z" fill="#C6CBD6"/><path d="M126.673 201.449C130.063 201.449 132.811 198.722 132.811 195.357C132.811 191.993 130.063 189.266 126.673 189.266C123.283 189.266 120.535 191.993 120.535 195.357C120.535 198.722 123.283 201.449 126.673 201.449Z" fill="#ECF0F1"/><path d="M126.354 196.941C127.201 196.941 127.888 196.259 127.888 195.418C127.888 194.576 127.201 193.895 126.354 193.895C125.506 193.895 124.819 194.576 124.819 195.418C124.819 196.259 125.506 196.941 126.354 196.941Z" fill="#37414C"/><path d="M94.3857 61.9702L138.822 51.5L140.868 60.13L96.4315 70.6002L94.3857 61.9702Z" fill="#FCD34E"/><defs><linearGradient id="paint0_linear" x1="93.098" y1="53.75" x2="181.098" y2="206.17" gradientUnits="userSpaceOnUse"><stop stop-color="#FFEF9E"/><stop offset="1" stop-color="#FFB9B5"/></linearGradient></defs></svg>