<svg xmlns="http://www.w3.org/2000/svg" width="49.8" height="20"><path d="M16.6 0H0v1.9h5.4v8h6.3v-8h5V0h-.1zm4.3 6.1l1.8-4.3 1.8 4.3h-3.6zm22.6-1.2l6-4.9h-6.6l-3.3 2.9L36.4 0h-6.6l6 4.9-3.8 3L27 0h-8.2l-6.1 9.8h6.8l.9-2h5.2l1 2h9.6l3.6-3 3 3H50l-6.5-4.9z"/><path fill="#0066b2" d="M0 20h49.8v-8.7H0z"/><path d="M24.1 17.3c0 .4-.8.6-1.6.6s-1.6-.2-1.6-.6V14c0-.4.8-.5 1.6-.5s1.6.2 1.6.5v3.3zm-1.6-5.1c-4.5 0-6.4.8-6.4 1.8v3c0 1.3 2 2 6.4 2s6.3-.7 6.3-2v-2.9c0-1-1.9-1.9-6.3-1.9zm-13.1 0c-4.5 0-6.4.8-6.4 1.9v2.8C3 18.4 5 19 9.4 19s6.4-.6 6.4-2.1v-.6H11v.9c0 .5-.7.7-1.7.7s-1.6-.2-1.6-.7V14c0-.3.8-.5 1.6-.5.7 0 1.7.2 1.7.5v.6h4.7v-.5c0-1-1.9-1.9-6.3-1.9zm30.8.2L38.7 15c-.3.5-.7 1.3-.7 1.3s-.4-.7-.7-1.3l-1.5-2.6h-6.6v6.5h4.5V14.2l2.7 4.6h3.3l2.7-4.6V18.9h4.5v-6.5h-6.7z" fill="#fff"/></svg>