<svg width="336" height="56" viewBox="0 0 336 56" fill="none" xmlns="http://www.w3.org/2000/svg">
<path fill-rule="evenodd" clip-rule="evenodd" d="M46.8364 0.25H0.594971V5.44119H15.5296V27.5636H32.94V5.44119H46.8364V0.25ZM58.8161 17.1813L63.8476 5.12173L68.879 17.1813H58.8161ZM121.51 13.7471L138.201 0.25H119.912L110.808 8.3163L101.623 0.25H83.3345L100.026 13.7471L89.4042 22.1328L75.4279 0.25H52.7464L35.6554 27.5636H54.5034L56.8994 22.053H71.3548L74.2299 27.5636H100.905L110.808 19.2577L119.034 27.5636H139L121.51 13.7471Z" fill="black"/>
<path d="M0.595001 55.8352H138.92V31.5564H0.595001V55.8352Z" fill="#0066B2"/>
<path fill-rule="evenodd" clip-rule="evenodd" d="M67.6013 48.2485C67.6013 49.2867 65.2853 49.8458 63.0491 49.8458C60.733 49.8458 58.4968 49.2867 58.4968 48.2485V39.1439C58.4968 38.1057 60.733 37.6265 63.0491 37.6265C65.2054 37.6265 67.6013 38.1057 67.6013 39.1439V48.2485ZM63.1289 34.2722C63.1289 34.2722 63.0491 34.2722 63.1289 34.2722C50.75 34.2722 45.399 36.5084 45.399 39.3835V47.4498C45.399 51.0437 50.9097 53.1202 63.0491 53.1202C75.2683 53.1202 80.6192 51.0437 80.6192 47.4498V39.3835C80.6991 36.5883 75.4281 34.2722 63.1289 34.2722ZM26.7108 34.2722C14.3318 34.2722 8.9809 36.5084 8.9809 39.3835V47.2102C8.9809 51.3632 14.6513 53.1202 26.7108 53.1202C38.7703 53.1202 44.4407 51.3632 44.4407 47.2901V45.613H31.2631V48.0089C31.2631 49.3666 29.2664 49.8458 26.4712 49.8458C23.7558 49.8458 21.9988 49.2867 21.9988 47.929V38.9842C21.9988 38.0258 24.235 37.6265 26.4712 37.6265C28.4678 37.6265 31.2631 38.1057 31.2631 38.9842V40.6614H44.3608V39.3835C44.3608 36.6681 38.93 34.2722 26.7108 34.2722ZM112.325 34.6715L108.093 41.9392C107.294 43.217 106.176 45.4532 106.096 45.4532C106.016 45.4532 104.898 43.4566 104.02 41.9392L99.7867 34.6715H81.5776V52.641H94.0365V46.3317V39.7829L101.464 52.641H110.568L118.076 39.7829C117.996 48.0888 118.076 44.6546 118.076 46.3317V52.641H130.534V34.6715H112.325Z" fill="white"/>
<path d="M181.835 30.2909H176.492V48.6667H167.227V3.69995H176.492V21.7052H180.723L191.717 3.69995H203.021L189.154 24.9789L204.473 48.6667H193.416L181.835 30.2909Z" fill="#0066B2"/>
<path d="M226.832 48.6667C226.421 47.8638 226.122 46.8652 225.937 45.671C223.775 48.08 220.964 49.2844 217.505 49.2844C214.232 49.2844 211.514 48.3373 209.352 46.4431C207.211 44.5489 206.14 42.1606 206.14 39.2781C206.14 35.7367 207.448 33.019 210.062 31.1248C212.698 29.2305 216.497 28.2732 221.459 28.2526H225.566V26.3378C225.566 24.7936 225.165 23.5582 224.362 22.6317C223.579 21.7052 222.334 21.2419 220.625 21.2419C219.122 21.2419 217.938 21.6023 217.073 22.3229C216.229 23.0435 215.807 24.0318 215.807 25.2877H206.881C206.881 23.3523 207.479 21.5611 208.673 19.9139C209.867 18.2668 211.555 16.98 213.738 16.0535C215.92 15.1064 218.37 14.6328 221.088 14.6328C225.206 14.6328 228.469 15.6726 230.878 17.7521C233.308 19.811 234.522 22.7141 234.522 26.4613V40.9458C234.543 44.1165 234.986 46.5152 235.85 48.1417V48.6667H226.832ZM219.451 42.4591C220.769 42.4591 221.984 42.1709 223.095 41.5944C224.207 40.9973 225.031 40.2046 225.566 39.2163V33.4719H222.231C217.763 33.4719 215.385 35.0161 215.097 38.1045L215.066 38.6295C215.066 39.7413 215.457 40.6576 216.239 41.3782C217.022 42.0988 218.092 42.4591 219.451 42.4591Z" fill="#0066B2"/>
<path d="M255.276 42.0885C256.923 42.0885 258.262 41.6355 259.291 40.7296C260.321 39.8237 260.856 38.6192 260.897 37.1162H269.267C269.246 39.381 268.628 41.4605 267.414 43.3547C266.199 45.2284 264.531 46.6902 262.41 47.7402C260.31 48.7697 257.984 49.2844 255.431 49.2844C250.654 49.2844 246.886 47.7711 244.127 44.7445C241.368 41.6973 239.989 37.4971 239.989 32.1439V31.5571C239.989 26.4098 241.358 22.3023 244.096 19.2345C246.835 16.1667 250.592 14.6328 255.369 14.6328C259.549 14.6328 262.894 15.827 265.406 18.2153C267.939 20.5831 269.226 23.7435 269.267 27.6967H260.897C260.856 25.9672 260.321 24.5671 259.291 23.4965C258.262 22.4052 256.903 21.8596 255.215 21.8596C253.135 21.8596 251.56 22.6214 250.489 24.145C249.439 25.648 248.914 28.0981 248.914 31.4954V32.4219C248.914 35.8603 249.439 38.331 250.489 39.834C251.539 41.337 253.135 42.0885 255.276 42.0885Z" fill="#0066B2"/>
<path d="M288.26 42.0885C289.907 42.0885 291.246 41.6355 292.275 40.7296C293.305 39.8237 293.84 38.6192 293.881 37.1162H302.251C302.23 39.381 301.612 41.4605 300.398 43.3547C299.183 45.2284 297.515 46.6902 295.394 47.7402C293.294 48.7697 290.968 49.2844 288.415 49.2844C283.638 49.2844 279.87 47.7711 277.111 44.7445C274.352 41.6973 272.973 37.4971 272.973 32.1439V31.5571C272.973 26.4098 274.342 22.3023 277.08 19.2345C279.819 16.1667 283.576 14.6328 288.353 14.6328C292.532 14.6328 295.878 15.827 298.39 18.2153C300.923 20.5831 302.209 23.7435 302.251 27.6967H293.881C293.84 25.9672 293.305 24.5671 292.275 23.4965C291.246 22.4052 289.887 21.8596 288.198 21.8596C286.119 21.8596 284.544 22.6214 283.473 24.145C282.423 25.648 281.898 28.0981 281.898 31.4954V32.4219C281.898 35.8603 282.423 38.331 283.473 39.834C284.523 41.337 286.119 42.0885 288.26 42.0885Z" fill="#0066B2"/>
<path d="M326.711 48.6667C326.299 47.8638 326 46.8652 325.815 45.671C323.653 48.08 320.843 49.2844 317.384 49.2844C314.11 49.2844 311.392 48.3373 309.23 46.4431C307.089 44.5489 306.018 42.1606 306.018 39.2781C306.018 35.7367 307.326 33.019 309.941 31.1248C312.576 29.2305 316.375 28.2732 321.337 28.2526H325.444V26.3378C325.444 24.7936 325.043 23.5582 324.24 22.6317C323.457 21.7052 322.212 21.2419 320.503 21.2419C319 21.2419 317.816 21.6023 316.951 22.3229C316.107 23.0435 315.685 24.0318 315.685 25.2877H306.76C306.76 23.3523 307.357 21.5611 308.551 19.9139C309.745 18.2668 311.433 16.98 313.616 16.0535C315.798 15.1064 318.248 14.6328 320.966 14.6328C325.084 14.6328 328.347 15.6726 330.756 17.7521C333.186 19.811 334.401 22.7141 334.401 26.4613V40.9458C334.421 44.1165 334.864 46.5152 335.729 48.1417V48.6667H326.711ZM319.329 42.4591C320.647 42.4591 321.862 42.1709 322.974 41.5944C324.085 40.9973 324.909 40.2046 325.444 39.2163V33.4719H322.109C317.641 33.4719 315.263 35.0161 314.975 38.1045L314.944 38.6295C314.944 39.7413 315.335 40.6576 316.117 41.3782C316.9 42.0988 317.97 42.4591 319.329 42.4591Z" fill="#0066B2"/>
</svg>
