<svg width="336" height="56" viewBox="0 0 336 56" fill="none" xmlns="http://www.w3.org/2000/svg">
<path fill-rule="evenodd" clip-rule="evenodd" d="M46.8364 0.25H0.594971V5.44119H15.5296V27.5636H32.94V5.44119H46.8364V0.25ZM58.8161 17.1813L63.8476 5.12173L68.879 17.1813H58.8161ZM121.51 13.7471L138.201 0.25H119.912L110.808 8.3163L101.623 0.25H83.3345L100.026 13.7471L89.4042 22.1328L75.4279 0.25H52.7464L35.6554 27.5636H54.5034L56.8994 22.053H71.3548L74.2299 27.5636H100.905L110.808 19.2577L119.034 27.5636H139L121.51 13.7471Z" fill="white"/>
<path fill-rule="evenodd" clip-rule="evenodd" d="M138.92 55.8352H0.594971V31.5564H138.92V55.8352ZM63.0491 49.8457C65.2853 49.8457 67.6014 49.2867 67.6014 48.2485V39.1439C67.6014 38.1057 65.2055 37.6265 63.0491 37.6265C60.733 37.6265 58.4968 38.1057 58.4968 39.1439V48.2485C58.4968 49.2867 60.733 49.8457 63.0491 49.8457ZM45.3991 39.3835C45.3991 36.5084 50.75 34.2722 63.129 34.2722C75.4281 34.2722 80.6991 36.5883 80.6193 39.3835V47.4498C80.6193 51.0437 75.2684 53.1202 63.0491 53.1202C50.9097 53.1202 45.3991 51.0437 45.3991 47.4498V39.3835ZM8.98094 39.3835C8.98094 36.5084 14.3318 34.2722 26.7108 34.2722C38.9301 34.2722 44.3609 36.6681 44.3609 39.3835V40.6613H31.2631V38.9842C31.2631 38.1057 28.4678 37.6265 26.4712 37.6265C24.235 37.6265 21.9988 38.0258 21.9988 38.9842V47.929C21.9988 49.2867 23.7558 49.8457 26.4712 49.8457C29.2665 49.8457 31.2631 49.3666 31.2631 48.0089V45.6129H44.4407V47.2901C44.4407 51.3632 38.7703 53.1202 26.7108 53.1202C14.6513 53.1202 8.98094 51.3632 8.98094 47.2102V39.3835ZM108.093 41.9392L112.325 34.6715H130.535V52.641H118.076V46.3317C118.076 45.8198 118.068 45.7841 118.06 45.7454C118.042 45.6572 118.02 45.5535 118.076 39.7828L110.568 52.641H101.464L94.0365 39.7828V46.3317V52.641H81.5777V34.6715H99.7867L104.02 41.9392C104.238 42.3158 104.47 42.7218 104.698 43.1196C105.389 44.3246 106.036 45.4532 106.096 45.4532C106.133 45.4532 106.393 44.9726 106.741 44.3297C107.144 43.5858 107.664 42.6246 108.093 41.9392Z" fill="white"/>
<path d="M181.208 32.474H175.865V50.8499H166.6V5.88306H175.865V23.8883H180.096L191.091 5.88306H202.394L188.527 27.162L203.846 50.8499H192.789L181.208 32.474Z" fill="white"/>
<path d="M226.206 50.8499C225.794 50.0469 225.495 49.0483 225.31 47.8541C223.148 50.2631 220.338 51.4675 216.879 51.4675C213.605 51.4675 210.887 50.5204 208.725 48.6262C206.584 46.732 205.514 44.3437 205.514 41.4612C205.514 37.9198 206.821 35.2021 209.436 33.3079C212.071 31.4137 215.87 30.4563 220.832 30.4357H224.939V28.5209C224.939 26.9767 224.538 25.7413 223.735 24.8148C222.953 23.8883 221.707 23.425 219.998 23.425C218.495 23.425 217.311 23.7854 216.446 24.506C215.602 25.2266 215.18 26.2149 215.18 27.4708H206.255C206.255 25.5354 206.852 23.7442 208.046 22.097C209.24 20.4499 210.929 19.1631 213.111 18.2366C215.293 17.2895 217.744 16.8159 220.461 16.8159C224.579 16.8159 227.843 17.8557 230.251 19.9352C232.681 21.9941 233.896 24.8972 233.896 28.6444V43.1289C233.916 46.2996 234.359 48.6983 235.224 50.3248V50.8499H226.206ZM218.824 44.6422C220.142 44.6422 221.357 44.354 222.469 43.7775C223.581 43.1804 224.404 42.3877 224.939 41.3994V35.655H221.604C217.136 35.655 214.758 37.1992 214.47 40.2876L214.439 40.8126C214.439 41.9244 214.83 42.8407 215.613 43.5613C216.395 44.2819 217.466 44.6422 218.824 44.6422Z" fill="white"/>
<path d="M254.65 44.2716C256.297 44.2716 257.635 43.8186 258.665 42.9127C259.694 42.0068 260.229 40.8023 260.271 39.2993H268.64C268.619 41.5641 268.002 43.6436 266.787 45.5378C265.572 47.4115 263.904 48.8733 261.784 49.9233C259.684 50.9528 257.357 51.4675 254.804 51.4675C250.027 51.4675 246.26 49.9542 243.501 46.9276C240.742 43.8804 239.362 39.6802 239.362 34.327V33.7402C239.362 28.5929 240.731 24.4854 243.47 21.4176C246.208 18.3498 249.966 16.8159 254.742 16.8159C258.922 16.8159 262.268 18.0101 264.78 20.3984C267.312 22.7662 268.599 25.9266 268.64 29.8798H260.271C260.229 28.1503 259.694 26.7502 258.665 25.6796C257.635 24.5883 256.276 24.0427 254.588 24.0427C252.508 24.0427 250.933 24.8045 249.863 26.3281C248.813 27.8311 248.288 30.2812 248.288 33.6785V34.605C248.288 38.0434 248.813 40.5141 249.863 42.0171C250.913 43.5201 252.508 44.2716 254.65 44.2716Z" fill="white"/>
<path d="M287.634 44.2716C289.281 44.2716 290.619 43.8186 291.648 42.9127C292.678 42.0068 293.213 40.8023 293.254 39.2993H301.624C301.603 41.5641 300.986 43.6436 299.771 45.5378C298.556 47.4115 296.888 48.8733 294.768 49.9233C292.668 50.9528 290.341 51.4675 287.788 51.4675C283.011 51.4675 279.243 49.9542 276.484 46.9276C273.726 43.8804 272.346 39.6802 272.346 34.327V33.7402C272.346 28.5929 273.715 24.4854 276.454 21.4176C279.192 18.3498 282.95 16.8159 287.726 16.8159C291.906 16.8159 295.252 18.0101 297.763 20.3984C300.296 22.7662 301.583 25.9266 301.624 29.8798H293.254C293.213 28.1503 292.678 26.7502 291.648 25.6796C290.619 24.5883 289.26 24.0427 287.572 24.0427C285.492 24.0427 283.917 24.8045 282.847 26.3281C281.797 27.8311 281.271 30.2812 281.271 33.6785V34.605C281.271 38.0434 281.797 40.5141 282.847 42.0171C283.897 43.5201 285.492 44.2716 287.634 44.2716Z" fill="white"/>
<path d="M326.084 50.8499C325.672 50.0469 325.374 49.0483 325.188 47.8541C323.026 50.2631 320.216 51.4675 316.757 51.4675C313.483 51.4675 310.766 50.5204 308.604 48.6262C306.462 46.732 305.392 44.3437 305.392 41.4612C305.392 37.9198 306.699 35.2021 309.314 33.3079C311.949 31.4137 315.748 30.4563 320.71 30.4357H324.818V28.5209C324.818 26.9767 324.416 25.7413 323.613 24.8148C322.831 23.8883 321.585 23.425 319.876 23.425C318.373 23.425 317.189 23.7854 316.325 24.506C315.48 25.2266 315.058 26.2149 315.058 27.4708H306.133C306.133 25.5354 306.73 23.7442 307.924 22.097C309.118 20.4499 310.807 19.1631 312.989 18.2366C315.172 17.2895 317.622 16.8159 320.339 16.8159C324.457 16.8159 327.721 17.8557 330.13 19.9352C332.559 21.9941 333.774 24.8972 333.774 28.6444V43.1289C333.795 46.2996 334.237 48.6983 335.102 50.3248V50.8499H326.084ZM318.703 44.6422C320.02 44.6422 321.235 44.354 322.347 43.7775C323.459 43.1804 324.282 42.3877 324.818 41.3994V35.655H321.482C317.014 35.655 314.636 37.1992 314.348 40.2876L314.317 40.8126C314.317 41.9244 314.708 42.8407 315.491 43.5613C316.273 44.2819 317.344 44.6422 318.703 44.6422Z" fill="white"/>
</svg>
