<svg width="216" height="104" viewBox="0 0 216 104" fill="none" xmlns="http://www.w3.org/2000/svg"><rect width="216" height="104" fill="#000" fill-opacity="0"/><rect width="216" height="104" fill="#000" fill-opacity="0"/><path d="M42.4867 39.2883C41.5369 39.6119 31.1817 40.7443 33.9153 31.1994L31.8072 30.4368C27.9616 39.1496 34.1933 44.3265 42.8342 44.1416L42.4867 39.2883Z" fill="url(#paint0_linear)"/><rect width="38.201" height="18.951" fill="#000" fill-opacity="0" transform="translate(20.0615 15.6218)"/><path d="M21.8916 34.5729H56.4321C57.4514 34.5729 58.2622 33.764 58.2622 32.7471V17.4476C58.2622 16.4307 57.4514 15.6218 56.4321 15.6218H21.8916C20.8723 15.6218 20.0615 16.4307 20.0615 17.4476V32.724C20.0615 33.7409 20.8723 34.5729 21.8916 34.5729Z" fill="#009EE3"/><path d="M36.5412 20.4646L39.8076 20.4646L39.8076 19.309L36.5412 19.309L36.5412 20.4646Z" fill="#B2E2F7"/><path d="M43.1062 20.4646L54.9209 20.4646L54.9209 19.309L43.1062 19.309L43.1062 20.4646Z" fill="#B2E2F7"/><path d="M36.5395 25.5527L54.9102 25.5527L54.9102 24.3972L36.5395 24.3972L36.5395 25.5527Z" fill="#B2E2F7"/><rect width="9.776" height="11.324" fill="#000" fill-opacity="0" transform="translate(23.3975 19.3435)"/><path d="M29.1195 28.5186H26.5017V30.6679H25.0191V28.5186H23.3975V27.2937H25.0191V26.2306H23.3975V25.0057H25.0191V19.3435H29.2121C30.4399 19.3435 31.3897 19.6439 32.1079 20.2679C32.826 20.8919 33.1735 21.7239 33.1735 22.7639C33.1735 23.8733 32.826 24.7284 32.1542 25.3293C31.4592 25.9302 30.5094 26.2306 29.2353 26.2306H26.5017V27.2937H29.1195V28.5186ZM26.5249 25.0288H29.2353C30.0461 25.0288 30.6484 24.8439 31.0654 24.4511C31.4824 24.0813 31.6909 23.5266 31.6909 22.7871C31.6909 22.1168 31.4824 21.5853 31.0422 21.1924C30.6021 20.7764 30.0229 20.5684 29.2816 20.5684H26.5249V25.0288Z" fill="#B2E2F7"/><path d="M54.9266 29.4888H51.6602V30.6443H54.9266V29.4888Z" fill="#B2E2F7"/><path d="M48.3703 29.4888H36.5557V30.6443H48.3703V29.4888Z" fill="#B2E2F7"/><path d="M29.5137 75.8503C28.8882 76.6361 20.9191 83.3383 17.8844 73.8628L15.6836 74.3943C17.3284 83.7774 25.3901 84.6325 32.4558 79.6868L29.5137 75.8503Z" fill="url(#paint1_linear)"/><rect width="38.201" height="18.928" fill="#000" fill-opacity="0" transform="translate(0 57.084)"/><path d="M36.3938 76.0119H1.83011C0.810809 76.0119 0 75.2031 0 74.1862V58.9098C0 57.8929 0.810809 57.084 1.83011 57.084H36.3706C37.3899 57.084 38.2007 57.8929 38.2007 58.9098V74.1862C38.2239 75.2031 37.4131 76.0119 36.3938 76.0119Z" fill="#009EE3"/><path d="M34.8644 65.959H18.4629V67.1145H34.8644V65.959Z" fill="#B2E2F7"/><path d="M15.174 65.8433H3.35938V66.9988H15.174V65.8433Z" fill="#B2E2F7"/><path d="M7.66825 70.9275H3.35938V72.083H7.66825V70.9275Z" fill="#B2E2F7"/><path d="M34.8651 70.9275H11.6064V72.083H34.8651V70.9275Z" fill="#B2E2F7"/><path d="M34.8651 60.7593H3.35938V61.9148H34.8651V60.7593Z" fill="#B2E2F7"/><path d="M173.536 39.2883C174.486 39.6119 184.841 40.7443 182.107 31.1994L184.215 30.4368C188.061 39.1496 181.829 44.3265 173.188 44.1416L173.536 39.2883Z" fill="url(#paint2_linear)"/><rect width="38.224" height="18.951" fill="#000" fill-opacity="0" transform="translate(157.737 15.6218)"/><path d="M194.131 34.5729H159.567C158.548 34.5729 157.737 33.764 157.737 32.7471V17.4476C157.737 16.4307 158.548 15.6218 159.567 15.6218H194.131C195.15 15.6218 195.961 16.4307 195.961 17.4476V32.724C195.961 33.7409 195.127 34.5729 194.131 34.5729Z" fill="#009EE3"/><path d="M192.602 19.3206H176.2V20.4761H192.602V19.3206Z" fill="#B2E2F7"/><path d="M172.91 19.3206H161.096V20.4761H172.91V19.3206Z" fill="#B2E2F7"/><path d="M192.601 24.4055H161.096V25.5611H192.601V24.4055Z" fill="#B2E2F7"/><path d="M178.517 29.4888H161.096V30.6443H178.517V29.4888Z" fill="#B2E2F7"/><path d="M192.602 29.4888H181.807V30.6443H192.602V29.4888Z" fill="#B2E2F7"/><rect width="151.019" height="47.059" fill="#000" fill-opacity="0" transform="translate(32.502 44.9961)"/><path d="M71.7451 84.7248C63.0116 87.5444 44.7568 86.227 36.9498 77.7222L32.502 81.7897C41.4672 91.5426 60.1621 93.715 71.7451 90.9417V84.7248Z" fill="#003A69"/><path d="M71.7452 65.0334C61.4595 63.3925 49.2047 55.1419 47.6294 44.9961L41.6758 45.9205C43.7376 59.117 58.6333 69.4476 71.7452 71.1116V65.0334Z" fill="#003A69"/><path d="M179.073 77.7212C170.71 86.8038 152.178 87.1505 144.51 84.7932V91.01C155.351 93.506 174.185 91.9345 183.521 81.7887L179.073 77.7212Z" fill="#003A69"/><path d="M168.394 44.9961C166.819 55.1187 154.703 63.3001 144.51 65.0103V71.0885C157.575 69.332 172.309 59.0245 174.348 45.9205L168.394 44.9961Z" fill="#003A69"/><path d="M186.509 75.8503C187.135 76.6361 195.104 83.3383 198.139 73.8628L200.34 74.3943C198.695 83.7774 190.633 84.6325 183.567 79.6868L186.509 75.8503Z" fill="url(#paint3_linear)"/><rect width="38.201" height="18.928" fill="#000" fill-opacity="0" transform="translate(177.799 57.084)"/><path d="M214.169 76.0119H179.629C178.61 76.0119 177.799 75.2031 177.799 74.1862V58.9098C177.799 57.8929 178.61 57.084 179.629 57.084H214.169C215.189 57.084 216 57.8929 216 58.9098V74.1862C216.023 75.2031 215.189 76.0119 214.169 76.0119Z" fill="#009EE3"/><path d="M197.466 60.5273H180.416V61.6829H197.466V60.5273Z" fill="#B2E2F7"/><path d="M197.466 65.959H180.416V67.1145H197.466V65.959Z" fill="#B2E2F7"/><path d="M207.309 67.6592L204.983 65.3386L204.164 66.1557L206.49 68.4763L207.309 67.6592Z" fill="#B2E2F7"/><path d="M206.496 68.4648L211.132 63.8401L210.313 63.023L205.677 67.6477L206.496 68.4648Z" fill="#B2E2F7"/><path d="M197.837 71.3904H180.416V72.5459H197.837V71.3904Z" fill="#B2E2F7"/><path d="M212.154 61.6829V71.3895H202.424V61.6829H212.154ZM213.312 60.5273H201.266V72.5451H213.312V60.5273Z" fill="#B2E2F7"/><rect width="73.645" height="104" fill="#000" fill-opacity="0" transform="translate(71.1885)"/><path d="M144.833 104C144.833 104 144.833 31.8933 144.833 8.92087C144.833 3.83644 139.505 0 127.111 0C120.509 0 95.4896 0 88.9104 0C76.5166 0 71.1885 3.81332 71.1885 8.92087C71.1885 31.9164 71.1885 104 71.1885 104H144.833Z" fill="url(#paint4_linear)"/><rect width="71.814" height="12.665" fill="#000" fill-opacity="0" transform="translate(72.0918 33.9736)"/><path d="M107.999 33.9736C131.628 33.9736 143.883 37.579 143.906 46.6385H107.999H72.0918C72.1381 37.579 84.3698 33.9736 107.999 33.9736Z" fill="url(#paint5_linear)"/><path d="M107.999 34.4359C120.138 34.4359 128.848 35.3834 134.663 37.3478C140.339 39.2661 143.235 42.1549 143.443 46.1763C139.505 46.1763 76.5165 46.1763 72.5783 46.1763C72.7868 42.1549 75.6594 39.2661 81.3582 37.3478C87.1497 35.3834 95.8601 34.4359 107.999 34.4359ZM107.999 33.9736C84.3698 33.9736 72.115 37.579 72.0918 46.6385C76.0763 46.6385 139.922 46.6385 143.906 46.6385C143.883 37.579 131.628 33.9736 107.999 33.9736Z" fill="#B84421"/><rect width="61.158" height="2.011" fill="#000" fill-opacity="0" transform="translate(77.4199 44.6277)"/><path d="M137.397 44.6277H78.6246L77.4199 46.6383H138.578L137.397 44.6277Z" fill="#B84421"/><path d="M123.173 6.47125C128.825 6.47125 132.393 6.9797 134.408 8.08903C136.099 9.01347 136.794 10.377 136.794 12.7806V29.6748C130.957 27.225 121.528 26.0232 108.022 26.0232C94.5165 26.0232 85.088 27.225 79.2502 29.6748V12.7806C79.2502 10.377 79.9451 9.01347 81.6363 8.08903C83.6517 6.9797 87.2193 6.47125 92.8718 6.47125H123.173ZM123.173 6.00903C117.937 6.00903 98.0841 6.00903 92.8486 6.00903C81.0571 6.00903 78.7637 8.25081 78.7637 12.7806C78.7637 16.6401 78.7637 23.9432 78.7637 30.3681H78.7868C84.6942 27.6641 94.4934 26.4854 107.999 26.4854C121.505 26.4854 131.304 27.6641 137.211 30.3681H137.235C137.235 23.9432 137.235 16.617 137.235 12.7806C137.258 8.25081 134.964 6.00903 123.173 6.00903Z" fill="#B84421"/><path d="M143.212 104H72.7871V58.7018C72.7871 57.9392 73.4126 57.3152 74.1771 57.3152H141.822C142.586 57.3152 143.212 57.9392 143.212 58.7018V104Z" fill="#003A69"/><path d="M141.011 61.0132H74.9883V104H141.011V61.0132Z" fill="#fff"/><path d="M141.011 60.9434H74.9883V72.2678H141.011V60.9434Z" fill="#009EE3"/><path d="M96.4165 78.1614H76.957V89.4858H96.4165V78.1614Z" fill="#009EE3"/><path d="M96.4165 66.0276H76.957V67.1831H96.4165V66.0276Z" fill="#B2E2F7"/><path d="M139.041 66.0276H132.323V67.1831H139.041V66.0276Z" fill="#B2E2F7"/><path d="M129.705 66.0276H122.987V67.1831H129.705V66.0276Z" fill="#B2E2F7"/><path d="M93.6359 81.3516H79.7363V82.5071H93.6359V81.3516Z" fill="#B2E2F7"/><path d="M88.0761 84.8186H79.7363V85.9742H88.0761V84.8186Z" fill="#B2E2F7"/><path d="M117.729 78.1614H98.2695V89.4858H117.729V78.1614Z" fill="#009EE3"/><path d="M105.683 81.3516H101.05V82.5071H105.683V81.3516Z" fill="#B2E2F7"/><path d="M112.632 81.3516H107.999V82.5071H112.632V81.3516Z" fill="#B2E2F7"/><path d="M109.39 84.8186H101.05V85.9742H109.39V84.8186Z" fill="#B2E2F7"/><path d="M139.041 78.1614H119.582V89.4858H139.041V78.1614Z" fill="#009EE3"/><path d="M130.702 81.3516H122.362V82.5071H130.702V81.3516Z" fill="#B2E2F7"/><path d="M130.702 84.8186H122.362V85.9742H130.702V84.8186Z" fill="#B2E2F7"/><path d="M96.4165 92.6758H76.957V104H96.4165V92.6758Z" fill="#009EE3"/><path d="M84.3695 95.865H79.7363V97.0205H84.3695V95.865Z" fill="#B2E2F7"/><path d="M88.0761 99.3311H79.7363V100.487H88.0761V99.3311Z" fill="#B2E2F7"/><path d="M117.729 92.6758H98.2695V104H117.729V92.6758Z" fill="#009EE3"/><path d="M114.949 95.865H101.05V97.0205H114.949V95.865Z" fill="#B2E2F7"/><path d="M107.073 99.3311H101.05V100.487H107.073V99.3311Z" fill="#B2E2F7"/><path d="M114.949 99.3311H108.926V100.487H114.949V99.3311Z" fill="#B2E2F7"/><path d="M139.041 92.6758H119.582V104H139.041V92.6758Z" fill="#009EE3"/><path d="M125.907 95.865H122.362V97.0205H125.907V95.865Z" fill="#B2E2F7"/><path d="M136.609 95.865H128.385V97.0205H136.609V95.865Z" fill="#B2E2F7"/><path d="M130.702 99.3311H122.362V100.487H130.702V99.3311Z" fill="#B2E2F7"/><path d="M136.725 81.3516H132.555V82.5071H136.725V81.3516Z" fill="#B2E2F7"/><rect width="16.62" height="25.306" fill="#000" fill-opacity="0" transform="translate(165.042 26.0913)"/><path d="M171.846 43.6095C165.637 38.1553 164.015 30.0202 173.027 26.0913L174.069 28.0789C168.371 31.5455 169.413 35.6824 174.718 39.7037C174.788 39.7499 174.857 39.7962 174.88 39.8193L171.846 43.6095Z" fill="#fff"/><path d="M177.382 43.2858L169.344 40.1658L166.17 48.2778L174.209 51.3977L177.382 43.2858Z" fill="url(#paint6_linear)"/><path d="M179.33 44.0583C180.618 40.7645 178.985 37.0529 175.684 35.768C172.382 34.4832 168.662 36.1117 167.374 39.4055C166.086 42.6993 167.718 46.411 171.02 47.6958C174.322 48.9806 178.042 47.3521 179.33 44.0583Z" fill="#fff"/><path d="M173.351 44.7654C175.04 44.7654 176.409 43.3996 176.409 41.7147C176.409 40.0299 175.04 38.6641 173.351 38.6641C171.662 38.6641 170.293 40.0299 170.293 41.7147C170.293 43.3996 171.662 44.7654 173.351 44.7654Z" fill="url(#paint7_radial)"/><rect width="18.586" height="22.33" fill="#000" fill-opacity="0" transform="translate(175.39 64.3479)"/><path d="M182.71 78.508C180.579 70.5346 183.752 62.8618 193.436 64.5951L193.181 66.8369C186.532 66.5595 185.096 70.5809 187.274 76.8671C187.297 76.9364 187.343 77.0289 187.343 77.052L182.71 78.508Z" fill="#fff"/><path d="M187.505 81.2803L182.548 74.2314L175.39 79.2234L180.347 86.2954L187.505 81.2803Z" fill="url(#paint8_linear)"/><path d="M188.719 83.0056C191.622 80.9775 192.328 76.9855 190.295 74.0892C188.262 71.1928 184.261 70.4889 181.357 72.5169C178.454 74.5449 177.749 78.5369 179.781 81.4333C181.814 84.3297 185.816 85.0336 188.719 83.0056Z" fill="#fff"/><path d="M185.027 80.8186C186.715 80.8186 188.085 79.4528 188.085 77.7679C188.085 76.0831 186.715 74.7173 185.027 74.7173C183.338 74.7173 181.969 76.0831 181.969 77.7679C181.969 79.4528 183.338 80.8186 185.027 80.8186Z" fill="url(#paint9_radial)"/><rect width="16.62" height="25.306" fill="#000" fill-opacity="0" transform="translate(34.3359 26.0913)"/><path d="M44.1773 43.6095C50.3858 38.1553 52.0074 30.0202 42.9959 26.0913L41.9534 28.0789C47.6522 31.5455 46.6097 35.6824 41.3047 39.7037C41.2352 39.7499 41.1657 39.7962 41.1426 39.8193L44.1773 43.6095Z" fill="#fff"/><path d="M38.6406 43.2858L46.6792 40.1658L49.853 48.2778L41.8144 51.3977L38.6406 43.2858Z" fill="url(#paint10_linear)"/><path d="M44.9779 47.678C48.2794 46.3932 49.9119 42.6815 48.624 39.3877C47.3361 36.094 43.6156 34.4654 40.314 35.7503C37.0124 37.0351 35.38 40.7468 36.6679 44.0405C37.9558 47.3343 41.6763 48.9629 44.9779 47.678Z" fill="#fff"/><path d="M42.6487 44.7654C44.3376 44.7654 45.7066 43.3996 45.7066 41.7147C45.7066 40.0299 44.3376 38.6641 42.6487 38.6641C40.9599 38.6641 39.5908 40.0299 39.5908 41.7147C39.5908 43.3996 40.9599 44.7654 42.6487 44.7654Z" fill="url(#paint11_radial)"/><rect width="18.547" height="22.334" fill="#000" fill-opacity="0" transform="translate(22.0635 64.3479)"/><path d="M33.3128 78.508C35.444 70.5346 32.2703 62.8618 22.5869 64.5951L22.8417 66.8369C29.4904 66.5595 30.9267 70.5809 28.7491 76.8671C28.7259 76.9364 28.6796 77.0289 28.6796 77.052L33.3128 78.508Z" fill="#fff"/><path d="M28.5176 81.2803L33.4751 74.2314L40.6102 79.2234L35.6759 86.2954L28.5176 81.2803Z" fill="url(#paint12_linear)"/><path d="M36.2578 81.4372C38.2907 78.5408 37.5851 74.5488 34.6818 72.5208C31.7786 70.4928 27.7771 71.1967 25.7443 74.0931C23.7114 76.9894 24.417 80.9814 27.3203 83.0095C30.2235 85.0375 34.225 84.3335 36.2578 81.4372Z" fill="#fff"/><path d="M30.9964 80.8186C32.6852 80.8186 34.0543 79.4528 34.0543 77.7679C34.0543 76.0831 32.6852 74.7173 30.9964 74.7173C29.3075 74.7173 27.9385 76.0831 27.9385 77.7679C27.9385 79.4528 29.3075 80.8186 30.9964 80.8186Z" fill="url(#paint13_radial)"/><defs><linearGradient id="paint0_linear" x1="30.641" y1="37.295" x2="42.821" y2="37.295" gradientUnits="userSpaceOnUse"><stop stop-color="#fff"/><stop offset="1" stop-color="#B2E2F7"/></linearGradient><linearGradient id="paint1_linear" x1="15.696" y1="78.258" x2="32.477" y2="78.258" gradientUnits="userSpaceOnUse"><stop stop-color="#fff"/><stop offset="1" stop-color="#B2E2F7"/></linearGradient><linearGradient id="paint2_linear" x1="173.191" y1="37.295" x2="185.372" y2="37.295" gradientUnits="userSpaceOnUse"><stop stop-color="#B2E2F7"/><stop offset="1" stop-color="#fff"/></linearGradient><linearGradient id="paint3_linear" x1="183.535" y1="78.258" x2="200.316" y2="78.258" gradientUnits="userSpaceOnUse"><stop stop-color="#B2E2F7"/><stop offset="1" stop-color="#fff"/></linearGradient><linearGradient id="paint4_linear" x1="108.006" y1=".926" x2="108.006" y2="103.238" gradientUnits="userSpaceOnUse"><stop stop-color="#F7913D"/><stop offset="1" stop-color="#EE7C2D"/></linearGradient><linearGradient id="paint5_linear" x1="108.005" y1="31.431" x2="108.005" y2="43.567" gradientUnits="userSpaceOnUse"><stop stop-color="#B84421"/><stop offset="1" stop-color="#EE7C2D"/></linearGradient><linearGradient id="paint6_linear" x1="170.017" y1="49.832" x2="173.507" y2="41.737" gradientUnits="userSpaceOnUse"><stop stop-color="#fff"/><stop offset="1" stop-color="#B2E2F7"/></linearGradient><radialGradient id="paint7_radial" cx="0" cy="0" r="1" gradientUnits="userSpaceOnUse" gradientTransform="translate(173.36 41.7198) scale(3.05613 3.04888)"><stop stop-color="#fff"/><stop offset="1" stop-color="#B2E2F7"/></radialGradient><linearGradient id="paint8_linear" x1="177.751" y1="82.703" x2="182.581" y2="79.497" gradientUnits="userSpaceOnUse"><stop stop-color="#fff"/><stop offset="1" stop-color="#B2E2F7"/></linearGradient><radialGradient id="paint9_radial" cx="0" cy="0" r="1" gradientUnits="userSpaceOnUse" gradientTransform="translate(185.021 77.7649) scale(3.05557 3.04833)"><stop stop-color="#fff"/><stop offset="1" stop-color="#B2E2F7"/></radialGradient><linearGradient id="paint10_linear" x1="45.995" y1="49.832" x2="42.506" y2="41.737" gradientUnits="userSpaceOnUse"><stop stop-color="#fff"/><stop offset="1" stop-color="#B2E2F7"/></linearGradient><radialGradient id="paint11_radial" cx="0" cy="0" r="1" gradientUnits="userSpaceOnUse" gradientTransform="translate(42.6527 41.7198) scale(3.05613 3.04888)"><stop stop-color="#fff"/><stop offset="1" stop-color="#B2E2F7"/></radialGradient><linearGradient id="paint12_linear" x1="38.262" y1="82.703" x2="33.432" y2="79.497" gradientUnits="userSpaceOnUse"><stop stop-color="#fff"/><stop offset="1" stop-color="#B2E2F7"/></linearGradient><radialGradient id="paint13_radial" cx="0" cy="0" r="1" gradientUnits="userSpaceOnUse" gradientTransform="translate(30.9916 77.7649) scale(3.05557 3.04833)"><stop stop-color="#fff"/><stop offset="1" stop-color="#B2E2F7"/></radialGradient></defs></svg>