<svg width="595" height="71" viewBox="0 0 595 71" fill="none" xmlns="http://www.w3.org/2000/svg">
<path fill-rule="evenodd" clip-rule="evenodd" d="M112.578 23.5398C111.053 20.7506 111.955 17.1869 114.592 15.578L139.466 0.387259C140.317 -0.129086 141.371 -0.129086 142.222 0.387259L167.091 15.578C169.724 17.1869 170.631 20.7506 169.11 23.5398C167.588 26.3244 164.214 27.2833 161.581 25.6698L140.84 13.0055L120.103 25.6698C117.47 27.2833 114.1 26.3244 112.578 23.5398Z" fill="white"/>
<path fill-rule="evenodd" clip-rule="evenodd" d="M245.452 31.8074H236.578C236.015 31.8074 235.557 32.2939 235.557 32.8963V48.5199C227.054 49.8775 225.557 46.6944 225.557 43.9237V32.8963C225.557 32.2939 225.098 31.8074 224.535 31.8074H215.661C215.186 31.8074 214.784 32.1596 214.666 32.6275C214.657 34.0778 214.631 37.2053 214.64 40.1892C214.657 44.2156 214.732 48.7192 214.976 50.2899C215.766 55.3773 220.127 57.3604 224.562 57.9257C228.595 58.4446 232.955 57.8423 235.557 57.1473V68.7909C235.557 69.3932 236.015 69.8797 236.578 69.8797H245.452C246.016 69.8797 246.474 69.3932 246.474 68.7909V32.8963C246.474 32.2939 246.016 31.8074 245.452 31.8074ZM310.783 61.2339H306.584V54.3533H310.783C311.569 54.3533 312.665 54.4275 313.542 54.8815C314.358 55.3078 315.026 56.077 315.026 57.643C315.026 60.664 312.368 61.2339 310.783 61.2339ZM311.726 45.7075H306.584V32.8963C306.584 32.2939 306.126 31.8074 305.558 31.8074H296.689C296.126 31.8074 295.667 32.2939 295.667 32.8963V68.7909C295.667 69.3932 296.126 69.8797 296.689 69.8797H311.726C321.015 69.8797 325.947 65.6124 325.947 57.643C325.947 49.6922 320.989 45.7075 311.726 45.7075ZM340.614 31.8074H331.744C331.177 31.8074 330.723 32.2939 330.723 32.8963V68.7909C330.723 69.3932 331.177 69.8797 331.744 69.8797H340.614C341.181 69.8797 341.64 69.3932 341.64 68.7909V32.8963C341.64 32.2939 341.181 31.8074 340.614 31.8074ZM191.366 61.1227C187.677 61.1227 183.954 57.8515 183.954 50.8366C183.954 45.0913 186.66 40.5598 191.366 40.5598C196.071 40.5598 198.778 45.0913 198.778 50.8366C198.778 57.8515 195.054 61.1227 191.366 61.1227ZM191.366 31.1495C180.89 31.1495 173.081 38.7945 173.081 50.8366C173.081 58.7643 177.559 70.5423 191.366 70.5423C205.177 70.5423 209.655 58.7643 209.655 50.8366C209.655 38.7945 201.846 31.1495 191.366 31.1495ZM381.064 31.8074H371.793C371.404 31.8074 371.081 32.0113 370.889 32.3773L360.95 52.0552V32.8963C360.95 32.2939 360.492 31.8074 359.929 31.8074H351.055C350.492 31.8074 350.033 32.2939 350.033 32.8963V68.7909C350.033 69.3932 350.492 69.8797 351.055 69.8797H360.344C360.719 69.8797 361.081 69.6342 361.243 69.3098L371.169 49.6134V68.7909C371.169 69.3932 371.631 69.8797 372.194 69.8797H381.064C381.632 69.8797 382.086 69.3932 382.086 68.7909V32.8963C382.086 32.2939 381.632 31.8074 381.064 31.8074ZM286.248 31.8074H277.378C276.815 31.8074 276.352 32.2939 276.352 32.8963V46.143H265.785V32.8963C265.785 32.2939 265.326 31.8074 264.759 31.8074H255.889C255.326 31.8074 254.868 32.2939 254.868 32.8963V68.7909C254.868 69.3932 255.326 69.8797 255.889 69.8797H264.759C265.326 69.8797 265.785 69.3932 265.785 68.7909V54.8306H276.352V68.7909C276.352 69.3932 276.815 69.8797 277.378 69.8797H286.248C286.815 69.8797 287.269 69.3932 287.269 68.7909V32.8963C287.269 32.2939 286.815 31.8074 286.248 31.8074ZM53.4406 61.1227C49.7522 61.1227 46.0289 57.8515 46.0289 50.8366C46.0289 45.0913 48.7308 40.5598 53.4406 40.5598C58.1548 40.5598 60.8568 45.0913 60.8568 50.8366C60.8568 57.8515 57.1334 61.1227 53.4406 61.1227ZM53.4406 31.1495C42.9603 31.1495 35.1513 38.7945 35.1513 50.8366C35.1513 58.7643 39.6254 70.5423 53.4406 70.5423C67.2559 70.5423 71.7343 58.7643 71.7343 50.8366C71.7343 38.7945 63.9254 31.1495 53.4406 31.1495ZM94.3232 40.7822C97.0426 40.7822 99.6441 42.2232 101.416 44.4658C101.814 44.892 102.464 44.892 102.861 44.4658L107.82 37.8864C108.221 37.4555 108.221 36.7744 107.794 36.2972C104.249 32.9843 99.4564 31.1495 94.3232 31.1495C83.8428 31.1495 76.0339 38.7945 76.0339 50.8366C76.0339 58.7643 80.5124 70.5423 94.3232 70.5423C100.198 70.5423 104.629 68.397 107.763 65.2927C108.165 64.8618 108.165 64.1807 107.732 63.6525L102.931 57.2863C102.529 56.86 101.883 56.86 101.482 57.2863C99.5263 59.6956 96.6061 60.9049 94.3232 60.9049C90.626 60.9049 86.9114 57.694 86.9114 50.8366C86.9114 45.2303 89.6134 40.7822 94.3232 40.7822ZM503.911 40.4946C506.63 40.4946 509.232 41.9356 511.004 44.1781C511.401 44.6044 512.052 44.6044 512.449 44.1781L517.407 37.5988C517.809 37.1679 517.809 36.4868 517.381 36.0095C513.837 32.6967 509.044 30.8619 503.911 30.8619C493.43 30.8619 485.621 38.5069 485.621 50.549C485.621 58.4767 490.1 70.2547 503.911 70.2547C509.786 70.2547 514.217 68.1094 517.351 65.0051C517.752 64.5742 517.752 63.8931 517.32 63.3649L512.519 56.9986C512.117 56.5724 511.471 56.5724 511.069 56.9986C509.114 59.408 506.194 60.6173 503.911 60.6173C500.214 60.6173 496.499 57.4064 496.499 50.549C496.499 44.9426 499.201 40.4946 503.911 40.4946ZM539.794 40.4946C542.514 40.4946 545.115 41.9356 546.887 44.1781C547.285 44.6044 547.935 44.6044 548.332 44.1781L553.291 37.5988C553.692 37.1679 553.692 36.4868 553.265 36.0095C549.72 32.6967 544.927 30.8619 539.794 30.8619C529.314 30.8619 521.505 38.5069 521.505 50.549C521.505 58.4767 525.983 70.2547 539.794 70.2547C545.669 70.2547 550.1 68.1094 553.234 65.0051C553.636 64.5742 553.636 63.8931 553.203 63.3649L548.402 56.9986C548 56.5724 547.354 56.5724 546.953 56.9986C544.997 59.408 542.077 60.6173 539.794 60.6173C536.097 60.6173 532.382 57.4064 532.382 50.549C532.382 44.9426 535.084 40.4946 539.794 40.4946ZM366.057 28.9116C371.487 28.9116 374.997 26.4837 377.109 23.3238C377.428 22.828 377.319 22.1515 376.856 21.8087L371.57 18.9869C371.151 18.7831 370.654 18.9082 370.252 19.4549C369.178 21.0673 367.616 21.8504 366.057 21.8504C364.508 21.8504 362.941 21.0673 361.867 19.4549C361.47 18.9082 360.972 18.7831 360.549 18.9869L355.267 21.8087C354.8 22.1515 354.691 22.828 355.014 23.3238C357.118 26.4837 360.632 28.9116 366.057 28.9116ZM15.0505 61.2339H10.9125V54.9603H15.0505C18.1409 54.9603 19.7385 56.253 19.7385 57.9813C19.7385 60.0199 18.3243 61.2339 15.0505 61.2339ZM10.9125 40.4533H14.6446C15.4215 40.4533 16.4298 40.532 17.2374 40.9629C17.9794 41.3614 18.5818 42.0657 18.5818 43.4928C18.5818 45.2627 17.5342 46.3145 14.6446 46.3145H10.9125V40.4533ZM27.1284 50.9617C26.1856 50.2389 25.2253 49.771 24.3698 49.4188C26.2947 48.3114 28.8788 45.9994 28.8788 41.8016C28.8788 40.3189 28.8395 31.8074 17.7175 31.8074H1.01704C0.45396 31.8074 0 32.2939 0 32.8963V68.7909C0 69.3932 0.45396 69.8797 1.01704 69.8797H18.6822C30.0966 69.8797 30.8518 60.8493 30.8518 58.9821C30.8518 54.8677 29.0403 52.4166 27.1284 50.9617ZM117.279 31.8074C115.76 31.8074 114.52 33.1187 114.52 34.7357V63.2911C114.52 66.9329 117.305 69.8797 120.727 69.8797C124.158 69.8797 126.938 66.9329 126.938 63.2911V43.5206H134.385V63.2911C134.385 66.9329 137.17 69.8797 140.592 69.8797C144.027 69.8797 146.804 66.9329 146.804 63.2911V43.5206H154.255V63.2911C154.255 66.9329 157.035 69.8797 160.457 69.8797C163.893 69.8797 166.669 66.9329 166.669 63.2911V34.7357C166.669 33.1187 165.438 31.8074 163.91 31.8074H117.279ZM409.918 69.9124V31.9983H420.001V47.9204L430.85 31.9983H442.679L429.004 50.3536L443.043 69.9124H430.436L420.001 53.6068V69.9124H409.918ZM446.321 69.9124L459.129 31.9983H471.372L484.13 69.9124H473.331L471.372 63.3532H459.129L457.12 69.9124H446.321ZM465.257 40.7131L461.138 55.0218H469.363L465.257 40.7131ZM556.765 69.9124L569.573 31.9983H581.816L594.574 69.9124H583.775L581.816 63.3532H569.573L567.564 69.9124H556.765ZM575.701 40.7131L571.582 55.0218H579.807L575.701 40.7131Z" fill="white"/>
</svg>
