<svg width="96" height="96" viewBox="0 0 96 96" fill="none" xmlns="http://www.w3.org/2000/svg">
<path fill-rule="evenodd" clip-rule="evenodd" d="M10.9688 34.0405C8.97504 30.6096 10.1568 26.2241 13.6118 24.2436L46.1988 5.54925C47.3112 4.91356 48.6951 4.91471 49.8075 5.55384L82.3888 24.2436C85.8427 26.2241 87.0256 30.6096 85.0306 34.0405C83.0391 37.4703 78.6229 38.6453 75.169 36.6659L47.9997 21.0835L20.8316 36.6659C17.3765 38.6453 12.9615 37.4703 10.9688 34.0405Z" fill="#EE3224"/>
<path fill-rule="evenodd" clip-rule="evenodd" d="M56.1229 83.0647C56.1229 87.5202 52.4853 91.1324 47.9998 91.1324C43.5143 91.1324 39.8779 87.5202 39.8779 83.0647V58.8603H30.1307V83.0647C30.1307 87.5202 26.4942 91.1324 22.0088 91.1324C17.5233 91.1324 13.8868 87.5202 13.8868 83.0647V48.1029C13.8868 46.1235 15.5018 44.5171 17.4967 44.5171H78.504C80.4978 44.5171 82.1139 46.1235 82.1139 48.1029V83.0647C82.1139 87.5202 78.4763 91.1324 73.992 91.1324C69.5065 91.1324 65.8689 87.5202 65.8689 83.0647V58.8603H56.1229V83.0647Z" fill="#00549E"/>
</svg>
