<svg width="600" height="96" viewBox="0 0 600 96" fill="none" xmlns="http://www.w3.org/2000/svg">
<path fill-rule="evenodd" clip-rule="evenodd" d="M115.578 36.5398C114.053 33.7506 114.955 30.1869 117.592 28.578L142.467 13.3873C143.317 12.8709 144.372 12.8709 145.222 13.3873L170.091 28.578C172.724 30.1869 173.631 33.7506 172.11 36.5398C170.588 39.3244 167.214 40.2833 164.581 38.6698L143.84 26.0055L123.103 38.6698C120.47 40.2833 117.1 39.3244 115.578 36.5398Z" fill="#EE3224"/>
<path fill-rule="evenodd" clip-rule="evenodd" d="M248.452 44.8074H239.578C239.015 44.8074 238.557 45.2939 238.557 45.8963V61.5199C230.054 62.8775 228.557 59.6944 228.557 56.9237V45.8963C228.557 45.2939 228.098 44.8074 227.535 44.8074H218.661C218.186 44.8074 217.784 45.1596 217.666 45.6275C217.657 47.0778 217.631 50.2053 217.64 53.1892C217.657 57.2156 217.732 61.7192 217.976 63.2899C218.766 68.3773 223.127 70.3604 227.562 70.9257C231.595 71.4446 235.956 70.8423 238.557 70.1473V81.7909C238.557 82.3932 239.015 82.8797 239.578 82.8797H248.452C249.016 82.8797 249.474 82.3932 249.474 81.7909V45.8963C249.474 45.2939 249.016 44.8074 248.452 44.8074ZM313.783 74.2339H309.584V67.3533H313.783C314.569 67.3533 315.665 67.4275 316.542 67.8815C317.358 68.3078 318.026 69.077 318.026 70.643C318.026 73.664 315.368 74.2339 313.783 74.2339ZM314.726 58.7075H309.584V45.8963C309.584 45.2939 309.126 44.8074 308.558 44.8074H299.689C299.126 44.8074 298.667 45.2939 298.667 45.8963V81.7909C298.667 82.3932 299.126 82.8797 299.689 82.8797H314.726C324.015 82.8797 328.947 78.6124 328.947 70.643C328.947 62.6922 323.989 58.7075 314.726 58.7075ZM343.614 44.8074H334.744C334.177 44.8074 333.723 45.2939 333.723 45.8963V81.7909C333.723 82.3932 334.177 82.8797 334.744 82.8797H343.614C344.181 82.8797 344.64 82.3932 344.64 81.7909V45.8963C344.64 45.2939 344.181 44.8074 343.614 44.8074ZM194.366 74.1227C190.677 74.1227 186.954 70.8515 186.954 63.8366C186.954 58.0913 189.66 53.5598 194.366 53.5598C199.071 53.5598 201.778 58.0913 201.778 63.8366C201.778 70.8515 198.054 74.1227 194.366 74.1227ZM194.366 44.1495C183.89 44.1495 176.081 51.7945 176.081 63.8366C176.081 71.7643 180.559 83.5423 194.366 83.5423C208.177 83.5423 212.655 71.7643 212.655 63.8366C212.655 51.7945 204.846 44.1495 194.366 44.1495ZM384.064 44.8074H374.793C374.404 44.8074 374.081 45.0113 373.889 45.3773L363.95 65.0552V45.8963C363.95 45.2939 363.492 44.8074 362.929 44.8074H354.055C353.492 44.8074 353.033 45.2939 353.033 45.8963V81.7909C353.033 82.3932 353.492 82.8797 354.055 82.8797H363.344C363.719 82.8797 364.081 82.6342 364.243 82.3098L374.169 62.6134V81.7909C374.169 82.3932 374.631 82.8797 375.195 82.8797H384.064C384.632 82.8797 385.086 82.3932 385.086 81.7909V45.8963C385.086 45.2939 384.632 44.8074 384.064 44.8074ZM289.248 44.8074H280.378C279.815 44.8074 279.352 45.2939 279.352 45.8963V59.143H268.785V45.8963C268.785 45.2939 268.326 44.8074 267.759 44.8074H258.889C258.326 44.8074 257.868 45.2939 257.868 45.8963V81.7909C257.868 82.3932 258.326 82.8797 258.889 82.8797H267.759C268.326 82.8797 268.785 82.3932 268.785 81.7909V67.8306H279.352V81.7909C279.352 82.3932 279.815 82.8797 280.378 82.8797H289.248C289.815 82.8797 290.269 82.3932 290.269 81.7909V45.8963C290.269 45.2939 289.815 44.8074 289.248 44.8074ZM56.4407 74.1227C52.7523 74.1227 49.0289 70.8515 49.0289 63.8366C49.0289 58.0913 51.7308 53.5598 56.4407 53.5598C61.1549 53.5598 63.8568 58.0913 63.8568 63.8366C63.8568 70.8515 60.1335 74.1227 56.4407 74.1227ZM56.4407 44.1495C45.9603 44.1495 38.1513 51.7945 38.1513 63.8366C38.1513 71.7643 42.6255 83.5423 56.4407 83.5423C70.2559 83.5423 74.7344 71.7643 74.7344 63.8366C74.7344 51.7945 66.9254 44.1495 56.4407 44.1495ZM97.3232 53.7822C100.043 53.7822 102.644 55.2232 104.416 57.4658C104.814 57.892 105.464 57.892 105.861 57.4658L110.82 50.8864C111.221 50.4555 111.221 49.7744 110.794 49.2972C107.249 45.9843 102.456 44.1495 97.3232 44.1495C86.8429 44.1495 79.0339 51.7945 79.0339 63.8366C79.0339 71.7643 83.5124 83.5423 97.3232 83.5423C103.199 83.5423 107.629 81.397 110.763 78.2927C111.165 77.8618 111.165 77.1807 110.732 76.6525L105.931 70.2863C105.529 69.86 104.883 69.86 104.482 70.2863C102.526 72.6956 99.6061 73.9049 97.3232 73.9049C93.6261 73.9049 89.9115 70.694 89.9115 63.8366C89.9115 58.2303 92.6134 53.7822 97.3232 53.7822ZM506.911 53.4946C509.63 53.4946 512.232 54.9356 514.004 57.1781C514.401 57.6044 515.052 57.6044 515.449 57.1781L520.407 50.5988C520.809 50.1679 520.809 49.4868 520.381 49.0095C516.837 45.6967 512.044 43.8619 506.911 43.8619C496.431 43.8619 488.622 51.5069 488.622 63.549C488.622 71.4767 493.1 83.2547 506.911 83.2547C512.786 83.2547 517.217 81.1094 520.351 78.0051C520.752 77.5742 520.752 76.8931 520.32 76.3649L515.519 69.9986C515.117 69.5724 514.471 69.5724 514.069 69.9986C512.114 72.408 509.194 73.6173 506.911 73.6173C503.214 73.6173 499.499 70.4064 499.499 63.549C499.499 57.9426 502.201 53.4946 506.911 53.4946ZM542.794 53.4946C545.514 53.4946 548.115 54.9356 549.887 57.1781C550.285 57.6044 550.935 57.6044 551.332 57.1781L556.291 50.5988C556.692 50.1679 556.692 49.4868 556.265 49.0095C552.72 45.6967 547.927 43.8619 542.794 43.8619C532.314 43.8619 524.505 51.5069 524.505 63.549C524.505 71.4767 528.983 83.2547 542.794 83.2547C548.67 83.2547 553.1 81.1094 556.234 78.0051C556.636 77.5742 556.636 76.8931 556.204 76.3649L551.402 69.9986C551 69.5724 550.354 69.5724 549.953 69.9986C547.997 72.408 545.077 73.6173 542.794 73.6173C539.097 73.6173 535.382 70.4064 535.382 63.549C535.382 57.9426 538.084 53.4946 542.794 53.4946ZM369.057 41.9116C374.487 41.9116 377.997 39.4837 380.109 36.3238C380.428 35.828 380.319 35.1515 379.856 34.8087L374.57 31.9869C374.151 31.7831 373.654 31.9082 373.252 32.4549C372.178 34.0673 370.616 34.8504 369.057 34.8504C367.508 34.8504 365.941 34.0673 364.867 32.4549C364.47 31.9082 363.972 31.7831 363.549 31.9869L358.267 34.8087C357.8 35.1515 357.691 35.828 358.014 36.3238C360.118 39.4837 363.632 41.9116 369.057 41.9116ZM18.0505 74.2339H13.9125V67.9603H18.0505C21.141 67.9603 22.7385 69.253 22.7385 70.9813C22.7385 73.0199 21.3243 74.2339 18.0505 74.2339ZM13.9125 53.4533H17.6446C18.4216 53.4533 19.4299 53.532 20.2374 53.9629C20.9795 54.3614 21.5818 55.0657 21.5818 56.4928C21.5818 58.2627 20.5342 59.3145 17.6446 59.3145H13.9125V53.4533ZM30.1285 63.9617C29.1856 63.2389 28.2253 62.771 27.3698 62.4188C29.2948 61.3114 31.8788 58.9994 31.8788 54.8016C31.8788 53.3189 31.8396 44.8074 20.7176 44.8074H4.01707C3.45399 44.8074 3.00003 45.2939 3.00003 45.8963V81.7909C3.00003 82.3932 3.45399 82.8797 4.01707 82.8797H21.6822C33.0967 82.8797 33.8518 73.8493 33.8518 71.9821C33.8518 67.8677 32.0403 65.4166 30.1285 63.9617ZM120.279 44.8074C118.76 44.8074 117.52 46.1187 117.52 47.7357V76.2911C117.52 79.9329 120.305 82.8797 123.727 82.8797C127.158 82.8797 129.938 79.9329 129.938 76.2911V56.5206H137.385V76.2911C137.385 79.9329 140.17 82.8797 143.592 82.8797C147.027 82.8797 149.804 79.9329 149.804 76.2911V56.5206H157.255V76.2911C157.255 79.9329 160.035 82.8797 163.457 82.8797C166.893 82.8797 169.669 79.9329 169.669 76.2911V47.7357C169.669 46.1187 168.438 44.8074 166.91 44.8074H120.279ZM412.918 82.9124V44.9983H423.001V60.9204L433.85 44.9983H445.679L432.004 63.3536L446.043 82.9124H433.436L423.001 66.6068V82.9124H412.918ZM449.321 82.9124L462.129 44.9983H474.372L487.13 82.9124H476.331L474.372 76.3532H462.129L460.12 82.9124H449.321ZM468.257 53.7131L464.138 68.0218H472.363L468.257 53.7131ZM559.765 82.9124L572.573 44.9983H584.816L597.574 82.9124H586.775L584.816 76.3532H572.573L570.564 82.9124H559.765ZM578.701 53.7131L574.582 68.0218H582.807L578.701 53.7131Z" fill="#0277BD"/>
</svg>
