<svg xmlns="http://www.w3.org/2000/svg" width="24" height="24" viewBox="0 0 24 24">
  <path fill="#000000" d="M12,0 C5.3844277,0 0,5.3844277 0,12 C0,18.615572 5.3844277,24 12,24 C18.615572,24 24,18.615572 24,12 C24,5.3844277 18.615572,0 12,0 Z M12,2 C17.534692,2 22,6.465308 22,12 C22,17.534692 17.534692,22 12,22 C6.465308,22 2,17.534692 2,12 C2,8.724894 3.5765204,5.8538046 6,4.03125 L6.71875,4.5625 L12,8.28125 L12,2 Z M5.5625,6.1875 L4.4375,7.8125 L11.3125,12.6875 L11.71875,13 L12.21875,12.8125 L17.34375,10.9375 L16.65625,9.0625 L12,10.75 L5.5625,6.1875 Z"/>
</svg>
